<svg width="28" height="20" viewBox="0 0 28 20" fill="none" xmlns="http://www.w3.org/2000/svg">
<rect width="28" height="20" rx="2" fill="white"/>
<mask id="mask0_290_62" style="mask-type:alpha" maskUnits="userSpaceOnUse" x="0" y="0" width="28" height="20">
<rect width="28" height="20" rx="2" fill="white"/>
</mask>
<g mask="url(#mask0_290_62)">
<rect width="28" height="20" fill="#0A17A7"/>
<path d="M0 -0.333333H-0.901086L-0.21693 0.253086L4.33333 4.15331V5.16179L-0.193746 8.39542L-0.333333 8.49513V8.66667V9.33333V9.93475L0.176666 9.616L5.42893 6.33333H6.55984L11.0821 9.56351C11.176 9.6306 11.2886 9.66667 11.404 9.66667C11.9182 9.66667 12.1548 9.02698 11.7644 8.69237L7.66667 5.18002V4.17154L12.0542 1.03762C12.2294 0.912475 12.3333 0.710428 12.3333 0.495127V0V-0.601416L11.8233 -0.282666L6.57107 3H5.44016L0.860413 -0.271244L0.773488 -0.333333H0.666667H0Z" fill="#FF2E3B" stroke="white" stroke-width="0.666667"/>
<path fill-rule="evenodd" clip-rule="evenodd" d="M0 3.33333V6H4.66667V9.33333C4.66667 9.70152 4.96514 10 5.33333 10H6.66667C7.03486 10 7.33333 9.70152 7.33333 9.33333V6H12C12.3682 6 12.6667 5.70152 12.6667 5.33333V4C12.6667 3.63181 12.3682 3.33333 12 3.33333H7.33333V0H4.66667V3.33333H0Z" fill="url(#paint0_linear_290_62)"/>
<path fill-rule="evenodd" clip-rule="evenodd" d="M0 4H5.33333V3.33333V0H6.66667V3.33333V4H12V5.33333H6.66667V6V9.33333H5.33333V6V5.33333H0V4Z" fill="url(#paint1_linear_290_62)"/>
<path fill-rule="evenodd" clip-rule="evenodd" d="M5.99977 16.3333L4.8242 16.9514L5.04871 15.6423L4.09766 14.7153L5.41198 14.5243L5.99977 13.3333L6.58755 14.5243L7.90188 14.7153L6.95083 15.6423L7.17534 16.9514L5.99977 16.3333Z" fill="white"/>
<path fill-rule="evenodd" clip-rule="evenodd" d="M19.9999 17.3333L19.0571 17.6095L19.3333 16.6667L19.0571 15.7239L19.9999 16L20.9427 15.7239L20.6666 16.6667L20.9427 17.6095L19.9999 17.3333Z" fill="white"/>
<path fill-rule="evenodd" clip-rule="evenodd" d="M19.9999 4.66667L19.0571 4.94281L19.3333 4L19.0571 3.05719L19.9999 3.33333L20.9427 3.05719L20.6666 4L20.9427 4.94281L19.9999 4.66667Z" fill="white"/>
<path fill-rule="evenodd" clip-rule="evenodd" d="M23.9999 8.66667L23.0571 8.94281L23.3333 8L23.0571 7.05719L23.9999 7.33333L24.9427 7.05719L24.6666 8L24.9427 8.94281L23.9999 8.66667Z" fill="white"/>
<path fill-rule="evenodd" clip-rule="evenodd" d="M15.9999 10L15.0571 10.2761L15.3333 9.33333L15.0571 8.39052L15.9999 8.66667L16.9427 8.39052L16.6666 9.33333L16.9427 10.2761L15.9999 10Z" fill="white"/>
<path fill-rule="evenodd" clip-rule="evenodd" d="M22.0002 11.6667L21.5288 11.8047L21.6669 11.3333L21.5288 10.8619L22.0002 11L22.4716 10.8619L22.3335 11.3333L22.4716 11.8047L22.0002 11.6667Z" fill="white"/>
</g>
<defs>
<linearGradient id="paint0_linear_290_62" x1="0" y1="0" x2="0" y2="10" gradientUnits="userSpaceOnUse">
<stop stop-color="white"/>
<stop offset="1" stop-color="#F0F0F0"/>
</linearGradient>
<linearGradient id="paint1_linear_290_62" x1="0" y1="0" x2="0" y2="9.33333" gradientUnits="userSpaceOnUse">
<stop stop-color="#FF2E3B"/>
<stop offset="1" stop-color="#FC0D1B"/>
</linearGradient>
</defs>
</svg>
