<svg width="28" height="20" viewBox="0 0 28 20" fill="none" xmlns="http://www.w3.org/2000/svg">
<rect width="28" height="20" rx="2" fill="white"/>
<mask id="mask0_290_163" style="mask-type:alpha" maskUnits="userSpaceOnUse" x="0" y="0" width="28" height="20">
<rect width="28" height="20" rx="2" fill="white"/>
</mask>
<g mask="url(#mask0_290_163)">
<rect width="28" height="20" fill="#0B36B2"/>
<g filter="url(#filter0_d_290_163)">
<path fill-rule="evenodd" clip-rule="evenodd" d="M22.6665 20V0H8.6665L22.6665 20Z" fill="#FFD045"/>
</g>
<path fill-rule="evenodd" clip-rule="evenodd" d="M17.3334 18.6667L16.3906 18.9428L16.6668 18L16.3906 17.0572L17.3334 17.3333L18.2762 17.0572L18.0001 18L18.2762 18.9428L17.3334 18.6667Z" fill="white"/>
<path fill-rule="evenodd" clip-rule="evenodd" d="M14.6664 14.6667L13.7236 14.9428L13.9998 14L13.7236 13.0572L14.6664 13.3333L15.6093 13.0572L15.3331 14L15.6093 14.9428L14.6664 14.6667Z" fill="white"/>
<path fill-rule="evenodd" clip-rule="evenodd" d="M11.9999 10.6667L11.0571 10.9428L11.3333 10L11.0571 9.05719L11.9999 9.33333L12.9427 9.05719L12.6666 10L12.9427 10.9428L11.9999 10.6667Z" fill="white"/>
<path fill-rule="evenodd" clip-rule="evenodd" d="M9.33343 6.66667L8.39063 6.94281L8.66677 6L8.39063 5.05719L9.33343 5.33333L10.2762 5.05719L10.0001 6L10.2762 6.94281L9.33343 6.66667Z" fill="white"/>
<path fill-rule="evenodd" clip-rule="evenodd" d="M6.66644 2.66667L5.72363 2.94281L5.99978 2L5.72363 1.05719L6.66644 1.33333L7.60925 1.05719L7.33311 2L7.60925 2.94281L6.66644 2.66667Z" fill="white"/>
</g>
<defs>
<filter id="filter0_d_290_163" x="8.6665" y="0" width="14" height="20" filterUnits="userSpaceOnUse" color-interpolation-filters="sRGB">
<feFlood flood-opacity="0" result="BackgroundImageFix"/>
<feColorMatrix in="SourceAlpha" type="matrix" values="0 0 0 0 0 0 0 0 0 0 0 0 0 0 0 0 0 0 127 0" result="hardAlpha"/>
<feOffset/>
<feColorMatrix type="matrix" values="0 0 0 0 0 0 0 0 0 0 0 0 0 0 0 0 0 0 0.06 0"/>
<feBlend mode="normal" in2="BackgroundImageFix" result="effect1_dropShadow_290_163"/>
<feBlend mode="normal" in="SourceGraphic" in2="effect1_dropShadow_290_163" result="shape"/>
</filter>
</defs>
</svg>
