<svg width="28" height="20" viewBox="0 0 28 20" fill="none" xmlns="http://www.w3.org/2000/svg">
<rect width="28" height="20" rx="2" fill="white"/>
<mask id="mask0_290_124" style="mask-type:alpha" maskUnits="userSpaceOnUse" x="0" y="0" width="28" height="20">
<rect width="28" height="20" rx="2" fill="white"/>
</mask>
<g mask="url(#mask0_290_124)">
<rect width="28" height="20" fill="url(#paint0_linear_290_124)"/>
<rect x="13.3335" width="14.6667" height="20" fill="#08379D"/>
<path fill-rule="evenodd" clip-rule="evenodd" d="M0 20H9.33333V0H0V20Z" fill="#08379D"/>
<path fill-rule="evenodd" clip-rule="evenodd" d="M9.3335 20H18.6668V0H9.3335V20Z" fill="#FFCC50"/>
<path fill-rule="evenodd" clip-rule="evenodd" d="M13.7455 6.4135C13.8793 6.2168 14.1701 6.2195 14.3002 6.41865L14.9964 7.48437C15.1412 7.70607 14.9822 8 14.7173 8H14.7016C14.5044 8 14.3503 8.17027 14.3699 8.3665L14.6366 11.0332C14.6536 11.2036 14.797 11.3333 14.9682 11.3333H15.1962C15.284 11.3333 15.3682 11.2987 15.4307 11.237L15.901 10.7717C15.9643 10.7091 15.9999 10.6237 15.9999 10.5347V9.47141C15.9999 9.383 15.9648 9.29822 15.9023 9.2357L15.7146 9.04804C15.5394 8.87283 15.6098 8.57447 15.8449 8.49611L16.7979 8.17844C17.0386 8.09823 17.2771 8.30549 17.2312 8.55496L16.7396 11.2277C16.727 11.2964 16.6931 11.3594 16.6428 11.4077L15.43 12.5736C15.3679 12.6333 15.2851 12.6667 15.199 12.6667H14.9999C14.8158 12.6667 14.6666 12.8159 14.6666 13V13.6667C14.6666 13.8508 14.5173 14 14.3332 14H13.6666C13.4825 14 13.3332 13.8508 13.3332 13.6667V13C13.3332 12.8159 13.184 12.6667 12.9999 12.6667H12.8047C12.7162 12.6667 12.6315 12.6315 12.5689 12.569L11.4046 11.4047C11.3581 11.3582 11.3264 11.2989 11.3135 11.2344L10.7792 8.56324C10.729 8.31227 10.9687 8.1007 11.2115 8.18164L12.1549 8.49611C12.39 8.57447 12.4604 8.87283 12.2852 9.04804L12.0975 9.2357C12.035 9.29822 11.9999 9.383 11.9999 9.47141V10.5347C11.9999 10.6237 12.0355 10.7091 12.0988 10.7717L12.5692 11.237C12.6316 11.2987 12.7158 11.3333 12.8036 11.3333H13.0316C13.2028 11.3333 13.3462 11.2036 13.3633 11.0332L13.6299 8.3665C13.6496 8.17027 13.4948 8 13.2976 8C13.0299 8 12.8703 7.70052 13.0208 7.47922L13.7455 6.4135Z" fill="#262626"/>
</g>
<defs>
<linearGradient id="paint0_linear_290_124" x1="0" y1="0" x2="0" y2="20" gradientUnits="userSpaceOnUse">
<stop stop-color="#1132C7"/>
<stop offset="1" stop-color="#0522A5"/>
</linearGradient>
</defs>
</svg>
