<svg width="28" height="20" viewBox="0 0 28 20" fill="none" xmlns="http://www.w3.org/2000/svg">
<rect width="28" height="20" rx="2" fill="white"/>
<mask id="mask0_290_216" style="mask-type:alpha" maskUnits="userSpaceOnUse" x="0" y="0" width="28" height="20">
<rect width="28" height="20" rx="2" fill="white"/>
</mask>
<g mask="url(#mask0_290_216)">
<rect width="28" height="20" fill="#05AB41"/>
<path fill-rule="evenodd" clip-rule="evenodd" d="M3.53145 10.5597C3.12545 10.297 3.12545 9.70299 3.53145 9.44029L13.6376 2.90101C13.858 2.7584 14.1415 2.7584 14.3619 2.90101L24.4681 9.44028C24.8741 9.70299 24.8741 10.297 24.4681 10.5597L14.3619 17.099C14.1415 17.2416 13.858 17.2416 13.6376 17.099L3.53145 10.5597Z" fill="#FDD216"/>
<path fill-rule="evenodd" clip-rule="evenodd" d="M14.0002 14.6667C16.5775 14.6667 18.6668 12.5773 18.6668 10C18.6668 7.42267 16.5775 5.33333 14.0002 5.33333C11.4228 5.33333 9.3335 7.42267 9.3335 10C9.3335 12.5773 11.4228 14.6667 14.0002 14.6667Z" fill="#053087"/>
<mask id="mask1_290_216" style="mask-type:alpha" maskUnits="userSpaceOnUse" x="9" y="5" width="10" height="10">
<path fill-rule="evenodd" clip-rule="evenodd" d="M14.0002 14.6667C16.5775 14.6667 18.6668 12.5773 18.6668 10C18.6668 7.42267 16.5775 5.33333 14.0002 5.33333C11.4228 5.33333 9.3335 7.42267 9.3335 10C9.3335 12.5773 11.4228 14.6667 14.0002 14.6667Z" fill="white"/>
</mask>
<g mask="url(#mask1_290_216)">
<path d="M8.77987 8.78025C9.51257 8.18692 11.8769 8.74899 14.084 9.33774C16.291 9.92648 18.5929 11.1605 19.179 11.8843" stroke="white" stroke-width="1.33333" stroke-linecap="square"/>
</g>
</g>
</svg>
