<svg width="28" height="20" viewBox="0 0 28 20" fill="none" xmlns="http://www.w3.org/2000/svg">
<rect width="28" height="20" rx="2" fill="white"/>
<mask id="mask0_290_2007" style="mask-type:alpha" maskUnits="userSpaceOnUse" x="0" y="0" width="28" height="20">
<rect width="28" height="20" rx="2" fill="white"/>
</mask>
<g mask="url(#mask0_290_2007)">
<rect width="28" height="20" fill="#07319C"/>
<path fill-rule="evenodd" clip-rule="evenodd" d="M17.3335 9.99999C17.3335 8.90626 17.3335 7.61314 17.3335 6.66581C17.3335 5.92943 17.9304 5.33333 18.6668 5.33333H22.6668C23.4032 5.33333 24.0002 5.92943 24.0002 6.66581C24.0002 7.61314 24.0002 8.90626 24.0002 9.99999C24.0002 13.3333 20.6668 14.6667 20.6668 14.6667C20.6668 14.6667 17.3335 13.3333 17.3335 9.99999Z" fill="#0072C4"/>
<mask id="mask1_290_2007" style="mask-type:alpha" maskUnits="userSpaceOnUse" x="17" y="5" width="7" height="10">
<path fill-rule="evenodd" clip-rule="evenodd" d="M17.3335 9.99999C17.3335 8.90626 17.3335 7.61314 17.3335 6.66581C17.3335 5.92943 17.9304 5.33333 18.6668 5.33333H22.6668C23.4032 5.33333 24.0002 5.92943 24.0002 6.66581C24.0002 7.61314 24.0002 8.90626 24.0002 9.99999C24.0002 13.3333 20.6668 14.6667 20.6668 14.6667C20.6668 14.6667 17.3335 13.3333 17.3335 9.99999Z" fill="white"/>
</mask>
<g mask="url(#mask1_290_2007)">
<path fill-rule="evenodd" clip-rule="evenodd" d="M18.8695 9.26769C18.1863 9.95776 19.5252 9.87024 19.5252 9.87024L20.4788 9.56491C20.4788 9.56491 20.9076 9.61678 21.197 9.70402C21.3887 9.76181 21.9221 10 21.9221 10C21.9221 10 23.0488 9.77507 22.6527 9.26769C22.2565 8.76032 19.5527 8.57763 18.8695 9.26769Z" fill="#005121"/>
<path fill-rule="evenodd" clip-rule="evenodd" d="M21.7103 8.55085C21.7377 8.54463 21.8017 8.54603 21.8256 8.57511C21.8631 8.62057 21.9398 8.60546 21.9773 8.64927C22.0146 8.6932 22.058 8.73371 22.058 8.79619C22.058 8.85866 22.0508 9.01359 22.0521 9.04762C22.054 9.10006 22.0631 9.10819 22.117 9.10679C22.182 9.10514 22.2718 9.10006 22.2746 8.98362C22.2765 8.90247 22.1958 8.85181 22.1722 8.56317C22.2076 8.53282 22.2392 8.50578 22.2274 8.46539C22.2155 8.42489 22.2943 8.40457 22.2865 8.34374C22.2785 8.28305 22.3651 8.24584 22.3297 8.17841C22.2943 8.11085 22.373 8.10755 22.3416 8.05346C22.31 7.99949 22.3927 7.95212 22.3573 7.90501C22.3219 7.85765 22.4045 7.81384 22.3613 7.75644C22.3179 7.69905 22.3848 7.66527 22.3416 7.62133C22.3691 7.57752 22.3454 7.45257 22.2588 7.38171C22.1722 7.31073 22.0502 7.27365 21.9792 7.2466C21.8472 7.19632 21.6011 7.21955 21.4278 7.23987C21.2545 7.26006 20.9315 7.28038 20.833 7.26692C20.7346 7.25346 20.5023 7.23987 20.3191 7.27022C20.2564 7.28063 20.1851 7.26184 20.1478 7.22641C20.1179 7.19809 20.1005 7.20114 20.073 7.20279C20.0454 7.20444 20.0296 7.19593 20.0158 7.16216C19.9915 7.10273 19.9371 7.14362 19.9115 7.06933C19.8943 7.01968 19.805 7.0626 19.7776 7.02044C19.7499 6.97828 19.7165 6.9732 19.6416 6.97828C19.6377 6.95289 19.5964 6.93435 19.5589 6.94108C19.5648 6.89892 19.5235 6.86514 19.4546 6.86679C19.4625 6.81447 19.366 6.77397 19.3167 6.80609C19.2853 6.76724 19.2222 6.77562 19.2065 6.80609C19.173 6.76724 19.0666 6.77905 19.041 6.8212C18.9958 6.79593 18.9078 6.85803 18.9151 6.95632C18.917 6.98336 18.9188 7.01143 18.8736 7.02044C18.789 7.03733 18.7398 7.13181 18.6668 7.14527C18.594 7.15885 18.5211 7.18247 18.5074 7.22298C18.4936 7.26349 18.5192 7.30578 18.4916 7.32597C18.4641 7.34628 18.5093 7.36482 18.5231 7.37485C18.5368 7.38501 18.5585 7.4019 18.5625 7.42552C18.5681 7.45905 18.6234 7.46908 18.6807 7.43225C18.7042 7.41714 18.7456 7.46273 18.8125 7.4306C18.8795 7.3986 18.9746 7.41549 18.9583 7.46781C18.9505 7.49308 18.9681 7.52012 18.9899 7.54539C19.0115 7.57066 19.0439 7.64698 19.0253 7.69054C18.9977 7.75466 19.0528 7.79022 19.0391 7.84749C19.0253 7.90501 19.0469 7.95733 19.0174 8.03492C18.9878 8.11251 18.9874 8.20965 19.0312 8.23746C19.0922 8.27632 19.0554 8.35327 19.1079 8.38603C19.1512 8.41295 19.1257 8.47886 19.2065 8.49905C19.2872 8.51936 19.2399 8.57333 19.3245 8.58514C19.4093 8.59695 19.4388 8.65778 19.5274 8.64419C19.5927 8.63428 19.6271 8.65016 19.6651 8.66514C19.673 8.71924 19.6555 8.91771 19.6515 8.96838C19.6479 9.0132 19.6239 9.0847 19.6239 9.12876C19.6239 9.15568 19.6791 9.16241 19.7422 9.16241C19.805 9.16241 19.8327 9.13714 19.8168 9.06628C19.8011 8.9953 19.7973 8.82247 19.8013 8.71441C19.8559 8.7407 19.9079 8.77752 19.9056 8.81816C19.9016 8.88393 19.9026 9.00203 19.8916 9.06286C19.8839 9.10679 19.8956 9.176 19.8996 9.22159C19.9036 9.23835 20.0099 9.2367 20.0533 9.22159C20.0965 9.20635 20.0965 9.16584 20.0925 8.98184C20.0906 8.89079 19.994 8.79771 20.1162 8.75225C20.1754 8.73028 20.258 8.67962 20.2896 8.63251C20.321 8.58514 20.39 8.60368 20.4392 8.62743C20.4884 8.65105 20.5672 8.68711 20.6165 8.67124C20.6795 8.65105 20.7465 8.70159 20.8016 8.67124C20.8567 8.64089 20.9276 8.6932 20.9728 8.65612C21.0182 8.61892 21.097 8.65435 21.1305 8.61892C21.1639 8.58349 21.3017 8.63924 21.3511 8.592C21.4002 8.54463 21.4672 8.60546 21.5125 8.57003C21.5244 8.56063 21.5385 8.5586 21.5539 8.55974C21.5521 8.63962 21.5371 8.76673 21.5342 8.80635C21.5306 8.8513 21.5066 8.92266 21.5066 8.9666C21.5066 8.99365 21.5617 9.00038 21.6247 9.00038C21.6878 9.00038 21.7154 8.97511 21.6996 8.90425C21.6838 8.83339 21.7065 8.65905 21.7103 8.55085Z" fill="#A3A3A3"/>
<path fill-rule="evenodd" clip-rule="evenodd" d="M18.5237 7.31999C18.5501 7.30082 18.5257 7.26095 18.5388 7.2226C18.552 7.18437 18.6218 7.16203 18.6916 7.14933C18.7614 7.1365 18.8085 7.04723 18.8897 7.03123C18.9329 7.02272 18.9311 6.99618 18.9292 6.97066C18.9224 6.87783 19.0065 6.81917 19.05 6.84317C19.0744 6.80317 19.1763 6.79199 19.2083 6.82869C19.2234 6.79999 19.2837 6.79199 19.314 6.82869C19.3611 6.79847 19.4535 6.83669 19.446 6.88609C19.512 6.88457 19.5516 6.91644 19.546 6.95631C19.5818 6.94996 19.6214 6.96749 19.6252 6.99136C19.6191 7.0306 19.7088 7.04063 19.6673 7.06603C19.631 7.08825 19.5965 7.07949 19.5551 7.04914C19.5138 7.01866 19.3759 7.04571 19.3562 7.06095C19.3365 7.07618 19.3148 7.08291 19.299 7.0711C19.2833 7.0593 19.246 7.04063 19.2282 7.04241C19.2104 7.04406 19.1731 7.04406 19.1513 7.00863C19.1297 6.9732 19.0745 6.96812 19.0648 6.98158C19.055 6.99504 19.0864 7.04406 19.118 7.0626C19.1494 7.08126 19.1337 7.11669 19.1711 7.13688C19.1956 7.15022 19.1731 7.19593 19.1593 7.22298C19.1455 7.25003 19.0923 7.24152 19.0883 7.22133C19.0845 7.20114 19.0705 7.18755 19.0391 7.2179C19.0076 7.24837 18.9408 7.23987 18.9249 7.23149C18.9092 7.22298 18.8658 7.20787 18.8363 7.21625C18.8067 7.22476 18.8501 7.23822 18.8541 7.25003C18.858 7.26183 18.8067 7.26691 18.7772 7.26691C18.7477 7.26691 18.7378 7.28368 18.7556 7.2871C18.7734 7.29053 18.8421 7.29396 18.8698 7.28037C18.8974 7.26691 18.982 7.28037 18.99 7.30577C18.9978 7.33104 18.9408 7.3412 18.9071 7.33777C18.8577 7.33282 18.7851 7.35974 18.7497 7.36812C18.7143 7.37663 18.6197 7.35466 18.5823 7.36482C18.5449 7.37485 18.508 7.3351 18.5237 7.31999Z" fill="#A3A3A3"/>
<path fill-rule="evenodd" clip-rule="evenodd" d="M19.1572 7.52685C19.1218 7.54031 19.1336 7.58082 19.1652 7.59771C19.1967 7.6146 19.2675 7.62133 19.3129 7.61295C19.3581 7.60444 19.368 7.61803 19.3385 7.63491C19.3089 7.65168 19.3837 7.6551 19.3778 7.68215C19.372 7.70907 19.4053 7.70399 19.4369 7.70234C19.4684 7.70069 19.5098 7.68037 19.5452 7.66183C19.5806 7.6433 19.6062 7.65676 19.5727 7.68888C19.5394 7.72088 19.4271 7.76152 19.3385 7.75644C19.2498 7.75136 19.2025 7.77155 19.2222 7.80025C19.2419 7.82895 19.3364 7.83403 19.3856 7.81879C19.4349 7.80368 19.4271 7.83072 19.3896 7.84914C19.3521 7.8678 19.2989 7.86945 19.2538 7.8678C19.2084 7.86615 19.169 7.90501 19.2281 7.92685C19.2872 7.94882 19.3661 7.93536 19.3955 7.9539C19.4252 7.97244 19.5157 7.94374 19.5176 7.97587C19.5195 8.00787 19.492 8.01968 19.4388 8.01637C19.3856 8.01295 19.4013 8.03695 19.4409 8.05003C19.4763 8.06196 19.5394 8.06196 19.5727 8.05853C19.6062 8.05523 19.5964 8.08888 19.5629 8.10069C19.5295 8.1125 19.4212 8.12939 19.368 8.12774C19.3148 8.12609 19.3403 8.15987 19.4093 8.15987C19.62 8.15987 19.6909 8.06018 19.7441 7.99098C19.7702 7.95707 19.8209 7.93866 19.8327 7.95898C19.8446 7.97917 19.8465 7.98425 19.8229 8.00114C19.7992 8.01803 19.805 8.02818 19.8484 8.02983C19.8917 8.03149 19.9548 8.01968 19.9923 8.00964C20.0296 7.99949 20.1398 8.06336 20.0493 8.06526C19.8898 8.06869 19.6929 8.12609 19.628 8.14971C19.5629 8.17333 19.4545 8.21777 19.3877 8.21549C19.3385 8.21383 19.3186 8.23237 19.3385 8.25434C19.3581 8.27631 19.4212 8.27631 19.4566 8.26615C19.492 8.25599 19.4998 8.26615 19.4763 8.28634C19.4527 8.30666 19.3936 8.31504 19.3521 8.3219C19.3109 8.32863 19.2905 8.35504 19.3226 8.36571C19.3837 8.38603 19.3286 8.40457 19.372 8.41472C19.4152 8.42488 19.368 8.45688 19.4152 8.46704C19.4625 8.4772 19.4901 8.47212 19.5255 8.4485C19.561 8.42488 19.5806 8.4113 19.6181 8.41472C19.6555 8.41815 19.6812 8.40114 19.7028 8.37587C19.7244 8.3506 19.7973 8.30501 19.8209 8.32698C19.8446 8.34895 19.8938 8.30831 19.9037 8.33028C19.9135 8.35225 19.9548 8.33879 19.9647 8.36914C19.9755 8.40291 20.0218 8.40964 20.0533 8.39783C20.0847 8.38603 20.1104 8.35733 20.1104 8.31504C20.1104 8.27288 20.1222 8.25599 20.1341 8.30158C20.1458 8.34717 20.1892 8.36063 20.2108 8.33879C20.2324 8.31682 20.2403 8.24088 20.2246 8.20545C20.2089 8.1699 20.2068 8.12431 20.2226 8.11593C20.2384 8.10755 20.2758 8.18514 20.2915 8.21891C20.3074 8.25269 20.3486 8.24253 20.3506 8.20876C20.3526 8.17498 20.3901 8.15809 20.4176 8.18349C20.4452 8.20876 20.4295 8.2932 20.4373 8.33371C20.4452 8.37422 20.5219 8.32355 20.5299 8.33701C20.5378 8.3506 20.5672 8.3539 20.5791 8.3252C20.5909 8.2965 20.6185 8.27123 20.6342 8.28812C20.6501 8.30501 20.6736 8.33371 20.6834 8.36571C20.6933 8.39784 20.7287 8.41472 20.7504 8.38095C20.772 8.34717 20.7878 8.28139 20.78 8.23568C20.772 8.19022 20.7859 8.16152 20.8055 8.18514C20.8252 8.20876 20.8232 8.27288 20.8252 8.3252C20.8272 8.37752 20.8921 8.37257 20.8921 8.29485C20.8921 8.25942 20.9118 8.25269 20.9178 8.27288C20.9237 8.2932 20.9237 8.32698 20.9296 8.34209C20.9441 8.37955 20.9946 8.35898 21.0004 8.33371C21.0064 8.30831 20.9966 8.21714 20.9847 8.17676C20.9729 8.13612 20.9966 8.10755 21.0163 8.12939C21.036 8.15136 21.0398 8.20876 21.0438 8.27288C21.0477 8.33701 21.089 8.34044 21.1108 8.3219C21.1324 8.30323 21.1324 8.24926 21.1226 8.21041C21.1127 8.17168 21.1443 8.17168 21.1581 8.1953C21.1718 8.21891 21.1955 8.20368 21.1915 8.18514C21.1877 8.1666 21.2072 8.14971 21.2269 8.17498C21.2466 8.20037 21.2407 8.25777 21.2309 8.30323C21.221 8.34895 21.2801 8.34374 21.3077 8.30501C21.3352 8.26615 21.3215 8.15987 21.2979 8.12609C21.2742 8.09231 21.2763 8.04837 21.2899 8.00964C21.3038 7.97079 21.3295 7.96901 21.3314 7.98603C21.3333 8.00279 21.3452 8.03149 21.3668 8.05345C21.3884 8.07542 21.4003 8.07885 21.4041 8.04495C21.4081 8.0113 21.4278 8.01968 21.4357 8.04495C21.4437 8.07034 21.4573 8.09053 21.477 8.06869C21.4967 8.04672 21.5224 8.06361 21.5066 8.09739C21.4908 8.13117 21.4908 8.16152 21.5026 8.1953C21.5145 8.22907 21.5558 8.22399 21.5598 8.18514C21.568 8.10437 21.5795 8.15809 21.5893 8.19352C21.5991 8.22907 21.6287 8.2273 21.6346 8.2071C21.6406 8.18679 21.6465 8.18183 21.6465 8.20368C21.6465 8.22564 21.6563 8.24418 21.6819 8.24418C21.7075 8.24418 21.7016 8.20037 21.7133 8.17333C21.7252 8.14628 21.7468 8.18349 21.7764 8.24583C21.8059 8.30831 21.8275 8.24926 21.8966 8.3911C21.9247 8.44888 21.9655 8.39949 21.9635 8.3793C21.9615 8.35898 21.9674 8.34552 22.0009 8.34552C22.0344 8.34552 22.0619 8.33879 22.0502 8.31682C22.0384 8.29485 22.0462 8.25434 22.0443 8.20876C22.0424 8.16317 22.0481 8.1379 22.0541 8.16317C22.06 8.18844 22.0797 8.22399 22.1111 8.24253C22.1426 8.26107 22.1643 8.21041 22.1386 8.17841C22.1132 8.14628 22.0778 8.07034 22.0797 8.00622C22.0812 7.95898 22.1032 7.97409 22.1032 8.00787C22.1032 8.04164 22.1229 8.10247 22.1526 8.11593C22.1821 8.12939 22.1939 8.06691 22.1801 8.03491C22.1664 8.00279 22.1585 7.95898 22.188 7.95047C22.2175 7.94209 22.1801 7.90666 22.1545 7.88126C22.1289 7.85599 22.1132 7.83072 22.1585 7.83237C22.2037 7.83403 22.1664 7.80533 22.1446 7.78679C22.1229 7.76825 22.0856 7.73104 22.1446 7.73612C22.2037 7.7412 22.1841 7.71085 22.1604 7.69396C22.1367 7.67707 22.1229 7.64495 22.1643 7.64672C22.2058 7.64837 22.2312 7.62806 22.2274 7.61295C22.2123 7.55441 22.1132 7.48634 22.0521 7.43403C21.9911 7.38171 21.8926 7.32939 21.8394 7.32088C21.7862 7.31237 21.7843 7.34628 21.7981 7.36647C21.8118 7.38666 21.8394 7.40025 21.8434 7.37993C21.8472 7.35974 21.8886 7.38171 21.9083 7.40863C21.928 7.43568 21.9949 7.46945 22.0364 7.4998C22.0778 7.53015 21.9812 7.51504 21.9339 7.47453C21.9069 7.4513 21.9102 7.47949 21.9458 7.51161C21.9812 7.54374 21.9358 7.5572 21.8985 7.53015C21.861 7.50323 21.7646 7.4273 21.7035 7.37828C21.6425 7.32939 21.6326 7.3412 21.6306 7.3732C21.6287 7.40533 21.6504 7.4273 21.6898 7.45422C21.7292 7.48126 21.7784 7.52342 21.8158 7.55212C21.8532 7.58082 21.8218 7.59936 21.7981 7.57904C21.7744 7.55885 21.6938 7.50323 21.6465 7.46437C21.5991 7.42552 21.5558 7.40698 21.5264 7.41206C21.4967 7.41714 21.4988 7.44583 21.5342 7.47618C21.5696 7.50653 21.613 7.56393 21.613 7.59771C21.613 7.63149 21.5815 7.6551 21.5656 7.59441C21.5499 7.53358 21.4751 7.46272 21.42 7.40863C21.3649 7.35466 21.3096 7.3445 21.2683 7.34793C21.2269 7.35123 21.2289 7.39174 21.2289 7.42387C21.2289 7.45587 21.2013 7.43733 21.1994 7.41371C21.1975 7.39009 21.1659 7.3699 21.1481 7.37155C21.1305 7.3732 21.1364 7.42222 21.1305 7.44418C21.1246 7.46603 21.097 7.48634 21.097 7.43568C21.097 7.38501 21.032 7.35974 21.0044 7.35796C20.9769 7.35631 20.9512 7.36647 20.965 7.38844C20.9788 7.41028 20.9729 7.46945 20.9631 7.50323C20.9532 7.53688 20.9237 7.47783 20.9178 7.41536C20.9118 7.35301 20.8194 7.30907 20.7544 7.32761C20.6893 7.34628 20.7386 7.38666 20.7268 7.42552C20.7149 7.46437 20.6972 7.42895 20.6912 7.38844C20.6855 7.34793 20.6539 7.32253 20.6106 7.33269C20.5672 7.34285 20.5378 7.36304 20.5397 7.39009C20.5416 7.41714 20.5416 7.44076 20.5318 7.48457C20.5219 7.5285 20.5043 7.50653 20.5062 7.47783C20.5083 7.44914 20.4984 7.4019 20.4884 7.37485C20.4786 7.34793 20.4628 7.3732 20.4668 7.40698C20.4708 7.44076 20.4609 7.51834 20.4452 7.56571C20.4295 7.61295 20.4058 7.6146 20.4176 7.55047C20.4295 7.48634 20.3998 7.39174 20.3704 7.34793C20.3492 7.31657 20.3015 7.30577 20.3015 7.34958C20.3015 7.39352 20.3152 7.42552 20.3506 7.45764C20.3861 7.48964 20.3585 7.56901 20.3231 7.6113C20.2875 7.65345 20.2896 7.59263 20.3015 7.54704C20.3132 7.50145 20.2483 7.48634 20.2226 7.47783C20.197 7.46945 20.2502 7.42387 20.2621 7.36304C20.2678 7.33307 20.26 7.31415 20.2364 7.31237C20.2127 7.31072 20.1498 7.36812 20.1222 7.41028C20.1301 7.36647 20.1222 7.32761 20.0985 7.32761C20.0749 7.32761 20.0493 7.3699 20.0317 7.40025C20.0139 7.4306 19.9961 7.41371 20.0139 7.38171C20.0317 7.34958 20.0591 7.26349 20.0237 7.24495C19.9883 7.22641 19.9567 7.30234 19.9194 7.28876C19.8982 7.28114 19.9272 7.23314 19.9391 7.21117C19.9508 7.1892 19.9272 7.17231 19.8741 7.21282C19.8209 7.25345 19.7973 7.31923 19.7834 7.35974C19.7698 7.40025 19.6752 7.46603 19.624 7.50145C19.5727 7.53688 19.5511 7.52342 19.5767 7.50818C19.6024 7.49307 19.6535 7.44583 19.6791 7.4273C19.7047 7.40863 19.6929 7.39771 19.6437 7.42971C19.5945 7.46183 19.5049 7.52012 19.4132 7.54031C19.3594 7.55225 19.3521 7.54209 19.4053 7.52685C19.4585 7.51161 19.5806 7.43898 19.6102 7.40533C19.6287 7.38412 19.5806 7.4019 19.557 7.40698C19.5335 7.41206 19.5138 7.40533 19.561 7.38844C19.6081 7.37155 19.7579 7.23822 19.7895 7.1892C19.8209 7.14031 19.7933 7.12164 19.7736 7.12342C19.7539 7.12507 19.7264 7.13688 19.7323 7.11669C19.7382 7.09637 19.7244 7.06933 19.6988 7.07783C19.6732 7.08622 19.6752 7.13523 19.6653 7.16215C19.6555 7.1892 19.6003 7.22476 19.5649 7.22476C19.5295 7.22476 19.4803 7.23149 19.4428 7.25676C19.4053 7.28203 19.3877 7.25841 19.4053 7.23822C19.4231 7.2179 19.4625 7.21282 19.5019 7.21117C19.5413 7.20952 19.5846 7.20444 19.6181 7.17231C19.6515 7.14031 19.6535 7.11491 19.628 7.11326C19.6024 7.11161 19.5589 7.08291 19.5452 7.0711C19.4752 7.01104 19.3471 7.09472 19.297 7.14361C19.2695 7.17066 19.1749 7.24837 19.1455 7.26857C19.1158 7.28876 19.1277 7.31745 19.1769 7.27872C19.2262 7.23987 19.2419 7.26691 19.1967 7.29561C19.1512 7.32431 19.1179 7.36647 19.1336 7.38171C19.1493 7.39682 19.2104 7.37828 19.2438 7.35974C19.2773 7.3412 19.2932 7.38666 19.2104 7.4019C19.1548 7.41218 19.1354 7.43174 19.1789 7.43403C19.2124 7.43568 19.2635 7.42222 19.3109 7.3986C19.3581 7.37485 19.3955 7.38844 19.3561 7.41206C19.3167 7.43568 19.2301 7.4678 19.1868 7.4678C19.1505 7.4678 19.1927 7.51339 19.1572 7.52685Z" fill="white"/>
<path fill-rule="evenodd" clip-rule="evenodd" d="M19.3854 7.14956C19.4328 7.10023 19.4741 7.07863 19.5174 7.1141C19.5566 7.14623 19.5608 7.16023 19.5115 7.14956C19.4623 7.1389 19.4288 7.14956 19.3993 7.18143C19.3697 7.21343 19.3362 7.2009 19.3854 7.14956Z" fill="#A3A3A3"/>
<path fill-rule="evenodd" clip-rule="evenodd" d="M18.6057 7.27487C18.6411 7.2394 18.6981 7.2394 18.7238 7.20047C18.7494 7.1614 18.7769 7.17567 18.7454 7.21287C18.714 7.25007 18.6529 7.25727 18.6273 7.2838C18.6017 7.31034 18.5879 7.2926 18.6057 7.27487Z" fill="#A3A3A3"/>
<path fill-rule="evenodd" clip-rule="evenodd" d="M18.8264 7.13934C18.8478 7.1364 18.8894 7.11094 18.915 7.0808C18.9406 7.05067 18.9958 7.04 19.0291 7.07547C19.0626 7.11094 19.0803 7.12334 19.0981 7.13054C19.1158 7.1376 19.1158 7.16067 19.0882 7.1676C19.0606 7.1748 19.0233 7.18014 19.0036 7.1712C18.9839 7.1624 18.9543 7.15534 18.9307 7.16067C18.907 7.16587 18.8972 7.15534 18.9169 7.1464C18.9366 7.1376 18.9602 7.11094 18.972 7.10027C18.9839 7.08974 19.0153 7.09854 18.9977 7.1092C18.9799 7.11987 18.9878 7.1428 19.0055 7.15174C19.0233 7.16067 19.0587 7.16067 19.0744 7.14467C19.0509 7.1216 19.0115 7.09147 18.9958 7.08267C18.9799 7.07374 18.9661 7.07014 18.9464 7.09147C18.9267 7.1128 18.8795 7.16414 18.8343 7.1624C18.7889 7.16067 18.8008 7.1428 18.8264 7.13934Z" fill="#A3A3A3"/>
<path fill-rule="evenodd" clip-rule="evenodd" d="M20.0707 7.45736C20.0532 7.48176 20.0372 7.51322 20.0353 7.53802C20.0333 7.56282 20.056 7.57976 20.0588 7.54869C20.0618 7.51762 20.0648 7.49909 20.0893 7.47602C20.1141 7.45296 20.0904 7.42989 20.0707 7.45736Z" fill="#A3A3A3"/>
<path fill-rule="evenodd" clip-rule="evenodd" d="M19.8299 7.45678C19.8504 7.44851 19.885 7.42931 19.9018 7.41158C19.9185 7.39398 19.9293 7.40545 19.9126 7.42491C19.8958 7.44438 19.8575 7.46745 19.8397 7.47278C19.8221 7.47811 19.8083 7.46571 19.8299 7.45678Z" fill="#A3A3A3"/>
<path fill-rule="evenodd" clip-rule="evenodd" d="M19.86 7.55543C19.8317 7.58946 19.7202 7.67035 19.6867 7.68546C19.6532 7.7007 19.6651 7.72267 19.7026 7.71086C19.675 7.7327 19.6138 7.76825 19.5746 7.77828C19.5352 7.78844 19.5272 7.81879 19.5863 7.80025C19.6454 7.78171 19.728 7.7327 19.7497 7.71086C19.7715 7.68889 19.7439 7.67873 19.7774 7.65511C19.8109 7.63149 19.8728 7.58832 19.8817 7.57067C19.8955 7.54374 19.8797 7.53181 19.86 7.55543Z" fill="#A3A3A3"/>
<path fill-rule="evenodd" clip-rule="evenodd" d="M19.7382 7.83073C19.7804 7.81016 19.8593 7.73739 19.8819 7.69562C19.8957 7.67035 19.9233 7.67365 19.9016 7.7125C19.88 7.75136 19.7993 7.82057 19.7717 7.83911C19.7441 7.85765 19.6929 7.85257 19.7382 7.83073Z" fill="#A3A3A3"/>
<path fill-rule="evenodd" clip-rule="evenodd" d="M20.6342 7.4306C20.6226 7.45435 20.6204 7.50997 20.6244 7.53689C20.6282 7.56393 20.652 7.58425 20.648 7.54374C20.6441 7.50324 20.6441 7.46273 20.6577 7.45092C20.6717 7.43898 20.6539 7.39009 20.6342 7.4306Z" fill="#A3A3A3"/>
<path fill-rule="evenodd" clip-rule="evenodd" d="M20.8747 7.53015C20.8947 7.54856 20.9042 7.63491 20.9022 7.66691C20.9003 7.69904 20.9338 7.69904 20.9317 7.65345C20.9298 7.60787 20.9258 7.55047 20.9082 7.52012C20.8904 7.48964 20.8471 7.50488 20.8747 7.53015Z" fill="#A3A3A3"/>
<path fill-rule="evenodd" clip-rule="evenodd" d="M21.0849 7.5859C21.0971 7.60799 21.1125 7.65002 21.1125 7.68037C21.1125 7.71085 21.1381 7.69726 21.14 7.66183C21.142 7.62641 21.1362 7.59606 21.1224 7.57244C21.1086 7.54882 21.0671 7.55377 21.0849 7.5859Z" fill="#A3A3A3"/>
<path fill-rule="evenodd" clip-rule="evenodd" d="M21.2151 7.5595C21.2043 7.5323 21.1875 7.50803 21.1755 7.51163C21.1638 7.51523 21.1717 7.54003 21.1875 7.56657C21.2031 7.59323 21.2268 7.58963 21.2151 7.5595Z" fill="#A3A3A3"/>
<path fill-rule="evenodd" clip-rule="evenodd" d="M20.392 7.74794C20.386 7.81867 20.3486 7.88127 20.3034 7.90324C20.258 7.92521 20.2659 7.96064 20.321 7.92521C20.3763 7.88978 20.4176 7.82896 20.4295 7.77499C20.4412 7.72089 20.396 7.7007 20.392 7.74794Z" fill="#A3A3A3"/>
<path fill-rule="evenodd" clip-rule="evenodd" d="M20.2932 7.71593C20.2696 7.73955 20.2559 7.79021 20.2559 7.82894C20.2559 7.8678 20.2716 7.8391 20.2756 7.81713C20.2796 7.79517 20.2873 7.76482 20.3071 7.75466C20.3267 7.7445 20.3169 7.69231 20.2932 7.71593Z" fill="#A3A3A3"/>
<path fill-rule="evenodd" clip-rule="evenodd" d="M21.9987 7.76483C22.0194 7.79899 22.0499 7.85435 22.0597 7.88635C22.0696 7.91848 22.0459 7.92686 22.0381 7.89816C22.0301 7.86946 21.9927 7.80534 21.979 7.78337C21.9652 7.76153 21.975 7.72597 21.9987 7.76483Z" fill="#A3A3A3"/>
<path d="M16 9.33333C16 9.33333 18.2679 10.0071 18.6507 10.0071C18.7583 10.0071 20.2273 9.67023 20.6677 9.67023C20.8324 9.67023 22.353 9.90101 22.75 10.0071C23.1471 10.1132 25.3354 9.33333 25.3354 9.33333" stroke="white" stroke-width="0.666667" stroke-linecap="round" stroke-linejoin="round"/>
<path d="M16 10.6667C16 10.6667 18.2679 11.3405 18.6507 11.3405C18.7583 11.3405 20.2273 11.0036 20.6677 11.0036C20.8324 11.0036 22.353 11.2343 22.75 11.3405C23.1471 11.4466 25.3354 10.6667 25.3354 10.6667" stroke="white" stroke-width="0.666667" stroke-linecap="round" stroke-linejoin="round"/>
<path d="M16 13.3333C16 13.3333 18.2679 14.0071 18.6507 14.0071C18.7583 14.0071 19.634 13.4619 20.6677 13.4619C21.7014 13.4619 22.353 13.901 22.75 14.0071C23.1471 14.1132 25.3354 13.3333 25.3354 13.3333L32.5128 14.4813" stroke="white" stroke-width="1.33333" stroke-linecap="round" stroke-linejoin="round"/>
</g>
<path d="M17.6668 9.99999V9.94858V9.89689V9.84493V9.79272V9.74026V9.68757V9.63467V9.58156V9.52826V9.47478V9.42113V9.36733V9.31339V9.28637V9.27961V9.27284V9.25931V9.20512V9.15083V9.09644V9.04197V8.98743V8.93284V8.87821V8.82354V8.76886V8.74152V8.73468V8.72785V8.72101V8.71418V8.70734V8.7005V8.69367V8.68683V8.68V8.67316V8.66633V8.6595V8.65266V8.64583V8.639V8.63216V8.62533V8.6185V8.61167V8.60484V8.59801V8.59118V8.58435V8.57752V8.57069V8.56386V8.55704V8.55021V8.54339V8.53656V8.52974V8.52291V8.51609V8.50927V8.50245V8.49563V8.48881V8.48199V8.47517V8.46836V8.46154V8.45473V8.44792V8.4411V8.43429V8.42748V8.42068V8.41387V8.40706V8.40026V8.39345V8.38665V8.37985V8.37305V8.36625V8.35945V8.35266V8.34586V8.33907V8.33228V8.32549V8.3187V8.31191V8.30513V8.29834V8.29156V8.28478V8.278V8.27122V8.26445V8.25767V8.2509V8.24413V8.23736V8.23059V8.22383V8.21707V8.2103V8.20355V8.19679V8.19003V8.18328V8.17653V8.16978V8.16303V8.15629V8.14954V8.1428V8.13606V8.12933V8.12259V8.11586V8.10913V8.1024V8.09568V8.08895V8.08223V8.07552V8.0688V8.06209V8.05538V8.04867V8.04196V8.03526V8.02856V8.02186V8.01516V8.00847V8.00178V7.99509V7.98841V7.98172V7.97504V7.96837V7.96169V7.95502V7.94835V7.94169V7.93503V7.92837V7.92171V7.91506V7.90841V7.90176V7.89511V7.88847V7.8752V7.84869V7.79582V7.74318V7.69077V7.6386V7.58669V7.53505V7.48369V7.43263V7.38187V7.33143V7.28132V7.23156V7.18216V7.13312V7.08447V7.03621V6.94092V6.84736V6.75562V6.66581C17.6668 6.1138 18.1143 5.66666 18.6668 5.66666H22.6668C23.2194 5.66666 23.6668 6.11381 23.6668 6.66581V6.67137V6.67693V6.6825V6.68808V6.69367V6.69926V6.70486V6.71047V6.71609V6.72171V6.72735V6.73299V6.73863V6.74429V6.74995V6.75562V6.7613V6.76699V6.77268V6.77838V6.78409V6.7898V6.79553V6.80126V6.80699V6.81274V6.81849V6.82425V6.83002V6.83579V6.84157V6.84736V6.85315V6.85895V6.86476V6.87058V6.8764V6.88223V6.88807V6.89392V6.89977V6.90563V6.91149V6.91736V6.92324V6.92913V6.93502V6.94092V6.94682V6.95274V6.95866V6.96458V6.97052V6.97645V6.9824V6.98835V6.99431V7.00028V7.00625V7.01223V7.01821V7.0242V7.0302V7.03621V7.04222V7.04823V7.05426V7.06029V7.06632V7.07236V7.07841V7.08447V7.09053V7.09659V7.10267V7.10874V7.11483V7.12092V7.12702V7.13312V7.13923V7.14534V7.15147V7.15759V7.16372V7.16986V7.17601V7.18216V7.18831V7.19447V7.20064V7.20681V7.21299V7.21918V7.22537V7.23156V7.23776V7.24397V7.25018V7.2564V7.26262V7.26885V7.27508V7.28132V7.28757V7.29382V7.30007V7.30634V7.3126V7.31887V7.32515V7.33143V7.33772V7.34401V7.35031V7.35661V7.36292V7.36923V7.37555V7.38187V7.3882V7.39453V7.40087V7.40721V7.41356V7.41991V7.42627V7.43263V7.43899V7.44536V7.45174V7.45812V7.46451V7.4709V7.47729V7.48369V7.4901V7.4965V7.50292V7.50933V7.51576V7.52218V7.52861V7.53505V7.54149V7.54793V7.55438V7.56084V7.56729V7.57376V7.58022V7.58669V7.59317V7.59964V7.60613V7.61261V7.6191V7.6256V7.6321V7.6386V7.64511V7.65162V7.65813V7.66465V7.67118V7.6777V7.68423V7.69077V7.69731V7.70385V7.7104V7.71694V7.7235V7.73006V7.73662V7.74318V7.74975V7.75632V7.7629V7.76947V7.77606V7.78264V7.78923V7.79582V7.80242V7.80902V7.81562V7.82223V7.82884V7.83545V7.84207V7.84869V7.85531V7.86194V7.86857V7.8752V7.88183V7.88847V7.89511V7.90176V7.90841V7.91506V7.92171V7.92837V7.93503V7.94169V7.94835V7.95502V7.96169V7.96837V7.97504V7.98172V7.98841V7.99509V8.00178V8.00847V8.01516V8.02186V8.02856V8.03526V8.04196V8.04867V8.05538V8.06209V8.0688V8.07552V8.08223V8.08895V8.09568V8.1024V8.10913V8.11586V8.12259V8.12933V8.13606V8.1428V8.14954V8.15629V8.16303V8.16978V8.17653V8.18328V8.19003V8.19679V8.20355V8.21031V8.21707V8.22383V8.23059V8.23736V8.24413V8.2509V8.25767V8.26445V8.27122V8.278V8.28478V8.29156V8.29834V8.30513V8.31191V8.3187V8.32549V8.33228V8.33907V8.34586V8.35266V8.35945V8.36625V8.37305V8.37985V8.38665V8.39345V8.40026V8.40706V8.41387V8.42068V8.42748V8.43429V8.4411V8.44792V8.45473V8.46154V8.46836V8.47518V8.48199V8.48881V8.49563V8.50245V8.50927V8.51609V8.52291V8.52974V8.53656V8.54339V8.55021V8.55704V8.56386V8.57069V8.57752V8.58435V8.59118V8.59801V8.60484V8.61167V8.6185V8.62533V8.63216V8.639V8.64583V8.65266V8.6595V8.66633V8.67317V8.68V8.68683V8.69367V8.70051V8.70734V8.71418V8.72101V8.72785V8.73468V8.74152V8.74835V8.75519V8.76203V8.76886V8.7757V8.78253V8.78937V8.7962V8.80304V8.80987V8.81671V8.82354V8.83038V8.83721V8.84405V8.85088V8.85771V8.86454V8.87138V8.87821V8.88504V8.89187V8.8987V8.90553V8.91236V8.91919V8.92601V8.93284V8.93967V8.94649V8.95332V8.96014V8.96697V8.97379V8.98061V8.98743V8.99425V9.00107V9.00789V9.01471V9.02152V9.02834V9.03515V9.04197V9.04878V9.05559V9.0624V9.06921V9.07602V9.08283V9.08963V9.09644V9.10324V9.11004V9.11684V9.12364V9.13044V9.13724V9.14403V9.15083V9.15762V9.16441V9.1712V9.17799V9.18477V9.19156V9.19834V9.20512V9.2119V9.21868V9.22546V9.23223V9.23901V9.24578V9.25255V9.25931V9.26608V9.27284V9.27961V9.28637V9.29312V9.29988V9.30664V9.31339V9.32014V9.32689V9.33363V9.34038V9.34712V9.35386V9.3606V9.36733V9.37407V9.3808V9.38753V9.39425V9.40098V9.4077V9.41442V9.42113V9.42785V9.43456V9.44127V9.44798V9.45468V9.46139V9.46808V9.47478V9.48148V9.48817V9.49486V9.50154V9.50823V9.51491V9.52159V9.52826V9.53493V9.5416V9.54827V9.55493V9.5616V9.56825V9.57491V9.58156V9.58821V9.59486V9.6015V9.60814V9.61478V9.62141V9.62804V9.63467V9.64129V9.64792V9.65453V9.66115V9.66776V9.67437V9.68097V9.68757V9.69417V9.70077V9.70736V9.71394V9.72053V9.72711V9.73369V9.74026V9.74683V9.7534V9.75996V9.76652V9.77307V9.77962V9.78617V9.79272V9.79926V9.80579V9.81233V9.81885V9.82538V9.8319V9.83842V9.84493V9.85144V9.85794V9.86445V9.87094V9.87744V9.88392V9.89041V9.89689V9.90337V9.90984V9.91631V9.92277V9.92923V9.93568V9.94214V9.94858V9.95502V9.96146V9.9679V9.97432V9.98075V9.98717V9.99358V9.99999C23.6668 11.5427 22.899 12.6259 22.1105 13.3356C21.716 13.6906 21.3204 13.9479 21.0233 14.1162C20.8751 14.2002 20.7524 14.2615 20.6679 14.3014C20.6676 14.3015 20.6672 14.3017 20.6668 14.3019C20.6665 14.3017 20.6661 14.3015 20.6657 14.3014C20.5812 14.2615 20.4585 14.2002 20.3103 14.1162C20.0133 13.9479 19.6177 13.6906 19.2232 13.3356C18.4346 12.6259 17.6668 11.5427 17.6668 9.99999Z" stroke="white" stroke-width="0.666667"/>
<mask id="mask2_290_2007" style="mask-type:alpha" maskUnits="userSpaceOnUse" x="17" y="5" width="7" height="10">
<path d="M17.6668 9.99999V9.94858V9.89689V9.84493V9.79272V9.74026V9.68757V9.63467V9.58156V9.52826V9.47478V9.42113V9.36733V9.31339V9.28637V9.27961V9.27284V9.25931V9.20512V9.15083V9.09644V9.04197V8.98743V8.93284V8.87821V8.82354V8.76886V8.74152V8.73468V8.72785V8.72101V8.71418V8.70734V8.7005V8.69367V8.68683V8.68V8.67316V8.66633V8.6595V8.65266V8.64583V8.639V8.63216V8.62533V8.6185V8.61167V8.60484V8.59801V8.59118V8.58435V8.57752V8.57069V8.56386V8.55704V8.55021V8.54339V8.53656V8.52974V8.52291V8.51609V8.50927V8.50245V8.49563V8.48881V8.48199V8.47517V8.46836V8.46154V8.45473V8.44792V8.4411V8.43429V8.42748V8.42068V8.41387V8.40706V8.40026V8.39345V8.38665V8.37985V8.37305V8.36625V8.35945V8.35266V8.34586V8.33907V8.33228V8.32549V8.3187V8.31191V8.30513V8.29834V8.29156V8.28478V8.278V8.27122V8.26445V8.25767V8.2509V8.24413V8.23736V8.23059V8.22383V8.21707V8.2103V8.20355V8.19679V8.19003V8.18328V8.17653V8.16978V8.16303V8.15629V8.14954V8.1428V8.13606V8.12933V8.12259V8.11586V8.10913V8.1024V8.09568V8.08895V8.08223V8.07552V8.0688V8.06209V8.05538V8.04867V8.04196V8.03526V8.02856V8.02186V8.01516V8.00847V8.00178V7.99509V7.98841V7.98172V7.97504V7.96837V7.96169V7.95502V7.94835V7.94169V7.93503V7.92837V7.92171V7.91506V7.90841V7.90176V7.89511V7.88847V7.8752V7.84869V7.79582V7.74318V7.69077V7.6386V7.58669V7.53505V7.48369V7.43263V7.38187V7.33143V7.28132V7.23156V7.18216V7.13312V7.08447V7.03621V6.94092V6.84736V6.75562V6.66581C17.6668 6.1138 18.1143 5.66666 18.6668 5.66666H22.6668C23.2194 5.66666 23.6668 6.11381 23.6668 6.66581V6.67137V6.67693V6.6825V6.68808V6.69367V6.69926V6.70486V6.71047V6.71609V6.72171V6.72735V6.73299V6.73863V6.74429V6.74995V6.75562V6.7613V6.76699V6.77268V6.77838V6.78409V6.7898V6.79553V6.80126V6.80699V6.81274V6.81849V6.82425V6.83002V6.83579V6.84157V6.84736V6.85315V6.85895V6.86476V6.87058V6.8764V6.88223V6.88807V6.89392V6.89977V6.90563V6.91149V6.91736V6.92324V6.92913V6.93502V6.94092V6.94682V6.95274V6.95866V6.96458V6.97052V6.97645V6.9824V6.98835V6.99431V7.00028V7.00625V7.01223V7.01821V7.0242V7.0302V7.03621V7.04222V7.04823V7.05426V7.06029V7.06632V7.07236V7.07841V7.08447V7.09053V7.09659V7.10267V7.10874V7.11483V7.12092V7.12702V7.13312V7.13923V7.14534V7.15147V7.15759V7.16372V7.16986V7.17601V7.18216V7.18831V7.19447V7.20064V7.20681V7.21299V7.21918V7.22537V7.23156V7.23776V7.24397V7.25018V7.2564V7.26262V7.26885V7.27508V7.28132V7.28757V7.29382V7.30007V7.30634V7.3126V7.31887V7.32515V7.33143V7.33772V7.34401V7.35031V7.35661V7.36292V7.36923V7.37555V7.38187V7.3882V7.39453V7.40087V7.40721V7.41356V7.41991V7.42627V7.43263V7.43899V7.44536V7.45174V7.45812V7.46451V7.4709V7.47729V7.48369V7.4901V7.4965V7.50292V7.50933V7.51576V7.52218V7.52861V7.53505V7.54149V7.54793V7.55438V7.56084V7.56729V7.57376V7.58022V7.58669V7.59317V7.59964V7.60613V7.61261V7.6191V7.6256V7.6321V7.6386V7.64511V7.65162V7.65813V7.66465V7.67118V7.6777V7.68423V7.69077V7.69731V7.70385V7.7104V7.71694V7.7235V7.73006V7.73662V7.74318V7.74975V7.75632V7.7629V7.76947V7.77606V7.78264V7.78923V7.79582V7.80242V7.80902V7.81562V7.82223V7.82884V7.83545V7.84207V7.84869V7.85531V7.86194V7.86857V7.8752V7.88183V7.88847V7.89511V7.90176V7.90841V7.91506V7.92171V7.92837V7.93503V7.94169V7.94835V7.95502V7.96169V7.96837V7.97504V7.98172V7.98841V7.99509V8.00178V8.00847V8.01516V8.02186V8.02856V8.03526V8.04196V8.04867V8.05538V8.06209V8.0688V8.07552V8.08223V8.08895V8.09568V8.1024V8.10913V8.11586V8.12259V8.12933V8.13606V8.1428V8.14954V8.15629V8.16303V8.16978V8.17653V8.18328V8.19003V8.19679V8.20355V8.21031V8.21707V8.22383V8.23059V8.23736V8.24413V8.2509V8.25767V8.26445V8.27122V8.278V8.28478V8.29156V8.29834V8.30513V8.31191V8.3187V8.32549V8.33228V8.33907V8.34586V8.35266V8.35945V8.36625V8.37305V8.37985V8.38665V8.39345V8.40026V8.40706V8.41387V8.42068V8.42748V8.43429V8.4411V8.44792V8.45473V8.46154V8.46836V8.47518V8.48199V8.48881V8.49563V8.50245V8.50927V8.51609V8.52291V8.52974V8.53656V8.54339V8.55021V8.55704V8.56386V8.57069V8.57752V8.58435V8.59118V8.59801V8.60484V8.61167V8.6185V8.62533V8.63216V8.639V8.64583V8.65266V8.6595V8.66633V8.67317V8.68V8.68683V8.69367V8.70051V8.70734V8.71418V8.72101V8.72785V8.73468V8.74152V8.74835V8.75519V8.76203V8.76886V8.7757V8.78253V8.78937V8.7962V8.80304V8.80987V8.81671V8.82354V8.83038V8.83721V8.84405V8.85088V8.85771V8.86454V8.87138V8.87821V8.88504V8.89187V8.8987V8.90553V8.91236V8.91919V8.92601V8.93284V8.93967V8.94649V8.95332V8.96014V8.96697V8.97379V8.98061V8.98743V8.99425V9.00107V9.00789V9.01471V9.02152V9.02834V9.03515V9.04197V9.04878V9.05559V9.0624V9.06921V9.07602V9.08283V9.08963V9.09644V9.10324V9.11004V9.11684V9.12364V9.13044V9.13724V9.14403V9.15083V9.15762V9.16441V9.1712V9.17799V9.18477V9.19156V9.19834V9.20512V9.2119V9.21868V9.22546V9.23223V9.23901V9.24578V9.25255V9.25931V9.26608V9.27284V9.27961V9.28637V9.29312V9.29988V9.30664V9.31339V9.32014V9.32689V9.33363V9.34038V9.34712V9.35386V9.3606V9.36733V9.37407V9.3808V9.38753V9.39425V9.40098V9.4077V9.41442V9.42113V9.42785V9.43456V9.44127V9.44798V9.45468V9.46139V9.46808V9.47478V9.48148V9.48817V9.49486V9.50154V9.50823V9.51491V9.52159V9.52826V9.53493V9.5416V9.54827V9.55493V9.5616V9.56825V9.57491V9.58156V9.58821V9.59486V9.6015V9.60814V9.61478V9.62141V9.62804V9.63467V9.64129V9.64792V9.65453V9.66115V9.66776V9.67437V9.68097V9.68757V9.69417V9.70077V9.70736V9.71394V9.72053V9.72711V9.73369V9.74026V9.74683V9.7534V9.75996V9.76652V9.77307V9.77962V9.78617V9.79272V9.79926V9.80579V9.81233V9.81885V9.82538V9.8319V9.83842V9.84493V9.85144V9.85794V9.86445V9.87094V9.87744V9.88392V9.89041V9.89689V9.90337V9.90984V9.91631V9.92277V9.92923V9.93568V9.94214V9.94858V9.95502V9.96146V9.9679V9.97432V9.98075V9.98717V9.99358V9.99999C23.6668 11.5427 22.899 12.6259 22.1105 13.3356C21.716 13.6906 21.3204 13.9479 21.0233 14.1162C20.8751 14.2002 20.7524 14.2615 20.6679 14.3014C20.6676 14.3015 20.6672 14.3017 20.6668 14.3019C20.6665 14.3017 20.6661 14.3015 20.6657 14.3014C20.5812 14.2615 20.4585 14.2002 20.3103 14.1162C20.0133 13.9479 19.6177 13.6906 19.2232 13.3356C18.4346 12.6259 17.6668 11.5427 17.6668 9.99999Z" fill="white" stroke="white" stroke-width="0.666667"/>
</mask>
<g mask="url(#mask2_290_2007)">
</g>
<path d="M0 -0.333333H-0.901086L-0.21693 0.253086L4.33333 4.15331V5.16179L-0.193746 8.39542L-0.333333 8.49513V8.66667V9.33333V9.93475L0.176666 9.616L5.42893 6.33333H6.55984L11.0821 9.56351C11.176 9.6306 11.2886 9.66667 11.404 9.66667C11.9182 9.66667 12.1548 9.02698 11.7644 8.69237L7.66667 5.18002V4.17154L12.0542 1.03762C12.2294 0.912475 12.3333 0.710428 12.3333 0.495127V0V-0.601416L11.8233 -0.282666L6.57107 3H5.44016L0.860413 -0.271244L0.773488 -0.333333H0.666667H0Z" fill="#DB1E36" stroke="white" stroke-width="0.666667"/>
<path fill-rule="evenodd" clip-rule="evenodd" d="M0 3.33333V6H4.66667V9.33333C4.66667 9.70152 4.96514 10 5.33333 10H6.66667C7.03486 10 7.33333 9.70152 7.33333 9.33333V6H12C12.3682 6 12.6667 5.70152 12.6667 5.33333V4C12.6667 3.63181 12.3682 3.33333 12 3.33333H7.33333V0H4.66667V3.33333H0Z" fill="white"/>
<path fill-rule="evenodd" clip-rule="evenodd" d="M0 4H5.33333V3.33333V0H6.66667V3.33333V4H12V5.33333H6.66667V6V9.33333H5.33333V6V5.33333H0V4Z" fill="#DB1E36"/>
</g>
</svg>
