<svg width="28" height="20" viewBox="0 0 28 20" fill="none" xmlns="http://www.w3.org/2000/svg">
<rect width="28" height="20" rx="2" fill="white"/>
<mask id="mask0_290_881" style="mask-type:alpha" maskUnits="userSpaceOnUse" x="0" y="0" width="28" height="20">
<rect width="28" height="20" rx="2" fill="white"/>
</mask>
<g mask="url(#mask0_290_881)">
<path fill-rule="evenodd" clip-rule="evenodd" d="M0 5.33333H28V0H0V5.33333Z" fill="#262626"/>
<path fill-rule="evenodd" clip-rule="evenodd" d="M0 20H28V14.6667H0V20Z" fill="#018301"/>
<path fill-rule="evenodd" clip-rule="evenodd" d="M0 14.6667H28V5.33334H0V14.6667Z" fill="white"/>
<path fill-rule="evenodd" clip-rule="evenodd" d="M0 13.3333H28V6.66666H0V13.3333Z" fill="#DC0808"/>
<path fill-rule="evenodd" clip-rule="evenodd" d="M13.9998 16.6667C15.3332 16.6667 17.3332 14.0501 17.3332 10C17.3332 5.94992 15.3332 3.33334 13.9998 3.33334C12.6665 3.33334 10.6665 5.94992 10.6665 10C10.6665 14.0501 12.6665 16.6667 13.9998 16.6667Z" fill="#BC0000"/>
<mask id="mask1_290_881" style="mask-type:alpha" maskUnits="userSpaceOnUse" x="10" y="3" width="8" height="14">
<path fill-rule="evenodd" clip-rule="evenodd" d="M13.9998 16.6667C15.3332 16.6667 17.3332 14.0501 17.3332 10C17.3332 5.94992 15.3332 3.33334 13.9998 3.33334C12.6665 3.33334 10.6665 5.94992 10.6665 10C10.6665 14.0501 12.6665 16.6667 13.9998 16.6667Z" fill="white"/>
</mask>
<g mask="url(#mask1_290_881)">
<path fill-rule="evenodd" clip-rule="evenodd" d="M8.66634 17.3334C10.5073 17.3334 11.9997 14.0501 11.9997 10C11.9997 5.94993 10.5073 2.66669 8.66634 2.66669C6.82539 2.66669 5.33301 5.94993 5.33301 10C5.33301 14.0501 6.82539 17.3334 8.66634 17.3334Z" fill="#262626"/>
<path fill-rule="evenodd" clip-rule="evenodd" d="M19.3333 17.3334C21.1743 17.3334 22.6667 14.0501 22.6667 10C22.6667 5.94993 21.1743 2.66669 19.3333 2.66669C17.4924 2.66669 16 5.94993 16 10C16 14.0501 17.4924 17.3334 19.3333 17.3334Z" fill="#262626"/>
<g filter="url(#filter0_d_290_881)">
<path fill-rule="evenodd" clip-rule="evenodd" d="M13.9997 8.00002C14.3679 8.00002 14.6663 6.80611 14.6663 5.33335C14.6663 3.86059 14.3679 2.66669 13.9997 2.66669C13.6315 2.66669 13.333 3.86059 13.333 5.33335C13.333 6.80611 13.6315 8.00002 13.9997 8.00002ZM13.9997 12C14.3679 12 14.6663 11.1046 14.6663 10C14.6663 8.89545 14.3679 8.00002 13.9997 8.00002C13.6315 8.00002 13.333 8.89545 13.333 10C13.333 11.1046 13.6315 12 13.9997 12ZM13.9997 12C13.6315 12 13.333 13.1939 13.333 14.6667C13.333 16.1394 13.6315 17.3334 13.9997 17.3334C14.3679 17.3334 14.6663 16.1394 14.6663 14.6667C14.6663 13.1939 14.3679 12 13.9997 12Z" fill="url(#paint0_linear_290_881)"/>
</g>
</g>
</g>
<defs>
<filter id="filter0_d_290_881" x="13.333" y="2.66669" width="1.3335" height="15.6667" filterUnits="userSpaceOnUse" color-interpolation-filters="sRGB">
<feFlood flood-opacity="0" result="BackgroundImageFix"/>
<feColorMatrix in="SourceAlpha" type="matrix" values="0 0 0 0 0 0 0 0 0 0 0 0 0 0 0 0 0 0 127 0" result="hardAlpha"/>
<feOffset dy="1"/>
<feColorMatrix type="matrix" values="0 0 0 0 0 0 0 0 0 0 0 0 0 0 0 0 0 0 0.06 0"/>
<feBlend mode="normal" in2="BackgroundImageFix" result="effect1_dropShadow_290_881"/>
<feBlend mode="normal" in="SourceGraphic" in2="effect1_dropShadow_290_881" result="shape"/>
</filter>
<linearGradient id="paint0_linear_290_881" x1="13.333" y1="2.66669" x2="13.333" y2="17.3334" gradientUnits="userSpaceOnUse">
<stop stop-color="white"/>
<stop offset="1" stop-color="#F0F0F0"/>
</linearGradient>
</defs>
</svg>
