<svg width="28" height="20" viewBox="0 0 28 20" fill="none" xmlns="http://www.w3.org/2000/svg">
<rect width="28" height="20" rx="2" fill="white"/>
<mask id="mask0_290_1046" style="mask-type:alpha" maskUnits="userSpaceOnUse" x="0" y="0" width="28" height="20">
<rect width="28" height="20" rx="2" fill="white"/>
</mask>
<g mask="url(#mask0_290_1046)">
<path fill-rule="evenodd" clip-rule="evenodd" d="M0 20H28V0H0V20Z" fill="#079D7B"/>
<path fill-rule="evenodd" clip-rule="evenodd" d="M15.8849 8.66671C15.8849 8.95857 15.8637 9.24167 15.8238 9.51145C15.9261 9.48001 16.0302 9.45003 16.1361 9.42166C17.9143 8.94519 19.5015 9.1024 19.6811 9.7728C19.8435 10.3787 18.8006 11.1964 17.2858 11.6999C17.0182 10.9062 15.6488 10.6667 13.9998 10.6667C12.349 10.6667 10.9785 10.9067 10.713 11.7025C9.21866 11.198 8.19451 10.3889 8.3555 9.78812C8.53513 9.11771 10.1223 8.9605 11.9005 9.43697C11.9939 9.46199 12.0859 9.48826 12.1765 9.51567C12.1362 9.24462 12.1148 8.96009 12.1148 8.66671C12.1148 6.82576 12.9587 5.33337 13.9998 5.33337C15.0409 5.33337 15.8849 6.82576 15.8849 8.66671ZM10.6665 12L11.833 12C11.6482 11.9638 11.4597 11.9204 11.2689 11.8698C11.4835 11.8761 11.748 11.8945 12.0508 11.9154C12.5989 11.9534 13.2721 12 13.9998 12C14.7275 12 15.4007 11.9534 15.9488 11.9154C16.2402 11.8953 16.4962 11.8775 16.7063 11.8705C16.5088 11.9215 16.314 11.9646 16.1235 12L17.3332 12L19.3332 12C19.175 12.4747 18.9622 12.922 18.7027 13.3334H9.297C9.03748 12.922 8.82463 12.4747 8.66649 12L10.6665 12ZM13.9998 16C15.3466 16 16.5833 15.5006 17.5546 14.6667H10.4451C11.4163 15.5006 12.6531 16 13.9998 16Z" fill="white"/>
<path fill-rule="evenodd" clip-rule="evenodd" d="M14 4.00002C14.3682 4.00002 14.6667 3.70154 14.6667 3.33335C14.6667 2.96516 14.3682 2.66669 14 2.66669C13.6318 2.66669 13.3333 2.96516 13.3333 3.33335C13.3333 3.70154 13.6318 4.00002 14 4.00002ZM8.66667 7.33335C9.03486 7.33335 9.33333 7.03488 9.33333 6.66669C9.33333 6.2985 9.03486 6.00002 8.66667 6.00002C8.29848 6.00002 8 6.2985 8 6.66669C8 7.03488 8.29848 7.33335 8.66667 7.33335ZM20 6.66669C20 7.03488 19.7015 7.33335 19.3333 7.33335C18.9651 7.33335 18.6667 7.03488 18.6667 6.66669C18.6667 6.2985 18.9651 6.00002 19.3333 6.00002C19.7015 6.00002 20 6.2985 20 6.66669ZM17.3333 5.33335C17.7015 5.33335 18 5.03488 18 4.66669C18 4.2985 17.7015 4.00002 17.3333 4.00002C16.9651 4.00002 16.6667 4.2985 16.6667 4.66669C16.6667 5.03488 16.9651 5.33335 17.3333 5.33335ZM11.3333 4.66669C11.3333 5.03488 11.0349 5.33335 10.6667 5.33335C10.2985 5.33335 10 5.03488 10 4.66669C10 4.2985 10.2985 4.00002 10.6667 4.00002C11.0349 4.00002 11.3333 4.2985 11.3333 4.66669Z" fill="#FCD117"/>
</g>
</svg>
