<svg width="28" height="20" viewBox="0 0 28 20" fill="none" xmlns="http://www.w3.org/2000/svg">
<rect width="28" height="20" rx="2" fill="white"/>
<mask id="mask0_290_1339" style="mask-type:alpha" maskUnits="userSpaceOnUse" x="0" y="0" width="28" height="20">
<rect width="28" height="20" rx="2" fill="white"/>
</mask>
<g mask="url(#mask0_290_1339)">
<rect width="28" height="20" fill="#262626"/>
<path fill-rule="evenodd" clip-rule="evenodd" d="M0 0H28V20L0 0Z" fill="#E8283F"/>
<path fill-rule="evenodd" clip-rule="evenodd" d="M6.66683 16.6667L5.72402 16.9428L6.00016 16L5.72402 15.0572L6.66683 15.3334L7.60964 15.0572L7.3335 16L7.60964 16.9428L6.66683 16.6667Z" fill="white"/>
<path fill-rule="evenodd" clip-rule="evenodd" d="M6.66683 8.66669L5.72402 8.94283L6.00016 8.00002L5.72402 7.05721L6.66683 7.33335L7.60964 7.05721L7.3335 8.00002L7.60964 8.94283L6.66683 8.66669Z" fill="white"/>
<path fill-rule="evenodd" clip-rule="evenodd" d="M3.33333 12L2.39052 12.2761L2.66667 11.3333L2.39052 10.3905L3.33333 10.6667L4.27614 10.3905L4 11.3333L4.27614 12.2761L3.33333 12Z" fill="white"/>
<path fill-rule="evenodd" clip-rule="evenodd" d="M9.33333 11.3333L8.39052 11.6095L8.66667 10.6666L8.39052 9.72384L9.33333 9.99998L10.2761 9.72384L10 10.6666L10.2761 11.6095L9.33333 11.3333Z" fill="white"/>
<path fill-rule="evenodd" clip-rule="evenodd" d="M18.861 9.26559C18.7014 9.16982 18.572 8.94422 18.572 8.76373L18.572 7.53501C18.572 7.35361 18.4415 7.25007 18.244 7.3159L17.4858 7.56863C17.3047 7.62902 17.0273 7.63446 16.8298 7.56863L16.0716 7.3159C15.8904 7.25551 15.8703 7.13053 16.0326 7.03315L17.8116 5.96576C17.9712 5.86999 18.0571 5.66184 17.9913 5.46434L17.7385 4.70614C17.6782 4.52499 17.7597 4.42164 17.9572 4.48747L18.7154 4.7402C18.8966 4.80059 19.1195 4.72282 19.2168 4.56052L20.2842 2.78153C20.38 2.62191 20.5011 2.62303 20.567 2.82052L20.8197 3.57873C20.8801 3.75988 20.8855 4.03724 20.8197 4.23473L20.567 4.99294C20.5066 5.17409 20.6056 5.32094 20.7861 5.32094H22.0148C22.1962 5.32094 22.4193 5.44767 22.5167 5.60996L23.5841 7.38895C23.6798 7.54857 23.6028 7.7089 23.4297 7.74351L21.7282 8.08382C21.5472 8.12002 21.3695 8.30402 21.3349 8.4771L20.9946 10.1787C20.9584 10.3597 20.8023 10.4304 20.64 10.333L18.861 9.26559Z" fill="#FFD84E"/>
</g>
</svg>
