<svg width="28" height="20" viewBox="0 0 28 20" fill="none" xmlns="http://www.w3.org/2000/svg">
<rect x="0.25" y="0.25" width="27.5" height="19.5" rx="1.75" fill="white" stroke="#F5F5F5" stroke-width="0.5"/>
<mask id="mask0_290_1319" style="mask-type:alpha" maskUnits="userSpaceOnUse" x="0" y="0" width="28" height="20">
<rect x="0.25" y="0.25" width="27.5" height="19.5" rx="1.75" fill="white" stroke="white" stroke-width="0.5"/>
</mask>
<g mask="url(#mask0_290_1319)">
<path fill-rule="evenodd" clip-rule="evenodd" d="M0 20H28V9.33331H12.4444L13.3333 9.99998L0 20Z" fill="#DD1C34"/>
<path fill-rule="evenodd" clip-rule="evenodd" d="M28 9.33333H12.4444L0 0H28V9.33333Z" fill="#0D4BC3"/>
<path fill-rule="evenodd" clip-rule="evenodd" d="M2.00016 4.00002C2.36835 4.00002 2.66683 3.70154 2.66683 3.33335C2.66683 2.96516 2.36835 2.66669 2.00016 2.66669C1.63197 2.66669 1.3335 2.96516 1.3335 3.33335C1.3335 3.70154 1.63197 4.00002 2.00016 4.00002ZM10.0002 10.6667C10.3684 10.6667 10.6668 10.3682 10.6668 10C10.6668 9.63183 10.3684 9.33335 10.0002 9.33335C9.63197 9.33335 9.3335 9.63183 9.3335 10C9.3335 10.3682 9.63197 10.6667 10.0002 10.6667ZM2.66683 16.6667C2.66683 17.0349 2.36835 17.3334 2.00016 17.3334C1.63197 17.3334 1.3335 17.0349 1.3335 16.6667C1.3335 16.2985 1.63197 16 2.00016 16C2.36835 16 2.66683 16.2985 2.66683 16.6667ZM4.53224 11.3266L3.39122 13.0796L3.82395 11.0332C3.75431 10.9763 3.69054 10.9125 3.63366 10.8429L1.58723 11.2756L3.3402 10.1346C3.33577 10.0904 3.3335 10.0455 3.3335 10C3.3335 9.95459 3.33577 9.90969 3.3402 9.86543L1.58723 8.72441L3.63366 9.15714C3.69054 9.08751 3.75431 9.02373 3.82395 8.96685L3.39122 6.92042L4.53224 8.6734C4.5765 8.66896 4.6214 8.66669 4.66683 8.66669C4.71226 8.66669 4.75716 8.66896 4.80142 8.6734L5.94244 6.92042L5.50971 8.96685C5.57934 9.02373 5.64312 9.0875 5.7 9.15714L7.74643 8.72441L5.99345 9.86543C5.99789 9.90969 6.00016 9.95459 6.00016 10C6.00016 10.0455 5.99789 10.0904 5.99345 10.1346L7.74643 11.2756L5.7 10.8429C5.64312 10.9125 5.57934 10.9763 5.50971 11.0332L5.94244 13.0796L4.80142 11.3266C4.75716 11.3311 4.71226 11.3334 4.66683 11.3334C4.6214 11.3334 4.5765 11.3311 4.53224 11.3266Z" fill="#FDD64D"/>
</g>
</svg>
