<svg width="28" height="20" viewBox="0 0 28 20" fill="none" xmlns="http://www.w3.org/2000/svg">
<rect width="28" height="20" rx="2" fill="white"/>
<mask id="mask0_290_921" style="mask-type:alpha" maskUnits="userSpaceOnUse" x="0" y="0" width="28" height="20">
<rect width="28" height="20" rx="2" fill="white"/>
</mask>
<g mask="url(#mask0_290_921)">
<rect width="28" height="20" fill="#128C4B"/>
<path fill-rule="evenodd" clip-rule="evenodd" d="M6.6665 12H17.3332V11.0787C17.3332 10.5831 17.8547 10.2608 18.298 10.4824L18.6665 10.6667V12H20.6665C21.0347 12 21.3332 12.2985 21.3332 12.6667V13.3333C21.3332 14.0697 20.7362 14.6667 19.9998 14.6667H17.9998C17.6316 14.6667 17.3332 14.3682 17.3332 14V13.3333H8.27598C8.09917 13.3333 7.9296 13.2631 7.80458 13.1381L6.6665 12Z" fill="white"/>
<path fill-rule="evenodd" clip-rule="evenodd" d="M6.6665 8.13808C6.6665 8.04968 6.70162 7.96489 6.76413 7.90238L7.09747 7.56905C7.22764 7.43887 7.22764 7.22782 7.09747 7.09764L6.76414 6.76431C6.70162 6.7018 6.6665 6.61701 6.6665 6.52861V5.66668C6.6665 5.48258 6.81574 5.33334 6.99984 5.33334H7.74519C7.88583 5.33334 7.99984 5.44735 7.99984 5.58799C7.99984 5.85669 8.36207 5.94221 8.48224 5.70187L8.58162 5.50311C8.63364 5.39906 8.73998 5.33334 8.8563 5.33334H10.3332C10.5173 5.33334 10.6665 5.48258 10.6665 5.66668C10.6665 5.85077 10.5173 6.00001 10.3332 6.00001H9.6665C9.48241 6.00001 9.33317 6.14925 9.33317 6.33334C9.33317 6.51744 9.48241 6.66668 9.6665 6.66668H10.3332C10.5173 6.66668 10.6665 6.81592 10.6665 7.00001V9.00001C10.6665 9.1841 10.5173 9.33334 10.3332 9.33334H9.6665C9.48241 9.33334 9.33317 9.1841 9.33317 9.00001V8.33334C9.33317 8.14925 9.48241 8.00001 9.6665 8.00001C9.8506 8.00001 9.99984 7.85077 9.99984 7.66668C9.99984 7.48258 9.8506 7.33334 9.6665 7.33334H8.99984C8.81574 7.33334 8.6665 7.48258 8.6665 7.66668V9.00001C8.6665 9.18411 8.51727 9.33334 8.33317 9.33334C8.14908 9.33334 7.99984 9.18411 7.99984 9.00001V8.33334C7.99984 8.14925 7.8506 8.00001 7.6665 8.00001C7.48241 8.00001 7.33317 8.14925 7.33317 8.33334V9.00001C7.33317 9.1841 7.18393 9.33334 6.99984 9.33334C6.81574 9.33334 6.6665 9.18411 6.6665 9.00001V8.13808Z" fill="white"/>
<path fill-rule="evenodd" clip-rule="evenodd" d="M17.3335 8.13808C17.3335 8.04968 17.3686 7.96489 17.4311 7.90238L17.7645 7.56905C17.8946 7.43887 17.8946 7.22782 17.7645 7.09764L17.4311 6.76431C17.3686 6.7018 17.3335 6.61701 17.3335 6.52861V5.66668C17.3335 5.48258 17.4827 5.33334 17.6668 5.33334H18.4122C18.5528 5.33334 18.6668 5.44735 18.6668 5.58799C18.6668 5.85669 19.0291 5.94221 19.1492 5.70187L19.2486 5.50311C19.3006 5.39906 19.407 5.33334 19.5233 5.33334H21.0002C21.1843 5.33334 21.3335 5.48258 21.3335 5.66668C21.3335 5.85077 21.1843 6.00001 21.0002 6.00001H20.3335C20.1494 6.00001 20.0002 6.14925 20.0002 6.33334C20.0002 6.51744 20.1494 6.66668 20.3335 6.66668H21.0002C21.1843 6.66668 21.3335 6.81592 21.3335 7.00001V9.00001C21.3335 9.1841 21.1843 9.33334 21.0002 9.33334H20.3335C20.1494 9.33334 20.0002 9.1841 20.0002 9.00001V8.33334C20.0002 8.14925 20.1494 8.00001 20.3335 8.00001C20.5176 8.00001 20.6668 7.85077 20.6668 7.66668C20.6668 7.48258 20.5176 7.33334 20.3335 7.33334H19.6668C19.4827 7.33334 19.3335 7.48258 19.3335 7.66668V9.00001C19.3335 9.18411 19.1843 9.33334 19.0002 9.33334C18.8161 9.33334 18.6668 9.18411 18.6668 9.00001V8.33334C18.6668 8.14925 18.5176 8.00001 18.3335 8.00001C18.1494 8.00001 18.0002 8.14925 18.0002 8.33334V9.00001C18.0002 9.1841 17.8509 9.33334 17.6668 9.33334C17.4827 9.33334 17.3335 9.18411 17.3335 9.00001V8.13808Z" fill="white"/>
<path fill-rule="evenodd" clip-rule="evenodd" d="M16 6.33022C16 6.51604 15.8958 6.77084 15.7593 6.90736L15.574 7.09266C15.4411 7.22559 15.4375 7.43751 15.574 7.57403L15.7593 7.75933C15.8922 7.89225 16 8.1427 16 8.33647V8.99689C16 9.18271 15.8573 9.33334 15.6635 9.33334H15.0031C14.8173 9.33334 14.6667 9.19065 14.6667 8.99689V8.33647C14.6667 8.15065 14.6051 8.12306 14.512 8.30925L14.1546 9.0241C14.0692 9.19489 13.8431 9.33334 13.6697 9.33334H12.3303C12.1479 9.33334 12 9.17872 12 9.00001C12 8.81592 12.1427 8.66668 12.3365 8.66668H12.9969C13.1827 8.66668 13.3333 8.51205 13.3333 8.33334C13.3333 8.14925 13.1906 8.00001 12.9969 8.00001H12.3365C12.1506 8.00001 12 7.85664 12 7.67302V5.66033C12 5.47974 12.1427 5.33334 12.3365 5.33334H12.9969C13.1827 5.33334 13.3333 5.47603 13.3333 5.6698V6.33022C13.3333 6.51604 13.1787 6.66668 13 6.66668C12.8159 6.66668 12.6667 6.8213 12.6667 7.00001C12.6667 7.18411 12.8094 7.33334 13.0031 7.33334H13.6635C13.8494 7.33334 14 7.17641 14 7.00308V5.6636C14 5.48121 14.1546 5.33334 14.3333 5.33334C14.5174 5.33334 14.6667 5.47603 14.6667 5.6698V6.33022C14.6667 6.51604 14.8213 6.66668 15 6.66668C15.1841 6.66668 15.3333 6.52399 15.3333 6.33022V5.6698C15.3333 5.48398 15.488 5.33334 15.6667 5.33334C15.8508 5.33334 16 5.47603 16 5.6698V6.33022Z" fill="white"/>
</g>
</svg>
