<svg width="28" height="20" viewBox="0 0 28 20" fill="none" xmlns="http://www.w3.org/2000/svg">
<rect x="0.25" y="0.25" width="27.5" height="19.5" rx="1.75" fill="white" stroke="#F5F5F5" stroke-width="0.5"/>
<mask id="mask0_290_1727" style="mask-type:alpha" maskUnits="userSpaceOnUse" x="0" y="0" width="28" height="20">
<rect x="0.25" y="0.25" width="27.5" height="19.5" rx="1.75" fill="white" stroke="white" stroke-width="0.5"/>
</mask>
<g mask="url(#mask0_290_1727)">
<path fill-rule="evenodd" clip-rule="evenodd" d="M28 2.66669H13.3333V5.33335H28V2.66669ZM13.3333 8.00002V10.6667H28V8.00002H13.3333ZM13.3333 13.3334L0 13.3334V16H28V13.3334H13.3333ZM0 20V18.6667H28V20H0Z" fill="#0E4DC5"/>
<path fill-rule="evenodd" clip-rule="evenodd" d="M6.6665 9.3213L5.77642 10.6499L5.55096 9.06668L4.17254 9.87756L4.65637 8.35327L3.06263 8.48577L4.1599 7.32235L2.6665 6.75024L4.1599 6.17812L3.06263 5.0147L4.65637 5.14721L4.17254 3.62291L5.55096 4.43379L5.77642 2.85052L6.6665 4.17917L7.55659 2.85052L7.78205 4.43379L9.16046 3.62291L8.67664 5.14721L10.2704 5.0147L9.1731 6.17812L10.6665 6.75024L9.1731 7.32235L10.2704 8.48577L8.67664 8.35327L9.16046 9.87756L7.78205 9.06668L7.55659 10.6499L6.6665 9.3213ZM6.6665 9.29569C8.07232 9.29569 9.21196 8.15605 9.21196 6.75024C9.21196 5.34442 8.07232 4.20478 6.6665 4.20478C5.26069 4.20478 4.12105 5.34442 4.12105 6.75024C4.12105 8.15605 5.26069 9.29569 6.6665 9.29569ZM8.6665 6.66666C8.6665 7.77123 7.77107 8.66666 6.6665 8.66666C5.56193 8.66666 4.6665 7.77123 4.6665 6.66666C4.6665 5.56209 5.56193 4.66666 6.6665 4.66666C7.77107 4.66666 8.6665 5.56209 8.6665 6.66666Z" fill="#FED443"/>
</g>
</svg>
