<svg id="404" xmlns="http://www.w3.org/2000/svg" fill="none" viewBox="0 0 24 24"><path stroke="currentColor" stroke-linecap="round" stroke-linejoin="round" stroke-width="1.5" d="M3 8v8.4c0 1.5 0 2.25.382 2.776q.187.256.442.442C4.35 20 5.1 20 6.6 20h10.8c1.5 0 2.25 0 2.776-.382q.256-.187.442-.442C21 18.65 21 17.9 21 16.4V8M3 8v-.4c0-1.5 0-2.25.382-2.776a2 2 0 0 1 .442-.442C4.35 4 5.1 4 6.6 4h10.8c1.5 0 2.25 0 2.776.382q.256.187.442.442C21 5.35 21 6.1 21 7.6V8M3 8h18M5 6h.01m1.98 0H7m1.99 0H9m-1.49 6L6 15h2m1 0H8m0 0v1m0-1v-1m8.5-2L15 15h1.99m1 0h-1m0 0v1m0-1v-1M13 13v2a1 1 0 0 1-1 1v0a1 1 0 0 1-1-1v-2a1 1 0 0 1 1-1v0a1 1 0 0 1 1 1" /></svg>