<svg id="acorn" xmlns="http://www.w3.org/2000/svg" fill="none" viewBox="0 0 24 24"><g clip-path="url(#clip0_1556_82877)"><path stroke="currentColor" stroke-linecap="round" stroke-linejoin="round" stroke-width="1.5" d="M16.95 16.95c-3.89 3.889-9.9 2.828-11.314 1.414S3.161 10.939 7.05 7.05m9.9 0c5.303 5.304 1.414 9.9 1.414 9.9-5.657-3.536-7.778-5.657-11.314-11.314 0 0 4.596-3.89 9.9 1.414m0 0a2 2 0 0 1 2.828 0v0m-1.788 6.44.01.01m-2.51-1.01.01.01m1.49-1.51L17 11m-4.01-.01L13 11m2-1.01.01.01m1.48-1.51.01.01" /></g><defs><clipPath id="clip0_1556_82877"><path fill="white" d="M0 0h24v24H0z" /></clipPath></defs></svg>