<svg id="addressBook" xmlns="http://www.w3.org/2000/svg" fill="none" viewBox="0 0 24 24"><path stroke="currentColor" stroke-linecap="round" stroke-linejoin="round" stroke-width="1.5" d="M18.998 20.472a4.04 4.04 0 0 1-4.834-.637A4.045 4.045 0 0 1 13.528 15a4.04 4.04 0 0 1 4.504-1.867A4.04 4.04 0 0 1 21 17.003v.4c0 .664-.538 1.202-1.201 1.202v0a1.2 1.2 0 0 1-1.202-1.201v-.401m0 0a1.602 1.602 0 1 1-3.204 0 1.602 1.602 0 0 1 3.204 0m-.6-6.503V7a3 3 0 0 0-3-3H8a2 2 0 0 0-2 2v3m5 11H8a2 2 0 0 1-2-2v-3M5 9h1m0 0h1M6 9v3m-1 0h1m0 0h1m-1 0v3m-1 0h1m0 0h1" /></svg>