<svg id="aiChip" xmlns="http://www.w3.org/2000/svg" fill="none" viewBox="0 0 24 24"><path stroke="currentColor" stroke-linecap="round" stroke-linejoin="round" stroke-width="1.5" d="M8.5 5h-.125A3.375 3.375 0 0 0 5 8.375V8.5M8.5 5V3m0 2H12m0 0V3m0 2h3.5m0 0h.125A3.375 3.375 0 0 1 19 8.375V8.5M15.5 5V3m-7 16h-.125A3.375 3.375 0 0 1 5 15.625V15.5M8.5 19v2m0-2H12m0 0v2m0-2h3.5m0 0h.125A3.375 3.375 0 0 0 19 15.625V15.5M15.5 19v2M19 8.5h2m-2 0V12m0 0h2m-2 0v3.5m0 0h2m-16 0H3m2 0V12m0 0H3m2 0V8.5m0 0H3m5 7v-3m4 3v-3m3.5-4V9m0 6.5v-4m-7.5 1v-2a2 2 0 0 1 2-2v0a2 2 0 0 1 2 2v2m-4 0h4" /></svg>