<svg id="aiPresentation" xmlns="http://www.w3.org/2000/svg" fill="none" viewBox="0 0 24 24"><path stroke="currentColor" stroke-linecap="round" stroke-linejoin="round" stroke-width="1.5" d="M10 17H6.888c-1.608 0-2.412 0-2.953-.419a2 2 0 0 1-.446-.481c-.376-.571-.314-1.373-.19-2.976l.317-4.138c.161-2.092.242-3.137.819-3.86a3 3 0 0 1 .655-.606C5.854 4 6.903 4 9 4h2m-1 13-2 4m2-4h4m0 0h3.058c1.628 0 2.442 0 2.985-.426a2 2 0 0 0 .447-.488c.374-.58.3-1.39.153-3.012L20.5 11.5M14 17l2 4m7-15-2.03-.87a4 4 0 0 1-2.1-2.1L18 1l-.87 2.03a4 4 0 0 1-2.1 2.1L13 6l2.03.87a4 4 0 0 1 2.1 2.1L18 11l.87-2.03a4 4 0 0 1 2.1-2.1z" /></svg>