<svg id="airConditioner" xmlns="http://www.w3.org/2000/svg" fill="none" viewBox="0 0 24 24"><path stroke="currentColor" stroke-linecap="round" stroke-linejoin="round" stroke-width="1.5" d="M6 13a3 3 0 0 1-3-3V7a3 3 0 0 1 3-3h12a3 3 0 0 1 3 3v3a3 3 0 0 1-3 3v0M6 13v-1a2 2 0 0 1 2-2h8a2 2 0 0 1 2 2v1M6 13h12m-3-6.5h2M8 15l-.146.44A2.7 2.7 0 0 0 8 17.5v0a2.7 2.7 0 0 1 .146 2.06L8 20m4-5-.146.44A2.7 2.7 0 0 0 12 17.5v0a2.7 2.7 0 0 1 .146 2.06L12 20m4-5-.146.44A2.7 2.7 0 0 0 16 17.5v0a2.7 2.7 0 0 1 .146 2.06L16 20" /></svg>