<svg id="airPodsPro" xmlns="http://www.w3.org/2000/svg" fill="none" viewBox="0 0 24 24"><path stroke="currentColor" stroke-linecap="round" stroke-linejoin="round" stroke-width="1.5" d="M15.036 11A3.5 3.5 0 1 1 21 13.95M15.036 11A3.006 3.006 0 0 0 12 14m3.036-3s1.076.291 1.964 1.5.85 2.44.85 2.44M12 14a3 3 0 0 0 3 3m-3-3s1 0 2 1 1 2 1 2m0 0a3 3 0 0 0 2.85-2.06m0 0 .15.024m1.5-4.464-1 .5m-.5 3.964q.245.036.5.036a3.5 3.5 0 0 0 2.5-1.05m-3 1.015V19.5a1.5 1.5 0 0 0 1.5 1.5v0a1.5 1.5 0 0 0 1.5-1.5v-5.55M8.965 4.965A3.5 3.5 0 1 0 3 7.914m5.965-2.95a3.006 3.006 0 0 1 3.035 3m-3.035-3S7.888 5.257 7 6.465c-.888 1.209-.85 2.44-.85 2.44m5.85-.94a3 3 0 0 1-3 3m3-3s-1 0-2 1-1 2-1 2m0 0a3 3 0 0 1-2.85-2.06m0 0q-.075.015-.15.025M4.5 4.465l1 .5M6 8.929a3.49 3.49 0 0 1-3-1.015m3 1.015v4.535a1.5 1.5 0 0 1-1.5 1.5v0a1.5 1.5 0 0 1-1.5-1.5v-5.55" /></svg>