<svg id="alarmAlert" xmlns="http://www.w3.org/2000/svg" fill="none" viewBox="0 0 24 24"><path stroke="currentColor" stroke-linecap="round" stroke-linejoin="round" stroke-width="1.5" d="M6.355 17.669A7.98 7.98 0 0 0 12 20c2.203 0 4.198-.89 5.645-2.331m-11.29 0L4.5 20l1.255-3m.6.669a8 8 0 0 1-.6-.669m11.89.669L19.5 20l-1.23-3.031m-.625.7q.333-.332.625-.7M17 3a4 4 0 0 1 4 4M7 3a4 4 0 0 0-4 4m2.755 10a8 8 0 1 1 12.515-.031M12 16.5a.5.5 0 0 0-.5.5v0m.5-.5a.5.5 0 0 1 .5.5v0m-.5-.5v.5m0 0v.5m0-.5h-.5m.5 0h.5m-.5.5a.5.5 0 0 0 .5-.5v0m-.5.5a.5.5 0 0 1-.5-.5v0m.5-3-.241-6.75A.24.24 0 0 1 12 7v0a.24.24 0 0 1 .241.25z" /></svg>