<svg id="alertTriangle" xmlns="http://www.w3.org/2000/svg" fill="none" viewBox="0 0 24 24"><path stroke="currentColor" stroke-linecap="round" stroke-linejoin="round" stroke-width="1.5" d="M12 15.5a.5.5 0 0 0-.5.5v0m.5-.5a.5.5 0 0 1 .5.5v0m-.5-.5v.5m0 0v.5m0-.5h-.5m.5 0h.5m-.5.5a.5.5 0 0 0 .5-.5v0m-.5.5a.5.5 0 0 1-.5-.5v0m.5-3-.24-5.75A.24.24 0 0 1 12 7v0a.24.24 0 0 1 .24.25zm-8.35 3.029 6.602-11.882c.762-1.372 2.734-1.372 3.496 0l6.601 11.882c.74 1.333-.223 2.971-1.748 2.971H5.399c-1.525 0-2.489-1.638-1.748-2.971" /></svg>