<svg id="alertHexagon" xmlns="http://www.w3.org/2000/svg" fill="none" viewBox="0 0 24 24"><path stroke="currentColor" stroke-linecap="round" stroke-linejoin="round" stroke-width="1.5" d="M12 16a.5.5 0 0 0-.5.5v0m.5-.5a.5.5 0 0 1 .5.5v0M12 16v.5m0 0v.5m0-.5h-.5m.5 0h.5m-.5.5a.5.5 0 0 0 .5-.5v0m-.5.5a.5.5 0 0 1-.5-.5v0M12 14l-.241-6.75A.24.24 0 0 1 12 7v0a.24.24 0 0 1 .241.25zM4 9.255v5.49a3 3 0 0 0 1.53 2.615l5 2.813a3 3 0 0 0 2.94 0l5-2.813A3 3 0 0 0 20 14.746V9.255a3 3 0 0 0-1.53-2.615l-5-2.813a3 3 0 0 0-2.94 0l-5 2.813A3 3 0 0 0 4 9.255" /></svg>