<svg id="ambulance" xmlns="http://www.w3.org/2000/svg" fill="none" viewBox="0 0 24 24"><path stroke="currentColor" stroke-linecap="round" stroke-linejoin="round" stroke-width="1.5" d="M14 7h2.886c.996 0 1.494 0 1.911.205a2 2 0 0 1 .384.247c.36.294.566.747.98 1.653l.409.895M14 7a3 3 0 0 0-3-3H8.4c-2.25 0-3.375 0-4.163.573a3 3 0 0 0-.664.664C3 6.025 3 7.15 3 9.4V13m11-6v.6c0 2.25 0 3.375-.573 4.163q-.28.384-.664.664C11.975 13 10.85 13 8.6 13H3m0 0v3.2c0 .75 0 1.125.191 1.388a1 1 0 0 0 .221.221C3.675 18 4.05 18 4.8 18H6m15-4v1.975c0 .644 0 .967-.154 1.211q-.075.12-.181.214c-.216.192-.534.245-1.17.35L18 18m3-4v-1.885c0-.46 0-.691-.035-.917a3 3 0 0 0-.043-.224c-.052-.223-.137-.437-.308-.865L20.57 10m.43 4h-1a3 3 0 0 1-3-3v0a1 1 0 0 1 1-1h2.57M10 18a2 2 0 1 1-4 0m4 0a2 2 0 1 0-4 0m4 0h4m4 0a2 2 0 1 1-4 0m4 0a2 2 0 1 0-4 0M8.5 8.5v-2m0 2h2m-2 0h-2m2 0v2" /></svg>