<svg id="antiHornySpray" xmlns="http://www.w3.org/2000/svg" fill="none" viewBox="0 0 24 24"><path stroke="currentColor" stroke-linecap="round" stroke-linejoin="round" stroke-width="1.5" d="M6 9V7.414c0-.168 0-.253-.004-.334a3 3 0 0 0-.763-1.84A6 6 0 0 0 5 5l-.586-.586a1.4 1.4 0 0 1-.414-1v0C4 2.634 4.633 2 5.414 2h6.261c.846 0 1.268 0 1.534.197a1 1 0 0 1 .354.49c.103.315-.03.716-.298 1.518v0c-.105.314-.157.47-.25.598a1 1 0 0 1-.213.212c-.127.093-.283.145-.597.25L11.5 5.5M6 9h4M6 9l-1.093 1.64c-.4.6-.6.9-.722 1.232q-.06.165-.102.337C4 12.554 4 12.914 4 13.635V16.6c0 2.25 0 3.375.573 4.163.185.255.409.479.664.664C6.025 22 7.15 22 9.4 22h.2c2.25 0 3.375 0 4.163-.573q.384-.28.664-.664C15 19.975 15 18.85 15 16.6v-.363c0-.98 0-1.47-.147-1.921a3 3 0 0 0-.18-.435c-.216-.424-.562-.77-1.255-1.463L10 9m0 0V7.581c0-.944.604-1.782 1.5-2.081v0m0 0L13 8m2.5-4h.263c.98 0 1.47 0 1.921-.147q.225-.073.435-.18c.424-.216.77-.562 1.463-1.255L20 2m-.5 3.5.5.5m1-2h.5" /></svg>