<svg id="apple" xmlns="http://www.w3.org/2000/svg" fill="none" viewBox="0 0 24 24"><path stroke="currentColor" stroke-linecap="round" stroke-linejoin="round" stroke-width="1.5" d="M12 8V7a3 3 0 0 0-3-3m3 4 .11-.986c.127-1.148.19-1.722.42-2.19a3 3 0 0 1 1.295-1.336c.46-.243 1.032-.325 2.175-.488l-.07.496c-.187 1.301-.28 1.952-.606 2.483a3 3 0 0 1-.373.486c-.428.454-1.032.713-2.24 1.23zm0 0 1.188-.17.183-.025A5 5 0 0 1 19 12.686l.001.244c0 3.866-3.134 7.07-7 7.07s-7-3.204-7-7.07v-.244a5 5 0 0 1 5.629-4.881l.183.025z" /></svg>