<svg id="aquarius" xmlns="http://www.w3.org/2000/svg" fill="none" viewBox="0 0 24 24"><path stroke="currentColor" stroke-linecap="round" stroke-linejoin="round" stroke-width="1.5" d="m4 9.5 1.918-1.798a1 1 0 0 1 1.43.065L8.587 9.16a1 1 0 0 0 1.495 0l1.172-1.318a1 1 0 0 1 1.494 0L13.92 9.16a1 1 0 0 0 1.495 0l1.237-1.392a1 1 0 0 1 1.431-.065L20 9.5m-16 7 1.918-1.798a1 1 0 0 1 1.43.066l1.238 1.391a1 1 0 0 0 1.495 0l1.172-1.318a1 1 0 0 1 1.494 0l1.172 1.318a1 1 0 0 0 1.495 0l1.237-1.391a1 1 0 0 1 1.431-.066L20 16.5" /></svg>