<svg id="arcDeTriomph" xmlns="http://www.w3.org/2000/svg" fill="none" viewBox="0 0 24 24"><path stroke="currentColor" stroke-linecap="round" stroke-linejoin="round" stroke-width="1.5" d="M3 20h1m17 0h-1M4 20h5m-5 0v-8m16 8h-5m5 0v-8M9 20h6m-6 0v-8m6 8v-8m-6 0a3 3 0 0 1 3-3v0a3 3 0 0 1 3 3v0m-6 0H4m0 0V9.162a1 1 0 0 0-.051-.316l-.51-1.53A1 1 0 0 1 4.387 6H5m10 6h5m0 0V9.162a1 1 0 0 1 .051-.316l.51-1.53A1 1 0 0 0 19.613 6H19m-1.5 9v2m-11-2v2M5 6V5a1 1 0 0 1 1-1h12a1 1 0 0 1 1 1v1M5 6h14M6 9h1.5m9 0H18" /></svg>