<svg id="archiveBox" xmlns="http://www.w3.org/2000/svg" fill="none" viewBox="0 0 24 24"><path stroke="currentColor" stroke-linecap="round" stroke-linejoin="round" stroke-width="1.5" d="M4 7v9.4c0 1.5 0 2.25.382 2.776q.187.256.442.442C5.35 20 6.1 20 7.6 20h8.8c1.5 0 2.25 0 2.776-.382q.256-.187.442-.442C20 18.65 20 17.9 20 16.4V7M4 7H3V5.8c0-.75 0-1.125.191-1.388a1 1 0 0 1 .221-.221C3.675 4 4.05 4 4.8 4h14.4c.75 0 1.125 0 1.388.191a1 1 0 0 1 .221.221C21 4.675 21 5.05 21 5.8V7h-1M4 7h4m12 0h-4M8 7h8M8 7v.2c0 .75 0 1.125.191 1.388a1 1 0 0 0 .221.221C8.675 9 9.05 9 9.8 9h4.4c.75 0 1.125 0 1.388-.191a1 1 0 0 0 .221-.221C16 8.325 16 7.95 16 7.2V7" /></svg>