<svg id="armour" xmlns="http://www.w3.org/2000/svg" fill="none" viewBox="0 0 24 24"><path stroke="currentColor" stroke-linecap="round" stroke-linejoin="round" stroke-width="1.5" d="m12 21-6-1 1-2v-1.5m5 4.5V6.5M12 21l6-1-1-2v-1.5M6.5 10l.5 3v1m-.5-4L3 11.5V7.606a3 3 0 0 1 1.336-2.497l.443-.295a3 3 0 0 1 2.613-.35L7.5 4.5m-1 5.5 1.563-3L7.5 4.5m4.5 2-4.5-2m4.5 2V4m0 2.5 4.5-2m-9 0L9 3l3 1m0 0 3-1 1.5 1.5M7 14l2 .5M7 14v2.5m0 0h2m8.5-6.5-.5 3v1m.5-4 3.5 1.559V7.606a3 3 0 0 0-1.336-2.497l-.443-.295a3 3 0 0 0-2.613-.35L16.5 4.5m1 5.5-1.562-3 .562-2.5M17 14l-2 .5m2-.5v2.5m0 0h-2" /></svg>