<svg id="arrowSort09" xmlns="http://www.w3.org/2000/svg" fill="none" viewBox="0 0 24 24"><path stroke="currentColor" stroke-linecap="round" stroke-linejoin="round" stroke-width="1.5" d="M7.5 20V4m0 16-3-4m3 4 3-4m8.5 1h-2.5c-.466 0-.699 0-.883-.076a1 1 0 0 1-.54-.541C15 16.199 15 15.966 15 15.5v0c0-.466 0-.699.076-.883a1 1 0 0 1 .541-.54c.184-.077.417-.077.883-.077h.7c.75 0 1.125 0 1.388.191a1 1 0 0 1 .221.221c.191.263.191.638.191 1.388zm0 0v1.2c0 .75 0 1.125-.191 1.388a1 1 0 0 1-.221.221C18.325 20 17.95 20 17.2 20H16a1 1 0 0 1-1-1v0m4-11V6a2 2 0 0 0-2-2v0a2 2 0 0 0-2 2v2a2 2 0 0 0 2 2v0a2 2 0 0 0 2-2" /></svg>