<svg id="arrowBranchingUp" xmlns="http://www.w3.org/2000/svg" fill="none" viewBox="0 0 24 24"><path stroke="currentColor" stroke-linecap="round" stroke-linejoin="round" stroke-width="1.5" d="M16 4v4.763c0 .98 0 1.47-.147 1.921q-.073.225-.18.435c-.216.424-.562.77-1.255 1.463l-.836.836c-.693.693-1.04 1.04-1.255 1.463q-.107.21-.18.435c-.147.451-.147.941-.147 1.92V20m4-16 2.5 3M16 4l-2.5 3M8 4v4.11c0 1.255 0 1.882.229 2.434a3 3 0 0 0 .278.519c.332.496.854.844 1.898 1.54L11 13M8 4l2.5 3M8 4 5.5 7" /></svg>