<svg id="arrowBranchingDown" xmlns="http://www.w3.org/2000/svg" fill="none" viewBox="0 0 24 24"><path stroke="currentColor" stroke-linecap="round" stroke-linejoin="round" stroke-width="1.5" d="M16 20v-4.763c0-.98 0-1.47-.147-1.921a3 3 0 0 0-.18-.435c-.216-.424-.562-.77-1.255-1.463l-.836-.836c-.693-.693-1.04-1.04-1.255-1.463a3 3 0 0 1-.18-.435C12 8.233 12 7.743 12 6.764V4m4 16 2.5-3M16 20l-2.5-3M8 20v-4.11c0-1.255 0-1.882.229-2.434a3 3 0 0 1 .278-.519c.332-.496.854-.844 1.898-1.54L11 11m-3 9 2.5-3M8 20l-2.5-3" /></svg>