<svg id="arrowMove" xmlns="http://www.w3.org/2000/svg" fill="none" viewBox="0 0 24 24"><path stroke="currentColor" stroke-linecap="round" stroke-linejoin="round" stroke-width="1.5" d="M12 12V4.5m0 7.5H4.5m7.5 0h7.5M12 12v7.5M9 17l1.56 2.08c.582.776.873 1.165 1.256 1.236q.183.034.368 0c.383-.072.674-.46 1.256-1.236L15 17M9 7l1.56-2.08c.582-.776.873-1.164 1.256-1.236a1 1 0 0 1 .368 0c.383.072.674.46 1.256 1.236L15 7m2 8 2.08-1.56c.776-.582 1.165-.873 1.236-1.256a1 1 0 0 0 0-.368c-.072-.383-.46-.674-1.236-1.256L17 9M7 15l-2.08-1.56c-.776-.582-1.164-.873-1.236-1.256a1 1 0 0 1 0-.368c.072-.383.46-.674 1.236-1.256L7 9" /></svg>