<svg id="arrowRecycle" xmlns="http://www.w3.org/2000/svg" fill="none" viewBox="0 0 24 24"><path stroke="currentColor" stroke-linecap="round" stroke-linejoin="round" stroke-width="1.5" d="m17.727 12.605.634 1.142c.868 1.564 1.302 2.346 1.227 2.985a2 2 0 0 1-.819 1.392c-.523.376-1.417.376-3.206.376h-2.336l1.637-2.105M9.545 18.5h-1.03c-1.811 0-2.717 0-3.242-.38a2 2 0 0 1-.815-1.405c-.07-.645.38-1.43 1.278-3.003l1.355-2.37.818 2.526m.41-5.473.929-1.488c.91-1.459 1.366-2.188 1.947-2.434a2 2 0 0 1 1.585.01c.578.253 1.024.988 1.917 2.458l1.394 2.296-2.864-.842" /></svg>