<svg id="arrowBranchingRight" xmlns="http://www.w3.org/2000/svg" fill="none" viewBox="0 0 24 24"><path stroke="currentColor" stroke-linecap="round" stroke-linejoin="round" stroke-width="1.5" d="M20 8h-4.763c-.98 0-1.47 0-1.921.147q-.225.073-.435.18c-.424.216-.77.562-1.463 1.255l-.836.836c-.693.693-1.04 1.04-1.463 1.255q-.21.107-.435.18C8.233 12 7.743 12 6.764 12H4m16-4-3-2.5M20 8l-3 2.5m3 5.5h-4.11c-1.255 0-1.882 0-2.434-.229a3 3 0 0 1-.519-.278c-.496-.332-.844-.854-1.54-1.898L11 13m9 3-3-2.5m3 2.5-3 2.5" /></svg>