<svg id="atLocked" xmlns="http://www.w3.org/2000/svg" fill="none" viewBox="0 0 24 24"><path stroke="currentColor" stroke-linecap="round" stroke-linejoin="round" stroke-width="1.5" d="M15 12a3 3 0 1 1-6 0 3 3 0 0 1 6 0m0 0-.001 1.497a2 2 0 0 0 2 2.003v0a2 2 0 0 0 2.001-2v-1.493q0-.511-.075-1.007M15 18.33c-2.18 1.02-4.829.89-6.898-.493-2.745-1.836-3.844-5.46-2.58-8.513C6.737 6.385 9.877 4.621 13 5.07m3.5-.569a1 1 0 0 0-1 1v1.2c0 .75 0 1.125.191 1.388a1 1 0 0 0 .221.221c.263.191.638.191 1.388.191h1.4c.75 0 1.125 0 1.388-.191a1 1 0 0 0 .221-.221c.191-.263.191-.638.191-1.388V5.5a1 1 0 0 0-1-1v0m-3 0v-1A1.5 1.5 0 0 1 18 2v0a1.5 1.5 0 0 1 1.5 1.5v1m-3 0h3M18 6.49v.01" /></svg>