<svg id="atRefresh" xmlns="http://www.w3.org/2000/svg" fill="none" viewBox="0 0 24 24"><path stroke="currentColor" stroke-linecap="round" stroke-linejoin="round" stroke-width="1.5" d="M19 12.007V13.5a2 2 0 0 1-2 2.001v0a2 2 0 0 1-2.001-2.003L15 12m0 0a3 3 0 1 1-6 0 3 3 0 0 1 6 0m0 6.33c-2.18 1.02-4.829.89-6.898-.493-2.745-1.836-3.844-5.46-2.58-8.513C6.607 6.7 9.227 5.012 12 5m5-1.5h1.5a2.5 2.5 0 0 1 2 4m-3.5-4L18.5 2M17 3.5 18.5 5m.5 4h-1.5a2.5 2.5 0 0 1-2-4M19 9l-1.5 1.5M19 9l-1.5-1.5" /></svg>