<svg id="atStamp" xmlns="http://www.w3.org/2000/svg" fill="none" viewBox="0 0 24 24"><path stroke="currentColor" stroke-linecap="round" stroke-linejoin="round" stroke-width="1.5" d="M13.998 15.472a4.04 4.04 0 0 1-4.834-.637A4.045 4.045 0 0 1 8.528 10a4.04 4.04 0 0 1 4.504-1.867A4.04 4.04 0 0 1 16 12.003v.4a1.201 1.201 0 1 1-2.403 0v-.4m0 0a1.602 1.602 0 1 1-3.204 0 1.602 1.602 0 0 1 3.204 0m5.526-3.842a1.14 1.14 0 0 1 0-1.465c.354-.424.877-.858.877-1.41V5a1 1 0 0 0-1-1h-.286c-.552 0-.986.523-1.41.877a1.14 1.14 0 0 1-1.465 0C15.415 4.523 14.98 4 14.429 4h-.286c-.552 0-.987.523-1.41.877a1.14 1.14 0 0 1-1.466 0C10.844 4.523 10.41 4 9.857 4h-.286c-.552 0-.986.523-1.41.877a1.14 1.14 0 0 1-1.465 0C6.272 4.523 5.838 4 5.286 4H5a1 1 0 0 0-1 1v.286c0 .552.523.986.877 1.41a1.14 1.14 0 0 1 0 1.465C4.523 8.585 4 9.02 4 9.571v.286c0 .552.523.987.877 1.41a1.14 1.14 0 0 1 0 1.466c-.354.423-.877.858-.877 1.41v.286c0 .552.523.986.877 1.41a1.14 1.14 0 0 1 0 1.465c-.354.424-.877.858-.877 1.41V19a1 1 0 0 0 1 1h.286c.552 0 .986-.523 1.41-.877a1.14 1.14 0 0 1 1.465 0c.424.354.858.877 1.41.877h.286c.552 0 .987-.523 1.41-.877a1.14 1.14 0 0 1 1.466 0c.423.354.858.877 1.41.877h.286c.552 0 .986-.523 1.41-.877a1.14 1.14 0 0 1 1.465 0c.424.354.858.877 1.41.877H19a1 1 0 0 0 1-1v-.286c0-.552-.523-.986-.877-1.41a1.14 1.14 0 0 1 0-1.465c.354-.424.877-.858.877-1.41v-.286c0-.552-.523-.987-.877-1.41a1.14 1.14 0 0 1 0-1.466c.354-.423.877-.858.877-1.41v-.286c0-.552-.523-.986-.877-1.41" /></svg>