<svg id="atTrash" xmlns="http://www.w3.org/2000/svg" fill="none" viewBox="0 0 24 24"><path stroke="currentColor" stroke-linecap="round" stroke-linejoin="round" stroke-width="1.5" d="M15 12a3 3 0 1 1-6 0 3 3 0 0 1 6 0m0 0-.001 1.497a2 2 0 0 0 2 2.003v0a2 2 0 0 0 2.001-2v-1.493q0-.511-.075-1.007M15 18.33c-2.18 1.02-4.829.89-6.898-.493-2.745-1.836-3.844-5.46-2.58-8.513C6.737 6.385 9.877 4.621 13 5.07M21 3h-1.441a.9.9 0 0 1-.809-.5l-.026-.053A.81.81 0 0 0 18 2v0a.81.81 0 0 0-.724.447l-.026.053a.9.9 0 0 1-.809.5H15m5 2-.314 2.512c-.072.579-.108.868-.26 1.077a1 1 0 0 1-.324.286C18.876 9 18.584 9 18 9v0c-.584 0-.876 0-1.102-.125a1 1 0 0 1-.323-.286c-.152-.209-.189-.498-.261-1.077L16 5z" /></svg>