<svg id="audioFile" xmlns="http://www.w3.org/2000/svg" fill="none" viewBox="0 0 24 24"><path stroke="currentColor" stroke-linecap="round" stroke-linejoin="round" stroke-width="1.5" d="M12 16V8.66a.2.2 0 0 1 .366-.11l1.091 1.636a2 2 0 0 1 .234 1.742l-.191.572M12 16c0 .777-.733 1.5-1.5 1.5S9 16.777 9 16s.733-1.5 1.5-1.5 1.5.723 1.5 1.5m4.418-8.582L14.45 5.45c-.562-.562-.843-.844-1.176-1.038a3 3 0 0 0-.76-.315C12.143 4 11.745 4 10.95 4v0c-1.822 0-2.733 0-3.416.382a3 3 0 0 0-1.152 1.152C6 6.217 6 7.128 6 8.95v5.65c0 2.25 0 3.375.573 4.163.185.255.409.479.664.664C8.025 20 9.15 20 11.4 20h1.2c2.25 0 3.375 0 4.163-.573q.384-.28.664-.664C18 17.975 18 16.85 18 14.6v-3.363c0-.98 0-1.47-.147-1.921a3 3 0 0 0-.18-.435c-.216-.424-.562-.77-1.255-1.463" /></svg>