<svg id="axe" xmlns="http://www.w3.org/2000/svg" fill="none" viewBox="0 0 24 24"><g clip-path="url(#clip0_1556_84673)"><path stroke="currentColor" stroke-linecap="round" stroke-linejoin="round" stroke-width="1.5" d="M6.686 6.686c-2.2 2.2-4.95.707-4.95.707s-1.03 3.212 1.768 6.01c2.8 2.8 6.07 1.827 6.07 1.827s-1.552-2.808.648-5.008M6.686 6.686 5.272 5.272m1.414 1.414c.572-.572.895-1.181 1.059-1.77l4.257 4.257a3.9 3.9 0 0 0-1.78 1.049m0 0 6.535 6.535m0 0a1 1 0 0 0 0 1.415l2.122 2.12a1 1 0 0 0 1.414 0v0m-3.536-3.535a1 1 0 0 1 1.415 0l2.12 2.122a1 1 0 0 1 0 1.414v0m0 0L21 21" /></g><defs><clipPath id="clip0_1556_84673"><path fill="white" d="M0 0h24v24H0z" /></clipPath></defs></svg>