<svg id="axe1" xmlns="http://www.w3.org/2000/svg" fill="none" viewBox="0 0 24 24"><g clip-path="url(#clip0_1556_84675)"><path stroke="currentColor" stroke-linecap="round" stroke-linejoin="round" stroke-width="1.5" d="M7.686 7.682c-2.2 2.2-4.95.707-4.95.707s-1.03 3.212 1.768 6.01c2.8 2.8 6.07 1.827 6.07 1.827s-1.552-2.809.648-5.008M7.686 7.682 6.272 6.268m1.414 1.414c.57-.57.892-1.177 1.057-1.764m2.479 5.3 5.535 5.535m-5.535-5.536a3.9 3.9 0 0 1 1.746-1.039m3.79 6.575a1 1 0 0 0 0 1.414l2.12 2.122a1 1 0 0 0 1.415 0v0m-3.536-3.536a1 1 0 0 1 1.415 0l2.12 2.121a1 1 0 0 1 0 1.415v0m0 0 .708.707m-8.032-10.818-4.225-4.26m4.225 4.26L14.404 4.5 8.743 5.918" /></g><defs><clipPath id="clip0_1556_84675"><path fill="white" d="M0 0h24v24H0z" /></clipPath></defs></svg>