<svg id="backPack" xmlns="http://www.w3.org/2000/svg" fill="none" viewBox="0 0 24 24"><path stroke="currentColor" stroke-linecap="round" stroke-linejoin="round" stroke-width="1.5" d="M10 5a5 5 0 0 0-5 5v2m5-7V4a2 2 0 0 1 2-2v0a2 2 0 0 1 2 2v1m-4 0h4m0 0a5 5 0 0 1 5 5v2M8 21H7a2 2 0 0 1-2-2v0m3 2v-5a3 3 0 0 1 3-3h2a3 3 0 0 1 3 3v5m-8 0h8m0 0h1a2 2 0 0 0 2-2v0m0 0a3 3 0 0 0 3-3v-2a2 2 0 0 0-2-2h-1m0 7v-7M5 19a3 3 0 0 1-3-3v-2a2 2 0 0 1 2-2h1m0 7v-7m8-2h-2a1 1 0 0 1-1-1v0a1 1 0 0 1 1-1h2a1 1 0 0 1 1 1v0a1 1 0 0 1-1 1" /></svg>