<svg id="backToPlayer" xmlns="http://www.w3.org/2000/svg" fill="none" viewBox="0 0 24 24"><path stroke="currentColor" stroke-linecap="round" stroke-linejoin="round" stroke-width="1.5" d="M15.5 7h.1c2.25 0 3.375 0 4.163.573.255.185.479.409.664.664C21 9.025 21 10.15 21 12.4v1.2c0 2.25 0 3.375-.573 4.163q-.28.384-.664.664C18.975 19 17.85 19 15.6 19h-5.2c-2.25 0-3.375 0-4.163-.573a3 3 0 0 1-.664-.664C5 16.975 5 15.85 5 13.6v-.1m10-.5 2.5 2.5m0 0V14m0 1.5H16M9.5 4h-3c-1.404 0-2.107 0-2.611.337a2 2 0 0 0-.552.552C3 5.393 3 6.096 3 7.5v0c0 1.404 0 2.107.337 2.611a2 2 0 0 0 .552.552C4.393 11 5.096 11 6.5 11h3c1.405 0 2.107 0 2.611-.337.218-.146.406-.334.552-.552C13 9.607 13 8.904 13 7.5v0c0-1.404 0-2.107-.337-2.611a2 2 0 0 0-.552-.552C11.607 4 10.904 4 9.5 4" /></svg>