<svg id="baguette" xmlns="http://www.w3.org/2000/svg" fill="none" viewBox="0 0 24 24"><g clip-path="url(#clip0_1556_83069)"><path stroke="currentColor" stroke-linecap="round" stroke-linejoin="round" stroke-width="1.5" d="M15.071 9.071c-1.427-1.427-2.746-2.515-3.954-3.34m3.954 3.34-3.945.298m3.945-.298c1.427 1.427 2.516 2.746 3.34 3.954m-7.294-7.293C8.517 3.96 6.43 3.415 4.89 3.375c-1.783-.046-2.078 1.922-.817 3.183l13.51 13.511c1.262 1.261 3.23.966 3.184-.817-.04-1.541-.585-3.628-2.357-6.227m-7.293-7.293-3.637-.01m10.93 7.303-3.637-.01m5.721 4.308-1.618-.205" /></g><defs><clipPath id="clip0_1556_83069"><path fill="white" d="M0 0h24v24H0z" /></clipPath></defs></svg>