<svg id="baseballBat" xmlns="http://www.w3.org/2000/svg" fill="none" viewBox="0 0 24 24"><path stroke="currentColor" stroke-linecap="round" stroke-linejoin="round" stroke-width="1.5" d="M13.022 15.5q.365.236.594.375c.227.14.44.302.628.49l2.693 2.693c.333.334.416.844.205 1.266l-.072.145a.87.87 0 0 0 .163 1.006v0c.34.34.892.34 1.233 0l3.01-3.01a.87.87 0 0 0 0-1.232v0a.87.87 0 0 0-1.007-.163l-.145.072a1.1 1.1 0 0 1-1.266-.205l-2.692-2.693a3.4 3.4 0 0 1-.491-.628 30 30 0 0 0-.375-.594M13.022 15.5C11.311 14.393 7.446 11.688 3 7.243 1.922 6.164 1.922 4.078 3 3s3.164-1.078 4.243 0c4.445 4.445 7.15 8.31 8.257 10.022M13.022 15.5l2.478-2.478" /></svg>