<svg id="basketball" xmlns="http://www.w3.org/2000/svg" fill="none" viewBox="0 0 24 24"><path stroke="currentColor" stroke-linecap="round" stroke-linejoin="round" stroke-width="1.5" d="M17.657 17.657a7.98 7.98 0 0 0 2.33-6.102m-2.33 6.102a7.98 7.98 0 0 1-6.102 2.33m6.102-2.33L6.343 6.343m0 11.314a7.97 7.97 0 0 1-2.33-5.212m2.33 5.212a7.97 7.97 0 0 0 5.212 2.33m-5.212-2.33L17.657 6.343m-11.314 0a7.98 7.98 0 0 1 6.102-2.33m-6.102 2.33a7.98 7.98 0 0 0-2.33 6.102m13.644-6.102a7.97 7.97 0 0 0-5.212-2.33m5.212 2.33a7.97 7.97 0 0 1 2.33 5.212m-7.542-7.543a8.19 8.19 0 0 1-8.433 8.433m15.976-.89a8.19 8.19 0 0 0-8.433 8.433" /></svg>