<svg id="basketball1" xmlns="http://www.w3.org/2000/svg" fill="none" viewBox="0 0 24 24"><path stroke="currentColor" stroke-linecap="round" stroke-linejoin="round" stroke-width="1.5" d="M17.97 17.97a7.98 7.98 0 0 0 2.331-6.101m-2.33 6.102a7.98 7.98 0 0 1-6.103 2.33m6.103-2.33c-1.213-6.103-4.768-9.657-11.314-11.314m0 0a7.98 7.98 0 0 1 6.102-2.331m-6.102 2.33a7.98 7.98 0 0 0-2.331 6.103m8.433-8.433a7.97 7.97 0 0 1 5.212 2.33 7.97 7.97 0 0 1 2.33 5.212M12.76 4.326a8.19 8.19 0 0 1-8.433 8.433m0 0a7.97 7.97 0 0 0 2.33 5.212 7.97 7.97 0 0 0 5.212 2.33m8.433-8.432A8.19 8.19 0 0 0 11.87 20.3" /></svg>