<svg id="bat" xmlns="http://www.w3.org/2000/svg" fill="none" viewBox="0 0 24 24"><path stroke="currentColor" stroke-linecap="round" stroke-linejoin="round" stroke-width="1.5" d="M5.035 7.94C3.101 9.866 2 12.287 2 16l2.698-1.156a1 1 0 0 1 1.251.405L7 17l1.735-1.388a1 1 0 0 1 1.393.141L12 18l1.873-2.247a1 1 0 0 1 1.392-.14L17 17l1.05-1.751a1 1 0 0 1 1.252-.405L22 16c0-3.712-1.1-6.133-3.035-8.06a.95.95 0 0 0-1.053-.188L15 9l-.5-3-1.875 1.5a1 1 0 0 1-1.25 0L9.5 6 9 9 6.088 7.752a.95.95 0 0 0-1.053.187" /></svg>