<svg id="battleAxe" xmlns="http://www.w3.org/2000/svg" fill="none" viewBox="0 0 24 24"><g clip-path="url(#clip0_1556_84671)"><path stroke="currentColor" stroke-linecap="round" stroke-linejoin="round" stroke-width="1.5" d="M7.686 7.686c-2.2 2.2-4.95.707-4.95.707s-1.03 3.212 1.768 6.01c2.8 2.8 6.07 1.827 6.07 1.827s-1.552-2.808.648-5.008M7.686 7.686c2.2-2.2.707-4.95.707-4.95s3.212-1.03 6.01 1.768c2.8 2.8 1.827 6.07 1.827 6.07s-2.808-1.552-5.008.648M7.686 7.686 6.272 6.272m4.95 4.95 5.535 5.535m0 0a1 1 0 0 0 0 1.415l2.122 2.12a1 1 0 0 0 1.414 0v0m-3.536-3.535a1 1 0 0 1 1.415 0l2.12 2.122a1 1 0 0 1 0 1.414v0m0 0L21 21" /></g><defs><clipPath id="clip0_1556_84671"><path fill="white" d="M0 0h24v24H0z" /></clipPath></defs></svg>