<svg id="batteryFullVertical1" xmlns="http://www.w3.org/2000/svg" fill="none" viewBox="0 0 24 24"><path stroke="currentColor" stroke-linecap="round" stroke-linejoin="round" stroke-width="1.5" d="M10 3h4M9 18a1 1 0 0 0 1 1h4a1 1 0 0 0 1-1v0m-6 0h6m-6 0v-1m6 1v-1m-6 0h6m-6 0v-1m6 1v-1m0 0H9m6 0v-1m-6 1v-1m0 0h6m-6 0v-1m6 1v-1m0 0H9m6 0v-1m-6 1v-1m0 0h6m-6 0v-1m6 1v-1m0 0H9m6 0v-1m-6 1v-1m0 0h6m-6 0v-1m6 1v-1m0 0H9m6 0V9m-6 1V9m0 0h6M9 9V8m6 1V8m0 0a1 1 0 0 0-1-1h-4a1 1 0 0 0-1 1v0m6 0H9m1-3h4a3 3 0 0 1 3 3v10a3 3 0 0 1-3 3h-4a3 3 0 0 1-3-3V8a3 3 0 0 1 3-3" /></svg>