<svg id="batteryMediumHighHorizontal" xmlns="http://www.w3.org/2000/svg" fill="none" viewBox="0 0 24 24"><path stroke="currentColor" stroke-linecap="round" stroke-linejoin="round" stroke-width="1.5" d="M21 10v4M10 9v6m0-6H9m1 0h1m-1 6H9m1 0h1M9 9v6m0-6H8m1 6H8m0-6v6m0-6H7m1 6H7m0-6v6m0-6H6m1 6H6m0-6a1 1 0 0 0-1 1v4a1 1 0 0 0 1 1v0m0-6v6m5-6v6m0-6h1m-1 6h1m0-6v6m0-6h1m-1 6h1m0-6v6m0-6h1m-1 6h1m0-6a1 1 0 0 1 1 1v4a1 1 0 0 1-1 1v0m0-6v6m5-5v4a3 3 0 0 1-3 3H6a3 3 0 0 1-3-3v-4a3 3 0 0 1 3-3h10a3 3 0 0 1 3 3" /></svg>