<svg id="bear" xmlns="http://www.w3.org/2000/svg" fill="none" viewBox="0 0 24 24"><path stroke="currentColor" stroke-linecap="round" stroke-linejoin="round" stroke-width="1.5" d="M8.896 19.466c-2.286 0-4.14-1.915-4.14-4.277 0-.713.217-1.385.557-1.976.47-.818.706-1.227.742-1.302.047-.1-.01.026.033-.076.033-.077.178-.523.468-1.416.712-2.19 2.88-3.782 5.444-3.782s4.732 1.593 5.444 3.782c.29.893.436 1.34.468 1.416.043.102-.014-.024.034.076.035.075.27.484.741 1.302.34.591.556 1.263.556 1.976 0 2.362-1.853 4.276-4.139 4.276m4.14-9.675c1.034-1.55.982-4.222 0-5.237-1.553-1.123-4.14-.588-5.174 2.084M4.757 9.79c-1.035-1.55-.983-4.222 0-5.237C6.309 3.43 8.896 3.965 9.93 6.637m-.517 6.949v1.069m5.174-1.07v1.07m.517 3.742S15.104 20 12 20s-3.104-1.604-3.104-1.604c0-1.069.495-1.754 1.552-2.138S11.806 14.95 12 14.12c.15.847.462 1.748 1.552 2.138.815.35 1.552 1.07 1.552 2.139M12 18.93c-.581-.311-.79-.556-1.035-1.069h2.07c-.265.559-.492.793-1.035 1.069" /></svg>