<svg id="bed" xmlns="http://www.w3.org/2000/svg" fill="none" viewBox="0 0 24 24"><path stroke="currentColor" stroke-linecap="round" stroke-linejoin="round" stroke-width="1.5" d="M5 18H4a1 1 0 0 1-1-1v-1a3 3 0 0 1 3-3h12a3 3 0 0 1 3 3v1a1 1 0 0 1-1 1h-1M5 18v1.72c0 .154.126.28.28.28v0a.28.28 0 0 0 .273-.213L6 18m-1 0h1m13 0v1.72a.28.28 0 0 1-.28.28v0a.28.28 0 0 1-.273-.213L18 18m1 0h-1m2-7v-1a2 2 0 0 0-2-2H6a2 2 0 0 0-2 2v1m14 1.5a1.5 1.5 0 0 0-1.5-1.5h-2a1.5 1.5 0 0 0-1.5 1.5v0m-2 0A1.5 1.5 0 0 0 9.5 11h-2A1.5 1.5 0 0 0 6 12.5v0M6 18h12" /></svg>