<svg id="birthdayCake" xmlns="http://www.w3.org/2000/svg" fill="none" viewBox="0 0 24 24"><path stroke="currentColor" stroke-linecap="round" stroke-linejoin="round" stroke-width="1.5" d="M2 21h2m18 0h-2M12 9V7m0 2H8m4 0h4M4 15v3m0 3h16M4 21v-3m16-3v3m0 3v-3m0 0-1 .5c-.63.315-1.37.315-2 0v0a2.24 2.24 0 0 0-2 0v0c-.63.315-1.37.315-2 0v0a2.24 2.24 0 0 0-2 0v0c-.63.315-1.37.315-2 0v0a2.24 2.24 0 0 0-2 0v0c-.63.315-1.37.315-2 0L4 18m4-9H5.5A2.5 2.5 0 0 0 3 11.5v.823C3 13.249 3.75 14 4.677 14v0c.213 0 .425-.04.623-.12l1.758-.703a.72.72 0 0 1 .778.16v0a.72.72 0 0 1 .202.391l.298 1.786A1.18 1.18 0 0 0 9.5 16.5v0a1.18 1.18 0 0 0 1.164-.986l.243-1.457c.059-.35.28-.65.598-.81v0c.311-.155.678-.155.99 0l.559.28c.602.3 1.303.33 1.928.08l.404-.161a3 3 0 0 1 2.228 0l1.086.434c.198.08.41.12.623.12v0c.926 0 1.677-.75 1.677-1.677V11.5A2.5 2.5 0 0 0 18.5 9H16M8 9V7m8 2V7m-4-5.5-.791 1.978a.85.85 0 0 0 .188.92v0a.85.85 0 0 0 1.206 0v0a.85.85 0 0 0 .188-.92zm4 0-.791 1.978a.85.85 0 0 0 .188.92v0a.85.85 0 0 0 1.206 0v0a.85.85 0 0 0 .188-.92zm-8 0-.791 1.978a.85.85 0 0 0 .188.92v0a.85.85 0 0 0 1.206 0v0a.85.85 0 0 0 .188-.92z" /></svg>