<svg id="blackIceRoad" xmlns="http://www.w3.org/2000/svg" fill="none" viewBox="0 0 24 24"><path stroke="currentColor" stroke-linecap="round" stroke-linejoin="round" stroke-width="1.5" d="M9 11v1a1 1 0 0 1-1 1v0a1 1 0 0 1-1-1v-1m2 0H7m2 0h6M7 6.5l-.395.593c-.267.4-.4.6-.482.821q-.04.112-.068.225C6 8.37 6 8.61 6 9.09V10a1 1 0 0 0 1 1v0m0-4.5h10m-10 0 .058-.41c.187-1.303.28-1.955.664-2.399a2 2 0 0 1 .43-.373C8.648 3 9.306 3 10.623 3h2.756c1.317 0 1.975 0 2.47.318a2 2 0 0 1 .43.373c.384.444.477 1.096.664 2.4L17 6.5m0 0 .395.593c.267.4.4.6.482.821q.04.112.068.225c.055.23.055.47.055.951V10a1 1 0 0 1-1 1v0m-2 0v1a1 1 0 0 0 1 1v0a1 1 0 0 0 1-1v-1m-2 0h2m-9 4c-5 4 9.5 0 2 6m6-6c-9.5 4.5 6.5 1.5.5 6M8 8.5h1m6 0h1" /></svg>