<svg id="boatFront" xmlns="http://www.w3.org/2000/svg" fill="none" viewBox="0 0 24 24"><path stroke="currentColor" stroke-linecap="round" stroke-linejoin="round" stroke-width="1.5" d="m17 11.929-4.505-1.288c-.219-.062-.328-.093-.44-.1a1 1 0 0 0-.11 0c-.112.007-.221.038-.44.1L7 11.93m10 0c.704.2 1.056.301 1.25.522a1 1 0 0 1 .248.608c.015.293-.167.611-.53 1.247L17 16m0-4.071V10.3c0-.75 0-1.125-.191-1.388a1 1 0 0 0-.221-.221C16.325 8.5 15.95 8.5 15.2 8.5H14m-7 3.429c-.704.2-1.056.301-1.25.522a1 1 0 0 0-.248.608c-.015.293.167.611.53 1.247L7 16m0-4.071V10.3c0-.75 0-1.125.191-1.388a1 1 0 0 1 .221-.221C7.675 8.5 8.05 8.5 8.8 8.5H10m0 0V7.3c0-.75 0-1.125.191-1.388a1 1 0 0 1 .221-.221c.263-.191.638-.191 1.388-.191h.2m-2 3h4m0 0V7.3c0-.75 0-1.125-.191-1.388a1 1 0 0 0-.221-.221C13.325 5.5 12.95 5.5 12.2 5.5H12m0 0V4M4 16.5l2 .5.118.03a8 8 0 0 0 3.764 0L10 17v0l.118-.03A8 8 0 0 1 14 17v0l.118.03A8 8 0 0 0 18 17l2-.5m-14 3 .118.03a8 8 0 0 0 3.764 0L10 19.5v0l.118-.03A8 8 0 0 1 14 19.5v0l.118.03A8 8 0 0 0 18 19.5v0" /></svg>