<svg id="boatSide" xmlns="http://www.w3.org/2000/svg" fill="none" viewBox="0 0 24 24"><path stroke="currentColor" stroke-linecap="round" stroke-linejoin="round" stroke-width="1.5" d="m4 16.5 2 .5.118.03a8 8 0 0 0 3.764 0L10 17v0l.118-.03A8 8 0 0 1 14 17v0l.118.03A8 8 0 0 0 18 17l2-.5m-14 3 .118.03a8 8 0 0 0 3.764 0L10 19.5v0l.118-.03A8 8 0 0 1 14 19.5v0l.118.03A8 8 0 0 0 18 19.5v0M5.5 16l-.868-2.603c-.173-.521-.26-.782-.24-.993a1 1 0 0 1 .59-.818C5.175 11.5 5.45 11.5 6 11.5v0m11 5 1.364-2.274c.64-1.065.958-1.597.824-2.025a1 1 0 0 0-.207-.365c-.298-.336-.919-.336-2.16-.336H16m0 0-1.466-2.198c-.232-.348-.348-.522-.513-.633a1 1 0 0 0-.173-.093c-.184-.076-.393-.076-.811-.076H12.5m3.5 3H6m0 0 .684-2.051c.084-.254.127-.38.191-.483a1 1 0 0 1 .606-.437C7.6 8.5 7.733 8.5 8 8.5v0m0 0V7.128c0-.586 0-.88.12-1.102a1 1 0 0 1 .406-.407c.222-.119.516-.119 1.102-.119v0c.328 0 .492 0 .64.047q.177.056.32.172c.123.097.214.233.395.506L12.5 8.5M8 8.5h4.5" /></svg>