<svg id="bomb" xmlns="http://www.w3.org/2000/svg" fill="none" viewBox="0 0 24 24"><g clip-path="url(#clip0_1556_84715)"><path stroke="currentColor" stroke-linecap="round" stroke-linejoin="round" stroke-width="1.5" d="M9.5 9.5 8 11l1.5 1c-1.065 2.23-.833 5.153 1.015 7A6 6 0 1 0 19 10.515c-1.847-1.848-4.77-2.08-7-1.015L11 8zm0 0-.254-.028A3.325 3.325 0 0 1 6.5 5v0m0-2V2m1.732 2 .866-.5m-5.196 3L4.5 6m.268-2-.866-.5m5.196 3L8.5 6" /></g><defs><clipPath id="clip0_1556_84715"><path fill="white" d="M0 0h24v24H0z" /></clipPath></defs></svg>