<svg id="boneBroken" xmlns="http://www.w3.org/2000/svg" fill="none" viewBox="0 0 24 24"><g clip-path="url(#clip0_1556_83213)"><path stroke="currentColor" stroke-linecap="round" stroke-linejoin="round" stroke-width="1.5" d="m4 13 1 1-.5 2.5L7 17l.5 2.5L10 19l1 1m2-16 1 1 2.5-.5L17 7l2.5.5L19 10l1 1M6.343 6.343V4.93a2.12 2.12 0 0 1 2.121-2.121v0c1.172 0 2.122.95 2.122 2.121v1.586a3 3 0 0 0 .878 2.121l.536.536-.207 1.207-1.207.207-.207 1.207L9.172 12l-.536-.535a3 3 0 0 0-2.121-.88H4.929a2.12 2.12 0 0 1-2.121-2.12v0c0-1.172.95-2.122 2.12-2.122zm11.314 11.314h1.414a2.12 2.12 0 0 0 2.121-2.121v0c0-1.172-.95-2.122-2.12-2.122h-1.587a3 3 0 0 1-2.121-.878L14.828 12l-.207 1.207-1.207.207-.207 1.207-1.207.207.536.536a3 3 0 0 1 .878 2.121v1.586c0 1.172.95 2.121 2.122 2.121v0a2.12 2.12 0 0 0 2.12-2.12z" /></g><defs><clipPath id="clip0_1556_83213"><path fill="white" d="M0 0h24v24H0z" /></clipPath></defs></svg>