<svg id="bong" xmlns="http://www.w3.org/2000/svg" fill="none" viewBox="0 0 24 24"><path stroke="currentColor" stroke-linecap="round" stroke-linejoin="round" stroke-width="1.5" d="M16 12.5a9 9 0 0 0-1.468-1.186c-.318-.206-.532-.553-.532-.932V3.708a3 3 0 0 1 .317-1.341L14.5 2h-5l.183.367A3 3 0 0 1 10 3.708v6.674c0 .379-.213.725-.53.93C8.381 12.019 6 13.915 6 17c0 3.034 1.726 4.342 2.56 4.797.282.154.604.203.927.203h5.026c.323 0 .645-.049.928-.203C16.274 21.342 18 20.034 18 17c0-2-1-3.5-2-4.5m0 0 1.5-1.5m0 0H19l1.5-1.5L19 8l-1.5 1.5zM8 16l.06-.015a8 8 0 0 1 3.88 0l.12.03a8 8 0 0 0 3.88 0L16 16" /></svg>