<svg id="bookOpen" xmlns="http://www.w3.org/2000/svg" fill="none" viewBox="0 0 24 24"><path stroke="currentColor" stroke-linecap="round" stroke-linejoin="round" stroke-width="1.5" d="M12 9v.01m0 2.49v.01m0 2.48V14m0 2.49v.01m-.521 2.202c-1.947-1.057-3.914-1.488-6.138-1.057-.67.13-1.341-.35-1.341-1.032V6.72a.96.96 0 0 1 .69-.933c2.402-.675 4.755-.656 6.543.573.455.312 1.08.312 1.534 0 1.788-1.23 4.141-1.248 6.544-.573A.96.96 0 0 1 20 6.72v9.892c0 .682-.67 1.162-1.34 1.032-2.225-.43-4.192 0-6.139 1.057a1.1 1.1 0 0 1-1.042 0" /></svg>