<svg id="books" xmlns="http://www.w3.org/2000/svg" fill="none" viewBox="0 0 24 24"><path stroke="currentColor" stroke-linecap="round" stroke-linejoin="round" stroke-width="1.5" d="M5 17v2a1 1 0 0 0 1 1h3m-4-3h4m-4 0V7m0 0V5a1 1 0 0 1 1-1h3M5 7h4m0 10v3m0-3V7m0 10h4M9 4v3m0-3h3a1 1 0 0 1 1 1v2M9 7h4M9 20h3a1 1 0 0 0 1-1v-2m0 0V7m2.446 10.043.348 1.97a1 1 0 0 0 1.158.811l1.97-.347a1 1 0 0 0 .81-1.159l-.346-1.97m-3.94.695 3.94-.694m-3.94.694L13.71 7.195m0 0-.348-1.97a1 1 0 0 1 .812-1.158l1.97-.347a1 1 0 0 1 1.158.811l.347 1.97m-3.94.694 3.94-.694m1.736 9.848L17.65 6.5" /></svg>