<svg id="bookBookmark" xmlns="http://www.w3.org/2000/svg" fill="none" viewBox="0 0 24 24"><path stroke="currentColor" stroke-linecap="round" stroke-linejoin="round" stroke-width="1.5" d="M18 20h-1M6 15.5V5.477C6 4.661 6.661 4 7.477 4h.06c.304 0 .605.071.878.207v0c.368.185.802.185 1.17 0v0A2 2 0 0 1 10.463 4H12m5 13h1V4h-2m1 13h-6.536c-.305 0-.606.071-.879.207v0a1.31 1.31 0 0 1-1.17 0l-.146-.073A1.3 1.3 0 0 0 7.7 17h-.2A1.5 1.5 0 0 0 6 18.5v0A1.5 1.5 0 0 0 7.5 20H17m0-3-.184.551a3 3 0 0 0 0 1.898L17 20M12 4v5l2-1.5L16 9V4m-4 0h4" /></svg>