<svg id="boots" xmlns="http://www.w3.org/2000/svg" fill="none" viewBox="0 0 24 24"><path stroke="currentColor" stroke-linecap="round" stroke-linejoin="round" stroke-width="1.5" d="M1 4c.5.5 1 1 1 2m0 0 .121-.121A3 3 0 0 1 4.243 5H8M2 6v4m0 0h3a3 3 0 0 0 3-3V5m-6 5v7M8 5h1.092c1.088 0 2.004.814 2.13 1.895v0a7.866 7.866 0 0 0 7.42 6.937l1.01.05A2.47 2.47 0 0 1 22 16.352V17M2 17v2a1 1 0 0 0 1 1h4.5a.5.5 0 0 0 .5-.5v0a.5.5 0 0 1 .5-.5h.914c.375 0 .735.149 1 .414l.086.086c.32.32.754.5 1.207.5H21a1 1 0 0 0 1-1v-2M2 17h20" /></svg>