<svg id="bowTie" xmlns="http://www.w3.org/2000/svg" fill="none" viewBox="0 0 24 24"><path stroke="currentColor" stroke-linecap="round" stroke-linejoin="round" stroke-width="1.5" d="M10 10c1.5-.5 2.5-.5 4 0m-4 0a4.47 4.47 0 0 0 0 4v0m0-4L4.713 6.696c-.148-.093-.222-.14-.232-.145a.986.986 0 0 0-1.467 1.152L3.11 8v0M14 10a4.47 4.47 0 0 1 0 4v0m0-4 3.201-2c1.679-1.05 2.518-1.574 2.989-1.386a.93.93 0 0 1 .38.268c.335.38.106 1.415-.35 3.485-.135.61-.22 1.176-.22 1.633 0 1.028.428 2.604.889 4M14 14c-1.5.5-2.5.5-4 0m4 0 5.287 3.304c.148.093.222.14.232.145a.986.986 0 0 0 1.467-1.152L20.89 16v0M10 14l-3.201 2c-1.679 1.05-2.518 1.574-2.989 1.386a.93.93 0 0 1-.38-.268c-.335-.38-.106-1.415.35-3.484.135-.61.22-1.177.22-1.634 0-1.028-.428-2.604-.889-4m17.778 8c-1.13-1.333-3.289-4.4-2.889-6M3.111 8C4.241 9 6.4 11.6 6 14" /></svg>