<svg id="box" xmlns="http://www.w3.org/2000/svg" fill="none" viewBox="0 0 24 24"><path stroke="currentColor" stroke-linecap="round" stroke-linejoin="round" stroke-width="1.5" d="M13.5 4h2.181c1.088 0 1.632 0 2.074.237q.219.116.4.283c.372.337.554.85.918 1.874l.51 1.436c.185.518.278.778.333 1.046q.028.133.047.27c.037.27.037.545.037 1.096V16.4c0 1.5 0 2.25-.382 2.776q-.187.256-.442.442C18.65 20 17.9 20 16.4 20H7.6c-1.5 0-2.25 0-2.776-.382a2 2 0 0 1-.442-.442C4 18.65 4 17.9 4 16.4v-6.158c0-.55 0-.826.037-1.097a4 4 0 0 1 .047-.27c.055-.267.148-.527.332-1.045l.51-1.436c.365-1.025.547-1.537.918-1.874a2 2 0 0 1 .401-.283C6.687 4 7.231 4 8.32 4h2.18m3 0 .5 5m-.5-5h-3M14 9h-4m4 0v1.2c0 .75 0 1.125-.191 1.388a1 1 0 0 1-.221.221C13.325 12 12.95 12 12.2 12h-.4c-.75 0-1.125 0-1.388-.191a1 1 0 0 1-.221-.221C10 11.325 10 10.95 10 10.2V9m4 0h3.5M10 9l.5-5M10 9H6.5m.5 8h5" /></svg>