<svg id="boxDamaged" xmlns="http://www.w3.org/2000/svg" fill="none" viewBox="0 0 24 24"><path stroke="currentColor" stroke-linecap="round" stroke-linejoin="round" stroke-width="1.5" d="M13.5 4h2.187c1.082 0 1.623 0 2.063.235q.223.118.41.288c.368.337.55.846.912 1.866v0c.406 1.142.609 1.713.637 2.303q.015.3-.015.6c-.06.588-.294 1.147-.76 2.266l-1.121 2.691a1.78 1.78 0 0 0 .05 1.478v0c.737 1.473-.752 3.07-2.272 2.436l-.933-.389-.092-.037a2 2 0 0 0-1.258-.064l-4.835 1.209c-1.817.454-2.725.681-3.399.33a2 2 0 0 1-.57-.445C4 18.198 4 17.262 4 15.389v-5.147c0-.55 0-.826.037-1.097a4 4 0 0 1 .047-.27c.055-.267.148-.527.332-1.045l.51-1.436c.365-1.025.547-1.537.918-1.874a2 2 0 0 1 .401-.283C6.687 4 7.231 4 8.32 4h2.18m3 0 .5 5m-.5-5h-3M14 9h-4m4 0v1.2c0 .75 0 1.125-.191 1.388a1 1 0 0 1-.221.221C13.325 12 12.95 12 12.2 12h-.4c-.75 0-1.125 0-1.388-.191a1 1 0 0 1-.221-.221C10 11.325 10 10.95 10 10.2V9m4 0h3.5M10 9l.5-5M10 9H6.5m.5 8 1.24-.62c.336-.168.504-.252.683-.303q.09-.025.18-.043C9.286 16 9.474 16 9.85 16h1.65" /></svg>