<svg id="boxerTrunks" xmlns="http://www.w3.org/2000/svg" fill="none" viewBox="0 0 24 24"><path stroke="currentColor" stroke-linecap="round" stroke-linejoin="round" stroke-width="1.5" d="M11.5 16h1m-1 0-.473-.379c-.884-.706-1.325-1.06-1.604-1.527a3 3 0 0 1-.232-.483C9 13.1 9 12.536 9 11.405V8m2.5 8-.37 1.6c-.159.691-.238 1.037-.469 1.247a1 1 0 0 1-.25.167c-.282.132-.632.073-1.331-.044l-4.18-.7c-.678-.113-1.017-.17-1.238-.379a1 1 0 0 1-.182-.23c-.151-.265-.127-.608-.078-1.294L4 8m8.5 8 .473-.379c.884-.706 1.326-1.06 1.604-1.527a3 3 0 0 0 .232-.483C15 13.1 15 12.536 15 11.405V8m-2.5 8 .37 1.6c.159.691.239 1.037.469 1.247a1 1 0 0 0 .25.167c.282.132.632.073 1.331-.044l4.18-.7c.678-.113 1.017-.17 1.238-.379a1 1 0 0 0 .182-.23c.151-.265.127-.608.078-1.294L20 8M4 8V6.8c0-.75 0-1.125.191-1.388a1 1 0 0 1 .221-.221C4.675 5 5.05 5 5.8 5h12.4c.75 0 1.125 0 1.388.191a1 1 0 0 1 .221.221C20 5.675 20 6.05 20 6.8V8M4 8h5m11 0h-5M9 8h6" /></svg>