<svg id="boxIsometric" xmlns="http://www.w3.org/2000/svg" fill="none" viewBox="0 0 24 24"><path stroke="currentColor" stroke-linecap="round" stroke-linejoin="round" stroke-width="1.5" d="M12 12v6m0-6L6.5 9m5.5 3 4-2.18M6.5 12.5l3 1.5m8-5-1.5.82m0 0V12m0-2.18L8 5.25m0 0-1.247.702c-1.19.67-1.786 1.004-2.168 1.523a3 3 0 0 0-.32.547C4 8.61 4 9.292 4 10.658v2.684c0 1.365 0 2.048.265 2.636a3 3 0 0 0 .32.547c.382.52.977.854 2.168 1.523l2.6 1.463c1.146.645 1.72.967 2.34 1.031q.307.032.614 0c.62-.064 1.194-.386 2.34-1.031l2.6-1.463c1.19-.67 1.786-1.004 2.168-1.523q.19-.256.32-.547c.265-.588.265-1.27.265-2.636v-2.684c0-1.365 0-2.048-.265-2.636a3 3 0 0 0-.32-.547c-.382-.52-.977-.854-2.168-1.523l-2.6-1.463c-1.146-.645-1.72-.967-2.34-1.031a3 3 0 0 0-.614 0c-.62.064-1.194.386-2.34 1.031z" /></svg>