<svg id="boxOpenedIsometric" xmlns="http://www.w3.org/2000/svg" fill="none" viewBox="0 0 24 24"><path stroke="currentColor" stroke-linecap="round" stroke-linejoin="round" stroke-width="1.5" d="M12 12.5V19m0-6.5-2.467 2.957a1 1 0 0 1-1.026.02L2.452 11.83a1 1 0 0 1-.437-1.23c.059-.153-.088.228.037.016.023-.041.105-.168.132-.206.141-.201.322-.386.684-.755L4 8.5m8 4 2.5 3a1 1 0 0 0 1.01-.023l6.117-3.632a1 1 0 0 0 .403-1.23c-.06-.146.089.221-.035.016a5 5 0 0 0-.131-.199c-.14-.194-.317-.373-.672-.73L20 8.5m-8 4-8-4m8 4 8-4M4 12.714v1.628c0 1.365 0 2.048.265 2.636a3 3 0 0 0 .32.547c.382.52.977.854 2.168 1.523l2.6 1.463c1.146.645 1.72.967 2.34 1.031q.307.032.614 0c.62-.064 1.194-.386 2.34-1.031l2.6-1.463c1.19-.67 1.786-1.004 2.168-1.523q.19-.256.32-.547c.265-.588.265-1.27.265-2.636v-1.496M4 8.5 2.868 7.345c-.362-.369-.543-.554-.684-.755a5 5 0 0 1-.132-.206c-.125-.212.022.169-.037.017a1 1 0 0 1 .437-1.23l5.029-2.874a1 1 0 0 1 1.026.02L12 4.5m-8 4 8-4m0 0 3.493-2.183a1 1 0 0 1 1.026-.02l5.029 2.873a1 1 0 0 1 .437 1.23c-.059.153.088-.228-.037-.016a5 5 0 0 1-.132.206c-.141.201-.322.386-.684.755L20 8.5m-8-4 8 4" /></svg>