<svg id="boxOpened" xmlns="http://www.w3.org/2000/svg" fill="none" viewBox="0 0 24 24"><path stroke="currentColor" stroke-linecap="round" stroke-linejoin="round" stroke-width="1.5" d="M20 9v7.4c0 1.5 0 2.25-.382 2.776q-.187.256-.442.442C18.65 20 17.9 20 16.4 20H7.6c-1.5 0-2.25 0-2.776-.382a2 2 0 0 1-.442-.442C4 18.65 4 17.9 4 16.4v-6.158c0-.55 0-.826.037-1.097q.019-.135.047-.27c.055-.267.148-.527.332-1.045L5.28 5.4c.218-.613.327-.92.52-1.17a2 2 0 0 1 .209-.233c.228-.217.522-.358 1.109-.638L11 1.5v6L6.5 9M20 9l-1.778-5M20 9l3-4-3-4-1.778 3m0 0H11m3.5 5H17M7 17h5" /></svg>