<svg id="brain" xmlns="http://www.w3.org/2000/svg" fill="none" viewBox="0 0 24 24"><path stroke="currentColor" stroke-linecap="round" stroke-linejoin="round" stroke-width="1.5" d="M12.002 6.18c0 1.256-.947 2.217-2.184 2.217 1.237 0 2.184.96 2.184 2.217m0-4.434c0 1.256.946 2.217 2.184 2.217-1.238 0-2.184.96-2.184 2.217m0-4.434c0-2.428-3.467-3.042-4.223-.74-3.163 0-5.061 3.953-2.766 6.283m6.989-5.543c0-2.428 3.466-3.042 4.222-.74 3.088 0 5.087 3.928 2.767 6.283m-13.978 0a3.72 3.72 0 0 0 2.62 1.109m-2.62-1.109c-1.268.805-1.382 2.791-.073 3.622-1.155 2.931 1.65 4.842 4.06 4.64 0 0 2 .015 3-.985m.002-8.386V14m6.989-2.277a3.72 3.72 0 0 1-2.621 1.109m2.62-1.109c1.269.805 1.382 2.791.074 3.622 1.156 2.935-1.648 4.842-4.057 4.64 0 0-2.007.015-3.007-.985m.002-5c0 1.257-.947 2.217-2.184 2.217 1.237 0 2.184.961 2.184 2.218m0-4.435c0 1.257.946 2.217 2.184 2.217-1.238 0-2.184.961-2.184 2.218M12 19l.002-.565" /></svg>