<svg id="brightnessNight" xmlns="http://www.w3.org/2000/svg" fill="none" viewBox="0 0 24 24"><path stroke="currentColor" stroke-linecap="round" stroke-linejoin="round" stroke-width="1.5" d="M8 17.985H7a1 1 0 0 1-1-1V14.9a1 1 0 0 0-.293-.708L4.21 12.694a1 1 0 0 1 .002-1.416l1.494-1.485A1 1 0 0 0 6 9.084V6.985a1 1 0 0 1 1-1h2.1a1 1 0 0 0 .708-.293l1.485-1.485a1 1 0 0 1 1.414 0l1.485 1.485a1 1 0 0 0 .707.293H17a1 1 0 0 1 1 1v2.086a1 1 0 0 0 .293.707l1.5 1.5a1 1 0 0 1 0 1.414l-1.5 1.5A1 1 0 0 0 18 14.9v2.086a1 1 0 0 1-1 1h-2.086a1 1 0 0 0-.707.293l-1.5 1.5a1 1 0 0 1-1.414 0l-1.5-1.5a1 1 0 0 0-.707-.293H8.01M16 12a4 4 0 0 1-7.874 1s2.374.5 3.874-1 1-3.874 1-3.874c1.725.444 3 2.01 3 3.874" /></svg>