<svg id="brightnessSunny" xmlns="http://www.w3.org/2000/svg" fill="none" viewBox="0 0 24 24"><path stroke="currentColor" stroke-linecap="round" stroke-linejoin="round" stroke-width="1.5" d="M7.01 18.485h1.576a1 1 0 0 1 .707.293l1.5 1.5a1 1 0 0 0 1.414 0l1.5-1.5a1 1 0 0 1 .707-.293H16.5a1 1 0 0 0 1-1V15.4a1 1 0 0 1 .293-.708l1.5-1.5a1 1 0 0 0 0-1.414l-1.5-1.5a1 1 0 0 1-.293-.707V7.485a1 1 0 0 0-1-1h-2.1a1 1 0 0 1-.708-.293l-1.485-1.485a1 1 0 0 0-1.414 0L9.308 6.192a1 1 0 0 1-.707.293H6.5a1 1 0 0 0-1 1v2.099a1 1 0 0 1-.295.71l-1.494 1.484a1 1 0 0 0-.002 1.416l1.498 1.498a1 1 0 0 1 .293.707v2.086a1 1 0 0 0 1 1H7m7.5-6a3 3 0 1 1-6 0 3 3 0 0 1 6 0" /></svg>