<svg id="brightnessDark" xmlns="http://www.w3.org/2000/svg" fill="none" viewBox="0 0 24 24"><path stroke="currentColor" stroke-linecap="round" stroke-linejoin="round" stroke-width="1.5" d="M12 11.985v3a3 3 0 0 0 0-6v3.005m2.9-6.005H17a1 1 0 0 1 1 1v2.086a1 1 0 0 0 .293.707l1.5 1.5a1 1 0 0 1 0 1.414l-1.5 1.5A1 1 0 0 0 18 14.9v2.086a1 1 0 0 1-1 1h-2.086a1 1 0 0 0-.707.293l-1.5 1.5a1 1 0 0 1-1.414 0l-1.5-1.5a1 1 0 0 0-.707-.293H7a1 1 0 0 1-1-1v-2.087a1 1 0 0 0-.29-.705l-1.492-1.5a1 1 0 0 1 .002-1.413l1.487-1.487A1 1 0 0 0 6 9.086v-2.1a1 1 0 0 1 1-1h2.1a1 1 0 0 0 .708-.294l1.485-1.485a1 1 0 0 1 1.414 0l1.485 1.485a1 1 0 0 0 .707.293" /></svg>