<svg id="brightnessAuto" xmlns="http://www.w3.org/2000/svg" fill="none" viewBox="0 0 24 24"><path stroke="currentColor" stroke-linecap="round" stroke-linejoin="round" stroke-width="1.5" d="m9 15 1.286-3M15 15l-1.286-3m-3.428 0L12 8l1.714 4m-3.428 0h3.428M14.9 5.985H17a1 1 0 0 1 1 1v2.086a1 1 0 0 0 .293.707l1.5 1.5a1 1 0 0 1 0 1.414l-1.5 1.5A1 1 0 0 0 18 14.9v2.086a1 1 0 0 1-1 1h-2.086a1 1 0 0 0-.707.293l-1.5 1.5a1 1 0 0 1-1.414 0l-1.5-1.5a1 1 0 0 0-.707-.293H7a1 1 0 0 1-1-1v-2.084a1 1 0 0 0-.295-.709l-1.494-1.485a1 1 0 0 1-.002-1.416l1.498-1.498A1 1 0 0 0 6 9.086v-2.1a1 1 0 0 1 1-1h2.1a1 1 0 0 0 .708-.294l1.485-1.485a1 1 0 0 1 1.414 0l1.485 1.485a1 1 0 0 0 .707.293" /></svg>