<svg id="broomSweeping" xmlns="http://www.w3.org/2000/svg" fill="none" viewBox="0 0 24 24"><path stroke="currentColor" stroke-linecap="round" stroke-linejoin="round" stroke-width="1.5" d="M19 5c-1 2.5-2 4.997-4.312 7l-.276.248M9.5 11.164c-1.322.484-2.75.874-4.354 1.196-1.149.23-1.934 1.367-1.451 2.434q.296.655.655 1.206m5.15-4.836 5.87 5.87m-5.87-5.87q.686-.25 1.34-.537c.798-.35 1.739-.212 2.355.405l1.217 1.216m.958 4.787c-.39.67-1.081 1.373-1.981 2.08a3.84 3.84 0 0 1-2.74.82c-1.997-.197-3.65-.89-5.446-2.834m10.167-.066q.385-.659.71-1.302c.374-.733.2-1.616-.381-2.198l-1.287-1.287M4.35 16c.883 0 2.65 0 5.15-1-2 1.5-3.5 2-4.297 2.101M4.35 16q.394.608.853 1.101" /></svg>