<svg id="brownBagLunch" xmlns="http://www.w3.org/2000/svg" fill="none" viewBox="0 0 24 24"><path stroke="currentColor" stroke-linecap="round" stroke-linejoin="round" stroke-width="1.5" d="m18.5 6-.258 1.03A1.28 1.28 0 0 1 17 8v0m0 0 .318-1.272a3 3 0 0 0 0-1.456L17 4m0 4-.76.07a52.4 52.4 0 0 1-9.48 0v0a.654.654 0 0 1-.575-.811l.141-.564a2.9 2.9 0 0 0 0-1.39l-.109-.436a.636.636 0 0 1 .675-.788v0c3.066.279 6.15.279 9.216 0L17 4m0 0h1a1 1 0 0 1 1 1v15h-4m0 0v-5.14a3 3 0 0 1 .456-1.59l1.588-2.54a3 3 0 0 0 .456-1.59V9M15 20H5v-4.873a3 3 0 0 1 .742-1.975l2.016-2.304A3 3 0 0 0 8.5 8.873V8.5M8 14h4" /></svg>