<svg id="bug" xmlns="http://www.w3.org/2000/svg" fill="none" viewBox="0 0 24 24"><path stroke="currentColor" stroke-linecap="round" stroke-linejoin="round" stroke-width="1.5" d="M6 12c0 1.178.178 2.236.5 3.25M6 12H3m3 0c0-1.456.272-2.886.75-4.075M6.5 15.25 4.5 17m2-1.75c2.004 6.333 8.996 6.333 11 0M6.75 7.925 4 5.5m2.75 2.425c.789-1.962 2.138-3.435 3.75-4.008m0 0L9 2.5m1.5 1.417a4.53 4.53 0 0 1 3 0M18 12a10.6 10.6 0 0 1-.5 3.25M18 12h3m-3 0c0-1.456-.272-2.886-.75-4.075m.25 7.325 2 1.75m-2.25-9.075L20 5.5m-2.75 2.425c-.789-1.962-2.138-3.435-3.75-4.008m0 0L15 2.5M12 10c-2.5 0-4.5-1.375-4.5-1.375M12 10c2.5 0 4.5-1.375 4.5-1.375M12 10v7" /></svg>