<svg id="buildings1" xmlns="http://www.w3.org/2000/svg" fill="none" viewBox="0 0 24 24"><path stroke="currentColor" stroke-linecap="round" stroke-linejoin="round" stroke-width="1.5" d="M20 21V9.5c0-1.404 0-2.107-.337-2.611a2 2 0 0 0-.552-.552C18.607 6 17.904 6 16.5 6v0c-1.405 0-2.107 0-2.611.337a2 2 0 0 0-.552.552C13 7.393 13 8.096 13 9.5V21m7 0h-7m7 0h1M4 21V7.6c0-1.5 0-2.25.382-2.776a2 2 0 0 1 .442-.442C5.35 4 6.1 4 7.6 4h1.8c1.5 0 2.25 0 2.776.382q.256.187.442.442C13 5.35 13 6.1 13 7.6V21m-9 0h9m-9 0H3M7 7v1m3-1v1m-3 3v1m3-1v1m-3 3v1m3-1v1m6-7h1m-1 4h1m-1 4h1" /></svg>