<svg id="buildings2" xmlns="http://www.w3.org/2000/svg" fill="none" viewBox="0 0 24 24"><path stroke="currentColor" stroke-linecap="round" stroke-linejoin="round" stroke-width="1.5" d="M3 21h1m17 0h-2M8 21h7m-7 0v-9m0 9H4m11 0h4m-4 0V8m4 13v-9.4c0-1.5 0-2.25-.382-2.776a2 2 0 0 0-.442-.442C17.65 8 16.9 8 15.4 8H15m-4.5-1h2m-2 4h2m-2 4h2M15 8v-.5c0-1.404 0-2.107-.337-2.611a2 2 0 0 0-.552-.552C13.607 4 12.904 4 11.5 4v0c-1.405 0-2.107 0-2.611.337a2 2 0 0 0-.552.552C8 5.393 8 6.096 8 7.5V12m0 0h-.4c-1.5 0-2.25 0-2.776.382q-.256.187-.442.442C4 13.35 4 14.1 4 15.6V21" /></svg>