<svg id="burgerCombo" xmlns="http://www.w3.org/2000/svg" fill="none" viewBox="0 0 24 24"><path stroke="currentColor" stroke-linecap="round" stroke-linejoin="round" stroke-width="1.5" d="m8.86 14-1.5.5m1.5-.5a3 3 0 0 1 3-3h3a3 3 0 0 1 3 3v0m-9 0 2.91.323c.706.079 1.059.118 1.413.126q.177.003.354 0c.354-.008.707-.047 1.413-.126L17.86 14m1.5.5-1.5-.5m-11.5 5.5h-.465c-.648 0-.972 0-1.218-.155a1 1 0 0 1-.214-.183c-.192-.217-.243-.537-.346-1.178L3 11m4.36-4-.066-.396A2.236 2.236 0 0 1 9.5 4v0M7.36 7h.5a4 4 0 0 1 3 1.354M7.36 7C5.15 7 3 8.79 3 11m0 0h3.86m1.5 6.75A2.25 2.25 0 0 0 10.61 20h5.5a2.25 2.25 0 0 0 2.25-2.25v0a.75.75 0 0 0-.75-.75h-8.5a.75.75 0 0 0-.75.75" /></svg>