<svg id="bus" xmlns="http://www.w3.org/2000/svg" fill="none" viewBox="0 0 24 24"><path stroke="currentColor" stroke-linecap="round" stroke-linejoin="round" stroke-width="1.5" d="M9.5 17.5v1A1.5 1.5 0 0 1 8 20v0a1.5 1.5 0 0 1-1.5-1.5v-1m3 0h5m-5 0h-3m-1-5h13m-13 0v4a1 1 0 0 0 1 1v0m-1-5V7m13 5.5v4a1 1 0 0 1-1 1v0m1-5V7m-4 10.5v1A1.5 1.5 0 0 0 16 20v0a1.5 1.5 0 0 0 1.5-1.5v-1m-3 0h3m-3-2.5h1m-7 0h1M8 4a2.5 2.5 0 0 0-2.5 2.5V7M8 4l.18.538c.35 1.052.526 1.579.9 1.926a2 2 0 0 0 .403.292C9.931 7 10.486 7 11.595 7h.81c1.11 0 1.664 0 2.112-.244q.22-.12.404-.292c.373-.347.549-.874.9-1.926L16 4M8 4h8m0 0a2.5 2.5 0 0 1 2.5 2.5V7m0 0A2.5 2.5 0 0 1 21 9.5V11M3 11V9.5A2.5 2.5 0 0 1 5.5 7v0" /></svg>