<svg id="butterfly" xmlns="http://www.w3.org/2000/svg" fill="none" viewBox="0 0 24 24"><path stroke="currentColor" stroke-linecap="round" stroke-linejoin="round" stroke-width="1.5" d="M12 7.943v3.67m0-3.67 1-1.573m-1 1.573L11 6.37m1 11.009v-3.67m0-2.097C10.167 8.292 6.5 2.7 4 4.273c1.5 1.048 0 6.815 2.5 7.864m5.5-.525v2.097m0-2.097c1.833-3.32 5.5-8.912 8-7.339-1.5 1.048 0 6.815-2.5 7.864m-11 0c-1 .524-2 5.242 2 7.863 1-1.573 3-3.67 3.5-6.29m-5.5-1.574c.333-.378 1.3-1.036 2.5-.636m3 2.21c.5 2.62 2.5 4.717 3.5 6.29 4-2.621 3-7.34 2-7.863m0 0c-.446-.425-1.571-1.146-2.5-.637" /></svg>