<svg id="cakeSlice" xmlns="http://www.w3.org/2000/svg" fill="none" viewBox="0 0 24 24"><path stroke="currentColor" stroke-linecap="round" stroke-linejoin="round" stroke-width="1.5" d="M20 12v3m0-3s0-3-2-5c-.974-.974-2.185-1.474-3.172-1.73-.492-.128-.738-.192-1.29-.13-.131.015-.41.073-.537.11-.531.162-.842.404-1.463.888L5.39 10.919c-.606.47-.908.706-1.1 1.02a2 2 0 0 0-.159.327C4 12.61 4 12.994 4 13.761V15m16-3H7m13 3c0 1.87 0 2.804-.402 3.5a3 3 0 0 1-1.098 1.098C17.804 20 16.87 20 15 20H9c-1.87 0-2.804 0-3.5-.402A3 3 0 0 1 4.402 18.5C4 17.804 4 16.87 4 15v0m16 0-2 1c-.643.322-.965.483-1.298.563a3 3 0 0 1-1.404 0c-.333-.08-.655-.241-1.298-.563v0c-.643-.322-.965-.482-1.298-.563a3 3 0 0 0-1.404 0c-.333.08-.655.241-1.298.563v0c-.643.322-.965.483-1.298.563a3 3 0 0 1-1.404 0c-.333-.08-.655-.241-1.298-.563l-2-1" /></svg>