<svg id="calendarDateRange" xmlns="http://www.w3.org/2000/svg" fill="none" viewBox="0 0 24 24"><path stroke="currentColor" stroke-linecap="round" stroke-linejoin="round" stroke-width="1.5" d="M4 9c0-.93 0-1.395.102-1.776a3 3 0 0 1 2.122-2.122C6.605 5 7.07 5 8 5v0M4 9v4.6c0 2.25 0 3.375.573 4.163.185.255.409.479.664.664C6.025 19 7.15 19 9.4 19h5.2c2.25 0 3.375 0 4.163-.573q.384-.28.664-.664C20 16.975 20 15.85 20 13.6V9M4 9h16m0 0c0-.93 0-1.395-.102-1.776a3 3 0 0 0-2.122-2.122C17.396 5 16.93 5 16 5v0M8 5V3m0 2h8m0 0V3m-9 9h10M7 15h4" /></svg>