<svg id="calendarHidden" xmlns="http://www.w3.org/2000/svg" fill="none" viewBox="0 0 24 24"><path stroke="currentColor" stroke-linecap="round" stroke-linejoin="round" stroke-width="1.5" d="M4 9c0-.93 0-1.395.102-1.776a3 3 0 0 1 2.122-2.122C6.605 5 7.07 5 8 5v0M4 9v4.6c0 2.25 0 3.375.573 4.163.185.255.409.479.664.664C6.025 19 7.15 19 9.4 19h3.1M4 9h16m0 0c0-.93 0-1.395-.102-1.776a3 3 0 0 0-2.122-2.122C17.396 5 16.93 5 16 5v0m4 4v2.5M8 5V3m0 2h8m0 0V3m5.16 13.266L22 17l-.84.734c-1.12.98-1.68 1.47-2.31 1.656a3 3 0 0 1-.35.082m-3.66-1.738L14 17l.84-.734c1.12-.98 1.68-1.47 2.31-1.656q.173-.052.35-.082M15.5 20l5-6" /></svg>