<svg id="calendarShare" xmlns="http://www.w3.org/2000/svg" fill="none" viewBox="0 0 24 24"><path stroke="currentColor" stroke-linecap="round" stroke-linejoin="round" stroke-width="1.5" d="M4 9c0-.93 0-1.395.102-1.776a3 3 0 0 1 2.122-2.122C6.605 5 7.07 5 8 5v0M4 9v4.6c0 2.25 0 3.375.573 4.163.185.255.409.479.664.664C6.025 19 7.15 19 9.4 19H12M4 9h16m0 0c0-.93 0-1.395-.102-1.776a3 3 0 0 0-2.122-2.122C17.396 5 16.93 5 16 5v0m4 4v2M8 5V3m0 2h8m0 0V3m.688 15.313c.55 1.652.826 2.479 1.296 2.638a1 1 0 0 0 .607.011c.476-.142.782-.957 1.394-2.588l.625-1.666c.527-1.406.79-2.11.53-2.527a1 1 0 0 0-.32-.321c-.419-.26-1.122.003-2.528.53l-1.666.625c-1.63.612-2.446.918-2.588 1.394a1 1 0 0 0 .01.607c.16.47.987.746 2.64 1.297m0 0L20.5 14.5" /></svg>