<svg id="calendarDate" xmlns="http://www.w3.org/2000/svg" fill="none" viewBox="0 0 24 24"><path stroke="currentColor" stroke-linecap="round" stroke-linejoin="round" stroke-width="1.5" d="M4 9c0-.93 0-1.395.102-1.776a3 3 0 0 1 2.122-2.122C6.605 5 7.07 5 8 5v0M4 9v4.6c0 2.25 0 3.375.573 4.163.185.255.409.479.664.664C6.025 19 7.15 19 9.4 19h5.2c2.25 0 3.375 0 4.163-.573q.384-.28.664-.664C20 16.975 20 15.85 20 13.6V9M4 9h16m0 0c0-.93 0-1.395-.102-1.776a3 3 0 0 0-2.122-2.122C17.396 5 16.93 5 16 5v0M8 5V3m0 2h8m0 0V3" /><path fill="currentColor" d="M9.972 17.088q-.6 0-1.104-.2a2.4 2.4 0 0 1-.856-.584l.912-.896q.144.208.424.344.288.128.6.128.264 0 .464-.088a.75.75 0 0 0 .32-.264.72.72 0 0 0 .12-.416q0-.24-.12-.408a.72.72 0 0 0-.344-.264 1.4 1.4 0 0 0-.52-.088 3 3 0 0 0-.336.024q-.168.016-.272.056l.624-.784q.255-.064.464-.104.216-.048.384-.048a1.47 1.47 0 0 1 1.32.784q.2.368.2.872 0 .576-.28 1.016a1.9 1.9 0 0 1-.8.68q-.511.24-1.2.24m-.712-2.656v-.784l1.32-1.544h1.552l-1.36 1.544zm-.856-1.912v-1.192h3.728v.776l-1.08.416zM14.167 17v-5.672h1.416V17zm-1.08-4.48v-1.192h2.416v1.192z" /></svg>