<svg id="calendarFavorites" xmlns="http://www.w3.org/2000/svg" fill="none" viewBox="0 0 24 24"><path fill="currentColor" d="M8.75 3a.75.75 0 0 0-1.5 0zm8 0a.75.75 0 0 0-1.5 0zM14 19.75a.75.75 0 0 0 0-1.5zm5.25-8.25a.75.75 0 0 0 1.5 0zm-3.81 2.94.53.53zm2.56.439-.53.53.53.53.53-.53zm2.56-.44.531-.53zm0 2.122.531.53zM18 19.12l-.53.53a.75.75 0 0 0 1.06 0zm-2.56-2.56.53-.53zm4.458-9.337-.725.194zm-2.122-2.122.195-.724zM4.573 17.763l-.607.441zm.664.664-.441.607zM3.25 9v4.6h1.5V9zm.75.75h16v-1.5H4zM8.75 5V3h-1.5v2zM8 5.75h8v-1.5H8zM16.75 5V3h-1.5v2zM14 18.25H9.4v1.5H14zM19.25 9v2.5h1.5V9zm1.841 8.091a2.25 2.25 0 0 0 0-3.182l-1.06 1.06a.75.75 0 0 1 0 1.061zm-6.182-3.182a2.25 2.25 0 0 0 0 3.182l1.06-1.06a.75.75 0 0 1 0-1.061zm3.621 5.743 2.561-2.561-1.06-1.06-2.561 2.56zm-3.62-2.562 2.56 2.56 1.061-1.06-2.56-2.56zm3.621-2.743c-.376-.376-.902-.815-1.524-1.003a2 2 0 0 0-1.068-.039c-.38.093-.725.3-1.029.603l1.06 1.06c.14-.14.25-.187.324-.205a.5.5 0 0 1 .28.017c.26.079.571.302.897.628zm2.561-.439a2.2 2.2 0 0 0-1.029-.603 2 2 0 0 0-1.068.039c-.622.188-1.148.627-1.524 1.003l1.06 1.061c.326-.326.637-.55.897-.628a.5.5 0 0 1 .28-.017c.074.018.183.066.323.206zM20.75 9c0-.882.006-1.47-.128-1.97l-1.449.388c.07.262.077.604.077 1.582zM16 5.75c.978 0 1.32.006 1.582.077l.389-1.45C17.47 4.245 16.88 4.25 16 4.25zm4.622 1.28a3.75 3.75 0 0 0-2.651-2.652l-.389 1.449a2.25 2.25 0 0 1 1.591 1.59zM3.25 13.6c0 1.108-.001 2 .076 2.71.079.725.245 1.35.64 1.894l1.214-.881c-.178-.246-.298-.577-.363-1.174-.066-.611-.067-1.407-.067-2.549zm6.15 4.65c-1.142 0-1.938-.001-2.549-.067-.597-.065-.928-.185-1.174-.363l-.881 1.214c.543.395 1.169.562 1.894.64.71.077 1.602.076 2.71.076zm-5.434-.046c.231.319.511.598.83.83l.881-1.214a2.3 2.3 0 0 1-.497-.497zM4.75 9c0-.978.006-1.32.077-1.582l-1.45-.389C3.245 7.53 3.25 8.12 3.25 9zM8 4.25c-.882 0-1.47-.006-1.97.128l.388 1.449c.262-.07.604-.077 1.582-.077zM4.827 7.418a2.25 2.25 0 0 1 1.59-1.591l-.388-1.45A3.75 3.75 0 0 0 3.378 7.03z" /></svg>