<svg id="callEnd" xmlns="http://www.w3.org/2000/svg" fill="none" viewBox="0 0 24 24"><path stroke="currentColor" stroke-linecap="round" stroke-linejoin="round" stroke-width="1.5" d="M12 21v-8m0 8 2.625-3.375M12 21l-2.625-3.375M12 9c1.699 0 3.166.462 3.933.758a.91.91 0 0 1 .567.86V11a2 2 0 0 0 2 2h.583A1.917 1.917 0 0 0 21 11.082v0c0-1.345-.479-2.67-1.64-3.35C17.956 6.915 15.587 6 12 6s-5.956.914-7.36 1.733C3.48 8.41 3 9.737 3 11.083v0C3 12.142 3.86 13 4.918 13H5.5a2 2 0 0 0 2-2v-.382c0-.379.214-.724.567-.86C8.834 9.462 10.302 9 12 9" /></svg>