<svg id="callIncoming" xmlns="http://www.w3.org/2000/svg" fill="none" viewBox="0 0 24 24"><g clip-path="url(#clip0_1556_83804)"><path stroke="currentColor" stroke-linecap="round" stroke-linejoin="round" stroke-width="1.5" d="M20.657 3.343 15 9m0 0 4.243-.53M15 9l.53-4.243m-3.933 6.96c-1.2-1.201-1.912-2.565-2.245-3.317a.91.91 0 0 1 .207-1.01l.27-.27a2 2 0 0 0 0-2.828l-.412-.412a1.917 1.917 0 0 0-2.711 0v0c-.952.952-1.55 2.228-1.209 3.53.413 1.57 1.442 3.891 3.979 6.428s4.858 3.566 6.429 3.979c1.301.342 2.577-.257 3.529-1.209v0a1.92 1.92 0 0 0 0-2.711l-.412-.412a2 2 0 0 0-2.829 0l-.27.27a.91.91 0 0 1-1.01.207c-.75-.333-2.115-1.044-3.316-2.245" /></g><defs><clipPath id="clip0_1556_83804"><path fill="white" d="M0 0h24v24H0z" /></clipPath></defs></svg>