<svg id="callAdd" xmlns="http://www.w3.org/2000/svg" fill="none" viewBox="0 0 24 24"><g clip-path="url(#clip0_1556_83800)"><path stroke="currentColor" stroke-linecap="round" stroke-linejoin="round" stroke-width="1.5" d="M17 7h3m-3 0h-3m3 0V4m0 3v3m-5.515 2.192c-1.2-1.2-1.912-2.565-2.245-3.316a.91.91 0 0 1 .207-1.01l.27-.27a2 2 0 0 0 0-2.828l-.411-.412a1.917 1.917 0 0 0-2.712 0v0c-.952.951-1.55 2.227-1.209 3.529.413 1.57 1.442 3.892 3.979 6.429 2.537 2.536 4.858 3.565 6.429 3.978 1.301.342 2.577-.257 3.529-1.208v0a1.917 1.917 0 0 0 0-2.712l-.412-.412a2 2 0 0 0-2.829 0l-.27.27a.91.91 0 0 1-1.01.207c-.75-.332-2.115-1.044-3.316-2.245" /></g><defs><clipPath id="clip0_1556_83800"><path fill="white" d="M0 0h24v24H0z" /></clipPath></defs></svg>