<svg id="callDisabled" xmlns="http://www.w3.org/2000/svg" fill="none" viewBox="0 0 24 24"><g clip-path="url(#clip0_1556_83806)"><path stroke="currentColor" stroke-linecap="round" stroke-linejoin="round" stroke-width="1.5" d="M6 18 17 7m-6.498 3.58c-.445-.67-.75-1.284-.938-1.706a.91.91 0 0 1 .208-1.01l.27-.27a2 2 0 0 0 0-2.828l-.412-.412a1.917 1.917 0 0 0-2.712 0v0c-.951.951-1.55 2.228-1.208 3.53.328 1.247 1.044 2.967 2.595 4.893m5.197.775c.638.415 1.219.704 1.623.883a.91.91 0 0 0 1.01-.207l.27-.27a2 2 0 0 1 2.83 0l.411.412a1.917 1.917 0 0 1 0 2.712v0c-.951.951-2.228 1.55-3.53 1.208-1.23-.324-2.922-1.026-4.817-2.535" /></g><defs><clipPath id="clip0_1556_83806"><path fill="white" d="M0 0h24v24H0z" /></clipPath></defs></svg>