<svg id="callShouting" xmlns="http://www.w3.org/2000/svg" fill="none" viewBox="0 0 24 24"><g clip-path="url(#clip0_1556_83812)"><path stroke="currentColor" stroke-linecap="round" stroke-linejoin="round" stroke-width="1.5" d="m8.293 9.012.413-.412 3.652-.59-2.829-1.415 2.829-2.121-3.182.353.353-3.182-2.121 2.829-1.414-2.829-.383 3.07a2.06 2.06 0 0 1-.588 1.204C4.341 6.6 3.914 7.51 4.1 8.458c.302 1.545 1.244 4.136 4.11 7.002 2.536 2.537 4.858 3.566 6.429 3.978 1.301.342 2.577-.257 3.529-1.208a1.917 1.917 0 0 0 0-2.712l-.412-.412a2 2 0 0 0-2.829 0l-.27.27a.91.91 0 0 1-1.01.208c-.75-.333-2.115-1.044-3.316-2.245s-1.912-2.566-2.245-3.317a.91.91 0 0 1 .207-1.01" /></g><defs><clipPath id="clip0_1556_83812"><path fill="white" d="M0 0h24v24H0z" /></clipPath></defs></svg>