<svg id="callOutgoing" xmlns="http://www.w3.org/2000/svg" fill="none" viewBox="0 0 24 24"><g clip-path="url(#clip0_1556_83808)"><path stroke="currentColor" stroke-linecap="round" stroke-linejoin="round" stroke-width="1.5" d="M14.343 9.657 20 4m0 0-4.243.53M20 4l-.53 4.243m-7.985 3.95C10.284 10.99 9.573 9.626 9.24 8.875a.91.91 0 0 1 .207-1.01l.27-.27a2 2 0 0 0 0-2.828l-.412-.412a1.917 1.917 0 0 0-2.711 0v0c-.952.951-1.55 2.227-1.209 3.529.413 1.57 1.442 3.892 3.979 6.429 2.536 2.536 4.858 3.565 6.429 3.978 1.301.342 2.577-.257 3.529-1.208v0a1.917 1.917 0 0 0 0-2.712l-.412-.412a2 2 0 0 0-2.829 0l-.27.27a.91.91 0 0 1-1.01.207c-.75-.332-2.115-1.044-3.316-2.245" /></g><defs><clipPath id="clip0_1556_83808"><path fill="white" d="M0 0h24v24H0z" /></clipPath></defs></svg>