<svg id="campFire" xmlns="http://www.w3.org/2000/svg" fill="none" viewBox="0 0 24 24"><path fill="currentColor" d="M8.542 14.594a.75.75 0 0 0 .916-1.188zM11.5 2l.248-.708a.75.75 0 0 0-.976.887zm3 5.5-.743-.1a.75.75 0 0 0 1.288.615zM16 5l.545-.515A.75.75 0 0 0 15.25 5zm-1.432 8.387a.75.75 0 1 0 .865 1.226zM12 9.5l.545-.515a.75.75 0 0 0-1.09 0zm8.535 9.364.142.736.053-.012zM19.5 15l.141.737.053-.013zm.276 4.935a.75.75 0 0 0-1.449-.388zm1.208.324-.725-.194zM2.31 16.479a.75.75 0 1 0 1.449.388zM4.518 15l-.194.724.053.013zm3.863 1.504a.75.75 0 1 0 .282-1.474zm7.256 3.924a.75.75 0 0 0-.282 1.473zm6.204-1.516a.75.75 0 1 0-1.49.176zM9.458 13.406c-.887-.683-1.364-1.357-1.6-1.977-.233-.617-.246-1.233-.117-1.833.266-1.235 1.125-2.362 1.804-3.081l-1.09-1.03c-.738.781-1.826 2.154-2.18 3.794-.18.837-.171 1.753.181 2.682.352.928 1.025 1.816 2.086 2.633zm.087-6.891c.344-.364.684-.692 1.024-1.03.331-.33.662-.67.938-1.02.562-.71.984-1.572.721-2.644l-1.456.358c.105.428-.015.817-.441 1.356-.217.275-.492.56-.82.887-.32.317-.692.677-1.056 1.063zm1.707-3.807c1.75.613 2.82 2.36 2.505 4.692l1.486.2c.394-2.919-.968-5.421-3.495-6.308zm3.793 5.307C16.08 6.919 16.75 6.088 16.75 5h-1.5c0 .412-.206.831-1.295 1.985zm.41-2.5c.243.258.513.745.716 1.423.2.665.319 1.455.305 2.269-.026 1.643-.581 3.243-1.908 4.18l.865 1.226c1.86-1.313 2.512-3.463 2.543-5.382a9.1 9.1 0 0 0-.368-2.724c-.24-.798-.598-1.53-1.063-2.022zM12.666 12.5c0 .413-.344.75-.666.75v1.5c1.297 0 2.166-1.163 2.166-2.25zm-.666.75c-.322 0-.666-.337-.666-.75h-1.5c0 1.087.87 2.25 2.166 2.25zm-.666-.75c0-.537.263-1.14.593-1.663a6.4 6.4 0 0 1 .575-.774l.036-.04.007-.008.001-.001L12 9.5l-.546-.515v.001l-.002.002-.021.023-.054.06a8 8 0 0 0-.72.966c-.379.603-.823 1.5-.823 2.463zm.666-3-.546.515v-.001l.008.01q.012.01.036.04.05.055.14.166c.12.146.278.356.435.607.33.523.593 1.126.593 1.663h1.5c0-.963-.444-1.86-.823-2.462a8 8 0 0 0-.773-1.027l-.017-.017-.006-.008h-.001zM4.242 19.935c.119.446.125.838.072 1.098-.063.309-.146.216.01.174l.388 1.45c.689-.185.973-.84 1.072-1.324.109-.532.073-1.164-.094-1.786zm.082 1.272c.155-.041.13.08-.08-.156-.176-.198-.366-.54-.485-.986l-1.45.388c.167.622.452 1.187.813 1.594.328.37.9.794 1.59.61zm-.565-1.142c-.12-.446-.126-.838-.073-1.098.063-.309.146-.216-.01-.174l-.388-1.45c-.689.185-.973.84-1.072 1.324-.109.532-.073 1.164.094 1.786zm-.082-1.272c-.156.041-.13-.08.079.155.176.2.366.542.486.987l1.448-.388c-.166-.622-.45-1.187-.812-1.594-.327-.37-.9-.794-1.59-.61zm16.582-1.926c.12.445.126.837.073 1.098-.063.309-.146.216.01.174l.388 1.45c.689-.185.973-.84 1.072-1.324.109-.533.073-1.165-.094-1.786zm-.565-1.143c-.155.042-.13-.08.08.156.176.199.366.542.485.987l1.45-.388c-.167-.622-.452-1.187-.813-1.594-.328-.37-.901-.794-1.59-.61zm-16.07 3.08 16.017-3.067-.282-1.474-16.018 3.068zm1.035 3.864L20.676 19.6l-.282-1.473-16.017 3.068zm13.668-3.12c-.166.62-.202 1.253-.093 1.785.099.484.383 1.139 1.072 1.323l.388-1.449c.156.042.073.135.01-.174-.054-.26-.047-.652.072-1.098zm.979 3.108c.689.185 1.262-.24 1.59-.61.36-.406.646-.971.812-1.593l-1.449-.388c-.12.445-.31.788-.485.986-.21.237-.235.115-.08.156zm-14.594-8.38c-.69-.185-1.263.24-1.59.61-.361.406-.646.971-.812 1.593l1.449.388c.119-.445.31-.788.485-.987.21-.236.235-.114.08-.156zm3.951.754-4.004-.767-.282 1.474 4.004.767zm10.978 6.165-4.004-.767-.282 1.473 4.004.767zm2.067-.742a4.2 4.2 0 0 0 .133-1.54l-1.49.175c.03.258.01.6-.092.977z" /></svg>