<svg id="canRedbull" xmlns="http://www.w3.org/2000/svg" fill="none" viewBox="0 0 24 24"><path stroke="currentColor" stroke-linecap="round" stroke-linejoin="round" stroke-width="1.5" d="M8.25 2C8.25 4.5 7 3.25 7 5.75V12M8.25 2h7.5m-7.5 0H7m8.75 0c0 2.5 1.25 1.25 1.25 3.75V12M15.75 2H17m-1.25 0-3.284 8.84M8.25 21.375c.69-1.9 2.536-6.339 3.3-8.208M17 12v8a2 2 0 0 1-2 2H9a2 2 0 0 1-2-2v-8m10 0h-3.75M7 12h3.75m2.5 0a1.25 1.25 0 0 0-.784-1.16M13.25 12c0 .867-.906 1.473-1.7 1.166M10.75 12c0 .532.332.986.8 1.166M10.75 12c0-.874.92-1.48 1.716-1.16" /></svg>