<svg id="car" xmlns="http://www.w3.org/2000/svg" fill="none" viewBox="0 0 24 24"><path stroke="currentColor" stroke-linecap="round" stroke-linejoin="round" stroke-width="1.5" d="M8 16v1.5c0 .466 0 .699-.076.883a1 1 0 0 1-.541.54C7.199 19 6.966 19 6.5 19v0c-.466 0-.699 0-.883-.076a1 1 0 0 1-.54-.541C5 18.199 5 17.966 5 17.5V16m3 0h1m-1 0H5m1-6-.236.236c-.583.583-.874.874-1.095 1.206a4 4 0 0 0-.59 1.426C4 13.258 4 13.671 4 14.495V15a1 1 0 0 0 1 1v0m1-6h12M6 10l.2-1M18 10l.236.236c.583.583.874.874 1.095 1.206a4 4 0 0 1 .59 1.426c.079.39.079.803.079 1.627V15a1 1 0 0 1-1 1v0m-1-6-.2-1M16 16v1.5c0 .466 0 .699.076.883a1 1 0 0 0 .541.54c.184.077.417.077.883.077v0c.466 0 .699 0 .883-.076a1 1 0 0 0 .54-.541c.077-.184.077-.417.077-.883V16m-3 0h-1m1 0h3M9 16l.502-1.005c.215-.429.322-.644.5-.782q.086-.07.188-.116c.203-.097.443-.097.923-.097h1.774c.48 0 .72 0 .923.097q.1.047.188.116c.178.138.285.353.5.782L15 16m-6 0h6m2-3 1.5-.5M7 13l-1.5-.5M17.8 9c-.302-1.51-.453-2.265-.87-2.815a3 3 0 0 0-1.078-.883C15.23 5 14.46 5 12.92 5h-1.842c-1.54 0-2.31 0-2.93.302a3 3 0 0 0-1.078.883C6.653 6.735 6.502 7.49 6.2 9v0m11.6 0 1.7-.5M6.2 9l-1.7-.5" /></svg>