<svg id="carDoorsOpen" xmlns="http://www.w3.org/2000/svg" fill="none" viewBox="0 0 24 24"><path stroke="currentColor" stroke-linecap="round" stroke-linejoin="round" stroke-width="1.5" d="M7 9V7.031a3 3 0 0 1 1.886-2.785L9 4.2M7 9l-3 2m3-2v4.5M17 9V7.031a3 3 0 0 0-1.886-2.785L15 4.2M17 9l3 2m-3-2v4.5M9 8c2.5-1 3.5-1 6 0m-6 7c2.5.5 3.5.5 6 0M9 4.2l1.886-.754a3 3 0 0 1 2.228 0L15 4.2m-6 0V5m6-.8V5m-8 8.5v3.768a3 3 0 0 0 2.138 2.873l.563.17a8 8 0 0 0 4.598 0l.563-.17A3 3 0 0 0 17 17.268V13.5m-10 0-3 2m13-2 3 2" /></svg>