<svg id="carFourWheelDrive" xmlns="http://www.w3.org/2000/svg" fill="none" viewBox="0 0 24 24"><path stroke="currentColor" stroke-linecap="round" stroke-linejoin="round" stroke-width="1.5" d="M9 6V5a2 2 0 0 0-2-2v0a2 2 0 0 0-2 2v2a2 2 0 0 0 2 2v0a2 2 0 0 0 2-2zm0 0h3m0 0v12m0-12h3m-3 12H9m3 0h3m-6 0v-1a2 2 0 0 0-2-2v0a2 2 0 0 0-2 2v2a2 2 0 0 0 2 2v0a2 2 0 0 0 2-2zm6-12V5a2 2 0 0 1 2-2v0a2 2 0 0 1 2 2v2a2 2 0 0 1-2 2v0a2 2 0 0 1-2-2zm0 12v-1a2 2 0 0 1 2-2v0a2 2 0 0 1 2 2v2a2 2 0 0 1-2 2v0a2 2 0 0 1-2-2z" /></svg>