<svg id="carFan" xmlns="http://www.w3.org/2000/svg" fill="none" viewBox="0 0 24 24"><path stroke="currentColor" stroke-linecap="round" stroke-linejoin="round" stroke-width="1.5" d="M12 12c-.39-4.284 2.11-6.004 3.408-6.328-.974-1.46-3.603-3.894-6.329-1.947S9.891 10.053 12 12m0 0c.39 4.284-2.11 6.004-3.407 6.328.973 1.46 3.602 3.895 6.328 1.947S14.11 13.947 12 12m0 0c-4.284.39-6.004-2.11-6.328-3.407-1.46.973-3.894 3.602-1.947 6.328S10.053 14.109 12 12m0 0c4.284-.39 6.004 2.11 6.328 3.408 1.46-.974 3.895-3.603 1.947-6.329S13.947 9.891 12 12" /></svg>