<svg id="carHeadlightsFog" xmlns="http://www.w3.org/2000/svg" fill="none" viewBox="0 0 24 24"><path stroke="currentColor" stroke-linecap="round" stroke-linejoin="round" stroke-width="1.5" d="M8 7 5.5 8M3 9l2.5-1M8 12l-2.5 1M3 14l2.5-1M8 17l-2.5 1M3 19l2.5-1m0 0-.388-.517a3 3 0 0 1-.283-3.141L5.5 13m0 5L4 21m1.5-8-.574-.957a3 3 0 0 1 0-3.086L5.5 8m0 0L4 5.5M21 12c0-4.244-2.814-6.8-5.457-8.263C13.335 2.513 11 4.355 11 6.879v10.242c0 2.524 2.335 4.366 4.543 3.143C18.186 18.799 21 16.244 21 12" /></svg>