<svg id="carousel" xmlns="http://www.w3.org/2000/svg" fill="none" viewBox="0 0 24 24"><path stroke="currentColor" stroke-linecap="round" stroke-linejoin="round" stroke-width="1.5" d="m4 11-1 1 1 1m16-2 1 1-1 1M9 14l1-1c.273-.273.409-.409.556-.482a1 1 0 0 1 .888 0c.147.073.283.21.556.482v0c.273.273.409.409.556.482a1 1 0 0 0 .888 0c.147-.073.283-.21.556-.482l1.227-1.227c.53-.53.796-.796 1.117-.846a1 1 0 0 1 .312 0c.321.05.587.316 1.117.846L18 12m0 0v2.2c0 .75 0 1.125-.191 1.388a1 1 0 0 1-.221.221C17.325 16 16.95 16 16.2 16H7.8c-.75 0-1.125 0-1.388-.191a1 1 0 0 1-.221-.221C6 15.325 6 14.95 6 14.2V11m12 1V9.8c0-.75 0-1.125-.191-1.388a1 1 0 0 0-.221-.221C17.325 8 16.95 8 16.2 8H9m0 0H7.8c-.75 0-1.125 0-1.388.191a1 1 0 0 0-.221.221C6 8.675 6 9.05 6 9.8V11m3-3c0 .932 0 1.398-.152 1.765a2 2 0 0 1-1.083 1.083C7.398 11 6.932 11 6 11v0" /></svg>