<svg id="carrot" xmlns="http://www.w3.org/2000/svg" fill="none" viewBox="0 0 24 24"><path stroke="currentColor" stroke-linecap="round" stroke-linejoin="round" stroke-width="1.5" d="M7.854 9.279a4 4 0 0 0 .618 4.86c.31.31.906.807 1.676 1.394M7.854 9.279a4 4 0 0 1 1.414-1.415M7.854 9.28 6.287 7.712m2.981.152a4 4 0 0 1 4.86.618c1.563 1.563 7.927 10.46 6.365 12.021-.78.78-3.39-.416-6-2.004M9.268 7.864 7.71 6.305m2.439 9.228c1.845-.5 2.845-1.394 3.345-2m-3.345 2a53 53 0 0 0 4.345 2.966m0 0c1.5-.466 2-.966 2.5-1.466M6.287 7.712a2 2 0 0 0 .262-1.123 2 2 0 0 0 1.16-.284M6.287 7.712a2.003 2.003 0 0 1-3.148.417A2 2 0 0 1 3.2 5.242 1.5 1.5 0 0 1 5.202 3.24l.058-.061a2 2 0 1 1 2.45 3.126" /></svg>