<svg id="carSeatHeated" xmlns="http://www.w3.org/2000/svg" fill="none" viewBox="0 0 24 24"><path stroke="currentColor" stroke-linecap="round" stroke-linejoin="round" stroke-width="1.5" d="m6 4-.398.795A3 3 0 0 0 5.5 7.251l1 2.498a3 3 0 0 1-.102 2.456L6 13m4-9-.398.795A3 3 0 0 0 9.5 7.251l1 2.498a3 3 0 0 1-.102 2.456L10 13m7 8H6.322a2.322 2.322 0 1 1 .329-4.621l3.675.525a3 3 0 0 1 1.24.474zm-2.34-7.942 2.375-3.394a3 3 0 0 0 .532-1.471l.35-4.207a1.076 1.076 0 0 1 2.146.022l.405 6.477c.021.34-.016.683-.11 1.011l-1.075 3.764c-.738 2.583-4.433 2.481-5.028-.138a2.6 2.6 0 0 1 .405-2.064" /></svg>