<svg id="cash" xmlns="http://www.w3.org/2000/svg" fill="none" viewBox="0 0 24 24"><path stroke="currentColor" stroke-linecap="round" stroke-linejoin="round" stroke-width="1.5" d="M3 13v4c1.888.42 2.832.63 3.788.686q.712.042 1.424 0c.956-.057 1.9-.266 3.788-.686l1.434-.319c.46-.102.69-.153.92-.195a12 12 0 0 1 4.291 0c.23.042.46.093.922.195.196.044.294.066.374.07a1 1 0 0 0 1.046-.839c.013-.079.013-.18.013-.38V7c-1.888-.42-2.832-.63-3.788-.686q-.712-.042-1.424 0c-.956.057-1.9.266-3.788.686l-1.434.319c-.46.102-.69.153-.92.195a12 12 0 0 1-4.291 0c-.23-.042-.46-.093-.921-.195a3 3 0 0 0-.375-.07 1 1 0 0 0-1.046.839C3 8.167 3 8.268 3 8.468v4.522M14 12a2 2 0 1 1-4 0 2 2 0 0 1 4 0" /></svg>