<svg id="cassetteTape" xmlns="http://www.w3.org/2000/svg" fill="none" viewBox="0 0 24 24"><path stroke="currentColor" stroke-linecap="round" stroke-linejoin="round" stroke-width="1.5" d="M5.5 19c-.464 0-.697 0-.892-.026a3 3 0 0 1-2.582-2.582C2 16.197 2 15.964 2 15.5V9.9c0-2.25 0-3.375.573-4.163a3 3 0 0 1 .664-.664C4.025 4.5 5.15 4.5 7.4 4.5h9.2c2.25 0 3.375 0 4.163.573.255.185.479.409.664.664C22 6.525 22 7.65 22 9.9V16a3 3 0 0 1-3 3v0M5.5 19c.649-1.297.973-1.946 1.505-2.362q.262-.206.564-.349C8.179 16 8.899 16 10.337 16h3.773c1.255 0 1.882 0 2.434.229q.272.113.519.278c.496.332.844.854 1.54 1.898L19 19M5.5 19H19M9 12h6m-6 0H7a2 2 0 0 1-2-2v0a2 2 0 0 1 2-2v0a2 2 0 0 1 2 2zm6 0h2a2 2 0 0 0 2-2v0a2 2 0 0 0-2-2v0a2 2 0 0 0-2 2z" /></svg>
