<svg id="castle" xmlns="http://www.w3.org/2000/svg" fill="none" viewBox="0 0 24 24"><path stroke="currentColor" stroke-linecap="round" stroke-linejoin="round" stroke-width="1.5" d="M21 20h-1m0 0v-8m0 8h-8m8-8V8m0 4h-2m2-4V4a1 1 0 0 0-1-1v0a1 1 0 0 0-1 1v0a1 1 0 0 1-1 1v0a1 1 0 0 1-1-1v0a1 1 0 0 0-1-1v0a1 1 0 0 0-1 1v0a1 1 0 0 1-1 1v0a1 1 0 0 1-1-1v0a1 1 0 0 0-1-1v0a1 1 0 0 0-1 1v5m10-1h-2m-1 2h-2m2 4h-2m-3 6v-7.757a3 3 0 0 0-.879-2.122L10 9m2 11H9m-5 0H3m1 0v-7.757a3 3 0 0 1 .879-2.122L6 9a2.83 2.83 0 0 1 4 0v0M4 20h3m2 0v-3a1 1 0 0 0-1-1v0a1 1 0 0 0-1 1v3m2 0H7m1-8.5V11" /></svg>