<svg id="cat" xmlns="http://www.w3.org/2000/svg" fill="none" viewBox="0 0 24 24"><path stroke="currentColor" stroke-linecap="round" stroke-linejoin="round" stroke-width="1.5" d="M10.206 6.394A7.3 7.3 0 0 1 12 6.176q.951.002 1.794.218m-3.588 0L5.5 3c-1 2.118-1 3.706-.475 5.294m5.18-1.9L8.5 7.235m5.294-.84L18.5 3c1 2.118 1 4.235.536 5.294m-5.242-1.9 1.706.841M9.5 12v1.059m5-1.059v1.059M12 16.235l-.385-.408c-.23-.243-.346-.365-.33-.472a.2.2 0 0 1 .036-.091c.06-.087.223-.087.548-.087h.262c.325 0 .488 0 .548.087q.027.041.036.091c.016.107-.1.229-.33.472zm0 0v.53m-2 0v.018c0 .575.44 1.04.983 1.04.45 0 .844-.324.953-.788l.064-.27m0 0 .064.27c.11.464.502.788.953.788.543 0 .983-.465.983-1.04v-.018m2-1.588 5-1.589m-5 3.706 4.5.53M8 15.176l-5-1.588m5 3.706-4.5.53m1.525-7.412v2.647C5.025 17.152 9.5 21 12 21s7-3.848 7-7.941c0-.96.036-2.647.036-2.647" /></svg>