<svg id="cctv" xmlns="http://www.w3.org/2000/svg" fill="none" viewBox="0 0 24 24"><path stroke="currentColor" stroke-linecap="round" stroke-linejoin="round" stroke-width="1.5" d="m7.748 13.914-1.739-.466c-1.082-.29-1.623-.435-1.98-.756a2 2 0 0 1-.617-1.07c-.1-.47.045-1.011.335-2.093v0c.434-1.623.652-2.435 1.134-2.97a3 3 0 0 1 1.606-.927c.704-.15 1.515.068 3.138.502L15.99 7.84c1.81.485 2.714.727 3.132 1.362a2 2 0 0 1 .282.665c.165.741-.29 1.56-1.198 3.197l-.4.721c-.58 1.045-.87 1.567-1.338 1.844a2 2 0 0 1-.487.206c-.523.144-1.1-.01-2.255-.32zm0 0c.292 1.584.437 2.376.144 2.97a2 2 0 0 1-.6.72C6.762 18 5.957 18 4.346 18H4m17-6.25a.53.53 0 0 1 .223.735l-1.446 2.53a.59.59 0 0 1-.777.235v0" /></svg>