<svg id="chargingStation" xmlns="http://www.w3.org/2000/svg" fill="none" viewBox="0 0 24 24"><path stroke="currentColor" stroke-linecap="round" stroke-linejoin="round" stroke-width="1.5" d="M4 20h1m15 0h-6m-9 0h9m-9 0V8.6c0-1.5 0-2.25.382-2.776a2 2 0 0 1 .442-.442C6.35 5 7.1 5 8.6 5h1.8c1.5 0 2.25 0 2.776.382q.256.187.442.442C14 6.35 14 7.1 14 8.6V14m0 6v-6m0 0 2 1v1.5a1.5 1.5 0 0 0 1.5 1.5v0a1.5 1.5 0 0 0 1.5-1.5V11m0 0-.211-.106c-.662-.33-.992-.496-1.232-.745a2 2 0 0 1-.441-.714C17 9.109 17 8.74 17 8v0h1m1 3 .211-.106c.662-.33.992-.496 1.232-.745a2 2 0 0 0 .441-.714C21 9.109 21 8.74 21 8v0h-1M9.5 9 8 12h3l-1.5 3M18 8V6m0 2h2m0 0V6" /></svg>