<svg id="chatTyping" xmlns="http://www.w3.org/2000/svg" fill="none" viewBox="0 0 24 24"><path stroke="currentColor" stroke-linecap="round" stroke-linejoin="round" stroke-width="1.5" d="M8 12a1 1 0 0 1-1 1m1-1a1 1 0 0 0-1-1m1 1H6m1 1a1 1 0 0 1-1-1m1 1v-2m-1 1a1 1 0 0 1 1-1m6 1a1 1 0 0 1-1 1m1-1a1 1 0 0 0-1-1m1 1h-2m1 1a1 1 0 0 1-1-1m1 1v-2m-1 1a1 1 0 0 1 1-1m6 1a1 1 0 0 1-1 1m1-1a1 1 0 0 0-1-1m1 1h-2m1 1a1 1 0 0 1-1-1m1 1v-2m-1 1a1 1 0 0 1 1-1m-6.106 10.211.83-1.658a1 1 0 0 1 .894-.553H18a3 3 0 0 0 3-3V8a3 3 0 0 0-3-3H6a3 3 0 0 0-3 3v8a3 3 0 0 0 3 3h1.382a1 1 0 0 1 .894.553l.83 1.658a1 1 0 0 0 1.788 0" /></svg>