<svg id="chatDeath" xmlns="http://www.w3.org/2000/svg" fill="none" viewBox="0 0 24 24"><path stroke="currentColor" stroke-linecap="round" stroke-linejoin="round" stroke-width="1.5" d="M10.5 12v-1m3 1v-1m-5.85 1c0-2.5 1.85-4.5 4.35-4.5s4.35 2 4.35 4.5v.9a1.6 1.6 0 0 1-1.6 1.6v1c0 .552-.328 1-.88 1s-.87-.448-.87-1a1 1 0 0 1-2 .036c-.019.536-.33.964-.87.964-.552 0-.88-.448-.88-1v-1a1.6 1.6 0 0 1-1.6-1.6zm3.244 9.211.83-1.658a1 1 0 0 1 .894-.553H18a3 3 0 0 0 3-3V8a3 3 0 0 0-3-3H6a3 3 0 0 0-3 3v8a3 3 0 0 0 3 3h1.382a1 1 0 0 1 .894.553l.83 1.658a1 1 0 0 0 1.788 0" /></svg>