<svg id="chatAlert" xmlns="http://www.w3.org/2000/svg" fill="none" viewBox="0 0 24 24"><path stroke="currentColor" stroke-linecap="round" stroke-linejoin="round" stroke-width="1.5" d="M12 15.5a.5.5 0 0 0-.5.5v0m.5-.5a.5.5 0 0 1 .5.5v0m-.5-.5v.5m0 0v.5m0-.5h-.5m.5 0h.5m-.5.5a.5.5 0 0 0 .5-.5v0m-.5.5a.5.5 0 0 1-.5-.5v0m.5-2.5-.24-5.75A.24.24 0 0 1 12 7.5v0a.24.24 0 0 1 .24.25zm.894 7.711.83-1.658a1 1 0 0 1 .894-.553H19a2 2 0 0 0 2-2V7a2 2 0 0 0-2-2H5a2 2 0 0 0-2 2v10a2 2 0 0 0 2 2h4.382a1 1 0 0 1 .894.553l.83 1.658a1 1 0 0 0 1.788 0" /></svg>