<svg id="chatLove" xmlns="http://www.w3.org/2000/svg" fill="none" viewBox="0 0 24 24"><path stroke="currentColor" stroke-linecap="round" stroke-linejoin="round" stroke-width="1.5" d="M21 12v4a3 3 0 0 1-3 3h-5.382a1 1 0 0 0-.894.553l-.83 1.658a1 1 0 0 1-1.788 0l-.83-1.658A1 1 0 0 0 7.382 19H6a3 3 0 0 1-3-3V8a3 3 0 0 1 3-3h12a3 3 0 0 1 3 3v3.99m-9-1.763C12 8.997 10.88 8 9.5 8S7 9.072 7 10.515c0 2.121 1.875 3.753 5 5.485 3.125-1.732 5-3.364 5-5.485C17 9.073 15.88 8 14.5 8s-2.5.997-2.5 2.227" /></svg>