<svg id="checkboxes" xmlns="http://www.w3.org/2000/svg" fill="none" viewBox="0 0 24 24"><path stroke="currentColor" stroke-linecap="round" stroke-linejoin="round" stroke-width="1.5" d="M12 7h9m-9 10h5m-12 .5.5.5L7 16.5M6 20c-.932 0-1.398 0-1.765-.152a2 2 0 0 1-1.083-1.083C3 18.398 3 17.932 3 17v0c0-.932 0-1.398.152-1.765a2 2 0 0 1 1.083-1.083C4.602 14 5.068 14 6 14v0c.932 0 1.398 0 1.765.152a2 2 0 0 1 1.083 1.083C9 15.602 9 16.068 9 17v0c0 .932 0 1.398-.152 1.765a2 2 0 0 1-1.083 1.083C7.398 20 6.932 20 6 20m0-10c-.932 0-1.398 0-1.765-.152a2 2 0 0 1-1.083-1.083C3 8.398 3 7.932 3 7v0c0-.932 0-1.398.152-1.765a2 2 0 0 1 1.083-1.083C4.602 4 5.068 4 6 4v0c.932 0 1.398 0 1.765.152a2 2 0 0 1 1.083 1.083C9 5.602 9 6.068 9 7v0c0 .932 0 1.398-.152 1.765a2 2 0 0 1-1.083 1.083C7.398 10 6.932 10 6 10" /></svg>