<svg id="chefHat" xmlns="http://www.w3.org/2000/svg" fill="none" viewBox="0 0 24 24"><path stroke="currentColor" stroke-linecap="round" stroke-linejoin="round" stroke-width="1.5" d="M7 17v-3.126A4 4 0 0 1 4 10c0-2.279 1.9-4 4.126-4a4.002 4.002 0 0 1 7.748 0C18.099 6 20 7.721 20 10a4 4 0 0 1-3 3.874V17M7 17v2.2c0 .75 0 1.125.191 1.388a1 1 0 0 0 .221.221C7.675 21 8.05 21 8.8 21h.7M7 17h2.5m7.5 0v2.2c0 .75 0 1.125-.191 1.388a1 1 0 0 1-.221.221C16.325 21 15.95 21 15.2 21h-.7m2.5-4h-2.5m-5 0v4m0-4H12m-2.5 4H12m0-4v4m0-4h2.5M12 21h2.5m0-4v4" /></svg>