<svg id="church" xmlns="http://www.w3.org/2000/svg" fill="none" viewBox="0 0 24 24"><path stroke="currentColor" stroke-linecap="round" stroke-linejoin="round" stroke-width="1.5" d="M8 21h8m-8 0V11m0 10H5m7-16L9.054 7.946c-.461.461-.692.692-.836.974q-.072.14-.12.29C8 9.512 8 9.838 8 10.491V11m4-6 2.946 2.946c.461.461.692.692.836.974q.072.14.12.29c.098.302.098.628.098 1.281V11m-4-6V3m4 18V11m0 10h3m-3-10 1.397.931c.696.464 1.044.696 1.265 1.027q.11.165.185.346c.153.368.153.786.153 1.623V21m0 0h2M8 11l-1.397.931c-.696.464-1.044.696-1.265 1.027a2 2 0 0 0-.185.346C5 13.672 5 14.09 5 14.927V21m0 0H3m9-12v3m0 1v-1m-1 0h1m0 0h1" /></svg>