<svg id="cleaningBucket" xmlns="http://www.w3.org/2000/svg" fill="none" viewBox="0 0 24 24"><path stroke="currentColor" stroke-linecap="round" stroke-linejoin="round" stroke-width="1.5" d="M6 8H4.354a1 1 0 0 0-.956 1.294l3.168 10.294A2 2 0 0 0 8.477 21h7.046a2 2 0 0 0 1.911-1.412l2.625-8.53M6 8V6.5A3.5 3.5 0 0 1 9.5 3h.5a3 3 0 0 1 3 3v0M6 8h12m0 0h1.646a1 1 0 0 1 .956 1.294l-.543 1.765M18 8a3 3 0 0 0-3-3h-1.5M12 12l6.675 3.338c.791.395 1.747.24 2.372-.385v0a2.055 2.055 0 0 0 0-2.906l-.988-.988M17.5 2.5l.5.5m0 0 .5.5M18 3l.5-.5M18 3l-.5.5" /></svg>