<svg id="closedCaption" xmlns="http://www.w3.org/2000/svg" fill="none" viewBox="0 0 24 24"><path stroke="currentColor" stroke-linecap="round" stroke-linejoin="round" stroke-width="1.5" d="M10 9H9c-.932 0-1.398 0-1.765.152a2 2 0 0 0-1.083 1.083C6 10.602 6 11.068 6 12v0c0 .932 0 1.398.152 1.765a2 2 0 0 0 1.083 1.083C7.602 15 8.068 15 9 15h1m7.5-6h-1c-.932 0-1.398 0-1.765.152a2 2 0 0 0-1.083 1.083c-.152.367-.152.833-.152 1.765v0c0 .932 0 1.398.152 1.765a2 2 0 0 0 1.083 1.083c.367.152.833.152 1.765.152h1m3.5-3.6v1.2c0 2.25 0 3.375-.573 4.163q-.28.384-.664.664C18.975 18 17.85 18 15.6 18H8.4c-2.25 0-3.375 0-4.163-.573a3 3 0 0 1-.664-.664C3 15.975 3 14.85 3 12.6v-1.2c0-2.25 0-3.375.573-4.163a3 3 0 0 1 .664-.664C5.025 6 6.15 6 8.4 6h7.2c2.25 0 3.375 0 4.163.573.255.185.479.409.664.664C21 8.025 21 9.15 21 11.4" /></svg>