<svg id="coffee" xmlns="http://www.w3.org/2000/svg" fill="none" viewBox="0 0 24 24"><path stroke="currentColor" stroke-linecap="round" stroke-linejoin="round" stroke-width="1.5" d="M6 9V6.961a3 3 0 0 0-.559-1.743l-.624-.874c-.505-.707.07-1.678.933-1.574l8.264.992A2.254 2.254 0 0 1 16 6v0M6 9h10M6 9s-3 2-3 6m13-6s3 2 3 6m-3-6V6M3 15c0 2.752 1.42 4.557 2.306 5.416.425.412 1.01.584 1.602.584h8.184c.592 0 1.177-.172 1.602-.584C17.58 19.557 19 17.752 19 15M3 15l.12.03c2.547.637 5.213.637 7.76 0l.24-.06a16 16 0 0 1 7.76 0L19 15m-3-9 2.588.518A3 3 0 0 1 21 9.459V13" /></svg>