<svg id="coffeePot" xmlns="http://www.w3.org/2000/svg" fill="none" viewBox="0 0 24 24"><path stroke="currentColor" stroke-linecap="round" stroke-linejoin="round" stroke-width="1.5" d="M15 11a4 4 0 0 1 4 4v0m-4-4 3-5H7m8 5H8.5M7 6l1.5 5M7 6H6a2 2 0 0 0-2 2v1m4.5 2A3.5 3.5 0 0 0 5 14.5v.5m0 0v1a4 4 0 0 0 4 4h6a4 4 0 0 0 4-4v-1M5 15l.94-.268a2 2 0 0 1 1.542.186l.143.082c.542.31 1.208.31 1.75 0v0a1.76 1.76 0 0 1 1.75 0v0c.542.31 1.208.31 1.75 0v0a1.76 1.76 0 0 1 1.75 0v0c.542.31 1.208.31 1.75 0l.143-.082a2 2 0 0 1 1.542-.186L19 15" /></svg>