<svg id="coins" xmlns="http://www.w3.org/2000/svg" fill="none" viewBox="0 0 24 24"><path stroke="currentColor" stroke-linecap="round" stroke-linejoin="round" stroke-width="1.5" d="M21 6c0 1.105-2.239 2-5 2s-5-.895-5-2m10 0c0-1.105-2.239-2-5-2s-5 .895-5 2m10 0v3M11 6v3m10 6v3c0 1.105-2.239 2-5 2s-5-.895-5-2v-3m10 0c0 1.105-2.239 2-5 2s-5-.895-5-2m10 0v-3m-10 3v-3m10 0c0 1.105-2.239 2-5 2s-5-.895-5-2m10 0V9m-10 3V9m10 0c0 1.105-2.239 2-5 2s-5-.895-5-2m-3 5c-2.761 0-5-.895-5-2m0 0c0-1.105 2.239-2 5-2m-5 2v3c0 1.105 2.239 2 5 2" /></svg>