<svg id="coinPouch" xmlns="http://www.w3.org/2000/svg" fill="none" viewBox="0 0 24 24"><path stroke="currentColor" stroke-linecap="round" stroke-linejoin="round" stroke-width="1.5" d="M20 12.125c0 .621-1.25 1.125-2.79 1.125-1.542 0-2.791-.504-2.791-1.125m5.581 0C20 11.504 18.75 11 17.21 11c-1.542 0-2.791.504-2.791 1.125m5.581 0v1.688m-5.581-1.688v1.688M20 17.187v1.688C20 19.496 18.75 20 17.21 20c-1.542 0-2.791-.504-2.791-1.125v-1.687m5.581 0c0 .62-1.25 1.125-2.79 1.125-1.542 0-2.791-.504-2.791-1.125m5.581 0V15.5m-5.581 1.688V15.5m5.581 0c0 .621-1.25 1.125-2.79 1.125-1.542 0-2.791-.504-2.791-1.125m5.581 0v-1.687M14.419 15.5v-1.687m5.581 0c0 .62-1.25 1.124-2.79 1.124-1.542 0-2.791-.503-2.791-1.124m-1.675 2.812c-1.541 0-2.79-.504-2.79-1.125m0 0c0-.621 1.249-1.125 2.79-1.125M9.954 15.5v1.688c0 .62 1.249 1.125 2.79 1.125M8.021 18C5.8 18 4 16.171 4 13.933c0-1.217.55-2.376 1.492-3.136l1.87-1.508c.853-.688.924-1.97.151-2.748l-.33-.334A.71.71 0 0 1 7.677 5h5.543a.71.71 0 0 1 .496 1.207l-.436.44c-.378.38-.59.87-.633 1.373m.43 1.511a2.22 2.22 0 0 1-.43-1.511M9.953 8a9.7 9.7 0 0 1 2.695.02m0 0c.87.137 1.719.428 2.267.98" /></svg>