<svg id="coliseum" xmlns="http://www.w3.org/2000/svg" fill="none" viewBox="0 0 24 24"><path stroke="currentColor" stroke-linecap="round" stroke-linejoin="round" stroke-width="1.5" d="M3 20h1m17 0h-1M3 16h1m-1-4h1M3 8h1m0 12v-4m0 4h2m-2-4v-4m0 4h9m-9-4V8m0 4h6M4 8h2.5a1 1 0 0 1 .8.4L10 12m0 0 3 4m0 0 3 4m0 0h-3m3 0h1m-4-8h7m0 0v4m0-4h1m-1 8v-4m0 4h-2m-2-4h4m0 0h1M6 20v-1.5a.5.5 0 0 1 .5-.5v0a.5.5 0 0 1 .5.5V20m-1 0h1m0 0h2m0 0v-1.5a.5.5 0 0 1 .5-.5v0a.5.5 0 0 1 .5.5V20m-1 0h1m0 0h2m0 0v-1.5a.5.5 0 0 1 .5-.5v0a.5.5 0 0 1 .5.5V20m-1 0h1m4 0v-1.5a.5.5 0 0 1 .5-.5v0a.5.5 0 0 1 .5.5V20m-1 0h1M6.5 13.75v.5m3-.5v.5m5-.5v.5m3-.5v.5m-11-4.5v.5" /></svg>