<svg id="collection1" xmlns="http://www.w3.org/2000/svg" fill="none" viewBox="0 0 24 24"><path stroke="currentColor" stroke-linecap="round" stroke-linejoin="round" stroke-width="1.5" d="M19.25 9.25c-.78.78-1.17 1.17-1.619 1.32a2 2 0 0 1-1.262 0c-.449-.15-.839-.54-1.619-1.32v0c-.78-.78-1.17-1.17-1.32-1.619a2 2 0 0 1 0-1.262c.15-.449.54-.839 1.32-1.619v0c.78-.78 1.17-1.17 1.619-1.32a2 2 0 0 1 1.262 0c.449.15.84.542 1.624 1.325v0c.774.774 1.16 1.16 1.31 1.603.142.416.142.868 0 1.284-.15.442-.534.827-1.305 1.598v0M16.75 20c1.167 0 1.751 0 2.193-.236a2 2 0 0 0 .82-.821C20 18.5 20 17.917 20 16.75v0c0-1.167 0-1.751-.236-2.193a2 2 0 0 0-.821-.82c-.442-.237-1.026-.237-2.193-.237v0c-1.167 0-1.751 0-2.193.236a2 2 0 0 0-.82.821C13.5 15 13.5 15.583 13.5 16.75v0c0 1.167 0 1.751.236 2.193a2 2 0 0 0 .821.82C15 20 15.583 20 16.75 20m-9.5 0c1.167 0 1.751 0 2.193-.236a2 2 0 0 0 .82-.821c.237-.442.237-1.026.237-2.193v0c0-1.167 0-1.751-.236-2.193a2 2 0 0 0-.821-.82C9 13.5 8.417 13.5 7.25 13.5v0c-1.167 0-1.751 0-2.193.236a2 2 0 0 0-.82.821C4 15 4 15.583 4 16.75v0c0 1.167 0 1.751.236 2.193a2 2 0 0 0 .821.82C5.5 20 6.083 20 7.25 20m0-9.5c1.167 0 1.751 0 2.193-.236.349-.187.634-.472.82-.821C10.5 9 10.5 8.417 10.5 7.25v0c0-1.167 0-1.751-.236-2.193a2 2 0 0 0-.821-.82C9 4 8.417 4 7.25 4v0c-1.167 0-1.751 0-2.193.236a2 2 0 0 0-.82.821C4 5.5 4 6.083 4 7.25v0c0 1.167 0 1.751.236 2.193a2 2 0 0 0 .821.82c.442.237 1.026.237 2.193.237" /></svg>