<svg id="connectedScale" xmlns="http://www.w3.org/2000/svg" fill="none" viewBox="0 0 24 24"><path stroke="currentColor" stroke-linecap="round" stroke-linejoin="round" stroke-width="1.5" d="M11.5 11.9c.84-.082 1.63.04 2.621.367.832.275 1.248.412 1.563.308a1 1 0 0 0 .282-.148c.265-.197.381-.584.614-1.359l.437-1.456c.204-.683.306-1.024.197-1.332a1 1 0 0 0-.15-.276c-.2-.26-.52-.352-1.16-.537-2.73-.79-5.078-.79-7.808 0-.64.185-.96.278-1.16.537a1 1 0 0 0-.15.276c-.11.308-.007.65.198 1.332l.436 1.456c.233.775.349 1.162.614 1.36a1 1 0 0 0 .283.146c.314.105.73-.032 1.561-.307.595-.196 1.118-.319 1.622-.367m0 0-1-2.9M3 13.5V8.4c0-2.25 0-3.375.573-4.163a3 3 0 0 1 .664-.664C5.025 3 6.15 3 8.4 3h7.2c2.25 0 3.375 0 4.163.573q.384.28.664.664C21 5.025 21 6.15 21 8.4v7.2c0 2.25 0 3.375-.573 4.163q-.28.384-.664.664C18.975 21 17.85 21 15.6 21h-5.1m-5 0c0-.525-.273-1.273-.75-1.75S3.525 18.5 3 18.5M3 16c1.313 0 2.607.536 3.536 1.465A5.05 5.05 0 0 1 8 21m-5 0h.01" /></svg>