<svg id="connectedHouse" xmlns="http://www.w3.org/2000/svg" fill="none" viewBox="0 0 24 24"><path stroke="currentColor" stroke-linecap="round" stroke-linejoin="round" stroke-width="1.5" d="M12 20h5v0c.932 0 1.398 0 1.766-.152a2 2 0 0 0 1.082-1.083C20 18.398 20 17.932 20 17v-6.005c0-.865 0-1.297-.162-1.674a2 2 0 0 0-.195-.354c-.235-.337-.601-.566-1.335-1.025l-4.4-2.75c-.822-.513-1.233-.77-1.685-.821a2 2 0 0 0-.446 0c-.451.05-.862.308-1.685.821l-4.4 2.75c-.733.459-1.1.688-1.334 1.025a2 2 0 0 0-.196.354C4 9.698 4 10.13 4 10.995V12m2.5 8c0-.525-.273-1.273-.75-1.75S4.525 17.5 4 17.5M4 15c1.313 0 2.607.536 3.536 1.465A5.05 5.05 0 0 1 9 20m-5 0h.01" /></svg>