<svg id="controller" xmlns="http://www.w3.org/2000/svg" fill="none" viewBox="0 0 24 24"><path stroke="currentColor" stroke-linecap="round" stroke-linejoin="round" stroke-width="1.5" d="M8.563 11V9.5m0 1.5v1.5m0-1.5h1.5m-1.5 0h-1.5m8.5-1.5v.01m0 2.99v-.01m1.5-1.49h-.01m-2.99 0h.01M3.267 15.578l1.446-7.713A2.29 2.29 0 0 1 6.96 6h10.205c1.1 0 2.044.784 2.247 1.865l1.446 7.713a1.9 1.9 0 0 1-1.033 2.056v0c-.75.366-1.651.2-2.22-.41l-2.195-2.352a1.17 1.17 0 0 0-.857-.372H9.572c-.324 0-.634.135-.856.372l-2.194 2.351c-.57.61-1.47.777-2.22.411v0a1.9 1.9 0 0 1-1.034-2.056" /></svg>
