<svg id="couch" xmlns="http://www.w3.org/2000/svg" fill="none" viewBox="0 0 24 24"><path stroke="currentColor" stroke-linecap="round" stroke-linejoin="round" stroke-width="1.5" d="M6 18H5a2 2 0 0 1-2-2v-4a1 1 0 0 1 1-1v0m2 7v1.72c0 .154.126.28.28.28v0a.28.28 0 0 0 .273-.213L7 18m-1 0h1m11 0h1a2 2 0 0 0 2-2v-4a1 1 0 0 0-1-1v0m-2 7v1.72a.28.28 0 0 1-.28.28v0a.28.28 0 0 1-.273-.213L17 18m1 0h-1m3-7V9a2 2 0 0 0-2-2H6a2 2 0 0 0-2 2v2m16 0a2 2 0 0 0-2 2v1a1 1 0 0 1-1 1H7a1 1 0 0 1-1-1v-1a2 2 0 0 0-2-2v0m3 7h10" /></svg>