<svg id="courtHammer" xmlns="http://www.w3.org/2000/svg" fill="none" viewBox="0 0 24 24"><g clip-path="url(#clip0_1556_84399)"><path stroke="currentColor" stroke-linecap="round" stroke-linejoin="round" stroke-width="1.5" d="m12.354 11.647 5.375 5.941c.73.807 1.987.838 2.756.069v0c.77-.77.738-2.026-.069-2.756l-5.941-5.376m-2.121 2.121 2.12-2.12m-2.12 2.12-.707.707m2.828-2.828.707-.707M16.95 7.05a1 1 0 0 0 0-1.414l-2.83-2.828a1 1 0 0 0-1.414 0v0M16.95 7.05l.353.354m-.353-.354-1.768 1.768M16.95 7.05l-4.243-4.242m0 0-.353-.354m.353.354L10.94 4.575M5.636 9.88a1 1 0 0 0 0 1.414l2.828 2.828a1 1 0 0 0 1.415 0v0M5.636 9.88l-.353-.354m.353.354 1.768-1.77M5.636 9.879 9.88 14.12m0 0 .353.354m-.353-.354 1.768-1.767m0 0L7.403 8.11m0 0 3.535-3.536m4.243 4.243-4.243-4.243M3 21h1m10 0h-1m0 0-1-3c-2.5.5-4.5.5-7 0l-1 3m9 0H4" /></g><defs><clipPath id="clip0_1556_84399"><path fill="white" d="M0 0h24v24H0z" /></clipPath></defs></svg>