<svg id="cow" xmlns="http://www.w3.org/2000/svg" fill="none" viewBox="0 0 24 24"><path stroke="currentColor" stroke-linecap="round" stroke-linejoin="round" stroke-width="1.5" d="M16.706 7.879c1.882-.97 2.353-1.94 2.823-3.879 0 0-4.537 1.455-7.529 1.455S4.47 4 4.47 4c.471 1.94.942 2.91 2.824 3.879m9.412 0c1.412.97 2.353 1.94 3.294 4.363l-1.412.485M16.706 7.88c-.47-.485-1.412-.97-2.353-.97m2.353.97v5.518M7.294 7.879c-1.412.97-2.823 1.94-3.294 4.363l1.412.485M7.294 7.88c.47-.485 1.412-.97 2.353-.97m-2.353.97v5.518m2.353-3.579v.97m4.706-.97v.97M9.176 19.03S10.588 20 12 20s2.823-.97 2.823-.97m-4.705-4.363v.485m3.764-.485v.485m2.824-1.755c-.75-.426-2.375-1.155-4.706-1.155s-3.956.729-4.706 1.155m9.412 0c.306.174.47.506.47.858v.77c0 .703-.282 1.384-.91 1.699-.8.4-2.167.852-4.266.852s-3.466-.452-4.265-.852c-.63-.315-.911-.996-.911-1.7v-.769c0-.352.164-.684.47-.858v0" /></svg>