<svg id="creditCardFront" xmlns="http://www.w3.org/2000/svg" fill="none" viewBox="0 0 24 24"><path stroke="currentColor" stroke-linecap="round" stroke-linejoin="round" stroke-width="1.5" d="M12 18H6.6c-1.5 0-2.25 0-2.776-.382a2 2 0 0 1-.442-.442C3 16.65 3 15.9 3 14.4V9.6c0-1.5 0-2.25.382-2.776a2 2 0 0 1 .442-.442C4.35 6 5.1 6 6.6 6h10.8c1.5 0 2.25 0 2.776.382q.256.187.442.442C21 7.35 21 8.1 21 9.6v4.8c0 1.5 0 2.25-.382 2.776q-.187.256-.442.442C19.65 18 18.9 18 17.4 18h-5.39M6 10v2h3v-2z" /></svg>