<svg id="creditCardBack" xmlns="http://www.w3.org/2000/svg" fill="none" viewBox="0 0 24 24"><path stroke="currentColor" stroke-linecap="round" stroke-linejoin="round" stroke-width="1.5" d="M3 14v.4c0 1.5 0 2.25.382 2.776q.187.256.442.442C4.35 18 5.1 18 6.6 18h10.8c1.5 0 2.25 0 2.776-.382q.256-.187.442-.442C21 16.65 21 15.9 21 14.4V14M3 14h18M3 14v-1m18 1v-1M3 13V9.6c0-1.5 0-2.25.382-2.776a2 2 0 0 1 .442-.442C4.35 6 5.1 6 6.6 6h10.8c1.5 0 2.25 0 2.776.382q.256.187.442.442C21 7.35 21 8.1 21 9.6V13M3 13h18" /></svg>