<svg id="croissant" xmlns="http://www.w3.org/2000/svg" fill="none" viewBox="0 0 24 24"><path stroke="currentColor" stroke-linecap="round" stroke-linejoin="round" stroke-width="1.5" d="m17.641 8.716 2.44 1.838a1.704 1.704 0 0 1-.081 2.78v0m-2.359-4.618-3.332 6.032m3.332-6.032c.317-.51.157-1.187-.381-1.454-3.392-1.683-7.129-1.683-10.52 0-.538.267-.698.944-.38 1.454v0m0 0-2.44 1.838a1.704 1.704 0 0 0 .08 2.78v0m2.36-4.618 3.33 6.032m0 0-.453.336a2.19 2.19 0 0 1-2.518.062v0m2.972-.398.71.95c.377.505.97.802 1.599.802v0c.63 0 1.222-.297 1.599-.801l.71-.951m0 0 .454.336a2.19 2.19 0 0 0 2.518.062v0m-10.562 0c-1.241.984-1.862 1.476-2.315 1.386a1 1 0 0 1-.584-.353c-.29-.36-.143-1.138.151-2.694L4 13.333m2.72 1.813L4 13.333m13.28 1.813c1.242.984 1.863 1.476 2.316 1.386a1 1 0 0 0 .584-.353c.29-.36.143-1.138-.151-2.694L20 13.333m-2.72 1.813L20 13.333" /></svg>