<svg id="cubeIsometric" xmlns="http://www.w3.org/2000/svg" fill="none" viewBox="0 0 24 24"><path stroke="currentColor" stroke-linecap="round" stroke-linejoin="round" stroke-width="1.5" d="M12 12v6.667M12 12 5.889 8.667M12 12l6.111-3.333M12 12l-1 .573M12 12l.982.573M12 12v-1m6 4.5-.857-.5m-11.254.5.873-.5M12 5v1m-3.492 8 .873-.5m5.19 0 .858.5M12 9V8m2.941-4.345 2.89 1.625c1.322.744 1.983 1.115 2.408 1.692q.21.285.356.608c.294.653.294 1.412.294 2.93v2.98c0 1.518 0 2.277-.294 2.93a3.3 3.3 0 0 1-.356.608c-.425.577-1.086.949-2.409 1.692l-2.888 1.625c-1.275.717-1.912 1.076-2.601 1.146a3.3 3.3 0 0 1-.682 0c-.69-.07-1.326-.429-2.6-1.146l-2.89-1.625c-1.322-.743-1.983-1.115-2.408-1.692a3.3 3.3 0 0 1-.356-.608c-.294-.653-.294-1.412-.294-2.93v-2.98c0-1.518 0-2.277.294-2.93q.146-.323.356-.608c.425-.577 1.086-.949 2.409-1.692l2.888-1.625c1.275-.717 1.912-1.075 2.601-1.146q.341-.036.682 0c.69.07 1.326.429 2.6 1.146" /></svg>