<svg id="currencySwap1" xmlns="http://www.w3.org/2000/svg" fill="none" viewBox="0 0 24 24"><path stroke="currentColor" stroke-linecap="round" stroke-linejoin="round" stroke-width="1.5" d="M22.5 16.5a3 3 0 0 1-3 3h-2m0 0L19 18m-1.5 1.5L19 21M1.5 7.5a3 3 0 0 1 3-3h2m0 0L5 6m1.5-1.5L5 3m4.757 2.757a6 6 0 1 1 8.486 8.486M12 12.5c0-.828-.895-1.5-2-1.5m0 0c-1.105 0-2 .75-2 1.5 0 1.657 4 1.5 4 3 0 .828-.895 1.5-2 1.5m0-6v-.5m0 6.5c-1.105 0-2-.672-2-1.5m2 1.5v.5m6-3.5a6 6 0 1 1-12 0 6 6 0 0 1 12 0" /></svg>