<svg id="dataBaseRefresh" xmlns="http://www.w3.org/2000/svg" fill="none" viewBox="0 0 24 24"><path stroke="currentColor" stroke-linecap="round" stroke-linejoin="round" stroke-width="1.5" d="M19 6c0 1.105-3.134 2-7 2s-7-.895-7-2m14 0c0-1.105-3.134-2-7-2s-7 .895-7 2m14 0v4M5 6v4m14 0c0 1.105-3.134 2-7 2s-7-.895-7-2m14 0v3M5 10v4m7 2c-3.866 0-7-.895-7-2m0 0v4c0 1.105 3.134 2 7 2m4-4.5h1.5a2.5 2.5 0 0 1 2 4m-3.5-4 1.5-1.5M16 15.5l1.5 1.5m.5 4h-1.5a2.5 2.5 0 0 1-2-4m3.5 4-1.5 1.5M18 21l-1.5-1.5" /></svg>