<svg id="dataBaseAlert" xmlns="http://www.w3.org/2000/svg" fill="none" viewBox="0 0 24 24"><path stroke="currentColor" stroke-linecap="round" stroke-linejoin="round" stroke-width="1.5" d="M19 6c0 1.105-3.134 2-7 2s-7-.895-7-2m14 0c0-1.105-3.134-2-7-2s-7 .895-7 2m14 0v4M5 6v4m14 0c0 1.105-3.134 2-7 2s-7-.895-7-2m14 0v3M5 10v4m7 2c-3.866 0-7-.895-7-2m0 0v4c0 1.105 3.134 2 7 2m4.5 0a.5.5 0 0 1-.5.5m.5-.5a.5.5 0 0 0-.5-.5m.5.5H16m0 .5a.5.5 0 0 1-.5-.5m.5.5V20m-.5 0a.5.5 0 0 1 .5-.5m-.5.5h.5m0-.5v.5m-.234-5.75L16 17.5l.234-3.25a.235.235 0 1 0-.468 0" /></svg>