<svg id="dataBaseSettings" xmlns="http://www.w3.org/2000/svg" fill="none" viewBox="0 0 24 24"><path stroke="currentColor" stroke-linecap="round" stroke-linejoin="round" stroke-width="1.5" d="M19 6c0 1.105-3.134 2-7 2s-7-.895-7-2m14 0c0-1.105-3.134-2-7-2s-7 .895-7 2m14 0v4M5 6v4m14 0c0 1.105-3.134 2-7 2s-7-.895-7-2m14 0v3M5 10v4m7 2c-3.866 0-7-.895-7-2m0 0v4c0 1.105 3.134 2 7 2m7-2h1m-1 0c0-.552-.224-1.052-.586-1.414M19 18c0 .552-.224 1.052-.586 1.414M17 20v1m0-1a2 2 0 0 1-1.414-.586M17 20c.552 0 1.052-.224 1.414-.586M15 18h-1m1 0c0-.552.224-1.052.586-1.414M15 18c0 .552.224 1.052.586 1.414M17 16v-1m0 1c.552 0 1.052.224 1.414.586M17 16c-.552 0-1.052.224-1.414.586M19 16l-.586.586M15 16l.586.586M15 20l.586-.586M19 20l-.586-.586" /></svg>