<svg id="dataBaseWireless" xmlns="http://www.w3.org/2000/svg" fill="none" viewBox="0 0 24 24"><path stroke="currentColor" stroke-linecap="round" stroke-linejoin="round" stroke-width="1.5" d="M19 6c0 1.105-3.134 2-7 2s-7-.895-7-2m14 0c0-1.105-3.134-2-7-2s-7 .895-7 2m14 0v4M5 6v4m14 0c0 1.105-3.134 2-7 2s-7-.895-7-2m14 0v3M5 10v4m7 2c-3.866 0-7-.895-7-2m0 0v4c0 1.105 3.134 2 7 2m7 .01V20m0-2.5c-.657 0-1.303.268-1.768.732A2.52 2.52 0 0 0 16.5 20M14 20c0-1.313.536-2.607 1.464-3.535A5.05 5.05 0 0 1 19 15" /></svg>