<svg id="deathStar" xmlns="http://www.w3.org/2000/svg" fill="none" viewBox="0 0 24 24"><path stroke="currentColor" stroke-linecap="round" stroke-linejoin="round" stroke-width="1.5" d="m4.055 12-1-1a9 9 0 0 1 .457-2m.543 3-1 1C5 14 7.5 14.5 7.5 14.5M4.055 12C10 13 14 13 20 12m0 0 .945-1A9 9 0 0 0 9 3.512M20 12l.945 1a9.001 9.001 0 0 1-17.433 2C4.995 16.366 7.033 17.104 9 17.445l.5-.945H12M4.516 7a9 9 0 0 1 1.14-1.384M7 4.516a9 9 0 0 0-1.344 1.1m0 0C5.771 6.077 6.4 7.2 8 8c.4-.4 1.167-.833 1.5-1l1 1.5m4.079-.568.006-.003m1.726-.997c.69 1.196.474 2.613-.482 3.165-.957.553-2.292.031-2.982-1.165s-.475-2.612.482-3.165c.956-.552 2.291-.03 2.982 1.165" /></svg>