<svg id="designerTools" xmlns="http://www.w3.org/2000/svg" fill="none" viewBox="0 0 24 24"><path stroke="currentColor" stroke-linecap="round" stroke-linejoin="round" stroke-width="1.5" d="M6.921 15.084a2.08 2.08 0 0 0-1.57.61c-.816.816-1.478 3.694-1.108 4.063.369.37 3.247-.292 4.063-1.108a2.1 2.1 0 0 0 .608-1.608m-1.993-1.957c.504.022 1 .226 1.385.61.375.375.577.856.608 1.347m-1.993-1.957C7.371 14.302 9.045 12 12 9.044c2.04-2.039 4.431-3.492 6.203-4.359.774-.378 1.49.338 1.111 1.112-.866 1.772-2.32 4.163-4.359 6.203-2.955 2.955-5.259 4.592-6.041 5.04m2.347-10.212L9.045 4.612a2.09 2.09 0 0 0-2.955 0L4.612 6.09a2.09 2.09 0 0 0 0 2.955l2.216 2.216m10.344 1.478 2.216 2.216a2.09 2.09 0 0 1 0 2.955l-1.478 1.478a2.09 2.09 0 0 1-2.955 0l-2.216-2.216" /></svg>