<svg id="devices" xmlns="http://www.w3.org/2000/svg" fill="none" viewBox="0 0 24 24"><path stroke="currentColor" stroke-linecap="round" stroke-linejoin="round" stroke-width="1.5" d="M3 13c0 .932 0 1.398.152 1.765a2 2 0 0 0 1.083 1.083C4.602 16 5.068 16 6 16h3m-6-3V7.6c0-1.5 0-2.25.382-2.776a2 2 0 0 1 .442-.442C4.35 4 5.1 4 6.6 4h8.8c1.5 0 2.25 0 2.776.382q.256.187.442.442C19 5.35 19 6.1 19 7.6v.038M3 13h9.5M9 16v4m0-4h3.5M9 20h3.5M9 20H6m11.5-8h1m-.5 6h.006M16.8 10h2.4c.75 0 1.125 0 1.388.191a1 1 0 0 1 .221.221c.191.263.191.638.191 1.388v6.4c0 .75 0 1.125-.191 1.388a1 1 0 0 1-.221.221C20.325 20 19.95 20 19.2 20h-2.4c-.75 0-1.125 0-1.388-.191a1 1 0 0 1-.221-.221C15 19.325 15 18.95 15 18.2v-6.4c0-.75 0-1.125.191-1.388a1 1 0 0 1 .221-.221C15.675 10 16.05 10 16.8 10" /></svg>