<svg id="dices" xmlns="http://www.w3.org/2000/svg" fill="none" viewBox="0 0 24 24"><path stroke="currentColor" stroke-linecap="round" stroke-linejoin="round" stroke-width="1.5" d="M8 8H6a3 3 0 0 0-3 3v7a3 3 0 0 0 3 3h7a3 3 0 0 0 3-3v-2M8 8h5a3 3 0 0 1 3 3v5M8 8V6a3 3 0 0 1 3-3h7a3 3 0 0 1 3 3v7a3 3 0 0 1-3 3h-2M6 11l.5.5m.5.5-.5-.5m5.5.5.5-.5m.5-.5-.5.5M12 17l.5.5m.5.5-.5-.5M7 17l-.5.5M6 18l.5-.5M9 15l.5-.5m.5-.5-.5.5M9 14l.5.5m0 0 .5.5m8-9-.5.5M17 7l.5-.5m-11 5L7 11m-.5.5L6 12m6.5-.5L12 11m.5.5.5.5m-.5 5.5.5-.5m-.5.5-.5.5m-5.5-.5.5.5m-.5-.5L6 17M17.5 6.5 17 6m.5.5.5.5" /></svg>