<svg id="diploma1" xmlns="http://www.w3.org/2000/svg" fill="none" viewBox="0 0 24 24"><path stroke="currentColor" stroke-linecap="round" stroke-linejoin="round" stroke-width="1.5" d="M3.748 15.222c-.614.388-1.328-.326-.94-.94a.68.68 0 0 0-.426-1.028c-.443-.1-.609-.533-.497-.882a.66.66 0 0 1 .497-.447.68.68 0 0 0 .426-1.028c-.388-.614.326-1.328.94-.94a.68.68 0 0 0 1.028-.426c.16-.708 1.169-.708 1.329 0a.68.68 0 0 0 1.028.426c.614-.388 1.328.326.94.94a.68.68 0 0 0 .426 1.028c.27.06.437.245.5.459.105.347-.062.77-.5.87a.68.68 0 0 0-.426 1.028c.388.614-.326 1.328-.94.94m-3.385 0a.68.68 0 0 1 1.028.426c.16.708 1.169.708 1.329 0a.68.68 0 0 1 1.028-.426m-3.385 0L2.958 22l2.483-1.693L7.94 22l-.808-6.778M2 8V7a3 3 0 0 1 3-3h14a3 3 0 0 1 3 3v9a3 3 0 0 1-3 3h-9m0-11h4m-3 3h7.5M11 13h6m0 3h2" /></svg>