<svg id="directory" xmlns="http://www.w3.org/2000/svg" fill="none" viewBox="0 0 24 24"><path stroke="currentColor" stroke-linecap="round" stroke-linejoin="round" stroke-width="1.5" d="M12 8a2 2 0 1 0 0-4 2 2 0 0 0 0 4m0 0v1m-7 7a2 2 0 1 0 0 4 2 2 0 0 0 0-4m0 0v-1 0c0-.932 0-1.398.152-1.765a2 2 0 0 1 1.083-1.083C6.602 12 7.068 12 8 12h1c.932 0 1.398 0 1.765-.152a2 2 0 0 0 1.083-1.083C12 10.398 12 9.932 12 9m7 7a2 2 0 1 0 0 4 2 2 0 0 0 0-4m0 0v-1 0c0-.932 0-1.398-.152-1.765a2 2 0 0 0-1.083-1.083C17.398 12 16.932 12 16 12h-1c-.932 0-1.398 0-1.765-.152a2 2 0 0 1-1.083-1.083C12 10.398 12 9.932 12 9m0 0v7m0 0a2 2 0 1 0 0 4 2 2 0 0 0 0-4" /></svg>