<svg id="discount" xmlns="http://www.w3.org/2000/svg" fill="none" viewBox="0 0 24 24"><path stroke="currentColor" stroke-linecap="round" stroke-linejoin="round" stroke-width="1.5" d="M14 10.5c0-.828-.895-1.5-2-1.5m0 0c-1.105 0-2 .75-2 1.5 0 1.657 4 1.5 4 3 0 .828-.895 1.5-2 1.5m0-6v-.5m0 6.5c-1.105 0-2-.672-2-1.5m2 1.5v.5M5.636 7.636v.9A2 2 0 0 1 5.05 9.95l-.636.636a2 2 0 0 0 0 2.828l.636.636a2 2 0 0 1 .586 1.414v.9a2 2 0 0 0 2 2h.9a2 2 0 0 1 1.414.586l.636.636a2 2 0 0 0 2.828 0l.636-.636a2 2 0 0 1 1.414-.586h.9a2 2 0 0 0 2-2v-.9a2 2 0 0 1 .586-1.414l.636-.636a2 2 0 0 0 0-2.828l-.636-.636a2 2 0 0 1-.586-1.415v-.899a2 2 0 0 0-2-2h-.9a2 2 0 0 1-1.414-.586l-.636-.636a2 2 0 0 0-2.828 0l-.636.636a2 2 0 0 1-1.414.586h-.9a2 2 0 0 0-2 2" /></svg>