<svg id="discountValue" xmlns="http://www.w3.org/2000/svg" fill="none" viewBox="0 0 24 24"><path stroke="currentColor" stroke-linecap="round" stroke-linejoin="round" stroke-width="1.5" d="m9.95 5.05.636-.636a2 2 0 0 1 2.828 0l.636.636a2 2 0 0 0 1.414.586h.9a2 2 0 0 1 2 2v.9a2 2 0 0 0 .586 1.414l.636.636a2 2 0 0 1 0 2.828l-.636.636a2 2 0 0 0-.586 1.414v.9a2 2 0 0 1-2 2h-.9a2 2 0 0 0-1.414.586l-.636.636a2 2 0 0 1-2.828 0l-.636-.636a2 2 0 0 0-1.414-.586h-.9a2 2 0 0 1-2-2v-.9a2 2 0 0 0-.586-1.414l-.636-.636a2 2 0 0 1 0-2.828l.636-.636a2 2 0 0 0 .586-1.414v-.9a2 2 0 0 1 2-2h.9A2 2 0 0 0 9.95 5.05" /><path fill="currentColor" d="M9.455 15.096q-.648 0-1.128-.216-.48-.225-.744-.6a1.5 1.5 0 0 1-.264-.872q0-.424.16-.752a1.45 1.45 0 0 1 1.088-.808l-.024.264a1.16 1.16 0 0 1-.552-.248 1.4 1.4 0 0 1-.352-.488q-.12-.288-.12-.592 0-.456.24-.808.248-.36.68-.56a2.35 2.35 0 0 1 1.016-.208q.576 0 1.008.208.432.2.672.56.248.352.248.808 0 .304-.12.592a1.3 1.3 0 0 1-.352.488q-.225.192-.544.248l-.032-.264a1.5 1.5 0 0 1 .648.272q.288.208.448.536t.16.752q0 .488-.264.872-.264.375-.744.6-.48.216-1.128.216m0-1.312a.62.62 0 0 0 .544-.296.65.65 0 0 0 .08-.32.58.58 0 0 0-.304-.528.6.6 0 0 0-.32-.08.66.66 0 0 0-.328.08.6.6 0 0 0-.296.528q0 .176.08.32.08.136.216.216.144.08.328.08m0-2.336a.454.454 0 0 0 .472-.464.47.47 0 0 0-.136-.344.43.43 0 0 0-.336-.144.466.466 0 0 0-.48.472q0 .2.136.344.135.135.344.136m5.089 3.648q-.648 0-1.128-.216-.48-.225-.744-.6a1.5 1.5 0 0 1-.264-.872q0-.424.16-.752t.44-.536q.288-.209.648-.272l-.024.264a1.16 1.16 0 0 1-.552-.248 1.4 1.4 0 0 1-.352-.488q-.12-.288-.12-.592 0-.456.24-.808.248-.36.68-.56a2.35 2.35 0 0 1 1.016-.208q.576 0 1.008.208.432.2.672.56.248.352.248.808 0 .304-.12.592a1.3 1.3 0 0 1-.352.488q-.224.192-.544.248l-.032-.264a1.5 1.5 0 0 1 .648.272q.288.208.448.536t.16.752q0 .488-.264.872-.264.375-.744.6-.48.216-1.128.216m0-1.312a.62.62 0 0 0 .544-.296.65.65 0 0 0 .08-.32.58.58 0 0 0-.304-.528.6.6 0 0 0-.32-.08.66.66 0 0 0-.328.08.6.6 0 0 0-.296.528q0 .176.08.32.08.136.216.216.144.08.328.08m0-2.336a.454.454 0 0 0 .472-.464.47.47 0 0 0-.136-.344.43.43 0 0 0-.336-.144.466.466 0 0 0-.48.472q0 .2.136.344.135.135.344.136" /></svg>