<svg id="dna" xmlns="http://www.w3.org/2000/svg" fill="none" viewBox="0 0 24 24"><path stroke="currentColor" stroke-linecap="round" stroke-linejoin="round" stroke-width="1.5" d="M6.016 20v-.155c0-.284-.036-.566 0-.845M17.984 4v.155c0 .284.036.566 0 .845M6.016 4v.155c0 2.43 1.322 4.729 3.593 6.247l.147.098m8.228 9.5v-.155c0-2.43-1.322-4.729-3.593-6.247l-.147-.098m3.74-8.5H9m8.984 0c-.134 1.06-.574 2.078-1.178 3m0 0a8.55 8.55 0 0 1-2.415 2.402l-4.782 3.196A8.55 8.55 0 0 0 7.194 16m9.612-8h-5.803m-3.809 8h5.803m-5.803 0c-.604.922-1.044 1.94-1.178 3m0 0H15" /></svg>