<svg id="dock" xmlns="http://www.w3.org/2000/svg" fill="none" viewBox="0 0 24 24"><path stroke="currentColor" stroke-linecap="round" stroke-linejoin="round" stroke-width="1.5" d="M20 16c0 .93 0 1.395-.102 1.776a3 3 0 0 1-2.122 2.122C17.396 20 16.93 20 16 20H8c-.93 0-1.395 0-1.776-.102a3 3 0 0 1-2.122-2.122C4 17.396 4 16.93 4 16v0m16 0V9.4c0-2.25 0-3.375-.573-4.163a3 3 0 0 0-.664-.664C17.975 4 16.85 4 14.6 4H9.4c-2.25 0-3.375 0-4.163.573a3 3 0 0 0-.664.664C4 6.025 4 7.15 4 9.4V16m16 0H4" /></svg>