<svg id="dog" xmlns="http://www.w3.org/2000/svg" fill="none" viewBox="0 0 24 24"><path stroke="currentColor" stroke-linecap="round" stroke-linejoin="round" stroke-width="1.5" d="M12 16.5c-1.572 1.111-3.39 1.353-5.123-.379-.868-.867-1.009-1.876-.723-2.83q.085-.275.211-.542c.313-.656.469-.984.494-1.049.178-.452.1-.107.134-.593.005-.07.005-.415.005-1.107v0a5 5 0 0 1 2.518-4.34M12 16.5c1.572 1.111 3.39 1.353 5.123-.379.895-.894 1.017-1.94.694-2.92a4 4 0 0 0-.182-.452 48 48 0 0 1-.494-1.049c-.178-.452-.1-.107-.134-.593-.005-.07-.005-.415-.005-1.107v0a5 5 0 0 0-2.518-4.34M12 16.5l-.51-.34c-.356-.237-.534-.356-.53-.468a.2.2 0 0 1 .03-.096c.058-.096.272-.096.699-.096h.622c.427 0 .64 0 .7.096a.2.2 0 0 1 .029.096c.004.112-.174.23-.53.468zM9.5 12v1.5m5-1.5v1.5m-4 4v1A1.5 1.5 0 0 0 12 20v0a1.5 1.5 0 0 0 1.5-1.5v-1m-9.932-3.72c-1.05-.735-.603-3.182.997-5.467.747-1.067 3.413-4.19 4.95-2.654m10.917 8.121c1.05-.735.603-3.182-.997-5.467-.747-1.067-3.413-4.19-4.95-2.654m-4.97 0A5 5 0 0 1 12 5c.904 0 1.752.24 2.484.66" /></svg>