<svg id="doubleHalberd" xmlns="http://www.w3.org/2000/svg" fill="none" viewBox="0 0 24 24"><g clip-path="url(#clip0_1556_84679)"><path stroke="currentColor" stroke-linecap="round" stroke-linejoin="round" stroke-width="1.5" d="m18.718 18.718.353 1.06 1.414.707-.707-1.414zm0 0L12 12M8.464 8.464 5.99 8.111 3.515 3.515 8.11 5.99zm0 0 .708.708m0 0c-1.768 1.767-3.536 2.12-5.657 1.414 0 0-1.061 3.182 1.414 5.657s5.657 1.414 5.657 1.414C9.879 15.536 10.232 13.767 12 12M9.172 9.172 12 12M9.172 9.172c1.767-1.768 2.12-3.536 1.414-5.657 0 0 3.182-1.06 5.657 1.414s1.414 5.657 1.414 5.657C15.536 9.879 13.767 10.232 12 12" /></g><defs><clipPath id="clip0_1556_84679"><path fill="white" d="M0 0h24v24H0z" /></clipPath></defs></svg>