<svg id="dream" xmlns="http://www.w3.org/2000/svg" fill="none" viewBox="0 0 24 24"><path stroke="currentColor" stroke-linecap="round" stroke-linejoin="round" stroke-width="1.5" d="M3 11v8m0 1v-1m0 0h8m10 0v1m0-1v-1a3 3 0 0 0-3-3h-6a1 1 0 0 0-1 1v3m10 0H11m-3-3.5a1.5 1.5 0 1 1-3 0 1.5 1.5 0 0 1 3 0m6.306-5.58a3.03 3.03 0 0 0 3-1C19.144 9.354 21 7.911 21 6c0-2.266-2.538-3.705-4.471-2.615-.828-1.293-2.561-1.753-3.915-1.046-1.85-.817-4.107-.07-5.104 1.704C5.716 3.736 4 5.163 4 7c0 2.113 2.238 3.569 4.154 2.77.055.133-.154.546-.154.73 0 1.753 2.6 2.018 2.966.317a3.03 3.03 0 0 0 3.34-.898" /></svg>