<svg id="drill" xmlns="http://www.w3.org/2000/svg" fill="none" viewBox="0 0 24 24"><path stroke="currentColor" stroke-linecap="round" stroke-linejoin="round" stroke-width="1.5" d="M18 11a2.648 2.648 0 0 0 2.628-2.977l-.3-2.395A3 3 0 0 0 17.353 3H8a1 1 0 0 0-1 1v0m11 7 2 6m-2-6h-5m7 6c.588 0 1.1.4 1.242.97l.447 1.788A1 1 0 0 1 20.72 21h-6.023a.89.89 0 0 1-.865-.675l-.346-1.385A1.562 1.562 0 0 1 15 17v0m5 0h-5m0 0-1-3m-1-3 1 3m-1-3h-3m4 3h-.838a3 3 0 0 1-2.846-2.051L10 11m0 0H9a2 2 0 0 1-2-2v0m0 0H5L3.5 8V6.5M7 9V4m0 0H5L3.5 5v1.5m0 0H2" /></svg>