<svg id="drone" xmlns="http://www.w3.org/2000/svg" fill="none" viewBox="0 0 24 24"><path stroke="currentColor" stroke-linecap="round" stroke-linejoin="round" stroke-width="1.5" d="M14 17v.5a3.5 3.5 0 0 0 3.5 3.5v0a3.5 3.5 0 0 0 3.5-3.5v0a3.5 3.5 0 0 0-3.5-3.5H17M7 14h-.5A3.5 3.5 0 0 0 3 17.5v0A3.5 3.5 0 0 0 6.5 21v0a3.5 3.5 0 0 0 3.5-3.5V17m4-10v-.5A3.5 3.5 0 0 1 17.5 3v0A3.5 3.5 0 0 1 21 6.5v0a3.5 3.5 0 0 1-3.5 3.5H17m-7-3v-.5A3.5 3.5 0 0 0 6.5 3v0A3.5 3.5 0 0 0 3 6.5v0A3.5 3.5 0 0 0 6.5 10H7m0-3c3.5 4 3.5 6 0 10 1.13-.988 2.1-1.697 3-2.128 1.5.628 2.5.628 4 0 .9.43 1.87 1.14 3 2.128-3.5-4-3.5-6 0-10-1.13.988-2.1 1.697-3 2.128-1.5-.628-2.5-.628-4 0-.9-.43-1.87-1.14-3-2.128" /></svg>