<svg id="earthAmerica" xmlns="http://www.w3.org/2000/svg" fill="none" viewBox="0 0 24 24"><path stroke="currentColor" stroke-linecap="round" stroke-linejoin="round" stroke-width="1.5" d="M6.938 4.558a9 9 0 1 0 6.188-1.488M6.937 4.558A8.96 8.96 0 0 1 12 3q.572 0 1.125.07M6.938 4.558l-.373 2.691c-.122.881.11 1.775.643 2.487l.256.34c.388.519.935.895 1.558 1.073l1.903.544c.586.167.914.79.722 1.367v0a1.07 1.07 0 0 0 .258 1.095l.685.685a2.64 2.64 0 0 1 .671 2.59l-.156.545c-.155.545.5.952.92.57l4.512-4.101a.225.225 0 0 0-.027-.354l-2.285-1.523A3.4 3.4 0 0 0 14.353 12h-1.346c-.292 0-.58-.068-.842-.199v0c-1.31-.655-1.405-2.489-.17-3.275l1.643-1.046a1.055 1.055 0 0 0-.174-1.87l-.378-.15a.613.613 0 0 0-.776.294v0a.613.613 0 0 1-.888.236l-.18-.12a.804.804 0 0 1-.046-1.305l1.929-1.495" /></svg>