<svg id="earthEurope" xmlns="http://www.w3.org/2000/svg" fill="none" viewBox="0 0 24 24"><path stroke="currentColor" stroke-linecap="round" stroke-linejoin="round" stroke-width="1.5" d="M3.07 13.125a9 9 0 0 1 11.18-9.841M3.07 13.125l.353.182a3.38 3.38 0 0 1 1.827 3v1.646m-2.18-4.828a8.96 8.96 0 0 0 2.18 4.828m0 0a9.002 9.002 0 0 0 15.68-4.828m0 0a9.004 9.004 0 0 0-6.68-9.841m6.68 9.841-1.912-2.96a1.12 1.12 0 0 0-.756-.496l-.24-.04c-.93-.155-1.56.918-.971 1.654v0c.327.408.294.997-.076 1.367l-1.255 1.255a3 3 0 0 0-.563.782l-.685 1.368a1.5 1.5 0 0 1-.666.667v0a1.49 1.49 0 0 1-2.138-1.088l-.123-.738a2.05 2.05 0 0 0-.57-1.109l-.405-.405a2.05 2.05 0 0 0-1.945-.538l-.353.088c-.479.12-.986-.02-1.335-.37v0a1.4 1.4 0 0 1-.37-1.334l.104-.41c.167-.67.647-1.22 1.288-1.477l.778-.31a3.38 3.38 0 0 1 2.072-.141l.967.241a.9.9 0 0 0 .448 0l.29-.072a.791.791 0 0 0 .248-1.426v0a.8.8 0 0 0-.44-.133h-2.27a.73.73 0 0 1-.516-.214v0a.73.73 0 0 1 .34-1.224l.768-.192q.232-.058.421-.2l3.185-2.386" /></svg>