<svg id="earthAsia" xmlns="http://www.w3.org/2000/svg" fill="none" viewBox="0 0 24 24"><path stroke="currentColor" stroke-linecap="round" stroke-linejoin="round" stroke-width="1.5" d="M9.75 13.688c.37.37.82.648 1.317.814l.933.31m3.938-5.062a3.04 3.04 0 0 0 1.522-1.756l.165-.494M3.07 13.125A9.002 9.002 0 0 0 21 12a9 9 0 0 0-4.64-7.875m-13.29 9a9 9 0 0 1 13.29-9m-13.29 9 .758-1.581a1.25 1.25 0 0 1 2.102-.24v0a1.25 1.25 0 0 0 1.975-.032l.026-.034a1.283 1.283 0 0 1 1.686-.33l1.466.88a.53.53 0 0 0 .647-.08v0a.53.53 0 0 0 .1-.612l-.036-.07a.64.64 0 0 1 .417-.907l.625-.156c.5-.125.851-.575.851-1.09v0c0-.484.31-.914.769-1.067l.209-.07a1.43 1.43 0 0 0 .92-.955l.775-2.656m-1.126 13.64.338.113a1.28 1.28 0 0 0 1.47-.504v0a1.28 1.28 0 0 0-.16-1.616l-.155-.156a1.55 1.55 0 0 0-1.788-.29l-1.637.819a.95.95 0 0 0-.478 1.153v0a.95.95 0 0 0 1.205.602l.362-.12c.274-.092.57-.092.843 0" /></svg>