<svg id="emailSend" xmlns="http://www.w3.org/2000/svg" fill="none" viewBox="0 0 24 24"><path stroke="currentColor" stroke-linecap="round" stroke-linejoin="round" stroke-width="1.5" d="m17 9-1.182 1.182c-1.59 1.59-2.386 2.386-3.349 2.538-.31.05-.627.05-.938 0-.963-.152-1.758-.947-3.35-2.538L7 9m4 9H9.4c-2.25 0-3.375 0-4.163-.573a3 3 0 0 1-.664-.664C4 15.975 4 14.85 4 12.6v-1.2c0-2.25 0-3.375.573-4.163a3 3 0 0 1 .664-.664C6.025 6 7.15 6 9.4 6H16c.93 0 1.395 0 1.776.102a3 3 0 0 1 2.122 2.122C20 8.605 20 9.07 20 10m-4.312 7.313c.55 1.652.826 2.479 1.296 2.638a1 1 0 0 0 .607.011c.476-.142.782-.957 1.394-2.588l.625-1.666c.527-1.406.79-2.11.53-2.527a1 1 0 0 0-.32-.321c-.419-.26-1.122.003-2.528.53l-1.666.625c-1.63.612-2.446.918-2.588 1.394a1 1 0 0 0 .01.607c.16.47.987.746 2.64 1.297m0 0L19.5 13.5" /></svg>