<svg id="emailEdit" xmlns="http://www.w3.org/2000/svg" fill="none" viewBox="0 0 24 24"><path stroke="currentColor" stroke-linecap="round" stroke-linejoin="round" stroke-width="1.5" d="m17 9-1.182 1.182c-1.59 1.59-2.386 2.386-3.349 2.538-.31.05-.627.05-.938 0-.963-.152-1.758-.947-3.35-2.538L7 9m4 9H9.4c-2.25 0-3.375 0-4.163-.573a3 3 0 0 1-.664-.664C4 15.975 4 14.85 4 12.6v-1.2c0-2.25 0-3.375.573-4.163a3 3 0 0 1 .664-.664C6.025 6 7.15 6 9.4 6H16c.93 0 1.395 0 1.776.102a3 3 0 0 1 2.122 2.122C20 8.605 20 9.07 20 10m-6 7.5v2h2l4-4a1.414 1.414 0 0 0 0-2v0a1.414 1.414 0 0 0-2 0z" /></svg>