<svg id="emailReply1" xmlns="http://www.w3.org/2000/svg" fill="none" viewBox="0 0 24 24"><path stroke="currentColor" stroke-linecap="round" stroke-linejoin="round" stroke-width="1.5" d="m17 9-.5.5M7 9l3.5 3.5M13 18H9.4c-2.25 0-3.375 0-4.163-.573a3 3 0 0 1-.664-.664C4 15.975 4 14.85 4 12.6v-1.2c0-2.25 0-3.375.573-4.163a3 3 0 0 1 .664-.664C6.025 6 7.15 6 9.4 6H16c.93 0 1.395 0 1.776.102a3 3 0 0 1 2.122 2.122C20 8.605 20 9.07 20 10m-4 3h2.5a2.5 2.5 0 0 1 0 5H16m0-5 1.5-1.5M16 13l1.5 1.5m-3-3L13 13l1.5 1.5" /></svg>