<svg id="email" xmlns="http://www.w3.org/2000/svg" fill="none" viewBox="0 0 24 24"><path stroke="currentColor" stroke-linecap="round" stroke-linejoin="round" stroke-width="1.5" d="m17 9-1.182 1.182c-1.59 1.59-2.386 2.386-3.349 2.538-.31.05-.627.05-.938 0-.963-.152-1.758-.947-3.35-2.538L7 9m13 2.4v1.2c0 2.25 0 3.375-.573 4.163q-.28.384-.664.664C17.975 18 16.85 18 14.6 18H9.4c-2.25 0-3.375 0-4.163-.573a3 3 0 0 1-.664-.664C4 15.975 4 14.85 4 12.6v-1.2c0-2.25 0-3.375.573-4.163a3 3 0 0 1 .664-.664C6.025 6 7.15 6 9.4 6h5.2c2.25 0 3.375 0 4.163.573.255.185.479.409.664.664C20 8.025 20 9.15 20 11.4" /></svg>