<svg id="emailReply" xmlns="http://www.w3.org/2000/svg" fill="none" viewBox="0 0 24 24"><path stroke="currentColor" stroke-linecap="round" stroke-linejoin="round" stroke-width="1.5" d="m7 9 1.182 1.182c1.59 1.59 2.386 2.386 3.349 2.538.31.05.627.05.938 0 .963-.152 1.758-.947 3.35-2.538L17 9m-2.333 9c2.186 0 3.279 0 4.054-.543.287-.2.536-.45.736-.736.543-.775.543-1.868.543-4.054V11.4c0-2.25 0-3.375-.573-4.163a3 3 0 0 0-.664-.664C17.975 6 16.85 6 14.6 6H9.4c-2.25 0-3.375 0-4.163.573a3 3 0 0 0-.664.664C4 8.025 4 9.15 4 11.4v3.1m8 3.5H6.667m0 0 2.5 2m-2.5-2 2.5-2M6 20l-2.5-2L6 16" /></svg>