<svg id="emailReceived" xmlns="http://www.w3.org/2000/svg" fill="none" viewBox="0 0 24 24"><path stroke="currentColor" stroke-linecap="round" stroke-linejoin="round" stroke-width="1.5" d="m17 9-1.181 1.182c-1.591 1.59-2.387 2.386-3.35 2.538-.31.05-.627.05-.938 0-.963-.152-1.758-.947-3.35-2.538L7.002 9M12 18H9.4c-2.25 0-3.375 0-4.163-.573a3 3 0 0 1-.664-.664C4 15.975 4 14.85 4 12.6v-1.2c0-2.25 0-3.375.573-4.163a3 3 0 0 1 .664-.664C6.025 6 7.15 6 9.4 6h5.2c2.25 0 3.375 0 4.163.573.255.185.48.409.664.664C20 8.025 20 9.15 20 11.4v3.1M14.667 18H20m-5.333 0 2.5 2m-2.5-2 2.5-2" /></svg>