<svg id="emailOpen2" xmlns="http://www.w3.org/2000/svg" fill="none" viewBox="0 0 24 24"><path stroke="currentColor" stroke-linecap="round" stroke-linejoin="round" stroke-width="1.5" d="M18 10V6.6c0-1.5 0-2.25-.382-2.776a2 2 0 0 0-.442-.442C16.65 3 15.9 3 14.4 3H9.6c-1.5 0-2.25 0-2.776.382a2 2 0 0 0-.442.442C6 4.35 6 5.1 6 6.6V10m2.5-4h7m-7 3H12m-3.405 3.733-1.66-1.348c-1.12-.91-1.68-1.365-2.152-1.26a1 1 0 0 0-.404.192C4 10.617 4 11.339 4 12.782V15.6c0 2.25 0 3.375.573 4.163.185.255.409.479.664.664C6.025 21 7.15 21 9.4 21h5.2c2.25 0 3.375 0 4.163-.573q.384-.28.664-.664C20 18.975 20 17.85 20 15.6v-2.818c0-1.443 0-2.165-.38-2.465a1 1 0 0 0-.403-.192c-.472-.105-1.032.35-2.152 1.26l-1.66 1.348c-1.443 1.173-2.165 1.76-2.997 1.874-.27.037-.545.037-.816 0-.832-.114-1.554-.7-2.997-1.874" /></svg>