<svg id="engine" xmlns="http://www.w3.org/2000/svg" fill="none" viewBox="0 0 24 24"><path stroke="currentColor" stroke-linecap="round" stroke-linejoin="round" stroke-width="1.5" d="M18 12.5v.8c0 1.175 0 1.763-.204 2.287q-.1.26-.248.497c-.298.478-.768.83-1.708 1.536l-.4.3c-.634.475-.95.713-1.31.86q-.18.072-.366.121C13.388 19 12.992 19 12.2 19H8.4c-2.25 0-3.375 0-4.163-.573a3 3 0 0 1-.664-.664C3 16.975 3 15.85 3 13.6v-1.2c0-2.25 0-3.375.573-4.163a3 3 0 0 1 .664-.664C5.025 7 6.15 7 8.4 7H10m8 5.5v-.264c0-1.34 0-2.01-.252-2.585a3 3 0 0 0-.443-.717c-.402-.482-1.001-.782-2.2-1.381v0c-.47-.235-.704-.352-.953-.427a3 3 0 0 0-.344-.081C13.552 7 13.289 7 12.764 7H10m8 5.5h3m0 0V10m0 2.5V15m-10.5-5-2 3h3l-2 3m.5-9V4m0 0H8m2 0h2" /></svg>