<svg id="eventInProgress" xmlns="http://www.w3.org/2000/svg" fill="none" viewBox="0 0 24 24"><path stroke="currentColor" stroke-linecap="round" stroke-linejoin="round" stroke-width="1.5" d="M7.5 12h-1l1 1m0-1v1m0-1h1m-1 1 1 1m0-2v2m0-2h1m-1 2 1 1m0-3v3m0-3h1m-1 3 1 1m0-4v4m0-4h1m-1 4 1 1m0-5v5m0-5h1m-1 5 .5.5.5-.5m0-5v5m0-5h1m-1 5 1-1m0-4v4m0-4h1m-1 4 1-1m0-3v3m0-3h1m-1 3 1-1m0-2v2m0-2h1m-1 2 1-1m0-1h1l-1 1m0-1v1m2.379-3.121L14.12 5.12a3 3 0 0 0-4.242 0L5.12 9.88a3 3 0 0 0 0 4.242l4.76 4.758a3 3 0 0 0 4.242 0l4.758-4.758a3 3 0 0 0 0-4.242" /></svg>