<svg id="eventCompleted" xmlns="http://www.w3.org/2000/svg" fill="none" viewBox="0 0 24 24"><path stroke="currentColor" stroke-linecap="round" stroke-linejoin="round" stroke-width="1.5" d="m7 11.5-.5.5 5.5 5.5.5-.5M7 11.5l5.5 5.5M7 11.5l.5-.5m5 6 .5-.5m-5-6 5.5 5.5M8 10.5l.5-.5m-.5.5-.5.5m6 5 .5-.5m-.5.5-.5.5m-4-7 5.5 5.5M9 9.5l.5-.5m-.5.5-.5.5m6 5 .5-.5m-.5.5-.5.5m-4-7 5.5 5.5M10 8.5l.5-.5m-.5.5-.5.5m6 5 .5-.5m-.5.5-.5.5m-4-7 5.5 5.5M11 7.5l.5-.5m-.5.5-.5.5m6 5 .5-.5m-.5.5-.5.5M11.5 7l.5-.5 5.5 5.5-.5.5M11.5 7l5.5 5.5M10.5 8l5.5 5.5M9.5 9l5.5 5.5M8.5 10l5.5 5.5M7.5 11l5.5 5.5m5.879-6.621L14.12 5.12a3 3 0 0 0-4.242 0L5.12 9.88a3 3 0 0 0 0 4.242l4.76 4.758a3 3 0 0 0 4.242 0l4.758-4.758a3 3 0 0 0 0-4.242" /></svg>