<svg id="exclude" xmlns="http://www.w3.org/2000/svg" fill="none" viewBox="0 0 24 24"><path stroke="currentColor" stroke-linecap="round" stroke-linejoin="round" stroke-width="1.5" d="M16 8h2m-2 0V6m0 2v1m0-1h-1m-7 8v2a3 3 0 0 0 3 3h2m-5-5H6a3 3 0 0 1-3-3v-2m5 5 5 5m-5-5h3m-3 0-5-5m5 5v-3m13-2a3 3 0 0 0-3-3m3 3v3m0-3-3-3m-5-5a3 3 0 0 1 3 3m-3-3 3 3m-3-3h-3m3 18h3m0 0h2a3 3 0 0 0 .872-.128M16 21l-5-5m0 0h2a3 3 0 0 0 .871-.129M3 11V8m0 0V6a3 3 0 0 1 .129-.871M3 8l5 5m0 0v-2a3 3 0 0 1 .129-.871m10.743 10.743-5-5m5 5a3 3 0 0 0 1.69-1.31m-6.69-3.69a3 3 0 0 0 1.69-1.31m0 0c.278-.455.438-.99.438-1.562v-1m-.438 2.562 5 5m0 0c.278-.455.438-.99.438-1.562v-1m0 0-5-5m5 5v-3m-5-2V9m0 0 5 5M10 3l5 5m-5-5H7m8 5h-3M7 3H6c-.572 0-1.107.16-1.562.438M7 3l5 5m0 0h-1c-.572 0-1.107.16-1.562.438m-5-5c-.621.38-1.094.98-1.31 1.69m1.31-1.69 5 5m0 0c-.621.38-1.094.98-1.31 1.69m-5-5 5 5" /></svg>