<svg id="facebookCode" xmlns="http://www.w3.org/2000/svg" fill="none" viewBox="0 0 24 24"><path stroke="currentColor" stroke-linecap="round" stroke-linejoin="round" stroke-width="1.5" d="M22 12c0-.937-.129-1.844-.37-2.704M12 22q.114 0 .227-.003M12 2q.105 0 .207.002M20 12q0-.508-.062-1M12 20q-.137 0-.272-.005M4 12q0 .252.015.5M15 2.458q.513.16 1 .374M18.001 4c.757.569 1.43 1.243 1.999 2m.932 1.5.056.111M21.8 14a10 10 0 0 1-.507 1.7M9 2.459l-.131.042M7 3.338Q6.48 3.639 6 4M4.86 5q-.463.471-.86 1M2.458 9l-.068.224M2.05 11a10 10 0 0 0 0 2m.408 2q.08.253.172.5m1.017 2c.355.539.762 1.04 1.212 1.5M7 20.662l.209.118m2.291.905q.49.126 1 .203m4-.203q.252-.065.5-.143m2.5-1.189q.255-.169.5-.353m1.517-1.405.1-.115M11 4.062a8 8 0 0 0-2 .52m4-.52q.51.063 1 .19M7.5 5.385l-.095.066M5.385 7.5a8 8 0 0 0-.315.5m-.488 7c.214.53.484 1.033.803 1.5M7 18.245q.473.38 1 .685m6 .818a8 8 0 0 0 1-.33m2.767-1.873q.082-.086.162-.173m.993-1.359.078-.137M19.419 9a8 8 0 0 0-.223-.5M16 5.07l.21.126M13 12a1 1 0 1 1-2 0 1 1 0 0 1 2 0m3 0a4 4 0 1 1-8 0 4 4 0 0 1 8 0" /></svg>