<svg id="file" xmlns="http://www.w3.org/2000/svg" fill="none" viewBox="0 0 24 24"><path stroke="currentColor" stroke-linecap="round" stroke-linejoin="round" stroke-width="1.5" d="M13 4v1.4c0 1.5 0 2.25.382 2.776q.187.256.442.442C14.35 9 15.1 9 16.6 9H18m-5-5 5 5m-5-5h-1.6c-2.25 0-3.375 0-4.163.573a3 3 0 0 0-.664.664C6 6.025 6 7.15 6 9.4v5.2c0 2.25 0 3.375.573 4.163.185.255.409.479.664.664C8.025 20 9.15 20 11.4 20h1.2c2.25 0 3.375 0 4.163-.573q.384-.28.664-.664C18 17.975 18 16.85 18 14.6V9" /></svg>