<svg id="fileZip" xmlns="http://www.w3.org/2000/svg" fill="none" viewBox="0 0 24 24"><path stroke="currentColor" stroke-linecap="round" stroke-linejoin="round" stroke-width="1.5" d="M14 4v2.2c0 .75 0 1.125.191 1.388a1 1 0 0 0 .221.221C14.675 8 15.05 8 15.8 8H18m-4-4 4 4m-4-4H9.5M18 8v6.6c0 2.25 0 3.375-.573 4.163q-.28.384-.664.664C15.975 20 14.85 20 12.6 20h-1.2c-2.25 0-3.375 0-4.163-.573a3 3 0 0 1-.664-.664C6 17.975 6 16.85 6 14.6V7.5c0-.464 0-.697.026-.892a3 3 0 0 1 2.582-2.582C8.803 4 9.036 4 9.5 4m0 0v1.5m0 2.5v1m0 3v1m0 3v1" /></svg>