<svg id="fileCopy" xmlns="http://www.w3.org/2000/svg" fill="none" viewBox="0 0 24 24"><path stroke="currentColor" stroke-linecap="round" stroke-linejoin="round" stroke-width="1.5" d="m11 7 4 4m-4-4H8m3 0c-.368 1.84-.552 2.76-.215 3.392a2 2 0 0 0 .823.823c.632.337 1.552.153 3.392-.215m0 0v6m0-14 4 4m-4-4h-3.4c-1.5 0-2.25 0-2.776.382a2 2 0 0 0-.442.442C8 4.35 8 5.1 8 6.6V7m7-4c-.368 1.84-.552 2.76-.215 3.392a2 2 0 0 0 .823.823C16.24 7.552 17.16 7.368 19 7m0 0v6.4c0 1.5 0 2.25-.382 2.776q-.187.256-.442.442C17.65 17 16.9 17 15.4 17H15m0 0v.4c0 1.5 0 2.25-.382 2.776q-.187.256-.442.442C13.65 21 12.9 21 11.4 21H7.6c-1.5 0-2.25 0-2.776-.382a2 2 0 0 1-.442-.442C4 19.65 4 18.9 4 17.4v-6.8c0-1.5 0-2.25.382-2.776a2 2 0 0 1 .442-.442C5.35 7 6.1 7 7.6 7H8" /></svg>