<svg id="fileDrop" xmlns="http://www.w3.org/2000/svg" fill="none" viewBox="0 0 24 24"><path stroke="currentColor" stroke-linecap="round" stroke-linejoin="round" stroke-width="1.5" d="m11 8 3 3m-3-3H7m4 0c-.167.67-.251 1.004-.251 1.25a2 2 0 0 0 2.001 2.001c.246 0 .58-.084 1.25-.251m0 0v5m0 0v1.4c0 1.5 0 2.25-.382 2.776q-.187.256-.442.442C12.65 21 11.9 21 10.4 21H7.6c-1.5 0-2.25 0-2.776-.382a2 2 0 0 1-.442-.442C4 19.65 4 18.9 4 17.4V11c0-.932 0-1.398.152-1.765a2 2 0 0 1 1.083-1.083C5.602 8 6.068 8 7 8m7 8h1M7 8V7m6-5h2m6 6v2M7 3.5A1.5 1.5 0 0 1 8.5 2m11 0A1.5 1.5 0 0 1 21 3.5m0 11a1.5 1.5 0 0 1-1.5 1.5" /></svg>