<svg id="fileSwap" xmlns="http://www.w3.org/2000/svg" fill="none" viewBox="0 0 24 24"><path stroke="currentColor" stroke-linecap="round" stroke-linejoin="round" stroke-width="1.5" d="M13 16v-3.509c0-.653 0-.98-.098-1.28a2 2 0 0 0-.12-.29c-.144-.283-.375-.514-.836-.975L11 9m2 7v1.4c0 1.5 0 2.25-.382 2.776q-.187.256-.442.442C11.65 21 10.9 21 9.4 21H6.6c-1.5 0-2.25 0-2.776-.382a2 2 0 0 1-.442-.442C3 19.65 3 18.9 3 17.4v-5.8c0-1.5 0-2.25.382-2.776a2 2 0 0 1 .442-.442C4.35 8 5.1 8 6.6 8h1.986c.577 0 .865 0 1.134.077q.222.063.424.175c.244.136.448.34.856.748v0m2 7h4.4c1.5 0 2.25 0 2.776-.382q.256-.187.442-.442C21 14.65 21 13.9 21 12.4V7.491c0-.653 0-.98-.098-1.28a2 2 0 0 0-.12-.29c-.144-.283-.375-.514-.836-.975l-.892-.892c-.461-.461-.692-.692-.974-.836a2 2 0 0 0-.29-.12C17.488 3 17.162 3 16.509 3H14.6c-1.5 0-2.25 0-2.776.382q-.256.187-.442.442C11 4.35 11 5.1 11 6.6V9m10 10v.2c0 .75 0 1.125-.191 1.388a1 1 0 0 1-.221.221C20.325 21 19.95 21 19.2 21H16m0 0 1.5-1.5M16 21l1.5 1.5M3 5v-.2c0-.75 0-1.125.191-1.388a1 1 0 0 1 .221-.221C3.675 3 4.05 3 4.8 3H8m0 0L6.5 4.5M8 3 6.5 1.5" /></svg>