<svg id="fileInsert" xmlns="http://www.w3.org/2000/svg" fill="none" viewBox="0 0 24 24"><path stroke="currentColor" stroke-linecap="round" stroke-linejoin="round" stroke-width="1.5" d="M16 2v3.2c0 .75 0 1.125.191 1.388a1 1 0 0 0 .221.221C16.675 7 17.05 7 17.8 7H21m-5-5 5 5m-5-5h-3c-.93 0-1.395 0-1.777.102a3 3 0 0 0-2.12 2.122C9 4.605 9 5.07 9 6v0m12 1v5.6c0 2.25 0 3.375-.573 4.163q-.28.384-.664.664C18.975 18 17.85 18 15.6 18H15m-6-8V6m4 12h2M9 6h-.6c-2.25 0-3.375 0-4.163.573a3 3 0 0 0-.664.664C3 8.025 3 9.15 3 11.4v5.2c0 2.25 0 3.375.573 4.163q.28.384.664.664C5.025 22 6.15 22 8.4 22H11c.93 0 1.395 0 1.777-.102a3 3 0 0 0 2.12-2.122C15 19.396 15 18.93 15 18v0m-1-6-3.375-.75M14 12l-.75 3.375M14 12c-3.524 1.41-5.683 3.318-7.277 5.75" /></svg>