<svg id="filmCross" xmlns="http://www.w3.org/2000/svg" fill="none" viewBox="0 0 24 24"><path stroke="currentColor" stroke-linecap="round" stroke-linejoin="round" stroke-width="1.5" d="M7 3c-.93 0-1.395 0-1.776.102a3 3 0 0 0-2.122 2.122C3 5.605 3 6.07 3 7v0m4-4h10M7 3v4m0 14c-.93 0-1.395 0-1.776-.102a3 3 0 0 1-2.122-2.122C3 18.396 3 17.93 3 17v0m4 4v-4m0 4h5m5-18c.93 0 1.395 0 1.776.102a3 3 0 0 1 2.122 2.122C21 5.605 21 6.07 21 7v0m-4-4v4m0 0h4m-4 0v5m4-5v5h-4m0 0H7m0 5H3m4 0v-5m-4 5v-5m4 0H3m4 0V7m-4 5V7m4 0H3m15 11 3-3m-3 3-3 3m3-3-3-3m3 3 3 3" /></svg>