<svg id="fire" xmlns="http://www.w3.org/2000/svg" fill="none" viewBox="0 0 24 24"><path fill="currentColor" d="M7.868 20.605a.75.75 0 0 0 .887-1.21zM11.267 4l.237-.711a.75.75 0 0 0-.964.898zm3.985 7.5-.743-.105a.75.75 0 0 0 1.275.633zM17.73 8l.532-.528A.75.75 0 0 0 16.981 8zm-2.898 11.378a.75.75 0 1 0 .837 1.244zM9.799 18h-.75zm1.983-4 .533-.528a.75.75 0 0 0-1.065 0zm-3.026 5.395c-2.552-1.872-3.137-3.755-2.982-5.321.163-1.639 1.153-3.112 2.08-4.046L6.786 8.972C5.73 10.038 4.49 11.815 4.28 13.926c-.216 2.184.686 4.55 3.588 6.679zm-.903-9.367c.478-.481.986-.934 1.495-1.393.5-.45 1.006-.91 1.435-1.378.84-.916 1.569-2.053 1.21-3.444l-1.452.374c.157.61-.097 1.222-.863 2.056-.374.407-.828.822-1.334 1.278-.497.448-1.042.932-1.556 1.45zm3.177-5.317c2.564.857 3.94 3.444 3.48 6.684l1.486.21c.532-3.76-1.067-7.173-4.49-8.316zm4.756 7.317c.731-.738 1.39-1.4 1.858-2.008.465-.603.838-1.268.838-2.02h-1.5c0 .248-.123.583-.526 1.104-.399.518-.98 1.106-1.736 1.868zm1.413-3.5c.355.358.683 1.015.876 1.925.19.894.235 1.965.09 3.075-.29 2.232-1.33 4.505-3.33 5.85l.836 1.244c2.462-1.655 3.653-4.382 3.982-6.9.165-1.264.117-2.507-.11-3.581-.226-1.059-.643-2.027-1.279-2.67zM13.015 18c0 .627-.554 1.25-1.234 1.25v1.5c1.588 0 2.733-1.377 2.733-2.75zm-1.234 1.25c-.679 0-1.233-.623-1.233-1.25h-1.5c0 1.373 1.146 2.75 2.733 2.75zM10.548 18c0-.776.397-1.624.868-2.336a9 9 0 0 1 .884-1.122l.013-.012.002-.003L11.78 14l-.532-.528-.002.001-.002.002-.006.007-.021.022-.072.076a10 10 0 0 0-.981 1.256c-.521.788-1.117 1.94-1.117 3.164zm1.233-4-.532.528.001.002.013.012.053.057q.073.079.204.23c.171.202.4.49.627.835.471.712.867 1.56.867 2.336h1.5c0-1.224-.595-2.376-1.115-3.164a10.3 10.3 0 0 0-1.054-1.332l-.021-.022-.008-.009h-.001z" /></svg>