<svg id="fireWall" xmlns="http://www.w3.org/2000/svg" fill="none" viewBox="0 0 24 24"><path stroke="currentColor" stroke-linecap="round" stroke-linejoin="round" stroke-width="1.5" d="M11.5 21H6a3 3 0 0 1-3-3v-1.5M7.5 3H6a3 3 0 0 0-3 3v1.5M7.5 3v4.5m0-4.5h9m0 0H18a3 3 0 0 1 3 3v1.5M16.5 3v4.5M3 12h4.5M3 12V7.5M3 12v4.5M7.5 12H12m-4.5 0v4.5M12 12V7.5m0 4.5h1m8 0V7.5m0 0h-4.5m0 0H12m0 0H7.5m0 0H3m0 9h4.5m0 0h3m4.392 4.5c-3.116-2.25-1.7-4.781-.566-5.906s2.55-1.969 2.255-3.094c1.71.563 2.56 2.25 2.277 4.219.85-.844 1.417-1.407 1.417-1.969 1.133 1.125 1.133 5.063-1.417 6.75m-.85-1.125c0 .563-.485 1.125-1.133 1.125-.647 0-1.133-.562-1.133-1.125 0-1.125 1.133-2.25 1.133-2.25s1.133 1.125 1.133 2.25" /></svg>