<svg id="fish" xmlns="http://www.w3.org/2000/svg" fill="none" viewBox="0 0 24 24"><path stroke="currentColor" stroke-linecap="round" stroke-linejoin="round" stroke-width="1.5" d="M16.5 14.348C16.5 17.774 14.314 19 11 19s-8-3.101-8-4.652c0-1.234 1.582-4.43 5-5.686m8.5 5.686c0-3.426-2.186-6.203-5.5-6.203a8.6 8.6 0 0 0-3 .517m8.5 5.686c1-2.585 2-3.619 3.5-4.136 0 0-1 2.471-1 4.136 0 1.664 1 4.135 1 4.135-1.5-.517-2.5-1.55-3.5-4.135M7 11.763l-.5 1.034M8 8.662c.833-1.379 3.4-4.032 7-3.619 1.6.414 2.333 1.206 2.5 1.551-.667-.172-2.2-.31-3 .517M9 14.348c.167.517 1.1 1.654 3.5 2.068" /></svg>