<svg id="flail" xmlns="http://www.w3.org/2000/svg" fill="none" viewBox="0 0 24 24"><path stroke="currentColor" stroke-linecap="round" stroke-linejoin="round" stroke-width="1.5" d="m14.585 6.012 3 5.197m-3-5.197.432-.25m-.432.25-.434.25m.434-.25L14 5m3.584 6.209a1 1 0 0 0-.366 1.366l1.5 2.598a1 1 0 0 0 1.366.366m-2.5-4.33a1 1 0 0 1 1.367.366l1.5 2.598a1 1 0 0 1-.367 1.366m0 0 .5.866M8 6.07c.006-.368.07-.707.182-1.014M8 12.999a3.5 3.5 0 0 0-2.475 1.026M8 12.999c.966 0 1.842.392 2.475 1.026M8 12.999V11.5m3.5 5c0 .966-.392 1.841-1.025 2.474M11.5 16.5a3.5 3.5 0 0 0-1.025-2.475M11.5 16.5h2m-9 0c0 .966.392 1.841 1.025 2.474M4.5 16.5a3.5 3.5 0 0 1 1.025-2.475M4.5 16.5h-2M8 20a3.5 3.5 0 0 0 2.475-1.026M8 20a3.5 3.5 0 0 1-2.475-1.026M8 20v2m3.89-1.611-1.415-1.415M4.11 12.61l1.414 1.415M4.11 20.389l1.414-1.415m6.364-6.364-1.414 1.415M8 9.5V8.346M9.128 3.49A3.1 3.1 0 0 1 10 3m2.677.187A3 3 0 0 0 12 3" /></svg>