<svg id="flashLight" xmlns="http://www.w3.org/2000/svg" fill="none" viewBox="0 0 24 24"><g clip-path="url(#clip0_1556_84183)"><path stroke="currentColor" stroke-linecap="round" stroke-linejoin="round" stroke-width="1.5" d="m12 12 .707.707M5 10.5 10.5 5m-.186-3.186 1.243 1.243a7.07 7.07 0 0 1 2.015 5.872v0c-.045.36.078.721.335.978L20 16a2.83 2.83 0 0 1 0 4v0a2.83 2.83 0 0 1-4 0l-6.093-6.093a1.18 1.18 0 0 0-.978-.336v0a7.07 7.07 0 0 1-5.872-2.014l-1.243-1.243a.444.444 0 0 1 0-.628l7.872-7.872a.444.444 0 0 1 .628 0" /></g><defs><clipPath id="clip0_1556_84183"><path fill="white" d="M0 0h24v24H0z" /></clipPath></defs></svg>