<svg id="flaskFilled" xmlns="http://www.w3.org/2000/svg" fill="none" viewBox="0 0 24 24"><path stroke="currentColor" stroke-linecap="round" stroke-linejoin="round" stroke-width="1.5" d="M8.056 14 5.29 17.829C4.335 19.152 5.28 21 6.912 21H8m.056-7A7.63 7.63 0 0 0 9.5 9.533V4L9 3.5V3h6v.5l-.5.5v5.533A7.63 7.63 0 0 0 15.944 14v0m-7.888 0H9m6.944 0H15m.944 0 .862 1.194M9 14l-3.5 3.5M9 14h3m0 0-6 6m6-6h3m0 0-7 7m0 0h3m0 0 5.807-5.806M11 21h3m2.807-5.806 1.258 1.742M14 21l4.064-4.064M14 21h3m1.064-4.064.646.893c.955 1.323.01 3.171-1.622 3.171H17m0 0 2-2" /></svg>