<svg id="flipImage" xmlns="http://www.w3.org/2000/svg" fill="none" viewBox="0 0 24 24"><path stroke="currentColor" stroke-linecap="round" stroke-linejoin="round" stroke-width="1.5" d="m5 5 2-1.5M5 5l2 1.5M5 5h14m0 0-2-1.5M19 5l-2 1.5m.994 13.5H15.3c-.75 0-1.125 0-1.388-.191a1 1 0 0 1-.221-.221c-.191-.263-.191-.638-.191-1.388v-5.028c0-2.516 0-3.774.511-4.06a1 1 0 0 1 .508-.127c.586.01 1.18 1.12 2.368 3.337l2.693 5.028c.559 1.042.838 1.563.695 1.977a1 1 0 0 1-.21.351c-.298.322-.889.322-2.071.322M6.006 20H8.7c.75 0 1.125 0 1.388-.191a1 1 0 0 0 .221-.221c.191-.263.191-.638.191-1.388v-5.028c0-2.516 0-3.774-.511-4.06a1 1 0 0 0-.508-.127c-.586.01-1.18 1.12-2.368 3.337L4.42 17.35c-.559 1.042-.838 1.563-.695 1.977a1 1 0 0 0 .21.351c.298.322.889.322 2.071.322" /></svg>