<svg id="floppyDisk" xmlns="http://www.w3.org/2000/svg" fill="none" viewBox="0 0 24 24"><path stroke="currentColor" stroke-linecap="round" stroke-linejoin="round" stroke-width="1.5" d="M8 20h-.4c-1.5 0-2.25 0-2.776-.382a2 2 0 0 1-.442-.442C4 18.65 4 17.9 4 16.4V7.6c0-1.5 0-2.25.382-2.776a2 2 0 0 1 .442-.442C5.35 4 6.1 4 7.6 4H8m0 16v-.4c0-1.5 0-2.25.382-2.776.123-.17.273-.319.442-.442C9.35 16 10.1 16 11.6 16h.8c1.5 0 2.25 0 2.776.382q.256.187.442.442C16 17.35 16 18.1 16 19.6v.4m-8 0h8m0 0h.4c1.5 0 2.25 0 2.776-.382q.256-.187.442-.442C20 18.65 20 17.9 20 16.4V9.047c0-.653 0-.98-.098-1.281a2 2 0 0 0-.12-.29c-.144-.282-.375-.513-.836-.975l-1.48-1.48c-.43-.429-.644-.643-.903-.782a2 2 0 0 0-.371-.154C15.91 4 15.607 4 15 4v0M8 4v.5c0 1.404 0 2.107.337 2.611a2 2 0 0 0 .552.552C9.393 8 10.096 8 11.5 8v0c1.405 0 2.107 0 2.611-.337a2 2 0 0 0 .552-.552C15 6.607 15 5.904 15 4.5V4M8 4h7" /></svg>