<svg id="flower3" xmlns="http://www.w3.org/2000/svg" fill="none" viewBox="0 0 24 24"><path stroke="currentColor" stroke-linecap="round" stroke-linejoin="round" stroke-width="1.5" d="M14.135 17.202C14.052 17.495 13.305 20 12 20c-1.385 0-2.143-2.826-2.143-2.826s-2.534 1.462-3.514.483c-.98-.98.483-3.514.483-3.514S4 13.385 4 12s2.826-2.143 2.826-2.143-1.462-2.534-.483-3.514c.98-.98 3.514.483 3.514.483S10.615 4 12 4s2.143 2.826 2.143 2.826 2.534-1.462 3.514-.483c.98.98-.483 3.514-.483 3.514S20 10.615 20 12s-2.826 2.143-2.826 2.143 1.462 2.534.483 3.514c-.92.92-3.216-.317-3.488-.468M14 12a2 2 0 1 1-4 0 2 2 0 0 1 4 0" /></svg>