<svg id="flower" xmlns="http://www.w3.org/2000/svg" fill="none" viewBox="0 0 24 24"><path stroke="currentColor" stroke-linecap="round" stroke-linejoin="round" stroke-width="1.5" d="M15 7.294C15 5.48 12 4 12 4S9 5.479 9 7.294C9 8.1 9.59 9.117 10.248 10M8.451 7.693c-1.726-.561-4.06 1.835-4.06 1.835s.48 3.31 2.206 3.871c.877.285 2.257-.08 3.403-.51m-3.193 1.155c-1.067 1.468.49 4.428.49 4.428s3.297.567 4.364-.902c.495-.68.603-1.928.578-3.07m.1 3.07c1.067 1.47 4.363.902 4.363.902s1.558-2.96.49-4.428c-.517-.713-1.757-1.216-2.895-1.544m3.105.899c1.727-.561 2.206-3.871 2.206-3.871s-2.333-2.396-4.06-1.835c-.847.275-1.717 1.317-2.383 2.307M14 12a2 2 0 1 1-4 0 2 2 0 0 1 4 0" /></svg>