<svg id="flower1" xmlns="http://www.w3.org/2000/svg" fill="none" viewBox="0 0 24 24"><path stroke="currentColor" stroke-linecap="round" stroke-linejoin="round" stroke-width="1.5" d="M15 7.294C15 5.48 13.657 4 12 4S9 5.479 9 7.294C9 8.1 9.591 9.117 10.248 10M8.452 7.693c-1.727-.561-3.548.26-4.06 1.835-.512 1.576.479 3.31 2.205 3.871.877.285 2.257-.08 3.403-.51m-3.193 1.155c-1.067 1.468-.85 3.454.49 4.428 1.341.974 3.297.567 4.364-.902.495-.68.604-1.928.578-3.07m.1 3.07c1.067 1.47 3.023 1.876 4.363.902s1.558-2.96.491-4.428c-.518-.713-1.757-1.216-2.895-1.544m3.105.899c1.726-.561 2.718-2.295 2.206-3.871-.513-1.576-2.334-2.396-4.06-1.835C14.7 7.968 13.83 9.01 13.165 10M14 12a2 2 0 1 1-4 0 2 2 0 0 1 4 0" /></svg>