<svg id="flower2" xmlns="http://www.w3.org/2000/svg" fill="none" viewBox="0 0 24 24"><path stroke="currentColor" stroke-linecap="round" stroke-linejoin="round" stroke-width="1.5" d="M11.977 16.55c-.228.486-2.127 4.404-3.882 3.559-1.87-.901.387-5.303.387-5.303s-4.794 1.221-5.256-.803 4.387-3.004 4.387-3.004-3.944-2.987-2.65-4.61 5.084 1.557 5.084 1.557S9.925 3 12 3s1.952 4.946 1.952 4.946 3.79-3.18 5.085-1.557-2.65 4.61-2.65 4.61 4.85.98 4.387 3.004c-.462 2.024-5.256.803-5.256.803s2.258 4.402.387 5.303c-1.755.845-3.654-3.073-3.882-3.56M14 12a2 2 0 1 1-4 0 2 2 0 0 1 4 0" /></svg>