<svg id="folderAi" xmlns="http://www.w3.org/2000/svg" fill="none" viewBox="0 0 24 24"><path stroke="currentColor" stroke-linecap="round" stroke-linejoin="round" stroke-width="1.5" d="M12 6c.12.12.179.179.24.233a3 3 0 0 0 1.84.763c.081.004.166.004.334.004h.636c1.822 0 2.733 0 3.416.382a3 3 0 0 1 1.152 1.152C20 9.217 20 10.128 20 11.95V12m0 0v1.6c0 2.25 0 3.375-.573 4.163a3 3 0 0 1-.664.664C17.975 19 16.85 19 14.6 19H9.4c-2.25 0-3.375 0-4.163-.573a3 3 0 0 1-.664-.664C4 16.975 4 15.85 4 13.6V12m16 0a2 2 0 0 0-2-2H6a2 2 0 0 0-2 2v0m0 0V8.5M6.5 7l-1-2-2-1 2-1 1-2 1 2 2 1-2 1z" /></svg>