<svg id="folderBookmark" xmlns="http://www.w3.org/2000/svg" fill="none" viewBox="0 0 24 24"><path stroke="currentColor" stroke-linecap="round" stroke-linejoin="round" stroke-width="1.5" d="M20 12v-.05c0-1.822 0-2.733-.382-3.416a3 3 0 0 0-1.152-1.152C17.783 7 16.872 7 15.05 7h-.636c-.168 0-.253 0-.334-.004a3 3 0 0 1-1.84-.763A6 6 0 0 1 12 6v0a6 6 0 0 0-.24-.233 3 3 0 0 0-1.84-.763C9.839 5 9.754 5 9.586 5H8.95c-1.822 0-2.733 0-3.416.382a3 3 0 0 0-1.152 1.152C4 7.217 4 8.128 4 9.95V12m16 0v1.6c0 2.25 0 3.375-.573 4.163q-.28.384-.664.664C17.975 19 16.85 19 14.6 19H9.4c-2.25 0-3.375 0-4.163-.573a3 3 0 0 1-.664-.664C4 16.975 4 15.85 4 13.6V12m16 0a2 2 0 0 0-2-2h-1M4 12a2 2 0 0 1 2-2h6m0 0h5m-5 0v6l1.376-1.1c.477-.382.715-.573.99-.61q.135-.018.268 0c.275.037.513.228.99.61L17 16v-6" /></svg>