<svg id="folderInsert" xmlns="http://www.w3.org/2000/svg" fill="none" viewBox="0 0 24 24"><path stroke="currentColor" stroke-linecap="round" stroke-linejoin="round" stroke-width="1.5" d="m13 7-.55-.55c-.562-.562-.843-.844-1.176-1.038a3 3 0 0 0-.76-.315C10.143 5 9.745 5 8.95 5v0c-1.822 0-2.733 0-3.416.382a3 3 0 0 0-1.152 1.152C4 7.217 4 8.128 4 9.95V12m0 0v1.6c0 2.25 0 3.375.573 4.163.185.255.409.479.664.664C6.025 19 7.15 19 9.4 19h5.2c2.25 0 3.375 0 4.163-.573q.384-.28.664-.664C20 16.975 20 15.85 20 13.6V12v0a2 2 0 0 0-2-2h-2M4 12a2 2 0 0 1 2-2h2.5m12-5.5c-4.5 2-7 4-9 9m0 0 4.5-1m-4.5 1-1-4.5" /></svg>