<svg id="folderOpen" xmlns="http://www.w3.org/2000/svg" fill="none" viewBox="0 0 24 24"><path stroke="currentColor" stroke-linecap="round" stroke-linejoin="round" stroke-width="1.5" d="M18.5 10c-.078-.465-.116-.698-.178-.896a3 3 0 0 0-2.45-2.075C15.666 7 15.43 7 14.96 7h-2.545c-.168 0-.253 0-.334-.004a3 3 0 0 1-1.84-.763A6 6 0 0 1 10 6v0c-.12-.12-.179-.179-.24-.233a3 3 0 0 0-1.84-.763C7.839 5 7.754 5 7.586 5H7.15c-1.552 0-2.328 0-2.91.259A3 3 0 0 0 2.573 7.18c-.174.613-.064 1.382.155 2.918l.83 5.811c.187 1.304.28 1.956.664 2.4q.189.217.43.373C5.148 19 5.806 19 7.123 19h8.304c1.932 0 2.899 0 3.632-.462a3 3 0 0 0 .641-.543c.576-.647.735-1.6 1.053-3.507l.399-2.392c.143-.859.214-1.289.032-1.6a1 1 0 0 0-.224-.264C20.681 10 20.246 10 19.375 10H7.787c-.966 0-1.45 0-1.816.23a1.5 1.5 0 0 0-.32.273c-.289.323-.368.8-.527 1.753L4.25 17.5" /></svg>