<svg id="folderEdit" xmlns="http://www.w3.org/2000/svg" fill="none" viewBox="0 0 24 24"><path stroke="currentColor" stroke-linecap="round" stroke-linejoin="round" stroke-width="1.5" d="M4 12V9.95c0-1.822 0-2.733.382-3.416a3 3 0 0 1 1.152-1.152C6.217 5 7.128 5 8.95 5h.636c.168 0 .253 0 .334.004a3 3 0 0 1 1.84.763c.061.054.12.114.24.233s.179.179.24.233a3 3 0 0 0 1.84.763c.081.004.166.004.334.004h.636c1.822 0 2.733 0 3.416.382a3 3 0 0 1 1.152 1.152C20 9.217 20 10.128 20 11.95V12a2 2 0 0 0-2-2H6a2 2 0 0 0-2 2m0 0v1.6c0 2.25 0 3.375.573 4.163.185.255.409.479.664.664C6.025 19 7.15 19 9.4 19H13m2.5.5v2h2l4-4a1.414 1.414 0 1 0-2-2z" /></svg>