<svg id="folderExtract" xmlns="http://www.w3.org/2000/svg" fill="none" viewBox="0 0 24 24"><path stroke="currentColor" stroke-linecap="round" stroke-linejoin="round" stroke-width="1.5" d="M4 12V9.95c0-1.822 0-2.733.382-3.416a3 3 0 0 1 1.152-1.152C6.217 5 7.128 5 8.95 5v0c.795 0 1.192 0 1.565.097a3 3 0 0 1 .76.315c.332.194.613.476 1.175 1.038l.05.05M4 12v1.6c0 2.25 0 3.375.573 4.163.185.255.409.479.664.664C6.025 19 7.15 19 9.4 19h5.2c2.25 0 3.375 0 4.163-.573q.384-.28.664-.664C20 16.975 20 15.85 20 13.6V12v0a2 2 0 0 0-2-2h-3M4 12a2 2 0 0 1 2-2h4m1 3c2-4.5 4-7 9-9m0 0-1 4.5M20 4l-4.5-1" /></svg>