<svg id="folderTree" xmlns="http://www.w3.org/2000/svg" fill="none" viewBox="0 0 24 24"><path stroke="currentColor" stroke-linecap="round" stroke-linejoin="round" stroke-width="1.5" d="M8 18H6a3 3 0 0 1-3-3V3l.172 1.372A3 3 0 0 0 6.148 7H8m7.293 7.293.414.414a1 1 0 0 0 .707.293H20a1 1 0 0 1 1 1v4a1 1 0 0 1-1 1h-8a1 1 0 0 1-1-1v-5a1 1 0 0 1 1-1h2.586a1 1 0 0 1 .707.293m0-11 .414.414a1 1 0 0 0 .707.293H20a1 1 0 0 1 1 1v4a1 1 0 0 1-1 1h-8a1 1 0 0 1-1-1V4a1 1 0 0 1 1-1h2.586a1 1 0 0 1 .707.293" /></svg>