<svg id="folderSwap" xmlns="http://www.w3.org/2000/svg" fill="none" viewBox="0 0 24 24"><path stroke="currentColor" stroke-linecap="round" stroke-linejoin="round" stroke-width="1.5" d="M21 15c0 .93 0 1.395-.102 1.776a3 3 0 0 1-2.122 2.122C18.396 19 17.93 19 17 19h-1m0 0 1.5-1.5M16 19l1.5 1.5M3 9c0-.93 0-1.395.102-1.776a3 3 0 0 1 2.122-2.122C5.605 5 6.07 5 7 5h1m0 0L6.5 6.5M8 5 6.5 3.5M9 14l-.6-.8c-.293-.39-.44-.586-.619-.735a2 2 0 0 0-.821-.412C6.733 12 6.489 12 6 12v0c-.932 0-1.398 0-1.765.152a2 2 0 0 0-1.083 1.083C3 13.602 3 14.068 3 15v2.4c0 1.5 0 2.25.382 2.776q.187.256.442.442C4.35 21 5.1 21 6.6 21h3.9c1.405 0 2.107 0 2.611-.337.218-.146.406-.334.552-.552C14 19.607 14 18.904 14 17.5v0c0-1.404 0-2.107-.337-2.611a2 2 0 0 0-.552-.552C12.607 14 11.904 14 10.5 14zm0 0H5.5M16 5l-.6-.8c-.293-.39-.44-.586-.619-.735a2 2 0 0 0-.822-.411C13.734 3 13.49 3 13 3v0c-.932 0-1.398 0-1.765.152a2 2 0 0 0-1.083 1.083C10 4.602 10 5.068 10 6v2.4c0 1.5 0 2.25.382 2.776.123.17.273.319.442.442C11.35 12 12.1 12 13.6 12h3.9c1.404 0 2.107 0 2.611-.337.218-.146.406-.334.552-.552C21 10.607 21 9.904 21 8.5v0c0-1.404 0-2.107-.337-2.611a2 2 0 0 0-.552-.552C19.607 5 18.904 5 17.5 5zm0 0h-3.5" /></svg>