<svg id="football" xmlns="http://www.w3.org/2000/svg" fill="none" viewBox="0 0 24 24"><g clip-path="url(#clip0_1556_83119)"><path stroke="currentColor" stroke-linecap="round" stroke-linejoin="round" stroke-width="1.5" d="M3.837 13.84c-.247 2.435.36 4.499 1.113 5.252.76.76 2.829 1.4 5.284 1.145M3.837 13.84a11.1 11.1 0 0 1 3.234-6.769c2.14-2.14 4.64-3.076 6.831-3.296M3.837 13.84l1.94 1.006a8 8 0 0 1 3.391 3.37l1.066 2.02m0 0c2.155-.224 4.609-1.138 6.737-3.265 2.164-2.165 3.105-4.635 3.327-6.8m-6.396-6.396c2.366-.237 4.374.36 5.19 1.175.824.823 1.451 2.837 1.206 5.221m-6.396-6.396.915 1.842A8 8 0 0 0 18.375 9.2l1.923.971M10 14l4-3.98M12 10l2 2.02M10 12l2 2" /></g><defs><clipPath id="clip0_1556_83119"><path fill="white" d="M0 0h24v24H0z" /></clipPath></defs></svg>