<svg id="footPrint" xmlns="http://www.w3.org/2000/svg" fill="none" viewBox="0 0 24 24"><path stroke="currentColor" stroke-linecap="round" stroke-linejoin="round" stroke-width="1.5" d="m8.01 11.77.653-.224c.54-.185 1.15.154 1.282.74.241 1.062.348 2.412-.971 2.928-1.35.528-2.055-.802-2.43-1.865a1.02 1.02 0 0 1 .622-1.292L8 11.77m7.026 10.11c-1.314-.513-1.213-1.856-.974-2.915.132-.587.78-.925 1.348-.73l1.44.49c.51.175.81.729.633 1.24-.37 1.07-1.075 2.452-2.447 1.916m2.595-5.029-2.046-.688a.93.93 0 0 1-.613-.68c-.23-1.002-.629-3.24-.03-4.706.53-1.298 1.443-2.165 2.773-2.108 1.881.08 2.53 2.574 2.222 4.549-.157.998-.793 2.36-1.21 3.176a.9.9 0 0 1-1.096.457M6.379 10.185l2.046-.689a.93.93 0 0 0 .613-.68c.23-1.002.629-3.24.03-4.705-.53-1.299-1.443-2.165-2.773-2.108-1.881.08-2.53 2.574-2.222 4.548.156.998.793 2.361 1.21 3.177a.9.9 0 0 0 1.096.457" /></svg>