<svg id="forward" xmlns="http://www.w3.org/2000/svg" fill="none" viewBox="0 0 24 24"><g clip-path="url(#clip0_1556_82666)"><path stroke="currentColor" stroke-linecap="round" stroke-linejoin="round" stroke-width="1.5" d="M10.118 8 7.19 6.558c-2.05-1.011-3.077-1.517-3.883-1.22a2 2 0 0 0-.684.427C2 6.356 2 7.5 2 9.787v4.426c0 2.287 0 3.431.623 4.022a2 2 0 0 0 .684.426c.806.298 1.832-.208 3.884-1.219L10.118 16m8.983-.83-3.679 1.979c-2.086 1.12-3.129 1.682-3.957 1.396a2 2 0 0 1-.704-.42c-.643-.595-.643-1.779-.643-4.147v-3.956c0-2.368 0-3.552.643-4.146a2 2 0 0 1 .704-.42c.828-.287 1.871.274 3.957 1.395l3.68 1.978c2.287 1.23 3.431 1.845 3.628 2.743a2 2 0 0 1 0 .856c-.197.898-1.34 1.513-3.629 2.743" /></g><defs><clipPath id="clip0_1556_82666"><path fill="white" d="M0 0h24v24H0z" /></clipPath></defs></svg>