<svg id="forward10sec" xmlns="http://www.w3.org/2000/svg" fill="none" viewBox="0 0 24 24"><path stroke="currentColor" stroke-linecap="round" stroke-linejoin="round" stroke-width="1.5" d="M4 9s3.25-3 8-3 8 3 8 3l-2.5-4" /><path fill="currentColor" d="M8.62 18v-5.696h1.583V18zm-1.065-4.384v-1.312h2.568v1.312zm6.3 4.48q-.737 0-1.313-.376a2.65 2.65 0 0 1-.896-1.048q-.328-.672-.328-1.528 0-.855.32-1.52.329-.665.896-1.04.569-.375 1.304-.376.744 0 1.312.376.576.375.896 1.04.328.664.328 1.528t-.328 1.528q-.32.665-.888 1.04-.567.375-1.304.376m-.009-1.36a.73.73 0 0 0 .504-.184q.209-.184.312-.536.112-.36.112-.864t-.112-.856q-.104-.352-.312-.536a.73.73 0 0 0-.512-.192.72.72 0 0 0-.496.184q-.207.184-.32.536-.104.352-.104.856t.104.864q.113.352.32.544a.73.73 0 0 0 .504.184" /></svg>