<svg id="fox" xmlns="http://www.w3.org/2000/svg" fill="none" viewBox="0 0 24 24"><path stroke="currentColor" stroke-linecap="round" stroke-linejoin="round" stroke-width="1.5" d="M10.04 5.955C9 3.5 7.5 3 5.139 2 4.706 4.01 4.566 5.593 5 7.028m5.04-1.073c-1.29.485-2.074.95-2.731 1.56a3.3 3.3 0 0 0-.572.646 4 4 0 0 0-.22.346c-.203.36-.42 1.044-.858 2.412-.342 1.072-.953 2.093-2.159 3.581h1.639L3 15.923c2.312.197 3.95.654 5.675 2.15 1.64 1.421 2.459 2.132 3.04 2.215.255.037.315.037.57 0 .581-.083 1.4-.794 3.04-2.215 1.725-1.496 3.363-1.953 5.675-2.15L19.483 14.5H21c-1.266-1.226-1.958-2.22-2.56-3.937-.305-.872-.457-1.308-.643-1.63a4 4 0 0 0-.2-.313c-.216-.304-.392-.475-.744-.816-.98-.948-1.752-1.368-2.893-1.849m-3.92 0c1.532-.303 2.389-.317 3.92 0m0 0C15 3.5 16.5 3 18.861 2c.433 2.01.573 3.593.139 5.028M9.5 12v1.5m5-1.5v1.5m-2.5 4-1-1h2z" /></svg>