<svg id="fries" xmlns="http://www.w3.org/2000/svg" fill="none" viewBox="0 0 24 24"><path stroke="currentColor" stroke-linecap="round" stroke-linejoin="round" stroke-width="1.5" d="m16 9-.33.658A2.43 2.43 0 0 1 13.5 11v0M16 9h2.5M16 9V5M8 9l.33.658A2.43 2.43 0 0 0 10.5 11v0M8 9H5.5M8 9V6M5.5 9V4.25c0-.232 0-.348.02-.445a1 1 0 0 1 .785-.786C6.402 3 6.518 3 6.75 3v0c.232 0 .348 0 .445.02a1 1 0 0 1 .786.785C8 3.902 8 4.018 8 4.25V6M5.5 9c-.275 0-.412 0-.52.024a1 1 0 0 0-.781.935c-.004.111.02.246.07.517l.925 5.09c.34 1.876.511 2.814 1.087 3.449q.282.31.638.532C7.647 20 8.6 20 10.507 20h2.986c1.907 0 2.86 0 3.588-.453q.356-.222.638-.532c.576-.635.746-1.573 1.087-3.449l.926-5.09c.049-.27.073-.406.069-.517a1 1 0 0 0-.78-.935C18.912 9 18.775 9 18.5 9v0m-8 2h3m-3 0V6m3 5V5M16 5h-2.5M16 5v-.25c0-.232 0-.348.02-.445a1 1 0 0 1 .785-.786c.096-.019.213-.019.445-.019v0c.232 0 .349 0 .445.02a1 1 0 0 1 .786.785c.019.097.019.213.019.445V9m-5-4a1 1 0 0 0-1-1H12c-.466 0-.699 0-.883.076a1 1 0 0 0-.54.541c-.077.184-.077.417-.077.883V6m0 0H8m4 7.5-2 2 2 2 2-2z" /></svg>