<svg id="frog" xmlns="http://www.w3.org/2000/svg" fill="none" viewBox="0 0 24 24"><path stroke="currentColor" stroke-linecap="round" stroke-linejoin="round" stroke-width="1.5" d="M5.933 11.5a9 9 0 0 1-.234-1M8.266 5c-.933 0-2.8 1-2.8 3 0 .954.11 1.837.233 2.5M8.266 5C9.2 5 10.133 6.5 12 6.5S14.8 5 15.734 5M8.266 5c.623.083 1.867.9 1.867 3.5m-4.434 2c-.7.667-2.007 2.4-1.633 4 .467 2 4.2 4.5 7.934 4.5s7.468-2.5 7.934-4.5c.374-1.6-.933-3.333-1.633-4m-8.168 1v.5M7.8 8v1.5m10.267 2c.063-.202.151-.55.234-1M15.734 5c.933 0 2.8 1 2.8 3 0 .954-.11 1.837-.233 2.5M15.734 5c-.623.083-1.867.9-1.867 3.5m0 3v.5M16.2 8v1.5M6.399 14c1.867.5 3.734.5 5.601.5s3.734 0 5.6-.5c-1.4 1-2.8 2-5.6 2s-4.2-1-5.6-2" /></svg>