<svg id="galaxy" xmlns="http://www.w3.org/2000/svg" fill="none" viewBox="0 0 24 24"><path stroke="currentColor" stroke-linecap="round" stroke-linejoin="round" stroke-width="1.5" d="M12 12c-2.663 0-4.823-2.015-4.823-4.5S9.337 3 12 3m0 9c-1.332-2.152-.541-4.904 1.765-6.147s5.256-.505 6.588 1.647M12 12c-1.332 2.152-4.281 2.89-6.588 1.647C3.105 12.405 2.315 9.652 3.647 7.5M12 12c2.664 0 4.823 2.015 4.823 4.5S14.663 21 12 21m0-9c1.332 2.152.541 4.904-1.765 6.147s-5.256.505-6.588-1.647M12 12c1.332-2.152 4.281-2.89 6.588-1.647 2.307 1.242 3.097 3.995 1.765 6.147" /></svg>