<svg id="gasPump" xmlns="http://www.w3.org/2000/svg" fill="none" viewBox="0 0 24 24"><path stroke="currentColor" stroke-linecap="round" stroke-linejoin="round" stroke-width="1.5" d="M4 20h1m15 0h-6m-9 0h9m-9 0V9m9 11v-6m0 0 3 1v1.5a1.5 1.5 0 0 0 1.5 1.5v0a1.5 1.5 0 0 0 1.5-1.5V9m-6 5V9m6 0-1.5-1.5M20 9V6m0 0-1.5-1M20 6l-1.5 1.5M17 4l1.5 1m0 0v2.5M5 9V6.6c0-1.5 0-2.25.382-2.776a2 2 0 0 1 .442-.442C6.35 3 7.1 3 8.6 3h1.8c1.5 0 2.25 0 2.776.382q.256.187.442.442C14 4.35 14 5.1 14 6.6V9M5 9h9m-4.5 2.5-1.163 2.713a1.265 1.265 0 0 0 .269 1.393v0a1.265 1.265 0 0 0 1.788 0v0c.366-.366.472-.918.269-1.393z" /></svg>