<svg id="gem" xmlns="http://www.w3.org/2000/svg" fill="none" viewBox="0 0 24 24"><g clip-path="url(#clip0_1556_84751)"><path stroke="currentColor" stroke-linecap="round" stroke-linejoin="round" stroke-width="1.5" d="M4.929 4.929 2.1 12m2.828-7.071L12 2.1M4.929 4.93l2.828 2.828M2.101 12 12 21.9M2.1 12h4.243M12 21.9l7.071-2.829M12 21.9v-4.242m7.071 1.414L21.9 12m-2.828 7.071-2.828-2.828M21.9 12 12 2.1m9.9 9.9h-4.243M12 2.1v4.243M7.757 7.757 6.343 12m1.414-4.243L12 6.343M6.343 12 12 17.657m0 0 4.243-1.414m0 0L17.657 12m0 0L12 6.343" /></g><defs><clipPath id="clip0_1556_84751"><path fill="white" d="M0 0h24v24H0z" /></clipPath></defs></svg>