<svg id="ghost" xmlns="http://www.w3.org/2000/svg" fill="none" viewBox="0 0 24 24"><path stroke="currentColor" stroke-linecap="round" stroke-linejoin="round" stroke-width="1.5" d="M10 7v1m4 0v-.98M12 15a1 1 0 0 0 1-1v-3a1 1 0 0 0-1-1v0a1 1 0 0 0-1 1v3a1 1 0 0 0 1 1m2.625 6.5a1.76 1.76 0 0 0-1.75 0v0c-.542.31-1.208.31-1.75 0v0a1.76 1.76 0 0 0-1.75 0v0c-.542.31-1.208.31-1.75 0l-.44-.251a.88.88 0 0 0-.87 0v0A.878.878 0 0 1 5 20.486V9a7 7 0 0 1 7-7v0a7 7 0 0 1 7 7v11.486a.878.878 0 0 1-1.314.763v0a.88.88 0 0 0-.872 0l-.439.251c-.542.31-1.208.31-1.75 0" /></svg>