<svg id="giftCard" xmlns="http://www.w3.org/2000/svg" fill="none" viewBox="0 0 24 24"><path stroke="currentColor" stroke-linecap="round" stroke-linejoin="round" stroke-width="1.5" d="M7 6h-.4c-1.5 0-2.25 0-2.776.382a2 2 0 0 0-.442.442C3 7.35 3 8.1 3 9.6v4.9M17 6h.4c1.5 0 2.25 0 2.776.382q.256.187.442.442C21 7.35 21 8.1 21 9.6v4.9M12 6c2.5-1.5 6-2.5 5-4-1.096-1.644-4.5.5-5 4m0 0C9.5 4.5 6 3.5 7 2c1.096-1.644 4.5.5 5 4m0 0c-.833.333-2.6 1.5-3 3.5M12 6c.833.333 2.6 1.5 3 3.5m-12 5c0 1.404 0 2.107.337 2.611a2 2 0 0 0 .552.552C4.393 18 5.096 18 6.5 18h11c1.404 0 2.107 0 2.611-.337.218-.146.406-.334.552-.552C21 16.607 21 15.904 21 14.5v0m-18 0h18" /></svg>