<svg id="glass" xmlns="http://www.w3.org/2000/svg" fill="none" viewBox="0 0 24 24"><path stroke="currentColor" stroke-linecap="round" stroke-linejoin="round" stroke-width="1.5" d="M7.996 14c0-3.375 2.005-2.937 2.005-8m-2.005 8h8m-8 0 .002 3.402c0 1.5.001 2.249.383 2.774a2 2 0 0 0 .443.442c.525.382 1.275.382 2.774.382h.8c1.5 0 2.251 0 2.777-.382q.256-.187.442-.443c.382-.526.382-1.276.381-2.777L15.996 14m-5.995-8-.15-.904c-.144-.859-.216-1.288-.033-1.6a1 1 0 0 1 .223-.264C10.319 3 10.754 3 11.626 3h.75c.87 0 1.306 0 1.584.231a1 1 0 0 1 .223.264c.183.312.111.742-.032 1.6l-.15.905m-4 0h4m1.995 8c0-3.375-1.995-2.937-1.995-8" /></svg>