<svg id="golf1" xmlns="http://www.w3.org/2000/svg" fill="none" viewBox="0 0 24 24"><path stroke="currentColor" stroke-linecap="round" stroke-linejoin="round" stroke-width="1.5" d="M4 11a2.964 2.964 0 0 1 3.827-2.835l5.81 1.768a2 2 0 0 0 2.48-1.281l.554-1.665a.83.83 0 0 1 1.22-.448v0m0 0L19.5 2m-1.61 4.54 1.985 1.217m0 0 .033.02a1 1 0 0 1 .42 1.185l-1.418 4.03A6 6 0 0 1 13.25 17H10.5m9.375-9.243L21.5 3M6 20.1v.9m0-.9c.776 0 1.552-.2 2.244-.602M6 20.1c-.776 0-1.552-.2-2.244-.602M8.5 15.5a2.5 2.5 0 1 1-5 0 2.5 2.5 0 0 1 5 0" /></svg>