<svg id="grabDots" xmlns="http://www.w3.org/2000/svg" fill="none" viewBox="0 0 24 24"><path stroke="currentColor" stroke-linecap="round" stroke-linejoin="round" stroke-width="1.5" d="M8 7a1 1 0 0 1-1-1m1 1a1 1 0 0 0 1-1M8 7V5M7 6a1 1 0 0 1 1-1M7 6h2M8 5a1 1 0 0 1 1 1m-1 7a1 1 0 0 1-1-1m1 1a1 1 0 0 0 1-1m-1 1v-2m-1 1a1 1 0 0 1 1-1m-1 1h2m-1-1a1 1 0 0 1 1 1m-1 7a1 1 0 0 1-1-1m1 1a1 1 0 0 0 1-1m-1 1v-2m-1 1a1 1 0 0 1 1-1m-1 1h2m-1-1a1 1 0 0 1 1 1m7-11a1 1 0 0 1-1-1m1 1a1 1 0 0 0 1-1m-1 1V5m-1 1a1 1 0 0 1 1-1m-1 1h2m-1-1a1 1 0 0 1 1 1m-1 7a1 1 0 0 1-1-1m1 1a1 1 0 0 0 1-1m-1 1v-2m-1 1a1 1 0 0 1 1-1m-1 1h2m-1-1a1 1 0 0 1 1 1m-1 7a1 1 0 0 1-1-1m1 1a1 1 0 0 0 1-1m-1 1v-2m-1 1a1 1 0 0 1 1-1m-1 1h2m-1-1a1 1 0 0 1 1 1" /></svg>