<svg id="grid" xmlns="http://www.w3.org/2000/svg" fill="none" viewBox="0 0 24 24"><path stroke="currentColor" stroke-linecap="round" stroke-linejoin="round" stroke-width="1.5" d="M11.99 8H12m-.01 4H12m-4 0h.01m7.98 0H16m-4.01 4H12m-2.6 4h5.2c2.25 0 3.375 0 4.163-.573q.384-.28.664-.664C20 17.975 20 16.85 20 14.6V9.4c0-2.25 0-3.375-.573-4.163a3 3 0 0 0-.664-.664C17.975 4 16.85 4 14.6 4H9.4c-2.25 0-3.375 0-4.163.573a3 3 0 0 0-.664.664C4 6.025 4 7.15 4 9.4v5.2c0 2.25 0 3.375.573 4.163.185.255.409.479.664.664C6.025 20 7.15 20 9.4 20" /></svg>