<svg id="gun" xmlns="http://www.w3.org/2000/svg" fill="none" viewBox="0 0 24 24"><path stroke="currentColor" stroke-linecap="round" stroke-linejoin="round" stroke-width="1.5" d="M4.571 7h13.783a2 2 0 0 1 1.955 1.582l.177.825M4.57 7H2v3l1.543 2H5.6M4.571 7V6m0 1v2.274a3 3 0 0 0 .333 1.372L5.6 12m0 0h4.729m8.942 0H21l-.514-2.593M19.27 12l2.392 6.662A1 1 0 0 1 20.72 20h-2.314a2 2 0 0 1-1.882-1.324L14.129 12m5.142 0H14.13m0 0h-3.8m0 0 .112 1.767a1 1 0 0 0 .998.937h3.06m5.986-5.297a2.88 2.88 0 0 0 1.503-1.385L22 8" /></svg>