<svg id="halberd" xmlns="http://www.w3.org/2000/svg" fill="none" viewBox="0 0 24 24"><g clip-path="url(#clip0_1556_84677)"><path stroke="currentColor" stroke-linecap="round" stroke-linejoin="round" stroke-width="1.5" d="m18.571 18.364.354 1.06 1.414.708-.707-1.415zm0 0-6.717-6.718M8.318 8.111l-2.475-.354-2.475-4.596 4.596 2.475zm0 0 .707.707m0 0c-1.768 1.768-3.535 2.121-5.657 1.414 0 0-1.06 3.182 1.414 5.657s5.657 1.414 5.657 1.414c-.707-2.121-.353-3.889 1.415-5.657M9.025 8.818l1.414 1.414m1.415 1.414-1.415-1.414m0 0V7.404l4.95-2.122-2.121 4.95z" /></g><defs><clipPath id="clip0_1556_84677"><path fill="white" d="M0 0h24v24H0z" /></clipPath></defs></svg>