<svg id="halfPants" xmlns="http://www.w3.org/2000/svg" fill="none" viewBox="0 0 24 24"><path stroke="currentColor" stroke-linecap="round" stroke-linejoin="round" stroke-width="1.5" d="M3.824 7 3.9 5.694c.042-.71.063-1.064.255-1.31a1 1 0 0 1 .22-.207C4.63 4 4.985 4 5.696 4h12.606c.71 0 1.066 0 1.323.177a1 1 0 0 1 .219.207c.192.246.213.6.255 1.31L20.176 7M3.825 7l-.72 12.226c-.043.74-.065 1.11.107 1.382a1 1 0 0 0 .205.233c.248.206.617.233 1.357.286l3.691.263c.649.047.973.07 1.229-.068a1 1 0 0 0 .227-.168c.207-.204.28-.52.426-1.154l1.042-4.513A.63.63 0 0 1 12 15v0c.293 0 .547.202.612.487L13.654 20c.146.633.219.95.426 1.154a1 1 0 0 0 .227.168c.256.138.58.115 1.229.068l3.691-.263c.74-.053 1.11-.08 1.357-.286a1 1 0 0 0 .205-.233c.172-.272.15-.642.107-1.383L20.176 7M3.825 7H10m10.177 0H14m-4 0V6m0 1h4m-4 0v3m4-3V6m0 1v3" /></svg>