<svg id="hamster" xmlns="http://www.w3.org/2000/svg" fill="none" viewBox="0 0 24 24"><path stroke="currentColor" stroke-linecap="round" stroke-linejoin="round" stroke-width="1.5" d="M5.05 11.194A3.66 3.66 0 0 1 4 8.613C4 6.618 5.567 5 7.5 5c1.763 0 3.222 1.346 3.465 3.097l.035.085m7.95 3.012A3.66 3.66 0 0 0 20 8.613C20 6.618 18.433 5 16.5 5c-1.763 0-3.222 1.346-3.465 3.097L13 8.182m0 0a5.9 5.9 0 0 0-2 0m2 0c2.338.403 4.158 2.193 4.457 4.427.924.604 1.543 1.555 1.543 2.714 0 1.348-.835 2.495-2 2.92-1.273.455-3.731 1.725-5 1.725-1.286 0-3.69-1.283-5-1.725-1.165-.425-2-1.572-2-2.92 0-1.16.62-2.11 1.543-2.714.299-2.234 2.12-4.024 4.457-4.427m-1 7.14V14.29m4 1.033V14.29m-5.5 3.613L5 19.452m4.5 0L7 21m8.5-3.097 3.5 1.549m-4.5 0L17 21m-5-2.757-.5-.516h1z" /></svg>