<svg id="hand2FingersLeft" xmlns="http://www.w3.org/2000/svg" fill="none" viewBox="0 0 24 24"><path stroke="currentColor" stroke-linecap="round" stroke-linejoin="round" stroke-width="1.5" d="M11 6v-.5A1.5 1.5 0 0 1 12.5 4v0A1.5 1.5 0 0 1 14 5.5V14l2.726-1.363a1.76 1.76 0 0 1 2.164.475v0a1.76 1.76 0 0 1-.288 2.486l-5.058 3.975a2 2 0 0 1-1.236.427H8.407a3 3 0 0 1-2.929-2.35l-1.001-4.504a2 2 0 0 1 1.704-2.419l.943-.117A1 1 0 0 0 8 9.617V6.545C8 5.692 8.692 5 9.545 5v0c.585 0 1.12.33 1.382.854zm0 0v4" /></svg>