<svg id="handGrab" xmlns="http://www.w3.org/2000/svg" fill="none" viewBox="0 0 24 24"><path stroke="currentColor" stroke-linecap="round" stroke-linejoin="round" stroke-width="1.5" d="M8.84 15.61a1.835 1.835 0 0 1-.185-2.381l.528-.723c.363-.498.82-.922 1.344-1.247l2.593-1.61a3 3 0 0 1 4.085.893l2.8 4.231a2 2 0 0 1-.254 2.518l-2.804 2.803a2 2 0 0 1-1.883.53l-3.738-.903a3 3 0 0 1-1-.447l-.276-.19a3 3 0 0 1-1.281-2.767zm0 0 2.19 1.512M19 8.112V7a3 3 0 0 0-3-3H7a3 3 0 0 0-3 3v9a3 3 0 0 0 3 3v0" /></svg>