<svg id="handFLeft" xmlns="http://www.w3.org/2000/svg" fill="none" viewBox="0 0 24 24"><path stroke="currentColor" stroke-linecap="round" stroke-linejoin="round" stroke-width="1.5" d="M16.08 12.095c0-.904-.659-1.674-1.553-1.813l-1.71-.267a.5.5 0 0 0-.193.008v0A.508.508 0 0 1 12 9.528V4.5a1.5 1.5 0 0 0-3 0v5.284a1.37 1.37 0 0 1-1.057 1.333v0a2.054 2.054 0 0 0-1.545 2.41l1.196 5.872A2 2 0 0 0 9.554 21h3.964a2 2 0 0 0 1.707-.957l2.101-3.44c.128-.21.217-.441.26-.683l.201-1.092a2 2 0 0 0-.7-1.909zm0 0-.48 2.62" /></svg>