<svg id="handsClapping" xmlns="http://www.w3.org/2000/svg" fill="none" viewBox="0 0 24 24"><path stroke="currentColor" stroke-linecap="round" stroke-linejoin="round" stroke-width="1.5" d="M7.683 7.35 13.5 10V7.5m-5.817-.15-.34-.187a2 2 0 0 0-2.386.354l-.951.968A2 2 0 0 0 3.44 9.72l-.28 3.35a3 3 0 0 0 1.534 2.87l.833.464a16 16 0 0 0 4.172 1.604l3.032.7a2 2 0 0 0 2.05-.75L15.5 17M7.683 7.35 8.94 6.346a2 2 0 0 1 2.24-.173L13.5 7.5m0 0c0-.581.41-1.082.98-1.196l.224-.045a1.5 1.5 0 0 1 1.714.995L17 9m0 0v4.528a2 2 0 0 1-.211.894L15.5 17M17 9l.356-2.494a1.44 1.44 0 0 1 1.14-1.205v0a1.437 1.437 0 0 1 1.707 1.219l.704 5.287a2 2 0 0 1-.267 1.293l-1.915 3.191a2 2 0 0 1-2.107.933L15.5 17" /></svg>
