<svg id="hand2FingersRight" xmlns="http://www.w3.org/2000/svg" fill="none" viewBox="0 0 24 24"><path stroke="currentColor" stroke-linecap="round" stroke-linejoin="round" stroke-width="1.5" d="M13 6v-.5A1.5 1.5 0 0 0 11.5 4v0A1.5 1.5 0 0 0 10 5.5V14l-2.726-1.363a1.76 1.76 0 0 0-2.164.475v0a1.76 1.76 0 0 0 .288 2.486l5.058 3.975a2 2 0 0 0 1.236.427h3.902a3 3 0 0 0 2.928-2.35l1.001-4.504a2 2 0 0 0-1.704-2.419l-.943-.117A1 1 0 0 1 16 9.617V6.545C16 5.692 15.308 5 14.455 5v0c-.585 0-1.12.33-1.382.854zm0 0v4" /></svg>