<svg id="haunted1" xmlns="http://www.w3.org/2000/svg" fill="none" viewBox="0 0 24 24"><path stroke="currentColor" stroke-linecap="round" stroke-linejoin="round" stroke-width="1.5" d="M10 9v.01m4 0v.01M12 16a1 1 0 0 0 1-1v-3a1 1 0 0 0-1-1v0a1 1 0 0 0-1 1v3a1 1 0 0 0 1 1m5.686 2.249A.878.878 0 0 0 19 17.486V9.853c0-.806 0-1.209-.143-1.566a2 2 0 0 0-.174-.338c-.207-.324-.535-.558-1.19-1.026l-3.4-2.428c-.895-.64-1.343-.96-1.845-1.022a2 2 0 0 0-.495 0c-.503.063-.95.382-1.845 1.022l-3.4 2.428c-.656.468-.984.702-1.191 1.026a2 2 0 0 0-.174.338C5 8.644 5 9.047 5 9.853v7.633a.878.878 0 0 0 1.314.763v0a.88.88 0 0 1 .872 0l.439.251c.542.31 1.208.31 1.75 0v0a1.76 1.76 0 0 1 1.75 0v0c.542.31 1.208.31 1.75 0v0a1.76 1.76 0 0 1 1.75 0v0c.542.31 1.208.31 1.75 0l.44-.251a.88.88 0 0 1 .87 0" /></svg>