<svg id="haunted" xmlns="http://www.w3.org/2000/svg" fill="none" viewBox="0 0 24 24"><path stroke="currentColor" stroke-linecap="round" stroke-linejoin="round" stroke-width="1.5" d="M12.5 19H8.6c-1.5 0-2.25 0-2.776-.382a2 2 0 0 1-.442-.442C5 17.65 5 16.9 5 15.4V9.853c0-.806 0-1.209.143-1.566a2 2 0 0 1 .174-.338c.207-.324.535-.558 1.19-1.026l3.4-2.428c.895-.64 1.343-.96 1.845-1.022a2 2 0 0 1 .495 0c.503.063.95.382 1.845 1.022l3.4 2.428c.656.468.984.702 1.191 1.026a2 2 0 0 1 .174.338c.143.357.143.76.143 1.566v.647m-2 4.99v.01m2-.01v.01m-1.75 5-.125-.084a1.13 1.13 0 0 0-1.25 0v0a.563.563 0 0 1-.875-.468V15.5a3 3 0 0 1 3-3v0a3 3 0 0 1 3 3v4.448c0 .45-.501.718-.875.468v0a1.13 1.13 0 0 0-1.25 0l-.125.084a1.35 1.35 0 0 1-1.5 0" /></svg>