<svg id="headset" xmlns="http://www.w3.org/2000/svg" fill="none" viewBox="0 0 24 24"><path stroke="currentColor" stroke-linecap="round" stroke-linejoin="round" stroke-width="1.5" d="M5 12a2.75 2.75 0 0 0-.768 2.395l.463 2.777c.16.96 1.14 1.55 2.063 1.242v0c.72-.24 1.17-.959 1.069-1.712l-.497-3.724A1.465 1.465 0 0 0 5 12m0 0v-1a7 7 0 0 1 14 0v1m0 0a1.465 1.465 0 0 0-2.33.978l-.461 3.455c-.121.91.42 1.777 1.291 2.067v0M19 12c.628.628.913 1.52.767 2.395l-.507 3.045a1.35 1.35 0 0 1-1.76 1.06v0m0 0c-1 1-2.5 2-5 2m0 0a.5.5 0 0 0-.5-.5v0a.5.5 0 0 0-.5.5v0a.5.5 0 0 0 .5.5v0a.5.5 0 0 0 .5-.5" /></svg>