<svg id="headerContentSidebar" xmlns="http://www.w3.org/2000/svg" fill="none" viewBox="0 0 24 24"><path stroke="currentColor" stroke-linecap="round" stroke-linejoin="round" stroke-width="1.5" d="M9 20h5.6c2.25 0 3.375 0 4.163-.573q.384-.28.664-.664C20 17.975 20 16.85 20 14.6V8M9 20c-1.87 0-2.804 0-3.5-.402A3 3 0 0 1 4.402 18.5C4 17.804 4 16.87 4 15V8m5 12V8m0 0h11M9 8H4m16 0c0-.93 0-1.395-.102-1.776a3 3 0 0 0-2.122-2.122C17.396 4 16.93 4 16 4H8c-.93 0-1.395 0-1.776.102a3 3 0 0 0-2.122 2.122C4 6.605 4 7.07 4 8v0" /></svg>