<svg id="headphoneDeafen" xmlns="http://www.w3.org/2000/svg" fill="none" viewBox="0 0 24 24"><path stroke="currentColor" stroke-linecap="round" stroke-linejoin="round" stroke-width="1.5" d="M5 13a2.75 2.75 0 0 0-.768 2.395l.463 2.777c.16.96 1.14 1.55 2.063 1.242v0c.72-.24 1.17-.959 1.069-1.712l-.497-3.724A1.465 1.465 0 0 0 5 13m0 0v-1a7 7 0 0 1 14 0v1m0 0a1.465 1.465 0 0 0-2.33.978l-.497 3.724c-.1.753.348 1.472 1.069 1.712v0a1.584 1.584 0 0 0 2.063-1.242l.462-2.777A2.75 2.75 0 0 0 19 13m-7 3-1.5-1.5M12 16l1.5-1.5M12 16l1.5 1.5M12 16l-1.5 1.5" /></svg>