<svg id="headphoneDeafen1" xmlns="http://www.w3.org/2000/svg" fill="none" viewBox="0 0 24 24"><path stroke="currentColor" stroke-linecap="round" stroke-linejoin="round" stroke-width="1.5" d="M19 13c.12.12.179.179.233.24a3 3 0 0 1 .763 1.84c.004.081.004.166.004.334V16.5M19 13v-1a7 7 0 0 0-9.545-6.523M19 13l-.44-.146A2.7 2.7 0 0 0 16.5 13v0M5 13v-1c0-.92.177-1.798.5-2.603M5 13a1.465 1.465 0 0 1 2.33.978l.497 3.724c.1.753-.348 1.472-1.069 1.712v0a1.584 1.584 0 0 1-2.063-1.242l-.463-2.777A2.75 2.75 0 0 1 5 13m0-8 15 15" /></svg>