<svg id="heartHalfFilled" xmlns="http://www.w3.org/2000/svg" fill="none" viewBox="0 0 24 24"><path fill="white" fill-opacity=".14" fill-rule="evenodd" d="M11.611 20.641a.75.75 0 0 0 .778 0c4.98-3.019 8.361-6.07 8.361-10.239 0-2.882-2.07-5.152-4.75-5.152-1.67 0-3.152.848-4 2.139A4.78 4.78 0 0 0 8 5.25c-2.68 0-4.75 2.27-4.75 5.152 0 4.168 3.38 7.22 8.361 10.24" clip-rule="evenodd" /><path fill="currentColor" d="M12 7.389A4.78 4.78 0 0 0 8 5.25c-2.68 0-4.75 2.27-4.75 5.152 0 4.168 3.38 7.22 8.361 10.24a.75.75 0 0 0 .389.108z" /></svg>