<svg id="heavySnow" xmlns="http://www.w3.org/2000/svg" fill="none" viewBox="0 0 24 24"><path stroke="currentColor" stroke-linecap="round" stroke-linejoin="round" stroke-width="1.5" d="M7 5V3m0 2v2m0-2L5.268 4M7 5l1.732 1M7 5l1.732-1M7 5 5.268 6M17 5V3m0 2v2m0-2-1.732-1M17 5l1.732 1M17 5l1.732-1M17 5l-1.732 1M12 10V8m0 2v2m0-2-1.732-1M12 10l1.732 1M12 10l1.732-1M12 10l-1.732 1M7 15v-2m0 2v2m0-2-1.732-1M7 15l1.732 1M7 15l1.732-1M7 15l-1.732 1M17 15v-2m0 2v2m0-2-1.732-1M17 15l1.732 1M17 15l1.732-1M17 15l-1.732 1M12 20v-2m0 2v2m0-2-1.732-1M12 20l1.732 1M12 20l1.732-1M12 20l-1.732 1" /></svg>