<svg id="helmetSpartan" xmlns="http://www.w3.org/2000/svg" fill="none" viewBox="0 0 24 24"><path stroke="currentColor" stroke-linecap="round" stroke-linejoin="round" stroke-width="1.5" d="m18 12 1 6c-.793-.264-1.526-.58-1.816-1.449L16.5 14.5H13l2 2.5 2 6-5-3-.39-3.124a1 1 0 0 0-.993-.876H10.5l-.5 2.5-2 .5.201-.603a3 3 0 0 0 .03-1.803L7.46 14M18 12s-1-3.797-5.375-3.85M18 12c-4.533-.55-7.14-.75-10.54 2m0 0s-.47-1.15 0-2.55m0 0L6 11m1.46.45c.76-2.264 2.95-3.327 5.165-3.3M6 11l.338-1.043C7.008 7.896 9.333 6.5 11.5 6.5H13M6 11l-2 6-.771-6.168C2.597 5.774 6.922 1.552 11.999 2L19 3l-2 3.5h-4m-.375 1.65L13 6.5" /></svg>