<svg id="highlighter" xmlns="http://www.w3.org/2000/svg" fill="none" viewBox="0 0 24 24"><path stroke="currentColor" stroke-linecap="round" stroke-linejoin="round" stroke-width="1.5" d="m8.718 17.91-2.122-2.121m2.122 2.12a2 2 0 0 0 2.828 0l.707-.706m-3.535.707-.311.31a2.56 2.56 0 0 1-1.81.75h-.622a1.06 1.06 0 0 1-.75-.31v0a1.06 1.06 0 0 1 0-1.5l1.371-1.371m0 0a2 2 0 0 1 0-2.829l.707-.707m0 0 4.95 4.95m-4.95-4.95a1.337 1.337 0 0 1 .115-1.993L14.4 4.722a3 3 0 0 1 3.985.23l1.169 1.168a3 3 0 0 1 .229 3.985l-5.538 6.983a1.337 1.337 0 0 1-1.993.115v0" /></svg>