<svg id="highVisibilityVest" xmlns="http://www.w3.org/2000/svg" fill="none" viewBox="0 0 24 24"><path stroke="currentColor" stroke-linecap="round" stroke-linejoin="round" stroke-width="1.5" d="m12 20 .121.121a3 3 0 0 0 2.122.879H17a3 3 0 0 0 3-3v0m-8 2-.121.121A3 3 0 0 1 9.757 21H7a3 3 0 0 1-3-3v0m8 2V8M9 3a3 3 0 0 0-3 3v.757a3 3 0 0 1-.879 2.122l-.242.242A3 3 0 0 0 4 11.243V12m5-9 3 5M9 3h6m-3 5 3-5m0 0a3 3 0 0 1 3 3v.757a3 3 0 0 0 .879 2.122l.242.242A3 3 0 0 1 20 11.243V12M4 12h3a1 1 0 0 1 1 1v0a1 1 0 0 1-1 1H4m0-2v2m0 0v2m0 0h3a1 1 0 0 1 1 1v0a1 1 0 0 1-1 1H4m0-2v2m16 0h-3a1 1 0 0 1-1-1v0a1 1 0 0 1 1-1h3m0 2v-2m0 0v-2m0 0h-3a1 1 0 0 1-1-1v0a1 1 0 0 1 1-1h3m0 2v-2" /></svg>