<svg id="home1" xmlns="http://www.w3.org/2000/svg" fill="none" viewBox="0 0 24 24"><path stroke="currentColor" stroke-linecap="round" stroke-linejoin="round" stroke-width="1.5" d="M9 19H7.6c-1.5 0-2.25 0-2.776-.382a2 2 0 0 1-.442-.442C4 17.65 4 16.9 4 15.4V9.995c0-.865 0-1.297.162-1.674a2 2 0 0 1 .196-.354c.234-.337.6-.566 1.334-1.024l4.4-2.75c.822-.514 1.233-.771 1.685-.822q.223-.026.446 0c.452.05.863.308 1.685.821l4.4 2.75c.733.459 1.1.688 1.334 1.025q.116.167.196.354c.162.377.162.81.162 1.674V15.4c0 1.5 0 2.25-.382 2.776q-.187.256-.442.442C18.65 19 17.9 19 16.4 19H15m-6 0h6m-6 0v-3c0-.932 0-1.398.152-1.765a2 2 0 0 1 1.083-1.083C10.602 13 11.068 13 12 13v0c.932 0 1.398 0 1.765.152a2 2 0 0 1 1.083 1.083C15 14.602 15 15.068 15 16v3" /></svg>