<svg id="home2" xmlns="http://www.w3.org/2000/svg" fill="none" viewBox="0 0 24 24"><path stroke="currentColor" stroke-linecap="round" stroke-linejoin="round" stroke-width="1.5" d="M4 9.995v6.255c0 .698 0 1.047.086 1.33a2 2 0 0 0 1.333 1.334C5.703 19 6.052 19 6.75 19s1.047 0 1.33-.086a2 2 0 0 0 1.334-1.333c.086-.284.086-.633.086-1.331v-.75c0-.465 0-.697.038-.89a2 2 0 0 1 1.572-1.572C11.303 13 11.535 13 12 13s.697 0 .89.038a2 2 0 0 1 1.572 1.572c.038.193.038.425.038.89v.75c0 .698 0 1.047.086 1.33a2 2 0 0 0 1.333 1.334c.284.086.633.086 1.331.086s1.047 0 1.33-.086a2 2 0 0 0 1.334-1.333c.086-.284.086-.633.086-1.331V9.995c0-.865 0-1.297-.162-1.674a2 2 0 0 0-.196-.354c-.234-.337-.6-.566-1.334-1.024l-4.4-2.75c-.822-.514-1.233-.771-1.685-.822a2 2 0 0 0-.446 0c-.452.05-.863.308-1.685.821l-4.4 2.75h0c-.733.459-1.1.688-1.334 1.025a2 2 0 0 0-.196.354C4 8.698 4 9.13 4 9.995" /></svg>