<svg id="home4" xmlns="http://www.w3.org/2000/svg" fill="none" viewBox="0 0 24 24"><path stroke="currentColor" stroke-linecap="round" stroke-linejoin="round" stroke-width="1.5" d="m20 9-1-.75M4 9l1-.75m14 0-4.84-3.63c-.92-.69-1.381-1.036-1.903-1.103a2 2 0 0 0-.514 0c-.522.067-.982.412-1.903 1.103L9 5.25m10 3v7.15c0 1.5 0 2.25-.382 2.776q-.187.256-.442.442C17.65 19 16.9 19 15.4 19H8.6c-1.5 0-2.25 0-2.776-.382a2 2 0 0 1-.442-.442C5 17.65 5 16.9 5 15.4V8.25m0 0 2-1.5m0 0V4.5a1 1 0 0 1 1-1v0a1 1 0 0 1 1 1v.75m-2 1.5 2-1.5" /></svg>