<svg id="horizontalPitch" xmlns="http://www.w3.org/2000/svg" fill="none" viewBox="0 0 24 24"><path stroke="currentColor" stroke-linecap="round" stroke-linejoin="round" stroke-width="1.5" d="M2 12.012 4 12m4 0h2m4 0h2m6 0h-2m-1-2V6.075c0-.852 0-1.279-.226-1.555a1 1 0 0 0-.257-.223c-.305-.184-.727-.124-1.572-.003l-10.4 1.485c-.651.093-.977.14-1.2.332a1 1 0 0 0-.186.215C5 6.573 5 6.903 5 7.561V10m14 4.5v3.425c0 .852 0 1.279-.226 1.555q-.11.133-.257.223c-.305.184-.727.124-1.572.003l-10.4-1.485c-.651-.093-.977-.14-1.2-.332a1 1 0 0 1-.186-.215C5 17.427 5 17.097 5 16.439V14.5" /></svg>