<svg id="hospital" xmlns="http://www.w3.org/2000/svg" fill="none" viewBox="0 0 24 24"><path stroke="currentColor" stroke-linecap="round" stroke-linejoin="round" stroke-width="1.5" d="M8 20V8m0 12H4m4 0h2.5m5.5 0V8m0 12h4m-4 0h-2.5M16 8v-.4c0-1.5 0-2.25-.382-2.776a2 2 0 0 0-.442-.442C14.65 4 13.9 4 12.4 4h-.8c-1.5 0-2.25 0-2.776.382a2 2 0 0 0-.442.442C8 5.35 8 6.1 8 7.6V8m8 0h.4c1.5 0 2.25 0 2.776.382.17.123.319.273.442.442C20 9.35 20 10.1 20 11.6V20m0 0h1M8 8h-.4c-1.5 0-2.25 0-2.776.382a2 2 0 0 0-.442.442C4 9.35 4 10.1 4 11.6V20m0 0H3m9-13v1m0 1V8m-1 0h1m0 0h1m-2.5 12v-3.5A1.5 1.5 0 0 1 12 15v0a1.5 1.5 0 0 1 1.5 1.5V20m-3 0h3" /></svg>