<svg id="hotPepper" xmlns="http://www.w3.org/2000/svg" fill="none" viewBox="0 0 24 24"><path stroke="currentColor" stroke-linecap="round" stroke-linejoin="round" stroke-width="1.5" d="M6 4c1.657 0 2.5 1 3 3 .158.633.316 1.31.515 2M6 4c-.547 0-1.059.146-1.5.401M6 4c-.4-1.2-1.167-1.833-1.5-2-.167 0-.6.1-1 .5.8.4 1 1.434 1 1.901m0 0C3.603 4.921 3.157 5.901 3 7q-.229 1.604-.075 3m0 0C3.492 15.164 7.95 18.23 16 19.5a55 55 0 0 0 3.004.41c1.099.11 1.96-.877 1.241-1.716-1.1-1.284-3.18-2.224-4.745-2.694-3.945-1.184-5.244-3.923-5.985-6.5m-6.59 1L4.5 8c.808.587 1.904 1.308 2.5 2.5.343-1.372.495-2.408 1-3L9.515 9" /></svg>
