<svg id="hourglass" xmlns="http://www.w3.org/2000/svg" fill="none" viewBox="0 0 24 24"><path stroke="currentColor" stroke-linecap="round" stroke-linejoin="round" stroke-width="1.5" d="M8 20v-2.3c0-1.175 0-1.763.204-2.287q.1-.26.248-.497c.298-.478.768-.83 1.708-1.536l3.68-2.76c.94-.705 1.41-1.058 1.707-1.536q.148-.236.249-.497C16 8.063 16 7.475 16 6.3V4M8 20h8m-8 0H6M16 4H8m8 0h2M8 4v2.3c0 1.175 0 1.763.204 2.287a3 3 0 0 0 .248.497c.298.478.768.83 1.708 1.536l3.68 2.76c.94.705 1.41 1.058 1.707 1.536q.148.236.249.497C16 15.937 16 16.525 16 17.7V20M8 4H6m10 16h2" /></svg>