<svg id="ice" xmlns="http://www.w3.org/2000/svg" fill="none" viewBox="0 0 24 24"><path stroke="currentColor" stroke-linecap="round" stroke-linejoin="round" stroke-width="1.5" d="M12 15v-2.5m0 2.5v2.5m0-2.5 2.165-1.25M12 15l-2.165 1.25M12 15l-2.165-1.25M12 15l2.165 1.25M12 12.5 11 11m1 1.5 1-1.5m-1 6.5L11 19m1-1.5 1 1.5m1.165-5.25.8-1.616m-.8 1.616 1.8.116m-6.13 2.384-1.8-.116m1.8.116-.8 1.616m.8-4.116-1.8.116m1.8-.116-.8-1.616m5.13 4.116.8 1.616m-.8-1.616 1.8-.116M18 15a6 6 0 0 1-12 0c0-6 5-12 6-12s6 6 6 12" /></svg>