<svg id="iceCream" xmlns="http://www.w3.org/2000/svg" fill="none" viewBox="0 0 24 24"><path stroke="currentColor" stroke-linecap="round" stroke-linejoin="round" stroke-width="1.5" d="M10 6c.485-1.664 2.18-3 4-3a4 4 0 0 1 4 4c0 .723-.192 1.475-.59 2.084M10 6c1.976 0 3.578 1.447 3.95 3.35M10 6C7.848 6 6.002 7.796 6.002 9.961m11.408-.877L18.5 9l-5.626 12.118a1 1 0 0 1-1.802.026L5.5 10l.502-.039m11.408-.877-3.46.266m0 0-1.288.1q-.163.011-.315.065v0a1.26 1.26 0 0 0-.847 1.189V13a1 1 0 0 1-1 1v0a1 1 0 0 1-1-1v-2.5c0-.33-.678-.542-1.197-.643a2.3 2.3 0 0 0-.61-.026l-1.691.13" /></svg>