<svg id="inbox" xmlns="http://www.w3.org/2000/svg" fill="none" viewBox="0 0 24 24"><path stroke="currentColor" stroke-linecap="round" stroke-linejoin="round" stroke-width="1.5" d="M4 13v.6c0 2.25 0 3.375.573 4.163.185.255.409.479.664.664C6.025 19 7.15 19 9.4 19h5.2c2.25 0 3.375 0 4.163-.573q.384-.28.664-.664C20 16.975 20 15.85 20 13.6V13M4 13h2.222c.329 0 .493 0 .65.016a3 3 0 0 1 1.82.876c.11.111.213.24.419.497v0c.495.619.743.929.986 1.128a3 3 0 0 0 3.806 0c.243-.2.49-.51.986-1.128v0c.206-.257.308-.386.419-.497a3 3 0 0 1 1.82-.876c.157-.016.321-.016.65-.016H20M4 13l.977-3.91C5.412 7.351 5.63 6.482 6.2 5.9a3 3 0 0 1 .625-.488C7.528 5 8.424 5 10.216 5h3.568c1.792 0 2.688 0 3.391.412a3 3 0 0 1 .625.488c.57.582.788 1.451 1.223 3.19L20 13" /></svg>