<svg id="incognito" xmlns="http://www.w3.org/2000/svg" fill="none" viewBox="0 0 24 24"><path stroke="currentColor" stroke-linecap="round" stroke-linejoin="round" stroke-width="1.5" d="M4 11h2m14 0h-2m0 0-.338-2.364c-.279-1.955-.419-2.933-.996-3.6a3 3 0 0 0-.645-.56C15.28 4 14.29 4 12.317 4h-.634C9.708 4 8.72 4 7.98 4.477a3 3 0 0 0-.645.56c-.577.666-.717 1.644-.996 3.6L6 11m12 0H6m4 6a3 3 0 1 1-6 0 3 3 0 0 1 6 0m0 0c.643-.322.965-.483 1.298-.563a3 3 0 0 1 1.404 0c.333.08.655.241 1.298.563v0m0 0a3 3 0 1 0 6 0 3 3 0 0 0-6 0" /></svg>