<svg id="india" xmlns="http://www.w3.org/2000/svg" fill="none" viewBox="0 0 24 24"><path stroke="currentColor" stroke-linecap="round" stroke-linejoin="round" stroke-width="1.5" d="M4 21h2m-2 0v-4m0 4H2m18 0h-4m4 0h-2m2 0v-4m0 4h2m-6 0V11h-1m1 10h-3m3 0h2m-2 0v-4m-8 4V11h1M8 21h3m-3 0H6m2 0v-4m3 4v-4a1 1 0 0 1 1-1v0a1 1 0 0 1 1 1v4m-2 0h2M9 11s-1-.5-1-2.5c0-2.652 3-3 4-4.5m-3 7h6m-3-7c1 1.5 4 1.848 4 4.5 0 2-1 2.5-1 2.5m-3-7V3M4 13h4m-4 0v4m0-4c0-1.5 1.5-2 2-3 .5 1 2 1.5 2 3m0 0v4m-2 4v-2m-2-2h4m8-4h4m-4 0v4m0-4c0-1.5 1.5-2 2-3 .5 1 2 1.5 2 3m0 0v4m-2 4v-2m-2-2h4" /></svg>