<svg id="inputError" xmlns="http://www.w3.org/2000/svg" fill="none" viewBox="0 0 24 24"><path stroke="currentColor" stroke-linecap="round" stroke-linejoin="round" stroke-width="1.5" d="M12 8H6.6c-1.5 0-2.25 0-2.776.382a2 2 0 0 0-.442.442C3 9.35 3 10.1 3 11.6v.8c0 1.5 0 2.25.382 2.776q.187.256.442.442C4.35 16 5.1 16 6.6 16H12m6 0c.932 0 1.398 0 1.765-.152a2 2 0 0 0 1.083-1.083C21 14.398 21 13.932 21 13v-2c0-.932 0-1.398-.152-1.765a2 2 0 0 0-1.083-1.083C19.398 8 18.932 8 18 8m-3 7.5a.5.5 0 0 0-.5.5v0m.5-.5a.5.5 0 0 1 .5.5v0m-.5-.5v.5m0 0v.5m0-.5h-.5m.5 0h.5m-.5.5a.5.5 0 0 0 .5-.5v0m-.5.5a.5.5 0 0 1-.5-.5v0m.5-3-.459-5.502A.46.46 0 0 1 15 7v0c.27 0 .48.23.459.498z" /></svg>