<svg id="inputPassword" xmlns="http://www.w3.org/2000/svg" fill="none" viewBox="0 0 24 24"><path stroke="currentColor" stroke-linecap="round" stroke-linejoin="round" stroke-width="1.5" d="M12 16h5.4c1.5 0 2.25 0 2.776-.382q.256-.187.442-.442C21 14.65 21 13.9 21 12.4v-.8c0-1.5 0-2.25-.382-2.776a2 2 0 0 0-.442-.442C19.65 8 18.9 8 17.4 8H6.6c-1.5 0-2.25 0-2.776.382a2 2 0 0 0-.442.442C3 9.35 3 10.1 3 11.6v.8c0 1.5 0 2.25.382 2.776q.187.256.442.442C4.35 16 5.1 16 6.6 16h5.39M8 12a1 1 0 1 1-2 0 1 1 0 0 1 2 0m4 0a1 1 0 1 1-2 0 1 1 0 0 1 2 0m4 0a1 1 0 1 1-2 0 1 1 0 0 1 2 0" /></svg>