<svg id="input" xmlns="http://www.w3.org/2000/svg" fill="none" viewBox="0 0 24 24"><path stroke="currentColor" stroke-linecap="round" stroke-linejoin="round" stroke-width="1.5" d="M9 8H7.6c-1.5 0-2.25 0-2.776.382a2 2 0 0 0-.442.442C4 9.35 4 10.1 4 11.6v.8c0 1.5 0 2.25.382 2.776q.187.256.442.442C5.35 16 6.1 16 7.6 16H9m0-8h7.4c1.5 0 2.25 0 2.776.382.17.123.319.273.442.442C20 9.35 20 10.1 20 11.6v.8c0 1.5 0 2.25-.382 2.776q-.187.256-.442.442C18.65 16 17.9 16 16.4 16H9m0-8v8m0-8V6m0 10v2M9 6c-.12-.12-.179-.179-.24-.233a3 3 0 0 0-1.84-.763C6.839 5 6.754 5 6.586 5H6m3 1c.12-.12.179-.179.24-.233a3 3 0 0 1 1.84-.763C11.161 5 11.246 5 11.414 5H12M9 18c-.12.12-.179.179-.24.233a3 3 0 0 1-1.84.763C6.839 19 6.754 19 6.586 19H6m3-1c.12.12.179.179.24.233a3 3 0 0 0 1.84.763c.081.004.166.004.334.004H12" /></svg>