<svg id="inputDropDownOpen" xmlns="http://www.w3.org/2000/svg" fill="none" viewBox="0 0 24 24"><path stroke="currentColor" stroke-linecap="round" stroke-linejoin="round" stroke-width="1.5" d="M3 12V7.6c0-1.5 0-2.25.382-2.776a2 2 0 0 1 .442-.442C4.35 4 5.1 4 6.6 4h10.8c1.5 0 2.25 0 2.776.382q.256.187.442.442C21 5.35 21 6.1 21 7.6V12M3 12h18M3 12v4.4c0 1.5 0 2.25.382 2.776q.187.256.442.442C4.35 20 5.1 20 6.6 20h10.8c1.5 0 2.25 0 2.776-.382q.256-.187.442-.442C21 18.65 21 17.9 21 16.4V12M6 15h7m-7 2h11m.5-9.5L16 9l-1.5-1.5z" /></svg>