<svg id="intersect" xmlns="http://www.w3.org/2000/svg" fill="none" viewBox="0 0 24 24"><path stroke="currentColor" stroke-linecap="round" stroke-linejoin="round" stroke-width="1.5" d="M5 15.83c.313.11.65.17 1 .17m9.83-11c.11.313.17.65.17 1m-2-2.83q.352.127.659.33M3.17 14q.126.352.329.659M3 12v-1m8-8h1M8.5 3H9M6 3h.5M3 9v-.5m0-2V6m1.341-2.5a3 3 0 0 0-.841.841M19 8.171A3 3 0 0 0 18 8M8.17 19c-.11-.313-.17-.65-.17-1m2 2.83a3 3 0 0 1-.659-.33M20.83 10a3 3 0 0 0-.329-.659M21 12v1m-8 8h-1m3.5 0H15m3 0h-.5m3.5-6v.5m0 2v.5m-1.341 2.5c.333-.221.62-.508.841-.841M8 13v3h3m-3-3v-2a3 3 0 0 1 .129-.871M8 13l3 3m0 0h2a3 3 0 0 0 .871-.129m0 0L8.13 10.13m5.743 5.743a3 3 0 0 0 1.69-1.31M8.13 10.13a3 3 0 0 1 1.31-1.69m6.123 6.123c.278-.455.438-.99.438-1.562v-1m-.438 2.562L9.438 8.438m0 0C9.893 8.16 10.428 8 11 8h1m0 0 4 4m-4-4h3m1 4V9m-1-1h1v1m-1-1 1 1" /></svg>