<svg id="iosLocationTracking" xmlns="http://www.w3.org/2000/svg" fill="none" viewBox="0 0 24 24"><path stroke="currentColor" stroke-linecap="round" stroke-linejoin="round" stroke-width="1.5" d="M11.95 20a8 8 0 1 1 .1 0m-3.075-9.366 4.708-1.765c.878-.33 1.318-.494 1.58-.332.08.05.15.12.2.2.162.262-.002.702-.332 1.58l-1.765 4.708c-.41 1.09-.614 1.636-.94 1.711a.6.6 0 0 1-.305-.005c-.323-.088-.508-.64-.876-1.746l-.38-1.139c-.077-.232-.116-.348-.19-.438a.6.6 0 0 0-.083-.082c-.09-.075-.206-.114-.438-.191l-1.14-.38c-1.105-.369-1.657-.553-1.745-.876a.6.6 0 0 1-.005-.305c.075-.326.62-.53 1.711-.94" /></svg>