<svg id="jigsawPiece" xmlns="http://www.w3.org/2000/svg" fill="none" viewBox="0 0 24 24"><path stroke="currentColor" stroke-linecap="round" stroke-linejoin="round" stroke-width="1.5" d="M10.5 5c0 .563.186 1.082.5 1.5H8.3c-.75 0-1.125 0-1.388.191a1 1 0 0 0-.221.221C6.5 7.175 6.5 7.55 6.5 8.3V11a2.5 2.5 0 1 0 0 4v3.7c0 .75 0 1.125.191 1.388a1 1 0 0 0 .221.221c.263.191.638.191 1.388.191H11a2.5 2.5 0 1 1 4 0h3.7c.75 0 1.125 0 1.388-.191a1 1 0 0 0 .221-.221c.191-.263.191-.638.191-1.388V15a2.5 2.5 0 1 1 0-4V8.3c0-.75 0-1.125-.191-1.388a1 1 0 0 0-.221-.221C19.825 6.5 19.45 6.5 18.7 6.5H15A2.5 2.5 0 1 0 10.5 5" /></svg>