<svg id="kidneys" xmlns="http://www.w3.org/2000/svg" fill="none" viewBox="0 0 24 24"><path stroke="currentColor" stroke-linecap="round" stroke-linejoin="round" stroke-width="1.5" d="M7.299 10.224c.187-.664.693-1.218 1.449-1.498 1.393-.515 1.924-1.955 1.207-3.285a3 3 0 0 0-.194-.313C8.08 2.747 4.403 4.492 3.026 7.064a10 10 0 0 0-.79 1.924c-.825 2.8.558 6.647 3.418 6.152q.181-.032.358-.084c1.44-.434 2.073-1.832 1.446-3.186-.26-.564-.303-1.137-.16-1.646m0 0 1.903.852a3 3 0 0 1 1.775 2.738V20m5.724-9.776c-.187-.664-.693-1.218-1.449-1.498-1.393-.515-1.924-1.955-1.207-3.285q.089-.162.194-.313c1.681-2.381 5.358-.636 6.735 1.936.328.612.592 1.257.79 1.924.826 2.8-.558 6.647-3.418 6.152q-.181-.032-.358-.084c-1.44-.434-2.073-1.832-1.447-3.186.261-.564.304-1.137.16-1.646m0 0-1.904.852a3 3 0 0 0-1.774 2.738V20" /></svg>