<svg id="kremlin" xmlns="http://www.w3.org/2000/svg" fill="none" viewBox="0 0 24 24"><path stroke="currentColor" stroke-linecap="round" stroke-linejoin="round" stroke-width="1.5" d="M3 22v-3h.5M21 22v-3h-.5M12 5a1 1 0 1 0 0-2 1 1 0 0 0 0 2m0 0-1.429 4M12 5l1.429 4m1.071 3c0 1.5 1.5 2 1.5 2m-1.5-2c0-2.25 2.5-2 3.5-4.344C19 10 21.5 9.75 21.5 12c0 1.5-1.5 2-1.5 2m-5.5-2-1.071-3M4 17h-.5v2m.5-2h4m-4 0v-2m4 2v-2m0 2h.5v2M4 15h4m-4 0s-1.5-.5-1.5-2c0-2.25 2.5-2 3.5-4.344C7 11 9.5 10.75 9.5 13c0 1.5-1.5 2-1.5 2m12 1h.5v3m-.5-3h-4m4 0v-2m-4 2v-2m0 2h-.5v3m4.5-5h-4m4.5 5h-5m-12 0h5m0 0h7m-6-7 1.071-3m0 0h2.858" /></svg>