<svg id="lakeHouse" xmlns="http://www.w3.org/2000/svg" fill="none" viewBox="0 0 24 24"><path stroke="currentColor" stroke-linecap="round" stroke-linejoin="round" stroke-width="1.5" d="M5.5 13V8.8c0-.783 0-1.175.136-1.525a2 2 0 0 1 .166-.331C6 6.625 6.313 6.39 6.94 5.92l.4-.3c.92-.69 1.381-1.036 1.903-1.103a2 2 0 0 1 .514 0c.522.067.982.412 1.903 1.103l.4.3c.627.47.94.705 1.138 1.024a2 2 0 0 1 .166.331c.136.35.136.742.136 1.525V13m-8 0h3m-3 0h-1m9 0h-3m3 0h5m-10 0h2m-2 0v-2a1 1 0 0 1 1-1v0a1 1 0 0 1 1 1v2m8-9c-.5 1.5-.5 2.5-2 3m2-3v3m0-3c.5 1.5.5 2.5 2 3m-2 6V7m0 6h1m-1-6c-.5 1.5-.5 2.5-2 3m2-3c.5 1.5.5 2.5 2 3m-16 6 .938.5a1.99 1.99 0 0 0 1.875 0v0a1.99 1.99 0 0 1 1.875 0v0a1.99 1.99 0 0 0 1.874 0v0a1.99 1.99 0 0 1 1.876 0v0a1.99 1.99 0 0 0 1.874 0v0a1.99 1.99 0 0 1 1.876 0v0a1.99 1.99 0 0 0 1.875 0l.937-.5m-15 3 .938.5a1.99 1.99 0 0 0 1.875 0v0a1.99 1.99 0 0 1 1.875 0v0a1.99 1.99 0 0 0 1.874 0v0a1.99 1.99 0 0 1 1.876 0v0a1.99 1.99 0 0 0 1.874 0v0a1.99 1.99 0 0 1 1.876 0v0a1.99 1.99 0 0 0 1.875 0l.937-.5" /></svg>