<svg id="laurelCrown" xmlns="http://www.w3.org/2000/svg" fill="none" viewBox="0 0 24 24"><path stroke="currentColor" stroke-linecap="round" stroke-linejoin="round" stroke-width="1.5" d="M7.263 5.004c0 .874.948 2.003.948 2.003s.947-1.129.947-2.003S8.21 3 8.21 3s-.948 1.129-.948 2.004M4.421 8.742c.414.758 1.768 1.234 1.768 1.234s.287-1.478-.127-2.236c-.414-.757-1.768-1.234-1.768-1.234s-.287 1.479.127 2.236m-.254 5.009c.717.438 2.115.134 2.115.134s-.451-1.432-1.167-1.87C4.398 11.58 3 11.883 3 11.883s.45 1.432 1.167 1.87m1.201 4.274c.828 0 1.895-1.002 1.895-1.002s-1.067-1.002-1.895-1.002c-.827 0-1.894 1.002-1.894 1.002s1.067 1.002 1.894 1.002m3.536 2.737c.716-.438 1.167-1.87 1.167-1.87s-1.398-.303-2.114.134c-.717.438-1.168 1.87-1.168 1.87s1.399.303 2.115-.134m7.833-15.76c0 .874-.947 2.003-.947 2.003s-.948-1.129-.948-2.003S15.79 3 15.79 3s.948 1.129.948 2.004m2.841 3.738c-.414.758-1.768 1.234-1.768 1.234s-.287-1.478.127-2.236c.414-.757 1.768-1.234 1.768-1.234s.287 1.479-.127 2.236m.254 5.009c-.717.438-2.115.134-2.115.134s.451-1.432 1.167-1.87c.717-.436 2.115-.133 2.115-.133s-.45 1.432-1.167 1.87m-1.201 4.275c-.828 0-1.895-1.002-1.895-1.002s1.067-1.002 1.895-1.002c.827 0 1.894 1.002 1.894 1.002s-1.067 1.002-1.894 1.002m-3.536 2.737c-.716-.438-1.167-1.87-1.167-1.87s1.398-.303 2.114.134c.717.438 1.168 1.87 1.168 1.87s-1.399.303-2.115-.134" /></svg>