<svg id="layoutAdd" xmlns="http://www.w3.org/2000/svg" fill="none" viewBox="0 0 24 24"><path stroke="currentColor" stroke-linecap="round" stroke-linejoin="round" stroke-width="1.5" d="M12 4h2.6c2.25 0 3.375 0 4.163.573.255.185.479.409.664.664C20 6.025 20 7.15 20 9.4v.8c0 .75 0 1.125-.191 1.388a1 1 0 0 1-.221.221C19.325 12 18.95 12 18.2 12H12m0-8v8m0-8H9.4c-2.25 0-3.375 0-4.163.573a3 3 0 0 0-.664.664C4 6.025 4 7.15 4 9.4V12m8 0v6.2c0 .75 0 1.125-.191 1.388a1 1 0 0 1-.221.221C11.325 20 10.95 20 10.2 20h-.8c-2.25 0-3.375 0-4.163-.573a3 3 0 0 1-.664-.664C4 17.975 4 16.85 4 14.6V12m8 0H4m14 6v-3m0 3v3m0-3h-3m3 0h3" /></svg>