<svg id="leftHand2FingersSwipeLeft" xmlns="http://www.w3.org/2000/svg" fill="none" viewBox="0 0 24 24"><path stroke="currentColor" stroke-linecap="round" stroke-linejoin="round" stroke-width="1.5" d="M10 6v-.5A1.5 1.5 0 0 1 11.5 4v0A1.5 1.5 0 0 1 13 5.5V14l2.726-1.363a1.76 1.76 0 0 1 2.164.475v0a1.76 1.76 0 0 1-.288 2.486l-5.058 3.975a2 2 0 0 1-1.236.427H7.407a3 3 0 0 1-2.929-2.35l-1.001-4.504a2 2 0 0 1 1.704-2.419l.943-.117A1 1 0 0 0 7 9.617V6.545C7 5.692 7.692 5 8.545 5v0c.585 0 1.12.33 1.382.854zm0 0v4m9.5-5.497 1.5 1.5m0 0L16 6m5 .003-1.5 1.5" /></svg>