<svg id="leftHandPinch" xmlns="http://www.w3.org/2000/svg" fill="none" viewBox="0 0 24 24"><path stroke="currentColor" stroke-linecap="round" stroke-linejoin="round" stroke-width="1.5" d="m20.394 7.793.643 1.894c.47 1.38.54 2.798.274 4.131m-.917-6.025-.777 2.376m.777-2.376 2.064 1.41M18.81 5.15l-1.504-1.318A7.96 7.96 0 0 0 13.592 2m5.218 3.15-2.493-.19m2.493.19-.516-2.447M12 14.821c-1.236-4.12-.096-6.542 1.183-8.386.452-.652.4-1.53-.16-2.092v0c-.58-.58-1.516-.635-2.113-.072C9.301 5.787 7.957 7.72 7.957 11l-2.768.381a3 3 0 0 0-2.526 3.59l1.003 4.762a2 2 0 0 0 1.957 1.588h4.987c.258 0 .513-.049.75-.15 3.341-1.441 5.206-3.5 6.73-6.117.25-.431.169-.975-.184-1.327v0c-.619-.619-1.701-.302-2.257.374-.778.949-1.995 1.382-3.649.72" /></svg>