<svg id="leftHandGiveMoney" xmlns="http://www.w3.org/2000/svg" fill="none" viewBox="0 0 24 24"><path stroke="currentColor" stroke-linecap="round" stroke-linejoin="round" stroke-width="1.5" d="M7.5 15c-1.15 0-2.3.294-2.999 1.107-.368.427-.054 1.027.486 1.19l5.974 1.791a8 8 0 0 0 5.877-.507l2.61-1.305a1 1 0 0 0 .552-.894V13c0-.552-.45-1.006-.996-.92-1.15.182-2.366.676-3.176 1.524-.223.234-.52.394-.842.4-1.27.028-3.878.22-4.719 1.546-.295.466.18.95.733.95h3.667M15 5c0-1.243-1.343-2-3-2m0 0c-1.657 0-3 .875-3 2 0 2.485 6 1.75 6 4 0 1.243-1.343 2-3 2m0-8V2m0 9c-1.657 0-3-.757-3-2m3 2v1" /></svg>