<svg id="lightHouse" xmlns="http://www.w3.org/2000/svg" fill="none" viewBox="0 0 24 24"><path stroke="currentColor" stroke-linecap="round" stroke-linejoin="round" stroke-width="1.5" d="M3 21h4m14 0h-4M15 8H9m6 0V4.2M15 8h1m-1 0 .385 2.5M17 21h-4m4 0-1.615-10.5M9 8 7 21M9 8V4.2M9 8H8M7 21h4M7 5l2-.8m8 .8-2-.8m-6 0 2.629-1.051a1 1 0 0 1 .742 0L15 4.2m3.762.988 1.931-.517M3.307 9.329l1.932-.517m13.523 0 1.931.517M3.307 4.671l1.932.517M11 21v-3a1 1 0 0 1 1-1v0a1 1 0 0 1 1 1v3m-2 0h2m-4.5-6h1m1-1.5h1m1-1.5h1m1-1.5h.885" /></svg>