<svg id="linkBroken" xmlns="http://www.w3.org/2000/svg" fill="none" viewBox="0 0 24 24"><g clip-path="url(#clip0_1556_83348)"><path stroke="currentColor" stroke-linecap="round" stroke-linejoin="round" stroke-width="1.5" d="m12.354 16.596-1.768 1.768a3.5 3.5 0 0 1-4.95 0v0a3.5 3.5 0 0 1 0-4.95l1.768-1.768M7.05 7.05 5.636 5.636M16.95 16.95l1.414 1.414M10.188 5.238l-.517-1.931m4.14 15.454.518 1.932M5.24 10.188l-1.932-.517m15.455 4.14 1.931.518m-4.097-1.975 1.768-1.768a3.5 3.5 0 0 0 0-4.95v0a3.5 3.5 0 0 0-4.95 0l-1.767 1.768" /></g><defs><clipPath id="clip0_1556_83348"><path fill="white" d="M0 0h24v24H0z" /></clipPath></defs></svg>