<svg id="lion" xmlns="http://www.w3.org/2000/svg" fill="none" viewBox="0 0 24 24"><path stroke="currentColor" stroke-linecap="round" stroke-linejoin="round" stroke-width="1.5" d="m12 14.853-.483-.51h.966zm0 0c.494.41 1.418 1.532 2.9 1.532 2.18 0 4.013-1.318 4.013-3.371 0-2.7-1.575-5.46-4.444-6.478a7.4 7.4 0 0 0-2.47-.409c-.905 0-1.73.147-2.468.409-2.869 1.017-4.444 3.778-4.444 6.478 0 2.053 1.832 3.37 4.014 3.37 1.481 0 2.405-1.12 2.899-1.53M9.584 11.28v1.02m4.832-1.02v1.02m-3.897 5.717s.493.41 1.48.41c.989 0 1.482-.41 1.482-.41m2.963-3.69c.988 0 1.975-.82 2.469-1.64m-11.357 1.64c-.494 0-1.975-.41-2.469-1.64m0 4.208s.688 4.034 1.598 3.063c.42-.448.483-1.531.483-1.531s.41 2.933 1.45 2.552c.49-.18.913-1.021.913-1.021S10.775 22 12 22s2.469-2.042 2.469-2.042.423.841.913 1.021c1.04.38 1.45-2.552 1.45-2.552s.063 1.083.483 1.531c.91.97 1.598-3.063 1.598-3.063s.652 1.113 1.301 1.532c1.933 1.247-.483-6.126-.483-6.126s.958 1.034 1.45 1.531c.11.111-.486-4.864-2.416-6.126 0 0 1.774.243 2.899 0 1.82-.394-4.349-2.042-4.349-2.042s1.228-.719 1.45-1.531c.42-1.545-3.866.51-3.866.51s1.588-.974 1.933-2.042C17.468.631 12 4.133 12 4.133S6.532.63 7.168 2.6c.345 1.068 1.933 2.042 1.933 2.042s-4.287-2.055-3.866-.51c.222.812 1.45 1.531 1.45 1.531S.515 7.312 2.336 7.706c1.125.243 2.751 0 2.751 0-1.637 1.256-2.551 6.382-2.268 6.126.518-.467 1.45-1.531 1.45-1.531s-2.416 7.373-.483 6.126c.649-.42 1.3-1.532 1.3-1.532" /></svg>