<svg id="liver" xmlns="http://www.w3.org/2000/svg" fill="none" viewBox="0 0 24 24"><path stroke="currentColor" stroke-linecap="round" stroke-linejoin="round" stroke-width="1.5" d="M9.317 6.044c-.7-.547-1.053-1.16-1.212-2.012C8 3.475 8.47 3 9.038 3h1.241c.43 0 .809.281 1.041.643.261.406.667.862 1.233 1.165.285.152.612.189.934.202C18.194 5.199 21 8.148 21 12.5c0 4.5-4 8.5-8 8.5-2.797 0-4.769-1.61-6.056-2.953-.339-.353-.944-.126-.944.363v.09a1.5 1.5 0 0 1-3 0v-2.85a2.755 2.755 0 0 1 4.702-1.947l1.59 1.59c.63.63 1.708.184 1.708-.707V8.939c0-1.18-.752-2.169-1.683-2.895" /></svg>