<svg id="locator" xmlns="http://www.w3.org/2000/svg" fill="none" viewBox="0 0 24 24"><path stroke="currentColor" stroke-linecap="round" stroke-linejoin="round" stroke-width="1.5" d="m12.392 15.177-.607-1.823h0c-.124-.372-.186-.558-.306-.702a1 1 0 0 0-.131-.131c-.144-.12-.33-.182-.702-.306l-1.823-.607c-1.768-.59-2.652-.884-2.792-1.402a1 1 0 0 1-.01-.487c.122-.522.994-.85 2.74-1.504l7.531-2.825c1.406-.527 2.11-.79 2.528-.53a1 1 0 0 1 .32.32c.26.419-.003 1.122-.53 2.528h0l-2.825 7.531c-.654 1.746-.982 2.618-1.504 2.74a1 1 0 0 1-.487-.01c-.518-.14-.812-1.024-1.402-2.792" /></svg>