<svg id="locked" xmlns="http://www.w3.org/2000/svg" fill="none" viewBox="0 0 24 24"><path stroke="currentColor" stroke-linecap="round" stroke-linejoin="round" stroke-width="1.5" d="M12 15a1 1 0 1 0 0-2 1 1 0 0 0 0 2m0 0v2m-4-7c-.932 0-1.398 0-1.765.152a2 2 0 0 0-1.083 1.083C5 11.602 5 12.068 5 13v3.4c0 1.5 0 2.25.382 2.776q.187.256.442.442C6.35 20 7.1 20 8.6 20h6.8c1.5 0 2.25 0 2.776-.382q.256-.187.442-.442C19 18.65 19 17.9 19 16.4V13c0-.932 0-1.398-.152-1.765a2 2 0 0 0-1.083-1.083C17.398 10 16.932 10 16 10v0m-8 0V8a4 4 0 0 1 4-4v0a4 4 0 0 1 4 4v2m-8 0h8" /></svg>