<svg id="love" xmlns="http://www.w3.org/2000/svg" fill="none" viewBox="0 0 24 24"><path stroke="currentColor" stroke-linecap="round" stroke-linejoin="round" stroke-width="1.5" d="M20 12a8 8 0 1 1-16 0m4 2.5s1 2 4 2 4-2 4-2M8 5.07A7.96 7.96 0 0 1 12 4c1.457 0 2.823.39 4 1.07M8 8.25S7.7 7 6.5 7 5 8.25 5 8.875C5 10.2 6.2 10.75 8 12c1.8-1.25 3-1.8 3-3.125C11 8.25 10.7 7 9.5 7S8 8.25 8 8.25m8 0S15.7 7 14.5 7 13 8.25 13 8.875C13 10.2 14.2 10.75 16 12c1.8-1.25 3-1.8 3-3.125C19 8.25 18.7 7 17.5 7S16 8.25 16 8.25" /></svg>