<svg id="lyrics" xmlns="http://www.w3.org/2000/svg" fill="none" viewBox="0 0 24 24"><path stroke="currentColor" stroke-linecap="round" stroke-linejoin="round" stroke-width="1.5" d="M4 6h11M4 10h8m-8 4h8m-8 4h16m1.378-11.285c.713-.336.938-1.134 0-2.02-.939-.887-1.784-1.01-2.14-2.695v10.105m-3.888-.62c-.305.394-.429.87-.299 1.329.058.204.161.386.299.544m0-1.873v1.873m0-1.873a2.2 2.2 0 0 1 .7-.585m-.7 2.458c.18.207.422.37.7.48m0-2.938a2.6 2.6 0 0 1 .7-.258m-.7.258v2.939m0 0q.325.129.7.155m0-3.352v3.352m0-3.352q.357-.076.7-.057m-.7 3.409q.341.024.7-.047m0-3.362v3.362m0-3.362a2.4 2.4 0 0 1 .7.143m-.7 3.22.13-.03q.308-.079.57-.216m0-2.974v2.974m0-2.974c.275.103.516.257.7.454m-.7 2.52c.281-.147.52-.338.7-.557m0-1.963c.157.166.274.364.337.586.135.477-.005.973-.337 1.377m0-1.963v1.963" /></svg>