<svg id="mace" xmlns="http://www.w3.org/2000/svg" fill="none" viewBox="0 0 24 24"><g clip-path="url(#clip0_1556_84683)"><path stroke="currentColor" stroke-linecap="round" stroke-linejoin="round" stroke-width="1.5" d="M10.515 5.565A3.5 3.5 0 0 0 8.04 4.54m2.475 1.025A3.5 3.5 0 0 1 11.54 8.04m-1.025-2.475 1.414-1.414m-1.414 6.364A3.5 3.5 0 0 1 8.04 11.54m2.475-1.025A3.5 3.5 0 0 0 11.54 8.04m-1.025 2.475 6.243 6.242M5.565 10.515A3.5 3.5 0 0 1 4.54 8.04m1.025 2.475A3.5 3.5 0 0 0 8.04 11.54m-2.475-1.025-1.414 1.414m1.414-6.364A3.5 3.5 0 0 1 8.04 4.54M5.565 5.565A3.5 3.5 0 0 0 4.54 8.04m1.025-2.475L4.151 4.15m12.607 12.606a1 1 0 0 1 1.414 0l2.121 2.122a1 1 0 0 1 0 1.414m-3.535-3.536a1 1 0 0 0 0 1.415l2.12 2.12a1 1 0 0 0 1.415 0M8.04 2.54v2m0 9v-2m-5.5-3.5h2m9 0h-2m8.753 12.253L21 21" /></g><defs><clipPath id="clip0_1556_84683"><path fill="white" d="M0 0h24v24H0z" /></clipPath></defs></svg>