<svg id="magicWand" xmlns="http://www.w3.org/2000/svg" fill="none" viewBox="0 0 24 24"><path stroke="currentColor" stroke-linecap="round" stroke-linejoin="round" stroke-width="1.5" d="m10 12-1-1a1.414 1.414 0 0 1 2-2l1 1m-2 2 9 9a1.414 1.414 0 1 0 2-2l-9-9m-2 2 2-2M2 4l.077.026a3 3 0 0 1 1.897 1.897L4 6l.026-.077a3 3 0 0 1 1.897-1.897L6 4l-.077-.026a3 3 0 0 1-1.897-1.897L4 2l-.026.077a3 3 0 0 1-1.897 1.897zm11.5 2.5.077.026a3 3 0 0 1 1.897 1.897l.026.077.026-.077a3 3 0 0 1 1.897-1.897L17.5 6.5l-.077-.026a3 3 0 0 1-1.897-1.897L15.5 4.5l-.026.077a3 3 0 0 1-1.897 1.897zM4 17l.539.108a3 3 0 0 1 2.353 2.353L7 20l.108-.539a3 3 0 0 1 2.353-2.353L10 17l-.539-.108a3 3 0 0 1-2.353-2.353L7 14l-.108.539a3 3 0 0 1-2.353 2.353z" /></svg>