<svg id="magnet" xmlns="http://www.w3.org/2000/svg" fill="none" viewBox="0 0 24 24"><g clip-path="url(#clip0_1556_82577)"><path stroke="currentColor" stroke-linecap="round" stroke-linejoin="round" stroke-width="1.5" d="m5.657 15.556 3.535 3.536a7 7 0 0 0 9.9 0v0a7 7 0 0 0 0-9.9l-3.536-3.535m-9.9 9.9-1.413-1.415a1 1 0 0 1 0-1.414l1.414-1.414a1 1 0 0 1 1.414 0l1.414 1.414m-2.828 2.828 2.828-2.828m0 0 3.536 3.535a3 3 0 0 0 4.243 0v0a3 3 0 0 0 0-4.242l-3.536-3.536m0 0-1.414-1.414a1 1 0 0 1 0-1.414l1.414-1.414a1 1 0 0 1 1.414 0l1.414 1.414m-2.828 2.828 2.828-2.828M9.192 9.192 8.132 6.01 6.01 8.132 4.95 4.95" /></g><defs><clipPath id="clip0_1556_82577"><path fill="white" d="M0 0h24v24H0z" /></clipPath></defs></svg>