<svg id="mapClue" xmlns="http://www.w3.org/2000/svg" fill="none" viewBox="0 0 24 24"><path stroke="currentColor" stroke-linecap="round" stroke-linejoin="round" stroke-width="1.5" d="M3.302 2c-2.826.056-.081 7.318.198 8.5l2 .5.5 5-1.5-3-1-.5C3.254 13.816.503 22 3.302 22m0-20C5 2.28 4.314 4.06 4 5c5.36.398 10.675.448 16.039 0-.335-.932-1.039-2.762.659-3M3.302 2c5.804 1.073 11.56.888 17.396 0m0 0c2.89.055.577 8.262.302 9.5-.374 1.687 2.552 10.509-.305 10.5M3.302 22c1.698-.16.946-1.884.458-2.683C9 18.5 15 19 20.24 19.317c-.495.811-1.24 2.538.455 2.683M3.302 22c5.816-.612 11.568-.545 17.393 0M16 8l1.5 1.5M19 11l-1.5-1.5m0 0L19 8m-1.5 1.5L16 11m-1.253-1.682-.916-.5M12 8.318h-.916m-1.83 1-.459.5m-.457 2v1m.915 2 .916.5m2.289 1h.915m2.29.182.837.5m1.451 1.317L18.5 19" /></svg>