<svg id="mapPin" xmlns="http://www.w3.org/2000/svg" fill="none" viewBox="0 0 24 24"><path stroke="currentColor" stroke-linecap="round" stroke-linejoin="round" stroke-width="1.5" d="M9 14.5V16m6-1v3m3.125-10.375L18.5 7.5v0A1.14 1.14 0 0 1 20 8.581v8.065a2 2 0 0 1-1.257 1.857l-3.063 1.225a2 2 0 0 1-1.375.04l-4.61-1.536a2 2 0 0 0-1.375.04l-1.577.63A2 2 0 0 1 4 17.047v-6.692a2 2 0 0 1 1.257-1.857l.618-.247M16 7c0 2.19-2.133 5.182-3.284 6.636a.904.904 0 0 1-1.432 0C10.134 12.182 8 9.19 8 7a4 4 0 1 1 8 0" /></svg>