<svg id="mapPinEdit" xmlns="http://www.w3.org/2000/svg" fill="none" viewBox="0 0 24 24"><path stroke="currentColor" stroke-linecap="round" stroke-linejoin="round" stroke-width="1.5" d="M11.926 4A7 7 0 0 0 5 11c0 2.627 1.933 5.53 3.767 7.695 1.097 1.294 1.646 1.942 2.715 2.129.28.049.756.049 1.036 0 1.069-.187 1.617-.835 2.715-2.13C17.067 16.532 19 13.628 19 11a7 7 0 0 0-6.926-7M9 12v2h2l3.5-3.5c.273-.273.409-.409.482-.556a1 1 0 0 0 0-.888c-.073-.147-.21-.283-.482-.556v0c-.273-.273-.409-.409-.556-.482a1 1 0 0 0-.888 0c-.147.073-.283.21-.556.482z" /></svg>