<svg id="mapPinLocked" xmlns="http://www.w3.org/2000/svg" fill="none" viewBox="0 0 24 24"><path stroke="currentColor" stroke-linecap="round" stroke-linejoin="round" stroke-width="1.5" d="M10.5 10A1.5 1.5 0 0 0 9 11.5v1c0 .465 0 .697.038.89a2 2 0 0 0 1.572 1.572c.193.038.425.038.89.038h1c.465 0 .697 0 .89-.038a2 2 0 0 0 1.572-1.572c.038-.193.038-.425.038-.89v-1a1.5 1.5 0 0 0-1.5-1.5v0m-3 0V8.5A1.5 1.5 0 0 1 12 7v0a1.5 1.5 0 0 1 1.5 1.5V10m-3 0h3M12 12.5v.5m7-2c0 2.627-1.933 5.53-3.767 7.695-1.098 1.294-1.646 1.942-2.715 2.129-.28.049-.756.049-1.036 0-1.069-.187-1.618-.835-2.715-2.13C6.933 16.532 5 13.628 5 11a7 7 0 0 1 14 0" /></svg>