<svg id="medicalCase" xmlns="http://www.w3.org/2000/svg" fill="none" viewBox="0 0 24 24"><path stroke="currentColor" stroke-linecap="round" stroke-linejoin="round" stroke-width="1.5" d="M9 7c-1.87 0-2.804 0-3.5.402A3 3 0 0 0 4.402 8.5C4 9.196 4 10.13 4 12v2.6c0 2.25 0 3.375.573 4.163.185.255.409.479.664.664C6.025 20 7.15 20 9.4 20h5.2c2.25 0 3.375 0 4.163-.573q.384-.28.664-.664C20 17.975 20 16.85 20 14.6V12c0-1.87 0-2.804-.402-3.5A3 3 0 0 0 18.5 7.402C17.804 7 16.87 7 15 7v0M9 7V5.8c0-.75 0-1.125.191-1.388a1 1 0 0 1 .221-.221C9.675 4 10.05 4 10.8 4h2.4c.75 0 1.125 0 1.388.191a1 1 0 0 1 .221.221C15 4.675 15 5.05 15 5.8V7M9 7h6m-1.5 4a1 1 0 0 0 1 1v0a1 1 0 0 1 1 1v1a1 1 0 0 1-1 1v0a1 1 0 0 0-1 1v0a1 1 0 0 1-1 1h-1a1 1 0 0 1-1-1v0a1 1 0 0 0-1-1v0a1 1 0 0 1-1-1v-1a1 1 0 0 1 1-1v0a1 1 0 0 0 1-1v0a1 1 0 0 1 1-1h1a1 1 0 0 1 1 1" /></svg>