<svg id="mediaPlayer" xmlns="http://www.w3.org/2000/svg" fill="none" viewBox="0 0 24 24"><path stroke="currentColor" stroke-linecap="round" stroke-linejoin="round" stroke-width="1.5" d="M3 16V9.4c0-2.25 0-3.375.573-4.163a3 3 0 0 1 .664-.664C5.025 4 6.15 4 8.4 4h7.2c2.25 0 3.375 0 4.163.573.255.185.479.409.664.664C21 6.025 21 7.15 21 9.4V16M3 16c0 .93 0 1.395.102 1.776a3 3 0 0 0 2.122 2.122C5.605 20 6.07 20 7 20h10c.93 0 1.395 0 1.776-.102a3 3 0 0 0 2.122-2.122C21 17.396 21 16.93 21 16v0M3 16h3m15 0H6m0-1v1m0 0v1m7.75-6.5-3-2v4z" /></svg>