<svg id="megaphone" xmlns="http://www.w3.org/2000/svg" fill="none" viewBox="0 0 24 24"><path stroke="currentColor" stroke-linecap="round" stroke-linejoin="round" stroke-width="1.5" d="M4 13v-3a3 3 0 0 1 3-3h3m-6 6 3.539 7.078c.283.565.86.922 1.492.922v0c1.03 0 1.815-.926 1.645-1.942L10 15m-6-2 .17.342A3 3 0 0 0 6.855 15H10m0 0 7.127 3.167c.76.339 1.583-.35 1.415-1.165a34 34 0 0 1-.49-3.002M10 15V7m0 0 7.127-3.167c.76-.339 1.583.35 1.415 1.165A34 34 0 0 0 18.052 8m0 0 .804.611a3 3 0 0 1 0 4.778L18.05 14m0-6a25.6 25.6 0 0 0 0 6" /></svg>