<svg id="messageBubbleQuestion" xmlns="http://www.w3.org/2000/svg" fill="none" viewBox="0 0 24 24"><path stroke="currentColor" stroke-linecap="round" stroke-linejoin="round" stroke-width="1.5" d="M12 16.5v.5M9 9a3 3 0 0 1 3-3h.394A2.606 2.606 0 0 1 15 8.606v0c0 .87-.435 1.684-1.16 2.168L13.5 11a3.37 3.37 0 0 0-1.5 2.803V14m10-2c0 5.523-4.477 10-10 10a10 10 0 0 1-2.545-.327c-1.832-.48-2.748-.72-3.1-.75-.189-.014-.164-.013-.353-.012-.353.003-.776.081-1.62.239L2.5 21.5l.35-1.882c.158-.844.236-1.267.239-1.62.001-.19.002-.164-.013-.352-.028-.353-.269-1.269-.75-3.101A10 10 0 0 1 2 12C2 6.477 6.477 2 12 2s10 4.477 10 10" /></svg>