<svg id="messageBubbles" xmlns="http://www.w3.org/2000/svg" fill="none" viewBox="0 0 24 24"><path stroke="currentColor" stroke-linecap="round" stroke-linejoin="round" stroke-width="1.5" d="M8.718 17.898a8 8 0 0 1-.883-.194c-1.322-.371-1.983-.556-2.258-.581-.14-.013-.132-.013-.274-.013-.275 0-.605.062-1.266.185L2.4 17.6l.305-1.637c.123-.66.184-.991.185-1.266 0-.142 0-.133-.013-.274-.024-.275-.21-.936-.58-2.258a8 8 0 1 1 15.622-3.316m-6.92 7.651a5.5 5.5 0 0 0 6.379 5.43c1.743-.28 2.615-.42 2.821-.424.142-.003.065-.004.206.002.206.01.407.047.808.122l.511.095-.095-.512c-.075-.4-.112-.6-.122-.807-.006-.141-.005-.064-.002-.206.004-.206.144-1.078.424-2.821q.07-.43.07-.879a5.5 5.5 0 1 0-11 0" /></svg>