<svg id="messageBubbleMore" xmlns="http://www.w3.org/2000/svg" fill="none" viewBox="0 0 24 24"><path stroke="currentColor" stroke-linecap="round" stroke-linejoin="round" stroke-width="1.5" d="m2.5 21.5 1.882-.35c.844-.158 1.267-.236 1.62-.239.19-.002.164-.002.352.013.353.028 1.269.268 3.101.75.813.213 1.665.326 2.545.326 5.523 0 10-4.477 10-10S17.523 2 12 2 2 6.477 2 12c0 .879.113 1.731.326 2.544.481 1.833.721 2.75.75 3.102.015.188.014.163.012.352-.002.354-.081.776-.239 1.621L2.5 21.49M13 12a1 1 0 1 1-2 0 1 1 0 0 1 2 0m-5 0a1 1 0 1 1-2 0 1 1 0 0 1 2 0m10 0a1 1 0 1 1-2 0 1 1 0 0 1 2 0" /></svg>