<svg id="messageBubbleBookmarkTop" xmlns="http://www.w3.org/2000/svg" fill="none" viewBox="0 0 24 24"><path stroke="currentColor" stroke-linecap="round" stroke-linejoin="round" stroke-width="1.5" d="M21.8 10q.198.97.2 2c0 5.523-4.477 10-10 10a10 10 0 0 1-2.545-.327c-1.832-.48-2.748-.72-3.1-.75-.189-.014-.164-.013-.353-.012-.353.003-.776.081-1.62.239L2.5 21.5l.35-1.882c.158-.844.236-1.267.239-1.62.001-.19.002-.164-.013-.352-.028-.353-.269-1.269-.75-3.101A10 10 0 0 1 2 12C2 6.477 6.477 2 12 2q1.03.002 2 .2M16 8V3.8c0-.75 0-1.125.191-1.388a1 1 0 0 1 .221-.221C16.675 2 17.05 2 17.8 2h1.4c.75 0 1.125 0 1.388.191a1 1 0 0 1 .221.221C21 2.675 21 3.05 21 3.8V8l-2.5-2z" /></svg>