<svg id="messageBubbleTranslate" xmlns="http://www.w3.org/2000/svg" fill="none" viewBox="0 0 24 24"><path stroke="currentColor" stroke-linecap="round" stroke-linejoin="round" stroke-width="1.5" d="M7 8h3m0 0V7m0 1h2m0 0h1m-1 0c0 .903-.517 2.449-2 4m0 0c-.74.775-1.168 1.417-2.5 2m2.5-2c-.634-.655-1.144-1.138-1.5-2m1.5 2c.727.75 1.55 1.543 2.5 2m4 2.5L15.458 14M11.5 16.5l1-2.5m0 0 1.5-3.5 1.458 3.5M12.5 14h2.958M22 12c0 5.523-4.477 10-10 10a10 10 0 0 1-2.545-.327c-1.832-.48-2.748-.72-3.1-.75-.189-.014-.164-.013-.353-.012-.353.003-.776.081-1.62.239L2.5 21.5l.35-1.882c.158-.844.236-1.267.239-1.62.001-.19.002-.164-.013-.352-.028-.353-.269-1.269-.75-3.101A10 10 0 0 1 2 12C2 6.477 6.477 2 12 2s10 4.477 10 10" /></svg>