<svg id="meteorShower" xmlns="http://www.w3.org/2000/svg" fill="none" viewBox="0 0 24 24"><path stroke="currentColor" stroke-linecap="round" stroke-linejoin="round" stroke-width="1.5" d="M3.573 12.478a1.986 1.986 0 0 0 2.764 0C7.101 11.73 13.264 3 13.264 3S4.336 9.027 3.573 9.774a1.88 1.88 0 0 0 0 2.704m0 7.962a1.986 1.986 0 0 0 2.764 0c.764-.747 6.927-9.478 6.927-9.478s-8.928 6.027-9.691 6.774a1.88 1.88 0 0 0 0 2.704m11.241-4.78a1.986 1.986 0 0 0 2.765 0C18.342 14.913 21 9.61 21 9.61s-5.422 2.6-6.186 3.346a1.88 1.88 0 0 0 0 2.704" /></svg>