<svg id="mexico" xmlns="http://www.w3.org/2000/svg" fill="none" viewBox="0 0 24 24"><path stroke="currentColor" stroke-linecap="round" stroke-linejoin="round" stroke-width="1.5" d="M3 20h1m17 0h-1M16 8h-1M8 8h1M4 20v-2.5h2M4 20h5.026M20 20v-2.5h-2m2 2.5h-5.026M18 17.5V15h-2m2 2.5h-3.684M6 17.5V15h2m-2 2.5h3.684M8 15v-2.5h1M8 15h2.342M16 15v-2.5h-1m1 2.5h-2.342M15 8v4.5M15 8H9m6 4.5h-2M9 8v4.5m0 0h2m0 0h2m-2 0-.658 2.5M13 12.5l.658 2.5m1.316 5 .526 2h-7l.526-2m5.948 0-.658-2.5m0 0-.658-2.5m-3.316 0-.658 2.5m0 0L9.026 20M11 10.5V10h2v.5" /></svg>