<svg id="microbe" xmlns="http://www.w3.org/2000/svg" fill="none" viewBox="0 0 24 24"><g clip-path="url(#clip0_1556_83201)"><path stroke="currentColor" stroke-linecap="round" stroke-linejoin="round" stroke-width="1.5" d="M5 12.199c.702.57 1.64.856 2.68.738a4 4 0 0 1 .32-.024m-3-.714c-.777-.631-1.265-1.611-1.282-2.78q-.006-.466.082-.92M5 12.2l-1 1.3m-.2-5L2 7.5m1.8 1c.264-1.372 1.144-2.621 2.327-3.37m0 0a4.7 4.7 0 0 1 1.681-.66A9.2 9.2 0 0 1 10 4.3m-3.873.828C6.025 5.026 5.333 3.667 5 2.999m5 1.302.5-1.801M10 4.3a10 10 0 0 1 3.723.913m0 0L15 3m-1.277 2.213a11 11 0 0 1 3.56 2.606m0 0L19 6.5m-1.717 1.32a10.4 10.4 0 0 1 2.121 3.517m0 0c.352.999.543 2.06.535 3.156A4.6 4.6 0 0 1 19.703 16m-.299-4.664L21.5 11m-1.797 5 1.797 1m-1.797-1A5.27 5.27 0 0 1 17 19.073m0 0a4.6 4.6 0 0 1-1.151.369c-1.091.193-2.095-.061-2.85-.636m4 .267L18 21m-5-2.194-1.353 1.466M13 18.806a3.45 3.45 0 0 1-1.249-1.935m0 0a4 4 0 0 1-.105-.657C11.492 14.215 9.95 12.845 8 12.913m3.751 3.958L10 17.5m-2-4.587V15" /></g><defs><clipPath id="clip0_1556_83201"><path fill="white" d="M0 0h24v24H0z" /></clipPath></defs></svg>