<svg id="midWind" xmlns="http://www.w3.org/2000/svg" fill="none" viewBox="0 0 24 24"><g clip-path="url(#clip0_1556_82959)"><path stroke="currentColor" stroke-linecap="round" stroke-linejoin="round" stroke-width="1.5" d="M13.66 11.696c.479-.276.195-1.663-.634-3.098-.828-1.435-1.887-2.374-2.366-2.098m3 5.196c-.478.276-1.537-.663-2.366-2.098-.828-1.435-1.112-2.822-.634-3.098m3 5.196-4.147 1.817m4.147-1.817L16 8m-5.34-1.5L7.013 9.183M10.66 6.5 16 8m-6.487 5.513c-1.866-1.232-2.366-2.098-2.5-4.33m2.5 4.33-2.073.909m-.427-5.239L5.19 10.525m0 0-1.824 1.341c-.478.276-.418 1.276.134 2.232s1.388 1.508 1.866 1.232l2.074-.908m-2.25-3.898c.225 1.891.725 2.757 2.25 3.898M16 20h-2m2 0h2m-2 0V8m0-3v3" /></g><defs><clipPath id="clip0_1556_82959"><path fill="white" d="M0 0h24v24H0z" /></clipPath></defs></svg>