<svg id="moari" xmlns="http://www.w3.org/2000/svg" fill="none" viewBox="0 0 24 24"><path stroke="currentColor" stroke-linecap="round" stroke-linejoin="round" stroke-width="1.5" d="M6 13s4.739-2.163 5-4.5c.043-.388 0-2 0-2M6 13l1 1m-1-1s1.816.412 3 .5c.974.073 2.5 0 2.5 0m-.5-7L7.5 7m3.5-.5 3 1m-6 2s.662-.904.5-1.5c-.145-.533-1-1-1-1m0 0 1.424-2.492A2 2 0 0 1 10.661 3.5h2.174q.165 0 .328.027l1.403.234a2 2 0 0 1 1.65 1.676L17.5 14m0 0v4.5a2 2 0 0 1-2 2H9.235a2 2 0 0 1-1.98-1.717l-.23-1.602a.55.55 0 0 0-.155-.31v0c-.336-.337-.115-.903.36-.9.267 0 .538.009.77.029.992.086 2.5.5 2.5.5m7-2.5c-.839.884-1.402.91-2.5.5m0-4s.25-.382.5-.5c.636-.301 1.5 1 1.5 1" /></svg>