<svg id="mobileCreditCardReader" xmlns="http://www.w3.org/2000/svg" fill="none" viewBox="0 0 24 24"><path stroke="currentColor" stroke-linecap="round" stroke-linejoin="round" stroke-width="1.5" d="M8 11V6a1 1 0 0 1 1-1h6a1 1 0 0 1 1 1v5m-8 0v2m0-2h2.5M8 13v2m0-2h2.5M8 15v1a1 1 0 0 0 1 1h1.5M8 15h2.5m0-4v2m0-2h3m-3 2v2m0-2h3m-3 2v2m0-2h3m-3 2h3m2.5-6v2m0-2h-2.5m2.5 2v2m0-2h-2.5m2.5 2v1a1 1 0 0 1-1 1h-1.5m2.5-2h-2.5m0-4v2m0 0v2m0 0v2M6 6v12a3 3 0 0 0 3 3h6a3 3 0 0 0 3-3V6a3 3 0 0 0-3-3H9a3 3 0 0 0-3 3" /></svg>