<svg id="modal" xmlns="http://www.w3.org/2000/svg" fill="none" viewBox="0 0 24 24"><path stroke="currentColor" stroke-linecap="round" stroke-linejoin="round" stroke-width="1.5" d="m18.5 6.5-1 1m0 0-1-1m1 1 1 1m-1-1-1 1M6 7.5h6M6 12h12M6 14.5h6m6 3h-2a.5.5 0 0 1-.5-.5v0a.5.5 0 0 1 .5-.5h2a.5.5 0 0 1 .5.5v0a.5.5 0 0 1-.5.5m3-9.9v8.8c0 1.5 0 2.25-.382 2.776q-.187.256-.442.442C19.65 20 18.9 20 17.4 20H6.6c-1.5 0-2.25 0-2.776-.382a2 2 0 0 1-.442-.442C3 18.65 3 17.9 3 16.4V7.6c0-1.5 0-2.25.382-2.776a2 2 0 0 1 .442-.442C4.35 4 5.1 4 6.6 4h10.8c1.5 0 2.25 0 2.776.382q.256.187.442.442C21 5.35 21 6.1 21 7.6" /></svg>