<svg id="monitor" xmlns="http://www.w3.org/2000/svg" fill="none" viewBox="0 0 24 24"><path stroke="currentColor" stroke-linecap="round" stroke-linejoin="round" stroke-width="1.5" d="M4 13c0 .932 0 1.398.152 1.765a2 2 0 0 0 1.083 1.083C5.602 16 6.068 16 7 16h3m-6-3V7.6c0-1.5 0-2.25.382-2.776a2 2 0 0 1 .442-.442C5.35 4 6.1 4 7.6 4h8.8c1.5 0 2.25 0 2.776.382q.256.187.442.442C20 5.35 20 6.1 20 7.6V13M4 13h16m0 0c0 .932 0 1.398-.152 1.765a2 2 0 0 1-1.083 1.083C18.398 16 17.932 16 17 16h-3m-4 0v4m0-4h4m-4 4h4m-4 0H7m7 0v-4m0 4h3" /></svg>