<svg id="monkey" xmlns="http://www.w3.org/2000/svg" fill="none" viewBox="0 0 24 24"><path stroke="currentColor" stroke-linecap="round" stroke-linejoin="round" stroke-width="1.5" d="M9.03 17.982c-2.174 0-3.937-1.937-3.937-4.327 0-.702.135-1.487.383-2.29m9.459 6.617c2.174 0 3.937-1.937 3.937-4.327 0-.702-.136-1.487-.384-2.29m-7.49 3.34s0 .478.984.478c.985 0 .985-.477.985-.477m-3.445-2.674v1.082m4.92-1.082v1.082m4.046-1.748c0 2.672-2.56 3.976-3.84 4.294.182.343.287.756.287 1.24 0 0 0 2.1-2.953 2.1S9.03 16.9 9.03 16.9c0-.476.13-.89.35-1.24-1.301-.318-3.904-1.622-3.904-4.294m13.012 0a11.6 11.6 0 0 0-2.041-3.818m-10.97 3.818a11.6 11.6 0 0 1 2.041-3.818m8.929 0C15.239 6.068 13.677 5 11.982 5S8.726 6.067 7.518 7.548m8.929 0c.808-.477 2.72-1.145 3.9 0 1.182 1.146.493 3.022 0 3.818m-16.695 0c-.492-.796-1.18-2.672 0-3.818 1.181-1.145 2.917-.477 3.866 0M9.03 9.457c1.575 0 2.624.954 2.952 1.431.328-.477 1.378-1.431 2.953-1.431" /></svg>