<svg id="motionKeyframesAdd" xmlns="http://www.w3.org/2000/svg" fill="none" viewBox="0 0 24 24"><path stroke="currentColor" stroke-linecap="round" stroke-linejoin="round" stroke-width="1.5" d="M13.493 5.687a1.988 1.988 0 0 1 3.005 0l3.76 4.327a3.03 3.03 0 0 1 0 3.972l-3.76 4.327a1.988 1.988 0 0 1-3.005 0M9 12H6.5M9 12h2.502M9 12V9.5M9 12v2.5M7.502 5.687a1.988 1.988 0 0 1 3.005 0l3.761 4.327a3.03 3.03 0 0 1 0 3.972l-3.76 4.327a1.988 1.988 0 0 1-3.006 0l-3.76-4.327a3.03 3.03 0 0 1 0-3.972z" /></svg>