<svg id="mouseAnimals" xmlns="http://www.w3.org/2000/svg" fill="none" viewBox="0 0 24 24"><path stroke="currentColor" stroke-linecap="round" stroke-linejoin="round" stroke-width="1.5" d="M5.05 10.194A3.66 3.66 0 0 1 4 7.613C4 5.618 5.567 4 7.5 4c1.763 0 3.222 1.346 3.465 3.097l.035.085m7.95 3.012A3.66 3.66 0 0 0 20 7.613C20 5.618 18.433 4 16.5 4c-1.763 0-3.222 1.346-3.465 3.097L13 7.182m0 0a5.9 5.9 0 0 0-2 0m2 0c2.338.403 4.158 2.193 4.457 4.427.924.604 1.543 1.555 1.543 2.714 0 1.348-.835 2.495-2 2.92-1.584.566-2.475 1.098-3.894 2.24-.317.327-.697.517-1.106.517s-.79-.19-1.106-.516c-1.47-1.185-2.316-1.709-3.894-2.24-1.165-.426-2-1.573-2-2.921 0-1.16.62-2.11 1.543-2.714.299-2.234 2.12-4.024 4.457-4.427m-1 7.657v-1.033m4 1.033v-1.033m-5.5 3.097L5 18.452m4.5 0L7 20m8.5-3.097 3.5 1.549m-4.5 0L17 20m-5-2.064-.5-.517h1z" /></svg>