<svg id="mtFuji" xmlns="http://www.w3.org/2000/svg" fill="none" viewBox="0 0 24 24"><path stroke="currentColor" stroke-linecap="round" stroke-linejoin="round" stroke-width="1.5" d="M8.907 10.685a72 72 0 0 0 1.7-2.893.606.606 0 0 1 .963-.13v0a.6.6 0 0 0 .86 0v0a.62.62 0 0 1 .974.124c.535.9 1.244 1.96 2.02 3.024m-6.517-.125C7.166 13.492 4 15.842 3 16.358c0 0 5 1.032 9 1.032s9-1.032 9-1.032c-1-.516-3.554-2.782-5.575-5.548m-6.518-.125.846-.274a1.7 1.7 0 0 1 1.414.171l.188.116c.488.302 1.112.27 1.565-.08v0c.363-.281.84-.362 1.275-.218l1.23.41M3.5 20c.778-.68 1.9-.789 2.795-.273l.527.304a3.27 3.27 0 0 0 3.332-.04l.072-.044a3.41 3.41 0 0 1 3.548 0l.072.044a3.27 3.27 0 0 0 3.332.04l.527-.304A2.41 2.41 0 0 1 20.5 20v0m-4.562-8.8c1.482-2 1.336-4.875-.438-6.705a4.843 4.843 0 0 0-7 0c-1.835 1.893-1.928 4.901-.28 6.907" /></svg>