<svg id="multiUsers" xmlns="http://www.w3.org/2000/svg" fill="none" viewBox="0 0 24 24"><path stroke="currentColor" stroke-linecap="round" stroke-linejoin="round" stroke-width="1.5" d="M5 16c-.827 0-1.501.152-2.045.372C2.315 16.63 2 17.31 2 18m17-2c.826 0 1.501.152 2.045.372.64.258.955.939.955 1.628m-4.8 0c0-1.195-.547-2.374-1.655-2.822-.943-.382-2.112-.645-3.545-.645s-2.602.264-3.545.645C7.347 15.626 6.8 16.805 6.8 18m.2-6a2 2 0 1 1-4 0 2 2 0 0 1 4 0m10 0a2 2 0 1 0 4 0 2 2 0 0 0-4 0m-1.533-3.533a3.467 3.467 0 1 1-6.934 0 3.467 3.467 0 0 1 6.934 0" /></svg>