<svg id="muscle" xmlns="http://www.w3.org/2000/svg" fill="none" viewBox="0 0 24 24"><path stroke="currentColor" stroke-linecap="round" stroke-linejoin="round" stroke-width="1.5" d="M16.21 20.5c-.747-.953-2.043-1.268-3.247-1.138-2.118.23-5.105-.19-7.854-2.593a2.41 2.41 0 0 1-.677-2.597c1.072-3.166 3.36-7.145 6.465-9.448.676-.5 1.578-.596 2.27-.118.956.66 1.818 1.632 1.78 2.211-.037.581-1.447 2.683-2.105 2.415-.32-.13-.941-.618-1.464-1.055m-.641-.957c0 .328.28.656.64.957m0 0L10.317 13M20 12.854c-.988-.472-3.104-.861-4.517.805m-.536.804q.246-.463.536-.804m-6.01 0q.396-.378.843-.66m5.167.66c-1.519-1.7-3.556-1.677-5.167-.66" /></svg>