<svg id="nanoSim" xmlns="http://www.w3.org/2000/svg" fill="none" viewBox="0 0 24 24"><path stroke="currentColor" stroke-linecap="round" stroke-linejoin="round" stroke-width="1.5" d="M13 12v.5a1.5 1.5 0 0 1-1.5 1.5v0a1.5 1.5 0 0 1-1.5-1.5V12m3 0h3m-3 0v-.5a1.5 1.5 0 0 0-1.5-1.5v0a1.5 1.5 0 0 0-1.5 1.5v.5m6 0v2a1 1 0 0 1-1 1H8a1 1 0 0 1-1-1v-2m9 0v-2a1 1 0 0 0-1-1H8a1 1 0 0 0-1 1v2m3 0H7m3.01 5h5.662a2 2 0 0 0 1.414-.586l1.328-1.328A2 2 0 0 0 19 13.672V9a2 2 0 0 0-2-2H7a2 2 0 0 0-2 2v6a2 2 0 0 0 2 2h3" /></svg>