<svg id="newYork" xmlns="http://www.w3.org/2000/svg" fill="none" viewBox="0 0 24 24"><path stroke="currentColor" stroke-linecap="round" stroke-linejoin="round" stroke-width="1.5" d="M7.51 21h1.12m7.84 0h-1.12m-6.72 0h6.72m-6.72 0 .093-1.949m.467-9.743-.07 1.461M15.35 21l-.28-5.846m-.84-6.333.56.487.128 2.68M14.23 8.82c-1.08 2.18-2.58 3.68-5.227 4.385m5.227-4.384s0-1.77-.685-2.924m-1.555-.974L12 3.5m-.01 1.423a1.6 1.6 0 0 0-.973.31m.973-.31c.388 0 .708.117.973.31M6.1 4.603l3.728 3.243c.083-.595.254-1.353.607-1.949M5.27 4.923l3.85 5.846M5.27 4.923c.619 0 1.12-.436 1.12-.974C6.39 3.166 5.27 2 5.27 2S4.15 3.174 4.15 3.949c0 .538.501.974 1.12.974m3.85 5.846-.117 2.436m0 0-.28 5.846m0 0c2.927-.551 4.427-1.551 6.347-3.897m0 0-.023-.487m0 0 3.103-2.923-1.68-1.37-1.552 1.613m.129 2.68-.129-2.68m-1.373-6.09.685-.183m-.685.183a2.2 2.2 0 0 0-.582-.664m-2.528.664-.607-.183m.607.183c.156-.262.347-.493.582-.664m0 0L10.5 4.5m2.463.733L13.5 4.5" /></svg>