<svg id="nightStand" xmlns="http://www.w3.org/2000/svg" fill="none" viewBox="0 0 24 24"><path stroke="currentColor" stroke-linecap="round" stroke-linejoin="round" stroke-width="1.5" d="M7 12h1m0 0v4m0-4h3m-3 4v3.734c0 .147.119.266.266.266v0c.133 0 .246-.1.263-.233L9 16m-1 0h1m7 0v-4m0 4v3.734a.266.266 0 0 1-.266.266v0a.266.266 0 0 1-.263-.233L15 16m1 0h-1m1-4h1m-1 0h-3m-2 0v1h2v-1m-2 0h2m2 4H9M8.5 6H9m0 0h2M9 6a2.7 2.7 0 0 1 .146 2.06l-.374 1.123a1.76 1.76 0 0 0 .205 1.533l.246.368a.934.934 0 0 0 1.554 0l.246-.368a1.76 1.76 0 0 0 .205-1.533l-.374-1.122A2.7 2.7 0 0 1 11 6m.5 0H11" /></svg>