<svg id="nightmare" xmlns="http://www.w3.org/2000/svg" fill="none" viewBox="0 0 24 24"><path stroke="currentColor" stroke-linecap="round" stroke-linejoin="round" stroke-width="1.5" d="M3 11v8m0 1v-1m0 0h8m10 0v1m0-1v-1a3 3 0 0 0-3-3h-6a1 1 0 0 0-1 1v3m10 0H11M21 3v3c0 1.912-1.856 3.355-3.694 2.92a3.03 3.03 0 0 1-3 1 3.03 3.03 0 0 1-3.34.897C10.6 12.517 8 12.253 8 10.5c0-.185.21-.597.154-.73C6.238 10.57 4 9.113 4 7V3m6 5h4m-6 7.5a1.5 1.5 0 1 1-3 0 1.5 1.5 0 0 1 3 0M10.464 5A2 2 0 0 1 7 3zM14 5a2 2 0 1 0 3.464-2z" /></svg>