<svg id="nmForwardSolid" xmlns="http://www.w3.org/2000/svg" fill="none" viewBox="0 0 24 24"><path fill="currentColor" d="M9.362 17.64c.132.453.35.876.721 1.219.305.28.664.496 1.056.63.754.261 1.501.089 2.197-.184.682-.266 1.508-.71 2.502-1.245l3.796-2.04c1.093-.588 1.995-1.073 2.641-1.527.652-.459 1.25-1.024 1.431-1.852.093-.422.093-.86 0-1.283-.18-.827-.78-1.393-1.43-1.851-.647-.455-1.549-.94-2.642-1.527l-3.796-2.04c-.994-.535-1.82-.98-2.502-1.246-.696-.272-1.443-.445-2.197-.184a3 3 0 0 0-1.056.63c-.4.37-.62.831-.75 1.322l-.008.07c-.084.69-.086 1.642-.086 3.053v4.678c0 1.412.002 2.362.086 3.053zm-2.17.916a6 6 0 0 1-.19-.96C6.9 16.75 6.9 15.655 6.9 14.34V9.51c0-1.315 0-2.41.103-3.257a6 6 0 0 1 .152-.827c-.793-.389-1.47-.71-2.041-.911-.688-.242-1.421-.384-2.153-.113a3 3 0 0 0-1.026.638c-.566.537-.763 1.257-.85 1.98C1 7.727 1 8.635 1 9.723v4.555c0 1.089 0 1.997.085 2.703.087.724.284 1.443.85 1.98a3 3 0 0 0 1.026.639c.732.27 1.465.128 2.153-.114.58-.204 1.27-.532 2.078-.929"/></svg>