<svg id="nmPlaySolid" xmlns="http://www.w3.org/2000/svg" fill="none" viewBox="0 0 24 24"><path fill="currentColor" fill-rule="evenodd" d="m11.957 5.91 3.867 2.063c1.103.588 2.012 1.073 2.664 1.528.656.459 1.26 1.025 1.442 1.856a3 3 0 0 1 0 1.287c-.182.83-.786 1.396-1.442 1.855-.652.455-1.56.94-2.664 1.528l-3.867 2.063c-.992.529-1.818.969-2.498 1.233-.695.27-1.44.439-2.193.178a3 3 0 0 1-1.053-.632c-.585-.541-.786-1.279-.876-2.02-.087-.724-.087-1.659-.087-2.784v-4.13c0-1.125 0-2.06.087-2.785.09-.74.291-1.478.876-2.019A3 3 0 0 1 7.266 4.5c.752-.261 1.498-.091 2.193.178.68.264 1.506.704 2.498 1.233" clip-rule="evenodd"/></svg>