<svg id="nmPreviousSolid" xmlns="http://www.w3.org/2000/svg" fill="none" viewBox="0 0 24 24"><path fill="currentColor" fill-rule="evenodd" d="M16.763 4.727c.697-.278 1.447-.456 2.205-.197a3 3 0 0 1 1.06.63c.591.542.794 1.285.884 2.03C21 7.92 21 8.864 21 10v4c0 1.136 0 2.08-.088 2.81-.09.745-.293 1.488-.883 2.03a3 3 0 0 1-1.06.63c-.76.258-1.509.08-2.206-.198-.683-.272-1.511-.724-2.508-1.267l-3.665-2c-1.076-.586-1.964-1.07-2.6-1.524-.644-.459-1.233-1.023-1.411-1.844a3 3 0 0 1 0-1.276c.178-.82.767-1.385 1.41-1.843.637-.454 1.525-.938 2.601-1.525l3.665-1.999c.997-.544 1.825-.996 2.508-1.268M3.5 5.5A1.5 1.5 0 0 1 5 7v10a1.5 1.5 0 0 1-3 0V7a1.5 1.5 0 0 1 1.5-1.5" clip-rule="evenodd"/></svg>