<svg id="nmRewindHalftone" xmlns="http://www.w3.org/2000/svg" fill="none" viewBox="0 0 24 24"><path fill="currentColor" d="M16.804 18.552c.093-.311.15-.636.19-.96.102-.847.102-1.941.102-3.256V9.505c0-1.315 0-2.41-.103-3.257a6 6 0 0 0-.152-.827c.793-.388 1.47-.71 2.041-.91.688-.243 1.42-.385 2.153-.114a3 3 0 0 1 1.026.638c.566.537.762 1.257.85 1.981.085.706.085 1.614.085 2.702v4.555c0 1.089 0 1.997-.085 2.703-.088.724-.284 1.444-.85 1.98a3 3 0 0 1-1.026.64c-.732.27-1.465.127-2.153-.114-.58-.204-1.27-.533-2.078-.93" opacity=".6"/><path fill="currentColor" d="M14.634 17.637c-.132.452-.35.875-.721 1.218-.305.28-.664.496-1.056.63-.755.261-1.501.089-2.197-.184-.682-.266-1.508-.71-2.502-1.245l-3.796-2.04c-1.093-.588-1.995-1.073-2.641-1.527-.652-.459-1.25-1.024-1.432-1.852a3 3 0 0 1 0-1.283c.181-.827.78-1.392 1.432-1.851.646-.455 1.547-.94 2.641-1.527l3.796-2.04c.994-.535 1.82-.979 2.502-1.246.695-.272 1.442-.445 2.197-.184a3 3 0 0 1 1.056.63c.4.37.62.831.75 1.322l.008.07c.084.691.086 1.642.086 3.053v4.678c0 1.412-.002 2.363-.086 3.053z"/></svg>