<svg id="nmRepeatoneSolid" xmlns="http://www.w3.org/2000/svg" fill="none" viewBox="0 0 24 24"><path fill="currentColor" fill-rule="evenodd" d="M8.46 4.636a1 1 0 0 1 1.404-.175l2.25 1.75a1 1 0 0 1 0 1.578l-2.25 1.75A1 1 0 0 1 8.588 8c-.733.001-1.264.008-1.688.046-.485.044-.73.123-.9.222A2 2 0 0 0 5.268 9c-.098.17-.178.415-.222.9C5.001 10.4 5 11.047 5 12s.001 1.6.046 2.1c.044.485.124.73.222.9a2 2 0 0 0 .732.732c.17.099.415.178.9.222.5.045 1.147.046 2.1.046h1.5a1 1 0 1 1 0 2H8.954c-.896 0-1.634 0-2.234-.054-.624-.057-1.194-.178-1.72-.482A4 4 0 0 1 3.536 16c-.304-.526-.425-1.096-.482-1.72C3 13.68 3 12.942 3 12.046v-.092c0-.896 0-1.635.054-2.234.057-.624.178-1.194.482-1.72A4 4 0 0 1 5 6.536c.526-.304 1.096-.425 1.72-.482.516-.046 1.135-.053 1.869-.054a1 1 0 0 1-.128-1.364m8.64 3.41C16.6 8.001 15.953 8 15 8h-.5a1 1 0 1 1 0-2h.546c.896 0 1.634 0 2.234.054.624.057 1.194.178 1.72.482A4 4 0 0 1 20.464 8c.304.526.425 1.096.482 1.72.054.6.054 1.338.054 2.234v1.615c0 .397 0 .692-.034.953a4 4 0 0 1-3.444 3.444c-.261.034-.056.034-.453.034H17a1 1 0 1 1 0-2c.496 0 .148-.002.261-.017a2 2 0 0 0 1.722-1.722c.015-.113.017-.265.017-.761V12c0-.953-.001-1.6-.046-2.1-.044-.485-.123-.73-.222-.9A2 2 0 0 0 18 8.268c-.17-.099-.415-.178-.9-.222M14 14a1 1 0 0 1 1 1v4a1 1 0 1 1-2 0v-4a1 1 0 0 1 1-1" clip-rule="evenodd"/></svg>