<svg id="nmShuffleHalftone" xmlns="http://www.w3.org/2000/svg" fill="none" viewBox="0 0 24 24"><path fill="currentColor" fill-rule="evenodd" d="M7.023 8.135C6.716 8.016 6.349 8 5.085 8H4a1 1 0 0 1 0-2h1.251c1.021 0 1.793-.001 2.494.27a4 4 0 0 1 1.013.573c.42.327.741.755 1.08 1.288A.986.986 0 0 1 9.5 9.5a1.02 1.02 0 0 1-1.38-.339c-.27-.424-.418-.605-.59-.74a2 2 0 0 0-.507-.286m5.568 6.902c.462-.462 1.212-.352 1.57.193.113.17.19.255.31.348q.231.181.506.287c.307.119.674.135 1.939.135h.172a1 1 0 0 1 1.276-1.54l2.25 1.75a1 1 0 0 1 0 1.58l-2.25 1.75A1 1 0 0 1 17.088 18h-.339c-1.021 0-1.793.001-2.493-.27a4 4 0 0 1-1.014-.573c-.339-.264-.567-.547-.799-.905a.976.976 0 0 1 .148-1.215" clip-rule="evenodd" opacity=".6"/><path fill="currentColor" fill-rule="evenodd" d="M16.96 4.636a1 1 0 0 1 1.404-.175l2.25 1.75a1 1 0 0 1 0 1.578l-2.25 1.75A1 1 0 0 1 17.088 8h-.03c-1.415 0-1.823.02-2.16.167a2 2 0 0 0-.359.203c-.3.214-.527.554-1.255 1.766l-2.854 4.757-.095.16c-.586.978-1.03 1.72-1.715 2.207q-.337.24-.716.405c-.77.337-1.634.336-2.775.335H4a1 1 0 1 1 0-2h.943c1.413 0 1.822-.02 2.16-.168a2 2 0 0 0 .358-.202c.3-.214.527-.554 1.255-1.766l2.854-4.757.095-.16c.586-.978 1.03-1.72 1.715-2.207q.337-.24.716-.405c.77-.337 1.634-.336 2.775-.335h.218a1 1 0 0 1-.128-1.364" clip-rule="evenodd"/></svg>