<svg id="nmStopSolid" xmlns="http://www.w3.org/2000/svg" fill="none" viewBox="0 0 24 24"><path fill="currentColor" fill-rule="evenodd" d="M9.548 5h4.904c.706 0 1.314 0 1.809.054.526.057 1.04.183 1.502.519.255.185.479.409.664.664.335.461.463.976.52 1.502C19 8.234 19 8.842 19 9.548v4.904c0 .706 0 1.314-.054 1.809-.056.526-.184 1.04-.519 1.502q-.28.384-.664.664c-.461.335-.976.463-1.502.52-.495.053-1.103.053-1.81.053H9.549c-.705 0-1.314 0-1.809-.054-.526-.056-1.04-.184-1.502-.519a3 3 0 0 1-.664-.664c-.336-.461-.462-.976-.52-1.502C5 15.766 5 15.158 5 14.452V9.548c0-.706 0-1.314.054-1.809.057-.526.183-1.04.519-1.502a3 3 0 0 1 .664-.664c.461-.336.976-.462 1.502-.52C8.234 5 8.842 5 9.55 5" clip-rule="evenodd"/></svg>