<svg id="nomercy" xmlns="http://www.w3.org/2000/svg" fill="none" viewBox="0 0 24 24"><path stroke="currentColor" stroke-linecap="round" stroke-linejoin="round" stroke-width="1.5" d="M15 6.267v11.666m7-11.666v11.666m-7.104-2.518c-2.232 1.32-3.349 1.981-4.253 1.737-.366-.1-.7-.29-.972-.555C9 15.943 9 14.647 9 12.052v0c0-2.627 0-3.94.678-4.596.275-.265.613-.455.982-.552.912-.238 2.034.445 4.278 1.81v0c2.12 1.291 3.18 1.936 3.4 2.824.09.36.087.737-.007 1.096-.23.886-1.299 1.517-3.435 2.78m-6.935.109c-2.33 1.32-3.496 1.981-4.428 1.677a2.2 2.2 0 0 1-.809-.471C2 16.069 2 14.73 2 12.05v0c0-2.712 0-4.068.732-4.73a2.2 2.2 0 0 1 .817-.469c.94-.299 2.112.385 4.455 1.751v0c2.34 1.365 3.51 2.048 3.713 3.013.066.31.063.632-.006.942-.215.962-1.393 1.63-3.75 2.967" /></svg>