<svg id="noteDouble" xmlns="http://www.w3.org/2000/svg" fill="none" viewBox="0 0 24 24"><path stroke="currentColor" stroke-linecap="round" stroke-linejoin="round" stroke-width="1.5" d="M9 7.5V6l10-3v1.5m-10 3 10-3m-10 3v11.117M19 4.5v12.32m0 0a2.2 2.2 0 0 0-.076-.542c-.364-1.348-1.938-2.1-3.57-1.667-1.63.433-2.658 1.877-2.293 3.224s1.982 2.09 3.613 1.656c1.413-.376 2.343-1.498 2.326-2.67M8.93 18.155c.364 1.348-.608 2.792-2.239 3.225s-3.249-.308-3.613-1.655c-.364-1.348.663-2.792 2.294-3.225s3.193.308 3.558 1.656" /></svg>