<svg id="noteSixteenth" xmlns="http://www.w3.org/2000/svg" fill="none" viewBox="0 0 24 24"><path stroke="currentColor" stroke-linecap="round" stroke-linejoin="round" stroke-width="1.5" d="M15.11 10.073c1.02-.505 1.342-1.702 0-3.031-1.34-1.33-2.547-1.516-3.057-4.042v3.031m3.058 4.042c-1.34-1.329-2.548-1.515-3.058-4.042m3.058 4.042c1.34 1.33 1.02 2.526 0 3.032M12.053 6.03v12.126m-5.553-.93c-.436.591-.613 1.305-.427 1.994.083.305.23.58.427.816m0-2.81v2.81m0-2.81a3.2 3.2 0 0 1 1-.877m-1 3.687c.258.31.602.556 1 .72m0-4.407a3.6 3.6 0 0 1 1-.387m-1 .387v4.408m0 0c.307.127.645.207 1 .233m0-5.027v5.027m0-5.027a3.6 3.6 0 0 1 1.068-.082M8.5 20.991c.345.025.705-.001 1.068-.085m0-5.024v5.024m0-5.024c.33.026.644.097.932.21m-.932 4.814.119-.03q.439-.117.813-.323m0-4.46v4.46m0-4.46c.393.154.736.385 1 .68m-1 3.78c.402-.22.742-.508 1-.836m0-2.945c.224.25.391.547.481.88.194.716-.006 1.46-.481 2.065m0-2.945v2.945" /></svg>