<svg id="noteEighthPair" xmlns="http://www.w3.org/2000/svg" fill="none" viewBox="0 0 24 24"><path stroke="currentColor" stroke-linecap="round" stroke-linejoin="round" stroke-width="1.5" d="M9 7.5V6l10-3v1.5m-10 3 10-3m-10 3v11.117M19 4.5v12.32m0 0a2.2 2.2 0 0 0-.5-1.364m.5 1.364a2.42 2.42 0 0 1-.5 1.476m-15-.56c-.433.59-.609 1.302-.423 1.989.082.303.228.576.423.812m0-2.801v2.801m0-2.801a3.2 3.2 0 0 1 1-.88m-1 3.681a2.6 2.6 0 0 0 1 .723m0-4.404a3.6 3.6 0 0 1 1-.388m-1 .388v4.404m0 0c.306.128.645.209 1 .235m0-5.027v5.027m0-5.027a3.6 3.6 0 0 1 1-.086m-1 5.113c.323.023.66.002 1-.07m0-5.043v5.043m0-5.043c.356.02.694.098 1 .223m-1 4.82a3.6 3.6 0 0 0 1-.37m0-4.45v4.451m0-4.451c.398.163.742.41 1 .723m-1 3.728a3.1 3.1 0 0 0 1-.864m0-2.864c.197.239.345.517.429.828.19.705.015 1.436-.429 2.036m0-2.864v2.864m5-4.368c-.445.595-.627 1.316-.44 2.011.085.313.236.592.44.832m0-2.843v2.843m0-2.843c.254-.34.594-.638 1-.867m-1 3.71c.26.306.604.548 1 .71m0-4.42a3.6 3.6 0 0 1 1-.382m-1 .382v4.42m0 0c.307.127.645.205 1 .23m0-5.032v5.032m0-5.032c.34-.076.678-.1 1-.08m-1 5.112c.323.022.66-.001 1-.074m0-5.038v5.038m0-5.038c.356.024.694.103 1 .23m-1 4.808a3.6 3.6 0 0 0 1-.373m0-4.434v4.434m0-4.434c.398.166.742.415 1 .73m-1 3.704a3.1 3.1 0 0 0 1-.864m0-2.84v2.84" /></svg>