<svg id="noteClefTreble" xmlns="http://www.w3.org/2000/svg" fill="none" viewBox="0 0 24 24"><path stroke="currentColor" stroke-linecap="round" stroke-linejoin="round" stroke-width="1.5" d="M10.5 15.5s-1-.618-1-1.5c0-1.303 1-2 2.5-2m0 0-.5-4m.5 4 .901 5.352M12 12c1.56 0 3 1 3 2.518 0 1.519-.765 2.486-2.099 2.834M11.5 8 11 5.5C10.552 2.781 14.18.123 14 4c-.082 1.76-1.123 2.925-2.5 4m0 0C9.685 9.417 7 10.94 7 13.508c0 2.835 3.251 4.536 5.901 3.844m0 0 .366 2.22C13.73 22.388 9 22.982 9 20m0 0c0-.539.448-1 1-1 1.5 0-.5 3-1 1" /></svg>