<svg id="noteQuarter" xmlns="http://www.w3.org/2000/svg" fill="none" viewBox="0 0 24 24"><path stroke="currentColor" stroke-linecap="round" stroke-linejoin="round" stroke-width="1.5" d="M11.999 3v15.157M6.5 17.22c-.435.592-.612 1.309-.427 2 .082.308.23.584.427.822m0-2.822v2.822m0-2.822a3.2 3.2 0 0 1 1-.879m-1 3.7c.258.312.603.557 1 .721m0-4.42a3.6 3.6 0 0 1 1.104-.406m-1.104.405v4.422m0 0c.336.139.71.22 1.104.234m0-5.061v5.06m0-5.06c.304-.059.606-.076.896-.057m-.896 5.118c.291.01.593-.017.896-.084m0-5.034v5.034m0-5.034a3.2 3.2 0 0 1 1 .229m-1 4.805q.076-.017.154-.038.459-.125.846-.346m0-4.421v4.421m0-4.421c.397.164.742.41 1 .72m-1 3.701a3.2 3.2 0 0 0 1-.879m0-2.821c.197.238.345.514.427.822.185.69.008 1.407-.427 2m0-2.822v2.821" /></svg>