<svg id="noteEighth" xmlns="http://www.w3.org/2000/svg" fill="none" viewBox="0 0 24 24"><path stroke="currentColor" stroke-linecap="round" stroke-linejoin="round" stroke-width="1.5" d="M15.11 10.073c1.02-.505 1.342-1.702 0-3.031-1.34-1.33-2.547-1.516-3.057-4.042v15.157m-5.553-.93c-.436.591-.613 1.305-.427 1.994.083.305.23.58.427.816m0-2.81v2.81m0-2.81a3.2 3.2 0 0 1 1-.877m-1 3.687c.258.31.602.556 1 .72m0-4.407a3.6 3.6 0 0 1 1-.387m-1 .387v4.408m0 0c.307.127.645.207 1 .233m0-5.027v5.027m0-5.027c.34-.078.676-.104 1-.086m-1 5.113c.323.023.66.002 1-.07m0-5.043v5.043m0-5.043c.354.02.692.094 1 .215m-1 4.828q.093-.02.187-.045.439-.117.813-.323m0-4.46v4.46m0-4.46c.393.154.736.385 1 .68m-1 3.78c.402-.22.742-.508 1-.836m0-2.945c.224.25.391.547.481.88.194.716-.006 1.46-.481 2.065m0-2.945v2.945" /></svg>