<svg id="noWind" xmlns="http://www.w3.org/2000/svg" fill="none" viewBox="0 0 24 24"><g clip-path="url(#clip0_1556_82957)"><path stroke="currentColor" stroke-linecap="round" stroke-linejoin="round" stroke-width="1.5" d="M14.196 11.866c.276-.478-.663-1.537-2.098-2.366C10.663 8.672 9.276 8.388 9 8.866m5.196 3c-.276.478-1.663.195-3.098-.634C9.663 10.404 8.724 9.344 9 8.866m5.196 3-2.683 3.647m2.683-3.647L16 8m-7 .866-1.817 4.147M9 8.866 16 8m-4.487 7.513c-2.232-.134-3.098-.634-4.33-2.5m4.33 2.5-1.341 1.824m-2.989-4.324-.908 2.074m0 0-.909 2.073c-.276.479.275 1.314 1.232 1.866.957.553 1.956.613 2.232.134l1.342-1.823m-3.897-2.25c1.14 1.524 2.006 2.024 3.897 2.25M16 20h-2m2 0h2m-2 0V8m0-3v3" /></g><defs><clipPath id="clip0_1556_82957"><path fill="white" d="M0 0h24v24H0z" /></clipPath></defs></svg>