<svg id="officeChair" xmlns="http://www.w3.org/2000/svg" fill="none" viewBox="0 0 24 24"><path stroke="currentColor" stroke-linecap="round" stroke-linejoin="round" stroke-width="1.5" d="m12 17-4.072 1.629C7.368 18.853 7 19.396 7 20v0m5-3 4.072 1.629c.56.224.928.767.928 1.371v0m-5-3v3m0-3v-2m0 0c-2 0-4-.5-4-.5m4 .5c2 0 4-.5 4-.5M18.5 9a.58.58 0 0 0-.57.495L17.5 12.5M5.5 9c.287 0 .53.211.57.495L6.5 12.5m6.892 0h-2.784a2 2 0 0 1-1.997-2.105l.29-5.5A2 2 0 0 1 10.897 3h2.204A2 2 0 0 1 15.1 4.895l.29 5.5a2 2 0 0 1-1.998 2.105" /></svg>