<svg id="onlineShop" xmlns="http://www.w3.org/2000/svg" fill="none" viewBox="0 0 24 24"><path stroke="currentColor" stroke-linecap="round" stroke-linejoin="round" stroke-width="1.5" d="M12 21h1.5m8.5 0h-1.5m0 0v-3.5m0 3.5h-7m0 0v-3.5M9 21H6a3 3 0 0 1-3-3V6.933M21 10V6.933m0 0V6a3 3 0 0 0-3-3H6a3 3 0 0 0-3 3v.933m18 0H3M6 5h.01M8 5h.01M10 5h.01m4.19 10.534.102-.069a1.45 1.45 0 0 1 1.448-.09l.444.222c.498.25 1.092.212 1.556-.097v0a1.55 1.55 0 0 1 1.556-.097l.498.249c.43.215.943.183 1.344-.084v0a1.34 1.34 0 0 0 .528-1.54l-.19-.572A2.13 2.13 0 0 0 19.464 12h-4.93a2.13 2.13 0 0 0-2.02 1.457l-.21.63a1.26 1.26 0 0 0 .496 1.447v0a1.26 1.26 0 0 0 1.398 0" /></svg>