<svg id="orbit1" xmlns="http://www.w3.org/2000/svg" fill="none" viewBox="0 0 24 24"><g clip-path="url(#clip0_1556_83895)"><path stroke="currentColor" stroke-linecap="round" stroke-linejoin="round" stroke-width="1.5" d="M17.67 17.623q-.36.36-.75.663m-8.03 1.047c1.85.784 3.936.84 5.82.167m5.198-6.236a8 8 0 0 1-.527 1.827M6.48 6.319q.36-.36.752-.663m8.03-1.047a8.03 8.03 0 0 0-5.82-.167m-5.2 6.236a8 8 0 0 1 .529-1.826m2.292 9.478a1 1 0 1 1-1.414-1.414 1 1 0 0 1 1.414 1.414m9.9-12.728a1 1 0 1 1 1.414 1.415 1 1 0 0 1-1.414-1.415m-2.122 3.536a1.407 1.407 0 0 1-2.202-1.122 1.407 1.407 0 0 1-2.442.386A1.407 1.407 0 0 1 8.45 10.15c.885.68.665 2.07-.387 2.442a1.407 1.407 0 0 1 1.122 2.203 1.407 1.407 0 0 1 2.203 1.122 1.407 1.407 0 0 1 2.442-.387 1.407 1.407 0 0 1 1.748-1.748 1.407 1.407 0 0 1 .387-2.441 1.407 1.407 0 0 1-1.123-2.203" /></g><defs><clipPath id="clip0_1556_83895"><path fill="white" d="M0 0h24v24H0z" /></clipPath></defs></svg>