<svg id="otherDevices" xmlns="http://www.w3.org/2000/svg" fill="none" viewBox="0 0 24 24"><path stroke="currentColor" stroke-linecap="round" stroke-linejoin="round" stroke-width="1.5" d="M21 6H6.6c-1.5 0-2.25 0-2.776.382a2 2 0 0 0-.442.442C3 7.35 3 8.1 3 9.6v4.8c0 1.5 0 2.25.382 2.776q.187.256.442.442C4.35 18 5.1 18 6.6 18H7m10.5-7h1m-.5 6h.006M9.5 14.268a2 2 0 0 0 0 3.464m0-3.464a2 2 0 0 1 1-.268c.364 0 .706.097 1 .268m-2 0V13.5q0 0 0 0a1 1 0 0 1 1-1q0 0 0 0v0q0 0 0 0a1 1 0 0 1 1 1q0 0 0 0v.768m0 0a2 2 0 0 1 0 3.464m0 0a2 2 0 0 1-1 .268 2 2 0 0 1-1-.268m2 0v.768a1 1 0 0 1-1 1v0a1 1 0 0 1-1-1v-.768M16.8 9h2.4c.75 0 1.125 0 1.388.191a1 1 0 0 1 .221.221C21 9.675 21 10.05 21 10.8v6.4c0 .75 0 1.125-.191 1.388a1 1 0 0 1-.221.221C20.325 19 19.95 19 19.2 19h-2.4c-.75 0-1.125 0-1.388-.191a1 1 0 0 1-.221-.221C15 18.325 15 17.95 15 17.2v-6.4c0-.75 0-1.125.191-1.388a1 1 0 0 1 .221-.221C15.675 9 16.05 9 16.8 9" /></svg>