<svg id="ottoman" xmlns="http://www.w3.org/2000/svg" fill="none" viewBox="0 0 24 24"><path stroke="currentColor" stroke-linecap="round" stroke-linejoin="round" stroke-width="1.5" d="M8 18H7a2 2 0 0 1-2-2v-4a1 1 0 0 1 1-1v0m2 7v1.72c0 .154.126.28.28.28v0a.28.28 0 0 0 .273-.213L9 18m-1 0h1m7 0h1a2 2 0 0 0 2-2v-4a1 1 0 0 0-1-1v0m-2 7v1.72a.28.28 0 0 1-.28.28v0a.28.28 0 0 1-.273-.213L15 18m1 0h-1m3-7a4 4 0 0 0-4-4h-4a4 4 0 0 0-4 4v0m12 0a2 2 0 0 0-2 2v2M6 11a2 2 0 0 1 2 2v2m1 3h6m-8-2a1 1 0 0 1 1-1h8a1 1 0 0 1 1 1v0" /></svg>