<svg id="paintSwatches" xmlns="http://www.w3.org/2000/svg" fill="none" viewBox="0 0 24 24"><path stroke="currentColor" stroke-linecap="round" stroke-linejoin="round" stroke-width="1.5" d="M11.95 20a8 8 0 1 1 8.023-7.333c-.11 1.325-1.571 1.922-2.804 1.423v0a2.38 2.38 0 0 0-2.564.515v0c-.67.67-.87 1.686-.515 2.564v0c.499 1.233-.098 2.694-1.423 2.804a8 8 0 0 1-.616.027M10 15a1 1 0 1 1-2 0 1 1 0 0 1 2 0m-1.5-4a1 1 0 1 1-2 0 1 1 0 0 1 2 0m3-3a1 1 0 1 1-2 0 1 1 0 0 1 2 0m4.5.5a1 1 0 1 1-2 0 1 1 0 0 1 2 0" /></svg>