<svg id="paintGun" xmlns="http://www.w3.org/2000/svg" fill="none" viewBox="0 0 24 24"><path stroke="currentColor" stroke-linecap="round" stroke-linejoin="round" stroke-width="1.5" d="M4 18a.905.905 0 0 1-.9-.995l.72-7.204A2 2 0 0 1 5.81 8H7M4 18l-.584 1.751a.95.95 0 0 0 .9 1.249v0a.95.95 0 0 0 .9-.649L6 18m-2 0h2m0 0c.625 0 1.208-.312 1.555-.832l2.851-4.277A2 2 0 0 1 12.07 12h5.605c.215 0 .429-.035.633-.103l1.743-.58c.567-.19.949-.72.949-1.317v0c0-.597-.382-1.127-.949-1.316l-1.743-.581A2 2 0 0 0 17.675 8H11M7 8V7a1 1 0 0 0-1-1v0a1 1 0 0 1-1-1V2h8v3a1 1 0 0 1-1 1v0a1 1 0 0 0-1 1v1M7 8h4" /></svg>