<svg id="palette" xmlns="http://www.w3.org/2000/svg" fill="none" viewBox="0 0 24 24"><path stroke="currentColor" stroke-linecap="round" stroke-linejoin="round" stroke-width="1.5" d="M5 20v-2m0 0H3m2 0h14m0 0h2m-2 0v2M10.8 6h2.4c.75 0 1.125 0 1.388.191a1 1 0 0 1 .221.221C15 6.675 15 7.05 15 7.8v1.4c0 .75 0 1.125-.191 1.388a1 1 0 0 1-.221.221C14.325 11 13.95 11 13.2 11h-2.4c-.75 0-1.125 0-1.388-.191a1 1 0 0 1-.221-.221C9 10.325 9 9.95 9 9.2V7.8c0-.75 0-1.125.191-1.388a1 1 0 0 1 .221-.221C9.675 6 10.05 6 10.8 6m4 6h2.4c.75 0 1.125 0 1.388.191a1 1 0 0 1 .221.221c.191.263.191.638.191 1.388v1.4c0 .75 0 1.125-.191 1.388a1 1 0 0 1-.221.221C18.325 17 17.95 17 17.2 17h-2.4c-.75 0-1.125 0-1.388-.191a1 1 0 0 1-.221-.221C13 16.325 13 15.95 13 15.2v-1.4c0-.75 0-1.125.191-1.388a1 1 0 0 1 .221-.221C13.675 12 14.05 12 14.8 12m-8 0h2.4c.75 0 1.125 0 1.388.191a1 1 0 0 1 .221.221c.191.263.191.638.191 1.388v1.4c0 .75 0 1.125-.191 1.388a1 1 0 0 1-.221.221C10.325 17 9.95 17 9.2 17H6.8c-.75 0-1.125 0-1.388-.191a1 1 0 0 1-.221-.221C5 16.325 5 15.95 5 15.2v-1.4c0-.75 0-1.125.191-1.388a1 1 0 0 1 .221-.221C5.675 12 6.05 12 6.8 12" /></svg>