<svg id="palm" xmlns="http://www.w3.org/2000/svg" fill="none" viewBox="0 0 24 24"><path stroke="currentColor" stroke-linecap="round" stroke-linejoin="round" stroke-width="1.5" d="M4 19h1.897M19.5 19H5.897M12 8.5a4.5 4.5 0 0 0-9 0S5.5 7 7.5 7 12 8.5 12 8.5m0 0a4.5 4.5 0 1 1 9 0S18.5 7 16.5 7 12 8.5 12 8.5m0 0v2.397m0 0A4.45 4.45 0 0 0 5.897 9.25a4.5 4.5 0 0 0-1.647 6.147s1.415-2.549 3.147-3.549 4.603-.95 4.603-.95m0 0a4.5 4.5 0 0 1 7.794 4.5s-1.415-2.549-3.147-3.549-4.647-.95-4.647-.95m0 0C11.598 12.931 9.815 17.4 5.897 19" /></svg>