<svg id="pants" xmlns="http://www.w3.org/2000/svg" fill="none" viewBox="0 0 24 24"><path stroke="currentColor" stroke-linecap="round" stroke-linejoin="round" stroke-width="1.5" d="M16 3h.297c.713 0 1.07 0 1.327.178a1 1 0 0 1 .219.208c.192.246.212.602.252 1.314l.183 3.3M16 3v.555c0 1.068 0 1.602.172 2.088q.085.24.21.464c.252.45.653.802 1.455 1.506l.44.387M16 3h-5m7.278 5 .627 11.28c.04.72.06 1.08-.107 1.347a1 1 0 0 1-.197.231c-.24.206-.598.242-1.315.313l-1.515.152c-.738.074-1.108.11-1.387-.05a1 1 0 0 1-.242-.196c-.216-.24-.257-.609-.339-1.346L12.555 8.497A.56.56 0 0 0 12 8v0a.56.56 0 0 0-.555.497L10.197 19.73c-.082.737-.123 1.106-.34 1.346a1 1 0 0 1-.241.195c-.28.162-.649.125-1.387.05l-1.515-.15c-.717-.072-1.076-.108-1.315-.314a1 1 0 0 1-.197-.23c-.166-.269-.146-.628-.106-1.348L5.722 8M8 3h-.297c-.713 0-1.07 0-1.327.178a1 1 0 0 0-.219.208c-.192.246-.212.602-.251 1.314L5.722 8M8 3v.555c0 1.068 0 1.602-.172 2.088a3 3 0 0 1-.21.464c-.252.45-.653.802-1.455 1.506L5.723 8M8 3h3m.5 3.5c-.32-.32-.5-.754-.5-1.207V3" /></svg>