<svg id="paperPlaneSend" xmlns="http://www.w3.org/2000/svg" fill="none" viewBox="0 0 24 24"><path stroke="currentColor" stroke-linecap="round" stroke-linejoin="round" stroke-width="1.5" d="m7 14.5-1.308-.654C4.3 13.15 3.604 12.802 3.514 12.31a1 1 0 0 1 .024-.46c.14-.48.87-.753 2.327-1.3l9.153-3.432c1.164-.436 1.746-.655 2.144-.445a1 1 0 0 1 .321.27c.277.355.163.966-.063 2.188l-1.468 7.928c-.182.983-.273 1.474-.593 1.709q-.153.113-.338.161c-.384.1-.823-.14-1.7-.618L10 16.5m-3-2 .11 1.217c.12 1.318.18 1.978.457 2.238a1 1 0 0 0 .908.246c.37-.084.755-.623 1.525-1.701v0m-3-2L17 7l-7 9.5" /></svg>
