<svg id="paris" xmlns="http://www.w3.org/2000/svg" fill="none" viewBox="0 0 24 24"><path stroke="currentColor" stroke-linecap="round" stroke-linejoin="round" stroke-width="1.5" d="m15.5 16 1.991 2.845c.636.908-.013 2.155-1.121 2.155v0c-.757 0-1.367-.634-1.666-1.33C14.36 18.869 13.614 18 12 18s-2.36.869-2.704 1.67c-.299.696-.91 1.33-1.666 1.33v0c-1.108 0-1.757-1.247-1.122-2.155L8.5 16m7 0H17m-1.5 0h-7m0 0H7m4-5-1.5 3s1.5-1 2.5-1 2.5 1 2.5 1L13 11m-2 0H9.5m1.5 0h2m0 0h1.5M12 5l-.438 3.504A.44.44 0 0 0 12 9v0c.265 0 .47-.233.438-.496zm0 0h-1m1 0h1m-1 0V3" /></svg>