<svg id="pawPrint" xmlns="http://www.w3.org/2000/svg" fill="none" viewBox="0 0 24 24"><path stroke="currentColor" stroke-linecap="round" stroke-linejoin="round" stroke-width="1.5" d="M16.775 14.979A3.4 3.4 0 0 1 18 17.595v.47a2.936 2.936 0 0 1-5.164 1.91l-.601-.701a.31.31 0 0 0-.47 0l-.6.7A2.936 2.936 0 0 1 6 18.065v-.47c0-1.01.449-1.968 1.225-2.615L11.4 11.5a.94.94 0 0 1 1.2 0zM18 10c0 1.657.895 3 2 3s2-1.343 2-3-.895-3-2-3-2 1.343-2 3m-5-4c0 1.657.895 3 2 3s2-1.343 2-3-.895-3-2-3-2 1.343-2 3M9 9C7.895 9 7 7.657 7 6s.895-3 2-3 2 1.343 2 3-.895 3-2 3m-7 1c0 1.657.895 3 2 3s2-1.343 2-3-.895-3-2-3-2 1.343-2 3" /></svg>