<svg id="percentDiscount" xmlns="http://www.w3.org/2000/svg" fill="none" viewBox="0 0 24 24"><path stroke="currentColor" stroke-linecap="round" stroke-linejoin="round" stroke-width="1.5" d="m9 15 6-6m-5 1-.25-.25M9.5 9.5l.25.25m4.75 4.75-.25-.25M14 14l.25.25m0 0 .25-.25m-.25.25-.25.25M9.75 9.75 10 9.5m-.25.25L9.5 10M5.636 7.636v.9A2 2 0 0 1 5.05 9.95l-.636.636a2 2 0 0 0 0 2.828l.636.636a2 2 0 0 1 .586 1.414v.9a2 2 0 0 0 2 2h.9a2 2 0 0 1 1.414.586l.636.636a2 2 0 0 0 2.828 0l.636-.636a2 2 0 0 1 1.414-.586h.9a2 2 0 0 0 2-2v-.9a2 2 0 0 1 .586-1.414l.636-.636a2 2 0 0 0 0-2.828l-.636-.636a2 2 0 0 1-.586-1.415v-.899a2 2 0 0 0-2-2h-.9a2 2 0 0 1-1.414-.586l-.636-.636a2 2 0 0 0-2.828 0l-.636.636a2 2 0 0 1-1.414.586h-.9a2 2 0 0 0-2 2" /></svg>