<svg id="petriTrayTop" xmlns="http://www.w3.org/2000/svg" fill="none" viewBox="0 0 24 24"><path stroke="currentColor" stroke-linecap="round" stroke-linejoin="round" stroke-width="1.5" d="M10.478 11.045c.301.244.703.366 1.149.316q.068-.009.137-.01m-1.286-.306c-.332-.27-.542-.69-.549-1.192a2 2 0 0 1 .035-.393m.514 1.585-.428.557M9.964 9.46l-.77-.429m.77.429c.114-.588.49-1.124.997-1.444m0 0a2 2 0 0 1 .72-.283q.472-.093.94-.072m-1.66.355c-.043-.045-.34-.627-.483-.912m2.142.557.215-.772m-.215.772a4.3 4.3 0 0 1 1.595.39m0 0 .547-.947m-.547.948a4.7 4.7 0 0 1 1.526 1.116m0 0 .735-.565m-.735.565c.397.438.712.95.908 1.507m0 0c.151.428.233.883.23 1.352q.003.332-.102.646m-.128-1.998.898-.144m-.77 2.142.77.428m-.77-.428a2.26 2.26 0 0 1-1.158 1.316m0 0a2 2 0 0 1-.493.159c-.467.082-.897-.027-1.22-.273m1.713.114.429.826m-2.142-.94-.58.628m.58-.628a1.48 1.48 0 0 1-.535-.829m0 0a2 2 0 0 1-.045-.281c-.066-.857-.727-1.444-1.562-1.414m1.607 1.695-.75.27m-.857-1.965v.894M21 12a9 9 0 1 1-18 0 9 9 0 0 1 18 0" /></svg>