<svg id="phoneSwap" xmlns="http://www.w3.org/2000/svg" fill="none" viewBox="0 0 24 24"><path stroke="currentColor" stroke-linecap="round" stroke-linejoin="round" stroke-width="1.5" d="M6.2 4.625h1.6M7 14.25h.008m9.192-3.625h1.6M17 20.25h.008M5 18a2 2 0 0 0 2 2h3m0 0-1.5-1.5M10 20l-1.5 1.5M19 6a2 2 0 0 0-2-2h-3m0 0 1.5 1.5M14 4l1.5-1.5m5.5 9.1v6.8c0 1.5 0 2.25-.382 2.776q-.187.256-.442.442C19.65 22 18.9 22 17.4 22h-.8c-1.5 0-2.25 0-2.776-.382a2 2 0 0 1-.442-.442C13 20.65 13 19.9 13 18.4v-6.8c0-1.5 0-2.25.382-2.776q.187-.256.442-.442C14.35 8 15.1 8 16.6 8h.8c1.5 0 2.25 0 2.776.382.17.123.319.273.442.442C21 9.35 21 10.1 21 11.6M6.6 2h.8c1.5 0 2.25 0 2.776.382q.256.187.442.442C11 3.35 11 4.1 11 5.6v6.8c0 1.5 0 2.25-.382 2.776-.123.17-.273.319-.442.442C9.65 16 8.9 16 7.4 16h-.8c-1.5 0-2.25 0-2.776-.382a2 2 0 0 1-.442-.442C3 14.65 3 13.9 3 12.4V5.6c0-1.5 0-2.25.382-2.776a2 2 0 0 1 .442-.442C4.35 2 5.1 2 6.6 2" /></svg>