<svg id="phoneVibrate" xmlns="http://www.w3.org/2000/svg" fill="none" viewBox="0 0 24 24"><path stroke="currentColor" stroke-linecap="round" stroke-linejoin="round" stroke-width="1.5" d="M11 7h2m-1 11h.01M21 7l-.909 1.212a1.136 1.136 0 0 0 .106 1.485l.053.053a1.06 1.06 0 0 1 0 1.5v0a1.06 1.06 0 0 0 0 1.5v0a1.06 1.06 0 0 1 0 1.5l-.053.053c-.4.4-.445 1.033-.106 1.485L21 17M3 7l.909 1.212a1.136 1.136 0 0 1-.106 1.485l-.053.053a1.06 1.06 0 0 0 0 1.5v0a1.06 1.06 0 0 1 0 1.5v0a1.06 1.06 0 0 0 0 1.5l.053.053c.4.4.445 1.033.106 1.485L3 17m14-8v6c0 1.87 0 2.804-.402 3.5a3 3 0 0 1-1.098 1.098C14.804 20 13.87 20 12 20v0c-1.87 0-2.804 0-3.5-.402A3 3 0 0 1 7.402 18.5C7 17.804 7 16.87 7 15V9c0-1.87 0-2.804.402-3.5A3 3 0 0 1 8.5 4.402C9.196 4 10.13 4 12 4v0c1.87 0 2.804 0 3.5.402A3 3 0 0 1 16.598 5.5C17 6.196 17 7.13 17 9" /></svg>