<svg id="phoneRotate" xmlns="http://www.w3.org/2000/svg" fill="none" viewBox="0 0 24 24"><path stroke="currentColor" stroke-linecap="round" stroke-linejoin="round" stroke-width="1.5" d="M11 7h2m-1 11h.01m7.372-.072c2.273-2.828 3.086-6.651 1.205-9.91m-1.205 9.91L19 15.767m.382 2.16 2.042-.962M4.618 6.072C2.345 8.9 1.53 12.724 3.413 15.983m1.205-9.91L5 8.232m-.382-2.16-2.042.962M17 9v6c0 1.87 0 2.804-.402 3.5a3 3 0 0 1-1.098 1.098C14.804 20 13.87 20 12 20v0c-1.87 0-2.804 0-3.5-.402A3 3 0 0 1 7.402 18.5C7 17.804 7 16.87 7 15V9c0-1.87 0-2.804.402-3.5A3 3 0 0 1 8.5 4.402C9.196 4 10.13 4 12 4v0c1.87 0 2.804 0 3.5.402A3 3 0 0 1 16.598 5.5C17 6.196 17 7.13 17 9" /></svg>