<svg id="phone" xmlns="http://www.w3.org/2000/svg" fill="none" viewBox="0 0 24 24"><path stroke="currentColor" stroke-linecap="round" stroke-linejoin="round" stroke-width="1.5" d="m9.717 4.768-.411-.412a1.917 1.917 0 0 0-2.712 0c-.952.951-1.55 2.227-1.209 3.529.413 1.57 1.442 3.892 3.979 6.429 2.537 2.536 4.858 3.565 6.429 3.978 1.301.342 2.577-.257 3.529-1.208a1.917 1.917 0 0 0 0-2.712l-.412-.412a2 2 0 0 0-2.829 0l-.27.27a.91.91 0 0 1-1.01.207c-.75-.332-2.115-1.044-3.316-2.245-1.2-1.2-1.912-2.565-2.245-3.316a.91.91 0 0 1 .207-1.01l.27-.27a2 2 0 0 0 0-2.828" /></svg>