<svg id="picLandscape" xmlns="http://www.w3.org/2000/svg" fill="none" viewBox="0 0 24 24"><path stroke="currentColor" stroke-linecap="round" stroke-linejoin="round" stroke-width="1.5" d="M21 14v-2.6c0-2.25 0-3.375-.573-4.163a3 3 0 0 0-.664-.664C18.975 6 17.85 6 15.6 6H7m14 8c0 .93 0 1.395-.102 1.777a3 3 0 0 1-2.122 2.12C18.396 18 17.93 18 17 18H8.4c-2.25 0-3.375 0-4.163-.573a3 3 0 0 1-.664-.664C3 15.975 3 14.85 3 12.6V10m18 4-1.5-1.5c-.352-.352-.528-.528-.696-.654a3 3 0 0 0-3.608 0c-.168.126-.344.302-.696.654l-1 1a2.12 2.12 0 0 1-3 0v0a2.12 2.12 0 0 0-3 0L6 15m-3-5c0-.93 0-1.395.102-1.776a3 3 0 0 1 2.122-2.122C5.605 6 6.07 6 7 6v0m-4 4c.93 0 1.395 0 1.776-.102a3 3 0 0 0 2.122-2.122C7 7.395 7 6.93 7 6v0" /></svg>