<svg id="picPortrait" xmlns="http://www.w3.org/2000/svg" fill="none" viewBox="0 0 24 24"><path stroke="currentColor" stroke-linecap="round" stroke-linejoin="round" stroke-width="1.5" d="M18 15V8.4c0-2.25 0-3.375-.573-4.163a3 3 0 0 0-.664-.664C15.975 3 14.85 3 12.6 3H10m8 12v.6c0 2.25 0 3.375-.573 4.163q-.28.384-.664.664C15.975 21 14.85 21 12.6 21h-1.2c-2.25 0-3.375 0-4.163-.573a3 3 0 0 1-.664-.664C6 18.975 6 17.85 6 15.6V7m12 8-1.5 1.5a2.12 2.12 0 0 1-3 0v0a2.12 2.12 0 0 0-3 0l-2 2M6 7c0-.93 0-1.395.102-1.776a3 3 0 0 1 2.122-2.122C8.605 3 9.07 3 10 3v0M6 7c.93 0 1.395 0 1.776-.102a3 3 0 0 0 2.122-2.122C10 4.395 10 3.93 10 3v0" /></svg>