<svg id="pictureInPicture" xmlns="http://www.w3.org/2000/svg" fill="none" viewBox="0 0 24 24"><path stroke="currentColor" stroke-linecap="round" stroke-linejoin="round" stroke-width="1.5" d="M9 11 6.5 8.5M9 11V9.5M9 11H7.5m11.5-.5v-.1c0-2.25 0-3.375-.573-4.163a3 3 0 0 0-.664-.664C16.975 5 15.85 5 13.6 5H8.4c-2.25 0-3.375 0-4.163.573a3 3 0 0 0-.664.664C3 7.025 3 8.15 3 10.4v1.2c0 2.25 0 3.375.573 4.163q.28.385.664.664C5.025 17 6.15 17 8.4 17h.1m6 3h3c1.404 0 2.107 0 2.611-.337.218-.146.406-.334.552-.552C21 18.607 21 17.904 21 16.5v0c0-1.405 0-2.107-.337-2.611a2 2 0 0 0-.552-.552C19.607 13 18.904 13 17.5 13h-3c-1.405 0-2.107 0-2.611.337a2 2 0 0 0-.552.552C11 14.393 11 15.096 11 16.5v0c0 1.404 0 2.107.337 2.611.146.218.334.406.552.552.504.337 1.207.337 2.611.337" /></svg>