<svg id="pig" xmlns="http://www.w3.org/2000/svg" fill="none" viewBox="0 0 24 24"><path stroke="currentColor" stroke-linecap="round" stroke-linejoin="round" stroke-width="1.5" d="M8.706 10.857v2.032m6.588-2.032v2.032M9.55 6.286c-2.425 1.05-4.138 3.61-4.138 6.603C5.412 18.476 8.362 20 12 20s6.588-1.524 6.588-7.111c0-2.993-1.713-5.554-4.138-6.603m-4.9 0a6.15 6.15 0 0 1 4.9 0m-4.9 0L8.235 4.762C6.824 3.746 5.882 3.746 4 4.762c0 1.016 0 2.032.941 3.048m9.509-1.524 1.315-1.524c1.412-1.016 2.353-1.016 4.235 0 0 1.016 0 2.032-.941 3.048m-4.706 8.634c0 1.016-.794 1.524-2.353 1.524s-2.353-.401-2.353-1.524.794-2.54 2.353-2.54 2.353 1.418 2.353 2.54" /></svg>