<svg id="pillHand" xmlns="http://www.w3.org/2000/svg" fill="none" viewBox="0 0 24 24"><path stroke="currentColor" stroke-linecap="round" stroke-linejoin="round" stroke-width="1.5" d="M16.5 15c1.15 0 2.3.294 2.999 1.107.368.427.054 1.027-.486 1.19l-5.974 1.791a8 8 0 0 1-5.877-.507l-2.61-1.305A1 1 0 0 1 4 16.382V13c0-.552.45-1.006.996-.92 1.15.182 2.366.676 3.176 1.524.223.234.52.394.842.4 1.27.028 3.878.22 4.719 1.546.295.466-.18.95-.733.95H9.333m5.167-11L16 4a2.12 2.12 0 0 1 3 0v0a2.12 2.12 0 0 1 0 3l-1.5 1.5m-3-3L13 7a2.12 2.12 0 0 0 0 3v0a2.12 2.12 0 0 0 3 0l1.5-1.5m-3-3 3 3" /></svg>
