<svg id="pill" xmlns="http://www.w3.org/2000/svg" fill="none" viewBox="0 0 24 24"><path stroke="currentColor" stroke-linecap="round" stroke-linejoin="round" stroke-width="1.5" d="M9.172 9.172 12 6.343A4 4 0 0 1 17.657 12l-2.829 2.829M9.172 9.172l-1.415 1.414m1.415-1.414 1.414 1.414m4.242 4.243L12 17.657a4 4 0 0 1-6.22-.707m9.048-2.121-4.242-4.243m4.242 4.243H5.172m2.585-4.243L6.343 12c-.244.244-.45.512-.618.796m2.032-2.21h2.829m-4.86 2.21 6.981-.089m-6.982.09a4 4 0 0 0-.553 2.031m0 0c0 .738.202 1.475.607 2.122m6.928 0H5.78" /></svg>