<svg id="pills" xmlns="http://www.w3.org/2000/svg" fill="none" viewBox="0 0 24 24"><path stroke="currentColor" stroke-linecap="round" stroke-linejoin="round" stroke-width="1.5" d="m8.657 7.657 2.828-2.829A4 4 0 0 1 18 9.212M8.657 7.657 7.243 9.07m1.414-1.414L10.07 9.07m-2.828 0-1.415 1.414q-.366.368-.618.797m2.033-2.21h2.828m0 0L11 10m-5.79 1.281a4 4 0 0 0-.549 2.219m.55-2.219H9.5m-4.235 4.154A4.01 4.01 0 0 0 9 17.299m-3.735-1.864h3.392m-3.392 0A4 4 0 0 1 4.66 13.5m0 0h3.996m3.828 4.985a4.243 4.243 0 1 0 6-6m-6 6a4.243 4.243 0 1 1 6-6m-6 6 6-6" /></svg>
