<svg id="pillow" xmlns="http://www.w3.org/2000/svg" fill="none" viewBox="0 0 24 24"><path stroke="currentColor" stroke-linecap="round" stroke-linejoin="round" stroke-width="1.5" d="M7 12c2.5.5 4 2 5 4m2-6c1.5.5 2.5 2 3 3m1.829 5.276.274.091a1 1 0 0 0 1.264-1.264l-.131-.396a3.1 3.1 0 0 1-.12-1.444c.346-2.367.346-4.159 0-6.526a3.1 3.1 0 0 1 .12-1.444l.131-.396a1 1 0 0 0-1.264-1.265l-.274.092a3.2 3.2 0 0 1-1.68.078 24.3 24.3 0 0 0-10.298 0 3.2 3.2 0 0 1-1.68-.078l-.274-.092a1 1 0 0 0-1.265 1.265l.132.396c.155.464.191.96.12 1.444-.345 2.367-.345 4.159 0 6.526.071.485.035.98-.12 1.444l-.132.396a1 1 0 0 0 1.265 1.264l.274-.09a3.2 3.2 0 0 1 1.68-.08q5.149 1.105 10.298 0a3.2 3.2 0 0 1 1.68.08" /></svg>