<svg id="pin11" xmlns="http://www.w3.org/2000/svg" fill="none" viewBox="0 0 24 24"><g clip-path="url(#clip0_1556_83721)"><path stroke="currentColor" stroke-linecap="round" stroke-linejoin="round" stroke-width="1.5" d="m16 16-3.928 3.928a1 1 0 0 1-1.635-.336L8.404 14.51a3 3 0 0 0-1.363-1.527l-1.99-1.072a3 3 0 0 1-.7-4.763L7.15 4.35a3 3 0 0 1 4.763.7l1.072 1.99a3 3 0 0 0 1.527 1.363l5.08 2.033a1 1 0 0 1 .337 1.635zm0 0 4 4" /></g><defs><clipPath id="clip0_1556_83721"><path fill="white" d="M0 0h24v24H0z" /></clipPath></defs></svg>