<svg id="pingPong" xmlns="http://www.w3.org/2000/svg" fill="none" viewBox="0 0 24 24"><g clip-path="url(#clip0_1556_83125)"><path stroke="currentColor" stroke-linecap="round" stroke-linejoin="round" stroke-width="1.5" d="M5.407 9.876c-.457 1.5-.492 3.057-.094 4.475.298 1.061.053 2.295-.876 2.887l-.928.59a2 2 0 0 0-.34 3.102l.462.46a2 2 0 0 0 3.109-.352l.64-1.021c.572-.915 1.77-1.18 2.816-.915 1.369.346 2.858.296 4.295-.142M5.407 9.876A9.3 9.3 0 0 1 7.75 6.01c3.32-3.319 8.385-3.636 11.314-.707s2.612 7.995-.707 11.314a9.3 9.3 0 0 1-3.866 2.343M5.407 9.876l9.084 9.084" /></g><defs><clipPath id="clip0_1556_83125"><path fill="white" d="M0 0h24v24H0z" /></clipPath></defs></svg>