<svg id="pirateFlag" xmlns="http://www.w3.org/2000/svg" fill="none" viewBox="0 0 24 24"><path stroke="currentColor" stroke-linecap="round" stroke-linejoin="round" stroke-width="1.5" d="m16.987 7.001.999-.998m0 0h1.433c.373 0 .743-.066 1.079-.229.701-.34 1.811-.997 1.26-1.547-.55-.552-1.996 0-1.996 0s.551-1.446 0-1.997c-.55-.55-1.208.56-1.548 1.26a2.5 2.5 0 0 0-.228 1.08zM7 16.988l-.999.998m0 0H4.569c-.373 0-.744.066-1.079.229-.701.34-1.811.997-1.261 1.547.552.552 1.997 0 1.997 0s-.551 1.446 0 1.997c.55.55 1.208-.56 1.548-1.26.162-.336.228-.706.228-1.08zm10.985-.998.999.998m0 0h1.433c.373 0 .743.066 1.079.229.701.34 1.811.997 1.26 1.547-.55.552-1.996 0-1.996 0s.551 1.446 0 1.997c-.55.55-1.208-.56-1.548-1.26a2.5 2.5 0 0 1-.228-1.08zm-4.494-5.556v-.999m-2.996.999v-.999M7 7.001l-1-.998m0 0H4.569c-.372 0-.743-.066-1.078-.229-.702-.34-1.811-.997-1.261-1.547.551-.552 1.997 0 1.997 0s-.551-1.446 0-1.997c.55-.55 1.208.56 1.548 1.26.162.336.228.707.228 1.08zm10.337 6.427c0-2.497-1.846-4.494-4.343-4.494S7.65 9.933 7.65 12.43v.899c0 .533.261 1.005.662 1.295.448.324.936.75.936 1.302v0c0 .551.327.998.879.998.551 0 .87-.447.87-.998a.999.999 0 0 0 1.996.036c.019.535.33.962.869.962.551 0 .878-.447.878-.998v0c0-.552.488-.978.935-1.302.401-.29.663-.762.663-1.295z" /></svg>