<svg id="plane" xmlns="http://www.w3.org/2000/svg" fill="none" viewBox="0 0 24 24"><path stroke="currentColor" stroke-linecap="round" stroke-linejoin="round" stroke-width="1.5" d="M4.515 13.828 8.05 15.95l2.121 3.535 1.415-1.414-.354-2.475 2.475-2.475 2.828 5.657 2.122-2.121-1.77-5.309c-.149-.448-.224-.671-.199-.89a1 1 0 0 1 .047-.212c.072-.208.242-.387.583-.743.673-.704 1.285-1.458 1.577-2.377.203-.634.234-1.31-.238-1.783-.473-.472-1.149-.441-1.783-.239-.919.293-1.673.905-2.377 1.578-.357.34-.535.511-.743.582a1 1 0 0 1-.212.048c-.219.024-.443-.05-.89-.2L7.343 5.344l-2.121 2.12 5.657 2.829-2.475 2.475-2.475-.354z" /></svg>