<svg id="planeLanding" xmlns="http://www.w3.org/2000/svg" fill="none" viewBox="0 0 24 24"><g clip-path="url(#clip0_1556_83616)"><path stroke="currentColor" stroke-linecap="round" stroke-linejoin="round" stroke-width="1.5" d="M3 20h18M3.53 4.686v2.892a4 4 0 0 0 1.675 3.254l1.991 1.423a8 8 0 0 0 2.818 1.278l9.26 2.179a.997.997 0 0 0 1.226-.97v0a3.99 3.99 0 0 0-2.863-3.827L14.49 9.99l-1.013-4.05a4 4 0 0 0-1.822-2.46L9.54 2.211l.353 6.718-3.182-1.06-.707-2.122z" /></g><defs><clipPath id="clip0_1556_83616"><path fill="white" d="M0 0h24v24H0z" /></clipPath></defs></svg>