<svg id="planet" xmlns="http://www.w3.org/2000/svg" fill="none" viewBox="0 0 24 24"><path stroke="currentColor" stroke-linecap="round" stroke-linejoin="round" stroke-width="1.5" d="M3.936 16A9 9 0 1 0 20 7.873M3.936 16A8.96 8.96 0 0 1 3 12c0-3.331 1.81-6.24 4.5-7.796M3.936 16l1.714-.844a3 3 0 0 0 1.522-3.64l-.379-1.136a3 3 0 0 1-.038-1.772l.63-2.204A3 3 0 0 0 7.5 5.58V4.204m0 0A8.96 8.96 0 0 1 12 3c1.052 0 2.062.18 3 .512m0 0-.232 1.615a3 3 0 0 0 1.306 2.922l.043.03a3 3 0 0 0 2.898.238L20 7.873m-5-4.36a9.03 9.03 0 0 1 5 4.36m-4.126 8.13a.66.66 0 0 1 .644-.503h.789c.444 0 .87-.177 1.184-.491v0c.581-.581.659-1.5.18-2.168l-.605-.85a2.56 2.56 0 0 0-2.822-.964l-.982.295a1.787 1.787 0 0 0-.994 2.67l1.403 2.206a.663.663 0 0 0 1.203-.196" /></svg>