<svg id="plastic" xmlns="http://www.w3.org/2000/svg" fill="none" viewBox="0 0 24 24"><path stroke="currentColor" stroke-linecap="round" stroke-linejoin="round" stroke-width="1.5" d="M7.5 11c0-2.25 2.625-2.75 2.625-5M7.5 11h9m-9 0 .446 4.464c.024.238.036.357.034.476q-.002.06-.006.118c-.01.119-.033.236-.08.47l-.033.166c-.351 1.759-.527 2.638-.167 3.282a2 2 0 0 0 .446.544c.561.48 1.458.48 3.251.48h1.218c1.793 0 2.69 0 3.25-.48a2 2 0 0 0 .447-.544c.36-.644.184-1.523-.167-3.282l-.033-.166a4 4 0 0 1-.08-.47l-.006-.118c-.002-.12.01-.238.034-.476L16.5 11m-6.375-5V3h3.75v3m-3.75 0h3.75m2.625 5c0-2.25-2.625-2.75-2.625-5" /></svg>