<svg id="playPortrait" xmlns="http://www.w3.org/2000/svg" fill="none" viewBox="0 0 24 24"><path stroke="currentColor" stroke-linecap="round" stroke-linejoin="round" stroke-width="1.5" d="M12.01 21h.59c2.25 0 3.375 0 4.163-.573q.384-.28.664-.664C18 18.975 18 17.85 18 15.6V8.4c0-2.25 0-3.375-.573-4.163a3 3 0 0 0-.664-.664C15.975 3 14.85 3 12.6 3h-1.2c-2.25 0-3.375 0-4.163.573a3 3 0 0 0-.664.664C6 5.025 6 6.15 6 8.4v7.2c0 2.25 0 3.375.573 4.163.185.255.409.479.664.664C8.025 21 9.15 21 11.4 21h.6m-2-9.087v.175c0 1.15 0 1.725.313 2.02q.151.143.344.213c.405.148.92-.11 1.948-.623l.175-.088c1.237-.618 1.855-.928 1.96-1.39a1 1 0 0 0 0-.44c-.105-.462-.723-.771-1.96-1.39l-.175-.088c-1.029-.514-1.543-.771-1.948-.623a1 1 0 0 0-.344.212c-.313.296-.313.871-.313 2.021" /></svg>