<svg id="playUnavailableCross" xmlns="http://www.w3.org/2000/svg" fill="none" viewBox="0 0 24 24"><path stroke="currentColor" stroke-linecap="round" stroke-linejoin="round" stroke-width="1.5" d="M20 12a8 8 0 1 0-8 8m6-2 2-2m-2 2-2 2m2-2-2-2m2 2 2 2m-4.832-6.427-3.494 1.941c-1.05.583-1.574.875-1.992.734a1 1 0 0 1-.356-.209C9 15.742 9 15.141 9 13.941v-3.882c0-1.2 0-1.8.326-2.098a1 1 0 0 1 .356-.21c.418-.14.943.152 1.992.735l3.494 1.94c1.103.613 1.655.92 1.75 1.363a1 1 0 0 1 0 .422c-.095.443-.647.75-1.75 1.362" /></svg>