<svg id="playLandscape" xmlns="http://www.w3.org/2000/svg" fill="none" viewBox="0 0 24 24"><path stroke="currentColor" stroke-linecap="round" stroke-linejoin="round" stroke-width="1.5" d="M12 18H8.4c-2.25 0-3.375 0-4.163-.573a3 3 0 0 1-.664-.664C3 15.975 3 14.85 3 12.6v-1.2c0-2.25 0-3.375.573-4.163a3 3 0 0 1 .664-.664C5.025 6 6.15 6 8.4 6h7.2c2.25 0 3.375 0 4.163.573.255.185.479.409.664.664C21 8.025 21 9.15 21 11.4v1.2c0 2.25 0 3.375-.573 4.163q-.28.384-.664.664C18.975 18 17.85 18 15.6 18h-3.59M9.5 11.102v1.796c0 1.215 0 1.823.33 2.12a1 1 0 0 0 .358.209c.422.138.95-.163 2.005-.766l1.572-.898c1.07-.611 1.604-.917 1.697-1.354a1 1 0 0 0 0-.418c-.093-.437-.628-.743-1.697-1.354l-1.572-.898c-1.055-.603-1.582-.904-2.005-.766a1 1 0 0 0-.358.208c-.33.298-.33.906-.33 2.12" /></svg>