<svg id="playlist1Add" xmlns="http://www.w3.org/2000/svg" fill="none" viewBox="0 0 24 24"><path stroke="currentColor" stroke-linecap="round" stroke-linejoin="round" stroke-width="1.5" d="M12 4h8m-8 7h4m-4 8h7M6 17v2m0 2v-2m6-13h6m-6 7h2m-8 6h2m-2 0H4m-1-6.8v-.4c0-.75 0-1.125.191-1.388a1 1 0 0 1 .221-.221C3.675 10 4.05 10 4.8 10h2.4c.75 0 1.125 0 1.388.191a1 1 0 0 1 .221.221C9 10.675 9 11.05 9 11.8v.4c0 .75 0 1.125-.191 1.388a1 1 0 0 1-.221.221C8.325 14 7.95 14 7.2 14H4.8c-.75 0-1.125 0-1.388-.191a1 1 0 0 1-.221-.221C3 13.325 3 12.95 3 12.2m0-7v-.4c0-.75 0-1.125.191-1.388a1 1 0 0 1 .221-.221C3.675 3 4.05 3 4.8 3h2.4c.75 0 1.125 0 1.388.191a1 1 0 0 1 .221.221C9 3.675 9 4.05 9 4.8v.4c0 .75 0 1.125-.191 1.388a1 1 0 0 1-.221.221C8.325 7 7.95 7 7.2 7H4.8c-.75 0-1.125 0-1.388-.191a1 1 0 0 1-.221-.221C3 6.325 3 5.95 3 5.2" /></svg>