<svg id="playerError" xmlns="http://www.w3.org/2000/svg" fill="none" viewBox="0 0 24 24"><path stroke="currentColor" stroke-linecap="round" stroke-linejoin="round" stroke-width="1.5" d="M21 15.5v-4.1c0-2.25 0-3.375-.573-4.163a3 3 0 0 0-.664-.664C18.975 6 17.85 6 15.6 6H8.4c-2.25 0-3.375 0-4.163.573a3 3 0 0 0-.664.664C3 8.025 3 9.15 3 11.4v1.2c0 2.25 0 3.375.573 4.163.185.255.409.479.664.664C5.025 18 6.15 18 8.4 18H15m3 2.01V20m0-2 .234-3.75A.235.235 0 0 0 18 14v0a.235.235 0 0 0-.234.25zm-8.5-6.898v1.796c0 1.215 0 1.823.33 2.12a1 1 0 0 0 .358.209c.422.138.95-.163 2.005-.766l1.572-.898c1.07-.611 1.604-.917 1.697-1.354a1 1 0 0 0 0-.418c-.093-.437-.628-.743-1.697-1.354l-1.572-.898c-1.055-.603-1.582-.904-2.005-.766a1 1 0 0 0-.358.208c-.33.298-.33.906-.33 2.12" /></svg>