<svg id="playbackSpeed" xmlns="http://www.w3.org/2000/svg" fill="none" viewBox="0 0 24 24"><path stroke="currentColor" stroke-linecap="round" stroke-linejoin="round" stroke-width="1.5" d="M12 20a8 8 0 1 0 0-16m-2.5.398A8 8 0 0 0 6 6.708m3.5 12.894a8 8 0 0 1-3.5-2.31M4.582 15A8 8 0 0 1 4 12c0-1.06.207-2.074.582-3m9.17 5.36-.74.412c-1.575.874-2.362 1.311-2.99 1.1a1.5 1.5 0 0 1-.533-.313C9 15.113 9 14.212 9 12.41v-.822c0-1.801 0-2.702.489-3.148a1.5 1.5 0 0 1 .533-.314c.628-.21 1.415.227 2.99 1.101l.74.412c1.654.92 2.482 1.379 2.626 2.043a1.5 1.5 0 0 1 0 .634c-.144.664-.972 1.124-2.626 2.043" /></svg>