<svg id="playlistRemove" xmlns="http://www.w3.org/2000/svg" fill="none" viewBox="0 0 24 24"><path stroke="currentColor" stroke-linecap="round" stroke-linejoin="round" stroke-width="1.5" d="M14 16H6m0 0a2 2 0 0 0 2 2m-2-2a3 3 0 0 1-3-3V9.4c0-2.25 0-3.375.573-4.163a3 3 0 0 1 .664-.664C5.025 4 6.15 4 8.4 4h7.2c2.25 0 3.375 0 4.163.573.255.185.479.409.664.664C21 6.025 21 7.15 21 9.4V11M8 18h8a2 2 0 0 1-2 2h-4a2 2 0 0 1-2-2m8.5-4h5m-12-4.898v1.796c0 1.215 0 1.823.33 2.12a1 1 0 0 0 .358.209c.422.138.95-.163 2.005-.766l1.572-.898c1.07-.611 1.604-.917 1.697-1.354a1 1 0 0 0 0-.418c-.093-.437-.628-.743-1.697-1.354l-1.572-.898c-1.055-.603-1.582-.904-2.005-.766a1 1 0 0 0-.358.208c-.33.298-.33.906-.33 2.12" /></svg>