<svg id="playlist" xmlns="http://www.w3.org/2000/svg" fill="none" viewBox="0 0 24 24"><path stroke="currentColor" stroke-linecap="round" stroke-linejoin="round" stroke-width="1.5" d="M18 16a3 3 0 0 0 3-3V9.4c0-2.25 0-3.375-.573-4.163a3 3 0 0 0-.664-.664C18.975 4 17.85 4 15.6 4H8.4c-2.25 0-3.375 0-4.163.573a3 3 0 0 0-.664.664C3 6.025 3 7.15 3 9.4V13a3 3 0 0 0 3 3v0m12 0a2 2 0 0 1-2 2v0m2-2H6m0 0a2 2 0 0 0 2 2v0m0 0a2 2 0 0 0 2 2h4a2 2 0 0 0 2-2v0m-8 0h8M9.5 9.102v1.796c0 1.215 0 1.823.33 2.12a1 1 0 0 0 .358.209c.422.138.95-.163 2.005-.766l1.572-.898c1.07-.611 1.604-.917 1.697-1.354a1 1 0 0 0 0-.418c-.093-.437-.628-.743-1.697-1.354l-1.572-.898c-1.055-.603-1.582-.904-2.005-.766a1 1 0 0 0-.358.208c-.33.298-.33.906-.33 2.12" /></svg>