<svg id="polo" xmlns="http://www.w3.org/2000/svg" fill="none" viewBox="0 0 24 24"><path stroke="currentColor" stroke-linecap="round" stroke-linejoin="round" stroke-width="1.5" d="m17 5 .418.12c1.118.319 1.677.478 2.148.77a4 4 0 0 1 1.119 1.032c.328.447.532.99.94 2.08L22 10l-1.64 1.367c-.466.388-.7.582-.947.632a1 1 0 0 1-.667-.096c-.223-.119-.391-.37-.727-.875L18 11v10s-3.624 1-6 1-6-1-6-1V11l-.018.028c-.337.504-.505.756-.728.875a1 1 0 0 1-.667.096c-.248-.05-.48-.244-.946-.632L2 10l.374-.998c.409-1.09.613-1.633.941-2.08A4 4 0 0 1 4.434 5.89c.471-.292 1.03-.451 2.148-.77L7 5m10 0-2-2m2 2-.497 1.492c-.174.522-.261.783-.428.95a1 1 0 0 1-.566.283c-.234.033-.495-.054-1.017-.228L13 7M7 5l2-2M7 5l.497 1.492c.174.522.261.783.428.95a1 1 0 0 0 .566.283c.234.033.495-.054 1.017-.228L11 7M9 3h6M9 3l2 4m4-4-2 4m-2 0 1 1m0 0 1-1m-1 1v1m0 2v.01" /></svg>