<svg id="presentation" xmlns="http://www.w3.org/2000/svg" fill="none" viewBox="0 0 24 24"><path stroke="currentColor" stroke-linecap="round" stroke-linejoin="round" stroke-width="1.5" d="M10 17H6.888c-1.608 0-2.412 0-2.953-.419a2 2 0 0 1-.446-.481c-.376-.571-.314-1.373-.19-2.976l.317-4.138c.161-2.092.242-3.137.819-3.86a3 3 0 0 1 .655-.606C5.854 4 6.903 4 9 4h6c2.097 0 3.146 0 3.91.52q.373.254.655.607c.577.722.658 1.767.819 3.859l.318 4.138c.123 1.603.185 2.405-.191 2.976a2 2 0 0 1-.446.481c-.54.419-1.345.419-2.953.419H14m-4 0-2 4m2-4h4m0 0 2 4" /></svg>