<svg id="printer" xmlns="http://www.w3.org/2000/svg" fill="none" viewBox="0 0 24 24"><path stroke="currentColor" stroke-linecap="round" stroke-linejoin="round" stroke-width="1.5" d="M6 17H5a2 2 0 0 1-2-2V9a2 2 0 0 1 2-2h1m0 10 .36-2.164A1 1 0 0 1 7.348 14h9.306a1 1 0 0 1 .986.836L18 17M6 17l-.76 3.804A1 1 0 0 0 6.22 22h11.56a1 1 0 0 0 .98-1.196L18 17m0 0h1a2 2 0 0 0 2-2V9a2 2 0 0 0-2-2h-1M6 7l.41-4.1a1 1 0 0 1 .995-.9h6.935a2 2 0 0 1 1.19.393l1.458 1.08a2 2 0 0 1 .8 1.408L18 7M6 7h12m-1 3h1.5" /></svg>