<svg id="pumpkin" xmlns="http://www.w3.org/2000/svg" fill="none" viewBox="0 0 24 24"><path stroke="currentColor" stroke-linecap="round" stroke-linejoin="round" stroke-width="1.5" d="M12 19c5.523 2 10-1.477 10-7 0-5.013-3.689-6.693-8.5-5.465M12 19c-5.523 2-10-1.477-10-7 0-5.185 3.947-6.804 9-5.328M12 19c1.657 2.086 3-1.136 3-6.898S13.657 4.914 12 7m0 12c-1.657 2.086-3-1.136-3-6.898S10.343 4.914 12 7m0 12c3.866 2.086 7-1.136 7-6.898S15.866 4.914 12 7m0 12c-3.866 2.086-7-1.136-7-6.898S8.134 4.914 12 7m-1-.328q.493.145 1 .328m-1-.328.686-1.49a1.26 1.26 0 0 0-.137-1.283l-.393-.524a.788.788 0 0 1 1.189-1.03l.728.728c.58.58.832 1.41.673 2.213l-.246 1.25M12 7q.765-.277 1.5-.465" /></svg>
