<svg id="qrCode" xmlns="http://www.w3.org/2000/svg" fill="none" viewBox="0 0 24 24"><path stroke="currentColor" stroke-linecap="round" stroke-linejoin="round" stroke-width="1.5" d="M21 11.995v2.998M11.995 3v2.998m2.998 12.004v-2.998M20.99 21h-8.995m.01-9.005h2.998m-9.005 0H3m2.998-5.986.01-.01M17.992 17.99l.01.01m-9.005-5.996-.01-.01m3.008-2.988.01-.01m5.987 5.996.01.01m-.01-2.998-.01-.01m3.008 5.996-.01.01m-8.985-.01.01.01m-.01-3.008.01.01m5.987-8.994.01-.01M5.998 18.001l.01-.011M3 17.004v1.985a2 2 0 0 0 2 2h1.997a2 2 0 0 0 2-2v-1.985a2 2 0 0 0-2-2H5a2 2 0 0 0-2 2M14.993 5v1.996a2 2 0 0 0 2 2h1.997a2 2 0 0 0 2-2V5a2 2 0 0 0-2-2h-1.997a2 2 0 0 0-2 2M3 5v1.996a2 2 0 0 0 2 2h1.997a2 2 0 0 0 2-2V5a2 2 0 0 0-2-2H5a2 2 0 0 0-2 2" /></svg>