<svg id="rabbit" xmlns="http://www.w3.org/2000/svg" fill="none" viewBox="0 0 24 24"><path stroke="currentColor" stroke-linecap="round" stroke-linejoin="round" stroke-width="1.5" d="M12.049 18.564c-1.534 1.083-3.32 1.319-5.01-.369-.847-.845-.985-2.113-.705-3.041.463-1.538.823-1.303.823-2.923a4.87 4.87 0 0 1 3.425-4.651m1.467 10.984c1.534 1.083 3.299 1.319 4.99-.369.873-.872.824-2.087.509-3.041-.498-1.506-.628-1.321-.628-2.923a4.87 4.87 0 0 0-3.424-4.651m-1.447 10.984-.36-.36c-.232-.23-.348-.345-.332-.445a.2.2 0 0 1 .036-.087c.06-.082.223-.082.55-.082h.212c.327 0 .49 0 .55.082a.2.2 0 0 1 .035.087c.016.1-.1.215-.33.446zm-1.956-4.384v1.461m3.912-1.461v1.461m-2.934 3.897V21h1.956v-1.462M10.582 7.58a4.9 4.9 0 0 1 2.914-.001m-2.914 0C9.922 3.942 8.626 2 7.159 2s-1.292 3.198-.825 6.333m7.162-.753C14.459 3.407 15.472 2 16.939 2s1.15 3.079.609 6.333" /></svg>