<svg id="ram" xmlns="http://www.w3.org/2000/svg" fill="none" viewBox="0 0 24 24"><path stroke="currentColor" stroke-linecap="round" stroke-linejoin="round" stroke-width="1.5" d="M4.121 14.02a3 3 0 0 0 0 4.243l1.415 1.415a3 3 0 0 0 4.242 0l9.9-9.9a3 3 0 0 0 0-4.242L18.263 4.12a3 3 0 0 0-4.242 0v0m-9.9 9.9.707.707m-.707-.707 2.122-2.122m0 0 .828-.828a2 2 0 0 1 1.414-.586v0a2 2 0 0 0 2-2v0a2 2 0 0 1 .586-1.414l.828-.828m-5.656 5.656.707.708m4.95-6.364.707.707m-.708-.707 2.122-2.122m0 0 .707.707M6.95 16.85a1 1 0 0 0 1.414 0l2.121-2.121a1 1 0 0 0 0-1.414v0m2.829-2.829a1 1 0 0 0 1.414 0l2.121-2.121a1 1 0 0 0 0-1.414v0" /></svg>