<svg id="raspberry" xmlns="http://www.w3.org/2000/svg" fill="none" viewBox="0 0 24 24"><path stroke="currentColor" stroke-linecap="round" stroke-linejoin="round" stroke-width="1.5" d="M12.05 6.5C14.5 5 15 3.5 14.5 1c-2.5 1-3.152 2.534-2.45 5.5m0 0C11.402 4.687 10 3 8 4m6 10a2 2 0 1 1-4 0 2 2 0 0 1 4 0m-6 0a2 2 0 1 1-4 0 2 2 0 0 1 4 0m12 0a2 2 0 1 1-4 0 2 2 0 0 1 4 0m-10 3.464a2 2 0 1 1-2 3.464 2 2 0 0 1 2-3.464m6-10.392a2 2 0 1 1-2 3.464 2 2 0 0 1 2-3.464m-6 3.464a2 2 0 1 1-2-3.464 2 2 0 0 1 2 3.464m6 10.392a2 2 0 1 1-2-3.464 2 2 0 0 1 2 3.464" /></svg>