<svg id="razorBlade" xmlns="http://www.w3.org/2000/svg" fill="none" viewBox="0 0 24 24"><path stroke="currentColor" stroke-linecap="round" stroke-linejoin="round" stroke-width="1.5" d="m18.371 18.357 2.03-2.03a.69.69 0 0 0-.27-1.145v0a.69.69 0 0 1-.27-1.144l.521-.52a1.146 1.146 0 0 0 0-1.621l-8.279-8.28a1.146 1.146 0 0 0-1.62 0l-.52.521a.69.69 0 0 1-1.145-.27v0a.69.69 0 0 0-1.144-.27L3.598 7.674a.69.69 0 0 0 .27 1.144v0a.69.69 0 0 1 .27 1.144l-.52.52a1.146 1.146 0 0 0 0 1.621l8.279 8.28a1.146 1.146 0 0 0 1.62 0l.52-.521a.69.69 0 0 1 1.145.27v0a.69.69 0 0 0 1.144.27l2.038-2.038m-2.414-4.243a1 1 0 0 1-.707-.293l-1.536-1.535a1 1 0 0 1-.293-.707v0a1 1 0 0 0-1-1v0a1 1 0 0 1-.707-.293l-1.535-1.536a1 1 0 0 1-.293-.707v0c0-.89-1.077-1.337-1.707-.707l-.829.829c-.63.63-.184 1.707.707 1.707v0a1 1 0 0 1 .707.293l1.536 1.535a1 1 0 0 1 .293.707v0a1 1 0 0 0 1 1v0a1 1 0 0 1 .707.293l1.536 1.536a1 1 0 0 1 .292.707v0c0 .89 1.077 1.337 1.707.707l.829-.829c.63-.63.184-1.707-.707-1.707" /></svg>