<svg id="receipt" xmlns="http://www.w3.org/2000/svg" fill="none" viewBox="0 0 24 24"><path stroke="currentColor" stroke-linecap="round" stroke-linejoin="round" stroke-width="1.5" d="M8 7h4m-4 3h3m4-3h1m-1 3h1m-8 7h3m4 0h1M5 21V4.515a1 1 0 0 1 .419-.814l.4-.286a1 1 0 0 1 1.162 0l.238.17a1 1 0 0 0 1.162 0l.238-.17a1 1 0 0 1 1.162 0l.238.17a1 1 0 0 0 1.162 0l.238-.17a1 1 0 0 1 1.162 0l.238.17a1 1 0 0 0 1.162 0l.238-.17a1 1 0 0 1 1.162 0l.238.17a1 1 0 0 0 1.162 0l.238-.17a1 1 0 0 1 1.162 0l.4.286a1 1 0 0 1 .419.814V21l-.819-.585a1 1 0 0 0-1.162 0l-.238.17a1 1 0 0 1-1.162 0l-.238-.17a1 1 0 0 0-1.162 0l-.238.17a1 1 0 0 1-1.162 0l-.238-.17a1 1 0 0 0-1.162 0l-.238.17a1 1 0 0 1-1.162 0l-.238-.17a1 1 0 0 0-1.162 0l-.238.17a1 1 0 0 1-1.162 0l-.238-.17a1 1 0 0 0-1.162 0z" /></svg>