<svg id="repeatOne" xmlns="http://www.w3.org/2000/svg" fill="none" viewBox="0 0 24 24"><path stroke="currentColor" stroke-linecap="round" stroke-linejoin="round" stroke-width="1.5" d="M11.5 7H9c-1.87 0-2.804 0-3.5.402A3 3 0 0 0 4.402 8.5C4 9.196 4 10.13 4 12v0c0 1.87 0 2.804.402 3.5A3 3 0 0 0 5.5 16.598C6.196 17 7.13 17 9 17h2.5m0-10L9.25 5.25M11.5 7 9.25 8.75M14.5 7h.5c1.87 0 2.804 0 3.5.402A3 3 0 0 1 19.598 8.5C20 9.196 20 10.13 20 12v1.5c0 .464 0 .697-.026.892a3 3 0 0 1-2.582 2.582c-.195.026-.428.026-.892.026v0M14 15v4" /></svg>