<svg id="repeatDoubleArrows" xmlns="http://www.w3.org/2000/svg" fill="none" viewBox="0 0 24 24"><path stroke="currentColor" stroke-linecap="round" stroke-linejoin="round" stroke-width="1.5" d="M11.5 7H9c-1.87 0-2.804 0-3.5.402A3 3 0 0 0 4.402 8.5C4 9.196 4 10.13 4 12v0c0 1.87 0 2.804.402 3.5A3 3 0 0 0 5.5 16.598C6.196 17 7.13 17 9 17h.5m2-10L9.25 5.25M11.5 7 9.25 8.75M12.5 17H15c1.87 0 2.804 0 3.5-.402a3 3 0 0 0 1.098-1.098C20 14.804 20 13.87 20 12v0c0-1.87 0-2.804-.402-3.5A3 3 0 0 0 18.5 7.402C17.804 7 16.87 7 15 7h-.5m-2 10 2.25 1.75M12.5 17l2.25-1.75" /></svg>