<svg id="rewind" xmlns="http://www.w3.org/2000/svg" fill="none" viewBox="0 0 24 24"><g clip-path="url(#clip0_1556_82658)"><path stroke="currentColor" stroke-linecap="round" stroke-linejoin="round" stroke-width="1.5" d="m13.882 16 2.927 1.442c2.052 1.011 3.078 1.517 3.884 1.22a2 2 0 0 0 .684-.427C22 17.644 22 16.5 22 14.213V9.787c0-2.287 0-3.431-.623-4.022a2 2 0 0 0-.684-.426c-.806-.298-1.832.208-3.884 1.219L13.882 8m0 2.022v3.956c0 2.368 0 3.552-.643 4.146a2 2 0 0 1-.704.42c-.828.287-1.871-.274-3.957-1.395l-3.68-1.978c-2.287-1.23-3.431-1.845-3.628-2.743a2 2 0 0 1 0-.856c.197-.898 1.34-1.513 3.629-2.743l3.679-1.978c2.086-1.12 3.129-1.682 3.957-1.396a2 2 0 0 1 .704.42c.643.595.643 1.779.643 4.147" /></g><defs><clipPath id="clip0_1556_82658"><path fill="white" d="M0 0h24v24H0z" /></clipPath></defs></svg>