<svg id="ribCage" xmlns="http://www.w3.org/2000/svg" fill="none" viewBox="0 0 24 24"><path stroke="currentColor" stroke-linecap="round" stroke-linejoin="round" stroke-width="1.5" d="m12 5-2.402.6a3 3 0 0 0-2.119 1.962L7 9m5-4 2.402.6a3 3 0 0 1 2.119 1.962L17 9m-5-4v3m0-3V3m0 13 .924 1.386a3 3 0 0 0 2.99 1.295l.967-.161A2.702 2.702 0 0 0 19 15v0m-7 1-.924 1.386a3 3 0 0 1-2.99 1.295l-.967-.161A2.702 2.702 0 0 1 5 15v0m7 1v-2m0 2v5m0-13L7 9m5-1 5 1m-5-1v3M7 9l-1 3m11-3 1 3m-6-1-6 1m6-1 6 1m-6-1v3m-6-2-1 3m13-3 1 3m-7-1-7 1m7-1 7 1m2.5 3L20 8m0 0V6a1 1 0 0 0-1-1v0a1 1 0 0 0-1 1v.236c0 .468.265.896.683 1.106zM2.5 18 4 8m0 0V6a1 1 0 0 1 1-1v0a1 1 0 0 1 1 1v.236c0 .468-.265.896-.683 1.106z" /></svg>