<svg id="rightHand2FingersTap" xmlns="http://www.w3.org/2000/svg" fill="none" viewBox="0 0 24 24"><path stroke="currentColor" stroke-linecap="round" stroke-linejoin="round" stroke-width="1.5" d="M13 7v-.5A1.5 1.5 0 0 0 11.5 5v0A1.5 1.5 0 0 0 10 6.5V15l-2.726-1.363a1.76 1.76 0 0 0-2.164.475v0a1.76 1.76 0 0 0 .288 2.486l5.058 3.975a2 2 0 0 0 1.236.427h3.902a3 3 0 0 0 2.928-2.35l1.001-4.504a2 2 0 0 0-1.704-2.419l-.943-.117a1 1 0 0 1-.876-.993V7.545C16 6.692 15.308 6 14.455 6v0c-.585 0-1.12.33-1.382.854zm0 0v4M8 7v-.5a3.5 3.5 0 0 1 5.987-2.463Q14.238 4 14.5 4A3.5 3.5 0 0 1 18 7.5V8" /></svg>