<svg id="rightHandPinch" xmlns="http://www.w3.org/2000/svg" fill="none" viewBox="0 0 24 24"><path stroke="currentColor" stroke-linecap="round" stroke-linejoin="round" stroke-width="1.5" d="M4.064 7.793 3.42 9.687a7.96 7.96 0 0 0-.274 4.131m.918-6.025.776 2.376m-.776-2.376L2 9.203M5.647 5.15l1.505-1.318A7.96 7.96 0 0 1 10.865 2M5.647 5.15l2.493-.19m-2.493.19.516-2.447m6.294 12.118c1.236-4.12.096-6.542-1.182-8.386-.452-.652-.4-1.53.16-2.092v0c.58-.58 1.515-.635 2.112-.072C15.157 5.787 16.5 7.72 16.5 11l2.768.381a3 3 0 0 1 2.526 3.59l-1.002 4.762a2 2 0 0 1-1.957 1.588h-4.988c-.257 0-.513-.049-.75-.15-3.34-1.441-5.205-3.5-6.729-6.117-.25-.431-.17-.975.183-1.327v0c.619-.619 1.702-.302 2.257.374.779.949 1.995 1.382 3.65.72" /></svg>