<svg id="rightHandTrackPad" xmlns="http://www.w3.org/2000/svg" fill="none" viewBox="0 0 24 24"><path stroke="currentColor" stroke-linecap="round" stroke-linejoin="round" stroke-width="1.5" d="M4 19a2 2 0 0 1-2-2V5a2 2 0 0 1 2-2h16a2 2 0 0 1 2 2v12.5a1.5 1.5 0 0 1-1.5 1.5v0M10 15.5v-9A1.5 1.5 0 0 1 11.5 5v0A1.5 1.5 0 0 1 13 6.5v5l3.829.547a3 3 0 0 1 2.511 3.588l-1.006 4.777A2 2 0 0 1 16.377 22H11.74a2 2 0 0 1-1.302-.482l-5.114-4.383a1.804 1.804 0 0 1-.235-2.497v0a1.8 1.8 0 0 1 2.215-.486z" /></svg>