<svg id="rightHandGiveDeath" xmlns="http://www.w3.org/2000/svg" fill="none" viewBox="0 0 24 24"><path stroke="currentColor" stroke-linecap="round" stroke-linejoin="round" stroke-width="1.5" d="M16.5 15c1.15 0 2.3.294 2.999 1.107.368.427.054 1.027-.486 1.19l-5.974 1.791a8 8 0 0 1-5.877-.507l-2.61-1.305A1 1 0 0 1 4 16.382V13c0-.552.45-1.006.996-.92 1.15.182 2.366.676 3.176 1.524.223.234.52.394.842.4 1.27.028 3.878.22 4.719 1.546.295.466-.18.95-.733.95H9.333m1.167-9v-1m3 1v-1m-5.85 1C7.65 5 9.5 3 12 3s4.35 2 4.35 4.5v.9a1.6 1.6 0 0 1-1.6 1.6v1c0 .553-.328 1-.88 1s-.87-.447-.87-1a1 1 0 0 1-2 .037c-.019.535-.33.963-.87.963-.552 0-.88-.447-.88-1v-1a1.6 1.6 0 0 1-1.6-1.6z" /></svg>