<svg id="rocket" xmlns="http://www.w3.org/2000/svg" fill="none" viewBox="0 0 24 24"><g clip-path="url(#clip0_1556_83921)"><path stroke="currentColor" stroke-linecap="round" stroke-linejoin="round" stroke-width="1.5" d="m5.95 13.142-3.182.354.88-2.347a5.1 5.1 0 0 1 4.777-3.31v0m2.474 10.253-.353 3.182 2.346-.88a5.1 5.1 0 0 0 3.31-4.777v0M9.22 10.019c-1.24 2.189-1.703 4.17-1.856 5.245l1.414 1.414c1.074-.154 3.056-.617 5.245-1.856M9.22 10.019c2.188-3.862 5.551-6.021 10.165-5.362.659 4.614-1.5 7.977-5.362 10.165M9.22 10.019c.397 2.3 2.502 4.406 4.803 4.803m1.826-5.215a1 1 0 1 1-1.414-1.415 1 1 0 0 1 1.414 1.415" /></g><defs><clipPath id="clip0_1556_83921"><path fill="white" d="M0 0h24v24H0z" /></clipPath></defs></svg>