<svg id="rollingPin" xmlns="http://www.w3.org/2000/svg" fill="none" viewBox="0 0 24 24"><g clip-path="url(#clip0_1556_83099)"><path stroke="currentColor" stroke-linecap="round" stroke-linejoin="round" stroke-width="1.5" d="m8.464 5.636-3.12-3.121a2 2 0 0 0-2.83 0v0a2 2 0 0 0 0 2.828l3.122 3.121m2.828-2.828.708-.707a1 1 0 0 1 1.414 0l8.485 8.485a1 1 0 0 1 0 1.414l-.707.708m-9.9-9.9L5.636 8.464m12.728 7.072 3.121 3.12a2 2 0 0 1 0 2.83v0a2 2 0 0 1-2.828 0l-3.121-3.122m2.828-2.828-2.828 2.828m0 0-.708.707a1 1 0 0 1-1.414 0L4.93 10.586a1 1 0 0 1 0-1.414l.707-.708" /></g><defs><clipPath id="clip0_1556_83099"><path fill="white" d="M0 0h24v24H0z" /></clipPath></defs></svg>