<svg id="rollerSkate" xmlns="http://www.w3.org/2000/svg" fill="none" viewBox="0 0 24 24"><path stroke="currentColor" stroke-linecap="round" stroke-linejoin="round" stroke-width="1.5" d="m12 8.978 5.282 1.335c1.156.292 1.733.438 2.12.818q.19.187.324.417c.274.467.274 1.063.274 2.255V15H5.8c-.75 0-1.125 0-1.388-.191a1 1 0 0 1-.221-.221C4 14.325 4 13.95 4 13.2V6l8-2m0 4.978V7m0 1.978H9.571M12 3v1m0 0v3m0 0H9.571M20 19a2 2 0 1 1-4 0 2 2 0 0 1 4 0m-6 0a2 2 0 1 1-4 0 2 2 0 0 1 4 0m-6 0a2 2 0 1 1-4 0 2 2 0 0 1 4 0" /></svg>