<svg id="rollingReceiptReturn" xmlns="http://www.w3.org/2000/svg" fill="none" viewBox="0 0 24 24"><path stroke="currentColor" stroke-linecap="round" stroke-linejoin="round" stroke-width="1.5" d="M10 21h9.5a2 2 0 0 0 2-2v-1.496a1 1 0 0 0-.405-.804l-.35-.26a1 1 0 0 0-1.19 0l-.16.12a1 1 0 0 1-1.19 0l-.16-.12a1 1 0 0 0-1.19 0l-.16.12a1 1 0 0 1-1.19 0l-.16-.12a1 1 0 0 0-1.19 0l-.16.12a1 1 0 0 1-1.19 0l-.16-.12a1 1 0 0 0-1.19 0l-.16.12a1 1 0 0 1-1.19 0l-.16-.12a1 1 0 0 0-1.19 0l-.35.26a1 1 0 0 0-.405.804V19.5A1.5 1.5 0 0 1 6.5 21v0A1.5 1.5 0 0 1 5 19.5V16m13.5-2V4.504a1 1 0 0 0-.405-.804l-.35-.26a1 1 0 0 0-1.19 0l-.16.12a1 1 0 0 1-1.19 0l-.16-.12a1 1 0 0 0-1.19 0l-.16.12a1 1 0 0 1-1.19 0l-.16-.12a1 1 0 0 0-1.19 0l-.16.12a1 1 0 0 1-1.19 0l-.16-.12a1 1 0 0 0-1.19 0l-.16.12a1 1 0 0 1-1.19 0l-.16-.12a1 1 0 0 0-1.19 0l-.35.26A1 1 0 0 0 5 4.504V8m1.5 6L4 12m0 0 2.5-2M4 12h7a2 2 0 1 0 0-4h-1" /></svg>