<svg id="rotateRight" xmlns="http://www.w3.org/2000/svg" fill="none" viewBox="0 0 24 24"><path stroke="currentColor" stroke-linecap="round" stroke-linejoin="round" stroke-width="1.5" d="M10 4H8.4c-2.25 0-3.375 0-4.163.573a3 3 0 0 0-.664.664C3 6.025 3 7.15 3 9.4v.6m7-6L8 2.5M10 4 8 5.5M15.6 21h-2.2c-2.25 0-3.375 0-4.163-.573a3 3 0 0 1-.664-.664C8 18.975 8 17.85 8 15.6v-2.2c0-2.25 0-3.375.573-4.163a3 3 0 0 1 .664-.664C10.025 8 11.15 8 13.4 8h2.2c2.25 0 3.375 0 4.163.573q.384.28.664.664C21 10.025 21 11.15 21 13.4v2.2c0 2.25 0 3.375-.573 4.163q-.28.384-.664.664C18.975 21 17.85 21 15.6 21" /></svg>