<svg id="rotateLeft" xmlns="http://www.w3.org/2000/svg" fill="none" viewBox="0 0 24 24"><path stroke="currentColor" stroke-linecap="round" stroke-linejoin="round" stroke-width="1.5" d="M14 4h1.6c2.25 0 3.375 0 4.163.573.255.185.479.409.664.664C21 6.025 21 7.15 21 9.4v.6m-7-6 2-1.5M14 4l2 1.5M8.4 21h2.2c2.25 0 3.375 0 4.163-.573q.384-.28.664-.664C16 18.975 16 17.85 16 15.6v-2.2c0-2.25 0-3.375-.573-4.163a3 3 0 0 0-.664-.664C13.975 8 12.85 8 10.6 8H8.4c-2.25 0-3.375 0-4.163.573a3 3 0 0 0-.664.664C3 10.025 3 11.15 3 13.4v2.2c0 2.25 0 3.375.573 4.163q.28.384.664.664C5.025 21 6.15 21 8.4 21" /></svg>