<svg id="route" xmlns="http://www.w3.org/2000/svg" fill="none" viewBox="0 0 24 24"><path stroke="currentColor" stroke-linecap="round" stroke-linejoin="round" stroke-width="1.5" d="M12 17H9a3 3 0 0 1-3-3v0a3 3 0 0 1 3-3h8a2.5 2.5 0 0 0 2.5-2.5v0A2.5 2.5 0 0 0 17 6h-6M8 6a2 2 0 1 1-4 0 2 2 0 0 1 4 0m9.573 12.456c-.927.556-1.39.834-1.769.759a1 1 0 0 1-.544-.309C15 18.62 15 18.08 15 17v0c0-1.08 0-1.62.26-1.906a1 1 0 0 1 .544-.308c.38-.076.842.202 1.769.758v0c.88.528 1.32.792 1.436 1.15a1 1 0 0 1 0 .612c-.116.358-.556.622-1.436 1.15" /></svg>