<svg id="rulerAndPencil" xmlns="http://www.w3.org/2000/svg" fill="none" viewBox="0 0 24 24"><path stroke="currentColor" stroke-linecap="round" stroke-linejoin="round" stroke-width="1.5" d="M9.272 4.828 7.858 3.414a1 1 0 0 0-1.414 0L3.615 6.243a1 1 0 0 0 0 1.414L7.858 11.9m1.414-7.072L7.858 6.243m1.414-1.415 2.475 2.475m2.475 2.475-1.415 1.414m1.415-1.414 2.121 2.121m-2.121-2.12L12.1 7.656m7.072 7.07 1.414 1.415a1 1 0 0 1 0 1.414l-2.829 2.829a1 1 0 0 1-1.414 0L12.1 16.142m7.072-1.414-1.415 1.414m1.415-1.414-2.475-2.475m0 0-.707.707m.707-.707-.354-.354m-4.596-4.596-.707.707m.707-.707.353.354m4.243 4.243 2.829-2.829M12.1 7.657l2.829-2.829M7.858 11.9l-3.536 3.536a3 3 0 0 0-.848 1.697l-.377 2.64a1 1 0 0 0 1.13 1.131l2.64-.377a3 3 0 0 0 1.698-.848l3.535-3.536M7.858 11.9l4.242 4.242m2.83-11.314.707-.707a3 3 0 0 1 4.243 4.243l-.707.707M14.93 4.828l4.243 4.243" /></svg>