<svg id="running" xmlns="http://www.w3.org/2000/svg" fill="none" viewBox="0 0 24 24"><path stroke="currentColor" stroke-linecap="round" stroke-linejoin="round" stroke-width="1.5" d="M17.5 18h-1.633a2 2 0 0 1-1.46-.632L7.5 10m5.5 1.5 3-1m0 0-.375-1.313a1.338 1.338 0 0 0-2.233-.579v0a1.34 1.34 0 0 1-.946.392h-.032A1.414 1.414 0 0 1 11 7.586v-.221C11 6 9.427 5.235 8.354 6.079L6.438 7.584a2.82 2.82 0 0 0-.3 4.162l6.975 7.323a3 3 0 0 0 2.173.931h2.952C19.21 20 20 19.211 20 18.238v0c0-.412-.145-.811-.408-1.128l-2.23-2.675a3 3 0 0 1-.541-.972L16.5 12.5m-.5-2 .5 2m-2.5 1 2.5-1m-7 7.5H4m4-2H4m2-2H4" /></svg>