<svg id="ryokan" xmlns="http://www.w3.org/2000/svg" fill="none" viewBox="0 0 24 24"><path stroke="currentColor" stroke-linecap="round" stroke-linejoin="round" stroke-width="1.5" d="M6 20v-7m0 7h3m-3 0H5h13m0 0v-7m0 7h-3m3 0h1m-1-7H6m12 0h2l-1.9-2.28a2 2 0 0 0-1.537-.72H16M6 13H4l1.9-2.28A2 2 0 0 1 7.437 10H8m7 10v-2a2 2 0 0 0-2-2h-2a2 2 0 0 0-2 2v2m6 0h-3m-3 0h3m0 0v-3.5M8 10V7h3m-3 3h3M4.5 6S5 7 6 7c1.412 0 3.585-1.55 5.133-2.504a1.64 1.64 0 0 1 1.734 0C14.415 5.449 16.587 7 18 7c1 0 1.5-1 1.5-1M16 10V7h-3m3 3h-3m-2-3v3m0-3h2m-2 3h2m0-3v3" /></svg>