<svg id="sandBox" xmlns="http://www.w3.org/2000/svg" fill="none" viewBox="0 0 24 24"><path stroke="currentColor" stroke-linecap="round" stroke-linejoin="round" stroke-width="1.5" d="M4 17a1 1 0 0 1-1-1v0a1 1 0 0 1 1-1h1m-1 2v3a1 1 0 0 0 1 1h14a1 1 0 0 0 1-1v-3M4 17h16m0 0a1 1 0 0 0 1-1v0a1 1 0 0 0-1-1v0M5 15l3.16-3.16a3 3 0 0 1 3.922-.279l1.05.789M5 15h15m0 0-.764-1.528a2.764 2.764 0 0 0-3.708-1.236l-.559.28a1.75 1.75 0 0 1-1.836-.166v0m2.831-4.886 3.702.222a1.236 1.236 0 0 0 .692-2.304L15.57 2.618a1.236 1.236 0 0 0-1.65 1.752zm0 0-2.831 4.886" /></svg>