<svg id="satellite" xmlns="http://www.w3.org/2000/svg" fill="none" viewBox="0 0 24 24"><g clip-path="url(#clip0_1556_83877)"><path stroke="currentColor" stroke-linecap="round" stroke-linejoin="round" stroke-width="1.5" d="m4.914 6.358 1.414-1.414L8.45 7.065m-3.536-.707L3.5 7.772l2.121 2.121m-.707-3.535 2.122 2.121m2.12 2.122-1.413 1.414L5.62 9.893m3.536.707 1.414-1.414-2.12-2.121m.707 3.536 1.414 1.414M9.157 10.6 7.036 8.48m3.535 3.535L13.4 9.186a1 1 0 0 1 1.414 0v0m-4.243 2.829L8.45 14.136a1 1 0 0 0 0 1.414v0a1 1 0 0 0 1.414 0l2.121-2.121m0 0 2.829-2.828a1 1 0 0 0 0-1.415v0m-2.829 4.243 1.415 1.414m0 0 1.414-1.414 2.121 2.121m-3.535-.707-1.415 1.414 2.122 2.122m-.707-3.536 2.12 2.122m2.122 2.12 1.414-1.413-2.121-2.122m.707 3.536L16.228 20.5l-2.121-2.121m3.535.707-2.121-2.121m-.707-7.779 1.414-1.414m0 0c-1.768-1.768-.707-3.535-.707-3.535l.707-.708 2.121 2.122m-2.121 2.121c1.768 1.768 3.535.707 3.535.707l.708-.707-2.122-2.121m0 0 .707-.707m-3.535 12.02 1.414-1.414m-1.414 1.415-1.414 1.414M5.62 9.893 7.036 8.48m0 0L8.45 7.065" /></g><defs><clipPath id="clip0_1556_83877"><path fill="white" d="M0 0h24v24H0z" /></clipPath></defs></svg>
