<svg id="savings" xmlns="http://www.w3.org/2000/svg" fill="none" viewBox="0 0 24 24"><path stroke="currentColor" stroke-linecap="round" stroke-linejoin="round" stroke-width="1.5" d="M9.5 16H9a5 5 0 0 1-5-5v0m1 5.5v.5a2 2 0 0 0 2 2h1.25a.75.75 0 0 0 .75-.75v0a.75.75 0 0 1 .75-.75h2.5a.75.75 0 0 1 .75.75v0c0 .414.336.75.75.75H15a2 2 0 0 0 2-2v-.073c0-.262.15-.498.376-.63.665-.386 1.08-.811 1.464-1.495a.58.58 0 0 1 .502-.302v0c.916 0 1.658-.742 1.658-1.658v-1.684c0-.915-.742-1.658-1.658-1.658v0a.58.58 0 0 1-.502-.302c-.352-.626-.729-1.035-1.3-1.397-.32-.202-.54-.54-.54-.919V4c-.673 0-1.346.453-1.714 1.055-.289.47-.734.945-1.286.945H9a5 5 0 0 0-5 5v0m13 0a1 1 0 1 0-2 0M4 11H2a1 1 0 0 1-1-1v0a1 1 0 0 1 1-1v0" /></svg>