<svg id="scale" xmlns="http://www.w3.org/2000/svg" fill="none" viewBox="0 0 24 24"><path stroke="currentColor" stroke-linecap="round" stroke-linejoin="round" stroke-width="1.5" d="M9.5 11.5V9m0 2.5h5m-5 0c-.341 0-.512 0-.661.023a2 2 0 0 0-1.58 1.294c-.05.143-.084.31-.151.644l-.247 1.233c-.351 1.758-.527 2.638-.167 3.282a2 2 0 0 0 .446.544c.561.48 1.458.48 3.251.48h3.218c1.793 0 2.69 0 3.25-.48a2 2 0 0 0 .447-.544c.36-.644.184-1.523-.167-3.282l-.247-1.233c-.067-.334-.1-.502-.152-.644a2 2 0 0 0-1.579-1.294c-.15-.023-.32-.023-.661-.023M9.5 9h5m-5 0c-.93 0-1.395 0-1.776-.102a3 3 0 0 1-2.122-2.122C5.5 6.395 5.5 5.93 5.5 5h13c0 .93 0 1.395-.102 1.776a3 3 0 0 1-2.122 2.122C15.895 9 15.43 9 14.5 9m0 0v2.5M13 15a1 1 0 1 1-2 0 1 1 0 0 1 2 0" /></svg>