<svg id="sceptre" xmlns="http://www.w3.org/2000/svg" fill="none" viewBox="0 0 24 24"><g clip-path="url(#clip0_1556_84707)"><path stroke="currentColor" stroke-linecap="round" stroke-linejoin="round" stroke-width="1.5" d="M6.536 6.536a3 3 0 0 0 0 4.242l.188.188m-.188-4.43a3 3 0 0 1 4.242 0l.188.188m-4.43-.188L5 5M3 3l2 2m0 0 .707-.707M5 5l-.707.707m6.674 1.017c-.706 1.372-1.048 3.195-.189 4.054-.86-.86-2.682-.517-4.054.188m4.243-4.242c.256-.498.56-.937.872-1.25l1.06 6.011m-6.175-.518c-.498.256-.937.56-1.25.872l6.011 1.06m0 0 1.415-1.414M11.485 12.9l6.626 6.625m-5.212-8.04 6.626 6.626m-1.414 1.414 1.414-1.414m-1.414 1.414.364 1.093a1.69 1.69 0 0 0 1.42 1.148v0a1.694 1.694 0 0 0 1.871-1.87v0a1.69 1.69 0 0 0-1.148-1.42l-1.093-.365" /></g><defs><clipPath id="clip0_1556_84707"><path fill="white" d="M0 0h24v24H0z" /></clipPath></defs></svg>