<svg id="scienceTubeFilled" xmlns="http://www.w3.org/2000/svg" fill="none" viewBox="0 0 24 24"><path stroke="currentColor" stroke-linecap="round" stroke-linejoin="round" stroke-width="1.5" d="M8.5 12.036 3.575 7.11l-1.06-.354 4.242-4.242.354 1.06 8.46 8.46m-7.071 0H11m-2.5 0 1.25 1.25m5.821-1.25H14m1.571 0 .714.715M11 12.036l-1.25 1.25m1.25-1.25h3m-4.25 1.25 1.5 1.5m2.75-2.75-2.75 2.75m0 0 1.5 1.5m3.535-3.536-3.535 3.536m3.535-3.536 1.483 1.482m-5.018 2.054 1.482 1.482m3.536-3.536-3.536 3.536m3.536-3.536 1.5 1.5m-5.036 2.036 1.5 1.5m3.536-3.536.096.096a2.5 2.5 0 0 1 0 3.536v0a2.5 2.5 0 0 1-3.536 0l-.096-.096m3.536-3.536-3.536 3.536" /></svg>