<svg id="scissorsDash" xmlns="http://www.w3.org/2000/svg" fill="none" viewBox="0 0 24 24"><path stroke="currentColor" stroke-linecap="round" stroke-linejoin="round" stroke-width="1.5" d="m8.239 13.314-3.921 1.122a1.817 1.817 0 0 0-1.074 2.655c1.044 1.81 2.943.399 4.178-.315 1.334-.77.997-2.208.817-3.462m0 0 .896-.518m0 0 .364-1.359m-.364 1.359.416-.24m-1.312-1.87L4.318 9.564A1.817 1.817 0 0 1 3.244 6.91c1.044-1.81 2.943-.399 4.178.315 1.334.77.997 2.208.817 3.462m0 0 1.26.751m1.018.56L19 7c-.964-.528-1.9-1.136-3-.5l-5.5 3c-.682.394-.814 1.238-1 1.937m1.017.56L19 17c-.964.528-1.9 1.136-3 .5l-5.5-3c-.691-.4-.816-1.23-.95-1.944m.966-.558-.965.558M3 11.998h1m17 0h-1m-2 0h-1m-2 0h-1m-7 0H6" /></svg>