<svg id="screwDriver" xmlns="http://www.w3.org/2000/svg" fill="none" viewBox="0 0 24 24"><path stroke="currentColor" stroke-linecap="round" stroke-linejoin="round" stroke-width="1.5" d="m11.646 11.146 1.622-1.62a.707.707 0 0 1 1 0v0a.7.7 0 0 1 .207.5v.328a1.5 1.5 0 0 0 1.5 1.5v0a1.5 1.5 0 0 1 1.06.439l3.804 3.803a2 2 0 0 1 0 2.829l-1.414 1.414a2 2 0 0 1-2.829 0l-3.803-3.803a1.5 1.5 0 0 1-.44-1.061v0a1.5 1.5 0 0 0-1.5-1.5h-.328a.7.7 0 0 1-.5-.207v0a.707.707 0 0 1 0-1zm0 0-4.95-4.95m0 0H5.283l-2.12-2.12L4.574 2.66l2.122 2.121zm8.486 8.486 2.828 2.828" /></svg>