<svg id="seatBeltOpen" xmlns="http://www.w3.org/2000/svg" fill="none" viewBox="0 0 24 24"><g clip-path="url(#clip0_1556_83630)"><path stroke="currentColor" stroke-linecap="round" stroke-linejoin="round" stroke-width="1.5" d="m6.343 2.1 1.414 1.415M2.101 6.343l1.414 1.414m16.263 7.779 2.122 2.12m-2.122-2.12 1.414-1.415a1 1 0 0 0 0-1.414L18.364 9.88a1 1 0 0 0-1.414 0l-7.071 7.07a1 1 0 0 0 0 1.415l2.828 2.828a1 1 0 0 0 1.414 0l1.415-1.414m4.242-4.242-4.242 4.242m0 0 2.12 2.122m-3.535-4.95 2.829-2.829M3.515 7.757l.707.707a1 1 0 0 0 1.414 0l2.828-2.828a1 1 0 0 0 0-1.414l-.707-.707M3.515 7.757 2.1 9.172a1 1 0 0 0 0 1.414L3.114 11.6a1 1 0 0 0 .95.263l1.817-.455a1 1 0 0 1 .843.17l1.754 1.316a1 1 0 0 0 1.307-.093L12.8 9.785a1 1 0 0 0 .093-1.307l-1.315-1.754a1 1 0 0 1-.17-.843l.454-1.817a1 1 0 0 0-.263-.95l-1.014-1.013a1 1 0 0 0-1.414 0L7.757 3.515m2.122 4.95L8.464 9.878" /></g><defs><clipPath id="clip0_1556_83630"><path fill="white" d="M0 0h24v24H0z" /></clipPath></defs></svg>