<svg id="seatBeltClosed" xmlns="http://www.w3.org/2000/svg" fill="none" viewBox="0 0 24 24"><g clip-path="url(#clip0_1556_83626)"><path stroke="currentColor" stroke-linecap="round" stroke-linejoin="round" stroke-width="1.5" d="m6.343 2.1 4.243 4.243m-8.485 0 4.242 4.243m9.9 1.414 5.657 5.657M16.243 12l1.414-1.414a1 1 0 0 0 0-1.414l-1.414-1.415m0 4.243L12 16.243m0 0 5.657 5.657M12 16.243l-1.414 1.414a1 1 0 0 1-1.414 0l-1.415-1.414m-1.414-5.657.707.707a1 1 0 0 0 1.414 0l2.829-2.829a1 1 0 0 0 0-1.414l-.707-.707m-4.243 4.243L4.93 12a1 1 0 0 0 0 1.414l1.014 1.014a1 1 0 0 0 .95.263l1.85-.462a1 1 0 0 1 .797.138l.056.037m.99-8.06L12 4.928a1 1 0 0 1 1.414 0l1.014 1.014a1 1 0 0 1 .263.95l-.462 1.85a1 1 0 0 0 .138.797l.037.056m.424-.424-.424.424m0 0-4.808 4.808m0 0-.424.424" /></g><defs><clipPath id="clip0_1556_83626"><path fill="white" d="M0 0h24v24H0z" /></clipPath></defs></svg>