<svg id="selectorNode" xmlns="http://www.w3.org/2000/svg" fill="none" viewBox="0 0 24 24"><path stroke="currentColor" stroke-linecap="round" stroke-linejoin="round" stroke-width="1.5" d="M6 8a2 2 0 0 1-2-2v0a2 2 0 0 1 2-2v0a2 2 0 0 1 2 2v0M6 8a2 2 0 0 0 2-2v0M6 8v8m0 0a2 2 0 0 1 2 2v0m-2-2a2 2 0 0 0-2 2v0a2 2 0 0 0 2 2v0a2 2 0 0 0 2-2v0M8 6h8m0 0a2 2 0 0 1 2-2v0a2 2 0 0 1 2 2v0a2 2 0 0 1-2 2v0m-2-2a2 2 0 0 0 2 2v0m0 0v8m0 0a2 2 0 0 1 2 2v0a2 2 0 0 1-2 2v0a2 2 0 0 1-2-2v0m2-2a2 2 0 0 0-2 2v0m-8 0h8" /></svg>