<svg id="serverError" xmlns="http://www.w3.org/2000/svg" fill="none" viewBox="0 0 24 24"><path stroke="currentColor" stroke-linecap="round" stroke-linejoin="round" stroke-width="1.5" d="M7 17h1m3 0h6M4 17l.05-.547M4 17a3 3 0 0 0 3 3h10a3 3 0 0 0 3-3M4 17q0-.281.05-.547m0 0 .702-7.725A3 3 0 0 1 7.74 6H12M4.05 16.453A3 3 0 0 1 7 14h10a3 3 0 0 1 2.958 2.498M19.5 11l.458 5.498m0 0L20 17m-.042-.502Q20 16.742 20 17m-4-6.5a.5.5 0 0 0-.5.5v0m.5-.5a.5.5 0 0 1 .5.5v0m-.5-.5v.5m0 0v.5m0-.5h-.5m.5 0h.5m-.5.5a.5.5 0 0 0 .5-.5v0m-.5.5a.5.5 0 0 1-.5-.5v0m.5-3-.234-3.75A.235.235 0 0 1 16 4v0c.136 0 .243.114.234.25z" /></svg>