<svg id="serverSwitch" xmlns="http://www.w3.org/2000/svg" fill="none" viewBox="0 0 24 24"><path stroke="currentColor" stroke-linecap="round" stroke-linejoin="round" stroke-width="1.5" d="M7 16h1m3 0h6M4 16a3 3 0 0 0 3 3h10a3 3 0 0 0 3-3v0M4 16a3 3 0 0 1 3-3h10a3 3 0 0 1 3 3v0M4 16l.752-8.272A3 3 0 0 1 7.74 5H9.5M20 16l-.5-4M12 8h1.301a3 3 0 0 0 2.573-1.457L16.5 5.5M12 3h1.3a3 3 0 0 1 2.573 1.457L16.5 5.5M21 8h-1.301a3 3 0 0 1-2.573-1.457L16.5 5.5M21 8l-1-1m1 1-1 1m-3.5-3.5.626-1.044A3 3 0 0 1 19.698 3H21m0 0-1-1m1 1-1 1" /></svg>