<svg id="settings" xmlns="http://www.w3.org/2000/svg" fill="none" viewBox="0 0 24 24"><path stroke="currentColor" stroke-linecap="round" stroke-linejoin="round" stroke-width="1.5" d="M12 20h1a1 1 0 0 0 1-1v-.634c0-.424.271-.794.651-.982q.357-.176.685-.396c.352-.236.809-.286 1.176-.074l.55.318a1 1 0 0 0 1.366-.366l1-1.732a1 1 0 0 0-.366-1.366l-.55-.318c-.367-.212-.552-.631-.525-1.053a6 6 0 0 0 0-.793c-.027-.423.158-.842.525-1.054l.55-.318a1 1 0 0 0 .366-1.366l-1-1.732a1 1 0 0 0-1.366-.366l-.55.318c-.367.212-.824.162-1.176-.074a6 6 0 0 0-.685-.396c-.38-.187-.651-.558-.651-.982V5a1 1 0 0 0-1-1h-2a1 1 0 0 0-1 1v.634c0 .424-.271.795-.651.982q-.357.176-.685.396c-.352.236-.809.286-1.176.074l-.55-.318a1 1 0 0 0-1.366.366l-1 1.732a1 1 0 0 0 .366 1.366l.55.318c.367.212.552.631.525 1.054a6 6 0 0 0 0 .792c.027.423-.158.842-.525 1.054l-.55.318a1 1 0 0 0-.366 1.366l1 1.732a1 1 0 0 0 1.366.366l.55-.318c.367-.212.824-.162 1.176.074q.328.22.685.396c.38.188.651.558.651.982V19a1 1 0 0 0 1 1h.99M12 9.5A2.5 2.5 0 0 0 9.5 12v0a2.5 2.5 0 0 0 2.5 2.5v0a2.5 2.5 0 0 0 2.5-2.5v0A2.5 2.5 0 0 0 12 9.5" /></svg>