<svg id="shell" xmlns="http://www.w3.org/2000/svg" fill="none" viewBox="0 0 24 24"><path stroke="currentColor" stroke-linecap="round" stroke-linejoin="round" stroke-width="1.5" d="M14.767 9.321c1.893.48 5.585 2.205 5.206 5.272-.363 2.94-1.838 5.315-3.787 5.184m-1.42-10.456c.474 3.355-3.313 7.189-.473 9.585.663.56 1.3.832 1.893.871m-1.42-10.456c-.473-1.437-2.082-4.121-4.733-3.354m0 0c-.315-.48-1.325-1.342-2.84-.959m2.84.959c-2.188.633-4.17 3.149-4.718 5.75m10.871 8.06c-5.68.871-8.52-.87-10.412-4.225-.643-1.139-.74-2.498-.46-3.834m1.88-6.71c-.632-.639-2.083-1.63-2.84-.48-.758 1.151-.125 2.837.286 3.537m2.554-3.057c-.96.243-2.035 1.595-2.554 3.057m.675 3.653c-1.16-.71-1.18-2.233-.675-3.653" /></svg>