<svg id="shelf" xmlns="http://www.w3.org/2000/svg" fill="none" viewBox="0 0 24 24"><path stroke="currentColor" stroke-linecap="round" stroke-linejoin="round" stroke-width="1.5" d="M5 19v-2M5 5v4m14 10v-2m0-12v4m0 8V9m0 8h-3M5 17V9m0 8h3m11-8h-3M5 9h3m0 8v-3.5A1.5 1.5 0 0 1 9.5 12v0a1.5 1.5 0 0 1 1.5 1.5V17m-3 0h3m0 0h3m2 0v-2a1 1 0 0 0-1-1v0a1 1 0 0 0-1 1v2m2 0h-2M8 9v-.5c0-.465 0-.697.038-.89A2 2 0 0 1 9.61 6.038C9.803 6 10.035 6 10.5 6v0c.465 0 .697 0 .89.038a2 2 0 0 1 1.572 1.572c.038.193.038.425.038.89V9M8 9h5m0 0h3m0 0V7" /></svg>