<svg id="shieldAlert" xmlns="http://www.w3.org/2000/svg" fill="none" viewBox="0 0 24 24"><path stroke="currentColor" stroke-linecap="round" stroke-linejoin="round" stroke-width="1.5" d="M12 16.5a.5.5 0 0 0-.5.5v0m.5-.5a.5.5 0 0 1 .5.5v0m-.5-.5v.5m0 0v.5m0-.5h-.5m.5 0h.5m-.5.5a.5.5 0 0 0 .5-.5v0m-.5.5a.5.5 0 0 1-.5-.5v0m.5-3-.241-6.75A.24.24 0 0 1 12 7v0a.24.24 0 0 1 .241.25zm8-2V6.78a1.02 1.02 0 0 0-.755-.98c-1.483-.403-4.79-1.367-6.615-2.396a1.3 1.3 0 0 0-1.26 0C9.545 4.433 6.238 5.397 4.755 5.801A1.02 1.02 0 0 0 4 6.78V12c0 4.904 4.54 6.262 7.246 8.345a1.25 1.25 0 0 0 1.508 0C15.46 18.263 20 16.904 20 12" /></svg>