<svg id="ship" xmlns="http://www.w3.org/2000/svg" fill="none" viewBox="0 0 24 24"><path stroke="currentColor" stroke-linecap="round" stroke-linejoin="round" stroke-width="1.5" d="m4 17.5 2 .5.118.03a8 8 0 0 0 3.764 0L10 18v0l.118-.03A8 8 0 0 1 14 18v0l.118.03A8 8 0 0 0 18 18l2-.5m-14 3 .118.03a8 8 0 0 0 3.764 0L10 20.5v0l.118-.03A8 8 0 0 1 14 20.5v0l.118.03A8 8 0 0 0 18 20.5v0m-11-3-.84-1.12c-.83-1.106-1.245-1.66-1.13-2.12a1 1 0 0 1 .196-.393c.3-.367.991-.367 2.374-.367H12m5 4 .84-1.12c.83-1.106 1.245-1.66 1.13-2.12a1 1 0 0 0-.196-.393c-.3-.367-.991-.367-2.374-.367H12m0 0V11m0 0V2l7 9z" /></svg>