<svg id="shirtShortSleeves" xmlns="http://www.w3.org/2000/svg" fill="none" viewBox="0 0 24 24"><path stroke="currentColor" stroke-linecap="round" stroke-linejoin="round" stroke-width="1.5" d="M12 22c-2.375 0-6-1-6-1V11l-.018.028c-.337.504-.505.756-.728.875a1 1 0 0 1-.667.096c-.248-.05-.48-.244-.946-.632L2 10l.374-.998c.409-1.09.613-1.633.941-2.08A4 4 0 0 1 4.434 5.89c.471-.292 1.03-.451 2.148-.77L7 5m5 17c2.376 0 6-1 6-1V11l.018.028c.337.504.505.756.728.875a1 1 0 0 0 .667.096c.248-.05.48-.244.946-.632L22 10l-.374-.998c-.409-1.09-.613-1.633-.941-2.08a4 4 0 0 0-1.119-1.032c-.471-.292-1.03-.451-2.148-.77L17 5m-5 17V8m5-3-2-2m2 2-.497 1.492c-.174.522-.261.783-.428.95a1 1 0 0 1-.566.283c-.234.033-.495-.054-1.017-.228L13 7M7 5l2-2M7 5l.497 1.492c.174.522.261.783.428.95a1 1 0 0 0 .566.283c.234.033.495-.054 1.017-.228L11 7M9 3h6M9 3l2 4m4-4-2 4m-2 0 1 1m0 0 1-1" /></svg>