<svg id="shoppingBag" xmlns="http://www.w3.org/2000/svg" fill="none" viewBox="0 0 24 24"><path stroke="currentColor" stroke-linecap="round" stroke-linejoin="round" stroke-width="1.5" d="M8 6a4 4 0 1 1 8 0M8 6v3m0-3h-.4c-1.5 0-2.25 0-2.776.382a2 2 0 0 0-.442.442C4 7.35 4 8.1 4 9.6v6.8c0 1.5 0 2.25.382 2.776q.187.256.442.442C5.35 20 6.1 20 7.6 20h8.8c1.5 0 2.25 0 2.776-.382q.256-.187.442-.442C20 18.65 20 17.9 20 16.4V9.6c0-1.5 0-2.25-.382-2.776a2 2 0 0 0-.442-.442C18.65 6 17.9 6 16.4 6H16M8 6h8m0 0v3" /></svg>