<svg id="shower" xmlns="http://www.w3.org/2000/svg" fill="none" viewBox="0 0 24 24"><g clip-path="url(#clip0_1556_82488)"><path stroke="currentColor" stroke-linecap="round" stroke-linejoin="round" stroke-width="1.5" d="M16.828 6.172a4 4 0 0 0-5.656 0m5.656 0-5.656 5.656m5.656-5.656L17.5 5.5m-6.328 6.328a4 4 0 0 1 0-5.656m0 5.656-.672.672m.672-6.328L9.414 4.414C8.154 3.154 6 4.047 6 5.828V21m7-8 .5.5M15 11l.5.5M17 9l.5.5M19 7l.5.5M16 14l.5.5M18 12l.5.5M20 10l.5.5" /></g><defs><clipPath id="clip0_1556_82488"><path fill="white" d="M0 0h24v24H0z" /></clipPath></defs></svg>