<svg id="shrimp" xmlns="http://www.w3.org/2000/svg" fill="none" viewBox="0 0 24 24"><path stroke="currentColor" stroke-linecap="round" stroke-linejoin="round" stroke-width="1.5" d="M4 7.017h7m-7 0A4.983 4.983 0 0 0 8.983 12H11M4 7.017A3.017 3.017 0 0 1 7.017 4h2.035M11 7.017h2.508a6.47 6.47 0 0 1 4.575 1.886M11 7.017V12m0-4.983V7m0 13h2.508a6.49 6.49 0 0 0 5.997-4M11 20H9m2 0a4 4 0 0 0 4-4m-6 4v-4H5a4 4 0 0 0 4 4m2-8c1.1 0 2.098.445 2.821 1.164M8.5 9.5h.01M15 16c0-1.108-.45-2.111-1.179-2.836M15 16h4.505m-5.684-2.836 4.262-4.261m0 0A6.47 6.47 0 0 1 20 13.508c0 .883-.176 1.725-.495 2.492" /></svg>