<svg id="shuffle" xmlns="http://www.w3.org/2000/svg" fill="none" viewBox="0 0 24 24"><path stroke="currentColor" stroke-linecap="round" stroke-linejoin="round" stroke-width="1.5" d="M4 7h1.085c1.184 0 1.776 0 2.299.202a3 3 0 0 1 .76.43c.442.344.747.852 1.356 1.868v0M4 17h.943c1.324 0 1.986 0 2.56-.251q.286-.125.537-.304c.511-.364.852-.931 1.533-2.067l2.854-4.756c.681-1.136 1.022-1.703 1.533-2.067a3 3 0 0 1 .537-.304C15.07 7 15.733 7 17.057 7H20m0 10h-3.084c-1.185 0-1.777 0-2.3-.202a3 3 0 0 1-.76-.43c-.442-.344-.746-.852-1.356-1.868v0M20 17l-2.25-1.75M20 17l-2.25 1.75M20 7l-2.25-1.75M20 7l-2.25 1.75" /></svg>