<svg id="shutter" xmlns="http://www.w3.org/2000/svg" fill="none" viewBox="0 0 24 24"><path stroke="currentColor" stroke-linecap="round" stroke-linejoin="round" stroke-width="1.5" d="m8.5 14.02 3.498 2.022M8.5 14.021V10m0 4.02-4.48-2.586m7.978 4.608 3.502-2.01m-3.502 2.01L7.52 18.628m7.981-4.597V9.98m0 4.052v5.165M12 8l3.5 1.979M12 8l-3.5 2M12 8l4.48-2.628m-.98 4.607 4.48 2.587M8.5 10V4.804m0 0A8 8 0 0 1 12 4a7.96 7.96 0 0 1 4.48 1.372M8.5 4.804a8 8 0 0 0-4.48 6.63m11.48 7.762A8 8 0 0 1 12 20a7.96 7.96 0 0 1-4.48-1.372m7.98.568a8 8 0 0 0 4.48-6.63M7.52 18.628a7.99 7.99 0 0 1-3.5-7.194m12.46-6.062a7.99 7.99 0 0 1 3.5 7.194" /></svg>