<svg id="sidebarContentHeader" xmlns="http://www.w3.org/2000/svg" fill="none" viewBox="0 0 24 24"><path stroke="currentColor" stroke-linecap="round" stroke-linejoin="round" stroke-width="1.5" d="M9 4c-1.87 0-2.804 0-3.5.402A3 3 0 0 0 4.402 5.5C4 6.196 4 7.13 4 9v6c0 1.87 0 2.804.402 3.5A3 3 0 0 0 5.5 19.598C6.196 20 7.13 20 9 20v0M9 4h7c.93 0 1.395 0 1.776.102a3 3 0 0 1 2.122 2.122C20 6.605 20 7.07 20 8v0M9 4v4m0 12h5.6c2.25 0 3.375 0 4.163-.573q.384-.28.664-.664C20 17.975 20 16.85 20 14.6V8M9 20V8m0 0h11" /></svg>