<svg id="signs" xmlns="http://www.w3.org/2000/svg" fill="none" viewBox="0 0 24 24"><path stroke="currentColor" stroke-linecap="round" stroke-linejoin="round" stroke-width="1.5" d="M12 11.5H6.746c-.327 0-.49 0-.64.049a1 1 0 0 0-.146.06c-.14.072-.256.187-.487.418l-.2.2c-.53.53-.796.796-.846 1.117a1 1 0 0 0 0 .312c.05.321.316.586.846 1.117l.2.2c.23.23.346.346.487.418a1 1 0 0 0 .145.06c.15.049.314.049.64.049H12m0-4h4.2c.75 0 1.125 0 1.388.191a1 1 0 0 1 .221.221c.191.263.191.638.191 1.388v.4c0 .75 0 1.125-.191 1.388a1 1 0 0 1-.221.221c-.263.191-.638.191-1.388.191H12m0-4V9m0 0H7.8c-.75 0-1.125 0-1.388-.191a1 1 0 0 1-.221-.221C6 8.325 6 7.95 6 7.2v-.4c0-.75 0-1.125.191-1.388a1 1 0 0 1 .221-.221C6.675 5 7.05 5 7.8 5H12m0 4h5.254c.327 0 .49 0 .64-.049q.076-.024.146-.06c.14-.072.256-.187.487-.418l.2-.2c.53-.53.796-.796.846-1.117a1 1 0 0 0 0-.312c-.05-.321-.316-.586-.846-1.117l-.2-.2c-.23-.23-.346-.346-.487-.418a1 1 0 0 0-.145-.06C17.745 5 17.58 5 17.255 5H12m0 0V4m0 11.5V20" /></svg>