<svg id="sim" xmlns="http://www.w3.org/2000/svg" fill="none" viewBox="0 0 24 24"><path stroke="currentColor" stroke-linecap="round" stroke-linejoin="round" stroke-width="1.5" d="M12 11a1 1 0 0 0-1-1h-1a1 1 0 0 0-1 1v0m3 0h4m-4 0v2m4-2V9a1 1 0 0 0-1-1H6a1 1 0 0 0-1 1v2m11 0v2m-4 0a1 1 0 0 1-1 1h-1a1 1 0 0 1-1-1v0m3 0h4m0 0v2a1 1 0 0 1-1 1H6a1 1 0 0 1-1-1v-2m4-2H5m4 0v2m-4-2v2m4 0H5m5.01 5h6.747a3 3 0 0 0 2.122-.879l1.242-1.242A3 3 0 0 0 21 13.757V9a3 3 0 0 0-3-3H6a3 3 0 0 0-3 3v6a3 3 0 0 0 3 3h4" /></svg>