<svg id="simCutout1" xmlns="http://www.w3.org/2000/svg" fill="none" viewBox="0 0 24 24"><path stroke="currentColor" stroke-linecap="round" stroke-linejoin="round" stroke-width="1.5" d="M12 12v1a1 1 0 0 1-1 1h-1a1 1 0 0 1-1-1v-1m3 0h3m-3 0v-1a1 1 0 0 0-1-1h-1a1 1 0 0 0-1 1v1m6 0v2a1 1 0 0 1-1 1H7a1 1 0 0 1-1-1v-2m9 0v-2a1 1 0 0 0-1-1H7a1 1 0 0 0-1 1v2m3 0H6m4.01 7h8.162a2 2 0 0 0 1.414-.586l1.828-1.828A2 2 0 0 0 22 15.172V7a2 2 0 0 0-2-2H4a2 2 0 0 0-2 2v10a2 2 0 0 0 2 2h6m.01-2h5.076a1 1 0 0 0 .707-.293l1.914-1.914a1 1 0 0 0 .293-.707V8a1 1 0 0 0-1-1H4v10h6" /></svg>