<svg id="simPassword" xmlns="http://www.w3.org/2000/svg" fill="none" viewBox="0 0 24 24"><path stroke="currentColor" stroke-linecap="round" stroke-linejoin="round" stroke-width="1.5" d="M7 12v-1.5M7 12v1.5M7 12l1.299-.75M7 12l-1.299.75M7 12l-1.299-.75M7 12l1.299.75M12 12v-1.5m0 1.5v1.5m0-1.5 1.299-.75M12 12l-1.299.75M12 12l-1.299-.75M12 12l1.299.75M17 12v-1.5m0 1.5v1.5m0-1.5 1.299-.75M17 12l-1.299.75M17 12l-1.299-.75M17 12l1.299.75M10.01 18h6.747a3 3 0 0 0 2.122-.879l1.242-1.242A3 3 0 0 0 21 13.757V9a3 3 0 0 0-3-3H6a3 3 0 0 0-3 3v6a3 3 0 0 0 3 3h4" /></svg>