<svg id="simProfiles" xmlns="http://www.w3.org/2000/svg" fill="none" viewBox="0 0 24 24"><path stroke="currentColor" stroke-linecap="round" stroke-linejoin="round" stroke-width="1.5" d="M10.01 18h6.747a3 3 0 0 0 2.122-.879l1.242-1.242A3 3 0 0 0 21 13.757V9a3 3 0 0 0-3-3H6a3 3 0 0 0-3 3v6a3 3 0 0 0 3 3h4m-2-7V9a1 1 0 0 0-1-1H6a1 1 0 0 0-1 1v1a1 1 0 0 0 1 1zm2 0h2a1 1 0 0 0 1-1V9a1 1 0 0 0-1-1h-1a1 1 0 0 0-1 1zm-2 2H6a1 1 0 0 0-1 1v1a1 1 0 0 0 1 1h1a1 1 0 0 0 1-1zm2 0h2a1 1 0 0 1 1 1v1a1 1 0 0 1-1 1h-1a1 1 0 0 1-1-1z" /></svg>