<svg id="skull" xmlns="http://www.w3.org/2000/svg" fill="none" viewBox="0 0 24 24"><path stroke="currentColor" stroke-linecap="round" stroke-linejoin="round" stroke-width="1.5" d="M11 15v.5m2-.5v.5M12 3a8 8 0 0 0-8 8v2.4c0 .723.295 1.376.77 1.847.698.691 1.047 1.037 1.12 1.179.04.08.033.06.06.145.05.152.05.362.05.784V18.5a1.5 1.5 0 0 0 3 0v1a1.5 1.5 0 0 0 3 0 1.5 1.5 0 0 0 3 0v-1a1.5 1.5 0 0 0 3 0v-1.145c0-.422 0-.632.05-.784.027-.085.02-.066.06-.145.073-.142.422-.488 1.12-1.179A2.6 2.6 0 0 0 20 13.4V11a8 8 0 0 0-8-8m-1 8a2 2 0 1 1-4 0 2 2 0 0 1 4 0m6 0a2 2 0 1 1-4 0 2 2 0 0 1 4 0" /></svg>