<svg id="smartWatch" xmlns="http://www.w3.org/2000/svg" fill="none" viewBox="0 0 24 24"><path stroke="currentColor" stroke-linecap="round" stroke-linejoin="round" stroke-width="1.5" d="M5.636 9.879 4.08 8.323c-.53-.53-.795-.795-.846-1.116a1 1 0 0 1 0-.313c.051-.321.316-.586.846-1.117L5.777 4.08c.53-.53.796-.795 1.117-.846a1 1 0 0 1 .313 0c.32.051.586.316 1.116.846L9.88 5.636M5.636 9.879a2 2 0 0 0 0 2.828l5.657 5.657a2 2 0 0 0 2.828 0v0M5.636 9.879 9.88 5.636m0 0a2 2 0 0 1 2.828 0l5.657 5.657a2 2 0 0 1 0 2.828v0m-4.243 4.243 1.556 1.556c.53.53.795.795 1.116.846q.157.024.313 0c.321-.051.586-.316 1.117-.846l1.697-1.697c.53-.53.795-.796.846-1.117q.024-.156 0-.313c-.05-.32-.316-.586-.846-1.116l-1.556-1.556m-4.243 4.243 4.243-4.243m-9.9-4.242-.353 2.475m1.768 1.767.707-4.95" /></svg>