<svg id="smashBurger" xmlns="http://www.w3.org/2000/svg" fill="none" viewBox="0 0 24 24"><path stroke="currentColor" stroke-linecap="round" stroke-linejoin="round" stroke-width="1.5" d="m4 14.5 2-.5.118-.03a8 8 0 0 1 3.764 0L10 14l.118.03a8 8 0 0 0 4-.06A8 8 0 0 1 18 14l2 .5M13 4h-2a7 7 0 0 0-6.771 5.22c-.157.597-.236.896-.061 1.237.048.093.144.217.222.288.285.255.66.255 1.41.255h12.4c.75 0 1.125 0 1.41-.255.078-.07.174-.195.222-.288.175-.34.096-.64-.06-1.238A7 7 0 0 0 13 4M7 20h10a3 3 0 0 0 3-3H4a3 3 0 0 0 3 3" /></svg>