<svg id="smoothie" xmlns="http://www.w3.org/2000/svg" fill="none" viewBox="0 0 24 24"><path stroke="currentColor" stroke-linecap="round" stroke-linejoin="round" stroke-width="1.5" d="M5 11h1.5M19 11h-1.5m-11 0a4 4 0 0 1 4-4H12m-5.5 4 .6 4m-.6-4H9m8.5 0a4 4 0 0 0-4-4H12m5.5 4-.6 4m.6-4H14m-6.9 4 .44 2.934c.194 1.294.291 1.94.676 2.381q.189.216.43.37C9.137 21 9.791 21 11.1 21h1.8c1.308 0 1.962 0 2.455-.315q.24-.154.43-.37c.384-.44.48-1.087.675-2.381L16.9 15m-9.8 0 1.32-.275c.479-.1.717-.15.96-.16q.12-.006.241-.001c.242.009.481.056.96.152l2.838.568c.479.095.718.143.96.152q.12.005.242 0c.242-.011.48-.061.958-.16L16.9 15M12 7l.28-1.867c.131-.873.197-1.31.47-1.55q.134-.118.298-.182c.34-.132.758.01 1.593.295L17 4.5M12 7l-1.19 7.762" /></svg>