<svg id="snowFlake1" xmlns="http://www.w3.org/2000/svg" fill="none" viewBox="0 0 24 24"><path stroke="currentColor" stroke-linecap="round" stroke-linejoin="round" stroke-width="1.5" d="M12 12V7m0 5v5m0-5 4.33-2.5M12 12l-4.33 2.5M12 12 7.67 9.5M12 12l4.33 2.5M12 7 9 4m3 3 3-3m-3 3V3m0 14-3 3m3-3 3 3m-3-3v4m4.33-11.5 1.098-4.098M16.33 9.5l4.098 1.098M16.33 9.5l3.464-2m-12.124 7-4.098-1.098M7.67 14.5l-1.098 4.098M7.67 14.5l-3.464 2m3.464-7-4.098 1.098M7.67 9.5 6.572 5.402M7.67 9.5l-3.464-2m12.124 7 1.098 4.098M16.33 14.5l4.098-1.098M16.33 14.5l3.464 2" /></svg>