<svg id="snowFlake" xmlns="http://www.w3.org/2000/svg" fill="none" viewBox="0 0 24 24"><path stroke="currentColor" stroke-linecap="round" stroke-linejoin="round" stroke-width="1.5" d="M12 6 9 4m3 2 3-2m-3 2V4m0 2v3m0 9-3 2m3-2 3 2m-3-2v2m0-2v-3m5.196-6 .232-3.598M17.196 9l3.232 1.598M17.196 9l1.732-1m-1.732 1-2.598 1.5M6.804 15l-3.232-1.598M6.804 15l-.232 3.598M6.804 15l-1.732 1m1.732-1 2.598-1.5M6.804 9l-3.232 1.598M6.804 9l-.232-3.598M6.804 9 5.072 8m1.732 1 2.598 1.5m7.794 4.5.232 3.598M17.196 15l3.232-1.598M17.196 15l1.732 1m-1.732-1-2.598-1.5M12 9l-2.598 1.5M12 9l2.598 1.5m0 0v3m0 0L12 15m0 0-2.598-1.5m0 0v-3" /></svg>