<svg id="snowWarning" xmlns="http://www.w3.org/2000/svg" fill="none" viewBox="0 0 24 24"><path stroke="currentColor" stroke-linecap="round" stroke-linejoin="round" stroke-width="1.5" d="M12 13.278v-2.16m0 2.16v2.16m0-2.16 1.871-1.08M12 13.278l-1.871 1.08M12 13.278l-1.871-1.08M12 13.278l1.871 1.08M12 11.118l-.864-1.297M12 11.117l.864-1.296M12 15.438l-.864 1.297M12 15.438l.864 1.297m1.007-4.537.69-1.397m-.69 1.396 1.555.1m-5.297 2.061-1.555-.1m1.555.1-.69 1.397m.69-3.558-1.555.1m1.555-.1-.69-1.396m4.432 3.557.69 1.397m-.69-1.397 1.555-.1M8.514 7.809l-3.16 5.619c-1.316 2.337-1.973 3.506-1.663 4.44.098.294.256.564.464.793.661.728 2.002.728 4.684.728h6.322c2.682 0 4.023 0 4.684-.728.208-.23.366-.5.464-.794.31-.933-.347-2.102-1.662-4.44l-3.16-5.618c-1.361-2.418-2.041-3.627-3.02-3.838a2.2 2.2 0 0 0-.934 0c-.979.21-1.659 1.42-3.02 3.838" /></svg>