<svg id="sofa" xmlns="http://www.w3.org/2000/svg" fill="none" viewBox="0 0 24 24"><path stroke="currentColor" stroke-linecap="round" stroke-linejoin="round" stroke-width="1.5" d="M6 18H4.5A1.5 1.5 0 0 1 3 16.5v0A1.5 1.5 0 0 1 4.5 15h15a1.5 1.5 0 0 1 1.5 1.5v0a1.5 1.5 0 0 1-1.5 1.5H18M6 18v1.72c0 .154.126.28.28.28v0a.28.28 0 0 0 .273-.213L7 18m-1 0h1m11 0v1.72a.28.28 0 0 1-.28.28v0a.28.28 0 0 1-.273-.213L17 18m1 0h-1m4-5v-.259a2 2 0 0 0-1.725-1.98l-14-1.945A2 2 0 0 0 3 10.797V13m4 5h10m-8.882-4.5a1.5 1.5 0 1 1-3 0 1.5 1.5 0 0 1 3 0" /></svg>