<svg id="softball" xmlns="http://www.w3.org/2000/svg" fill="none" viewBox="0 0 24 24"><path stroke="currentColor" stroke-linecap="round" stroke-linejoin="round" stroke-width="1.5" d="M12.445 4.012a7.98 7.98 0 0 0-6.102 2.331 7.98 7.98 0 0 0-2.33 6.102m8.432-8.433a7.97 7.97 0 0 1 5.212 2.331 7.97 7.97 0 0 1 2.33 5.212m-7.542-7.543c.014.49-.023.804-.091 1.27m-8.342 7.163a7.97 7.97 0 0 0 2.331 5.212 7.97 7.97 0 0 0 5.212 2.33m-7.543-7.542q.663.018 1.298-.064m14.678-.826a7.98 7.98 0 0 1-2.331 6.102 7.98 7.98 0 0 1-6.102 2.33m8.433-8.432q-.662-.018-1.297.064m-7.136 8.369a8.4 8.4 0 0 1 .064-1.298m.002-10.84q.174-.36.314-.735m4.216 5.264q.357-.174.734-.315m-9.038-.44q-.402.195-.826.347m5.355 4.182a8 8 0 0 0-.314.735m1.544-2.575q.33-.372.703-.702m-4.623-3.218q.373-.33.703-.702" /></svg>