<svg id="sparkles" xmlns="http://www.w3.org/2000/svg" fill="none" viewBox="0 0 24 24"><path stroke="currentColor" stroke-linecap="round" stroke-linejoin="round" stroke-width="1.5" d="M18 5v2m0-2h-2m2 0V3m0 2h2M9 15l.52-.047a6 6 0 0 0 5.433-5.432L15 9l.047.52a6 6 0 0 0 5.433 5.433L21 15l-.52.047a6 6 0 0 0-5.433 5.433L15 21l-.047-.52a6 6 0 0 0-5.432-5.433zm-2.067-4.471A4.08 4.08 0 0 0 3.47 7.067c-.078-.01-.078-.123 0-.134A4.08 4.08 0 0 0 6.933 3.47c.01-.078.123-.078.134 0a4.08 4.08 0 0 0 3.462 3.462c.078.01.078.123 0 .134a4.08 4.08 0 0 0-3.462 3.462c-.01.078-.123.078-.134 0" /></svg>