<svg id="spatula" xmlns="http://www.w3.org/2000/svg" fill="none" viewBox="0 0 24 24"><g clip-path="url(#clip0_1556_83087)"><path stroke="currentColor" stroke-linecap="round" stroke-linejoin="round" stroke-width="1.5" d="m7 11-1-1m3.5-.5L8 8m3-1-1-1m9.5 13.5-1-1m2.551 2.531a2.167 2.167 0 0 0-.042-3.022l-2.784-2.784a17 17 0 0 1-.722-.745 8 8 0 0 1-1.808-3.567c-.054-.25-.094-.507-.174-1.023v0a17 17 0 0 0-.19-1.112 8 8 0 0 0-2.054-3.803c-.193-.2-.404-.39-.826-.77l-1.203-1.082c-.51-.46-.766-.69-1.063-.734a1 1 0 0 0-.35.01c-.293.06-.536.302-1.022.788L3.187 8.813c-.486.486-.729.729-.789 1.023a1 1 0 0 0-.009.349c.045.297.274.552.734 1.063l1.107 1.23c.356.396.534.593.72.774a8 8 0 0 0 3.86 2.088c.253.056.517.096 1.043.177v0c.495.076.742.114.98.166a8 8 0 0 1 3.683 1.896c.18.164.355.343.704.702l2.703 2.774c.86.883 2.281.872 3.127-.023" /></g><defs><clipPath id="clip0_1556_83087"><path fill="white" d="M0 0h24v24H0z" /></clipPath></defs></svg>