<svg id="speaker" xmlns="http://www.w3.org/2000/svg" fill="none" viewBox="0 0 24 24"><path stroke="currentColor" stroke-linecap="round" stroke-linejoin="round" stroke-width="1.5" d="M12.031 21h.76c2.367 0 3.55 0 4.354-.613a3 3 0 0 0 .668-.705c.567-.838.502-2.02.37-4.381l-.4-7.2c-.118-2.136-.178-3.204-.754-3.944a3 3 0 0 0-.658-.623C15.601 3 14.531 3 12.391 3h-.783C9.47 3 8.4 3 7.628 3.534a3 3 0 0 0-.657.623c-.576.74-.636 1.808-.754 3.943l-.4 7.2c-.132 2.363-.197 3.544.37 4.382a3 3 0 0 0 .667.705C7.66 21 8.843 21 11.209 21h.76M13.5 8a1.5 1.5 0 1 1-3 0 1.5 1.5 0 0 1 3 0m1.5 7.5a3 3 0 1 1-6 0 3 3 0 0 1 6 0" /></svg>