<svg id="spookyPumkin" xmlns="http://www.w3.org/2000/svg" fill="none" viewBox="0 0 24 24"><path stroke="currentColor" stroke-linecap="round" stroke-linejoin="round" stroke-width="1.5" d="M11 6.672C5.947 5.196 2 6.815 2 12c0 5.523 4.477 9 10 7 5.523 2 10-1.477 10-7 0-5.013-3.689-6.693-8.5-5.465m-2.5.137q.493.145 1 .328.765-.277 1.5-.465m-2.5.137.686-1.49a1.26 1.26 0 0 0-.137-1.283l-.393-.524a.788.788 0 0 1 .382-1.22v0a.79.79 0 0 1 .807.19l.728.728c.58.58.832 1.41.673 2.213l-.246 1.25M7 13.5h10c0 1.5-.5 2.5-1.5 3.5l-.5-2c-2.5-1-3.5-1-6 0l-.5 2c-1-1-1.5-2-1.5-3.5M7 9l3.5 2H7zm10 0-3.5 2H17z" /></svg>