<svg id="squeegee" xmlns="http://www.w3.org/2000/svg" fill="none" viewBox="0 0 24 24"><path stroke="currentColor" stroke-linecap="round" stroke-linejoin="round" stroke-width="1.5" d="M11 17h4m-4 0 6-6m-6 6a2.83 2.83 0 0 1-4 0L17.05 7a2.83 2.83 0 0 1-.025 3.975L17 11m-2 6 2-2m-2 2 3.5 3.5a1.414 1.414 0 1 0 2-2L17 15m0 0v-4M5.5 12.5l-3-3m11-5L11 2M6 3h1m0 0v1m0-1V2m0 1h1m-.764 6.764c.332.332 1.196.332 1.528 0v0c.332-.332.332-1.196 0-1.528v0c-.332-.332-1.196-.332-1.528 0v0c-.332.332-.332 1.196 0 1.528" /></svg>