<svg id="starDisabled" xmlns="http://www.w3.org/2000/svg" fill="none" viewBox="0 0 24 24"><path stroke="currentColor" stroke-linecap="round" stroke-linejoin="round" stroke-width="1.5" d="M4.53 7.719c-1.613.234-2.257 2.216-1.09 3.354l2.1 2.047a2 2 0 0 1 .576 1.77l-.484 2.824c-.28 1.634 1.434 2.88 2.902 2.108l2.535-1.333a2 2 0 0 1 1.862 0l3.037 1.597M9.355 5.359l.882-1.786v0c.721-1.462 2.805-1.462 3.526 0l1.298 2.63a2 2 0 0 0 1.506 1.094l2.835.412c1.64.238 2.296 2.254 1.109 3.411l-2.091 2.04a1.9 1.9 0 0 0-.545 1.677v0M5 5l15 15" /></svg>