<svg id="starHalf" xmlns="http://www.w3.org/2000/svg" fill="none" viewBox="0 0 24 24"><path stroke="currentColor" stroke-linecap="round" stroke-linejoin="round" stroke-width="1.5" d="m13.763 18.927 1.704.895c1.467.772 3.182-.474 2.901-2.108l-.484-2.824a2 2 0 0 1 .575-1.77l2.052-2c1.187-1.157.532-3.173-1.109-3.41l-2.835-.413a2 2 0 0 1-1.506-1.094l-.857-1.737M7.433 7.297l-2.835.412c-1.64.238-2.296 2.254-1.109 3.412l2.052 2a2 2 0 0 1 .575 1.77l-.484 2.823c-.28 1.634 1.434 2.88 2.902 2.108l2.397-1.26A2 2 0 0 0 12 16.792V4.286c0-1.058-1.428-1.392-1.897-.443L8.94 6.203a2 2 0 0 1-1.506 1.094" /></svg>