<svg id="steeringWheel" xmlns="http://www.w3.org/2000/svg" fill="none" viewBox="0 0 24 24"><path stroke="currentColor" stroke-linecap="round" stroke-linejoin="round" stroke-width="1.5" d="M11.945 21a9 9 0 1 1 .11 0m6.822-8c.027 0 .049.024.045.05a7.01 7.01 0 0 1-4.799 5.622c-.58.185-1.123-.288-1.123-.896V16a3 3 0 0 1 3-3zM11 16v1.776c0 .608-.543 1.08-1.123.896a7.01 7.01 0 0 1-4.799-5.621.045.045 0 0 1 .045-.051v0H8a3 3 0 0 1 3 3m1.728-6.818 4.647 1.162c.706.176 1.346-.44 1.058-1.108a7.002 7.002 0 0 0-12.866 0c-.288.669.352 1.284 1.058 1.108l4.647-1.162a3 3 0 0 1 1.456 0" /></svg>