<svg id="stopSign" xmlns="http://www.w3.org/2000/svg" fill="none" viewBox="0 0 24 24"><path fill="currentColor" d="M3 10.451h-.75zm.143-1.871.713.231zm.176-.424.668.34zm1.222 9.113.53-.53zm-1.222-1.425.668-.34zM3 13.55h.75zm.143 1.872.713-.232zM10.451 21v-.75zm-1.871-.143.231-.713zm-1.85-1.398-.53.53zm1.425 1.223.34-.669zm9.113-1.223-.53-.53zm-1.425 1.223-.34-.669zM13.55 21v.75zm1.872-.143-.232-.713zM21 13.549h-.75zm-.143 1.872-.713-.232zm-1.398 1.848.53.53zm1.223-1.425-.669-.34zm-1.223-9.113-.53.53zm1.223 1.425-.669.34zM21 10.45h.75zm-.143-1.871-.713.231zM13.549 3v-.75zm1.872.143-.232.713zm1.848 1.398.53-.53zm-1.425-1.222-.34.668zM10.451 3v.75zm-1.871.143.231.713zm-.424.176.34.668zM9 9.25a.75.75 0 0 0 0 1.5zm2 1.5a.75.75 0 0 0 0-1.5zM9.25 14a.75.75 0 0 0 1.5 0zM17 10v-.75a.75.75 0 0 0-.75.75zm-.75 4a.75.75 0 0 0 1.5 0zM10.451 3.75h3.098v-1.5h-3.098zm6.287 1.321 2.19 2.19 1.062-1.06-2.191-2.19zm3.512 5.38v3.098h1.5v-3.098zm-1.321 6.287-2.19 2.19 1.06 1.062 2.19-2.191zm-5.38 3.512h-3.098v1.5h3.098zm-6.287-1.321-2.19-2.19-1.062 1.06 2.191 2.19zm-3.512-5.38v-3.098h-1.5v3.098zm1.321-6.287 2.19-2.19-1.06-1.062-2.19 2.191zM3.75 10.45c0-1.002.009-1.339.106-1.64L2.43 8.348c-.189.58-.18 1.197-.18 2.103zm.26-4.25c-.64.64-1.083 1.071-1.36 1.614l1.337.681c.143-.282.375-.526 1.084-1.234zm-.154 2.61q.054-.162.13-.315l-1.336-.68q-.13.256-.22.532zm1.215 7.927c-.709-.709-.94-.952-1.084-1.234l-1.337.68c.277.543.72.974 1.36 1.615zM2.25 13.55c0 .906-.009 1.524.18 2.103l1.426-.463c-.097-.301-.106-.638-.106-1.64zm1.737 1.955a2 2 0 0 1-.13-.315l-1.427.463q.09.275.22.533zm6.464 4.746c-1.002 0-1.339-.009-1.64-.106l-.463 1.426c.58.189 1.197.18 2.103.18zm-4.25-.26c.64.64 1.071 1.083 1.614 1.36l.681-1.337c-.282-.144-.526-.375-1.234-1.084zm2.61.154a2 2 0 0 1-.315-.13l-.68 1.336q.256.13.532.22zm7.927-1.215c-.709.709-.952.94-1.234 1.084l.68 1.337c.543-.277.974-.72 1.615-1.36zm-3.188 2.82c.906 0 1.524.009 2.103-.18l-.463-1.426c-.301.098-.638.106-1.64.106zm1.955-1.737a2 2 0 0 1-.315.13l.463 1.427q.275-.09.533-.22zm4.746-6.464c0 1.002-.009 1.339-.106 1.64l1.426.463c.189-.58.18-1.197.18-2.103zm-.26 4.25c.64-.64 1.083-1.072 1.36-1.614l-1.337-.681c-.144.282-.375.525-1.084 1.234zm.154-2.61a2 2 0 0 1-.13.315l1.336.68q.13-.256.22-.532zM18.93 7.262c.709.708.94.952 1.084 1.234l1.337-.68c-.277-.544-.72-.974-1.36-1.615zm2.821 3.189c0-.906.009-1.524-.18-2.103l-1.426.463c.098.301.106.638.106 1.64zm-1.737-1.955q.078.153.13.315l1.427-.463a4 4 0 0 0-.22-.533zM13.55 3.75c1.002 0 1.339.009 1.64.106l.463-1.426c-.58-.189-1.197-.18-2.103-.18zm4.25.26c-.64-.64-1.072-1.083-1.614-1.36l-.681 1.337c.282.143.525.375 1.234 1.084zm-2.61-.154q.162.054.315.13l.68-1.336a4 4 0 0 0-.532-.22zM10.45 2.25c-.906 0-1.524-.009-2.103.18l.463 1.426c.301-.097.638-.106 1.64-.106zM7.26 5.071c.71-.709.953-.94 1.235-1.084l-.68-1.337c-.544.277-.974.72-1.615 1.36zM8.349 2.43q-.275.09-.533.22l.681 1.337q.153-.078.315-.13zM9 10.75h1v-1.5H9zm1 0h1v-1.5h-1zM9.25 10v4h1.5v-4zm2.5 1.25v1.5h1.5v-1.5zm4 1.5v-1.5h-1.5v1.5zm1.25-2h1v-1.5h-1zm-.75-.75v2h1.5v-2zm0 2v2h1.5v-2zm1.75-.75h-1v1.5h1zm-12 3.5h.5v-1.5H6zm.5-5.5H6v1.5h.5zm-.5 3.5h.5v-1.5H6zm2.25.25a1.75 1.75 0 0 0-1.75-1.75v1.5a.25.25 0 0 1 .25.25zM6 13.25a.25.25 0 0 1-.25-.25h-1.5c0 .966.784 1.75 1.75 1.75zm0-4A1.75 1.75 0 0 0 4.25 11h1.5a.25.25 0 0 1 .25-.25zM18.25 11a.25.25 0 0 1-.25.25v1.5A1.75 1.75 0 0 0 19.75 11zm-2.5.25a2 2 0 0 0-2-2v1.5a.5.5 0 0 1 .5.5zM4.25 11c0 .966.784 1.75 1.75 1.75v-1.5a.25.25 0 0 1-.25-.25zm9.5 3.75a2 2 0 0 0 2-2h-1.5a.5.5 0 0 1-.5.5zm4.25-4a.25.25 0 0 1 .25.25h1.5A1.75 1.75 0 0 0 18 9.25zm-11.5 0a.25.25 0 0 1 .25.25h1.5A1.75 1.75 0 0 0 6.5 9.25zm5.25 2a2 2 0 0 0 2 2v-1.5a.5.5 0 0 1-.5-.5zm-5.25 2A1.75 1.75 0 0 0 8.25 13h-1.5a.25.25 0 0 1-.25.25zm6.75-3.5a.5.5 0 0 1 .5-.5v-1.5a2 2 0 0 0-2 2z" /></svg>
