<svg id="store" xmlns="http://www.w3.org/2000/svg" fill="none" viewBox="0 0 24 24"><path stroke="currentColor" stroke-linecap="round" stroke-linejoin="round" stroke-width="1.5" d="M4 20h2m14 0h-2m0 0v-7m0 7h-4m-8 0v-7m0 7h4m0 0v-4a2 2 0 0 1 2-2v0a2 2 0 0 1 2 2v4m-4 0h4m4.049-14.252 1.313 2.189a1.59 1.59 0 0 1-.239 1.94L19 10a1.414 1.414 0 0 1-2 0v0a1.414 1.414 0 0 0-2 0v0a1.414 1.414 0 0 1-2 0v0a1.414 1.414 0 0 0-2 0v0a1.414 1.414 0 0 1-2 0v0a1.414 1.414 0 0 0-2 0v0a1.414 1.414 0 0 1-2 0l-.123-.123a1.59 1.59 0 0 1-.239-1.94l1.313-2.19c.454-.756.682-1.134 1.022-1.377a2 2 0 0 1 .358-.203C7.714 4 8.156 4 9.038 4h5.924c.882 0 1.324 0 1.707.167q.19.083.358.203c.34.242.568.62 1.022 1.378" /></svg>