<svg id="strawberry" xmlns="http://www.w3.org/2000/svg" fill="none" viewBox="0 0 24 24"><path stroke="currentColor" stroke-linecap="round" stroke-linejoin="round" stroke-width="1.5" d="M12 8.5c1.988-.284 2.982-.926 3.989-.514C21.33 10.176 16.79 21 12 21S2.67 10.176 8.012 7.986c1.006-.412 2 .23 3.988.514m0 0c-.847-.778-1.886-1.095-2.729-1.822C8.221 5.772 8.183 4.28 8.001 3c3.254.465 3.764 2.318 3.999 5.5m0 0c.847-.778 1.886-1.095 2.729-1.822C15.779 5.772 15.817 4.28 16 3c-3.254.465-3.766 2.318-4 5.5M9 11v.5m3 1v.5m3-2v.5m-5.5 3v.5m2.5 1.5v.5m2.5-2.5v.5" /></svg>