<svg id="subtract" xmlns="http://www.w3.org/2000/svg" fill="none" viewBox="0 0 24 24"><path stroke="currentColor" stroke-linecap="round" stroke-linejoin="round" stroke-width="1.5" d="M16 8h2c.462 0 .9.105 1.291.291M16 8v3m0-3 5 5M8 11v.5M11 8h.5M11 21a3 3 0 0 1-3-3m3 3-3-3m3 3h3m-6-3v-2h1m-3 0c-.35 0-.687-.06-1-.17M16 6c0-.35-.06-.687-.17-1M6 3h.5M3 6v.5M8 14v-.5M14 8h-.5m1.159-4.5A3 3 0 0 0 14 3.17M3.5 14.66a3 3 0 0 1-.33-.66M12 3h-1m-8 9v-1m0-2v-.5M9 3h-.5m-5 1.341a3 3 0 0 1 .841-.841M8.5 9.341a3 3 0 0 1 .841-.841M9 16l5 5m-5-5h3m2 5h3m-5-5h1c.572 0 1.107-.16 1.562-.438M12 16l5 5m0 0h1c.572 0 1.107-.16 1.562-.438m-5-5 5 5m-5-5a3 3 0 0 0 1.31-1.69m3.69 6.69a3 3 0 0 0 1.31-1.69m-5-5A3 3 0 0 0 16 13v-2m-.129 2.871 5 5m0 0A3 3 0 0 0 21 18v-2m0 0-5-5m5 5v-3m0 0v-2c0-.462-.105-.9-.291-1.291M19.29 8.29c.62.296 1.122.798 1.418 1.418M19.29 8.29l1.42 1.42" /></svg>
