<svg id="sun1" xmlns="http://www.w3.org/2000/svg" fill="none" viewBox="0 0 24 24"><path stroke="currentColor" stroke-linecap="round" stroke-linejoin="round" stroke-width="1.5" d="M12.014 2.966c-.458 2.469-3.47 3.447-5.29 1.72 1.08 2.265-.78 4.827-3.27 4.5 2.207 1.197 2.207 4.364 0 5.562 2.49-.328 4.35 2.234 3.27 4.5 1.82-1.729 4.832-.75 5.29 1.718.458-2.468 3.469-3.447 5.29-1.719-1.08-2.265.78-4.827 3.27-4.5-2.207-1.197-2.207-4.364 0-5.562-2.49.328-4.35-2.234-3.27-4.5-1.821 1.728-4.832.75-5.29-1.719" /><path stroke="currentColor" stroke-linecap="round" stroke-linejoin="round" stroke-width="1.5" d="M17 12a5 5 0 1 1-10 0 5 5 0 0 1 10 0" /></svg>