<svg id="swimmingPool" xmlns="http://www.w3.org/2000/svg" fill="none" viewBox="0 0 24 24"><path stroke="currentColor" stroke-linecap="round" stroke-linejoin="round" stroke-width="1.5" d="m4 15 1.092.874c.839.67 2.015.722 2.908.126l.228-.152a2.09 2.09 0 0 1 2.466.107l.056.045a2 2 0 0 0 2.5 0v0a2 2 0 0 1 2.5 0l.056.045a2.09 2.09 0 0 0 2.466.107L20 15M4 19l1.092.874c.839.67 2.015.722 2.908.126l.228-.152a2.09 2.09 0 0 1 2.466.107l.056.045a2 2 0 0 0 2.5 0v0a2 2 0 0 1 2.5 0l.056.045a2.09 2.09 0 0 0 2.466.107L20 19M12 7v-.5A2.5 2.5 0 0 0 9.5 4v0A2.5 2.5 0 0 0 7 6.5V10m0 6v-3m14-6v-.5A2.5 2.5 0 0 0 18.5 4v0A2.5 2.5 0 0 0 16 6.5V10m0 6v-3m-9-3h9m-9 0v3m9-3v3m-9 0h9" /></svg>