<svg id="swordsCrossing" xmlns="http://www.w3.org/2000/svg" fill="none" viewBox="0 0 24 24"><path stroke="currentColor" stroke-linecap="round" stroke-linejoin="round" stroke-width="1.5" d="M15.314 15.314 6.828 6.828m8.486 8.486-.354.353m.354-.353.353-.354m-.707.707-1.414 1.414-1.37-1.369m2.784-.045 3.98 3.98m0 0L20 20l-.354-1.06m-.707.706-.707.708m1.414-1.415-3.979-3.979m3.98 3.98.707-.708m-4.687-3.272 1.414-1.414-1.369-1.37M9.04 15.315l.353.353m-.353-.353-.354-.354m.354.354 1.369-1.37m7.116-7.116-3.58 3.581m-4.552 5.258 1.415 1.414 1.369-1.369m-2.784-.045-3.979 3.98m0 0L4.354 20l.353-1.06m.707.706.707.708m-1.414-1.415 3.98-3.979m-3.98 3.98L4 18.231m4.686-3.272-1.414-1.414 1.37-1.37m3.535 3.536-1.768-1.767m5.303-1.768L20 7.889 20.354 4l-3.89.354-4.287 4.287m3.535 3.536-1.767-1.768M8.64 12.177 4.353 7.889 4 4l3.889.354 4.288 4.287M8.64 12.177l1.768 1.768m1.768-5.304 1.768 1.768" /></svg>