<svg id="sydney" xmlns="http://www.w3.org/2000/svg" fill="none" viewBox="0 0 24 24"><path stroke="currentColor" stroke-linecap="round" stroke-linejoin="round" stroke-width="1.5" d="m19 18 1-6c-1 0-1.62.17-3 1m2 5h-5.5m5.5 0h1l.5 2m-7-2c1-2.5 2.067-4.14 3.5-5m-3.5 5H10m0 0c.899-2.864 2.741-5.362 4.353-6.578M10 18H7m0 0c0-1 .362-3.13.765-4.02M7 18H5m2.765-4.02a4.5 4.5 0 0 0-1.362-1.27m1.362 1.27c.432-.952.952-1.775 1.515-2.48M5 18l-1-6s1.48.15 2.403.71M5 18H4l-.5 2m2.903-7.29L6 10s2 0 3.28 1.5m0 0C10.993 9.358 13 8.5 14.5 8l-.147 3.422m0 0C15.443 10.6 16.304 10.134 17 10v3" /></svg>