<svg id="table" xmlns="http://www.w3.org/2000/svg" fill="none" viewBox="0 0 24 24"><path stroke="currentColor" stroke-linecap="round" stroke-linejoin="round" stroke-width="1.5" d="M9 20h5.6c2.25 0 3.375 0 4.163-.573q.384-.28.664-.664C20 17.975 20 16.85 20 14.6V9M9 20c-1.87 0-2.804 0-3.5-.402A3 3 0 0 1 4.402 18.5C4 17.804 4 16.87 4 15V9m5 11V9m0 0h11M9 9H4m5 0V4m11 5c0-1.87 0-2.804-.402-3.5A3 3 0 0 0 18.5 4.402C17.804 4 16.87 4 15 4H9M4 9c0-1.87 0-2.804.402-3.5A3 3 0 0 1 5.5 4.402C6.196 4 7.13 4 9 4v0" /></svg>