<svg id="tada" xmlns="http://www.w3.org/2000/svg" fill="none" viewBox="0 0 24 24"><path stroke="currentColor" stroke-linecap="round" stroke-linejoin="round" stroke-width="1.5" d="M10.5 13.5c-1.408-1.408-2.363-3.382-2.916-4.785-.186-.472-.943-.459-1.082.03L5.572 12m4.928 1.5c1.408 1.408 3.382 2.363 4.785 2.916.472.186.459.943-.03 1.082l-1.255.36M10.5 13.5 5.571 12M11 9l.505-1.514A2.17 2.17 0 0 1 13.567 6v0c.87 0 1.655-.518 1.998-1.317L16.5 2.5m-.5 11h2.124c.569 0 1.122-.184 1.577-.526l.405-.303A1.81 1.81 0 0 1 22 12.5v0M19 8l.683-1.367a3 3 0 0 1 .884-1.058L22 4.5M15 11h.5M18 5v-.5M10 5v-.5M19 16h.5M3.857 18l-.363 1.27a1 1 0 0 0 1.237 1.236L9 19.286M3.857 18 9 19.286M3.857 18l.857-3M9 19.286l5-1.429M4.714 15 14 17.857M4.714 15l.857-3" /></svg>