<svg id="tag" xmlns="http://www.w3.org/2000/svg" fill="none" viewBox="0 0 24 24"><path stroke="currentColor" stroke-linecap="round" stroke-linejoin="round" stroke-width="1.5" d="m16 8-.5.5m-3.783 10.854 6.13-6.13c.534-.534.8-.8.95-1.13a2 2 0 0 0 .119-.338c.089-.351.047-.726-.036-1.476l-.198-1.782c-.135-1.214-.202-1.822-.538-2.262a2 2 0 0 0-.38-.38c-.44-.336-1.048-.403-2.262-.538L13.72 5.12c-.75-.083-1.125-.125-1.476-.036a2 2 0 0 0-.338.118c-.33.15-.596.417-1.13.95l-6.13 6.13c-1.06 1.061-1.59 1.592-1.692 2.233a2 2 0 0 0 0 .626c.101.642.631 1.172 1.692 2.233l1.98 1.98c1.06 1.06 1.59 1.59 2.233 1.692q.313.05.625 0c.642-.101 1.172-.631 2.233-1.692" /></svg>