<svg id="tags" xmlns="http://www.w3.org/2000/svg" fill="none" viewBox="0 0 24 24"><path stroke="currentColor" stroke-linecap="round" stroke-linejoin="round" stroke-width="1.5" d="m16.293 9.707-.5.5m2.364-5.35H13.99c-.653 0-.98 0-1.28.099q-.15.048-.29.12c-.283.144-.514.375-.975.836l-5.939 5.939c-.072.072-.109.109-.138.14a2 2 0 0 0 0 2.704c.03.032.066.068.138.14v0m7.21 4.105 4.885-4.886c.462-.461.693-.692.837-.975q.071-.14.12-.29c.098-.3.098-.627.098-1.28v-.566c0-1.5 0-2.25-.382-2.775a2 2 0 0 0-.443-.443c-.525-.382-1.275-.382-2.775-.382h-.566c-.653 0-.98 0-1.28.098q-.15.049-.29.12c-.283.144-.514.375-.975.837L7.06 13.283c-1.06 1.06-1.59 1.59-1.692 2.233a2 2 0 0 0 0 .625c.101.642.632 1.172 1.692 2.233l.566.566c1.06 1.06 1.59 1.59 2.233 1.692q.313.05.625 0c.642-.101 1.172-.632 2.233-1.692" /></svg>