<svg id="tapeMeasure" xmlns="http://www.w3.org/2000/svg" fill="none" viewBox="0 0 24 24"><g clip-path="url(#clip0_1556_82585)"><path stroke="currentColor" stroke-linecap="round" stroke-linejoin="round" stroke-width="1.5" d="m9.944 12.5-1.015 1.015a1 1 0 0 0 0 1.414l6.364 6.364a1 1 0 0 0 1.414 0l3.89-3.89a5.5 5.5 0 0 0 0-7.777v0a5.5 5.5 0 0 0-7.779 0zm0 0L2.5 5.056m0 0-1 1m1-1L2.444 5m15.324 7.454a1.5 1.5 0 0 1 0 2.121l-1.202 1.203a.8.8 0 0 1-1.132 0l-.99-.99a.8.8 0 0 1 0-1.132l1.202-1.202a1.5 1.5 0 0 1 2.122 0" /></g><defs><clipPath id="clip0_1556_82585"><path fill="white" d="M0 0h24v24H0z" /></clipPath></defs></svg>