<svg id="taxi" xmlns="http://www.w3.org/2000/svg" fill="none" viewBox="0 0 24 24"><path stroke="currentColor" stroke-linecap="round" stroke-linejoin="round" stroke-width="1.5" d="M8 16v1.2c0 .75 0 1.125-.191 1.388a1 1 0 0 1-.221.221C7.325 19 6.95 19 6.2 19h-.4c-.75 0-1.125 0-1.388-.191a1 1 0 0 1-.221-.221C4 18.325 4 17.95 4 17.2V16m4 0H4m4 0h1m-5-4 2-2m-2 2v4m0-4 3 1m-1-3h12M6 10l.2-1M18 10l2 2m-2-2-.2-1m2.2 3v4m0-4-3 1m-1 3v1.2c0 .75 0 1.125.191 1.388a1 1 0 0 0 .221.221c.263.191.638.191 1.388.191h.4c.75 0 1.125 0 1.388-.191a1 1 0 0 0 .221-.221C20 18.325 20 17.95 20 17.2V16m-4 0h4m-4 0h-1m-6 0 .502-1.005c.215-.429.322-.644.5-.782q.086-.07.188-.116c.203-.097.443-.097.923-.097h1.774c.48 0 .72 0 .923.097q.1.047.188.116c.178.138.285.353.5.782L15 16m-6 0h6m2.8-7-.51-2.553c-.123-.613-.184-.92-.376-1.126a1 1 0 0 0-.212-.174C16.462 5 16.15 5 15.524 5H14m3.8 4h1.7M6.2 9l.51-2.553c.123-.613.184-.92.376-1.126a1 1 0 0 1 .212-.174C7.538 5 7.85 5 8.476 5H10M6.2 9H4.5M10 5v-.2c0-.75 0-1.125.191-1.388a1 1 0 0 1 .221-.221C10.675 3 11.05 3 11.8 3h.4c.75 0 1.125 0 1.388.191a1 1 0 0 1 .221.221C14 3.675 14 4.05 14 4.8V5m-4 0h4" /></svg>