<svg id="tennis" xmlns="http://www.w3.org/2000/svg" fill="none" viewBox="0 0 24 24"><path stroke="currentColor" stroke-linecap="round" stroke-linejoin="round" stroke-width="1.5" d="M12.445 4.012a7.98 7.98 0 0 0-6.102 2.331 7.98 7.98 0 0 0-2.33 6.102m8.432-8.433a7.97 7.97 0 0 1 5.212 2.331 7.97 7.97 0 0 1 2.33 5.212m-7.542-7.543a8.19 8.19 0 0 1-8.433 8.433m0 0a7.97 7.97 0 0 0 2.331 5.212 7.97 7.97 0 0 0 5.212 2.33m8.433-8.432a7.98 7.98 0 0 1-2.331 6.102 7.98 7.98 0 0 1-6.102 2.33m8.433-8.432a8.19 8.19 0 0 0-8.433 8.433" /></svg>