<svg id="terminalBox" xmlns="http://www.w3.org/2000/svg" fill="none" viewBox="0 0 24 24"><path stroke="currentColor" stroke-linecap="round" stroke-linejoin="round" stroke-width="1.5" d="m7 8 2.727 2.727c.53.53.796.796.846 1.117a1 1 0 0 1 0 .312c-.05.321-.316.586-.846 1.117L7 16m6 0h5m3-7.6v7.2c0 2.25 0 3.375-.573 4.163q-.28.384-.664.664C18.975 21 17.85 21 15.6 21H8.4c-2.25 0-3.375 0-4.163-.573a3 3 0 0 1-.664-.664C3 18.975 3 17.85 3 15.6V8.4c0-2.25 0-3.375.573-4.163a3 3 0 0 1 .664-.664C5.025 3 6.15 3 8.4 3h7.2c2.25 0 3.375 0 4.163.573q.384.28.664.664C21 5.025 21 6.15 21 8.4" /></svg>