<svg id="thermometer" xmlns="http://www.w3.org/2000/svg" fill="none" viewBox="0 0 24 24"><g clip-path="url(#clip0_1556_83243)"><path stroke="currentColor" stroke-linecap="round" stroke-linejoin="round" stroke-width="1.5" d="m8.98 14.636.69.692a7.64 7.64 0 0 0 3.38 1.965v0a7.64 7.64 0 0 1 3.38 1.965l1.57 1.57m-9.02-6.192.706-.707m-.707.707L7.094 12.75m0 0 .707-.707m-.707.707-1.886-1.885m0 0 .707-.707m-.707.707L3.322 8.979m0 0a4 4 0 0 1 0-5.657v0a4 4 0 0 1 5.657 0l6.349 6.349a7.64 7.64 0 0 1 1.965 3.38v0a7.64 7.64 0 0 0 1.965 3.379l1.57 1.57M3.322 8.98l.707-.708m9.193 4.95L6.15 6.15M20.828 18l.758.757a2 2 0 0 1 0 2.829v0a2 2 0 0 1-2.829 0L18 20.828M20.828 18 18 20.828" /></g><defs><clipPath id="clip0_1556_83243"><path fill="white" d="M0 0h24v24H0z" /></clipPath></defs></svg>