<svg id="ticket" xmlns="http://www.w3.org/2000/svg" fill="none" viewBox="0 0 24 24"><path stroke="currentColor" stroke-linecap="round" stroke-linejoin="round" stroke-width="1.5" d="M12.01 15h.01M12 12h.01m-.02-3H12m7 3c0 .868 1 1.703 1 2.57v.93c0 .465 0 .697-.038.89a2 2 0 0 1-1.572 1.572c-.193.038-.425.038-.89.038h-11c-.465 0-.697 0-.89-.038a2 2 0 0 1-1.572-1.572C4 16.197 4 15.965 4 15.5v-.93c0-.867 1-1.702 1-2.57v0c0-.868-1-1.703-1-2.57V8.5c0-.465 0-.697.038-.89A2 2 0 0 1 5.61 6.038C5.803 6 6.035 6 6.5 6h11c.465 0 .697 0 .89.038a2 2 0 0 1 1.572 1.572c.038.193.038.425.038.89v.93c0 .867-1 1.702-1 2.57" /></svg>