<svg id="ticketAngled" xmlns="http://www.w3.org/2000/svg" fill="none" viewBox="0 0 24 24"><path stroke="currentColor" stroke-linecap="round" stroke-linejoin="round" stroke-width="1.5" d="m14.129 14.114.007-.007M12 12l.007-.007M9.872 9.886l.007-.007m7.07-2.829c.614.614 1.912.498 2.526 1.111l.657.657c.328.329.493.493.602.657a2 2 0 0 1 0 2.222c-.11.164-.274.328-.602.657l-7.778 7.778c-.329.328-.493.492-.657.602a2 2 0 0 1-2.222 0c-.164-.11-.328-.274-.657-.602l-.657-.657c-.613-.614-.497-1.912-1.11-2.525v0c-.614-.614-1.912-.498-2.526-1.111l-.657-.657c-.328-.329-.492-.493-.602-.657a2 2 0 0 1 0-2.222c.11-.164.274-.328.602-.657l7.779-7.778c.328-.328.492-.493.656-.602a2 2 0 0 1 2.222 0c.164.11.329.274.657.602l.657.657c.614.614.497 1.912 1.11 2.525" /></svg>