<svg id="tie" xmlns="http://www.w3.org/2000/svg" fill="none" viewBox="0 0 24 24"><path stroke="currentColor" stroke-linecap="round" stroke-linejoin="round" stroke-width="1.5" d="m10 7-.698-1.395c-.514-1.029-.771-1.543-.623-1.948a1 1 0 0 1 .212-.344C9.187 3 9.762 3 10.912 3h2.175c1.15 0 1.726 0 2.022.313q.141.151.212.344c.148.405-.11.92-.623 1.948L14 7m-4 0h4m-4 0L8.18 17.92c-.078.466-.117.7-.057.913q.03.105.081.203c.105.195.294.337.671.62l2.045 1.534c.46.345.69.518.952.552a1 1 0 0 0 .256 0c.261-.034.492-.207.952-.552l2.045-1.533c.377-.284.566-.425.67-.621a1 1 0 0 0 .082-.203c.06-.214.02-.446-.057-.912L14 7" /></svg>