<svg id="tiger" xmlns="http://www.w3.org/2000/svg" fill="none" viewBox="0 0 24 24"><path stroke="currentColor" stroke-linecap="round" stroke-linejoin="round" stroke-width="1.5" d="M12 5.174a6.6 6.6 0 0 0-2.555.492M12 5.174c.937 0 1.79.176 2.555.492M12 5.174V7.15m0 9.884-1.022-.989h2.044zm0 0c.51.494 1.533.988 3.066.988 2.257 0 4.087-2.073 4.087-4.548 0-.628-.06-1.259-.18-1.876M12 17.035c-.511.494-1.533.988-3.066.988-2.257 0-4.087-2.073-4.087-4.548 0-.628.06-1.259.18-1.876m4.418 1.35v1.12m5.11-1.12v1.12m-4.088 5.437S10.978 20 12 20s1.533-.494 1.533-.494M9.445 5.666q-2.3-2.221-4.598-1.48c-1.022.988-1.022 2.965-.511 3.459m5.11-1.979c-1.938.8-3.305 2.495-4.021 4.48m9.13-4.48q2.3-2.221 4.598-1.48c1.022.988 1.022 2.965.511 3.459m-5.11-1.979c1.938.8 3.305 2.495 4.02 4.48m-.443-1.019c0 1.019-.51 1.977-1.021 2.471 1.021-.494 1.411-1.033 1.465-1.452m0 0c.17.47.303.957.398 1.452m0 0c-.33 1.483-1.482 2.966-2.374 3.46 1.021 0 2.043-.989 2.554-1.977M5.868 9.127c0 .989.511 1.977 1.022 2.471-.51 0-1.533-.988-1.465-1.452m-.399 1.452c.331 1.483 1.353 2.966 2.375 3.46-.51 0-2.044-.494-2.554-1.977m.18-1.482q.143-.745.398-1.453M12 7.151c-.511 0-1.737-.297-2.555.494M12 7.15v1.482m0-1.482c.51 0 1.737-.297 2.555.494M12 8.633c-.34.32-1.022.57-1.022.989M12 8.633c.34.32 1.022.57 1.022.989" /></svg>