<svg id="timeline" xmlns="http://www.w3.org/2000/svg" fill="none" viewBox="0 0 24 24"><path stroke="currentColor" stroke-linecap="round" stroke-linejoin="round" stroke-width="1.5" d="M8 8h4m-2 4h4m-2 4h4m4-6.6v5.2c0 2.25 0 3.375-.573 4.163q-.28.384-.664.664C17.975 20 16.85 20 14.6 20H9.4c-2.25 0-3.375 0-4.163-.573a3 3 0 0 1-.664-.664C4 17.975 4 16.85 4 14.6V9.4c0-2.25 0-3.375.573-4.163a3 3 0 0 1 .664-.664C6.025 4 7.15 4 9.4 4h5.2c2.25 0 3.375 0 4.163.573.255.185.479.409.664.664C20 6.025 20 7.15 20 9.4" /></svg>