<svg id="tirePressure" xmlns="http://www.w3.org/2000/svg" fill="none" viewBox="0 0 24 24"><path stroke="currentColor" stroke-linecap="round" stroke-linejoin="round" stroke-width="1.5" d="m3.5 5.5 1 1m0 0H5a.5.5 0 0 1 .5.5v0a.5.5 0 0 1-.5.5v0a.5.5 0 0 1-.5-.5zM4 10.874a4 4 0 0 0 2 0m-2 0A4.002 4.002 0 0 1 5 3a4 4 0 0 1 1 7.874m-2 0V14h1m1-3.126V14H5m0 0v1a3 3 0 0 0 3 3h4m0 0v.86c0 .954.673 1.773 1.618 1.897A27 27 0 0 0 17 21m-5-3v-2m5 5c1.225 0 2.45-.12 3.382-.243.945-.124 1.618-.943 1.618-1.897V16m-5 5V3m0 0c1.225 0 2.45.12 3.382.243.945.124 1.618.943 1.618 1.897V6m-5-3c-1.225 0-2.45.12-3.382.243C12.673 3.367 12 4.186 12 5.14V6m0 0 2 1 .5-.5M12 6v5m10-5-2 1-.5-.5M22 6v5m0 0-2 1-.5-.5M22 11v5m-10-5 2 1 .5-.5M12 11v5m0 0 2 1 .5-.5M22 16l-2 1-.5-.5" /></svg>