<svg id="toiletPaper" xmlns="http://www.w3.org/2000/svg" fill="none" viewBox="0 0 24 24"><path stroke="currentColor" stroke-linecap="round" stroke-linejoin="round" stroke-width="1.5" d="M10 12c0 3.314-1.343 6-3 6m3-6c0-3.314-1.343-6-3-6m3 6v10l1.313-1 1.312 1 1.313-1 1.312 1 1.313-1 1.312 1 1.313-1 1.312 1V12c0-3.314-1.343-6-3-6H7m0 12c-1.657 0-3-2.686-3-6s1.343-6 3-6m0 12h3m0-4.5h.5m2 0h.5m7 0h.5m-5.5 0h.5m2 0h.5M8.125 12c0 1.243-.504 2.25-1.125 2.25S5.875 13.243 5.875 12 6.379 9.75 7 9.75 8.125 10.757 8.125 12" /></svg>