<svg id="tokyoTower" xmlns="http://www.w3.org/2000/svg" fill="none" viewBox="0 0 24 24"><path stroke="currentColor" stroke-linecap="round" stroke-linejoin="round" stroke-width="1.5" d="M12 4.5a1 1 0 0 0-1 1v1q0 .513-.014 1M12 4.5V3m0 1.5a1 1 0 0 1 1 1v1q0 .513.014 1m-2.028 0H10m.986 0h2.028m-2.028 0c-.05 1.653-.229 3.097-.58 4.5m2.608-4.5H14m-.986 0c.05 1.653.229 3.097.58 4.5M9.96 13.5 9 12h1.406m-.445 1.5h4.078m-4.078 0C11.5 16 13 17 15.851 19m-5.89-5.5c-.438 1.274-1.031 4.064-1.812 5.5m5.445-7H15l-.961 1.5m-.445-1.5h-3.188m3.633 1.5c.438 1.274 1.031 4.064 1.812 5.5m-1.812-5.5C12.5 16 11 17 8.149 19m7.702 0c.345.635.727 1.298 1.149 2h-2.18c-.477 0-.886-.339-1.055-.785-.277-.733-.825-1.715-1.765-1.715s-1.488.982-1.765 1.715c-.169.446-.578.785-1.055.785H7c.421-.702.803-1.365 1.149-2" /></svg>