<svg id="toothPaste" xmlns="http://www.w3.org/2000/svg" fill="none" viewBox="0 0 24 24"><g clip-path="url(#clip0_1556_83241)"><path stroke="currentColor" stroke-linecap="round" stroke-linejoin="round" stroke-width="1.5" d="m7.464 4.636-2.12-2.121a1 1 0 0 0-1.415 0L2.515 3.929a1 1 0 0 0 0 1.414l2.121 2.121m2.828-2.828L4.636 7.464m2.828-2.828a2.226 2.226 0 0 1 2.971-.159l9.404 7.584M4.636 7.464a2.226 2.226 0 0 0-.159 2.971l7.584 9.404m7.778-7.778 2.121 2.121a1 1 0 0 1 0 1.414l-6.364 6.364a1 1 0 0 1-1.414 0l-2.122-2.12m7.778-7.778L12.06 19.84M8.879 8.879l3.118 1.04a1.64 1.64 0 0 1 1.124 1.559v0c0 .907-.736 1.643-1.644 1.643v0a1.64 1.64 0 0 1-1.559-1.124z" /></g><defs><clipPath id="clip0_1556_83241"><path fill="white" d="M0 0h24v24H0z" /></clipPath></defs></svg>