<svg id="toothBrush" xmlns="http://www.w3.org/2000/svg" fill="none" viewBox="0 0 24 24"><g clip-path="url(#clip0_1556_83209)"><path stroke="currentColor" stroke-linecap="round" stroke-linejoin="round" stroke-width="1.5" d="M6.121 4.15 4 6.273l.254.508c.29.58.799 1.022 1.414 1.227v0c.73.243 1.304.816 1.547 1.547v0a2.45 2.45 0 0 0 1.227 1.414l.508.254 2.121-2.121m-4.95-4.95 4.95 4.95m-4.95-4.95a1 1 0 0 1 0-1.414l.354-.354a1.5 1.5 0 0 1 2.121 0l13.435 13.435a1.5 1.5 0 0 1 0 2.121v0a1.5 1.5 0 0 1-2.121 0l-8.84-8.838m-5.317 5.224c-.313-.185-.679-.342-1.004-.323C3.52 14.07 3 15.314 3 16.626 3 18.466 4.312 21 4.75 21c1.094 0 .656-2.187 1.75-2.187S7.156 21 8.25 21c.437 0 1.75-2.534 1.75-4.374 0-1.312-.52-2.556-1.75-2.625-.325-.018-.691.139-1.004.324a1.49 1.49 0 0 1-1.492 0" /></g><defs><clipPath id="clip0_1556_83209"><path fill="white" d="M0 0h24v24H0z" /></clipPath></defs></svg>