<svg id="toriGate" xmlns="http://www.w3.org/2000/svg" fill="none" viewBox="0 0 24 24"><path stroke="currentColor" stroke-linecap="round" stroke-linejoin="round" stroke-width="1.5" d="M4 20h2.5M20 20h-2.5M9 20h6m-6 0H6.5M9 20v-9.5M9 8H7.292M9 8h2M9 8v2.5M15 8h1.76M15 8h-2m2 0v2.5m0 9.5h2.5M15 20v-9.5m2.5 9.5s-.74-5-.74-9.5m0-2.5H19V6m-2.24 2v2.5M19 6H5m14 0h1.5l.5-3s-4 1-9 1-9-1-9-1l.5 3H5m0 0v2h2.292m0 0v2.5M6.5 20s.792-5 .792-9.5M11 8v2.5M11 8h2m-2 2.5h2m-2 0H9m4 0V8m0 2.5h2m1.76 0H18m-10.708 0H6" /></svg>