<svg id="towerOfPisa" xmlns="http://www.w3.org/2000/svg" fill="none" viewBox="0 0 24 24"><path stroke="currentColor" stroke-linecap="round" stroke-linejoin="round" stroke-width="1.5" d="m17.272 19.721-1.423-.2a.57.57 0 0 0-.64.479v0m2.063-.279.139-.99a1 1 0 0 0-.851-1.13v0m.712 2.12-.038.279M7.37 18.33l.975.137a1 1 0 0 1 .849 1.145L9.132 20m-1.763-1.67.14-.99a1 1 0 0 1 1.129-.852v0M7.369 18.33 7.144 20m1.911-6.482.557-3.962m-.557 3.962-.417 2.97m.417-2.97 1.98.278m-1.423-4.24.557-3.96m-.557 3.96 1.98.279m5.942.835-.556 3.96m.556-3.96.557-3.961m-.557 3.96-1.98-.278m1.423 4.24-.417 2.97m.418-2.97-1.981-.279m-4.828-8.757.278-1.98a1 1 0 0 1 1.13-.851l5.941.835a1 1 0 0 1 .851 1.13l-.278 1.98m-7.922-1.114 1.98.279m5.942.835-1.98-.279m-5.493 10.337.14-.99m-.14.99 1.98.278m-1.98-.278-1.98-.279m3.96.557.14-.99m-.14.99 1.981.278m0 0 .14-.99m-.14.99 1.98.279m-5.523-3.806.139-.99m-.14.99 1.981.278m0 0 1.98.278m-1.98-.278.14-.99m1.84 1.268.14-.99m-3.543-3.527.139-.99m-.14.99 1.981.278m0 0 .14-.99m-.14.99 1.98.278m0 0 .14-.99m-3.544-3.527.14-.99m-.14.99 1.98.278m0 0 .14-.99m-.14.99 1.981.278m0 0 .14-.99M9.132 20h2.048m-2.048 0H7.144m4.036 0 .018-.13a.987.987 0 0 1 1.115-.846l.16.023a.83.83 0 0 1 .703.953v0m-1.996 0h1.996m0 0h2.033m0 0h2.025M6 20h1.144m10.09 0H18" /></svg>