<svg id="train" xmlns="http://www.w3.org/2000/svg" fill="none" viewBox="0 0 24 24"><path stroke="currentColor" stroke-linecap="round" stroke-linejoin="round" stroke-width="1.5" d="M6 12v2.764c0 1.37.774 2.623 2 3.236v0m-2-6c0-.93 0-1.394.077-1.78A4 4 0 0 1 9.22 7.077C9.606 7 10.07 7 11 7h1m-6 5h12m0 0c0-.93 0-1.394-.077-1.78a4 4 0 0 0-3.143-3.143C14.394 7 13.93 7 13 7h-1m6 5v2.764c0 1.37-.774 2.623-2 3.236v0m-2-2 1-1m-5 1-1-1m3-8-2-3m2 3 2-3m-4 0H8m2 0h4m0 0h2M8 18l.78.39c1.402.7 2.102 1.051 2.85 1.12q.37.036.74 0c.748-.069 1.448-.42 2.85-1.12L16 18m-8 0v2m8-2v2" /></svg>