<svg id="trash" xmlns="http://www.w3.org/2000/svg" fill="none" viewBox="0 0 24 24"><path stroke="currentColor" stroke-linecap="round" stroke-linejoin="round" stroke-width="1.5" d="M5 6h4m10 0h-4M9 6a3 3 0 0 1 3-3v0a3 3 0 0 1 3 3v0M9 6h6m-8.643 6.926.197 2.163c.187 2.062.28 3.094.858 3.804a3 3 0 0 0 .653.596C8.825 20 9.86 20 11.931 20h.138c2.07 0 3.106 0 3.866-.51q.37-.25.653-.597c.577-.71.671-1.742.858-3.804l.197-2.163c.148-1.621.221-2.432-.154-3.012a2 2 0 0 0-.446-.488C16.5 9 15.686 9 14.058 9H9.942C8.314 9 7.5 9 6.957 9.426a2 2 0 0 0-.446.488c-.375.58-.301 1.39-.154 3.012" /></svg>