<svg id="truckBakward" xmlns="http://www.w3.org/2000/svg" fill="none" viewBox="0 0 24 24"><path stroke="currentColor" stroke-linecap="round" stroke-linejoin="round" stroke-width="1.5" d="M10 7H7.114c-.996 0-1.494 0-1.911.205a2 2 0 0 0-.384.247c-.36.294-.567.747-.98 1.653L3.43 10M10 7a3 3 0 0 1 3-3h2.6c2.25 0 3.375 0 4.163.573.255.185.479.409.664.664C21 6.025 21 7.15 21 9.4V13M10 7v.6c0 2.25 0 3.375.573 4.163q.28.384.664.664C12.025 13 13.15 13 15.4 13H21m0 0v3.2c0 .75 0 1.125-.191 1.388a1 1 0 0 1-.221.221C20.325 18 19.95 18 19.2 18H18M3 14v1.975c0 .644 0 .967.154 1.211a1 1 0 0 0 .181.214c.216.192.534.245 1.17.35L6 18m-3-4v-1.885c0-.46 0-.691.035-.917q.017-.113.043-.224c.052-.223.137-.437.308-.865L3.43 10M3 14h1a3 3 0 0 0 3-3v0a1 1 0 0 0-1-1H3.43M14 18a2 2 0 1 0 4 0m-4 0a2 2 0 1 1 4 0m-4 0h-4m-4 0a2 2 0 1 0 4 0m-4 0a2 2 0 1 1 4 0" /></svg>