<svg id="truckFront" xmlns="http://www.w3.org/2000/svg" fill="none" viewBox="0 0 24 24"><path stroke="currentColor" stroke-linecap="round" stroke-linejoin="round" stroke-width="1.5" d="M9 18.5v1A1.5 1.5 0 0 1 7.5 21v0A1.5 1.5 0 0 1 6 19.5v-1m3 0h6m-6 0H6M5 14h14M5 14v3.5a1 1 0 0 0 1 1v0M5 14c0-.42 0-.631.029-.838q.021-.152.058-.302c.05-.202.128-.398.284-.788l1.176-2.94c.195-.486.292-.729.475-.888a1 1 0 0 1 .197-.133C7.434 8 7.696 8 8.219 8h7.562c.523 0 .785 0 1 .111q.106.055.197.133c.183.16.28.402.475.888l1.176 2.94c.156.39.234.586.284.788q.037.15.058.302c.029.207.029.417.029.838v0M5 14a1 1 0 0 1-1-1V6.6c0-1.5 0-2.25.382-2.776a2 2 0 0 1 .442-.442C5.35 3 6.1 3 7.6 3h8.8c1.5 0 2.25 0 2.776.382q.256.187.442.442C20 4.35 20 5.1 20 6.6V13a1 1 0 0 1-1 1v0m0 0v3.5a1 1 0 0 1-1 1v0m-3 0v1a1.5 1.5 0 0 0 1.5 1.5v0a1.5 1.5 0 0 0 1.5-1.5v-1m-3 0h3M15 16h1m-8 0h1" /></svg>