<svg id="tShirt" xmlns="http://www.w3.org/2000/svg" fill="none" viewBox="0 0 24 24"><path stroke="currentColor" stroke-linecap="round" stroke-linejoin="round" stroke-width="1.5" d="M6 11v3m12-3v3m0 0v2.888c0 1.773 0 2.66-.478 3.402a3.3 3.3 0 0 1-.561.646c-.668.576-1.44.685-2.984.902-.686.097-1.372.162-1.977.162s-1.29-.065-1.977-.162c-1.544-.217-2.315-.326-2.984-.902a3.3 3.3 0 0 1-.56-.646C6 19.548 6 18.66 6 16.888V14m12 0 2.372-.593c.683-.17 1.024-.256 1.23-.488q.099-.113.162-.25c.128-.282.067-.629-.056-1.321l-.5-2.833c-.184-1.048-.277-1.572-.458-2.035a5 5 0 0 0-2.172-2.518c-.432-.247-.936-.415-1.946-.751v0a6 6 0 0 0-.34-.108 3 3 0 0 0-.6-.098C15.601 3 15.511 3 15.333 3H15M6 14l-2.372-.593c-.683-.17-1.024-.256-1.23-.488a1 1 0 0 1-.162-.25c-.128-.282-.067-.629.056-1.321l.5-2.833c.184-1.048.277-1.572.458-2.035a5 5 0 0 1 2.172-2.518c.432-.247.936-.415 1.946-.751v0c.17-.057.255-.085.34-.108a3 3 0 0 1 .6-.098C8.399 3 8.489 3 8.667 3H9m0 0a3 3 0 0 0 3 3v0a3 3 0 0 0 3-3v0M9 3h6" /></svg>