<svg id="tShirtLongSleeves" xmlns="http://www.w3.org/2000/svg" fill="none" viewBox="0 0 24 24"><path stroke="currentColor" stroke-linecap="round" stroke-linejoin="round" stroke-width="1.5" d="M6 11v8m12-8v8m0 0c0 1.182-.788 2.22-1.944 2.465-1.229.261-2.813.535-4.056.535s-2.827-.274-4.056-.535C6.788 21.22 6 20.182 6 19v0m12 0h1.962c.18 0 .27 0 .349-.012a1 1 0 0 0 .79-.67c.025-.075.04-.166.07-.348v0c.15-.896.225-1.344.281-1.781a24 24 0 0 0-.03-6.372c-.06-.437-.138-.875-.292-1.75v0c-.109-.614-.163-.92-.246-1.2a5 5 0 0 0-2.67-3.093c-.263-.124-.559-.222-1.15-.42l-.432-.143a6 6 0 0 0-.34-.108 3 3 0 0 0-.6-.098C15.601 3 15.511 3 15.333 3H15M6 19H4.038c-.18 0-.27 0-.348-.012a1 1 0 0 1-.791-.67 2.5 2.5 0 0 1-.07-.348v0a51 51 0 0 1-.281-1.781 24 24 0 0 1 .03-6.372c.06-.437.138-.875.292-1.75v0c.109-.614.163-.92.246-1.2a5 5 0 0 1 2.67-3.093c.263-.124.559-.222 1.15-.42l.432-.143c.17-.057.255-.085.34-.108a3 3 0 0 1 .6-.098C8.399 3 8.489 3 8.667 3H9m0 0a3 3 0 0 0 3 3v0a3 3 0 0 0 3-3v0M9 3h6" /></svg>