<svg id="tShirtVNeck" xmlns="http://www.w3.org/2000/svg" fill="none" viewBox="0 0 24 24"><path stroke="currentColor" stroke-linecap="round" stroke-linejoin="round" stroke-width="1.5" d="M6 11v3m12-3v3m0 0v2.888c0 1.773 0 2.66-.478 3.402a3.3 3.3 0 0 1-.561.646c-.668.576-1.44.685-2.984.902-.686.097-1.372.162-1.977.162s-1.29-.065-1.977-.162c-1.544-.217-2.315-.326-2.984-.902a3.3 3.3 0 0 1-.56-.646C6 19.548 6 18.66 6 16.888V14m12 0 2.372-.593c.683-.17 1.024-.256 1.23-.488q.099-.113.162-.25c.128-.282.067-.629-.056-1.321l-.384-2.177c-.297-1.686-.446-2.529-.826-3.236a5 5 0 0 0-1.418-1.643c-.643-.48-1.456-.75-3.08-1.292v0m0 0H8m8 0-2.502 3.753c-.597.896-.896 1.344-1.303 1.425a1 1 0 0 1-.39 0c-.407-.081-.706-.529-1.303-1.425L8 3m0 0c-1.624.541-2.436.812-3.08 1.292a5 5 0 0 0-1.418 1.643c-.38.707-.529 1.55-.826 3.236l-.384 2.177c-.123.692-.184 1.039-.056 1.32a1 1 0 0 0 .163.252c.205.231.546.316 1.229.487L6 14" /></svg>