<svg id="turkeyLeg" xmlns="http://www.w3.org/2000/svg" fill="none" viewBox="0 0 24 24"><path stroke="currentColor" stroke-linecap="round" stroke-linejoin="round" stroke-width="1.5" d="M15.27 13.854c.946-2.879-3.178-8.207-4.512-9.543-1.488-1.49-4.465-1.988-6.45 0-1.984 1.987-1.487 4.968 0 6.459 1.342 1.343 6.71 5.51 9.574 4.504m1.388-1.42a2.22 2.22 0 0 1-1.388 1.42m1.388-1.42 2.809 2.813c.276.277.69.363 1.069.268.662-.167 1.69-.315 2.192.188.774.776.98 2.32 0 2.81-.49.246-1.404 0-1.404 0s.245.915 0 1.406c-.49.981-2.03.776-2.806 0-.501-.503-.354-1.532-.187-2.196.095-.38.01-.793-.267-1.07l-2.794-2.799" /></svg>