<svg id="ufoAbduction" xmlns="http://www.w3.org/2000/svg" fill="none" viewBox="0 0 24 24"><path stroke="currentColor" stroke-linecap="round" stroke-linejoin="round" stroke-width="1.5" d="m12.935 17.585.464.886m-.464-.886-3.543 1.856m3.543-1.856-.232-.443m-2.847 3.185-.464-.886m0 0-.232-.443m3.27-4.534 1.35.422m2.016-8.651a4.002 4.002 0 0 0-7.594.006m7.594-.006c.132.397.204.823.204 1.265 0 0-1.5.5-4 .5s-4-.5-4-.5c0-.44.071-.863.202-1.26m7.594-.005.204.033c2.391.345 4 .992 4 1.732 0 .84-2.068 1.558-5 1.855M8.202 6.24 8 6.268C5.609 6.613 4 7.26 4 8c0 .84 2.068 1.558 5 1.855m0 0c.926.093 1.94.145 3 .145s2.074-.052 3-.145m-6 0L7 17m8-7.145L17 17m-7.84 1.998-.232-.443L12.47 16.7l.232.442M9.16 18.999l3.543-1.856" /></svg>