<svg id="union" xmlns="http://www.w3.org/2000/svg" fill="none" viewBox="0 0 24 24"><path stroke="currentColor" stroke-linecap="round" stroke-linejoin="round" stroke-width="1.5" d="M16 8h2c.463 0 .9.105 1.292.292M16 8V6c0-.462-.104-.9-.29-1.29M16 8l5 5m-5-5-5-5M8 18v-2H6m2 2 3 3m-3-3a3 3 0 0 0 3 3m0 0h3m0 0L3 10m11 11h3M3 10v3m0-3V7m3 9-3-3m3 3a3 3 0 0 1-3-3m0-6V6c0-.572.16-1.107.438-1.562M3 7l14 14m0 0h1c.572 0 1.107-.16 1.562-.438m0 0L3.438 4.438m16.124 16.124a3 3 0 0 0 1.31-1.69M3.438 4.438c.38-.621.98-1.094 1.69-1.31m15.744 15.744A3 3 0 0 0 21 18v-2m-.128 2.872L5.129 3.129m0 0A3 3 0 0 1 6 3h2m0 0 13 13M8 3h3m10 13v-3m0 0v-2c0-.462-.105-.9-.291-1.292M11 3h2c.462 0 .9.105 1.291.291m5 5c.62.297 1.122.798 1.418 1.417m-1.417-1.416 1.416 1.416M15.71 4.71a3 3 0 0 0-1.418-1.418M15.71 4.71l-1.418-1.418" /></svg>