<svg id="usb" xmlns="http://www.w3.org/2000/svg" fill="none" viewBox="0 0 24 24"><path stroke="currentColor" stroke-linecap="round" stroke-linejoin="round" stroke-width="1.5" d="M15.672 15.672A2 2 0 1 0 18.5 18.5a2 2 0 0 0-2.828-2.828m0 0L15 15m.672.672-.17-.243c-.437-.623-.655-.934-.745-1.288a2 2 0 0 1-.058-.356c-.025-.364.084-.728.303-1.457l.584-1.95c.062-.204.092-.306.111-.404a2 2 0 0 0-.438-1.676A4 4 0 0 0 14.964 8v0M8 14.964l.32.326c.722.735 1.082 1.102 1.536 1.254q.224.075.459.097c.477.042.955-.149 1.91-.531L15 15m-7-.036a1.413 1.413 0 0 1-2.009.027v0A1.413 1.413 0 0 1 6.001 13v0a1.41 1.41 0 0 1 1.99-.009l.027.027c.54.54.531 1.417-.018 1.946M15 15 8 8m0 0L6.5 9.5l-1-4 4 1zm6.964 0L14 9l-2-2 2-2 2 2z" /></svg>