<svg id="userHexagon" xmlns="http://www.w3.org/2000/svg" fill="none" viewBox="0 0 24 24"><path stroke="currentColor" stroke-linecap="round" stroke-linejoin="round" stroke-width="1.5" d="m6.5 19.031 3.845 2.163a3.38 3.38 0 0 0 3.31 0l3.845-2.163m-11 0-1.78-1A3.38 3.38 0 0 1 3 15.088V8.91c0-1.219.658-2.343 1.72-2.941l5.625-3.164a3.38 3.38 0 0 1 3.31 0L19.28 5.97A3.38 3.38 0 0 1 21 8.91v6.178a3.38 3.38 0 0 1-1.72 2.941L17.5 19.03m-11 0C8.146 17.528 9.69 17 12 17s3.854.528 5.5 2.031M16 10a4 4 0 1 1-8 0 4 4 0 0 1 8 0" /></svg>