<svg id="userSquare" xmlns="http://www.w3.org/2000/svg" fill="none" viewBox="0 0 24 24"><path stroke="currentColor" stroke-linecap="round" stroke-linejoin="round" stroke-width="1.5" d="M18 21c0-1.379-.632-2.74-1.91-3.256C15.002 17.304 13.653 17 12 17s-3.003.304-4.09.744C6.632 18.26 6 19.62 6 21m12 0H6m12 0a3 3 0 0 0 3-3V8.4c0-2.25 0-3.375-.573-4.163a3 3 0 0 0-.664-.664C18.975 3 17.85 3 15.6 3H8.4c-2.25 0-3.375 0-4.163.573a3 3 0 0 0-.664.664C3 5.025 3 6.15 3 8.4V18a3 3 0 0 0 3 3v0m10-11a4 4 0 1 1-8 0 4 4 0 0 1 8 0" /></svg>