<svg id="usersSwap" xmlns="http://www.w3.org/2000/svg" fill="none" viewBox="0 0 24 24"><path stroke="currentColor" stroke-linecap="round" stroke-linejoin="round" stroke-width="1.5" d="M15.5 19h2a3 3 0 0 0 3-3m-5 3 1.5-1.5M15.5 19l1.5 1.5M8.5 5h-2a3 3 0 0 0-3 3m5-3L7 6.5M8.5 5 7 3.5m3.5 16.25c0-.804-.368-1.598-1.114-1.9-.635-.256-1.422-.433-2.386-.433s-1.751.177-2.386.433c-.746.302-1.114 1.096-1.114 1.9m17-7c0-.804-.369-1.598-1.114-1.9-.634-.256-1.422-.433-2.386-.433s-1.751.177-2.386.433c-.746.302-1.114 1.096-1.114 1.9m-4.167.583a2.333 2.333 0 1 1-4.666 0 2.333 2.333 0 0 1 4.666 0m10-7a2.333 2.333 0 1 1-4.666 0 2.333 2.333 0 0 1 4.666 0" /></svg>