<svg id="ussEnterprise" xmlns="http://www.w3.org/2000/svg" fill="none" viewBox="0 0 24 24"><path stroke="currentColor" stroke-linecap="round" stroke-linejoin="round" stroke-width="1.5" d="M11.186 10.356c.237.56.584 1.084 1.04 1.54s.98.802 1.54 1.04m-2.58-2.58a4.866 4.866 0 0 1 7.918-5.34 4.864 4.864 0 0 1-5.339 7.92m-2.58-2.58-1.948 1.949m4.528.63-1.949 1.95m-3.238.659a1.824 1.824 0 0 1 0-2.58l.659-.66m-.66 3.24a1.824 1.824 0 0 0 2.58 0l.66-.66m-3.24.66-1.72 1.72m1.29-7.31-2.35 2.35m-3.668 3.67 3.668-3.67m8.37 3.67-2.35 2.35m-3.67 3.668 3.67-3.668m0-3.44v3.44m-2.58-6.02h-3.44m10.728-4.708a1.216 1.216 0 1 1-1.72 1.72 1.216 1.216 0 0 1 1.72-1.72" /></svg>