<svg id="vacuum" xmlns="http://www.w3.org/2000/svg" fill="none" viewBox="0 0 24 24"><path stroke="currentColor" stroke-linecap="round" stroke-linejoin="round" stroke-width="1.5" d="M18 18h.806c.732 0 1.4.413 1.728 1.068v0a.644.644 0 0 1-.576.932H18a1 1 0 0 1-1-1v0a1 1 0 0 1 1-1m0 0L15.21 7.769a3 3 0 0 0-.773-1.332L13 5a2.83 2.83 0 0 0-4 0v0a2.83 2.83 0 0 0 0 4l4.379 4.379c.398.398.621.937.621 1.5v.621a1.5 1.5 0 0 1-1.5 1.5v0m0 0-2.121-2.121A3 3 0 0 0 8.257 14H6a3 3 0 0 0-3 3v1a1 1 0 0 0 1 1v0m8.5-2-.17.342A3 3 0 0 1 9.645 19H8m0 0a2 2 0 1 1-4 0m4 0a2 2 0 1 0-4 0" /></svg>