<svg id="verticalPitch" xmlns="http://www.w3.org/2000/svg" fill="none" viewBox="0 0 24 24"><path stroke="currentColor" stroke-linecap="round" stroke-linejoin="round" stroke-width="1.5" d="M12.012 22 12 20m0-4v-2m0-4V8m0-6v2m-2 1H7.561c-.658 0-.988 0-1.235.159a1 1 0 0 0-.215.187c-.192.222-.239.548-.332 1.2l-1.485 10.4c-.121.843-.181 1.266.003 1.57q.09.15.223.258c.276.226.703.226 1.555.226H10m4.5-14h1.939c.658 0 .988 0 1.235.159q.12.078.215.187c.192.222.239.548.332 1.2l1.485 10.4c.121.843.181 1.266-.003 1.57q-.09.15-.223.258c-.276.226-.703.226-1.555.226H14.5" /></svg>