<svg id="vespa" xmlns="http://www.w3.org/2000/svg" fill="none" viewBox="0 0 24 24"><path stroke="currentColor" stroke-linecap="round" stroke-linejoin="round" stroke-width="1.5" d="M13 6h2l1.5 2.5M18 11l-1.5-2.5M18 11a4 4 0 0 1 3 1.354M18 11a4 4 0 0 0-3.603 2.26c-.445.92-.668 1.38-.846 1.523a.7.7 0 0 1-.19.118C13.156 15 12.837 15 12.2 15H10m6.5-6.5L17 7h1M4.651 14.236a2 2 0 1 0 3.837.548m-3.837-.548a2 2 0 0 1 3.837.548m-3.837-.548 3.837.548m-3.837-.548c-.947-.136-1.697-.982-1.31-1.856A4 4 0 0 1 7 10h1.6a1.4 1.4 0 0 1 1.4 1.4V15m-1.512-.216L10 15m10 0a2 2 0 1 1-4 0 2 2 0 0 1 4 0" /></svg>