<svg id="videoSettings1" xmlns="http://www.w3.org/2000/svg" fill="none" viewBox="0 0 24 24"><path stroke="currentColor" stroke-linecap="round" stroke-linejoin="round" stroke-width="1.5" d="M21 11V9.4c0-2.25 0-3.375-.573-4.163a3 3 0 0 0-.664-.664C18.975 4 17.85 4 15.6 4H8.4c-2.25 0-3.375 0-4.163.573a3 3 0 0 0-.664.664C3 6.025 3 7.15 3 9.4v1.2c0 2.25 0 3.375.573 4.163q.28.385.664.664C5.025 16 6.15 16 8.4 16H11m6.5 4a3.5 3.5 0 0 1-3.5-3.5v0c0-.756.899-.938 1.433-.404l.572.572c.46.46 1.204.46 1.663 0v0c.46-.459.46-1.203 0-1.663l-.572-.572c-.534-.534-.352-1.433.404-1.433v0a3.5 3.5 0 0 1 3.48 3.88c-.076.697.014 1.451.51 1.947l.342.341c.459.46.459 1.204 0 1.664v0a1.18 1.18 0 0 1-1.664 0l-.34-.341c-.497-.497-1.251-.587-1.949-.511q-.186.02-.379.02m-8-10.898v1.796c0 1.215 0 1.823.33 2.12a1 1 0 0 0 .358.209c.422.138.95-.163 2.005-.766l1.572-.898c1.07-.611 1.604-.917 1.697-1.354a1 1 0 0 0 0-.418c-.093-.437-.628-.743-1.697-1.354l-1.572-.898c-1.055-.603-1.582-.904-2.005-.766a1 1 0 0 0-.358.208c-.33.298-.33.906-.33 2.12" /></svg>