<svg id="videoSettings11" xmlns="http://www.w3.org/2000/svg" fill="none" viewBox="0 0 24 24"><path stroke="currentColor" stroke-linecap="round" stroke-linejoin="round" stroke-width="1.5" d="M14 5.372c0-.346 0-.519-.042-.66a1 1 0 0 0-.67-.67C13.147 4 12.974 4 12.628 4h-1.257c-.345 0-.518 0-.659.042a1 1 0 0 0-.67.67c-.042.141-.042.314-.042.66v0c0 .258 0 .388-.02.485a.87.87 0 0 1-.335.567c-.076.065-.227.148-.53.313a6 6 0 0 0-.229.133c-.294.18-.441.269-.535.303a.87.87 0 0 1-.66.007c-.094-.032-.206-.096-.43-.226v0c-.3-.173-.45-.26-.594-.293a1 1 0 0 0-.914.245c-.108.1-.194.25-.367.55l-.628 1.087c-.173.3-.26.45-.294.594a1 1 0 0 0 .245.914c.101.107.251.194.551.367v0c.225.13.337.195.412.26a.88.88 0 0 1 .323.574c.018.099.014.27.006.614a6 6 0 0 0 0 .268c.008.343.012.515-.006.614a.88.88 0 0 1-.323.573c-.075.066-.187.131-.412.26v0c-.3.174-.45.26-.55.368a1 1 0 0 0-.246.914c.034.143.12.293.294.594l.628 1.087c.173.3.26.45.367.55a1 1 0 0 0 .914.245c.143-.033.293-.12.593-.293v0c.225-.13.337-.194.432-.226a.87.87 0 0 1 .659.007c.094.034.24.124.535.303q.114.069.23.133c.302.165.453.248.529.313.2.168.284.31.335.567.02.097.02.227.02.485v0c0 .346 0 .519.042.66a1 1 0 0 0 .67.67c.141.042.314.042.66.042h1.257c.345 0 .518 0 .659-.042a1 1 0 0 0 .67-.67c.042-.141.042-.314.042-.66v0c0-.258 0-.388.02-.485a.87.87 0 0 1 .335-.567c.076-.065.227-.148.53-.313q.115-.064.229-.133c.294-.18.441-.269.535-.303a.87.87 0 0 1 .66-.007c.094.032.206.096.43.226v0c.3.173.45.26.594.293a1 1 0 0 0 .914-.245c.108-.1.194-.25.367-.55l.628-1.087c.173-.3.26-.45.294-.594a1 1 0 0 0-.245-.914c-.101-.107-.251-.194-.552-.367v0c-.224-.13-.336-.195-.411-.26a.87.87 0 0 1-.323-.574c-.018-.099-.014-.27-.006-.614a6 6 0 0 0 0-.268c-.008-.343-.012-.515.006-.614a.87.87 0 0 1 .323-.573c.075-.066.187-.131.412-.26v0c.3-.174.45-.26.55-.368a1 1 0 0 0 .246-.914c-.034-.143-.12-.293-.294-.594l-.628-1.087c-.173-.3-.26-.45-.367-.55a1 1 0 0 0-.914-.245c-.143.033-.293.12-.593.293v0c-.225.13-.337.194-.432.226a.87.87 0 0 1-.659-.007c-.094-.034-.24-.124-.535-.303a6 6 0 0 0-.23-.133c-.302-.165-.453-.248-.529-.313a.87.87 0 0 1-.335-.567C14 5.76 14 5.63 14 5.372" /><path stroke="currentColor" stroke-linecap="round" stroke-linejoin="round" stroke-width="1.5" d="M10.25 12c0 1.08 0 1.62.26 1.906a1 1 0 0 0 .544.308c.38.076.842-.202 1.768-.758v0c.881-.528 1.322-.792 1.437-1.15a1 1 0 0 0 0-.612c-.116-.358-.556-.622-1.437-1.15v0c-.926-.556-1.389-.834-1.768-.758a1 1 0 0 0-.544.308c-.26.286-.26.826-.26 1.906" /></svg>