<svg id="videoCall" xmlns="http://www.w3.org/2000/svg" fill="none" viewBox="0 0 24 24"><path stroke="currentColor" stroke-linecap="round" stroke-linejoin="round" stroke-width="1.5" d="M4 13c0 .932 0 1.398.152 1.765a2 2 0 0 0 1.083 1.083C5.602 16 6.068 16 7 16h3m-6-3V7.6c0-1.5 0-2.25.382-2.776a2 2 0 0 1 .442-.442C5.35 4 6.1 4 7.6 4H12m-8 9h16m0 0c0 .932 0 1.398-.152 1.765a2 2 0 0 1-1.083 1.083C18.398 16 17.932 16 17 16h-3m6-3v-2m-10 5v4m0-4h4m-4 4h4m-4 0H7m7 0v-4m0 4h3m3-14 2-2v5l-2-2m0-1v1m0-1v-.2c0-.75 0-1.125-.191-1.388a1 1 0 0 0-.221-.221C19.325 4 18.95 4 18.2 4h-2.4c-.75 0-1.125 0-1.388.191a1 1 0 0 0-.221.221C14 4.675 14 5.05 14 5.8v1.4c0 .75 0 1.125.191 1.388a1 1 0 0 0 .221.221C14.675 9 15.05 9 15.8 9h2.4c.75 0 1.125 0 1.388-.191a1 1 0 0 0 .221-.221C20 8.325 20 7.95 20 7.2V7" /></svg>