<svg id="videoSettings" xmlns="http://www.w3.org/2000/svg" fill="none" viewBox="0 0 24 24"><path stroke="currentColor" stroke-linecap="round" stroke-linejoin="round" stroke-width="1.5" d="M21 13.5v-2.1c0-2.25 0-3.375-.573-4.163a3 3 0 0 0-.664-.664C18.975 6 17.85 6 15.6 6H8.4c-2.25 0-3.375 0-4.163.573a3 3 0 0 0-.664.664C3 8.025 3 9.15 3 11.4v1.2c0 2.25 0 3.375.573 4.163.185.255.409.479.664.664C5.025 18 6.15 18 8.4 18h4.1m2.5 0h1m0 0c0-.552.224-1.052.586-1.414M16 18c0 .552.224 1.052.586 1.414M18 21v-1m0 0a2 2 0 0 1-1.414-.586M18 20c.552 0 1.052-.224 1.414-.586M20 18h1m-1 0c0 .552-.224 1.052-.586 1.414M20 18c0-.552-.224-1.052-.586-1.414M18 16v-1m0 1c-.552 0-1.052.224-1.414.586M18 16c.552 0 1.052.224 1.414.586m-2.828 0-.707-.707m.707 3.535-.707.707m3.535-.707.707.707m-.707-3.535.707-.707M9.5 11.102v1.796c0 1.215 0 1.823.33 2.12a1 1 0 0 0 .358.209c.422.138.95-.163 2.005-.766l1.572-.898c1.07-.611 1.604-.917 1.697-1.354a1 1 0 0 0 0-.418c-.093-.437-.628-.743-1.697-1.354l-1.572-.898c-1.055-.603-1.582-.904-2.005-.766a1 1 0 0 0-.358.208c-.33.298-.33.906-.33 2.12" /></svg>