<svg id="virus" xmlns="http://www.w3.org/2000/svg" fill="none" viewBox="0 0 24 24"><path stroke="currentColor" stroke-linecap="round" stroke-linejoin="round" stroke-width="1.5" d="M18 12a5.98 5.98 0 0 0-1.757-4.243M18 12a5.98 5.98 0 0 1-1.757 4.243M18 12h3m-9 6a5.98 5.98 0 0 0 4.243-1.757M12 18a5.98 5.98 0 0 1-4.243-1.757M12 18v3m-6-9c0-1.657.672-3.157 1.757-4.243M6 12a5.98 5.98 0 0 0 1.757 4.243M6 12H3m9-6a5.98 5.98 0 0 0-4.243 1.757M12 6a5.98 5.98 0 0 1 4.243 1.757M12 6V3m0 0h-1m1 0h1m-1 18h-1m1 0h1m5.364-15.364-2.121 2.121m2.121-2.121.707.707m-.707-.707-.707-.707M5.636 18.364l2.121-2.121m-2.121 2.121-.707-.707m.707.707.707.707M5.636 5.636l2.121 2.121M5.636 5.636l-.707.707m.707-.707.707-.707m12.021 13.435-2.121-2.121m2.121 2.121-.707.707m.707-.707.707-.707M3 12v-1m0 1v1m18-1v-1m0 1v1" /></svg>