<svg id="volumeMuted" xmlns="http://www.w3.org/2000/svg" fill="none" viewBox="0 0 24 24"><path stroke="currentColor" stroke-linecap="round" stroke-linejoin="round" stroke-width="1.5" d="M6 8h-.4c-1.5 0-2.25 0-2.776.382a2 2 0 0 0-.442.442C2 9.35 2 10.1 2 11.6v.8c0 1.5 0 2.25.382 2.776q.187.256.442.442C3.35 16 4.1 16 5.6 16H6m0-8 3.527-2.015c.418-.24.627-.359.785-.417a2 2 0 0 1 2.66 1.544C13 7.278 13 7.52 13 8M6 8v8m0 0 3.527 2.015c.418.24.627.359.785.416a2 2 0 0 0 2.66-1.543C13 16.722 13 16.48 13 16m-2-6 2 2m0 0-2 2m2-2 2-2m-2 2 2 2" /></svg>