<svg id="volumeOne" xmlns="http://www.w3.org/2000/svg" fill="none" viewBox="0 0 24 24"><path stroke="currentColor" stroke-linecap="round" stroke-linejoin="round" stroke-width="1.5" d="M6 8h-.4c-1.5 0-2.25 0-2.776.382a2 2 0 0 0-.442.442C2 9.35 2 10.1 2 11.6v.8c0 1.5 0 2.25.382 2.776q.187.256.442.442C3.35 16 4.1 16 5.6 16H6m0-8 1.614-.922c2.11-1.206 3.165-1.809 4.01-1.532a2 2 0 0 1 .717.416C13 6.558 13 7.773 13 10.203v3.594c0 2.43 0 3.645-.66 4.24-.207.188-.451.33-.717.417-.844.277-1.899-.326-4.01-1.532L6 16m0-8v8m10.064-6.571a4 4 0 0 1-.045 5.195" /></svg>