<svg id="vpnSystem" xmlns="http://www.w3.org/2000/svg" fill="none" viewBox="0 0 24 24"><path stroke="currentColor" stroke-linecap="round" stroke-linejoin="round" stroke-width="1.5" d="m4.5 9 2 6 2-6m2 6v-2.5m0 0V9h1.25c.966 0 1.75.784 1.75 1.75v0a1.75 1.75 0 0 1-1.75 1.75zm5 2.5V9l3 6V9m3.5 3V5.452c0-.461-.312-.862-.758-.98-1.792-.471-6.312-1.738-8.628-3.076a1.23 1.23 0 0 0-1.228 0C9.07 2.734 4.55 4.001 2.758 4.472a1.014 1.014 0 0 0-.758.98V12c0 6.118 5.913 7.721 9.264 10.359a1.2 1.2 0 0 0 1.472 0C16.087 19.72 22 18.118 22 12" /></svg>