<svg id="wallet" xmlns="http://www.w3.org/2000/svg" fill="none" viewBox="0 0 24 24"><path stroke="currentColor" stroke-linecap="round" stroke-linejoin="round" stroke-width="1.5" d="M20 12v-1.6c0-2.25 0-3.375-.573-4.163a3 3 0 0 0-.664-.664C17.975 5 16.85 5 14.6 5H6a2 2 0 0 0-2 2v0m16 5a3 3 0 0 0-3-3H6a2 2 0 0 1-2-2v0m16 5h-4a2 2 0 0 0-2 2v0a2 2 0 0 0 2 2h4m0-4a1.5 1.5 0 0 1 1.5 1.5v1A1.5 1.5 0 0 1 20 16v0M4 7v6.6c0 2.25 0 3.375.573 4.163.185.255.409.479.664.664C6.025 19 7.15 19 9.4 19H17a3 3 0 0 0 3-3v0" /></svg>