<svg id="wall" xmlns="http://www.w3.org/2000/svg" fill="none" viewBox="0 0 24 24"><path stroke="currentColor" stroke-linecap="round" stroke-linejoin="round" stroke-width="1.5" d="M12 21v-4.5m0 4.5H6a3 3 0 0 1-3-3v-1.5m9 4.5h6a3 3 0 0 0 3-3v-1.5M7.5 3H6a3 3 0 0 0-3 3v1.5M7.5 3v4.5m0-4.5h9m0 0H18a3 3 0 0 1 3 3v1.5M16.5 3v4.5M3 12h4.5M3 12V7.5M3 12v4.5M7.5 12H12m-4.5 0v4.5M12 12h4.5M12 12V7.5m4.5 4.5H21m-4.5 0v4.5M21 12V7.5m0 4.5v4.5m0-9h-4.5m0 0H12m0 0H7.5m0 0H3m0 9h4.5m0 0H12m0 0h4.5m0 0H21" /></svg>