<svg id="warHammer" xmlns="http://www.w3.org/2000/svg" fill="none" viewBox="0 0 24 24"><g clip-path="url(#clip0_1556_84681)"><path stroke="currentColor" stroke-linecap="round" stroke-linejoin="round" stroke-width="1.5" d="m11.996 12 3.536 3.536M11.996 12 8 16H6l-4-4v-2l8-8h1.996L16 6v2zm3.536 3.536a1 1 0 0 0 0 1.414L17.58 19A1.004 1.004 0 0 0 19 19v0m-3.468-3.464a1 1 0 0 1 1.414 0l2.049 2.049c.39.39.392 1.022.005 1.415v0m0 0 .5.5" /></g><defs><clipPath id="clip0_1556_84681"><path fill="white" d="M0 0h24v24H0z" /></clipPath></defs></svg>
