<svg id="watch" xmlns="http://www.w3.org/2000/svg" fill="none" viewBox="0 0 24 24"><path stroke="currentColor" stroke-linecap="round" stroke-linejoin="round" stroke-width="1.5" d="M9.879 9.879 12 12h2.121m-7.917-1.554a6 6 0 0 0 1.553 5.797 6 6 0 0 0 5.797 1.553m-7.35-7.35a6 6 0 0 1 1.553-2.689 6 6 0 0 1 2.69-1.553m-4.243 4.242L2.808 7.05 7.05 2.808l3.396 3.396m0 0a6 6 0 0 1 5.797 1.553 6 6 0 0 1 1.553 5.797m-4.242 4.242a6 6 0 0 0 2.689-1.553 6 6 0 0 0 1.553-2.69m-4.242 4.243 3.396 3.396 4.242-4.242-3.396-3.396" /></svg>