<svg id="wave1" xmlns="http://www.w3.org/2000/svg" fill="none" viewBox="0 0 24 24"><path stroke="currentColor" stroke-linecap="round" stroke-linejoin="round" stroke-width="1.5" d="m2 20 1.151-.329a8.55 8.55 0 0 1 4.698 0v0a8.6 8.6 0 0 0 2.348.329H22M2 17l1.133-.486a6 6 0 0 1 4.734 0v0c.747.32 1.553.486 2.366.486H22m0-3H12a1.96 1.96 0 0 1-1.414-.586 2 2 0 0 1 .9-3.347m1.928.519-.04-.04m4.283-4.203-.065-.064m-2.056 2.185A5 5 0 0 0 14 7.416M2 14l.127-.062c1.157-.56 1.772-1.81 1.955-3.082a7.96 7.96 0 0 1 2.261-4.513A8 8 0 0 1 8.5 4.803M5.6 14c1.113-.303 1.49-1.594 1.668-2.733.16-1.026.407-2.013 1.196-2.802A5 5 0 0 1 9.5 7.667M12 7q-.145 0-.292.008M15.5 4.804a8 8 0 0 0-.26-.121M13 4.063a8 8 0 0 0-2 0" /></svg>