<svg id="weight" xmlns="http://www.w3.org/2000/svg" fill="none" viewBox="0 0 24 24"><path stroke="currentColor" stroke-linecap="round" stroke-linejoin="round" stroke-width="1.5" d="M12 7a2 2 0 0 1-2-2v0a2 2 0 0 1 2-2v0a2 2 0 0 1 2 2v0a2 2 0 0 1-2 2m0 0v3m0 0H8.679c-1.143 0-1.714 0-2.17.256a2 2 0 0 0-.41.305c-.376.363-.54.91-.869 2.005l-.84 2.8c-.561 1.872-.842 2.808-.5 3.51a2 2 0 0 0 .442.594c.575.53 1.552.53 3.507.53h8.323c1.954 0 2.931 0 3.506-.53a2 2 0 0 0 .442-.594c.342-.702.061-1.638-.5-3.51l-.84-2.8c-.329-1.095-.493-1.642-.87-2.005a2 2 0 0 0-.409-.305C17.035 10 16.464 10 15.321 10z" /><path fill="currentColor" d="m10.328 17-1.494-2.226 1.422-2.046H11.7l-1.644 2.22-.005-.384L11.768 17zm-2.592 0v-4.272h1.2V17zm6.561.072q-.498 0-.924-.162a2.3 2.3 0 0 1-.738-.468 2.15 2.15 0 0 1-.66-1.578q0-.48.18-.882.186-.402.51-.696.33-.3.762-.462.432-.168.924-.168.594 0 1.062.204.474.204.768.552l-.81.81a1.6 1.6 0 0 0-.462-.384 1.2 1.2 0 0 0-.576-.126q-.318 0-.576.144-.258.138-.414.396-.15.258-.15.606t.138.612q.144.258.396.402t.588.144q.324 0 .546-.126a.8.8 0 0 0 .336-.36q.12-.234.12-.552l.822.522-1.986-.06v-.96h2.37v.18q0 .768-.282 1.308-.276.54-.78.822-.498.282-1.164.282" /></svg>