<svg id="wharehouse" xmlns="http://www.w3.org/2000/svg" fill="none" viewBox="0 0 24 24"><path stroke="currentColor" stroke-linecap="round" stroke-linejoin="round" stroke-width="1.5" d="M7 20c-.932 0-1.398 0-1.765-.152a2 2 0 0 1-1.083-1.083C4 18.398 4 17.932 4 17v-6.005c0-.865 0-1.297.162-1.674a2 2 0 0 1 .196-.354c.234-.337.6-.566 1.334-1.025l4.4-2.75c.822-.513 1.233-.77 1.685-.821q.223-.026.446 0c.452.05.863.308 1.685.821l4.4 2.75c.733.459 1.1.688 1.334 1.025q.116.167.196.354c.162.377.162.81.162 1.674V17c0 .932 0 1.398-.152 1.765a2 2 0 0 1-1.083 1.083C18.398 20 17.932 20 17 20v0M7 20h10M7 20v-2.5M17 20v-2.5m-10-3c0-.932 0-1.398.152-1.765a2 2 0 0 1 1.083-1.083c.367-.152.833-.152 1.765-.152h4c.932 0 1.398 0 1.765.152a2 2 0 0 1 1.083 1.083c.152.367.152.833.152 1.765v0m-10 0h10m-10 0v3m10-3v3m-10 0h10m-7-9h4" /></svg>