<svg id="wheat" xmlns="http://www.w3.org/2000/svg" fill="none" viewBox="0 0 24 24"><g clip-path="url(#clip0_1556_83071)"><path stroke="currentColor" stroke-linecap="round" stroke-linejoin="round" stroke-width="1.5" d="m18 18 3 3M10.071 8.657l-.465-.465a3 3 0 0 1-.451-3.665L10.07 3l.465.465a3 3 0 0 1 .451 3.665zM8.657 10.07l-.465-.465a3 3 0 0 0-3.665-.451L3 10.07l.465.465a3 3 0 0 0 3.665.451zm4.95 2.122-.465-.466a3 3 0 0 1-.452-3.664l.917-1.527.465.465a3 3 0 0 1 .45 3.664zm-1.415 1.414-.465-.465a3 3 0 0 0-3.664-.452l-1.527.917.465.465a3 3 0 0 0 3.664.45zm4.95 2.121-.465-.465a3 3 0 0 1-.451-3.665l.916-1.527.465.465a3 3 0 0 1 .451 3.665zm-1.414 1.414-.465-.465a3 3 0 0 0-3.665-.451l-1.527.916.465.465a3 3 0 0 0 3.665.451zM6.182 6.182H5.144a2 2 0 0 1-1.988-1.78L3 3l1.403.156a2 2 0 0 1 1.779 1.988z" /></g><defs><clipPath id="clip0_1556_83071"><path fill="white" d="M0 0h24v24H0z" /></clipPath></defs></svg>