<svg id="wheelRim" xmlns="http://www.w3.org/2000/svg" fill="none" viewBox="0 0 24 24"><path stroke="currentColor" stroke-linecap="round" stroke-linejoin="round" stroke-width="1.5" d="m3.622 7 2.401.827A3 3 0 0 0 10 4.99V2.5m-7.79 8.245 2.865.986a3 3 0 0 1 1.48 4.557l-1.753 2.506m3.256 2.323 1.485-2.12c1.194-1.706 3.72-1.706 4.915 0l1.482 2.117m3.268-2.307-1.764-2.519a3 3 0 0 1 1.481-4.557l2.895-.997m-1.283-3.789-2.56.882A3 3 0 0 1 14 4.99V2.5m8 9.5c0 5.523-4.477 10-10 10S2 17.523 2 12 6.477 2 12 2s10 4.477 10 10m-7 0a3 3 0 1 1-6 0 3 3 0 0 1 6 0" /></svg>