<svg id="whistle" xmlns="http://www.w3.org/2000/svg" fill="none" viewBox="0 0 24 24"><g clip-path="url(#clip0_1556_83149)"><path stroke="currentColor" stroke-linecap="round" stroke-linejoin="round" stroke-width="1.5" d="M12.1 15.485a6 6 0 0 1-8.485 0c-2.521-2.521-2.232-6.81.567-8.985m7.919 8.985 7.424 3.182L22 16.9l-7.778-7.78M12.1 15.485c.3-.328.9-1.185.9-1.985m-.193-5.793L11.5 9l.5.5 2.222-.379m-1.414-1.414 1.414 1.414m-1.414-1.414C11.333 6.232 9.702 5.123 7.5 5.253m0 0A6 6 0 0 0 4.182 6.5M7.5 5.253C7.5 4.081 6.784 3 5.5 3a2 2 0 0 0-2 2c0 .596.267 1.095.682 1.5M9 11.5a1.5 1.5 0 1 1-3 0 1.5 1.5 0 0 1 3 0" /></g><defs><clipPath id="clip0_1556_83149"><path fill="white" d="M0 0h24v24H0z" /></clipPath></defs></svg>