<svg id="whisk" xmlns="http://www.w3.org/2000/svg" fill="none" viewBox="0 0 24 24"><g clip-path="url(#clip0_1556_83085)"><path stroke="currentColor" stroke-linecap="round" stroke-linejoin="round" stroke-width="1.5" d="M14.121 14.121c.707-.707.1-6.97-2.828-9.9-2.929-2.928-5.826-2.659-7.778-.706M14.12 14.12c-.707.707-6.97.1-9.9-2.828-2.928-2.929-2.659-5.826-.706-7.778M14.12 14.12c.707-.707-2.02-4.849-4.95-7.778-2.928-2.929-4.875-3.61-5.656-2.828M14.12 14.12c-.707.707-4.849-2.02-7.778-4.95-2.929-2.928-3.61-4.875-2.828-5.656m9.9 12.728 4.242 4.242a2 2 0 0 0 2.828 0v0a2 2 0 0 0 0-2.828l-4.242-4.243" /></g><defs><clipPath id="clip0_1556_83085"><path fill="white" d="M0 0h24v24H0z" /></clipPath></defs></svg>