<svg id="windRose" xmlns="http://www.w3.org/2000/svg" fill="none" viewBox="0 0 24 24"><path stroke="currentColor" stroke-linecap="round" stroke-linejoin="round" stroke-width="1.5" d="M10.713 9.356 8 8l1.356 2.713m1.357-1.357L12 4.5l1.287 4.856m-2.574 0-.285 1.072-1.072.285m3.931-1.357L16 8l-1.356 2.713m-1.357-1.357.285 1.072 1.072.285m0 0L19.5 12l-4.856 1.287m0 0L16 16l-2.713-1.356m1.357-1.357-1.072.285-.285 1.072m0 0L12 19.5l-1.287-4.856m0 0L8 16l1.356-2.713m1.357 1.357-.285-1.072-1.072-.285m0 0L4.5 12l4.856-1.287M12 12h.01M22 12c0 5.523-4.477 10-10 10S2 17.523 2 12 6.477 2 12 2s10 4.477 10 10" /></svg>