<svg id="windTurbine" xmlns="http://www.w3.org/2000/svg" fill="none" viewBox="0 0 24 24"><path stroke="currentColor" stroke-linecap="round" stroke-linejoin="round" stroke-width="1.5" d="M11.225 12.844a1.99 1.99 0 0 0 1.95-.225m-1.95.225c-1.085 1.476-2.3 2.694-4.182 3.079L3 16.75l2.189-2.117a6 6 0 0 1 1.763-1.182L10.268 12m.957.844a2 2 0 0 1-.957-.844m0 0A2 2 0 0 1 11 9.268m0 0a2 2 0 0 1 1.618-.17M11 9.267c-.56-1.405-.696-2.9-.212-4.353L12.093 1l.739 2.954a6 6 0 0 1 .142 2.118l-.356 3.025m0 0a2 2 0 0 1 1.294 2.493m0 0c1.738.22 3.325.706 4.537 2.072l2.737 3.088-2.927-.837a6 6 0 0 1-1.905-.936l-3.18-2.358m.738-1.03a2 2 0 0 1-.738 1.03M10.5 16l-.5 6m0 0h4m-4 0H3m11 0-.5-6m.5 6h7" /></svg>