<svg id="worm" xmlns="http://www.w3.org/2000/svg" fill="none" viewBox="0 0 24 24"><path stroke="currentColor" stroke-linecap="round" stroke-linejoin="round" stroke-width="1.5" d="M13.054 8.535c-1.84.484-3.675 1.392-5.46 1.562-.96.092-1.914-.77-1.6-1.936.133-.49.659-1.275 2.17-1.98.745-.347 2.678-1.723 2.359-2.535-.32-.811-2.772-.751-3.517-.403-1.918.894-3.35 2.24-3.83 4.016-.885 3.272 1.709 6.307 4.674 6.024 1.876-.18 4.27-1.501 6.343-1.868m5.377-1.127c3.64 4.065-.12 11.793-6.19 10.585-2.054-.408-4.135-1.26-5.438-1.922-.735-.373-2.66-1.715-2.316-2.515.343-.8 2.224-1.06 3.559-.383 1.145.582 2.982 1.329 4.723 1.675 3.217.64 5.457-2.987 3.637-5.116m-2.2-.495c.23.072.458.175.674.297.5.283 1.165.271 1.546-.159l1.684-1.903c.34-.383.34-.97-.06-1.292-1.384-1.117-3.119-1.49-4.831-1.328-.59.055-.93.663-.74 1.224l.791 2.36c.137.408.526.671.936.8" /></svg>