<svg id="zipperHoodie" xmlns="http://www.w3.org/2000/svg" fill="none" viewBox="0 0 24 24"><path stroke="currentColor" stroke-linecap="round" stroke-linejoin="round" stroke-width="1.5" d="M6 11v8m6 3c-1.243 0-2.827-.274-4.056-.535C6.788 21.22 6 20.182 6 19v0m6 3c1.243 0 2.827-.274 4.056-.535C17.212 21.22 18 20.182 18 19v0m-6 3V6.5m6 4.5v8m0 0h2.049c.098 0 .147 0 .19-.004a1 1 0 0 0 .882-.747c.011-.042.02-.09.035-.187l.073-.433.04-.243a24 24 0 0 0-.252-8.974v0l-.026-.12a4 4 0 0 0-2.744-2.935l-.119-.035L17 5m0 0a3 3 0 0 0-3-3h-4a3 3 0 0 0-3 3v0m10 0s-1.144.858-3 1.276M7 5l-1.128.322-.119.035A4 4 0 0 0 3.009 8.29l-.026.12v0l-.051.24a24 24 0 0 0-.2 8.735l.04.243.072.432c.016.098.024.146.035.188a1 1 0 0 0 .882.747c.043.004.092.004.19.004H6M7 5s1.144.858 3 1.276m2 .224a9 9 0 0 1-2-.224m2 .224a9 9 0 0 0 2-.224m-4 0V9m0 0-.5.5.5 1zm4-2.724V9m0 0v1.5l.5-1z" /></svg>