<svg width="0" height="0" style="display: none;">
    <symbol width="120" height="120" viewBox="0 0 120 120" fill="none" xmlns="http://www.w3.org/2000/svg"
            id="Action">
        <rect width="120" height="120" rx="24" fill="#391A03" />
        <rect width="120" height="120" rx="24" fill="url(#paint0_linear_3494_34270)" fill-opacity="0.48" />
        <rect width="120" height="120" rx="24" fill="url(#paint1_radial_3494_34270)" fill-opacity="0.24"
              style="mix-blend-mode:plus-lighter" />
        <path d="M57 57L49.5 87L75 48H60L66 33H51L45 57H57Z" stroke="#FEEADD" stroke-width="4" stroke-linecap="round"
              stroke-linejoin="round" />
        <defs>
            <linearGradient id="paint0_linear_3494_34270" x1="60" y1="0" x2="60" y2="120"
                            gradientUnits="userSpaceOnUse">
                <stop stop-color="white" stop-opacity="0.01" offset="" />
                <stop offset="1" stop-color="white" stop-opacity="0.25" />
            </linearGradient>
            <radialGradient id="paint1_radial_3494_34270" cx="0" cy="0" r="1"
                            gradientUnits="userSpaceOnUse" gradientTransform="translate(60 120) scale(60)">
                <stop stop-color="white" stop-opacity="0.39" offset="" />
                <stop offset="0.4" stop-color="white" stop-opacity="0.25" />
                <stop offset="1" stop-color="white" stop-opacity="0" />
            </radialGradient>
        </defs>
    </symbol>
    <symbol width="120" height="120" viewBox="0 0 120 120" fill="none" xmlns="http://www.w3.org/2000/svg"
            id="Action_and_Adventure">
        <rect width="120" height="120" rx="24" fill="#132819" />
        <rect width="120" height="120" rx="24" fill="url(#paint0_linear_3494_34257)" fill-opacity="0.48" />
        <rect width="120" height="120" rx="24" fill="url(#paint1_radial_3494_34257)" fill-opacity="0.24"
              style="mix-blend-mode:plus-lighter" />
        <path d="M57 57L49.5 87L75 48H60L66 33H51L45 57H57Z" stroke="#E5FBEB" stroke-width="4" stroke-linecap="round"
              stroke-linejoin="round" />
        <defs>
            <linearGradient id="paint0_linear_3494_34257" x1="60" y1="0" x2="60" y2="120"
                            gradientUnits="userSpaceOnUse">
                <stop stop-color="white" stop-opacity="0.01" offset="" />
                <stop offset="1" stop-color="white" stop-opacity="0.25" />
            </linearGradient>
            <radialGradient id="paint1_radial_3494_34257" cx="0" cy="0" r="1"
                            gradientUnits="userSpaceOnUse" gradientTransform="translate(60 120) scale(60)">
                <stop stop-color="white" stop-opacity="0.39" offset="" />
                <stop offset="0.4" stop-color="white" stop-opacity="0.25" />
                <stop offset="1" stop-color="white" stop-opacity="0" />
            </radialGradient>
        </defs>
    </symbol>
    <symbol width="120" height="120" viewBox="0 0 120 120" fill="none" xmlns="http://www.w3.org/2000/svg"
            id="Adventure">
        <rect width="120" height="120" rx="24" fill="#26231C" />
        <rect width="120" height="120" rx="24" fill="url(#paint0_linear_3494_34265)"
              fill-opacity="0.48" />
        <rect width="120" height="120" rx="24" fill="url(#paint1_radial_3494_34265)"
              fill-opacity="0.24" style="mix-blend-mode:plus-lighter" />
        <path
                d="M33.9048 30C25.4285 30.1679 33.6613 51.9538 34.4993 55.4994L40.4993 56.9993L41.9993 71.9993L37.4993 62.9993L34.4993 61.4994C33.7598 65.4476 25.5084 89.9986 33.9048 89.9994M33.9048 30C38.9993 30.8363 36.9404 36.1761 35.9993 38.9994C52.0771 40.1936 68.0234 40.3438 84.1164 38.9994C83.1112 36.2024 80.9993 30.7147 86.0916 30M33.9048 30C51.3158 33.2193 68.5859 32.6637 86.0916 30M86.0916 30C94.7617 30.1654 87.8232 54.7859 86.9993 58.4995C85.8763 63.5605 94.6566 90.0254 86.0841 89.9994M33.9048 89.9994C38.9993 89.5203 36.7427 84.3488 35.2785 81.9504C50.9993 79.4995 68.9993 80.9995 84.7201 81.9504C83.234 84.3848 80.9993 89.5643 86.0841 89.9994M33.9048 89.9994C51.3518 88.1639 68.6089 88.3646 86.0841 89.9994M71.9993 47.9995L76.4993 52.4995M80.9993 56.9995L76.4993 52.4995M76.4993 52.4995L80.9993 47.9995M76.4993 52.4995L71.9993 56.9995M68.2393 51.9544L65.4926 50.4546M59.9991 48.9548H57.2523M51.7588 51.9544L50.3854 53.4542M49.012 59.4534V62.453M51.7588 68.4522L54.5055 69.952M61.3724 72.9516H64.1192M70.9861 73.4994L73.4993 74.9995M77.853 78.9508L79.4993 80.9995"
                stroke="#F7F4E7" stroke-width="4" stroke-linecap="round" stroke-linejoin="round" />
        <defs>
            <linearGradient id="paint0_linear_3494_34265" x1="60" y1="0" x2="60"
                            y2="120" gradientUnits="userSpaceOnUse">
                <stop stop-color="white" stop-opacity="0.01" offset="" />
                <stop offset="1" stop-color="white" stop-opacity="0.25" />
            </linearGradient>
            <radialGradient id="paint1_radial_3494_34265" cx="0" cy="0" r="1"
                            gradientUnits="userSpaceOnUse" gradientTransform="translate(60 120) scale(60)">
                <stop stop-color="white" stop-opacity="0.39" offset="" />
                <stop offset="0.4" stop-color="white" stop-opacity="0.25" />
                <stop offset="1" stop-color="white" stop-opacity="0" />
            </radialGradient>
        </defs>
    </symbol>
    <symbol width="120" height="120" viewBox="0 0 120 120" fill="none" xmlns="http://www.w3.org/2000/svg"
            id="Animation">
        <rect width="120" height="120" rx="24" fill="#072830" />
        <rect width="120" height="120" rx="24" fill="url(#paint0_linear_3494_34275)"
              fill-opacity="0.48" />
        <rect width="120" height="120" rx="24" fill="url(#paint1_radial_3494_34275)"
              fill-opacity="0.24" style="mix-blend-mode:plus-lighter" />
        <path
                d="M44.7643 69.252C43.0683 69.1769 41.3476 69.7869 40.0525 71.0819C37.6043 73.5301 35.6197 82.1639 36.7279 83.2721C37.8361 84.3803 46.4699 82.3957 48.9181 79.9475C50.242 78.6235 50.85 76.8547 50.7419 75.1222M44.7643 69.252C46.2744 69.3189 47.765 69.9289 48.9181 71.0819C50.0423 72.2061 50.6502 73.6511 50.7419 75.1222M44.7643 69.252C46.1111 66.9048 51.1344 60 60 51.1345C66.1192 45.0153 73.2943 40.6559 78.6101 38.0563C80.9304 36.9217 83.0783 39.0696 81.9436 41.3899C79.3441 46.7057 74.9848 53.8808 68.8656 60C60 68.8655 53.0892 73.7755 50.7419 75.1222M57.7836 44.4853L51.1344 37.8361C48.6863 35.388 44.717 35.388 42.2689 37.8361L37.8361 42.2689C35.388 44.717 35.388 48.6863 37.8361 51.1344L44.4853 57.7836M75.5147 62.2164L82.1639 68.8656C84.612 71.3137 84.612 75.283 82.1639 77.7311L77.7311 82.1639C75.283 84.612 71.3137 84.612 68.8656 82.1639L62.2164 75.5147"
                stroke="#E1F8FA" stroke-width="4" stroke-linecap="round" stroke-linejoin="round" />
        <defs>
            <linearGradient id="paint0_linear_3494_34275" x1="60" y1="0" x2="60"
                            y2="120" gradientUnits="userSpaceOnUse">
                <stop stop-color="white" stop-opacity="0.01" offset="" />
                <stop offset="1" stop-color="white" stop-opacity="0.25" />
            </linearGradient>
            <radialGradient id="paint1_radial_3494_34275" cx="0" cy="0" r="1"
                            gradientUnits="userSpaceOnUse" gradientTransform="translate(60 120) scale(60)">
                <stop stop-color="white" stop-opacity="0.39" offset="" />
                <stop offset="0.4" stop-color="white" stop-opacity="0.25" />
                <stop offset="1" stop-color="white" stop-opacity="0" />
            </radialGradient>
        </defs>
    </symbol>
    <symbol width="120" height="120" viewBox="0 0 120 120" fill="none" xmlns="http://www.w3.org/2000/svg"
            id="Comedy">
        <rect width="120" height="120" rx="24" fill="#301A3A" />
        <rect width="120" height="120" rx="24" fill="url(#paint0_linear_3494_34269)"
              fill-opacity="0.48" />
        <rect width="120" height="120" rx="24" fill="url(#paint1_radial_3494_34269)"
              fill-opacity="0.24" style="mix-blend-mode:plus-lighter" />
        <path
                d="M51 51V57M69 51V57M84 60C84 73.2548 73.2548 84 60 84C46.7452 84 36 73.2548 36 60C36 46.7452 46.7452 36 60 36C73.2548 36 84 46.7452 84 60ZM48 66H60H72C72 66 70.5 76.5 60 76.5C49.5 76.5 48 66 48 66Z"
                stroke="#F7ECFC" stroke-width="4" stroke-linecap="round" stroke-linejoin="round" />
        <defs>
            <linearGradient id="paint0_linear_3494_34269" x1="60" y1="0" x2="60"
                            y2="120" gradientUnits="userSpaceOnUse">
                <stop stop-color="white" stop-opacity="0.01" offset="" />
                <stop offset="1" stop-color="white" stop-opacity="0.25" />
            </linearGradient>
            <radialGradient id="paint1_radial_3494_34269" cx="0" cy="0" r="1"
                            gradientUnits="userSpaceOnUse" gradientTransform="translate(60 120) scale(60)">
                <stop stop-color="white" stop-opacity="0.39" offset="" />
                <stop offset="0.4" stop-color="white" stop-opacity="0.25" />
                <stop offset="1" stop-color="white" stop-opacity="0" />
            </radialGradient>
        </defs>
    </symbol>
    <symbol width="120" height="120" viewBox="0 0 120 120" fill="none" xmlns="http://www.w3.org/2000/svg"
            id="Crime">
        <rect width="120" height="120" rx="24" fill="#3B1813" />
        <rect width="120" height="120" rx="24" fill="url(#paint0_linear_3494_34272)"
              fill-opacity="0.48" />
        <rect width="120" height="120" rx="24" fill="url(#paint1_radial_3494_34272)"
              fill-opacity="0.24" style="mix-blend-mode:plus-lighter" />
        <path
                d="M58.5 52.4995L33 77.9995C39.6274 84.6269 50.3726 84.6269 57 77.9995L70.5 64.4995L64.5 58.4995M58.5 52.4995L73.3479 37.6516C75.9172 35.0823 80.0828 35.0823 82.6521 37.6516C85.6438 40.6433 85.0747 45.6403 81.4869 47.8827L64.5 58.4995M58.5 52.4995L64.5 58.4995"
                stroke="#FEEFEC" stroke-width="4" stroke-linecap="round" stroke-linejoin="round" />
        <defs>
            <linearGradient id="paint0_linear_3494_34272" x1="60" y1="0" x2="60"
                            y2="120" gradientUnits="userSpaceOnUse">
                <stop stop-color="white" stop-opacity="0.01" offset="" />
                <stop offset="1" stop-color="white" stop-opacity="0.25" />
            </linearGradient>
            <radialGradient id="paint1_radial_3494_34272" cx="0" cy="0" r="1"
                            gradientUnits="userSpaceOnUse" gradientTransform="translate(60 120) scale(60)">
                <stop stop-color="white" stop-opacity="0.39" offset="" />
                <stop offset="0.4" stop-color="white" stop-opacity="0.25" />
                <stop offset="1" stop-color="white" stop-opacity="0" />
            </radialGradient>
        </defs>
    </symbol>
    <symbol width="120" height="120" viewBox="0 0 120 120" fill="none" xmlns="http://www.w3.org/2000/svg"
            id="Documentary">
        <rect width="120" height="120" rx="24" fill="#232323" />
        <rect width="120" height="120" rx="24" fill="url(#paint0_linear_3494_34264)"
              fill-opacity="0.48" />
        <rect width="120" height="120" rx="24" fill="url(#paint1_radial_3494_34264)"
              fill-opacity="0.24" style="mix-blend-mode:plus-lighter" />
        <path
                d="M79.5 54V54C79.2673 52.6038 79.1509 51.9057 78.9647 51.3109C77.9249 47.9897 75.0634 45.5656 71.6164 45.0859C70.9991 45 70.2913 45 68.8759 45H61.2426C60.7368 45 60.4839 45 60.2402 44.9868C58.1927 44.8757 56.2446 44.0687 54.7182 42.6995C54.5365 42.5365 54.3577 42.3577 54 42V42C53.6423 41.6423 53.4635 41.4635 53.2818 41.3005C51.7554 39.9313 49.8073 39.1243 47.7598 39.0132C47.5161 39 47.2632 39 46.7574 39H45.4497C40.7935 39 38.4653 39 36.7187 39.7771C34.28 40.8621 32.4487 42.9736 31.7195 45.5412C31.1972 47.3803 31.5264 49.685 32.1849 54.2945L34.6753 71.7273C35.234 75.6383 35.5134 77.5937 36.6671 78.9267C37.0418 79.3596 37.4766 79.7366 37.9581 80.0463C39.4408 81 41.4162 81 45.3668 81H70.2765C76.0754 81 78.9749 81 81.1737 79.6145C81.8885 79.1641 82.5362 78.6154 83.098 77.9844C84.8261 76.0432 85.3028 73.1832 86.2561 67.4633L87.452 60.2878C87.8815 57.7109 88.0963 56.4224 87.5482 55.4854C87.3725 55.1849 87.1458 54.9174 86.8783 54.6946C86.0442 54 84.7379 54 82.1255 54H47.3617C44.4623 54 43.0126 54 41.9131 54.6928C41.5558 54.9179 41.2319 55.1923 40.951 55.5078C40.0869 56.4784 39.8486 57.9084 39.3719 60.7684L36.75 76.5"
                stroke="#EDEDED" stroke-width="4" stroke-linecap="round" stroke-linejoin="round" />
        <defs>
            <linearGradient id="paint0_linear_3494_34264" x1="60" y1="0" x2="60"
                            y2="120" gradientUnits="userSpaceOnUse">
                <stop stop-color="white" stop-opacity="0.01" offset="" />
                <stop offset="1" stop-color="white" stop-opacity="0.25" />
            </linearGradient>
            <radialGradient id="paint1_radial_3494_34264" cx="0" cy="0" r="1"
                            gradientUnits="userSpaceOnUse" gradientTransform="translate(60 120) scale(60)">
                <stop stop-color="white" stop-opacity="0.39" offset="" />
                <stop offset="0.4" stop-color="white" stop-opacity="0.25" />
                <stop offset="1" stop-color="white" stop-opacity="0" />
            </radialGradient>
        </defs>
    </symbol>
    <symbol width="120" height="120" viewBox="0 0 120 120" fill="none" xmlns="http://www.w3.org/2000/svg"
            id="Drama">
        <rect width="120" height="120" rx="24" fill="#3A182F" />
        <rect width="120" height="120" rx="24" fill="url(#paint0_linear_3494_34274)"
              fill-opacity="0.48" />
        <rect width="120" height="120" rx="24" fill="url(#paint1_radial_3494_34274)"
              fill-opacity="0.24" style="mix-blend-mode:plus-lighter" />
        <path
                d="M84 60C84 73.2548 73.2548 84 60 84C46.7452 84 36 73.2548 36 60C36 46.7452 46.7452 36 60 36C63.7655 36 67.3284 36.8672 70.5 38.4127M51 51V57M69 51V57M48 67.5H60H72C72 67.5 69 76.5 60 76.5C51 76.5 48 67.5 48 67.5ZM87 48C87 51.3137 84.3137 54 81 54C77.6863 54 75 51.3137 75 48C75 43.5 79.5004 37.5 81 37.5C82.4996 37.5 87 43.5 87 48Z"
                stroke="#FEEBF7" stroke-width="4" stroke-linecap="round" stroke-linejoin="round" />
        <defs>
            <linearGradient id="paint0_linear_3494_34274" x1="60" y1="0" x2="60"
                            y2="120" gradientUnits="userSpaceOnUse">
                <stop stop-color="white" stop-opacity="0.01" offset="" />
                <stop offset="1" stop-color="white" stop-opacity="0.25" />
            </linearGradient>
            <radialGradient id="paint1_radial_3494_34274" cx="0" cy="0" r="1"
                            gradientUnits="userSpaceOnUse" gradientTransform="translate(60 120) scale(60)">
                <stop stop-color="white" stop-opacity="0.39" offset="" />
                <stop offset="0.4" stop-color="white" stop-opacity="0.25" />
                <stop offset="1" stop-color="white" stop-opacity="0" />
            </radialGradient>
        </defs>
    </symbol>
    <symbol width="120" height="120" viewBox="0 0 120 120" fill="none" xmlns="http://www.w3.org/2000/svg"
            id="Family">
        <rect width="120" height="120" rx="24" fill="#192140" />
        <rect width="120" height="120" rx="24" fill="url(#paint0_linear_3494_34259)"
              fill-opacity="0.48" />
        <rect width="120" height="120" rx="24" fill="url(#paint1_radial_3494_34259)"
              fill-opacity="0.24" style="mix-blend-mode:plus-lighter" />
        <path
                d="M39 72C36.5204 72 34.4962 72.4554 32.8647 73.1154C30.9474 73.8909 30 75.9318 30 78M81 72C83.4796 72 85.5038 72.4554 87.1353 73.1154C89.0526 73.8909 90 75.9318 90 78M75.6001 78C75.6001 74.4151 73.9579 70.8776 70.6346 69.5333C67.8067 68.3894 64.2982 67.6 60.0001 67.6C55.7021 67.6 52.1935 68.3894 49.3657 69.5333C46.0424 70.8776 44.4001 74.4151 44.4001 78M45 60C45 63.3137 42.3137 66 39 66C35.6863 66 33 63.3137 33 60C33 56.6863 35.6863 54 39 54C42.3137 54 45 56.6863 45 60ZM75 60C75 63.3137 77.6863 66 81 66C84.3137 66 87 63.3137 87 60C87 56.6863 84.3137 54 81 54C77.6863 54 75 56.6863 75 60ZM70.4001 49.4C70.4001 55.1438 65.7439 59.8 60.0001 59.8C54.2564 59.8 49.6001 55.1438 49.6001 49.4C49.6001 43.6562 54.2564 39 60.0001 39C65.7439 39 70.4001 43.6562 70.4001 49.4Z"
                stroke="#EEF1FD" stroke-width="4" stroke-linecap="round" stroke-linejoin="round" />
        <defs>
            <linearGradient id="paint0_linear_3494_34259" x1="60" y1="0" x2="60"
                            y2="120" gradientUnits="userSpaceOnUse">
                <stop stop-color="white" stop-opacity="0.01" offset="" />
                <stop offset="1" stop-color="white" stop-opacity="0.25" />
            </linearGradient>
            <radialGradient id="paint1_radial_3494_34259" cx="0" cy="0" r="1"
                            gradientUnits="userSpaceOnUse" gradientTransform="translate(60 120) scale(60)">
                <stop stop-color="white" stop-opacity="0.39" offset="" />
                <stop offset="0.4" stop-color="white" stop-opacity="0.25" />
                <stop offset="1" stop-color="white" stop-opacity="0" />
            </radialGradient>
        </defs>
    </symbol>
    <symbol width="120" height="120" viewBox="0 0 120 120" fill="none" xmlns="http://www.w3.org/2000/svg"
            id="Fantasy">
        <rect width="120" height="120" rx="24" fill="#0F291E" />
        <rect width="120" height="120" rx="24" fill="url(#paint0_linear_3494_34273)"
              fill-opacity="0.48" />
        <rect width="120" height="120" rx="24" fill="url(#paint1_radial_3494_34273)"
              fill-opacity="0.24" style="mix-blend-mode:plus-lighter" />
        <path
                d="M74.6956 70.152L66.846 51.5092C66.29 50.1888 66.0573 48.7548 66.1672 47.3264L67.5 30L51.0201 47.8532C50.0219 48.9346 49.3042 50.2442 48.9297 51.6673L43.9918 70.4313M74.6956 70.152L78 78C78 79.6569 69.9411 81 60 81C50.0589 81 42 79.6569 42 78L43.9918 70.4313M74.6956 70.152L75 70.204C83.967 71.7602 90 74.6687 90 78C90 82.9706 76.5685 87 60 87C43.4315 87 30 82.9706 30 78C30 75.0555 34.7133 72.4413 42 70.7993L43.9918 70.4313"
                stroke="#E5FBEB" stroke-width="4" stroke-linecap="round" stroke-linejoin="round" />
        <defs>
            <linearGradient id="paint0_linear_3494_34273" x1="60" y1="0" x2="60"
                            y2="120" gradientUnits="userSpaceOnUse">
                <stop stop-color="white" stop-opacity="0.01" offset="" />
                <stop offset="1" stop-color="white" stop-opacity="0.25" />
            </linearGradient>
            <radialGradient id="paint1_radial_3494_34273" cx="0" cy="0" r="1"
                            gradientUnits="userSpaceOnUse" gradientTransform="translate(60 120) scale(60)">
                <stop stop-color="white" stop-opacity="0.39" offset="" />
                <stop offset="0.4" stop-color="white" stop-opacity="0.25" />
                <stop offset="1" stop-color="white" stop-opacity="0" />
            </radialGradient>
        </defs>
    </symbol>
    <symbol width="120" height="120" viewBox="0 0 120 120" fill="none" xmlns="http://www.w3.org/2000/svg"
            id="Horror">
        <rect width="120" height="120" rx="24" fill="#3C181A" />
        <rect width="120" height="120" rx="24" fill="url(#paint0_linear_3494_34271)"
              fill-opacity="0.48" />
        <rect width="120" height="120" rx="24" fill="url(#paint1_radial_3494_34271)"
              fill-opacity="0.24" style="mix-blend-mode:plus-lighter" />
        <path
                d="M54 45V48M66 48V45.06M60 69V69C61.6569 69 63 67.6569 63 66V57C63 55.3431 61.6569 54 60 54V54C58.3431 54 57 55.3431 57 57V66C57 67.6569 58.3431 69 60 69ZM67.875 88.5V88.5C66.2484 87.5705 64.2516 87.5705 62.625 88.5V88.5C60.9984 89.4295 59.0016 89.4295 57.375 88.5V88.5C55.7484 87.5705 53.7516 87.5705 52.125 88.5V88.5C50.4984 89.4295 48.5016 89.4295 46.875 88.5L45.5574 87.7471C44.7473 87.2842 43.7527 87.2842 42.9426 87.7471V87.7471C41.1858 88.751 39 87.4825 39 85.4591V51C39 39.402 48.402 30 60 30V30C71.598 30 81 39.402 81 51V85.4591C81 87.4825 78.8142 88.751 77.0574 87.7471V87.7471C76.2473 87.2842 75.2527 87.2842 74.4426 87.7471L73.125 88.5C71.4984 89.4295 69.5016 89.4295 67.875 88.5Z"
                stroke="#FEECEE" stroke-width="4" stroke-linecap="round" stroke-linejoin="round" />
        <defs>
            <linearGradient id="paint0_linear_3494_34271" x1="60" y1="0" x2="60"
                            y2="120" gradientUnits="userSpaceOnUse">
                <stop stop-color="white" stop-opacity="0.01" offset="" />
                <stop offset="1" stop-color="white" stop-opacity="0.25" />
            </linearGradient>
            <radialGradient id="paint1_radial_3494_34271" cx="0" cy="0" r="1"
                            gradientUnits="userSpaceOnUse" gradientTransform="translate(60 120) scale(60)">
                <stop stop-color="white" stop-opacity="0.39" offset="" />
                <stop offset="0.4" stop-color="white" stop-opacity="0.25" />
                <stop offset="1" stop-color="white" stop-opacity="0" />
            </radialGradient>
        </defs>
    </symbol>
    <symbol width="120" height="120" viewBox="0 0 120 120" fill="none" xmlns="http://www.w3.org/2000/svg"
            id="History">
        <rect width="120" height="120" rx="24" fill="#2E201A" />
        <rect width="120" height="120" rx="24" fill="url(#paint0_linear_3494_34268)"
              fill-opacity="0.48" />
        <rect width="120" height="120" rx="24" fill="url(#paint1_radial_3494_34268)"
              fill-opacity="0.24" style="mix-blend-mode:plus-lighter" />
        <path
                d="M36 33V36M36 48V45M36 36H84M36 36V45M84 36V33M84 36V45M84 48V45M84 45H78M36 45H42M36 72V75M36 87V84M36 75V84M36 75H42M84 75V72M84 75V84M84 75H78M84 87V84M84 84H36M42 75V45M42 75H78M42 45H78M78 45V75M48 54H69M48 63H57M66 69H72"
                stroke="#FAF0E5" stroke-width="4" stroke-linecap="round" stroke-linejoin="round" />
        <defs>
            <linearGradient id="paint0_linear_3494_34268" x1="60" y1="0" x2="60"
                            y2="120" gradientUnits="userSpaceOnUse">
                <stop stop-color="white" stop-opacity="0.01" offset="" />
                <stop offset="1" stop-color="white" stop-opacity="0.25" />
            </linearGradient>
            <radialGradient id="paint1_radial_3494_34268" cx="0" cy="0" r="1"
                            gradientUnits="userSpaceOnUse" gradientTransform="translate(60 120) scale(60)">
                <stop stop-color="white" stop-opacity="0.39" offset="" />
                <stop offset="0.4" stop-color="white" stop-opacity="0.25" />
                <stop offset="1" stop-color="white" stop-opacity="0" />
            </radialGradient>
        </defs>
    </symbol>
    <symbol width="120" height="120" viewBox="0 0 120 120" fill="none" xmlns="http://www.w3.org/2000/svg"
            id="Kids">
        <rect width="120" height="120" rx="24" fill="#10243E" />
        <rect width="120" height="120" rx="24" fill="url(#paint0_linear_3494_34256)"
              fill-opacity="0.48" />
        <rect width="120" height="120" rx="24" fill="url(#paint1_radial_3494_34256)"
              fill-opacity="0.24" style="mix-blend-mode:plus-lighter" />
        <path
                d="M39.1515 54.5806C37.2067 52.6134 36 49.8715 36 46.8387C36 40.8527 40.701 36 46.5 36C51.7897 36 56.1658 40.0377 56.8937 45.2903L57 45.5456M80.8485 54.5806C82.7933 52.6134 84 49.8715 84 46.8387C84 40.8527 79.299 36 73.5 36C68.2103 36 63.8342 40.0377 63.1063 45.2903L63 45.5456M63 45.5456C62.0272 45.3779 61.0245 45.2903 60 45.2903C58.9755 45.2903 57.9728 45.3779 57 45.5456M63 45.5456C70.0129 46.7545 75.4744 52.1242 76.3707 58.8267C79.1415 60.64 81 63.4912 81 66.9677C81 71.0128 78.4956 74.4541 75 75.7294C70.2467 77.4275 67.576 79.0238 63.3178 82.4516C62.3675 83.43 61.2267 84 60 84C58.7733 84 57.6325 83.43 56.6822 82.4516C52.2729 78.8976 49.7354 77.326 45 75.7294C41.5044 74.4541 39 71.0128 39 66.9677C39 63.4912 40.8585 60.64 43.6293 58.8267C44.5256 52.1242 49.9871 46.7545 57 45.5456M54 68.5161V65.4194M66 68.5161V65.4194M49.5 74.7097L39 79.3548M52.5 79.3548L45 84M70.5 74.7097L81 79.3548M67.5 79.3548L75 84M60 77.8065L58.5 76.2581H61.5L60 77.8065Z"
                stroke="#EAF6FF" stroke-width="4" stroke-linecap="round" stroke-linejoin="round" />
        <defs>
            <linearGradient id="paint0_linear_3494_34256" x1="60" y1="0" x2="60"
                            y2="120" gradientUnits="userSpaceOnUse">
                <stop stop-color="white" stop-opacity="0.01" offset="" />
                <stop offset="1" stop-color="white" stop-opacity="0.25" />
            </linearGradient>
            <radialGradient id="paint1_radial_3494_34256" cx="0" cy="0" r="1"
                            gradientUnits="userSpaceOnUse" gradientTransform="translate(60 120) scale(60)">
                <stop stop-color="white" stop-opacity="0.39" offset="" />
                <stop offset="0.4" stop-color="white" stop-opacity="0.25" />
                <stop offset="1" stop-color="white" stop-opacity="0" />
            </radialGradient>
        </defs>
    </symbol>
    <symbol width="120" height="120" viewBox="0 0 120 120" fill="none" xmlns="http://www.w3.org/2000/svg"
            id="Music">
        <rect width="120" height="120" rx="24" fill="#341C00" />
        <rect width="120" height="120" rx="24" fill="url(#paint0_linear_3494_34261)"
              fill-opacity="0.48" />
        <rect width="120" height="120" rx="24" fill="url(#paint1_radial_3494_34261)"
              fill-opacity="0.24" style="mix-blend-mode:plus-lighter" />
        <path
                d="M51.0019 46.5V42L81.0019 33V37.5M51.0019 46.5L81.0019 37.5M51.0019 46.5V57M81.0019 37.5V48M51.0019 57L81.0019 48M51.0019 57V79.8499M81.0019 48V72V74.4611M81.0019 74.4611C80.9941 73.9187 80.9196 73.3736 80.7736 72.8336C80.5245 71.9119 80.0868 71.083 79.5015 70.3678M81.0019 74.4611C81.0244 76.0284 80.4833 77.5656 79.5015 78.8882M34.5015 77.2069C33.2023 78.9778 32.6749 81.1133 33.2319 83.1739C33.4782 84.0852 33.9156 84.9041 34.5015 85.611M34.5015 77.2069V85.611M34.5015 77.2069C35.2595 76.1737 36.2802 75.2646 37.5015 74.5669M34.5015 85.611C35.2752 86.5446 36.3079 87.283 37.5015 87.7811M37.5015 74.5669C38.2937 74.1144 39.1704 73.7508 40.1145 73.5C40.2436 73.4657 40.3726 73.4338 40.5015 73.4044M37.5015 74.5669V87.7811M37.5015 87.7811C38.421 88.1648 39.4359 88.4059 40.5015 88.4839M40.5015 73.4044V88.4839M40.5015 73.4044C41.5249 73.1706 42.5353 73.0897 43.5015 73.1461M40.5015 88.4839C41.4709 88.5548 42.4821 88.4907 43.5015 88.2761M43.5015 73.1461V88.2761M43.5015 73.1461C44.5697 73.2084 45.5837 73.4385 46.5015 73.8151M43.5015 88.2761C43.6913 88.2361 43.8815 88.1909 44.0717 88.1404C44.9491 87.9073 45.763 87.5768 46.5015 87.168M46.5015 73.8151V87.168M46.5015 73.8151C47.6955 74.3052 48.7265 75.0433 49.5015 75.9827M46.5015 87.168C47.7265 86.4899 48.7442 85.5963 49.5015 84.5746M49.5015 75.9827C50.0933 76.7001 50.5359 77.535 50.7876 78.4665C51.3595 80.5821 50.8339 82.7767 49.5015 84.5746M49.5015 75.9827V84.5746M64.5015 71.4729C63.1667 73.2566 62.619 75.4197 63.1829 77.506C63.436 78.4426 63.891 79.2815 64.5015 80.0016M64.5015 71.4729V80.0016M64.5015 71.4729C65.2645 70.4533 66.2847 69.5577 67.5015 68.8712M64.5015 80.0016C65.2803 80.9202 66.3123 81.6455 67.5015 82.1335M67.5015 68.8712C68.2808 68.4316 69.1408 68.0777 70.0655 67.8321C70.211 67.7935 70.3563 67.758 70.5015 67.7255M67.5015 68.8712V82.1335M67.5015 82.1335C68.4221 82.5112 69.437 82.7467 70.5015 82.8195M70.5015 67.7255V82.8195M70.5015 67.7255C71.5241 67.4972 72.5347 67.4227 73.5015 67.4859M70.5015 82.8195C71.4715 82.8858 72.4827 82.8171 73.5015 82.5978M73.5015 67.4859V82.5978M73.5015 67.4859C74.5693 67.5556 75.5836 67.7933 76.5015 68.1768M73.5015 82.5978C73.6751 82.5604 73.8489 82.5187 74.0227 82.4725C74.918 82.2347 75.7486 81.897 76.5015 81.4791M76.5015 68.1768V81.4791M76.5015 68.1768C77.6963 68.6761 78.7278 69.4226 79.5015 70.3678M76.5015 81.4791C77.7259 80.7994 78.7446 79.9076 79.5015 78.8882M79.5015 70.3678V78.8882"
                stroke="#FEF3DD" stroke-width="4" stroke-linecap="round" stroke-linejoin="round" />
        <defs>
            <linearGradient id="paint0_linear_3494_34261" x1="60" y1="0" x2="60"
                            y2="120" gradientUnits="userSpaceOnUse">
                <stop stop-color="white" stop-opacity="0.01" offset="" />
                <stop offset="1" stop-color="white" stop-opacity="0.25" />
            </linearGradient>
            <radialGradient id="paint1_radial_3494_34261" cx="0" cy="0" r="1"
                            gradientUnits="userSpaceOnUse" gradientTransform="translate(60 120) scale(60)">
                <stop stop-color="white" stop-opacity="0.39" offset="" />
                <stop offset="0.4" stop-color="white" stop-opacity="0.25" />
                <stop offset="1" stop-color="white" stop-opacity="0" />
            </radialGradient>
        </defs>
    </symbol>
    <symbol width="120" height="120" viewBox="0 0 120 120" fill="none" xmlns="http://www.w3.org/2000/svg"
            id="Mystery">
        <rect width="120" height="120" rx="24" fill="#062923" />
        <rect width="120" height="120" rx="24" fill="url(#paint0_linear_3494_34262)"
              fill-opacity="0.48" />
        <rect width="120" height="120" rx="24" fill="url(#paint1_radial_3494_34262)"
              fill-opacity="0.24" style="mix-blend-mode:plus-lighter" />
        <path
                d="M49.9896 58.6371L45.4966 60.1717C43.9716 60.6926 43.0728 62.4533 43.6347 64.0478C44.758 67.2356 46.8707 71.2253 50.9211 69.6415C54.8779 68.0942 54.5582 64.044 53.8362 60.8606C53.4371 59.1008 51.6109 58.0834 49.9896 58.6371Z"
                stroke="#E1FAF4" stroke-width="4" stroke-linecap="round" stroke-linejoin="round" />
        <path
                d="M49.2764 52.4889L43.1382 54.5542C41.8661 54.9822 40.4849 54.4292 39.8478 53.183C38.5969 50.7362 36.6884 46.6475 36.2205 43.6537C35.2947 37.7306 37.241 30.2498 42.8849 30.008C46.8757 29.8369 49.6137 32.4371 51.2044 36.3315C53.0011 40.7303 51.8032 47.4417 51.1131 50.4497C50.8882 51.4301 50.1814 52.1844 49.2764 52.4889Z"
                stroke="#E1FAF4" stroke-width="4" stroke-linecap="round" stroke-linejoin="round" />
        <defs>
            <linearGradient id="paint0_linear_3494_34262" x1="60" y1="0" x2="60"
                            y2="120" gradientUnits="userSpaceOnUse">
                <stop stop-color="white" stop-opacity="0.01" offset="" />
                <stop offset="1" stop-color="white" stop-opacity="0.25" />
            </linearGradient>
            <radialGradient id="paint1_radial_3494_34262" cx="0" cy="0" r="1"
                            gradientUnits="userSpaceOnUse" gradientTransform="translate(60 120) scale(60)">
                <stop stop-color="white" stop-opacity="0.39" offset="" />
                <stop offset="0.4" stop-color="white" stop-opacity="0.25" />
                <stop offset="1" stop-color="white" stop-opacity="0" />
            </radialGradient>
        </defs>
    </symbol>
    <symbol width="120" height="120" viewBox="0 0 120 120" fill="none" xmlns="http://www.w3.org/2000/svg"
            id="News">
        <rect width="120" height="120" rx="24" fill="#3C181A" />
        <rect width="120" height="120" rx="24" fill="url(#paint0_linear_3494_34255)"
              fill-opacity="0.48" />
        <rect width="120" height="120" rx="24" fill="url(#paint1_radial_3494_34255)"
              fill-opacity="0.24" style="mix-blend-mode:plus-lighter" />
        <path
                d="M87 60C87 55.0821 85.6852 50.4713 83.3879 46.5M87 60H73.5M87 60C87 64.9179 85.6852 69.5287 83.3879 73.5M60 87C69.9938 87 78.7195 81.5703 83.3879 73.5M60 87C64.9969 87 69.3597 81.5703 71.6939 73.5M60 87C55.0031 87 50.6403 81.5703 48.3061 73.5M60 87C50.0062 87 41.2805 81.5703 36.6121 73.5M60 87V33M33 60C33 55.0821 34.3148 50.4713 36.6121 46.5M33 60H46.5M33 60C33 64.9179 34.3148 69.5287 36.6121 73.5M60 33C50.0062 33 41.2805 38.4297 36.6121 46.5M60 33C55.0031 33 50.6403 38.4297 48.3061 46.5M60 33C64.9969 33 69.3597 38.4297 71.6939 46.5M60 33C69.9938 33 78.7195 38.4297 83.3879 46.5M73.5 60C73.5 55.0821 72.8426 50.4713 71.6939 46.5M73.5 60H46.5M73.5 60C73.5 64.9179 72.8426 69.5287 71.6939 73.5M46.5 60C46.5 55.0821 47.1574 50.4713 48.3061 46.5M46.5 60C46.5 64.9179 47.1574 69.5287 48.3061 73.5M36.6121 46.5H48.3061M48.3061 46.5H71.6939M71.6939 46.5H83.3879M83.3879 73.5H71.6939M71.6939 73.5H48.3061M48.3061 73.5H36.6121"
                stroke="#FEECEE" stroke-width="4" stroke-linecap="round" stroke-linejoin="round" />
        <defs>
            <linearGradient id="paint0_linear_3494_34255" x1="60" y1="0" x2="60"
                            y2="120" gradientUnits="userSpaceOnUse">
                <stop stop-color="white" stop-opacity="0.01" offset="" />
                <stop offset="1" stop-color="white" stop-opacity="0.25" />
            </linearGradient>
            <radialGradient id="paint1_radial_3494_34255" cx="0" cy="0" r="1"
                            gradientUnits="userSpaceOnUse" gradientTransform="translate(60 120) scale(60)">
                <stop stop-color="white" stop-opacity="0.39" offset="" />
                <stop offset="0.4" stop-color="white" stop-opacity="0.25" />
                <stop offset="1" stop-color="white" stop-opacity="0" />
            </radialGradient>
        </defs>
    </symbol>
    <symbol width="120" height="120" viewBox="0 0 120 120" fill="none" xmlns="http://www.w3.org/2000/svg"
            id="Reality">
        <rect width="120" height="120" rx="24" fill="#082636" />
        <rect width="120" height="120" rx="24" fill="url(#paint0_linear_3494_34254)"
              fill-opacity="0.48" />
        <rect width="120" height="120" rx="24" fill="url(#paint1_radial_3494_34254)"
              fill-opacity="0.24" style="mix-blend-mode:plus-lighter" />
        <path d="M60 78C73.2548 78 84 63 84 60C84 57 73.2548 42 60 42C46.7452 42 36 57 36 60C36 63 46.7452 78 60 78Z"
              stroke="#EAF8FF" stroke-width="4" stroke-linecap="round" stroke-linejoin="round" />
        <defs>
            <linearGradient id="paint0_linear_3494_34254" x1="60" y1="0" x2="60"
                            y2="120" gradientUnits="userSpaceOnUse">
                <stop stop-color="white" stop-opacity="0.01" offset="" />
                <stop offset="1" stop-color="white" stop-opacity="0.25" />
            </linearGradient>
            <radialGradient id="paint1_radial_3494_34254" cx="0" cy="0" r="1"
                            gradientUnits="userSpaceOnUse" gradientTransform="translate(60 120) scale(60)">
                <stop stop-color="white" stop-opacity="0.39" offset="" />
                <stop offset="0.4" stop-color="white" stop-opacity="0.25" />
                <stop offset="1" stop-color="white" stop-opacity="0" />
            </radialGradient>
        </defs>
    </symbol>
    <symbol width="120" height="120" viewBox="0 0 120 120" fill="none" xmlns="http://www.w3.org/2000/svg"
            id="Romance">
        <rect width="120" height="120" rx="24" fill="#3C1827" />
        <rect width="120" height="120" rx="24" fill="url(#paint0_linear_3494_34260)"
              fill-opacity="0.48" />
        <rect width="120" height="120" rx="24" fill="url(#paint1_radial_3494_34260)"
              fill-opacity="0.24" style="mix-blend-mode:plus-lighter" />
        <path
                d="M86 60C86 58.8954 85.1046 58 84 58C82.8954 58 82 58.8954 82 60H86ZM38 60C38 58.8954 37.1046 58 36 58C34.8954 58 34 58.8954 34 60H38ZM49.7889 66.6056C49.2949 65.6176 48.0935 65.2172 47.1056 65.7111C46.1176 66.2051 45.7172 67.4065 46.2111 68.3944L49.7889 66.6056ZM73.7889 68.3944C74.2828 67.4065 73.8824 66.2051 72.8944 65.7111C71.9065 65.2172 70.7051 65.6176 70.2111 66.6056L73.7889 68.3944ZM46.9985 37.4796C46.0424 38.0326 45.7157 39.2561 46.2688 40.2122C46.8219 41.1683 48.0453 41.4951 49.0015 40.942L46.9985 37.4796ZM70.9985 40.942C71.9547 41.4951 73.1781 41.1683 73.7312 40.2122C74.2843 39.2561 73.9576 38.0326 73.0015 37.4796L70.9985 40.942ZM48 48.75L46.0552 49.2167C46.271 50.116 47.0752 50.75 48 50.75C48.9248 50.75 49.729 50.116 49.9448 49.2167L48 48.75ZM43.5 45L43.5 47H43.5L43.5 45ZM39 50.625L37 50.625V50.625L39 50.625ZM48 60L46.8592 61.6427C47.5451 62.1191 48.4549 62.1191 49.1408 61.6427L48 60ZM57 50.625L59 50.625V50.625H57ZM72 48.75L70.0552 49.2167C70.271 50.116 71.0752 50.75 72 50.75C72.9248 50.75 73.729 50.116 73.9448 49.2167L72 48.75ZM67.5 45V47V45ZM63 50.625L61 50.625V50.625L63 50.625ZM72 60L70.8592 61.6427C71.5451 62.1191 72.4549 62.1191 73.1408 61.6427L72 60ZM81 50.625L83 50.625V50.625H81ZM82 60C82 72.1503 72.1503 82 60 82V86C74.3594 86 86 74.3594 86 60H82ZM60 82C47.8497 82 38 72.1503 38 60H34C34 74.3594 45.6406 86 60 86V82ZM48 67.5C46.2111 68.3944 46.2117 68.3955 46.2122 68.3966C46.2124 68.397 46.213 68.3981 46.2134 68.3989C46.2142 68.4005 46.215 68.4022 46.2159 68.4039C46.2177 68.4075 46.2197 68.4114 46.2219 68.4157C46.2263 68.4243 46.2315 68.4343 46.2375 68.4458C46.2495 68.4687 46.2648 68.4973 46.2835 68.5312C46.3208 68.5991 46.3716 68.6883 46.4369 68.7958C46.5673 69.0106 46.7559 69.2996 47.0094 69.6375C47.5156 70.3125 48.2863 71.1903 49.3756 72.0617C51.5797 73.825 55.0142 75.5 60 75.5V71.5C55.9858 71.5 53.4203 70.175 51.8744 68.9383C51.0887 68.3097 50.5469 67.6875 50.2094 67.2375C50.041 67.0129 49.9249 66.8332 49.8561 66.7199C49.8217 66.6633 49.7994 66.6236 49.7883 66.6035C49.7828 66.5935 49.7802 66.5885 49.7803 66.5887C49.7803 66.5888 49.7811 66.5902 49.7825 66.593C49.7832 66.5944 49.7841 66.5962 49.7852 66.5982C49.7857 66.5993 49.7863 66.6004 49.7869 66.6016C49.7872 66.6023 49.7877 66.6032 49.7878 66.6035C49.7883 66.6045 49.7889 66.6056 48 67.5ZM60 75.5C64.9858 75.5 68.4203 73.825 70.6244 72.0617C71.7137 71.1903 72.4844 70.3125 72.9906 69.6375C73.2441 69.2996 73.4327 69.0106 73.5631 68.7958C73.6284 68.6883 73.6792 68.5991 73.7165 68.5312C73.7352 68.4973 73.7505 68.4687 73.7625 68.4458C73.7685 68.4343 73.7737 68.4243 73.7781 68.4157C73.7803 68.4114 73.7823 68.4075 73.7841 68.4039C73.785 68.4022 73.7858 68.4005 73.7866 68.3989C73.787 68.3981 73.7876 68.397 73.7878 68.3966C73.7883 68.3955 73.7889 68.3944 72 67.5C70.2111 66.6056 70.2117 66.6045 70.2122 66.6035C70.2123 66.6032 70.2128 66.6023 70.2131 66.6016C70.2137 66.6004 70.2143 66.5993 70.2148 66.5982C70.2159 66.5962 70.2168 66.5944 70.2175 66.593C70.2189 66.5902 70.2197 66.5888 70.2197 66.5887C70.2198 66.5885 70.2172 66.5935 70.2117 66.6035C70.2006 66.6236 70.1783 66.6633 70.1439 66.7199C70.0751 66.8332 69.959 67.0129 69.7906 67.2375C69.4531 67.6875 68.9113 68.3097 68.1256 68.9383C66.5797 70.175 64.0142 71.5 60 71.5V75.5ZM49.0015 40.942C52.2353 39.0713 55.9895 38 60 38V34C55.2676 34 50.8248 35.2662 46.9985 37.4796L49.0015 40.942ZM60 38C64.0105 38 67.7647 39.0713 70.9985 40.942L73.0015 37.4796C69.1752 35.2662 64.7324 34 60 34V38ZM48 48.75C49.9448 48.2833 49.9446 48.2824 49.9443 48.2815C49.9443 48.2812 49.9441 48.2803 49.9439 48.2796C49.9436 48.2784 49.9433 48.277 49.9429 48.2756C49.9423 48.2728 49.9415 48.2698 49.9407 48.2666C49.9391 48.26 49.9372 48.2526 49.9351 48.2442C49.9308 48.2274 49.9254 48.2069 49.9189 48.183C49.9059 48.1351 49.8882 48.0732 49.8654 47.9992C49.8198 47.8516 49.7529 47.6534 49.6601 47.4213C49.4766 46.9626 49.1797 46.3405 48.7231 45.7064C47.7902 44.4108 46.1216 43 43.5 43L43.5 47C44.4784 47 45.0598 47.4642 45.4769 48.0436C45.6953 48.347 45.8484 48.6624 45.9462 48.9068C45.9939 49.0262 46.0255 49.1211 46.0432 49.1786C46.052 49.2071 46.0572 49.2257 46.0591 49.2328C46.0601 49.2363 46.0602 49.2369 46.0595 49.2343C46.0592 49.233 46.0587 49.2309 46.058 49.228C46.0576 49.2265 46.0572 49.2249 46.0567 49.223C46.0565 49.2221 46.0563 49.2211 46.056 49.22C46.0559 49.2195 46.0557 49.2187 46.0556 49.2184C46.0554 49.2176 46.0552 49.2167 48 48.75ZM43.5 43C40.8413 43 39.1211 44.4547 38.1669 46.1111C37.2701 47.6681 37 49.445 37 50.625L41 50.625C41 49.93 41.1799 48.8944 41.6331 48.1076C42.0289 47.4203 42.5587 47 43.5 47L43.5 43ZM37 50.625C37 53.3885 38.3251 55.2988 40.1581 56.9025C41.8432 58.3768 44.332 59.8878 46.8592 61.6427L49.1408 58.3573C46.268 56.3622 44.2568 55.1737 42.7919 53.892C41.4749 52.7397 41 51.8375 41 50.625L37 50.625ZM48 48.75C49.9448 49.2167 49.9446 49.2176 49.9444 49.2184C49.9443 49.2187 49.9441 49.2195 49.944 49.22C49.9437 49.2211 49.9435 49.2221 49.9433 49.223C49.9428 49.2249 49.9424 49.2265 49.942 49.228C49.9413 49.2309 49.9408 49.233 49.9405 49.2343C49.9398 49.2369 49.9399 49.2363 49.9409 49.2328C49.9428 49.2257 49.948 49.2071 49.9568 49.1786C49.9745 49.1211 50.0061 49.0262 50.0538 48.9068C50.1516 48.6624 50.3047 48.347 50.5231 48.0436C50.9402 47.4642 51.5216 47 52.5 47V43C49.8784 43 48.2098 44.4108 47.2769 45.7064C46.8203 46.3405 46.5234 46.9626 46.3399 47.4213C46.2471 47.6534 46.1802 47.8516 46.1346 47.9992C46.1118 48.0732 46.0941 48.1351 46.0811 48.183C46.0746 48.2069 46.0692 48.2274 46.0649 48.2442C46.0628 48.2526 46.0609 48.26 46.0593 48.2666C46.0585 48.2698 46.0577 48.2728 46.0571 48.2756C46.0567 48.277 46.0564 48.2784 46.0561 48.2796C46.0559 48.2803 46.0557 48.2812 46.0557 48.2815C46.0554 48.2824 46.0552 48.2833 48 48.75ZM52.5 47C53.4413 47 53.9711 47.4203 54.3669 48.1076C54.8201 48.8944 55 49.93 55 50.625H59C59 49.445 58.7299 47.6681 57.8331 46.1111C56.8789 44.4547 55.1587 43 52.5 43V47ZM55 50.625C55 51.8375 54.5251 52.7397 53.2081 53.892C51.7432 55.1737 49.732 56.3622 46.8592 58.3573L49.1408 61.6427C51.668 59.8878 54.1568 58.3768 55.8419 56.9025C57.6749 55.2988 59 53.3885 59 50.625L55 50.625ZM72 48.75C73.9448 48.2833 73.9446 48.2824 73.9443 48.2815C73.9443 48.2812 73.9441 48.2803 73.9439 48.2796C73.9436 48.2784 73.9433 48.277 73.9429 48.2756C73.9423 48.2728 73.9415 48.2698 73.9407 48.2666C73.9391 48.26 73.9372 48.2526 73.9351 48.2442C73.9308 48.2274 73.9254 48.2069 73.9189 48.183C73.9059 48.1351 73.8882 48.0732 73.8654 47.9992C73.8198 47.8516 73.7529 47.6534 73.6601 47.4213C73.4766 46.9626 73.1797 46.3405 72.7231 45.7064C71.7902 44.4108 70.1216 43 67.5 43V47C68.4784 47 69.0597 47.4642 69.4769 48.0436C69.6953 48.347 69.8484 48.6624 69.9462 48.9068C69.9939 49.0262 70.0255 49.1211 70.0432 49.1786C70.052 49.2071 70.0572 49.2257 70.0591 49.2328C70.0601 49.2363 70.0602 49.2369 70.0596 49.2343C70.0592 49.233 70.0587 49.2309 70.058 49.228C70.0576 49.2265 70.0572 49.2249 70.0567 49.223C70.0565 49.2221 70.0563 49.2211 70.056 49.22C70.0559 49.2195 70.0557 49.2187 70.0556 49.2184C70.0554 49.2176 70.0552 49.2167 72 48.75ZM67.5 43C64.8413 43 63.1211 44.4547 62.1669 46.1111C61.2701 47.6681 61 49.445 61 50.625L65 50.625C65 49.93 65.1799 48.8944 65.6331 48.1076C66.0289 47.4203 66.5587 47 67.5 47V43ZM61 50.625C61 53.3885 62.3251 55.2988 64.1581 56.9025C65.8432 58.3768 68.332 59.8878 70.8592 61.6427L73.1408 58.3573C70.268 56.3622 68.2568 55.1737 66.7919 53.892C65.4749 52.7397 65 51.8375 65 50.625L61 50.625ZM72 48.75C73.9448 49.2167 73.9446 49.2176 73.9444 49.2184C73.9443 49.2187 73.9441 49.2195 73.944 49.22C73.9437 49.2211 73.9435 49.2221 73.9433 49.223C73.9428 49.2249 73.9424 49.2265 73.942 49.228C73.9413 49.2309 73.9408 49.233 73.9404 49.2343C73.9398 49.2369 73.9399 49.2363 73.9409 49.2328C73.9428 49.2257 73.948 49.2071 73.9568 49.1786C73.9745 49.1211 74.0061 49.0262 74.0538 48.9068C74.1516 48.6624 74.3047 48.347 74.5231 48.0436C74.9403 47.4642 75.5216 47 76.5 47V43C73.8784 43 72.2098 44.4108 71.2769 45.7064C70.8203 46.3405 70.5234 46.9626 70.3399 47.4213C70.2471 47.6534 70.1802 47.8516 70.1346 47.9992C70.1118 48.0732 70.0941 48.1351 70.0811 48.183C70.0746 48.2069 70.0692 48.2274 70.0649 48.2442C70.0628 48.2526 70.0609 48.26 70.0593 48.2666C70.0585 48.2698 70.0577 48.2728 70.0571 48.2756C70.0567 48.277 70.0564 48.2784 70.0561 48.2796C70.0559 48.2803 70.0557 48.2812 70.0557 48.2815C70.0554 48.2824 70.0552 48.2833 72 48.75ZM76.5 47C77.4413 47 77.9711 47.4203 78.3669 48.1076C78.8201 48.8944 79 49.93 79 50.625H83C83 49.445 82.7299 47.6681 81.8331 46.1111C80.8789 44.4547 79.1587 43 76.5 43V47ZM79 50.625C79 51.8375 78.5251 52.7397 77.2081 53.892C75.7432 55.1737 73.732 56.3622 70.8592 58.3573L73.1408 61.6427C75.668 59.8878 78.1568 58.3768 79.8419 56.9025C81.6749 55.2988 83 53.3885 83 50.625L79 50.625Z"
                fill="#FEECF4" />
        <defs>
            <linearGradient id="paint0_linear_3494_34260" x1="60" y1="0" x2="60"
                            y2="120" gradientUnits="userSpaceOnUse">
                <stop stop-color="white" stop-opacity="0.01" offset="0" />
                <stop offset="1" stop-color="white" stop-opacity="0.25" />
            </linearGradient>
            <radialGradient id="paint1_radial_3494_34260" cx="0" cy="0" r="1"
                            gradientUnits="userSpaceOnUse" gradientTransform="translate(60 120) scale(60)">
                <stop stop-color="white" stop-opacity="0.39" offset="" />
                <stop offset="0.4" stop-color="white" stop-opacity="0.25" />
                <stop offset="1" stop-color="white" stop-opacity="0" />
            </radialGradient>
        </defs>
    </symbol>
    <symbol width="120" height="120" viewBox="0 0 120 120" fill="none" xmlns="http://www.w3.org/2000/svg"
            id="Sci-Fi_and_Fantasy">
        <rect width="120" height="120" rx="24" fill="#10243E" />
        <rect width="120" height="120" rx="24" fill="url(#paint0_linear_3494_34253)"
              fill-opacity="0.48" />
        <rect width="120" height="120" rx="24" fill="url(#paint1_radial_3494_34253)"
              fill-opacity="0.24" style="mix-blend-mode:plus-lighter" />
        <path
                d="M57.5585 55.0671C58.2697 56.7457 59.3095 58.3181 60.6778 59.6864C62.0461 61.0548 63.6185 62.0945 65.2971 62.8057M57.5585 55.0671C55.3078 49.7551 56.3476 43.3805 60.6778 39.0503C66.3763 33.3517 75.6154 33.3517 81.314 39.0503C87.0125 44.7488 87.0125 53.9879 81.314 59.6864C76.9837 64.0167 70.6091 65.0564 65.2971 62.8057M57.5585 55.0671L51.7115 60.9141M65.2971 62.8057L59.4501 68.6527M49.7338 70.6304V70.6304C47.5969 68.4934 47.5969 65.0287 49.7338 62.8918L51.7115 60.9141M49.7338 70.6304V70.6304C51.8708 72.7673 55.3355 72.7673 57.4724 70.6304L59.4501 68.6527M49.7338 70.6304L44.5748 75.7894M48.4441 53.8635L41.3934 60.9141M30.3874 71.9201L41.3934 60.9141M66.5007 71.9201L59.4501 78.9708M48.4441 89.9768L59.4501 78.9708M59.4501 68.6527L59.4501 78.9708M51.7115 60.9141L41.3934 60.9141M73.5754 46.7888C75 48.2135 75 50.5232 73.5754 51.9479C72.1508 53.3725 69.841 53.3725 68.4163 51.9479C66.9917 50.5232 66.9917 48.2135 68.4163 46.7888C69.841 45.3642 72.1508 45.3642 73.5754 46.7888Z"
                stroke="#EAF6FF" stroke-width="4" stroke-linecap="round" stroke-linejoin="round" />
        <defs>
            <linearGradient id="paint0_linear_3494_34253" x1="60" y1="0" x2="60"
                            y2="120" gradientUnits="userSpaceOnUse">
                <stop stop-color="white" stop-opacity="0.01" offset="" />
                <stop offset="1" stop-color="white" stop-opacity="0.25" />
            </linearGradient>
            <radialGradient id="paint1_radial_3494_34253" cx="0" cy="0" r="1"
                            gradientUnits="userSpaceOnUse" gradientTransform="translate(60 120) scale(60)">
                <stop stop-color="white" stop-opacity="0.39" offset="" />
                <stop offset="0.4" stop-color="white" stop-opacity="0.25" />
                <stop offset="1" stop-color="white" stop-opacity="0" />
            </radialGradient>
        </defs>
    </symbol>
    <symbol width="120" height="120" viewBox="0 0 120 120" fill="none" xmlns="http://www.w3.org/2000/svg"
            id="Science_Fiction">
        <rect width="120" height="120" rx="24" fill="#082636" />
        <rect width="120" height="120" rx="24" fill="url(#paint0_linear_3494_34263)"
              fill-opacity="0.48" />
        <rect width="120" height="120" rx="24" fill="url(#paint1_radial_3494_34263)"
              fill-opacity="0.24" style="mix-blend-mode:plus-lighter" />
        <g clip-path="url(#clip0_3494_34263)">
            <path
                    d="M41.8481 63.4264L32.3022 64.4871L34.9419 57.4478C37.182 51.474 42.8928 47.5165 49.2727 47.5165V47.5165M56.6973 78.2756L55.6367 87.8216L62.676 85.1819C68.6497 82.9417 72.6072 77.231 72.6072 70.851V70.851M51.6589 54.0571C47.9393 60.6234 46.5509 66.5693 46.0907 69.7904L50.3334 74.033C53.5544 73.5729 59.5003 72.1845 66.0667 68.4648M51.6589 54.0571C58.2223 42.4708 68.3118 35.9932 82.1532 37.9706C84.1305 51.8119 77.653 61.9015 66.0667 68.4648M51.6589 54.0571C52.849 60.9586 59.1652 67.2747 66.0667 68.4648M71.5466 52.8198C70.375 53.9914 68.4755 53.9914 67.3039 52.8198C66.1324 51.6482 66.1324 49.7487 67.3039 48.5772C68.4755 47.4056 70.375 47.4056 71.5466 48.5772C72.7182 49.7487 72.7182 51.6482 71.5466 52.8198Z"
                    stroke="#EAF8FF" stroke-width="4" stroke-linecap="round" stroke-linejoin="round" />
        </g>
        <defs>
            <linearGradient id="paint0_linear_3494_34263" x1="60" y1="0" x2="60"
                            y2="120" gradientUnits="userSpaceOnUse">
                <stop stop-color="white" stop-opacity="0.01" offset="" />
                <stop offset="1" stop-color="white" stop-opacity="0.25" />
            </linearGradient>
            <radialGradient id="paint1_radial_3494_34263" cx="0" cy="0" r="1"
                            gradientUnits="userSpaceOnUse" gradientTransform="translate(60 120) scale(60)">
                <stop stop-color="white" stop-opacity="0.39" offset="" />
                <stop offset="0.4" stop-color="white" stop-opacity="0.25" />
                <stop offset="1" stop-color="white" stop-opacity="0" />
            </radialGradient>
            <clipPath id="clip0_3494_34263">
                <rect width="72" height="72" fill="white" transform="translate(24 24)" />
            </clipPath>
        </defs>
    </symbol>
    <symbol width="120" height="120" viewBox="0 0 120 120" fill="none"
            xmlns="http://www.w3.org/2000/svg" id="Soap">
        <rect width="120" height="120" rx="24" fill="#251E40" />
        <rect width="120" height="120" rx="24" fill="url(#paint0_linear_3494_34252)"
              fill-opacity="0.48" />
        <rect width="120" height="120" rx="24" fill="url(#paint1_radial_3494_34252)"
              fill-opacity="0.24" style="mix-blend-mode:plus-lighter" />
        <path
                d="M57 75C57 68.3726 51.6274 63 45 63C38.3726 63 33 68.3726 33 75C33 81.6274 38.3726 87 45 87C51.6274 87 57 81.6274 57 75Z"
                stroke="#F1EEFE" stroke-width="4" stroke-linecap="round" stroke-linejoin="round" />
        <path
                d="M69 43.5C69 37.701 64.299 33 58.5 33C52.701 33 48 37.701 48 43.5C48 49.299 52.701 54 58.5 54C64.299 54 69 49.299 69 43.5Z"
                stroke="#F1EEFE" stroke-width="4" stroke-linecap="round" stroke-linejoin="round" />
        <path
                d="M87 66C87 61.0294 82.9706 57 78 57C73.0294 57 69 61.0294 69 66C69 70.9706 73.0294 75 78 75C82.9706 75 87 70.9706 87 66Z"
                stroke="#F1EEFE" stroke-width="4" stroke-linecap="round" stroke-linejoin="round" />
        <path
                d="M72 84C72 82.3431 70.6569 81 69 81C67.3431 81 66 82.3431 66 84C66 85.6569 67.3431 87 69 87C70.6569 87 72 85.6569 72 84Z"
                stroke="#F1EEFE" stroke-width="4" stroke-linecap="round" stroke-linejoin="round" />
        <path
                d="M87 45C87 43.3431 85.6569 42 84 42C82.3431 42 81 43.3431 81 45C81 46.6569 82.3431 48 84 48C85.6569 48 87 46.6569 87 45Z"
                stroke="#F1EEFE" stroke-width="4" stroke-linecap="round" stroke-linejoin="round" />
        <path
                d="M39 51C39 49.3431 37.6569 48 36 48C34.3431 48 33 49.3431 33 51C33 52.6569 34.3431 54 36 54C37.6569 54 39 52.6569 39 51Z"
                stroke="#F1EEFE" stroke-width="4" stroke-linecap="round" stroke-linejoin="round" />
        <defs>
            <linearGradient id="paint0_linear_3494_34252" x1="60" y1="0" x2="60"
                            y2="120" gradientUnits="userSpaceOnUse">
                <stop stop-color="white" stop-opacity="0.01" offset="" />
                <stop offset="1" stop-color="white" stop-opacity="0.25" />
            </linearGradient>
            <radialGradient id="paint1_radial_3494_34252" cx="0" cy="0" r="1"
                            gradientUnits="userSpaceOnUse" gradientTransform="translate(60 120) scale(60)">
                <stop stop-color="white" stop-opacity="0.39" offset="" />
                <stop offset="0.4" stop-color="white" stop-opacity="0.25" />
                <stop offset="1" stop-color="white" stop-opacity="0" />
            </radialGradient>
        </defs>
    </symbol>
    <symbol width="120" height="120" viewBox="0 0 120 120" fill="none"
            xmlns="http://www.w3.org/2000/svg" id="Talk">
        <rect width="120" height="120" rx="24" fill="#202425" />
        <rect width="120" height="120" rx="24" fill="url(#paint0_linear_3494_34251)"
              fill-opacity="0.48" />
        <rect width="120" height="120" rx="24" fill="url(#paint1_radial_3494_34251)"
              fill-opacity="0.24" style="mix-blend-mode:plus-lighter" />
        <path
                d="M36 63V54C36 49.0294 40.0294 45 45 45H54M36 63L46.6169 84.2338C47.4645 85.9291 49.1973 87 51.0928 87V87C54.185 87 56.5372 84.2233 56.0289 81.1731L54 69M36 63L36.5125 64.0249C38.037 67.074 41.1534 69 44.5623 69H54M54 69L75.3794 78.5019C77.6634 79.5171 80.1305 77.4529 79.6251 75.0051C78.9774 71.8681 78.487 68.8925 78.1539 66M54 69V45M54 45L75.3794 35.4981C77.6634 34.4829 80.1305 36.5471 79.6251 38.9949C78.9774 42.1319 78.487 45.1075 78.1539 48M78.1539 48L80.5674 49.8337C85.308 53.4353 85.308 60.5647 80.5674 64.1663L78.1539 66M78.1539 48C77.4487 54.1241 77.4487 59.8759 78.1539 66"
                stroke="#ECEDEE" stroke-width="4" stroke-linecap="round" stroke-linejoin="round" />
        <defs>
            <linearGradient id="paint0_linear_3494_34251" x1="60" y1="0" x2="60"
                            y2="120" gradientUnits="userSpaceOnUse">
                <stop stop-color="white" stop-opacity="0.01" offset="" />
                <stop offset="1" stop-color="white" stop-opacity="0.25" />
            </linearGradient>
            <radialGradient id="paint1_radial_3494_34251" cx="0" cy="0" r="1"
                            gradientUnits="userSpaceOnUse" gradientTransform="translate(60 120) scale(60)">
                <stop stop-color="white" stop-opacity="0.39" offset="" />
                <stop offset="0.4" stop-color="white" stop-opacity="0.25" />
                <stop offset="1" stop-color="white" stop-opacity="0" />
            </radialGradient>
        </defs>
    </symbol>
    <symbol width="120" height="120" viewBox="0 0 120 120" fill="none"
            xmlns="http://www.w3.org/2000/svg" id="Thriller">
        <rect width="120" height="120" rx="24" fill="#232326" />
        <rect width="120" height="120" rx="24" fill="url(#paint0_linear_3494_34266)"
              fill-opacity="0.48" />
        <rect width="120" height="120" rx="24" fill="url(#paint1_radial_3494_34266)"
              fill-opacity="0.24" style="mix-blend-mode:plus-lighter" />
        <path
                d="M84.0001 83.9999L66.7279 66.7279M66.7279 66.7279C69.9853 63.4706 72 58.9706 72 54C72 44.0589 63.9411 36 54 36C44.0589 36 36 44.0589 36 54C36 63.9411 44.0589 72 54 72C58.9706 72 63.4706 69.9853 66.7279 66.7279Z"
                stroke="#EDEDEF" stroke-width="4" stroke-linecap="round" stroke-linejoin="round" />
        <defs>
            <linearGradient id="paint0_linear_3494_34266" x1="60" y1="0" x2="60"
                            y2="120" gradientUnits="userSpaceOnUse">
                <stop stop-color="white" stop-opacity="0.01" offset="" />
                <stop offset="1" stop-color="white" stop-opacity="0.25" />
            </linearGradient>
            <radialGradient id="paint1_radial_3494_34266" cx="0" cy="0" r="1"
                            gradientUnits="userSpaceOnUse" gradientTransform="translate(60 120) scale(60)">
                <stop stop-color="white" stop-opacity="0.39" offset="" />
                <stop offset="0.4" stop-color="white" stop-opacity="0.25" />
                <stop offset="1" stop-color="white" stop-opacity="0" />
            </radialGradient>
        </defs>
    </symbol>
    <symbol width="120" height="120" viewBox="0 0 120 120" fill="none"
            xmlns="http://www.w3.org/2000/svg" id="TV_Movie">
        <rect width="120" height="120" rx="24" fill="#2C2100" />
        <rect width="120" height="120" rx="24" fill="url(#paint0_linear_3494_34249)"
              fill-opacity="0.48" />
        <rect width="120" height="120" rx="24" fill="url(#paint1_radial_3494_34249)"
              fill-opacity="0.24" style="mix-blend-mode:plus-lighter" />
        <path
                d="M48 36L60 48M60 48H78C82.9706 48 87 52.0294 87 57V75C87 79.9706 82.9706 84 78 84H42C37.0294 84 33 79.9706 33 75V57C33 52.0294 37.0294 48 42 48H60ZM60 48L69 39"
                stroke="#FFFAD1" stroke-width="4" stroke-linecap="round" stroke-linejoin="round" />
        <defs>
            <linearGradient id="paint0_linear_3494_34249" x1="60" y1="0" x2="60"
                            y2="120" gradientUnits="userSpaceOnUse">
                <stop stop-color="white" stop-opacity="0.01" offset="" />
                <stop offset="1" stop-color="white" stop-opacity="0.25" />
            </linearGradient>
            <radialGradient id="paint1_radial_3494_34249" cx="0" cy="0" r="1"
                            gradientUnits="userSpaceOnUse" gradientTransform="translate(60 120) scale(60)">
                <stop stop-color="white" stop-opacity="0.39" offset="" />
                <stop offset="0.4" stop-color="white" stop-opacity="0.25" />
                <stop offset="1" stop-color="white" stop-opacity="0" />
            </radialGradient>
        </defs>
    </symbol>
    <symbol width="120" height="120" viewBox="0 0 120 120" fill="none"
            xmlns="http://www.w3.org/2000/svg" id="War_and_Politics">
        <rect width="120" height="120" rx="24" fill="#0F291E" />
        <rect width="120" height="120" rx="24" fill="url(#paint0_linear_3494_34250)"
              fill-opacity="0.48" />
        <rect width="120" height="120" rx="24" fill="url(#paint1_radial_3494_34250)"
              fill-opacity="0.24" style="mix-blend-mode:plus-lighter" />
        <path
                d="M73.5 51L82.5 36H66L60 45M58.5 48L60 45M60 45L54 36H37.5L46.5 51M75 69C75 77.2843 68.2843 84 60 84C51.7157 84 45 77.2843 45 69C45 60.7157 51.7157 54 60 54C68.2843 54 75 60.7157 75 69Z"
                stroke="#E5FBEB" stroke-width="4" stroke-linecap="round" stroke-linejoin="round" />
        <defs>
            <linearGradient id="paint0_linear_3494_34250" x1="60" y1="0" x2="60"
                            y2="120" gradientUnits="userSpaceOnUse">
                <stop stop-color="white" stop-opacity="0.01" offset="" />
                <stop offset="1" stop-color="white" stop-opacity="0.25" />
            </linearGradient>
            <radialGradient id="paint1_radial_3494_34250" cx="0" cy="0" r="1"
                            gradientUnits="userSpaceOnUse" gradientTransform="translate(60 120) scale(60)">
                <stop stop-color="white" stop-opacity="0.39" offset="" />
                <stop offset="0.4" stop-color="white" stop-opacity="0.25" />
                <stop offset="1" stop-color="white" stop-opacity="0" />
            </radialGradient>
        </defs>
    </symbol>
    <symbol width="120" height="120" viewBox="0 0 120 120" fill="none"
            xmlns="http://www.w3.org/2000/svg" id="War">
        <rect width="120" height="120" rx="24" fill="#0F291E" />
        <rect width="120" height="120" rx="24" fill="url(#paint0_linear_3494_34258)"
              fill-opacity="0.48" />
        <rect width="120" height="120" rx="24" fill="url(#paint1_radial_3494_34258)"
              fill-opacity="0.24" style="mix-blend-mode:plus-lighter" />
        <path
                d="M37.7143 45H79.0607C81.8913 45 84.3369 46.9783 84.9283 49.7465L85.4571 52.2222M37.7143 45H30V54L34.6286 60H40.8M37.7143 45V42M37.7143 45V51.8213C37.7143 53.2531 38.0559 54.6642 38.7107 55.9375L40.8 60M40.8 60H54.9857M81.8143 60H87L85.4571 52.2222M81.8143 60L88.988 79.9865C89.6896 81.941 88.241 84 86.1644 84H79.2212C76.689 84 74.4294 82.4103 73.574 80.027L66.3857 60M81.8143 60H66.3857M66.3857 60H54.9857M54.9857 60L55.3218 65.3009C55.422 66.8809 56.7327 68.1111 58.3158 68.1111H67.5M85.4571 52.2222V52.2222C87.4175 51.4348 89.0217 49.9566 89.9665 48.067L90 48"
                stroke="#E5FBEB" stroke-width="4" stroke-linecap="round" stroke-linejoin="round" />
        <defs>
            <linearGradient id="paint0_linear_3494_34258" x1="60" y1="0" x2="60"
                            y2="120" gradientUnits="userSpaceOnUse">
                <stop stop-color="white" stop-opacity="0.01" offset="" />
                <stop offset="1" stop-color="white" stop-opacity="0.25" />
            </linearGradient>
            <radialGradient id="paint1_radial_3494_34258" cx="0" cy="0" r="1"
                            gradientUnits="userSpaceOnUse" gradientTransform="translate(60 120) scale(60)">
                <stop stop-color="white" stop-opacity="0.39" offset="" />
                <stop offset="0.4" stop-color="white" stop-opacity="0.25" />
                <stop offset="1" stop-color="white" stop-opacity="0" />
            </radialGradient>
        </defs>
    </symbol>
    <symbol width="120" height="120" viewBox="0 0 120 120" fill="none"
            xmlns="http://www.w3.org/2000/svg" id="Western">
        <rect width="120" height="120" rx="24" fill="#232320" />
        <rect width="120" height="120" rx="24" fill="url(#paint0_linear_3494_34267)"
              fill-opacity="0.48" />
        <rect width="120" height="120" rx="24" fill="url(#paint1_radial_3494_34267)"
              fill-opacity="0.24" style="mix-blend-mode:plus-lighter" />
        <path
                d="M30 62.3725L31.8512 66.075C34.2753 70.9232 39.7414 73.4373 45 72.1226V72.1226M90 62.3725L88.1488 66.075C85.7247 70.9232 80.2586 73.4373 75 72.1226V72.1226M75 72.1226L69.4589 70.7373C63.2485 69.1848 56.7515 69.1848 50.5411 70.7373L45 72.1226M75 72.1226V66.0004C75 66.0004 75 66.0004 75 66.0004C75 66.0004 75 36.1749 62.4708 47.7365C61.094 49.007 58.906 49.007 57.5292 47.7365C45 36.1749 45 66.0001 45 66.0001C45 66.0001 45 66.0001 45 66.0001V72.1226"
                stroke="#EDEDEC" stroke-width="4" stroke-linecap="round" stroke-linejoin="round" />
        <defs>
            <linearGradient id="paint0_linear_3494_34267" x1="60" y1="0" x2="60"
                            y2="120" gradientUnits="userSpaceOnUse">
                <stop stop-color="white" stop-opacity="0.01" offset="" />
                <stop offset="1" stop-color="white" stop-opacity="0.25" />
            </linearGradient>
            <radialGradient id="paint1_radial_3494_34267" cx="0" cy="0" r="1"
                            gradientUnits="userSpaceOnUse" gradientTransform="translate(60 120) scale(60)">
                <stop stop-color="white" stop-opacity="0.39" offset="" />
                <stop offset="0.4" stop-color="white" stop-opacity="0.25" />
                <stop offset="1" stop-color="white" stop-opacity="0" />
            </radialGradient>
        </defs>
    </symbol>

</svg>
