<svg width="0" height="0" style="display: none;">
<symbol id="nmForwardHalftone" xmlns="http://www.w3.org/2000/svg"  fill="var(--fill-color, none)" viewBox="0 0 24 24">
    <path fill="currentColor" d="M7.192 18.556a6 6 0 0 1-.19-.96C6.9 16.75 6.9 15.655 6.9 14.34V9.51c0-1.315 0-2.41.103-3.257a6 6 0 0 1 .152-.827c-.793-.389-1.47-.71-2.041-.911-.688-.242-1.421-.384-2.153-.113a3 3 0 0 0-1.026.638c-.566.537-.763 1.257-.85 1.98C1 7.727 1 8.635 1 9.723v4.555c0 1.089 0 1.997.085 2.703.087.724.284 1.443.85 1.98a3 3 0 0 0 1.026.639c.732.27 1.465.128 2.153-.114.58-.204 1.27-.532 2.078-.929" opacity=".6" />
    <path fill="currentColor" d="M9.362 17.64c.132.453.35.876.721 1.219.305.28.664.496 1.056.63.754.261 1.501.089 2.197-.184.682-.266 1.508-.71 2.502-1.245l3.796-2.04c1.093-.588 1.995-1.073 2.641-1.527.652-.459 1.25-1.024 1.431-1.852.093-.422.093-.86 0-1.283-.18-.827-.78-1.393-1.43-1.851-.647-.455-1.549-.94-2.642-1.527l-3.796-2.04c-.994-.535-1.82-.98-2.502-1.246-.696-.272-1.443-.445-2.197-.184a3 3 0 0 0-1.056.63c-.4.37-.62.831-.75 1.322l-.008.07c-.084.69-.086 1.642-.086 3.053v4.678c0 1.412.002 2.362.086 3.053z" />
</symbol>
<symbol id="nmForward" xmlns="http://www.w3.org/2000/svg"  fill="var(--fill-color, none)" viewBox="0 0 24 24">
    <path fill="currentColor" d="M9.362 17.64c.132.453.35.876.721 1.219.305.28.664.496 1.056.63.754.261 1.501.089 2.197-.184.682-.266 1.508-.71 2.502-1.245l3.796-2.04c1.093-.588 1.995-1.073 2.641-1.527.652-.459 1.25-1.024 1.431-1.852.093-.422.093-.86 0-1.283-.18-.827-.78-1.393-1.43-1.851-.647-.455-1.549-.94-2.642-1.527l-3.796-2.04c-.994-.535-1.82-.98-2.502-1.246-.696-.272-1.443-.445-2.197-.184a3 3 0 0 0-1.056.63c-.4.37-.62.831-.75 1.322l-.008.07c-.084.69-.086 1.642-.086 3.053v4.678c0 1.412.002 2.362.086 3.053zm-2.17.916a6 6 0 0 1-.19-.96C6.9 16.75 6.9 15.655 6.9 14.34V9.51c0-1.315 0-2.41.103-3.257a6 6 0 0 1 .152-.827c-.793-.389-1.47-.71-2.041-.911-.688-.242-1.421-.384-2.153-.113a3 3 0 0 0-1.026.638c-.566.537-.763 1.257-.85 1.98C1 7.727 1 8.635 1 9.723v4.555c0 1.089 0 1.997.085 2.703.087.724.284 1.443.85 1.98a3 3 0 0 0 1.026.639c.732.27 1.465.128 2.153-.114.58-.204 1.27-.532 2.078-.929" />
</symbol>
<symbol id="nmNextHalftone" xmlns="http://www.w3.org/2000/svg"  fill="var(--fill-color, none)" viewBox="0 0 24 24">
    <path fill="currentColor" fill-rule="evenodd" d="M6.237 4.727C5.54 4.45 4.79 4.271 4.032 4.53a3 3 0 0 0-1.06.63c-.591.542-.794 1.285-.884 2.03C2 7.92 2 8.864 2 10v4c0 1.136 0 2.08.088 2.81.09.745.293 1.488.883 2.03.306.281.667.495 1.06.63.76.258 1.509.08 2.206-.198.683-.272 1.511-.724 2.508-1.267l3.665-2c1.076-.586 1.964-1.07 2.6-1.524.644-.459 1.233-1.023 1.411-1.844a3 3 0 0 0 0-1.276c-.178-.82-.767-1.385-1.41-1.843-.637-.454-1.525-.938-2.601-1.525L8.745 5.995c-.997-.544-1.825-.996-2.508-1.268" clip-rule="evenodd" opacity=".6" />
    <path fill="currentColor" fill-rule="evenodd" d="M19.5 5.5A1.5 1.5 0 0 0 18 7v10a1.5 1.5 0 0 0 3 0V7a1.5 1.5 0 0 0-1.5-1.5" clip-rule="evenodd" />
</symbol>
<symbol id="nmNext" xmlns="http://www.w3.org/2000/svg"  fill="var(--fill-color, none)" viewBox="0 0 24 24">
    <path fill="currentColor" fill-rule="evenodd" d="M6.237 4.727C5.54 4.45 4.79 4.271 4.032 4.53a3 3 0 0 0-1.06.63c-.591.542-.794 1.285-.884 2.03C2 7.92 2 8.864 2 10v4c0 1.136 0 2.08.088 2.81.09.745.293 1.488.883 2.03.306.281.667.495 1.06.63.76.258 1.509.08 2.206-.198.683-.272 1.511-.724 2.508-1.267l3.665-2c1.076-.586 1.964-1.07 2.6-1.524.644-.459 1.233-1.023 1.411-1.844a3 3 0 0 0 0-1.276c-.178-.82-.767-1.385-1.41-1.843-.637-.454-1.525-.938-2.601-1.525L8.745 5.995c-.997-.544-1.825-.996-2.508-1.268M19.5 5.5A1.5 1.5 0 0 0 18 7v10a1.5 1.5 0 0 0 3 0V7a1.5 1.5 0 0 0-1.5-1.5" clip-rule="evenodd" />
</symbol>
<symbol id="nmPauseHalftone" xmlns="http://www.w3.org/2000/svg"  fill="var(--fill-color, none)" viewBox="0 0 24 24">
    <path fill="currentColor" fill-rule="evenodd" d="M8 5a2 2 0 0 1 2 2v10a2 2 0 1 1-4 0V7a2 2 0 0 1 2-2m8 0a2 2 0 0 1 2 2v10a2 2 0 1 1-4 0V7a2 2 0 0 1 2-2" clip-rule="evenodd" opacity=".6" />
    <path fill="currentColor" fill-rule="evenodd" d="M8 5a2 2 0 0 1 2 2v10a2 2 0 1 1-4 0V7a2 2 0 0 1 2-2m8 0a2 2 0 0 1 2 2v10a2 2 0 1 1-4 0V7a2 2 0 0 1 2-2" clip-rule="evenodd" />
</symbol>
<symbol id="nmPause" xmlns="http://www.w3.org/2000/svg"  fill="var(--fill-color, none)" viewBox="0 0 24 24">
    <path fill="currentColor" fill-rule="evenodd" d="M8 5a2 2 0 0 1 2 2v10a2 2 0 1 1-4 0V7a2 2 0 0 1 2-2m8 0a2 2 0 0 1 2 2v10a2 2 0 1 1-4 0V7a2 2 0 0 1 2-2" clip-rule="evenodd" />
</symbol>
<symbol id="nmPlayHalftone" xmlns="http://www.w3.org/2000/svg"  fill="var(--fill-color, none)" viewBox="0 0 24 24">
    <path fill="currentColor" fill-rule="evenodd" d="m11.957 5.91 3.867 2.063c1.103.588 2.012 1.073 2.664 1.528.656.459 1.26 1.025 1.442 1.856a3 3 0 0 1 0 1.287c-.182.83-.786 1.396-1.442 1.855-.652.455-1.56.94-2.664 1.528l-3.867 2.063c-.992.529-1.818.969-2.498 1.233-.695.27-1.44.439-2.193.178a3 3 0 0 1-1.053-.632c-.585-.541-.786-1.279-.876-2.02-.087-.724-.087-1.659-.087-2.784v-4.13c0-1.125 0-2.06.087-2.785.09-.74.291-1.478.876-2.019A3 3 0 0 1 7.266 4.5c.752-.261 1.498-.091 2.193.178.68.264 1.506.704 2.498 1.233" clip-rule="evenodd" opacity=".6" />
    <path fill="currentColor" fill-rule="evenodd" d="m11.957 5.91 3.867 2.063c1.103.588 2.012 1.073 2.664 1.528.656.459 1.26 1.025 1.442 1.856a3 3 0 0 1 0 1.287c-.182.83-.786 1.396-1.442 1.855-.652.455-1.56.94-2.664 1.528l-3.867 2.063c-.992.529-1.818.969-2.498 1.233-.695.27-1.44.439-2.193.178a3 3 0 0 1-1.053-.632c-.585-.541-.786-1.279-.876-2.02-.087-.724-.087-1.659-.087-2.784v-4.13c0-1.125 0-2.06.087-2.785.09-.74.291-1.478.876-2.019A3 3 0 0 1 7.266 4.5c.752-.261 1.498-.091 2.193.178.68.264 1.506.704 2.498 1.233" clip-rule="evenodd" />
</symbol>
<symbol id="nmPlay" xmlns="http://www.w3.org/2000/svg"  fill="var(--fill-color, none)" viewBox="0 0 24 24">
    <path fill="currentColor" fill-rule="evenodd" d="m11.957 5.91 3.867 2.063c1.103.588 2.012 1.073 2.664 1.528.656.459 1.26 1.025 1.442 1.856a3 3 0 0 1 0 1.287c-.182.83-.786 1.396-1.442 1.855-.652.455-1.56.94-2.664 1.528l-3.867 2.063c-.992.529-1.818.969-2.498 1.233-.695.27-1.44.439-2.193.178a3 3 0 0 1-1.053-.632c-.585-.541-.786-1.279-.876-2.02-.087-.724-.087-1.659-.087-2.784v-4.13c0-1.125 0-2.06.087-2.785.09-.74.291-1.478.876-2.019A3 3 0 0 1 7.266 4.5c.752-.261 1.498-.091 2.193.178.68.264 1.506.704 2.498 1.233" clip-rule="evenodd" />
</symbol>
<symbol id="nmPreviousHalftone" xmlns="http://www.w3.org/2000/svg"  fill="var(--fill-color, none)" viewBox="0 0 24 24">
    <path fill="currentColor" fill-rule="evenodd" d="M16.763 4.727c.697-.278 1.447-.456 2.205-.197.394.134.755.348 1.06.63.591.542.794 1.285.884 2.03C21 7.92 21 8.864 21 10v4c0 1.136 0 2.08-.088 2.81-.09.745-.293 1.488-.883 2.03a3 3 0 0 1-1.06.63c-.76.258-1.509.08-2.206-.198-.683-.272-1.511-.724-2.508-1.267l-3.665-2c-1.076-.586-1.964-1.07-2.6-1.524-.644-.459-1.233-1.023-1.411-1.844a3 3 0 0 1 0-1.276c.178-.82.767-1.385 1.41-1.843.637-.454 1.525-.938 2.601-1.525l3.665-1.999c.997-.544 1.825-.996 2.508-1.268" clip-rule="evenodd" opacity=".6" />
    <path fill="currentColor" fill-rule="evenodd" d="M3.5 5.5A1.5 1.5 0 0 1 5 7v10a1.5 1.5 0 0 1-3 0V7a1.5 1.5 0 0 1 1.5-1.5" clip-rule="evenodd" />
</symbol>
<symbol id="nmPrevious" xmlns="http://www.w3.org/2000/svg"  fill="var(--fill-color, none)" viewBox="0 0 24 24">
    <path fill="currentColor" fill-rule="evenodd" d="M16.763 4.727c.697-.278 1.447-.456 2.205-.197a3 3 0 0 1 1.06.63c.591.542.794 1.285.884 2.03C21 7.92 21 8.864 21 10v4c0 1.136 0 2.08-.088 2.81-.09.745-.293 1.488-.883 2.03a3 3 0 0 1-1.06.63c-.76.258-1.509.08-2.206-.198-.683-.272-1.511-.724-2.508-1.267l-3.665-2c-1.076-.586-1.964-1.07-2.6-1.524-.644-.459-1.233-1.023-1.411-1.844a3 3 0 0 1 0-1.276c.178-.82.767-1.385 1.41-1.843.637-.454 1.525-.938 2.601-1.525l3.665-1.999c.997-.544 1.825-.996 2.508-1.268M3.5 5.5A1.5 1.5 0 0 1 5 7v10a1.5 1.5 0 0 1-3 0V7a1.5 1.5 0 0 1 1.5-1.5" clip-rule="evenodd" />
</symbol>
<symbol id="nmRepeatHalftone" xmlns="http://www.w3.org/2000/svg"  fill="var(--fill-color, none)" viewBox="0 0 24 24">
    <path fill="currentColor" fill-rule="evenodd" d="M8.46 4.636a1 1 0 0 1 1.404-.175l2.25 1.75a1 1 0 0 1 0 1.578l-2.25 1.75A1 1 0 0 1 8.588 8c-.733.001-1.264.008-1.688.046-.485.044-.73.123-.9.222A2 2 0 0 0 5.268 9c-.098.17-.178.415-.222.9C5.001 10.4 5 11.047 5 12s.001 1.6.046 2.1c.044.485.124.73.222.9a2 2 0 0 0 .732.732c.17.099.415.178.9.222.5.045 1.147.046 2.1.046h6c.953 0 1.6-.001 2.1-.046.485-.044.73-.123.9-.222a2 2 0 0 0 .732-.732c.099-.17.178-.415.222-.9.045-.5.046-1.147.046-2.1s-.001-1.6-.046-2.1c-.044-.485-.123-.73-.222-.9A2 2 0 0 0 18 8.268c-.17-.099-.415-.178-.9-.222C16.6 8.001 15.953 8 15 8a1 1 0 1 1 0-2h.046c.896 0 1.634 0 2.234.054.624.057 1.194.178 1.72.482A4 4 0 0 1 20.464 8c.304.526.425 1.096.482 1.72.054.6.054 1.338.054 2.234v.092c0 .896 0 1.635-.054 2.234-.057.624-.178 1.194-.482 1.72A4 4 0 0 1 19 17.464c-.526.304-1.096.425-1.72.482-.6.054-1.339.054-2.234.054H8.954c-.896 0-1.634 0-2.234-.054-.624-.057-1.194-.178-1.72-.482A4 4 0 0 1 3.536 16c-.304-.526-.425-1.096-.482-1.72C3 13.68 3 12.942 3 12.046v-.092c0-.896 0-1.635.054-2.234.057-.624.178-1.194.482-1.72A4 4 0 0 1 5 6.536c.526-.304 1.096-.425 1.72-.482.516-.046 1.135-.053 1.869-.054a1 1 0 0 1-.128-1.364" clip-rule="evenodd" opacity=".6" />
    <path fill="currentColor" d="M8.46 4.636a1 1 0 0 1 1.404-.175l2.25 1.75a1 1 0 0 1 0 1.578l-2.25 1.75A1 1 0 0 1 8.588 8l1-1-1-1a1 1 0 0 1-.127-1.364" />
</symbol>
<symbol id="nmRepeat" xmlns="http://www.w3.org/2000/svg"  fill="var(--fill-color, none)" viewBox="0 0 24 24">
    <path fill="currentColor" fill-rule="evenodd" d="M8.46 4.636a1 1 0 0 1 1.404-.175l2.25 1.75a1 1 0 0 1 0 1.578l-2.25 1.75A1 1 0 0 1 8.588 8c-.733.001-1.264.008-1.688.046-.485.044-.73.123-.9.222A2 2 0 0 0 5.268 9c-.098.17-.178.415-.222.9C5.001 10.4 5 11.047 5 12s.001 1.6.046 2.1c.044.485.124.73.222.9a2 2 0 0 0 .732.732c.17.099.415.178.9.222.5.045 1.147.046 2.1.046h6c.953 0 1.6-.001 2.1-.046.485-.044.73-.123.9-.222a2 2 0 0 0 .732-.732c.099-.17.178-.415.222-.9.045-.5.046-1.147.046-2.1s-.001-1.6-.046-2.1c-.044-.485-.123-.73-.222-.9A2 2 0 0 0 18 8.268c-.17-.099-.415-.178-.9-.222C16.6 8.001 15.953 8 15 8a1 1 0 1 1 0-2h.046c.896 0 1.634 0 2.234.054.624.057 1.194.178 1.72.482A4 4 0 0 1 20.464 8c.304.526.425 1.096.482 1.72.054.6.054 1.338.054 2.234v.092c0 .896 0 1.635-.054 2.234-.057.624-.178 1.194-.482 1.72A4 4 0 0 1 19 17.464c-.526.304-1.096.425-1.72.482-.6.054-1.339.054-2.234.054H8.954c-.896 0-1.634 0-2.234-.054-.624-.057-1.194-.178-1.72-.482A4 4 0 0 1 3.536 16c-.304-.526-.425-1.096-.482-1.72C3 13.68 3 12.942 3 12.046v-.092c0-.896 0-1.635.054-2.234.057-.624.178-1.194.482-1.72A4 4 0 0 1 5 6.536c.526-.304 1.096-.425 1.72-.482.516-.046 1.135-.053 1.869-.054a1 1 0 0 1-.128-1.364" clip-rule="evenodd" />
</symbol>
<symbol id="nmRepeatdoublearrowHalftone" xmlns="http://www.w3.org/2000/svg"  fill="var(--fill-color, none)" viewBox="0 0 24 24">
    <path fill="currentColor" fill-rule="evenodd" d="M8.46 4.636a1 1 0 0 1 1.404-.175l2.25 1.75a1 1 0 0 1 0 1.578l-2.25 1.75A1 1 0 0 1 8.588 8c-.733.001-1.264.008-1.688.046-.485.044-.73.123-.9.222A2 2 0 0 0 5.268 9c-.098.17-.178.415-.222.9C5.001 10.4 5 11.047 5 12s.001 1.6.046 2.1c.044.485.124.73.222.9a2 2 0 0 0 .732.732c.17.099.415.178.9.222.5.045 1.147.046 2.1.046a1 1 0 1 1 0 2h-.046c-.896 0-1.634 0-2.234-.054-.624-.057-1.194-.178-1.72-.482A4 4 0 0 1 3.536 16c-.304-.526-.425-1.096-.482-1.72C3 13.68 3 12.942 3 12.046v-.092c0-.896 0-1.635.054-2.234.057-.624.178-1.194.482-1.72A4 4 0 0 1 5 6.536c.526-.304 1.096-.425 1.72-.482.516-.046 1.135-.053 1.869-.054a1 1 0 0 1-.128-1.364" clip-rule="evenodd" opacity=".6" />
    <path fill="currentColor" fill-rule="evenodd" d="M17.1 8.046C16.6 8.001 15.953 8 15 8a1 1 0 1 1 0-2h.046c.896 0 1.634 0 2.234.054.624.057 1.194.178 1.72.482A4 4 0 0 1 20.464 8c.304.526.425 1.096.482 1.72.054.6.054 1.338.054 2.234v.092c0 .896 0 1.634-.054 2.234-.057.624-.178 1.194-.482 1.72A4 4 0 0 1 19 17.464c-.526.304-1.096.425-1.72.482-.516.046-1.135.053-1.869.054a1 1 0 0 1-1.275 1.54l-2.25-1.75a1 1 0 0 1 0-1.58l2.25-1.75A1 1 0 0 1 15.412 16c.733-.001 1.264-.008 1.688-.046.485-.044.73-.123.9-.222a2 2 0 0 0 .732-.732c.099-.17.178-.415.222-.9.045-.5.046-1.147.046-2.1s-.001-1.601-.046-2.1c-.044-.485-.123-.73-.222-.9A2 2 0 0 0 18 8.268c-.17-.099-.415-.178-.9-.222" clip-rule="evenodd" />
</symbol>
<symbol id="nmRepeatdoublearrows" xmlns="http://www.w3.org/2000/svg"  fill="var(--fill-color, none)" viewBox="0 0 24 24">
    <path fill="currentColor" fill-rule="evenodd" d="M8.46 4.636a1 1 0 0 1 1.404-.175l2.25 1.75a1 1 0 0 1 0 1.578l-2.25 1.75A1 1 0 0 1 8.588 8c-.733.001-1.264.008-1.688.046-.485.044-.73.123-.9.222A2 2 0 0 0 5.268 9c-.098.17-.178.415-.222.9C5.001 10.4 5 11.047 5 12s.001 1.6.046 2.1c.044.485.124.73.222.9a2 2 0 0 0 .732.732c.17.099.415.178.9.222.5.045 1.147.046 2.1.046a1 1 0 1 1 0 2h-.046c-.896 0-1.634 0-2.234-.054-.624-.057-1.194-.178-1.72-.482A4 4 0 0 1 3.536 16c-.304-.526-.425-1.096-.482-1.72C3 13.68 3 12.942 3 12.046v-.092c0-.896 0-1.635.054-2.234.057-.624.178-1.194.482-1.72A4 4 0 0 1 5 6.536c.526-.304 1.096-.425 1.72-.482.516-.046 1.135-.053 1.869-.054a1 1 0 0 1-.128-1.364m8.64 3.41C16.6 8.001 15.953 8 15 8a1 1 0 1 1 0-2h.046c.896 0 1.634 0 2.234.054.624.057 1.194.178 1.72.482A4 4 0 0 1 20.464 8c.304.526.425 1.096.482 1.72.054.6.054 1.338.054 2.234v.092c0 .896 0 1.635-.054 2.234-.057.624-.178 1.194-.482 1.72A4 4 0 0 1 19 17.464c-.526.304-1.096.425-1.72.482-.516.046-1.135.053-1.869.054a1 1 0 0 1-1.275 1.54l-2.25-1.75a1 1 0 0 1 0-1.58l2.25-1.75A1 1 0 0 1 15.412 16c.733-.001 1.264-.008 1.688-.046.485-.044.73-.123.9-.222a2 2 0 0 0 .732-.732c.099-.17.178-.415.222-.9.045-.5.046-1.147.046-2.1s-.001-1.6-.046-2.1c-.044-.485-.123-.73-.222-.9A2 2 0 0 0 18 8.268c-.17-.099-.415-.178-.9-.222" clip-rule="evenodd" />
</symbol>
<symbol id="nmRepeatoneHalftone" xmlns="http://www.w3.org/2000/svg"  fill="var(--fill-color, none)" viewBox="0 0 24 24">
    <path fill="currentColor" fill-rule="evenodd" d="M8.46 4.636a1 1 0 0 1 1.404-.175l2.25 1.75a1 1 0 0 1 0 1.578l-2.25 1.75A1 1 0 0 1 8.588 8c-.733.001-1.264.008-1.688.046-.485.044-.73.123-.9.222A2 2 0 0 0 5.268 9c-.098.17-.178.415-.222.9C5.001 10.4 5 11.047 5 12s.001 1.6.046 2.1c.044.485.124.73.222.9a2 2 0 0 0 .732.732c.17.099.415.178.9.222.5.045 1.147.046 2.1.046h1.5a1 1 0 1 1 0 2H8.954c-.896 0-1.634 0-2.234-.054-.624-.057-1.194-.178-1.72-.482A4 4 0 0 1 3.536 16c-.304-.526-.425-1.096-.482-1.72C3 13.68 3 12.942 3 12.046v-.092c0-.896 0-1.635.054-2.234.057-.624.178-1.194.482-1.72A4 4 0 0 1 5 6.536c.526-.304 1.096-.425 1.72-.482.516-.046 1.135-.053 1.869-.054a1 1 0 0 1-.128-1.364m8.64 3.41C16.6 8.001 15.953 8 15 8h-.5a1 1 0 1 1 0-2h.546c.896 0 1.634 0 2.234.054.624.057 1.194.178 1.72.482A4 4 0 0 1 20.464 8c.304.526.425 1.096.482 1.72.054.6.054 1.338.054 2.234v1.615c0 .397 0 .692-.034.953a4 4 0 0 1-3.444 3.444c-.261.034-.056.034-.453.034H17a1 1 0 1 1 0-2c.496 0 .148-.002.261-.017a2 2 0 0 0 1.722-1.722c.015-.113.017-.265.017-.761V12c0-.953-.001-1.6-.046-2.1-.044-.485-.123-.73-.222-.9A2 2 0 0 0 18 8.268c-.17-.099-.415-.178-.9-.222" clip-rule="evenodd" opacity=".6" />
    <path fill="currentColor" fill-rule="evenodd" d="M14 14a1 1 0 0 1 1 1v4a1 1 0 1 1-2 0v-4a1 1 0 0 1 1-1" clip-rule="evenodd" />
</symbol>
<symbol id="nmRepeatone" xmlns="http://www.w3.org/2000/svg"  fill="var(--fill-color, none)" viewBox="0 0 24 24">
    <path fill="currentColor" fill-rule="evenodd" d="M8.46 4.636a1 1 0 0 1 1.404-.175l2.25 1.75a1 1 0 0 1 0 1.578l-2.25 1.75A1 1 0 0 1 8.588 8c-.733.001-1.264.008-1.688.046-.485.044-.73.123-.9.222A2 2 0 0 0 5.268 9c-.098.17-.178.415-.222.9C5.001 10.4 5 11.047 5 12s.001 1.6.046 2.1c.044.485.124.73.222.9a2 2 0 0 0 .732.732c.17.099.415.178.9.222.5.045 1.147.046 2.1.046h1.5a1 1 0 1 1 0 2H8.954c-.896 0-1.634 0-2.234-.054-.624-.057-1.194-.178-1.72-.482A4 4 0 0 1 3.536 16c-.304-.526-.425-1.096-.482-1.72C3 13.68 3 12.942 3 12.046v-.092c0-.896 0-1.635.054-2.234.057-.624.178-1.194.482-1.72A4 4 0 0 1 5 6.536c.526-.304 1.096-.425 1.72-.482.516-.046 1.135-.053 1.869-.054a1 1 0 0 1-.128-1.364m8.64 3.41C16.6 8.001 15.953 8 15 8h-.5a1 1 0 1 1 0-2h.546c.896 0 1.634 0 2.234.054.624.057 1.194.178 1.72.482A4 4 0 0 1 20.464 8c.304.526.425 1.096.482 1.72.054.6.054 1.338.054 2.234v1.615c0 .397 0 .692-.034.953a4 4 0 0 1-3.444 3.444c-.261.034-.056.034-.453.034H17a1 1 0 1 1 0-2c.496 0 .148-.002.261-.017a2 2 0 0 0 1.722-1.722c.015-.113.017-.265.017-.761V12c0-.953-.001-1.6-.046-2.1-.044-.485-.123-.73-.222-.9A2 2 0 0 0 18 8.268c-.17-.099-.415-.178-.9-.222M14 14a1 1 0 0 1 1 1v4a1 1 0 1 1-2 0v-4a1 1 0 0 1 1-1" clip-rule="evenodd" />
</symbol>
<symbol id="nmRewindHalftone" xmlns="http://www.w3.org/2000/svg"  fill="var(--fill-color, none)" viewBox="0 0 24 24">
    <path fill="currentColor" d="M16.804 18.552c.093-.311.15-.636.19-.96.102-.847.102-1.941.102-3.256V9.505c0-1.315 0-2.41-.103-3.257a6 6 0 0 0-.152-.827c.793-.388 1.47-.71 2.041-.91.688-.243 1.42-.385 2.153-.114a3 3 0 0 1 1.026.638c.566.537.762 1.257.85 1.981.085.706.085 1.614.085 2.702v4.555c0 1.089 0 1.997-.085 2.703-.088.724-.284 1.444-.85 1.98a3 3 0 0 1-1.026.64c-.732.27-1.465.127-2.153-.114-.58-.204-1.27-.533-2.078-.93" opacity=".6" />
    <path fill="currentColor" d="M14.634 17.637c-.132.452-.35.875-.721 1.218-.305.28-.664.496-1.056.63-.755.261-1.501.089-2.197-.184-.682-.266-1.508-.71-2.502-1.245l-3.796-2.04c-1.093-.588-1.995-1.073-2.641-1.527-.652-.459-1.25-1.024-1.432-1.852a3 3 0 0 1 0-1.283c.181-.827.78-1.392 1.432-1.851.646-.455 1.547-.94 2.641-1.527l3.796-2.04c.994-.535 1.82-.979 2.502-1.246.695-.272 1.442-.445 2.197-.184a3 3 0 0 1 1.056.63c.4.37.62.831.75 1.322l.008.07c.084.691.086 1.642.086 3.053v4.678c0 1.412-.002 2.363-.086 3.053z" />
</symbol>
<symbol id="nmRewind" xmlns="http://www.w3.org/2000/svg"  fill="var(--fill-color, none)" viewBox="0 0 24 24">
    <path fill="currentColor" d="M14.634 17.637c-.132.452-.35.875-.721 1.218-.305.28-.664.496-1.056.63-.755.261-1.501.089-2.197-.184-.682-.266-1.508-.71-2.502-1.245l-3.796-2.04c-1.093-.588-1.995-1.073-2.641-1.527-.652-.459-1.25-1.024-1.432-1.852a3 3 0 0 1 0-1.283c.181-.827.78-1.392 1.432-1.851.646-.455 1.547-.94 2.641-1.527l3.796-2.04c.994-.535 1.82-.979 2.502-1.246.695-.272 1.442-.445 2.197-.184a3 3 0 0 1 1.056.63c.4.37.62.831.75 1.322l.008.07c.084.691.086 1.642.086 3.053v4.678c0 1.412-.002 2.363-.086 3.053zm2.17.915c.093-.311.15-.636.19-.96.102-.847.102-1.941.102-3.256V9.505c0-1.315 0-2.41-.103-3.257a6 6 0 0 0-.152-.827c.793-.388 1.47-.71 2.041-.91.688-.243 1.42-.385 2.153-.114a3 3 0 0 1 1.026.638c.566.537.762 1.257.85 1.981.085.706.085 1.614.085 2.702v4.555c0 1.089 0 1.997-.085 2.703-.088.724-.284 1.444-.85 1.98a3 3 0 0 1-1.026.64c-.732.27-1.465.127-2.153-.114-.58-.204-1.27-.533-2.078-.93" />
</symbol>
<symbol id="nmShuffleHalftone" xmlns="http://www.w3.org/2000/svg"  fill="var(--fill-color, none)" viewBox="0 0 24 24">
    <path fill="currentColor" fill-rule="evenodd" d="M7.023 8.135C6.716 8.016 6.349 8 5.085 8H4a1 1 0 0 1 0-2h1.251c1.021 0 1.793-.001 2.494.27a4 4 0 0 1 1.013.573c.42.327.741.755 1.08 1.288A.986.986 0 0 1 9.5 9.5a1.02 1.02 0 0 1-1.38-.339c-.27-.424-.418-.605-.59-.74a2 2 0 0 0-.507-.286m5.568 6.902c.462-.462 1.212-.352 1.57.193.113.17.19.255.31.348q.231.181.506.287c.307.119.674.135 1.939.135h.172a1 1 0 0 1 1.276-1.54l2.25 1.75a1 1 0 0 1 0 1.58l-2.25 1.75A1 1 0 0 1 17.088 18h-.339c-1.021 0-1.793.001-2.493-.27a4 4 0 0 1-1.014-.573c-.339-.264-.567-.547-.799-.905a.976.976 0 0 1 .148-1.215" clip-rule="evenodd" opacity=".6" />
    <path fill="currentColor" fill-rule="evenodd" d="M16.96 4.636a1 1 0 0 1 1.404-.175l2.25 1.75a1 1 0 0 1 0 1.578l-2.25 1.75A1 1 0 0 1 17.088 8h-.03c-1.415 0-1.823.02-2.16.167a2 2 0 0 0-.359.203c-.3.214-.527.554-1.255 1.766l-2.854 4.757-.095.16c-.586.978-1.03 1.72-1.715 2.207q-.337.24-.716.405c-.77.337-1.634.336-2.775.335H4a1 1 0 1 1 0-2h.943c1.413 0 1.822-.02 2.16-.168a2 2 0 0 0 .358-.202c.3-.214.527-.554 1.255-1.766l2.854-4.757.095-.16c.586-.978 1.03-1.72 1.715-2.207q.337-.24.716-.405c.77-.337 1.634-.336 2.775-.335h.218a1 1 0 0 1-.128-1.364" clip-rule="evenodd" />
</symbol>
<symbol id="nmShuffle" xmlns="http://www.w3.org/2000/svg"  fill="var(--fill-color, none)" viewBox="0 0 24 24">
    <path fill="currentColor" fill-rule="evenodd" d="M16.96 4.636a1 1 0 0 1 1.404-.175l2.25 1.75a1 1 0 0 1 0 1.578l-2.25 1.75A1 1 0 0 1 17.088 8h-.03c-1.415 0-1.823.02-2.16.167a2 2 0 0 0-.359.203c-.3.214-.527.554-1.255 1.766l-2.854 4.757-.095.16c-.586.978-1.03 1.72-1.715 2.207q-.337.24-.716.405c-.77.337-1.634.336-2.775.335H4a1 1 0 1 1 0-2h.943c1.413 0 1.822-.02 2.16-.168a2 2 0 0 0 .358-.202c.3-.214.527-.554 1.255-1.766l2.854-4.757.095-.16c.586-.978 1.03-1.72 1.715-2.207q.337-.24.716-.405c.77-.337 1.634-.336 2.775-.335h.218a1 1 0 0 1-.128-1.364M7.024 8.135C6.716 8.016 6.349 8 5.085 8H4a1 1 0 1 1 0-2h1.251c1.021 0 1.793-.001 2.494.27a4 4 0 0 1 1.013.573c.42.327.741.755 1.08 1.288A.986.986 0 0 1 9.5 9.5a1.02 1.02 0 0 1-1.38-.339c-.27-.424-.418-.605-.59-.74a2 2 0 0 0-.507-.286m5.568 6.902c.462-.462 1.212-.352 1.57.193.113.17.19.255.31.348q.231.181.506.287c.307.119.674.135 1.939.135h.172a1 1 0 0 1 1.276-1.54l2.25 1.75a1 1 0 0 1 0 1.58l-2.25 1.75A1 1 0 0 1 17.088 18h-.339c-1.021 0-1.793.001-2.493-.27a4 4 0 0 1-1.014-.573c-.339-.264-.567-.547-.799-.905a.976.976 0 0 1 .148-1.215" clip-rule="evenodd" />
</symbol>
<symbol id="nmStopHalftone" xmlns="http://www.w3.org/2000/svg"  fill="var(--fill-color, none)" viewBox="0 0 24 24">
    <path fill="currentColor" fill-rule="evenodd" d="M9.548 5h4.904c.706 0 1.314 0 1.809.054.526.057 1.04.183 1.502.519.255.185.479.409.664.664.335.461.463.976.52 1.502C19 8.234 19 8.842 19 9.548v4.904c0 .706 0 1.314-.054 1.809-.056.526-.184 1.04-.519 1.502q-.28.384-.664.664c-.461.335-.976.463-1.502.52-.495.053-1.103.053-1.81.053H9.549c-.705 0-1.314 0-1.809-.054-.526-.056-1.04-.184-1.502-.519a3 3 0 0 1-.664-.664c-.336-.461-.462-.976-.52-1.502C5 15.766 5 15.158 5 14.452V9.548c0-.706 0-1.314.054-1.809.057-.526.183-1.04.519-1.502a3 3 0 0 1 .664-.664c.461-.336.976-.462 1.502-.52C8.234 5 8.842 5 9.55 5" clip-rule="evenodd" opacity=".6" />
    <path fill="currentColor" fill-rule="evenodd" d="M9.548 5h4.904c.706 0 1.314 0 1.809.054.526.057 1.04.183 1.502.519.255.185.479.409.664.664.335.461.463.976.52 1.502C19 8.234 19 8.842 19 9.548v4.904c0 .706 0 1.314-.054 1.809-.056.526-.184 1.04-.519 1.502q-.28.384-.664.664c-.461.335-.976.463-1.502.52-.495.053-1.103.053-1.81.053H9.549c-.705 0-1.314 0-1.809-.054-.526-.056-1.04-.184-1.502-.519a3 3 0 0 1-.664-.664c-.336-.461-.462-.976-.52-1.502C5 15.766 5 15.158 5 14.452V9.548c0-.706 0-1.314.054-1.809.057-.526.183-1.04.519-1.502a3 3 0 0 1 .664-.664c.461-.336.976-.462 1.502-.52C8.234 5 8.842 5 9.55 5" clip-rule="evenodd" />
</symbol>
<symbol id="nmStop" xmlns="http://www.w3.org/2000/svg"  fill="var(--fill-color, none)" viewBox="0 0 24 24">
    <path fill="currentColor" fill-rule="evenodd" d="M9.548 5h4.904c.706 0 1.314 0 1.809.054.526.057 1.04.183 1.502.519.255.185.479.409.664.664.335.461.463.976.52 1.502C19 8.234 19 8.842 19 9.548v4.904c0 .706 0 1.314-.054 1.809-.056.526-.184 1.04-.519 1.502q-.28.384-.664.664c-.461.335-.976.463-1.502.52-.495.053-1.103.053-1.81.053H9.549c-.705 0-1.314 0-1.809-.054-.526-.056-1.04-.184-1.502-.519a3 3 0 0 1-.664-.664c-.336-.461-.462-.976-.52-1.502C5 15.766 5 15.158 5 14.452V9.548c0-.706 0-1.314.054-1.809.057-.526.183-1.04.519-1.502a3 3 0 0 1 .664-.664c.461-.336.976-.462 1.502-.52C8.234 5 8.842 5 9.55 5" clip-rule="evenodd" />
</symbol>
</svg>
