<svg width="28" height="20" viewBox="0 0 28 20" fill="none" xmlns="http://www.w3.org/2000/svg">
<rect width="28" height="20" rx="2" fill="white"/>
<mask id="mask0_290_132" style="mask-type:alpha" maskUnits="userSpaceOnUse" x="0" y="0" width="28" height="20">
<rect width="28" height="20" rx="2" fill="white"/>
</mask>
<g mask="url(#mask0_290_132)">
<rect width="28" height="20" fill="#E4233B"/>
<path fill-rule="evenodd" clip-rule="evenodd" d="M0 0L12 10L0 20V0Z" fill="#34CD4E"/>
<path fill-rule="evenodd" clip-rule="evenodd" d="M28 0L16 10L28 20V0Z" fill="#34CD4E"/>
<path fill-rule="evenodd" clip-rule="evenodd" d="M16.9623 6.39375C16.1566 5.73115 15.1248 5.33333 14.0002 5.33333C12.8756 5.33333 11.8439 5.73115 11.0381 6.39375L-1.28226 -1.91645L-2.77344 0.29432L9.54597 8.60387C9.40794 9.0447 9.33355 9.51366 9.33355 10C9.33355 10.4863 9.40794 10.9553 9.54597 11.3961L-2.77344 19.7057L-1.28226 21.9164L11.0381 13.6062C11.8439 14.2688 12.8756 14.6667 14.0002 14.6667C15.1248 14.6667 16.1566 14.2688 16.9623 13.6062L29.2827 21.9164L30.7739 19.7057L18.4545 11.3961C18.5925 10.9553 18.6669 10.4863 18.6669 10C18.6669 9.51366 18.5925 9.0447 18.4545 8.60387L30.7739 0.29432L29.2827 -1.91645L16.9623 6.39375Z" fill="white"/>
<path fill-rule="evenodd" clip-rule="evenodd" d="M13.9999 8.66667L13.0571 8.94281L13.3333 8L13.0571 7.05719L13.9999 7.33333L14.9427 7.05719L14.6666 8L14.9427 8.94281L13.9999 8.66667ZM11.9999 12L11.0571 12.2761L11.3333 11.3333L11.0571 10.3905L11.9999 10.6667L12.9427 10.3905L12.6666 11.3333L12.9427 12.2761L11.9999 12ZM15.0571 12.2761L15.9999 12L16.9427 12.2761L16.6666 11.3333L16.9427 10.3905L15.9999 10.6667L15.0571 10.3905L15.3333 11.3333L15.0571 12.2761Z" fill="#DF2239"/>
</g>
</svg>
