<svg width="28" height="20" viewBox="0 0 28 20" fill="none" xmlns="http://www.w3.org/2000/svg">
<rect x="0.25" y="0.25" width="27.5" height="19.5" rx="1.75" fill="white" stroke="#F5F5F5" stroke-width="0.5"/>
<mask id="mask0_290_274" style="mask-type:alpha" maskUnits="userSpaceOnUse" x="0" y="0" width="28" height="20">
<rect x="0.25" y="0.25" width="27.5" height="19.5" rx="1.75" fill="white" stroke="white" stroke-width="0.5"/>
</mask>
<g mask="url(#mask0_290_274)">
<rect x="20" width="8" height="20" fill="#FF3131"/>
<path fill-rule="evenodd" clip-rule="evenodd" d="M0 20H8V0H0V20Z" fill="#FF3131"/>
<path fill-rule="evenodd" clip-rule="evenodd" d="M16.112 9.22153C15.8788 9.45474 15.4847 9.24385 15.5494 8.92046L16.0002 6.66667L14.6668 7.33334L14.0002 5.33334L13.3335 7.33334L12.0002 6.66667L12.4509 8.92046C12.5156 9.24385 12.1216 9.45474 11.8884 9.22153L11.5692 8.90237C11.439 8.7722 11.228 8.7722 11.0978 8.90237L10.6668 9.33334L9.3335 8.66667L10.0002 10L9.5692 10.431C9.43902 10.5611 9.43902 10.7722 9.5692 10.9024L11.3335 12.6667H13.3335L13.6668 14.6667H14.3335L14.6668 12.6667H16.6668L18.4311 10.9024C18.5613 10.7722 18.5613 10.5611 18.4311 10.431L18.0002 10L18.6668 8.66667L17.3335 9.33334L16.9025 8.90237C16.7724 8.7722 16.5613 8.7722 16.4311 8.90237L16.112 9.22153Z" fill="#FF3131"/>
</g>
</svg>
