<svg width="28" height="20" viewBox="0 0 28 20" fill="none" xmlns="http://www.w3.org/2000/svg">
<rect x="0.25" y="0.25" width="27.5" height="19.5" rx="1.75" fill="white" stroke="#F5F5F5" stroke-width="0.5"/>
<mask id="mask0_290_266" style="mask-type:alpha" maskUnits="userSpaceOnUse" x="0" y="0" width="28" height="20">
<rect x="0.25" y="0.25" width="27.5" height="19.5" rx="1.75" fill="white" stroke="white" stroke-width="0.5"/>
</mask>
<g mask="url(#mask0_290_266)">
<path fill-rule="evenodd" clip-rule="evenodd" d="M0 5.33333H28V0H0V5.33333Z" fill="#083D96"/>
<path fill-rule="evenodd" clip-rule="evenodd" d="M0 14.6667H28V9.33334H0V14.6667Z" fill="#37AE39"/>
<path fill-rule="evenodd" clip-rule="evenodd" d="M0 20H28V14.6667H0V20Z" fill="#FFD13F"/>
<path fill-rule="evenodd" clip-rule="evenodd" d="M10.6665 20H17.3332V0H10.6665V20Z" fill="#E42346"/>
<path fill-rule="evenodd" clip-rule="evenodd" d="M4.66676 3.44666L3.49119 4.2847L3.92494 2.9077L2.76465 2.04863L4.20829 2.03563L4.66676 0.666664L5.12523 2.03563L6.56887 2.04863L5.40859 2.9077L5.84233 4.2847L4.66676 3.44666Z" fill="#FFD03B"/>
</g>
</svg>
