<svg width="28" height="20" viewBox="0 0 28 20" fill="none" xmlns="http://www.w3.org/2000/svg">
<rect x="0.25" y="0.25" width="27.5" height="19.5" rx="1.75" fill="white" stroke="#F5F5F5" stroke-width="0.5"/>
<mask id="mask0_290_369" style="mask-type:alpha" maskUnits="userSpaceOnUse" x="0" y="0" width="28" height="20">
<rect x="0.25" y="0.25" width="27.5" height="19.5" rx="1.75" fill="white" stroke="white" stroke-width="0.5"/>
</mask>
<g mask="url(#mask0_290_369)">
<path fill-rule="evenodd" clip-rule="evenodd" d="M20.0002 3.33333C20.3633 3.15178 20.7318 3.56923 20.5066 3.90701L20.0674 4.5658C20.023 4.63238 19.9659 4.68952 19.8993 4.73391L18.0551 5.96338C18.0186 5.98773 17.9845 6.01563 17.9535 6.04668L17.8049 6.19526C17.5446 6.45561 17.5446 6.87772 17.8049 7.13807L18.1954 7.52859C18.4558 7.78894 18.4558 8.21105 18.1954 8.4714L17.6733 8.99356C17.4704 9.19647 17.1604 9.24677 16.9037 9.11844L16.5964 8.96481C16.2671 8.80015 15.8667 8.93363 15.702 9.26295L15.457 9.75301C15.3779 9.91115 15.2393 10.0314 15.0715 10.0873L13.4361 10.6325C13.3682 10.6551 13.297 10.6667 13.2253 10.6667H12.4122C12.1597 10.6667 11.9288 10.8093 11.8159 11.0352L11.6316 11.4037C11.467 11.733 11.0665 11.8665 10.7372 11.7019L8.76359 10.715C8.6995 10.683 8.641 10.6408 8.59033 10.5902L7.52876 9.52859C7.40373 9.40357 7.3335 9.234 7.3335 9.05719V8.4714C7.3335 8.21105 7.54455 8 7.8049 8C7.92992 8 8.04983 7.95033 8.13823 7.86193L9.13823 6.86193C9.26326 6.7369 9.43283 6.66667 9.60964 6.66667H10.1863C10.4733 6.66667 10.728 6.48305 10.8188 6.21082L11.1474 5.22499C11.2537 4.90602 11.5809 4.71615 11.9106 4.78208L14.5198 5.30393C14.6166 5.32329 14.7165 5.32091 14.8123 5.29697L17.2625 4.68442C17.3097 4.67262 17.3554 4.65569 17.399 4.63394L18.6668 4L20.0002 3.33333Z" fill="#E7832C"/>
<path fill-rule="evenodd" clip-rule="evenodd" d="M14.0002 16C14.3684 16 14.6668 15.7015 14.6668 15.3333C14.6668 14.9651 14.3684 14.6667 14.0002 14.6667C13.632 14.6667 13.3335 14.9651 13.3335 15.3333C13.3335 15.7015 13.632 16 14.0002 16Z" fill="#445128"/>
<path opacity="0.75" d="M16 14.6667C16 14.6667 18 14 18.6667 12.6667" stroke="#445128" stroke-width="1.33333" stroke-linecap="round"/>
<path opacity="0.75" d="M12 14.6667C12 14.6667 10 14 9.33333 12.6667" stroke="#445128" stroke-width="1.33333" stroke-linecap="round"/>
</g>
</svg>
