<svg width="28" height="20" viewBox="0 0 28 20" fill="none" xmlns="http://www.w3.org/2000/svg">
<rect x="0.25" y="0.25" width="27.5" height="19.5" rx="1.75" fill="white" stroke="#F5F5F5" stroke-width="0.5"/>
<mask id="mask0_290_609" style="mask-type:alpha" maskUnits="userSpaceOnUse" x="0" y="0" width="28" height="20">
<rect x="0.25" y="0.25" width="27.5" height="19.5" rx="1.75" fill="white" stroke="white" stroke-width="0.5"/>
</mask>
<g mask="url(#mask0_290_609)">
<rect x="18.6665" width="9.33333" height="20" fill="#63AEE3"/>
<path fill-rule="evenodd" clip-rule="evenodd" d="M0 20H9.33333V0H0V20Z" fill="#63AEE3"/>
<path d="M12.998 11.0648L13.3326 10.4882L12.998 11.0648ZM13.2401 11.976L13.8167 12.3106L13.8167 12.3106L13.2401 11.976ZM12.3289 12.2181L12.6634 11.6415H12.6634L12.3289 12.2181ZM15.7939 12.1431L16.1531 12.7047L15.7939 12.1431ZM14.8731 11.9407L14.3114 12.2998H14.3114L14.8731 11.9407ZM15.0755 11.0198L15.4347 11.5815L15.0755 11.0198ZM12.6665 9.33332C12.6665 8.59694 12.0696 7.99999 11.3332 7.99999V9.33332H12.6665ZM13.3326 10.4882C12.9318 10.2556 12.6665 9.82491 12.6665 9.33332H11.3332C11.3332 10.3187 11.8677 11.1798 12.6634 11.6415L13.3326 10.4882ZM13.8167 12.3106C14.1863 11.6737 13.9695 10.8578 13.3326 10.4882L12.6634 11.6415L12.6634 11.6415L13.8167 12.3106ZM11.9943 12.7947C12.6312 13.1643 13.4471 12.9476 13.8167 12.3106L12.6634 11.6415L11.9943 12.7947ZM9.99984 9.33332C9.99984 10.8139 10.8049 12.1046 11.9943 12.7947L12.6634 11.6415C11.8679 11.1798 11.3332 10.3189 11.3332 9.33332H9.99984ZM11.3332 7.99999C10.5968 7.99999 9.99984 8.59694 9.99984 9.33332H11.3332V7.99999ZM17.9998 9.33332C17.9998 8.59694 17.4029 7.99999 16.6665 7.99999V9.33332H17.9998ZM16.1531 12.7047C17.2606 11.9964 17.9998 10.7517 17.9998 9.33332H16.6665C16.6665 10.2777 16.1756 11.1076 15.4347 11.5815L16.1531 12.7047ZM14.3114 12.2998C14.7082 12.9202 15.5327 13.1015 16.1531 12.7047L15.4347 11.5815V11.5815L14.3114 12.2998ZM14.7163 10.4582C14.0959 10.855 13.9147 11.6795 14.3114 12.2998L15.4347 11.5815L14.7163 10.4582ZM15.3332 9.33332C15.3332 9.8045 15.0898 10.2193 14.7163 10.4582L15.4347 11.5815C16.1757 11.1075 16.6665 10.2775 16.6665 9.33332H15.3332ZM16.6665 7.99999C15.9301 7.99999 15.3332 8.59694 15.3332 9.33332H16.6665V7.99999Z" fill="#628A40"/>
<path fill-rule="evenodd" clip-rule="evenodd" d="M13.9998 10.6667C14.7362 10.6667 15.3332 10.0697 15.3332 9.33333C15.3332 8.59695 14.7362 8 13.9998 8C13.2635 8 12.6665 8.59695 12.6665 9.33333C12.6665 10.0697 13.2635 10.6667 13.9998 10.6667Z" fill="#DCC26D"/>
</g>
</svg>
