<svg width="28" height="20" viewBox="0 0 28 20" fill="none" xmlns="http://www.w3.org/2000/svg">
<rect width="28" height="20" rx="2" fill="white"/>
<mask id="mask0_290_897" style="mask-type:alpha" maskUnits="userSpaceOnUse" x="0" y="0" width="28" height="20">
<rect width="28" height="20" rx="2" fill="white"/>
</mask>
<g mask="url(#mask0_290_897)">
<rect width="28" height="20" fill="#F22A46"/>
<path fill-rule="evenodd" clip-rule="evenodd" d="M13.9998 13.3333C15.8408 13.3333 17.3332 11.8409 17.3332 9.99999C17.3332 8.15904 15.8408 6.66666 13.9998 6.66666C12.1589 6.66666 10.6665 8.15904 10.6665 9.99999C10.6665 11.8409 12.1589 13.3333 13.9998 13.3333Z" fill="#FFF04D"/>
<path fill-rule="evenodd" clip-rule="evenodd" d="M12.368 17.1495L13.9998 14.7136L15.6317 17.1495L16.045 14.2468L18.5721 15.7334L17.6851 12.9389L20.6069 13.1818L18.5953 11.0489L21.3332 10L18.5953 8.95112L20.6069 6.81818L17.6851 7.06111L18.5721 4.26657L16.045 5.75318L15.6317 2.85052L13.9998 5.28638L12.368 2.85052L11.9547 5.75318L9.42758 4.26657L10.3146 7.06111L7.39273 6.81818L9.4044 8.95112L6.6665 10L9.4044 11.0489L7.39273 13.1818L10.3146 12.9389L9.42758 15.7334L11.9547 14.2468L12.368 17.1495ZM18.6665 10C18.6665 12.5773 16.5772 14.6667 13.9998 14.6667C11.4225 14.6667 9.33317 12.5773 9.33317 10C9.33317 7.42267 11.4225 5.33333 13.9998 5.33333C16.5772 5.33333 18.6665 7.42267 18.6665 10Z" fill="#FFF04D"/>
</g>
</svg>
