<svg width="28" height="20" viewBox="0 0 28 20" fill="none" xmlns="http://www.w3.org/2000/svg">
<rect width="28" height="20" rx="2" fill="white"/>
<mask id="mask0_290_840" style="mask-type:alpha" maskUnits="userSpaceOnUse" x="0" y="0" width="28" height="20">
<rect width="28" height="20" rx="2" fill="white"/>
</mask>
<g mask="url(#mask0_290_840)">
<path fill-rule="evenodd" clip-rule="evenodd" d="M0 5.33333H28V0H0V5.33333Z" fill="#0F3EB6"/>
<path fill-rule="evenodd" clip-rule="evenodd" d="M0 20H28V14.6667H0V20Z" fill="#0F3EB6"/>
<path fill-rule="evenodd" clip-rule="evenodd" d="M0 14.6667H28V5.33334H0V14.6667Z" fill="#ED1A3C"/>
<path fill-rule="evenodd" clip-rule="evenodd" d="M11.9998 8.72722H13.3332V8.00001C13.3332 7.63182 13.6316 7.33334 13.9998 7.33334C14.368 7.33334 14.6665 7.63182 14.6665 8.00001V8.72722H15.9998V10H11.9998V8.72722ZM17.3332 8.00001C16.965 8.00001 16.6665 8.29849 16.6665 8.66668V10H17.9998V8.66668C17.9998 8.29849 17.7014 8.00001 17.3332 8.00001ZM11.3332 13.3333V10.6667H9.99984L8.6665 13.3333H11.3332ZM15.9998 10.6667H11.9998V13.3333H15.9998V10.6667ZM16.6665 10.6667H17.9998L19.3332 13.3333H16.6665V10.6667ZM10.6665 8.00001C10.2983 8.00001 9.99984 8.29849 9.99984 8.66668V10H11.3332V8.66668C11.3332 8.29849 11.0347 8.00001 10.6665 8.00001Z" fill="white"/>
</g>
</svg>
