<svg width="28" height="20" viewBox="0 0 28 20" fill="none" xmlns="http://www.w3.org/2000/svg">
<rect x="0.25" y="0.25" width="27.5" height="19.5" rx="1.75" fill="white" stroke="#F5F5F5" stroke-width="0.5"/>
<mask id="mask0_290_1009" style="mask-type:alpha" maskUnits="userSpaceOnUse" x="0" y="0" width="28" height="20">
<rect x="0.25" y="0.25" width="27.5" height="19.5" rx="1.75" fill="white" stroke="white" stroke-width="0.5"/>
</mask>
<g mask="url(#mask0_290_1009)">
<path fill-rule="evenodd" clip-rule="evenodd" d="M0 6.66667H28V0H0V6.66667Z" fill="#0C33B8"/>
<path fill-rule="evenodd" clip-rule="evenodd" d="M0 20H28V13.3333H0V20Z" fill="#1DB158"/>
<path fill-rule="evenodd" clip-rule="evenodd" d="M13.3331 9.99998L13.3673 9.89735C13.5699 9.28955 14.4296 9.28955 14.6322 9.89735L14.6664 9.99998L15.8482 11.7726C15.9363 11.9048 15.917 12.0791 15.7851 12.1678C15.4914 12.3653 14.8963 12.6667 13.9998 12.6667C13.1033 12.6667 12.5082 12.3653 12.2144 12.1678C12.0826 12.0791 12.0632 11.9048 12.1514 11.7726L13.3331 9.99998Z" fill="#262626"/>
<path d="M14.9998 8.66665C14.9998 9.21893 14.5521 9.66665 13.9998 9.66665C13.4476 9.66665 12.9998 9.21893 12.9998 8.66665C12.9998 8.11436 13.4476 7.66665 13.9998 7.66665C14.5521 7.66665 14.9998 8.11436 14.9998 8.66665Z" stroke="#262626" stroke-width="0.666667"/>
</g>
</svg>
