<svg width="28" height="20" viewBox="0 0 28 20" fill="none" xmlns="http://www.w3.org/2000/svg">
<rect x="0.25" y="0.25" width="27.5" height="19.5" rx="1.75" fill="white" stroke="#F5F5F5" stroke-width="0.5"/>
<mask id="mask0_290_1503" style="mask-type:alpha" maskUnits="userSpaceOnUse" x="0" y="0" width="28" height="20">
<rect x="0.25" y="0.25" width="27.5" height="19.5" rx="1.75" fill="white" stroke="white" stroke-width="0.5"/>
</mask>
<g mask="url(#mask0_290_1503)">
<path fill-rule="evenodd" clip-rule="evenodd" d="M0 10.6667H28V0H0V10.6667Z" fill="#E12237"/>
<path fill-rule="evenodd" clip-rule="evenodd" d="M6.6665 9.33331C7.61161 9.33331 8.48017 9.00554 9.16468 8.45746C8.80208 8.59271 8.40959 8.66665 7.99984 8.66665C6.15889 8.66665 4.6665 7.17426 4.6665 5.33331C4.6665 3.49236 6.15889 1.99998 7.99984 1.99998C8.40959 1.99998 8.80208 2.07391 9.16468 2.20917C8.48017 1.66109 7.61161 1.33331 6.6665 1.33331C4.45736 1.33331 2.6665 3.12417 2.6665 5.33331C2.6665 7.54245 4.45736 9.33331 6.6665 9.33331ZM7.99984 4.66665C7.99984 5.03484 7.70136 5.33331 7.33317 5.33331C6.96498 5.33331 6.6665 5.03484 6.6665 4.66665C6.6665 4.29846 6.96498 3.99998 7.33317 3.99998C7.70136 3.99998 7.99984 4.29846 7.99984 4.66665ZM8.6665 7.99998C9.03469 7.99998 9.33317 7.7015 9.33317 7.33331C9.33317 6.96512 9.03469 6.66665 8.6665 6.66665C8.29831 6.66665 7.99984 6.96512 7.99984 7.33331C7.99984 7.7015 8.29831 7.99998 8.6665 7.99998ZM11.9998 7.33331C11.9998 7.7015 11.7014 7.99998 11.3332 7.99998C10.965 7.99998 10.6665 7.7015 10.6665 7.33331C10.6665 6.96512 10.965 6.66665 11.3332 6.66665C11.7014 6.66665 11.9998 6.96512 11.9998 7.33331ZM12.6665 5.33331C13.0347 5.33331 13.3332 5.03484 13.3332 4.66665C13.3332 4.29846 13.0347 3.99998 12.6665 3.99998C12.2983 3.99998 11.9998 4.29846 11.9998 4.66665C11.9998 5.03484 12.2983 5.33331 12.6665 5.33331ZM10.6665 2.66665C10.6665 3.03484 10.368 3.33331 9.99984 3.33331C9.63165 3.33331 9.33317 3.03484 9.33317 2.66665C9.33317 2.29846 9.63165 1.99998 9.99984 1.99998C10.368 1.99998 10.6665 2.29846 10.6665 2.66665Z" fill="white"/>
</g>
</svg>
