<svg width="28" height="20" viewBox="0 0 28 20" fill="none" xmlns="http://www.w3.org/2000/svg">
<rect x="0.25" y="0.25" width="27.5" height="19.5" rx="1.75" fill="white" stroke="#F5F5F5" stroke-width="0.5"/>
<mask id="mask0_290_1449" style="mask-type:alpha" maskUnits="userSpaceOnUse" x="0" y="0" width="28" height="20">
<rect x="0.25" y="0.25" width="27.5" height="19.5" rx="1.75" fill="white" stroke="white" stroke-width="0.5"/>
</mask>
<g mask="url(#mask0_290_1449)">
<path fill-rule="evenodd" clip-rule="evenodd" d="M0 13.3334H28V6.66669H0V13.3334Z" fill="#0C47B7"/>
<path fill-rule="evenodd" clip-rule="evenodd" d="M0 20H28V13.3333H0V20Z" fill="#E53B35"/>
<path d="M6.94965 3.33333C5.87499 3.33333 4.99243 4.1826 4.95113 5.25647L4.69188 11.9969C4.66841 12.6073 4.92509 13.1948 5.38882 13.5923L8.2645 16.0572C9.26314 16.9132 10.7368 16.9132 11.7354 16.0572L14.6111 13.5923C15.0748 13.1948 15.3315 12.6073 15.308 11.9969L15.0488 5.25647C15.0075 4.1826 14.1249 3.33333 13.0502 3.33333H6.94965Z" fill="#F73744" stroke="white" stroke-width="1.33333"/>
<mask id="mask1_290_1449" style="mask-type:alpha" maskUnits="userSpaceOnUse" x="4" y="2" width="12" height="16">
<path d="M6.94965 3.33333C5.87499 3.33333 4.99243 4.1826 4.95113 5.25647L4.69188 11.9969C4.66841 12.6073 4.92509 13.1948 5.38882 13.5923L8.2645 16.0572C9.26314 16.9132 10.7368 16.9132 11.7354 16.0572L14.6111 13.5923C15.0748 13.1948 15.3315 12.6073 15.308 11.9969L15.0488 5.25647C15.0075 4.1826 14.1249 3.33333 13.0502 3.33333H6.94965Z" fill="white" stroke="white" stroke-width="1.33333"/>
</mask>
<g mask="url(#mask1_290_1449)">
<path fill-rule="evenodd" clip-rule="evenodd" d="M9.3335 11C9.3335 10.8159 9.18426 10.6666 9.00016 10.6666H7.66683C7.48273 10.6666 7.3335 10.5174 7.3335 10.3333V9.66665C7.3335 9.48255 7.48273 9.33331 7.66683 9.33331H9.00016C9.18426 9.33331 9.3335 9.18407 9.3335 8.99998V8.33331C9.3335 8.14922 9.18426 7.99998 9.00016 7.99998H8.3335C8.1494 7.99998 8.00016 7.85074 8.00016 7.66665V6.99998C8.00016 6.81589 8.1494 6.66665 8.3335 6.66665H9.00016C9.18426 6.66665 9.3335 6.51741 9.3335 6.33331V5.66665C9.3335 5.48255 9.48273 5.33331 9.66683 5.33331H10.3335C10.5176 5.33331 10.6668 5.48255 10.6668 5.66665V6.33331C10.6668 6.51741 10.8161 6.66665 11.0002 6.66665H11.6668C11.8509 6.66665 12.0002 6.81588 12.0002 6.99998V7.66665C12.0002 7.85074 11.8509 7.99998 11.6668 7.99998H11.0002C10.8161 7.99998 10.6668 8.14922 10.6668 8.33331V8.99998C10.6668 9.18407 10.8161 9.33331 11.0002 9.33331H12.3335C12.5176 9.33331 12.6668 9.48255 12.6668 9.66665V10.3333C12.6668 10.5174 12.5176 10.6666 12.3335 10.6666H11.0002C10.8161 10.6666 10.6668 10.8159 10.6668 11V13C10.6668 13.1841 10.5176 13.3333 10.3335 13.3333H9.66683C9.48273 13.3333 9.3335 13.1841 9.3335 13V11Z" fill="white"/>
<path fill-rule="evenodd" clip-rule="evenodd" d="M11.2035 13.4255C10.9889 12.9767 10.5307 12.6667 10 12.6667C9.46934 12.6667 9.01109 12.9767 8.79647 13.4255C7.17545 13.6809 6 14.4385 6 15.3334C6 16.4379 7.79086 17.3334 10 17.3334C12.2091 17.3334 14 16.4379 14 15.3334C14 14.4385 12.8246 13.6809 11.2035 13.4255Z" fill="#1251A1"/>
</g>
</g>
</svg>
