<svg width="28" height="20" viewBox="0 0 28 20" fill="none" xmlns="http://www.w3.org/2000/svg">
<rect x="0.25" y="0.25" width="27.5" height="19.5" rx="1.75" fill="white" stroke="#F5F5F5" stroke-width="0.5"/>
<mask id="mask0_290_465" style="mask-type:alpha" maskUnits="userSpaceOnUse" x="0" y="0" width="28" height="20">
<rect x="0.25" y="0.25" width="27.5" height="19.5" rx="1.75" fill="white" stroke="white" stroke-width="0.5"/>
</mask>
<g mask="url(#mask0_290_465)">
<path fill-rule="evenodd" clip-rule="evenodd" d="M0 6.66667H28V0H0V6.66667Z" fill="#1B57C4"/>
<path fill-rule="evenodd" clip-rule="evenodd" d="M0 20H28V13.3333H0V20Z" fill="#1B57C4"/>
<path fill-rule="evenodd" clip-rule="evenodd" d="M12.4001 7.86652C11.7524 8.35303 11.3335 9.12759 11.3335 10C11.3335 11.4728 12.5274 12.6667 14.0002 12.6667C15.4729 12.6667 16.6668 11.4728 16.6668 10C16.6668 9.12759 16.2479 8.35303 15.6002 7.86652L14.6668 10.6667H13.3335L12.4001 7.86652Z" fill="url(#paint0_linear_290_465)"/>
<path fill-rule="evenodd" clip-rule="evenodd" d="M14.0002 7.33333L14.6668 10.6667H13.3335L14.0002 7.33333Z" fill="#F9C92E"/>
</g>
<defs>
<linearGradient id="paint0_linear_290_465" x1="11.3335" y1="7.86652" x2="11.3335" y2="12.6667" gradientUnits="userSpaceOnUse">
<stop stop-color="#3C7839"/>
<stop offset="1" stop-color="#31642E"/>
</linearGradient>
</defs>
</svg>
