<svg width="28" height="20" viewBox="0 0 28 20" fill="none" xmlns="http://www.w3.org/2000/svg">
<rect width="28" height="20" rx="2" fill="white"/>
<mask id="mask0_290_1660" style="mask-type:alpha" maskUnits="userSpaceOnUse" x="0" y="0" width="28" height="20">
<rect width="28" height="20" rx="2" fill="white"/>
</mask>
<g mask="url(#mask0_290_1660)">
<path fill-rule="evenodd" clip-rule="evenodd" d="M0 20H28V0H0V20Z" fill="#30C375"/>
<rect x="4" width="4" height="20" fill="#DE414F"/>
<path fill-rule="evenodd" clip-rule="evenodd" d="M6 3.99998C7.10457 3.99998 8 3.40303 8 2.66665C8 1.93027 7.10457 1.33331 6 1.33331C4.89543 1.33331 4 1.93027 4 2.66665C4 3.40303 4.89543 3.99998 6 3.99998Z" fill="white"/>
<mask id="mask1_290_1660" style="mask-type:alpha" maskUnits="userSpaceOnUse" x="4" y="1" width="4" height="3">
<path fill-rule="evenodd" clip-rule="evenodd" d="M6 3.99998C7.10457 3.99998 8 3.40303 8 2.66665C8 1.93027 7.10457 1.33331 6 1.33331C4.89543 1.33331 4 1.93027 4 2.66665C4 3.40303 4.89543 3.99998 6 3.99998Z" fill="white"/>
</mask>
<g mask="url(#mask1_290_1660)">
<path fill-rule="evenodd" clip-rule="evenodd" d="M6.00016 3.33333C6.36835 3.33333 6.66683 3.03486 6.66683 2.66667C6.66683 2.29848 6.36835 2 6.00016 2C5.63197 2 5.3335 2.29848 5.3335 2.66667C5.3335 3.03486 5.63197 3.33333 6.00016 3.33333Z" fill="#DD404F"/>
<rect x="4" y="1.33331" width="2" height="1.33333" fill="#FBAF29"/>
<rect x="6" y="2.66663" width="2" height="1.33333" fill="#FBAF29"/>
</g>
<path fill-rule="evenodd" clip-rule="evenodd" d="M6 18.6667C7.10457 18.6667 8 18.0697 8 17.3333C8 16.597 7.10457 16 6 16C4.89543 16 4 16.597 4 17.3333C4 18.0697 4.89543 18.6667 6 18.6667Z" fill="white"/>
<mask id="mask2_290_1660" style="mask-type:alpha" maskUnits="userSpaceOnUse" x="4" y="16" width="4" height="3">
<path fill-rule="evenodd" clip-rule="evenodd" d="M6 18.6667C7.10457 18.6667 8 18.0697 8 17.3333C8 16.597 7.10457 16 6 16C4.89543 16 4 16.597 4 17.3333C4 18.0697 4.89543 18.6667 6 18.6667Z" fill="white"/>
</mask>
<g mask="url(#mask2_290_1660)">
<path fill-rule="evenodd" clip-rule="evenodd" d="M6.00016 18C6.36835 18 6.66683 17.7015 6.66683 17.3334C6.66683 16.9652 6.36835 16.6667 6.00016 16.6667C5.63197 16.6667 5.3335 16.9652 5.3335 17.3334C5.3335 17.7015 5.63197 18 6.00016 18Z" fill="#DD404F"/>
<rect x="4" y="16" width="2" height="1.33333" fill="#FBAF29"/>
<rect x="6" y="17.3333" width="2" height="1.33333" fill="#FBAF29"/>
</g>
<path fill-rule="evenodd" clip-rule="evenodd" d="M6 12C7.10457 12 8 11.403 8 10.6666C8 9.93027 7.10457 9.33331 6 9.33331C4.89543 9.33331 4 9.93027 4 10.6666C4 11.403 4.89543 12 6 12Z" fill="#28AE67"/>
<mask id="mask3_290_1660" style="mask-type:alpha" maskUnits="userSpaceOnUse" x="4" y="9" width="4" height="3">
<path fill-rule="evenodd" clip-rule="evenodd" d="M6 12C7.10457 12 8 11.403 8 10.6666C8 9.93027 7.10457 9.33331 6 9.33331C4.89543 9.33331 4 9.93027 4 10.6666C4 11.403 4.89543 12 6 12Z" fill="white"/>
</mask>
<g mask="url(#mask3_290_1660)">
<path fill-rule="evenodd" clip-rule="evenodd" d="M5.99984 11.3333C6.73622 11.3333 7.33317 11.0349 7.33317 10.6667C7.33317 10.2985 6.73622 10 5.99984 10C5.26346 10 4.6665 10.2985 4.6665 10.6667C4.6665 11.0349 5.26346 11.3333 5.99984 11.3333Z" fill="#DD404F"/>
</g>
<path fill-rule="evenodd" clip-rule="evenodd" d="M6 14.6666C7.10457 14.6666 8 14.3682 8 14C8 13.6318 7.10457 13.3333 6 13.3333C4.89543 13.3333 4 13.6318 4 14C4 14.3682 4.89543 14.6666 6 14.6666Z" fill="#28AE67"/>
<mask id="mask4_290_1660" style="mask-type:alpha" maskUnits="userSpaceOnUse" x="4" y="13" width="4" height="2">
<path fill-rule="evenodd" clip-rule="evenodd" d="M6 14.6666C7.10457 14.6666 8 14.3682 8 14C8 13.6318 7.10457 13.3333 6 13.3333C4.89543 13.3333 4 13.6318 4 14C4 14.3682 4.89543 14.6666 6 14.6666Z" fill="white"/>
</mask>
<g mask="url(#mask4_290_1660)">
</g>
<path fill-rule="evenodd" clip-rule="evenodd" d="M6 7.99998C7.10457 7.99998 8 7.40303 8 6.66665C8 5.93027 7.10457 5.33331 6 5.33331C4.89543 5.33331 4 5.93027 4 6.66665C4 7.40303 4.89543 7.99998 6 7.99998Z" fill="#FBAF29"/>
<mask id="mask5_290_1660" style="mask-type:alpha" maskUnits="userSpaceOnUse" x="4" y="5" width="4" height="3">
<path fill-rule="evenodd" clip-rule="evenodd" d="M6 7.99998C7.10457 7.99998 8 7.40303 8 6.66665C8 5.93027 7.10457 5.33331 6 5.33331C4.89543 5.33331 4 5.93027 4 6.66665C4 7.40303 4.89543 7.99998 6 7.99998Z" fill="white"/>
</mask>
<g mask="url(#mask5_290_1660)">
<path fill-rule="evenodd" clip-rule="evenodd" d="M6.00016 7.33333C6.36835 7.33333 6.66683 7.03486 6.66683 6.66667C6.66683 6.29848 6.36835 6 6.00016 6C5.63197 6 5.3335 6.29848 5.3335 6.66667C5.3335 7.03486 5.63197 7.33333 6.00016 7.33333Z" fill="#DD404F"/>
<rect x="4" y="5.33331" width="1.33333" height="2.66667" fill="#28AE67"/>
<rect x="6.6665" y="5.33331" width="1.33333" height="2.66667" fill="#28AE67"/>
</g>
<path fill-rule="evenodd" clip-rule="evenodd" d="M14.8225 4.23818C14.5858 4.52023 14.6226 4.94073 14.9047 5.1774C15.1867 5.41407 15.6072 5.37728 15.8439 5.09523C16.0806 4.81318 16.0438 4.39267 15.7617 4.15601C15.4797 3.91934 15.0592 3.95613 14.8225 4.23818ZM13.095 6.82267C12.813 6.586 12.3925 6.62279 12.1558 6.90484C11.9192 7.18689 11.9559 7.6074 12.238 7.84407C12.52 8.08073 12.9405 8.04394 13.1772 7.76189C13.4139 7.47984 13.3771 7.05934 13.095 6.82267ZM11.7617 5.48934C11.4797 5.25267 11.0592 5.28946 10.8225 5.57151C10.5858 5.85356 10.6226 6.27406 10.9047 6.51073C11.1867 6.7474 11.6072 6.71061 11.8439 6.42856C12.0806 6.14651 12.0438 5.72601 11.7617 5.48934ZM14.4284 2.82267C14.1463 2.58601 13.7258 2.62279 13.4892 2.90484C13.2525 3.18689 13.2893 3.6074 13.5713 3.84407C13.8534 4.08073 14.2739 4.04394 14.5105 3.76189C14.7472 3.47984 14.7104 3.05934 14.4284 2.82267ZM13.7617 4.82267C13.4797 4.58601 13.0592 4.62279 12.8225 4.90484C12.5858 5.18689 12.6226 5.6074 12.9047 5.84407C13.1867 6.08073 13.6072 6.04394 13.8439 5.76189C14.0806 5.47984 14.0438 5.05934 13.7617 4.82267Z" fill="white"/>
<path fill-rule="evenodd" clip-rule="evenodd" d="M17.4763 9.45051C15.8883 11.0386 13.3135 11.0386 11.7255 9.45051C11.5716 9.29664 11.4327 9.13349 11.3086 8.96288C12.8987 10.1191 15.1376 9.98015 16.5718 8.54598C18.006 7.11181 18.1449 4.8729 16.9887 3.28278C17.1593 3.40683 17.3225 3.5458 17.4763 3.69968C19.0644 5.28773 19.0644 7.86246 17.4763 9.45051Z" fill="white"/>
</g>
</svg>
