<svg width="28" height="20" viewBox="0 0 28 20" fill="none" xmlns="http://www.w3.org/2000/svg">
<rect width="28" height="20" rx="2" fill="white"/>
<mask id="mask0_290_1742" style="mask-type:alpha" maskUnits="userSpaceOnUse" x="0" y="0" width="28" height="20">
<rect width="28" height="20" rx="2" fill="white"/>
</mask>
<g mask="url(#mask0_290_1742)">
<path fill-rule="evenodd" clip-rule="evenodd" d="M28 0H0V1.33333H28V0ZM28 2.66667H0V4H28V2.66667ZM0 5.33333H28V6.66667H0V5.33333ZM28 8H0V9.33333H28V8ZM0 10.6667H28V12H0V10.6667ZM28 13.3333H0V14.6667H28V13.3333ZM0 16H28V17.3333H0V16ZM28 18.6667H0V20H28V18.6667Z" fill="#D02F44"/>
<rect width="12" height="9.33333" fill="#46467F"/>
<g filter="url(#filter0_d_290_1742)">
<path fill-rule="evenodd" clip-rule="evenodd" d="M2.66683 1.99998C2.66683 2.36817 2.36835 2.66665 2.00016 2.66665C1.63197 2.66665 1.3335 2.36817 1.3335 1.99998C1.3335 1.63179 1.63197 1.33331 2.00016 1.33331C2.36835 1.33331 2.66683 1.63179 2.66683 1.99998ZM5.3335 1.99998C5.3335 2.36817 5.03502 2.66665 4.66683 2.66665C4.29864 2.66665 4.00016 2.36817 4.00016 1.99998C4.00016 1.63179 4.29864 1.33331 4.66683 1.33331C5.03502 1.33331 5.3335 1.63179 5.3335 1.99998ZM7.3335 2.66665C7.70169 2.66665 8.00016 2.36817 8.00016 1.99998C8.00016 1.63179 7.70169 1.33331 7.3335 1.33331C6.96531 1.33331 6.66683 1.63179 6.66683 1.99998C6.66683 2.36817 6.96531 2.66665 7.3335 2.66665ZM10.6668 1.99998C10.6668 2.36817 10.3684 2.66665 10.0002 2.66665C9.63197 2.66665 9.3335 2.36817 9.3335 1.99998C9.3335 1.63179 9.63197 1.33331 10.0002 1.33331C10.3684 1.33331 10.6668 1.63179 10.6668 1.99998ZM3.3335 3.99998C3.70169 3.99998 4.00016 3.7015 4.00016 3.33331C4.00016 2.96512 3.70169 2.66665 3.3335 2.66665C2.96531 2.66665 2.66683 2.96512 2.66683 3.33331C2.66683 3.7015 2.96531 3.99998 3.3335 3.99998ZM6.66683 3.33331C6.66683 3.7015 6.36835 3.99998 6.00016 3.99998C5.63197 3.99998 5.3335 3.7015 5.3335 3.33331C5.3335 2.96512 5.63197 2.66665 6.00016 2.66665C6.36835 2.66665 6.66683 2.96512 6.66683 3.33331ZM8.66683 3.99998C9.03502 3.99998 9.3335 3.7015 9.3335 3.33331C9.3335 2.96512 9.03502 2.66665 8.66683 2.66665C8.29864 2.66665 8.00016 2.96512 8.00016 3.33331C8.00016 3.7015 8.29864 3.99998 8.66683 3.99998ZM10.6668 4.66665C10.6668 5.03484 10.3684 5.33331 10.0002 5.33331C9.63197 5.33331 9.3335 5.03484 9.3335 4.66665C9.3335 4.29846 9.63197 3.99998 10.0002 3.99998C10.3684 3.99998 10.6668 4.29846 10.6668 4.66665ZM7.3335 5.33331C7.70169 5.33331 8.00016 5.03484 8.00016 4.66665C8.00016 4.29846 7.70169 3.99998 7.3335 3.99998C6.96531 3.99998 6.66683 4.29846 6.66683 4.66665C6.66683 5.03484 6.96531 5.33331 7.3335 5.33331ZM5.3335 4.66665C5.3335 5.03484 5.03502 5.33331 4.66683 5.33331C4.29864 5.33331 4.00016 5.03484 4.00016 4.66665C4.00016 4.29846 4.29864 3.99998 4.66683 3.99998C5.03502 3.99998 5.3335 4.29846 5.3335 4.66665ZM2.00016 5.33331C2.36835 5.33331 2.66683 5.03484 2.66683 4.66665C2.66683 4.29846 2.36835 3.99998 2.00016 3.99998C1.63197 3.99998 1.3335 4.29846 1.3335 4.66665C1.3335 5.03484 1.63197 5.33331 2.00016 5.33331ZM4.00016 5.99998C4.00016 6.36817 3.70169 6.66665 3.3335 6.66665C2.96531 6.66665 2.66683 6.36817 2.66683 5.99998C2.66683 5.63179 2.96531 5.33331 3.3335 5.33331C3.70169 5.33331 4.00016 5.63179 4.00016 5.99998ZM6.00016 6.66665C6.36835 6.66665 6.66683 6.36817 6.66683 5.99998C6.66683 5.63179 6.36835 5.33331 6.00016 5.33331C5.63197 5.33331 5.3335 5.63179 5.3335 5.99998C5.3335 6.36817 5.63197 6.66665 6.00016 6.66665ZM9.3335 5.99998C9.3335 6.36817 9.03502 6.66665 8.66683 6.66665C8.29864 6.66665 8.00016 6.36817 8.00016 5.99998C8.00016 5.63179 8.29864 5.33331 8.66683 5.33331C9.03502 5.33331 9.3335 5.63179 9.3335 5.99998ZM10.0002 7.99998C10.3684 7.99998 10.6668 7.7015 10.6668 7.33331C10.6668 6.96512 10.3684 6.66665 10.0002 6.66665C9.63197 6.66665 9.3335 6.96512 9.3335 7.33331C9.3335 7.7015 9.63197 7.99998 10.0002 7.99998ZM8.00016 7.33331C8.00016 7.7015 7.70169 7.99998 7.3335 7.99998C6.96531 7.99998 6.66683 7.7015 6.66683 7.33331C6.66683 6.96512 6.96531 6.66665 7.3335 6.66665C7.70169 6.66665 8.00016 6.96512 8.00016 7.33331ZM4.66683 7.99998C5.03502 7.99998 5.3335 7.7015 5.3335 7.33331C5.3335 6.96512 5.03502 6.66665 4.66683 6.66665C4.29864 6.66665 4.00016 6.96512 4.00016 7.33331C4.00016 7.7015 4.29864 7.99998 4.66683 7.99998ZM2.66683 7.33331C2.66683 7.7015 2.36835 7.99998 2.00016 7.99998C1.63197 7.99998 1.3335 7.7015 1.3335 7.33331C1.3335 6.96512 1.63197 6.66665 2.00016 6.66665C2.36835 6.66665 2.66683 6.96512 2.66683 7.33331Z" fill="url(#paint0_linear_290_1742)"/>
</g>
</g>
<defs>
<filter id="filter0_d_290_1742" x="1.3335" y="1.33331" width="9.3335" height="7.66669" filterUnits="userSpaceOnUse" color-interpolation-filters="sRGB">
<feFlood flood-opacity="0" result="BackgroundImageFix"/>
<feColorMatrix in="SourceAlpha" type="matrix" values="0 0 0 0 0 0 0 0 0 0 0 0 0 0 0 0 0 0 127 0" result="hardAlpha"/>
<feOffset dy="1"/>
<feColorMatrix type="matrix" values="0 0 0 0 0 0 0 0 0 0 0 0 0 0 0 0 0 0 0.06 0"/>
<feBlend mode="normal" in2="BackgroundImageFix" result="effect1_dropShadow_290_1742"/>
<feBlend mode="normal" in="SourceGraphic" in2="effect1_dropShadow_290_1742" result="shape"/>
</filter>
<linearGradient id="paint0_linear_290_1742" x1="1.3335" y1="1.33331" x2="1.3335" y2="7.99998" gradientUnits="userSpaceOnUse">
<stop stop-color="white"/>
<stop offset="1" stop-color="#F0F0F0"/>
</linearGradient>
</defs>
</svg>
