<svg width="28" height="20" viewBox="0 0 28 20" fill="none" xmlns="http://www.w3.org/2000/svg">
<rect width="28" height="20" rx="2" fill="white"/>
<mask id="mask0_290_1804" style="mask-type:alpha" maskUnits="userSpaceOnUse" x="0" y="0" width="28" height="20">
<rect width="28" height="20" rx="2" fill="white"/>
</mask>
<g mask="url(#mask0_290_1804)">
<rect width="28" height="20" fill="#07319C"/>
<path fill-rule="evenodd" clip-rule="evenodd" d="M17.3335 9.99998C17.3335 8.90624 17.3335 7.61312 17.3335 6.6658C17.3335 5.92942 17.9304 5.33331 18.6668 5.33331H22.6668C23.4032 5.33331 24.0002 5.92942 24.0002 6.6658C24.0002 7.61313 24.0002 8.90624 24.0002 9.99998C24.0002 13.3333 20.6668 14.6666 20.6668 14.6666C20.6668 14.6666 17.3335 13.3333 17.3335 9.99998Z" fill="#008339"/>
<mask id="mask1_290_1804" style="mask-type:alpha" maskUnits="userSpaceOnUse" x="17" y="5" width="7" height="10">
<path fill-rule="evenodd" clip-rule="evenodd" d="M17.3335 9.99998C17.3335 8.90624 17.3335 7.61312 17.3335 6.6658C17.3335 5.92942 17.9304 5.33331 18.6668 5.33331H22.6668C23.4032 5.33331 24.0002 5.92942 24.0002 6.6658C24.0002 7.61313 24.0002 8.90624 24.0002 9.99998C24.0002 13.3333 20.6668 14.6666 20.6668 14.6666C20.6668 14.6666 17.3335 13.3333 17.3335 9.99998Z" fill="white"/>
</mask>
<g mask="url(#mask1_290_1804)">
<path fill-rule="evenodd" clip-rule="evenodd" d="M19.3337 7.99996C19.7018 7.99996 20.0003 7.70148 20.0003 7.33329C20.0003 6.9651 19.7018 6.66663 19.3337 6.66663C18.9655 6.66663 18.667 6.9651 18.667 7.33329C18.667 7.70148 18.9655 7.99996 19.3337 7.99996ZM19.3337 9.33329C19.7018 9.33329 20.0003 9.03482 20.0003 8.66663C20.0003 8.29844 19.7018 7.99996 19.3337 7.99996C18.9655 7.99996 18.667 8.29844 18.667 8.66663C18.667 9.03482 18.9655 9.33329 19.3337 9.33329ZM19.3337 10.6666C18.9655 10.6666 18.667 10.3681 18.667 9.99996C18.667 9.63177 18.9655 9.33329 19.3337 9.33329C19.7018 9.33329 20.0003 9.63177 20.0003 9.99996C20.0003 10.3681 19.7018 10.6666 19.3337 10.6666ZM19.3337 10.6666C19.7018 10.6666 20.0003 10.9651 20.0003 11.3333C20.0003 11.7015 19.7018 12 19.3337 12C18.9655 12 18.667 11.7015 18.667 11.3333C18.667 10.9651 18.9655 10.6666 19.3337 10.6666ZM22.667 11.3333C22.667 11.7015 22.3685 12 22.0003 12C21.6321 12 21.3337 11.7015 21.3337 11.3333C21.3337 10.9651 21.6321 10.6666 22.0003 10.6666C22.3685 10.6666 22.667 10.9651 22.667 11.3333ZM22.0003 9.33329C22.3685 9.33329 22.667 9.63177 22.667 9.99996C22.667 10.3681 22.3685 10.6666 22.0003 10.6666C21.6321 10.6666 21.3337 10.3681 21.3337 9.99996C21.3337 9.63177 21.6321 9.33329 22.0003 9.33329ZM22.0003 7.99996C21.6321 7.99996 21.3337 8.29844 21.3337 8.66663C21.3337 9.03482 21.6321 9.33329 22.0003 9.33329C22.3685 9.33329 22.667 9.03482 22.667 8.66663C22.667 8.29844 22.3685 7.99996 22.0003 7.99996ZM22.0003 7.99996C21.6321 7.99996 21.3337 7.70148 21.3337 7.33329C21.3337 6.9651 21.6321 6.66663 22.0003 6.66663C22.3685 6.66663 22.667 6.9651 22.667 7.33329C22.667 7.70148 22.3685 7.99996 22.0003 7.99996Z" fill="#FFD033"/>
<path fill-rule="evenodd" clip-rule="evenodd" d="M20.6667 11.3333C21.0349 11.3333 21.3333 10.4379 21.3333 9.33331C21.3333 8.22874 21.0349 7.33331 20.6667 7.33331C20.2985 7.33331 20 8.22874 20 9.33331C20 10.4379 20.2985 11.3333 20.6667 11.3333Z" fill="white"/>
</g>
<path d="M16.6665 13.3334C16.6665 14.6049 18.4877 15.3334 20.6665 15.3334C22.8453 15.3334 24.6665 14.6049 24.6665 13.3334C24.6665 12.9652 24.368 12.6667 23.9998 12.6667C23.6316 12.6667 23.3332 12.9652 23.3332 13.3334C23.3332 13.3461 23.1716 13.4989 22.7759 13.6572C22.2389 13.872 21.4822 14 20.6665 14C19.8508 14 19.0942 13.872 18.5571 13.6572C18.1614 13.4989 17.9998 13.3461 17.9998 13.3334C17.9998 12.9652 17.7014 12.6667 17.3332 12.6667C16.965 12.6667 16.6665 12.9652 16.6665 13.3334Z" fill="#FFD033"/>
<path d="M0 -0.333333H-0.901086L-0.21693 0.253086L4.33333 4.15331V5.16179L-0.193746 8.39542L-0.333333 8.49513V8.66667V9.33333V9.93475L0.176666 9.616L5.42893 6.33333H6.55984L11.0821 9.56351C11.176 9.6306 11.2886 9.66667 11.404 9.66667C11.9182 9.66667 12.1548 9.02698 11.7644 8.69237L7.66667 5.18002V4.17154L12.0542 1.03762C12.2294 0.912475 12.3333 0.710428 12.3333 0.495127V0V-0.601416L11.8233 -0.282666L6.57107 3H5.44016L0.860413 -0.271244L0.773488 -0.333333H0.666667H0Z" fill="#DB1E36" stroke="white" stroke-width="0.666667"/>
<path fill-rule="evenodd" clip-rule="evenodd" d="M0 3.33333V6H4.66667V9.33333C4.66667 9.70152 4.96514 10 5.33333 10H6.66667C7.03486 10 7.33333 9.70152 7.33333 9.33333V6H12C12.3682 6 12.6667 5.70152 12.6667 5.33333V4C12.6667 3.63181 12.3682 3.33333 12 3.33333H7.33333V0H4.66667V3.33333H0Z" fill="white"/>
<path fill-rule="evenodd" clip-rule="evenodd" d="M0 4H5.33333V3.33333V0H6.66667V3.33333V4H12V5.33333H6.66667V6V9.33333H5.33333V6V5.33333H0V4Z" fill="#DB1E36"/>
</g>
</svg>
