<svg width="28" height="20" viewBox="0 0 28 20" fill="none" xmlns="http://www.w3.org/2000/svg">
<rect width="28" height="20" rx="2" fill="white"/>
<mask id="mask0_290_1774" style="mask-type:alpha" maskUnits="userSpaceOnUse" x="0" y="0" width="28" height="20">
<rect width="28" height="20" rx="2" fill="white"/>
</mask>
<g mask="url(#mask0_290_1774)">
<rect width="28" height="20" fill="#E31F37"/>
<path fill-rule="evenodd" clip-rule="evenodd" d="M-1.3335 10.6667H14.6665V-1.33331H-1.3335V10.6667Z" fill="#083B9A"/>
<path fill-rule="evenodd" clip-rule="evenodd" d="M6.6666 2.66667L5.7238 2.94281L5.99994 2L5.7238 1.05719L6.6666 1.33333L7.60941 1.05719L7.33327 2L7.60941 2.94281L6.6666 2.66667ZM6.6666 9.33333L5.7238 9.60948L5.99994 8.66667L5.7238 7.72386L6.6666 8L7.60941 7.72386L7.33327 8.66667L7.60941 9.60948L6.6666 9.33333ZM3.05713 6.27614L3.99994 6L4.94275 6.27614L4.6666 5.33333L4.94275 4.39052L3.99994 4.66667L3.05713 4.39052L3.33327 5.33333L3.05713 6.27614ZM9.99994 5.33333L9.05713 5.60947L9.33327 4.66667L9.05713 3.72386L9.99994 4L10.9427 3.72386L10.6666 4.66667L10.9427 5.60947L9.99994 5.33333ZM8.6666 7C8.6666 7.18409 8.51737 7.33333 8.33327 7.33333C8.14918 7.33333 7.99994 7.18409 7.99994 7C7.99994 6.8159 8.14918 6.66667 8.33327 6.66667C8.51737 6.66667 8.6666 6.8159 8.6666 7Z" fill="white"/>
</g>
</svg>
