<svg width="0" height="0" style="display: none;">
    <symbol id="android" xmlns="http://www.w3.org/2000/svg" viewBox="0 0 24 24">
        <path fill="currentColor"
              d="M24 19H0a13.6 13.6 0 0 1 2.21-6.07A11.2 11.2 0 0 1 5.87 9.4l.41-.23-2.02-3.41a.51.51 0 0 1 .17-.7.5.5 0 0 1 .69.18l2.08 3.5a12.6 12.6 0 0 1 4.84-.9 12.2 12.2 0 0 1 4.75.9l2.07-3.5a.5.5 0 0 1 .924.147.5.5 0 0 1-.064.383L17.7 9.19l.5.28a11.4 11.4 0 0 1 3.63 3.62A14.5 14.5 0 0 1 24 19m-7.5-4.48a1 1 0 1 0 2 0 1 1 0 0 0-2 0m-11 0a1 1 0 1 0 2 0 1 1 0 0 0-2 0" />
    </symbol>
    <symbol id="apple" xmlns="http://www.w3.org/2000/svg" viewBox="0 0 24 24">
        <path fill="currentColor"
              d="M12.1 6.3c-.9 0-2.2-1-3.6-1-1.9.1-3.6 1.2-4.5 2.8-2 3.4-.5 8.4 1.4 11.1.9 1.3 2 2.8 3.5 2.8 1.4-.1 1.9-.9 3.6-.9s2.2.9 3.6.9c1.5 0 2.5-1.4 3.4-2.7 1.1-1.5 1.5-3 1.5-3.1 0 0-2.9-1.1-3-4.5 0-2.8 2.3-4.1 2.4-4.2-1.3-1.9-3.3-2.1-4-2.2-1.9-.1-3.4 1-4.3 1m3.1-2.8c.8-.9 1.3-2.2 1.2-3.5-1.1 0-2.4.7-3.2 1.7-.7.8-1.3 2.1-1.2 3.4 1.2.1 2.5-.7 3.2-1.6" />
    </symbol>
    <symbol id="arc" xmlns="http://www.w3.org/2000/svg" fill="currentColor" viewBox="0 0 24 24">
        <path fill="currentColor"
              d="M19.15 17.423c.574 1.206-.035 2.684-1.32 3.038a2.13 2.13 0 0 1-2.497-1.139l-3.673-7.727a.243.243 0 0 0-.439 0l-.49 1.03a5 5 0 0 1-.443-.075c-1.255-.266-2.517-.983-3.35-1.884L9.511 5.25a2.134 2.134 0 0 1 3.065-.887c.34.215.614.523.787.887l2.821 5.936q-.004.001-.003.002l.003-.002z" />
        <path fill="currentColor"
              d="m13.543 17.66-1.905-4.01a5 5 0 0 1-1.35-.1c-1.42-.301-2.848-1.179-3.656-2.247a3.6 3.6 0 0 1-.48-.829 2.137 2.137 0 0 0-2.777-1.18 2.137 2.137 0 0 0-1.18 2.778c.5 1.241 1.384 2.38 2.494 3.317 1.1.926 2.369 1.63 3.737 2.072a9.5 9.5 0 0 0 2.874.468c.76 0 1.511-.094 2.243-.27Zm-9.826-.229.637-1.338a11.1 11.1 0 0 0 3.666 2.228l-.478 1.004a2.135 2.135 0 0 1-2.93.966c-1.018-.541-1.39-1.82-.895-2.86m17.997-8.195c-.41 2.051-1.458 3.914-2.895 5.385l-1.634-3.435-.404-.85a6.2 6.2 0 0 0 .75-1.937 2.134 2.134 0 0 1 2.512-1.674 2.13 2.13 0 0 1 1.671 2.511m-4.532 1.952.003-.002q-.004.001-.003.002" />
    </symbol>
    <symbol id="blackberry" xmlns="http://www.w3.org/2000/svg" viewBox="0 0 24 24">
        <path fill="currentColor"
              d="M8.1 5.9c0-.7-.4-1.7-2.3-1.7H2.9L2 8.1h3c2.4 0 3.1-1.2 3.1-2.2m7.8 0c0-.7-.4-1.7-2.3-1.7h-2.9l-.9 3.9h3c2.4 0 3.1-1.2 3.1-2.2M7 11.6c0-.7-.4-1.6-2.3-1.6H1.8L1 13.8h3c2.4 0 3-1.1 3-2.2m7.8 0c0-.7-.4-1.6-2.3-1.6H9.6l-.8 3.8h3c2.4 0 3-1.1 3-2.2M23 9.3c0-.7-.5-1.7-2.3-1.7h-2.9l-.8 3.9h3c2.3 0 3-1.1 3-2.2m-1.1 5.9c0-.7-.5-1.7-2.3-1.7h-2.9l-.8 3.8h3c2.3.1 3-1 3-2.1m-8.2 2.4c0-.7-.4-1.7-2.3-1.7H8.5l-.8 3.8h3c2.4.1 3-1.1 3-2.1" />
    </symbol>
    <symbol id="brave" xmlns="http://www.w3.org/2000/svg" viewBox="0 0 24 24">
        <path fill="currentColor"
              d="m21.19 6.554.569 1.63c.03.086.033.178.01.265l-.023.088-.066.25-.235.894-.712 2.714c-.56 2.134-.927 3.539-1.015 3.889-.482 1.906-.863 2.567-2.096 3.439-1.081.763-3.336 2.295-3.77 2.567l-.148.097-.17.117a4 4 0 0 1-.524.31 1.4 1.4 0 0 1-.601.15c-.2 0-.396-.054-.602-.15a4 4 0 0 1-.523-.31l-.171-.117-.148-.097c-.434-.272-2.689-1.804-3.77-2.567-1.233-.872-1.614-1.533-2.095-3.44-.089-.35-.456-1.754-1.011-3.873l-.952-3.623-.066-.25-.023-.088a.45.45 0 0 1 .01-.264l.57-1.631L3.2 5.502a.45.45 0 0 1 .088-.478 43 43 0 0 1 .411-.435c.316-.331.649-.674.983-1.01.32-.32.751-.494 1.255-.553a4.2 4.2 0 0 1 1.267.06l1.654-1.883a.45.45 0 0 1 .337-.153h6.427a.45.45 0 0 1 .338.153l1.654 1.884.063-.012c.399-.07.81-.095 1.204-.05.503.06.934.233 1.254.555A65 65 0 0 1 21.5 4.993c.149.16.183.346.117.51l-.427 1.05Zm-.905.136a.45.45 0 0 1 .008-.318l.381-.942a66 66 0 0 0-1.176-1.213c-.158-.159-.404-.257-.722-.295a3.3 3.3 0 0 0-.943.042 4 4 0 0 0-.26.056.45.45 0 0 1-.46-.137l-1.695-1.93h-6.02l-1.694 1.93a.45.45 0 0 1-.459.137 4 4 0 0 0-.26-.056 3.3 3.3 0 0 0-.943-.042c-.32.038-.564.136-.723.295A65 65 0 0 0 4.143 5.43l.382.942a.45.45 0 0 1 .008.318l-.58 1.662.054.205.948 3.608c.561 2.14.928 3.543 1.017 3.897.433 1.715.709 2.193 1.742 2.923a168 168 0 0 0 3.904 2.655l.17.117c.175.118.291.19.4.24a.6.6 0 0 0 .22.064.6.6 0 0 0 .222-.065 3 3 0 0 0 .399-.24l.17-.116a163 163 0 0 0 3.904-2.655c1.034-.73 1.31-1.208 1.742-2.923.09-.354.456-1.757 1.013-3.881l.952-3.624.054-.205zm-3.347-1.784s2.354 2.856 2.354 3.467c0 .61-.296.771-.594 1.088l-1.765 1.881c-.167.178-.514.448-.31.934s.506 1.104.171 1.73c-.335.627-.91 1.046-1.278.976-.368-.069-1.233-.522-1.551-.73s-1.326-1.041-1.326-1.36 1.042-.893 1.234-1.023c.193-.13 1.07-.634 1.089-.832s.01-.256-.248-.745c-.26-.489-.726-1.14-.648-1.575.077-.434.83-.66 1.367-.863.537-.204 1.57-.588 1.7-.648s.096-.117-.296-.154c-.39-.037-1.501-.185-2.002-.045s-1.355.353-1.424.466c-.07.113-.13.117-.06.507s.438 2.26.473 2.592c.036.332.105.552-.252.633-.356.082-.957.224-1.163.224s-.807-.142-1.164-.224-.287-.301-.252-.633c.036-.332.402-2.203.473-2.592s.01-.394-.06-.507-.924-.326-1.424-.466-1.61.008-2.002.045-.425.094-.295.154c.129.06 1.163.444 1.7.648.536.203 1.289.43 1.366.863.078.434-.388 1.086-.647 1.575-.26.49-.266.547-.248.745.017.198.895.702 1.088.832.192.13 1.234.704 1.234 1.023s-1.008 1.153-1.326 1.36-1.182.661-1.55.73c-.369.07-.943-.349-1.279-.976s-.033-1.245.17-1.73c.205-.486-.142-.756-.31-.934L6.12 9.462c-.297-.318-.593-.479-.593-1.09 0-.61 2.353-3.465 2.353-3.465s1.986.38 2.254.38c.267 0 .848-.224 1.383-.403.536-.18.893-.18.893-.18s.357 0 .892.18c.536.18 1.116.403 1.384.403s2.253-.38 2.253-.38Zm-1.764 10.925c.146.091.057.264-.076.358s-1.916 1.48-2.089 1.634-.427.406-.6.406-.428-.253-.6-.406a108 108 0 0 0-2.09-1.634c-.133-.094-.221-.267-.076-.358.146-.092.602-.323 1.23-.65.63-.326 1.413-.604 1.536-.604.122 0 .906.278 1.535.604.628.327 1.084.558 1.23.65" />
    </symbol>
    <symbol id="chrome" xmlns="http://www.w3.org/2000/svg" viewBox="0 0 24 24">
        <path fill="currentColor"
              d="m15.863 8.966 6.155-1.54c.647 1.43.982 2.98.982 4.548C23 18.023 18.022 23 11.97 23q-.415 0-.83-.031l4.495-7.652c.327-.344.6-.736.808-1.165a5 5 0 0 0-.04-4.352 4.7 4.7 0 0 0-.54-.834m-2.97 7.86-1.944 6.125C5.343 22.4 1 17.628 1 11.98c0-2.186.65-4.324 1.868-6.14L7.3 13.518c.165.494 1.026 2.366 2.812 3.05.915.35 1.87.44 2.782.258Zm-.918-8.841c-1.839.017-3.555 1.415-3.924 3.22A4.1 4.1 0 0 0 9.185 14.9c1.113 1.088 2.878 1.447 4.34.85 1.29-.528 2.264-1.766 2.466-3.145.25-1.701-.722-3.513-2.287-4.243a4.05 4.05 0 0 0-1.729-.377M7.46 10.132 3.07 5.549A11.04 11.04 0 0 1 11.997 1c4.18 0 8.016 2.376 9.876 6.119h-9.362c-1.66-.115-3.013.476-3.91 1.332a4.9 4.9 0 0 0-1.142 1.68Z" />
    </symbol>
    <symbol id="edgeOld" xmlns="http://www.w3.org/2000/svg" viewBox="0 0 24 24">
        <path fill="currentColor"
              d="M22.228 14.063H8.17q0 .794.24 1.443c.173.426.396.808.682 1.142q.424.498 1.01.86.569.362 1.23.593a7.6 7.6 0 0 0 1.357.351 9.2 9.2 0 0 0 3.035-.023 12 12 0 0 0 1.514-.385c.495-.163.973-.355 1.451-.575.481-.22.969-.46 1.471-.729v4.661c-.56.275-1.11.506-1.66.705-.55.193-1.1.361-1.66.495-.56.138-1.127.241-1.71.303q-.893.096-1.793.096a10 10 0 0 1-2.39-.285 9.4 9.4 0 0 1-2.158-.819 9 9 0 0 1-1.85-1.299 8.2 8.2 0 0 1-2.379-3.802 8.6 8.6 0 0 1-.326-2.392q0-1.355.371-2.585a8.3 8.3 0 0 1 1.073-2.262 8.2 8.2 0 0 1 1.701-1.832 9 9 0 0 1 2.263-1.306 4.8 4.8 0 0 0-1.067 1.626 7 7 0 0 0-.49 1.883h7.83q0-1.183-.24-2.07-.241-.886-.781-1.47a3.25 3.25 0 0 0-1.386-.88q-.85-.296-2.051-.296a9.8 9.8 0 0 0-2.837.423c-.945.275-1.842.67-2.695 1.168a13 13 0 0 0-2.35 1.78 11 11 0 0 0-1.806 2.228 13 13 0 0 1 .595-2.67c.285-.849.663-1.64 1.118-2.373.45-.72.986-1.381 1.595-1.973a9.5 9.5 0 0 1 2.027-1.513 10.4 10.4 0 0 1 2.396-.97c.898-.205 1.816-.31 2.737-.311a9.6 9.6 0 0 1 1.683.151 12 12 0 0 1 1.641.42 9.8 9.8 0 0 1 2.836 1.519 9.7 9.7 0 0 1 2.096 2.245q.85 1.275 1.293 2.808.445 1.53.447 3.187v2.732h-.004Z" />
    </symbol>
    <symbol id="edge" xmlns="http://www.w3.org/2000/svg" viewBox="0 0 24 24">
        <path fill="currentColor"
              d="M21.038 17.372q.128 0 .23.11a.38.38 0 0 1 .091.229.7.7 0 0 1-.1.302l-.294.422-.394.486-.404.458a6 6 0 0 1-.348.385l-.201.211a11.5 11.5 0 0 1-2.695 1.787q-.79.367-1.595.587a5.8 5.8 0 0 1-1.531.22q-.825 0-1.55-.256a5.2 5.2 0 0 1-1.356-.715 6 6 0 0 1-1.118-1.073 7.4 7.4 0 0 1-.844-1.32q-.349-.706-.531-1.467a6.5 6.5 0 0 1-.184-1.53q0-.917.293-1.797a7.4 7.4 0 0 1 .798-1.65q.129.87.504 1.622t.935 1.375a6.7 6.7 0 0 0 1.265 1.11q.715.495 1.503.825.789.33 1.623.513a7.8 7.8 0 0 0 1.65.183q1.026 0 1.998-.22a8.3 8.3 0 0 0 1.889-.66l.183-.091zM6.83 16.207q0 1.01.247 1.971.248.972.716 1.861.467.88 1.136 1.623.678.75 1.522 1.283a10.6 10.6 0 0 1-2.567-.678 11.4 11.4 0 0 1-2.273-1.256 11.2 11.2 0 0 1-1.907-1.742 11.3 11.3 0 0 1-1.448-2.136 11 11 0 0 1-.926-2.438Q1 13.411 1 12.055q0-.742.293-1.366a4.1 4.1 0 0 1 .761-1.127q.486-.505 1.1-.88a7.5 7.5 0 0 1 1.238-.605q.678-.248 1.375-.358a9.3 9.3 0 0 1 2.722-.018 8.2 8.2 0 0 1 2.493.843q.579.321 1.064.761a3.3 3.3 0 0 0-.642.064 2.5 2.5 0 0 0-.596.211v-.018a5 5 0 0 0-1.1.678 7 7 0 0 0-.962.953q-.44.533-.798 1.155a9 9 0 0 0-.596 1.274 8.6 8.6 0 0 0-.385 1.32q-.137.66-.137 1.265m5.133-15.152q1.56 0 3.053.357a11.5 11.5 0 0 1 2.814 1.055 10.7 10.7 0 0 1 2.402 1.769 9.7 9.7 0 0 1 1.815 2.475q.45.861.696 1.796A7 7 0 0 1 23 10.414a5.7 5.7 0 0 1-.21 1.559 5.1 5.1 0 0 1-.633 1.356 5.1 5.1 0 0 1-1.009 1.118 5.5 5.5 0 0 1-1.329.807 5 5 0 0 1-1.017.33q-.533.12-1.064.12-.385 0-.889-.028a10 10 0 0 1-1.008-.11 6 6 0 0 1-.963-.257 2.4 2.4 0 0 1-.77-.458 1 1 0 0 1-.21-.22.56.56 0 0 1-.092-.303q0-.137.147-.32.146-.184.32-.459a3 3 0 0 0 .33-.623 2.3 2.3 0 0 0 .147-.871q0-.972-.367-1.797a5.6 5.6 0 0 0-.971-1.503 6.5 6.5 0 0 0-1.394-1.173 8.4 8.4 0 0 0-1.64-.816A9 9 0 0 0 8.8 6.362a10 10 0 0 0-1.614-.128q-1.42 0-2.804.413-1.385.413-2.521 1.274A11.7 11.7 0 0 1 3.52 5.05a10.6 10.6 0 0 1 2.31-2.154 10.4 10.4 0 0 1 2.841-1.365 11.2 11.2 0 0 1 3.282-.477h.01Z" />
    </symbol>
    <symbol id="electron1" xmlns="http://www.w3.org/2000/svg" viewBox="0 0 24 24">
        <path fill="currentColor"
              d="M12 4.4a.43.43 0 0 0-.423.438c0 .25.196.439.423.439a.43.43 0 0 0 .411-.333q0-.05.012-.099v-.007A.43.43 0 0 0 12 4.4m0 7.698a.356.356 0 0 0-.348.363c0 .207.163.362.348.362a.355.355 0 0 0 .348-.362.355.355 0 0 0-.348-.363m6.51 3.812a.43.43 0 0 0-.423.438c0 .25.196.438.423.438a.43.43 0 0 0 .423-.438.43.43 0 0 0-.423-.438m-13.443.438a.43.43 0 0 1 .423-.438.43.43 0 0 1 .423.438.43.43 0 0 1-.423.439.43.43 0 0 1-.423-.439" />
        <path fill="currentColor" fill-rule="evenodd"
              d="M12 1C5.925 1 1 5.925 1 12s4.925 11 11 11 11-4.925 11-11S18.075 1 12 1m1.216 3.702A1.23 1.23 0 0 0 12 3.6a1.23 1.23 0 0 0-1.223 1.238c0 .677.54 1.239 1.223 1.239.427 0 .8-.22 1.017-.551.565.41 1.098 1.161 1.515 2.208.5 1.255.805 2.873.805 4.647 0 1.143-.127 2.223-.352 3.184a.4.4 0 0 0 .78.182c.239-1.024.372-2.165.372-3.366 0-1.86-.32-3.58-.862-4.943-.493-1.239-1.194-2.238-2.06-2.736Zm-2.364 7.759c0-.635.507-1.163 1.148-1.163s1.148.528 1.148 1.163-.507 1.162-1.148 1.162a1.155 1.155 0 0 1-1.148-1.162m-2.03 3.974a.4.4 0 0 1 .51.245c.327.93.75 1.674 1.22 2.177.47.502.962.743 1.445.743.537 0 1.087-.298 1.6-.92a.4.4 0 1 1 .618.509c-.604.732-1.36 1.211-2.218 1.211-.77 0-1.46-.388-2.03-.997-.567-.608-1.039-1.458-1.39-2.458a.4.4 0 0 1 .245-.51M7.027 7.074c.804-.197 1.766-.187 2.794.003a.4.4 0 1 1-.146.787c-.953-.177-1.795-.176-2.457-.013-.66.162-1.113.475-1.357.906-.288.508-.293 1.196.03 2.017a.4.4 0 1 1-.745.293c-.374-.95-.43-1.91.019-2.704.383-.676 1.056-1.091 1.862-1.29Zm.083 6.236a.4.4 0 0 1 .566-.002c.725.72 1.62 1.412 2.647 2.016 1.49.876 2.997 1.412 4.3 1.604 1.136.168 2.07.07 2.71-.24a1.3 1.3 0 0 1-.046-.34c0-.677.54-1.238 1.223-1.238a1.23 1.23 0 0 1 1.223 1.238 1.23 1.23 0 0 1-1.223 1.238c-.27 0-.517-.087-.718-.235-.857.459-2.025.555-3.285.369-1.42-.21-3.025-.786-4.59-1.706a14.3 14.3 0 0 1-2.804-2.138.4.4 0 0 1-.003-.566m9.096-5.962a.4.4 0 0 1 .464-.324c.935.166 1.724.594 2.153 1.35.381.673.398 1.469.166 2.273-.232.802-.718 1.642-1.39 2.451a.4.4 0 1 1-.615-.51c.625-.753 1.044-1.496 1.236-2.163.192-.665.151-1.225-.093-1.656-.273-.481-.808-.817-1.596-.957a.4.4 0 0 1-.325-.464m-8.208 3.61c-1.458 1.223-2.433 2.653-2.354 4.161a1.234 1.234 0 0 1 1.069 1.229 1.23 1.23 0 0 1-1.223 1.239 1.23 1.23 0 0 1-1.223-1.239c0-.445.233-.84.587-1.058-.166-1.942 1.079-3.643 2.63-4.944 1.63-1.367 3.703-2.383 5.242-2.886a.4.4 0 0 1 .248.76c-1.46.478-3.437 1.449-4.976 2.739Z"
              clip-rule="evenodd" />
    </symbol>
    <symbol id="electron" xmlns="http://www.w3.org/2000/svg" viewBox="0 0 24 24">
        <path stroke="currentColor" stroke-linecap="round" stroke-linejoin="round"
              d="M9.185 6.338c-2.477-.46-4.51-.022-5.294 1.362-.46.813-.428 1.843.007 2.95m15.413 7.41c-1.881 1.308-5.844.77-9.66-1.474a17.3 17.3 0 0 1-3.408-2.596m12.371-.937c1.622-1.951 2.262-3.958 1.48-5.339-.439-.773-1.267-1.25-2.344-1.442M3.597 16.34c-.335-2.325 2.132-5.677 6.062-7.988A17.5 17.5 0 0 1 13.062 6.8M8.193 18.016C9.041 20.428 10.429 22 11.996 22c.872 0 1.688-.486 2.387-1.332m-1.37-17.49c2.093.947 3.658 4.75 3.658 9.298 0 1.466-.162 2.854-.453 4.094m4.949.865c0 .579-.461 1.048-1.03 1.048a1.04 1.04 0 0 1-1.028-1.048c0-.579.46-1.048 1.029-1.048.568 0 1.029.47 1.029 1.048m-16.276 0c0 .579-.46 1.048-1.029 1.048a1.04 1.04 0 0 1-1.029-1.048c0-.579.461-1.048 1.03-1.048.567 0 1.028.47 1.028 1.048M13.03 3.048c0 .579-.46 1.048-1.03 1.048a1.04 1.04 0 0 1-1.028-1.048A1.037 1.037 0 0 1 12 2c.568 0 1.029.47 1.029 1.048Zm-.094 9.528a.944.944 0 0 1-.935.953.944.944 0 0 1-.935-.953c0-.526.418-.953.935-.953s.935.427.935.953" />
    </symbol>
    <symbol id="firefox" xmlns="http://www.w3.org/2000/svg" viewBox="0 0 24 24">
        <path fill="currentColor"
              d="M22.914 11.024c-.029-.2-.067-.325-.067-.325s-.077.096-.21.268a7.4 7.4 0 0 0-.259-1.444 10 10 0 0 0-.67-1.713 6.3 6.3 0 0 0-.611-1.042c-.125-.191-.23-.335-.25-.364-.41-.67-.87-1.07-1.415-1.836a5.6 5.6 0 0 1-.698-1.904 7 7 0 0 0-.344 1.244c-.546-.555-1.034-.957-1.32-1.224-1.435-1.34-1.263-2.028-1.263-2.028s-2.678 2.984-1.52 6.093a6 6 0 0 0 1.998 2.659c1.12.918 2.325 1.645 2.956 3.51a5.9 5.9 0 0 0-2.229-2.362 5.3 5.3 0 0 1 .421 2.133 5.064 5.064 0 0 1-5.07 5.06c-.373 0-.755-.038-1.119-.125q-.662-.13-1.253-.43a5 5 0 0 1-1.511-1.387v-.01a.4.4 0 0 0 .086.03c.21.076.421.133.641.171a4.02 4.02 0 0 0 2.544-.296c.804-.45 1.292-.775 1.684-.65.392.124.688-.25.42-.641a2.1 2.1 0 0 0-2.027-.785c-.804.115-1.54.68-2.583.134-.076-.038-.134-.076-.2-.115-.068-.048.229.058.152.01a4.6 4.6 0 0 1-.66-.392c-.01-.01.163.047.144.038a2.5 2.5 0 0 1-.689-.698 1.27 1.27 0 0 1-.048-1.1.97.97 0 0 1 .43-.402c.135.067.22.115.22.115s-.066-.115-.095-.172c.01-.01.02 0 .038-.01.115.048.373.182.517.268a.7.7 0 0 1 .239.21s.048-.019.01-.124a.6.6 0 0 0-.25-.297h.02c.105.058.2.115.297.192a1.5 1.5 0 0 0 .124-.641.9.9 0 0 0-.048-.354c-.038-.077.02-.105.086-.029a.6.6 0 0 0-.057-.172s.038-.057.057-.067c.048-.048.096-.096.153-.124.335-.21.68-.393 1.043-.536.296-.124.536-.23.583-.258a2 2 0 0 0 .21-.153c.25-.21.412-.498.47-.813C12 8.088 12 8.05 12 8.01v-.076c-.038-.163-.316-.278-1.76-.421a1.25 1.25 0 0 1-1.033-.966v.01c-.02.047-.038.105-.057.162.019-.057.038-.105.057-.163v-.01a3.7 3.7 0 0 1 1.416-1.76c.038-.028-.144.01-.106-.018q.173-.089.373-.163c.067-.019-.277-.153-.583-.124-.182.01-.364.057-.536.124.077-.057.287-.134.24-.134-.393.067-.766.21-1.1.411 0-.038.009-.066.019-.095a1.7 1.7 0 0 0-.68.526V5.19c-.124.095-.23.2-.334.315h-.01a4.44 4.44 0 0 0-2.496-.21l-.01-.01h.01a1.8 1.8 0 0 1-.44-.497l-.01.01-.02-.02c-.057-.076-.104-.172-.162-.277-.048-.067-.086-.153-.134-.24 0 0 0-.009-.01-.009-.009 0-.028.086-.037.058a3 3 0 0 1-.201-1.196h-.01a1.27 1.27 0 0 0-.507.67c-.048.095-.076.143-.105.2v-.028l.029-.144c-.01.01-.01.02-.02.029a1.2 1.2 0 0 0-.172.258 1.4 1.4 0 0 0-.114.278v-.048c0-.039.01-.096 0-.077l-.01.029a6.7 6.7 0 0 0-.574 2.152c-.02.134-.02.258-.02.383v.019a5 5 0 0 0-.583.775 11 11 0 0 0-1.224 3.013c.182-.402.402-.794.66-1.158A10.6 10.6 0 0 0 1 13.377c.086-.392.191-.774.316-1.157a9.9 9.9 0 0 0 .89 4.6 10.67 10.67 0 0 0 4.237 4.793A9.1 9.1 0 0 0 8.9 22.8c.115.038.239.086.354.125-.038-.02-.067-.039-.105-.048 1.033.306 2.114.468 3.194.468 3.836 0 5.099-1.463 5.223-1.607.182-.172.344-.373.45-.612.076-.029.143-.057.22-.095l.047-.02a8 8 0 0 0 1.712-1.052 3.92 3.92 0 0 0 1.502-2.21 1.37 1.37 0 0 0 .029-1.013c.057-.096.105-.182.115-.201A9.03 9.03 0 0 0 23 12.144v-.134c0-.326-.029-.66-.086-.986" />
    </symbol>
    <symbol id="html5" xmlns="http://www.w3.org/2000/svg" viewBox="0 0 24 24">
        <path fill="currentColor"
              d="M2.375 1h19.25l-1.75 19.766L11.978 23l-7.85-2.235zM8.82 9.938l-.213-2.492 9.221.003.211-2.404-12.078-.002.64 7.342h8.365l-.298 3.14-2.668.737-2.709-.742-.172-1.934H6.727l.303 3.823L12 18.74l4.93-1.323.683-7.478z" />
    </symbol>
    <symbol id="kodi" xmlns="http://www.w3.org/2000/svg" viewBox="0 0 24 24">
        <g clip-path="url(#kodi__a)">
            <path fill="currentColor"
                  d="M9.54 21.814c-1.97-1.99-2.17-2.226-2.17-2.569s.198-.576 2.177-2.565 2.212-2.187 2.553-2.187.57.193 2.4 2.018c2.026 2.02 2.337 2.402 2.337 2.862 0 .172-.653.905-2.175 2.439-2.005 2.022-2.205 2.192-2.563 2.192s-.556-.17-2.558-2.19Zm9.224-5.207c-.181-.114-1.21-1.102-2.284-2.196-1.746-1.778-1.954-2.029-1.954-2.359s.22-.59 2.19-2.577c1.938-1.954 2.231-2.208 2.544-2.208.312 0 .605.254 2.543 2.208 1.986 2.002 2.19 2.244 2.19 2.584 0 .341-.202.58-2.18 2.566-2.334 2.345-2.4 2.389-3.049 1.982m-16.71-2.204c-1.482-1.497-2.06-2.152-2.06-2.336 0-.317 3.886-4.431 4.185-4.431a.3.3 0 0 1 .262.175c.037.096.067 1.99.067 4.21 0 3.808-.046 4.463-.31 4.463-.046 0-1.01-.936-2.144-2.08Zm5.493-.638c-.037-.097-.067-2.24-.067-4.761 0-3.752.028-4.641.156-4.885.087-.165 1.019-1.158 2.072-2.207C11.506.12 11.648.004 12.038.004c.393 0 .523.112 2.549 2.185 1.938 1.983 2.135 2.22 2.137 2.568.003.359-.28.669-4.37 4.783-2.407 2.42-4.457 4.4-4.558 4.4a.29.29 0 0 1-.25-.175Z" />
        </g>
        <defs>
            <clipPath id="kodi__a">
                <path fill="currentColor" d="M0 0h24v24H0z" />
            </clipPath>
        </defs>
    </symbol>
    <symbol id="linux" xmlns="http://www.w3.org/2000/svg" viewBox="0 0 24 24">
        <path fill="currentColor"
              d="M12.461 1a6 6 0 0 0-.439.02c-3.874.305-2.847 4.406-2.906 5.773-.07 1.002-.275 1.79-.963 2.769-.811.963-1.95 2.52-2.49 4.144-.254.763-.375 1.543-.263 2.281a.4.4 0 0 0-.101.124c-.239.246-.412.55-.607.769-.182.183-.445.245-.73.367-.287.124-.604.246-.793.624a1.2 1.2 0 0 0-.12.55c0 .183.024.368.05.492.053.366.106.668.036.89-.228.622-.256 1.05-.097 1.36.16.306.49.43.861.551.743.184 1.75.124 2.544.55.848.427 1.71.614 2.397.43a1.62 1.62 0 0 0 1.108-.866c.538-.003 1.127-.247 2.071-.306.64-.053 1.443.244 2.363.182.023.124.058.183.105.306l.002.003c.359.713 1.02 1.038 1.727.982.707-.055 1.46-.492 2.07-1.197.577-.702 1.542-.994 2.179-1.378.319-.182.576-.43.595-.782.02-.367-.183-.744-.655-1.262v-.089l-.003-.003c-.155-.183-.229-.49-.31-.848-.077-.368-.166-.72-.45-.96h-.003c-.054-.049-.113-.06-.172-.123a.33.33 0 0 0-.174-.059c.395-1.171.242-2.337-.16-3.386-.488-1.292-1.342-2.418-1.993-3.192-.73-.921-1.444-1.794-1.43-3.088.024-1.973.217-5.622-3.249-5.627Zm.485 3.122h.012c.195 0 .363.057.535.181.175.124.303.305.402.489.097.237.145.42.153.664 0-.019.005-.037.005-.055v.096l-.004-.02-.003-.021a1.7 1.7 0 0 1-.138.647.9.9 0 0 1-.195.307l-.08-.039c-.097-.041-.183-.058-.262-.122a1 1 0 0 0-.2-.06c.044-.054.132-.122.166-.182q.073-.177.081-.368V5.62a1.1 1.1 0 0 0-.056-.366c-.041-.124-.092-.184-.168-.306-.077-.06-.153-.121-.244-.121h-.015c-.085 0-.161.027-.24.12a.7.7 0 0 0-.188.307 1.1 1.1 0 0 0-.083.366v.018q.003.123.019.245c-.177-.062-.402-.124-.557-.186a2 2 0 0 1-.016-.182v-.018c-.007-.242.04-.482.137-.705a1 1 0 0 1 .395-.489.9.9 0 0 1 .544-.182Zm-2.715.054h.033a.64.64 0 0 1 .366.124c.133.118.242.264.315.426.082.182.13.367.14.611v.004c.007.123.006.184-.002.244v.073c-.027.007-.05.017-.076.022-.139.05-.25.124-.36.183a1 1 0 0 0 .003-.244v-.014c-.011-.122-.036-.182-.075-.305a.56.56 0 0 0-.152-.245.23.23 0 0 0-.168-.059h-.02c-.064.006-.119.038-.17.121a.5.5 0 0 0-.11.248.9.9 0 0 0-.021.303v.013c.011.124.034.184.074.306a.56.56 0 0 0 .152.246q.014.012.03.022c-.063.052-.107.064-.16.124a.3.3 0 0 1-.12.063 2.4 2.4 0 0 1-.253-.369 1.6 1.6 0 0 1-.142-.611c-.016-.207.01-.414.073-.612.05-.18.14-.348.26-.49.117-.123.238-.184.383-.184m1.257 1.564c.303 0 .67.06 1.113.365.269.184.48.247.965.43h.003c.234.124.371.243.438.365v-.12a.52.52 0 0 1 .015.43c-.113.286-.473.591-.975.774v.001c-.246.124-.46.306-.71.427-.254.123-.54.267-.928.244-.14.008-.28-.013-.41-.061a3 3 0 0 1-.296-.182c-.179-.123-.333-.304-.561-.426v-.004h-.005c-.366-.226-.564-.47-.628-.652q-.096-.37.177-.55c.205-.124.348-.248.442-.308a2 2 0 0 0 .162-.12h.001V6.35c.155-.185.4-.43.77-.55.127-.034.269-.06.427-.06m2.565 1.964c.33 1.299 1.097 3.185 1.591 4.1.262.49.784 1.52 1.01 2.772a1.7 1.7 0 0 1 .47.058c.593-1.531-.5-3.178-.997-3.635-.203-.184-.213-.307-.113-.307.54.49 1.25 1.441 1.509 2.527a3.24 3.24 0 0 1 .019 1.53c.061.026.123.057.188.062.946.49 1.295.86 1.127 1.41v-.04c-.056-.003-.11 0-.166 0h-.014c.139-.428-.166-.757-.976-1.122-.838-.367-1.509-.308-1.623.426-.006.04-.011.06-.016.124-.062.02-.127.048-.191.058-.394.246-.607.614-.727 1.088-.12.489-.156 1.06-.188 1.713v.003c-.02.306-.157.768-.292 1.239-1.375.982-3.282 1.41-4.903.306a2.4 2.4 0 0 0-.369-.489 1.3 1.3 0 0 0-.252-.306c.167 0 .31-.026.426-.061a.56.56 0 0 0 .288-.306c.1-.245 0-.64-.316-1.066-.316-.429-.853-.913-1.639-1.395-.577-.365-.904-.797-1.054-1.28-.151-.489-.131-.994-.014-1.507.225-.98.8-1.934 1.168-2.533.098-.06.034.124-.374.893-.363.689-1.046 2.289-.112 3.533a7.5 7.5 0 0 1 .593-2.636c.517-1.172 1.598-3.212 1.683-4.83.044.034.199.125.265.186.2.122.348.305.54.426.194.185.438.307.804.307q.053.005.101.006c.377 0 .669-.123.913-.246.266-.123.478-.306.679-.366h.004c.428-.124.767-.369.958-.642m2.004 8.21c.034.552.314 1.142.808 1.263.54.123 1.315-.305 1.642-.701l.193-.008c.29-.008.53.009.777.244l.003.003c.19.183.279.487.358.803.078.368.141.715.375.977.445.483.59.83.583 1.045l.002-.005v.016l-.002-.011c-.014.24-.17.363-.457.545-.577.368-1.6.653-2.252 1.44-.566.675-1.256 1.044-1.866 1.091-.609.049-1.134-.183-1.443-.823l-.004-.003c-.193-.367-.11-.94.051-1.549.161-.612.392-1.233.424-1.74.034-.654.07-1.223.18-1.662.11-.426.281-.73.587-.902l.04-.02v-.002Zm-9.913.046h.009q.073 0 .144.013c.345.05.647.305.938.689l.834 1.525.002.003c.223.488.692.975 1.09 1.501.398.548.706 1.037.668 1.44v.005c-.052.682-.439 1.052-1.03 1.186-.592.124-1.394.002-2.196-.425-.887-.492-1.941-.43-2.619-.552q-.508-.091-.662-.368c-.102-.182-.104-.55.112-1.127v-.003l.002-.003c.107-.306.028-.69-.025-1.025-.05-.368-.076-.65.04-.862.147-.306.363-.366.631-.489.27-.123.588-.185.84-.43h.002v-.002c.234-.246.408-.551.612-.768.174-.184.348-.308.608-.308m6.562-8.317c-.399.184-.866.49-1.364.49-.497 0-.89-.245-1.173-.427-.142-.123-.256-.246-.342-.307-.15-.123-.132-.306-.068-.306.1.014.118.123.182.184.088.06.197.182.331.305.267.183.623.428 1.069.428s.965-.245 1.281-.427c.18-.124.408-.306.594-.428.143-.126.137-.246.256-.246.118.015.031.123-.135.305a7 7 0 0 1-.632.43v-.001Zm-.992-1.452v-.02c-.005-.018.012-.039.027-.046.067-.04.165-.025.238.003.058 0 .147.062.137.124-.005.045-.077.06-.123.06-.05 0-.085-.039-.13-.062-.047-.016-.133-.007-.149-.06Zm-.505 0c-.018.053-.104.045-.152.06-.043.023-.079.062-.128.062-.046 0-.12-.017-.125-.062-.008-.06.08-.122.137-.122.075-.028.169-.043.238-.004.017.008.033.027.027.045v.02z" />
    </symbol>
    <symbol id="mobilePhone" xmlns="http://www.w3.org/2000/svg" viewBox="0 0 24 24">
        <path stroke="currentColor" stroke-linecap="round" stroke-linejoin="round"
              stroke-width="var(--stroke-width, 1.5)"
              d="M11 7h2m-1 11h.01M17 9v6c0 1.87 0 2.804-.402 3.5a3 3 0 0 1-1.098 1.098C14.804 20 13.87 20 12 20v0c-1.87 0-2.804 0-3.5-.402A3 3 0 0 1 7.402 18.5C7 17.804 7 16.87 7 15V9c0-1.87 0-2.804.402-3.5A3 3 0 0 1 8.5 4.402C9.196 4 10.13 4 12 4v0c1.87 0 2.804 0 3.5.402A3 3 0 0 1 16.598 5.5C17 6.196 17 7.13 17 9" />
    </symbol>
    <symbol id="msie" xmlns="http://www.w3.org/2000/svg" viewBox="0 0 24 24">
        <path fill="currentColor"
              d="M21.9 7.766c1.031-2.475 1.1-4.538-.137-5.775-1.375-1.374-4.675-.963-8.18.687h-.413c-2.475 0-4.88.895-6.668 2.475-1.513 1.375-2.613 3.163-3.094 5.157.344-.413 2.269-2.682 4.469-3.92.069 0 .619-.343.619-.343-.07 0-1.1 1.031-1.307 1.238-4.812 4.95-7.63 12.442-5.43 14.642 1.443 1.443 4.055 1.1 7.08-.55 1.307.618 2.75.893 4.33.893 2.063 0 3.988-.55 5.638-1.65 1.718-1.1 2.956-2.818 3.713-4.811h-5.363c-.687 1.306-2.268 2.2-3.918 2.2-2.338 0-4.263-1.925-4.33-4.125v-.207H22.93v-.206c0-.344.07-.756.07-1.03 0-1.65-.413-3.231-1.1-4.675M3.27 21.515c-1.1-1.1-.755-3.23.55-5.774.62 1.719 1.65 3.231 2.957 4.331a10 10 0 0 0 1.375.963c-2.2 1.168-3.988 1.375-4.881.48Zm14.093-10.448H8.977v-.069c.137-2.131 2.13-3.987 4.468-3.987 2.2 0 3.987 1.718 4.125 3.987v.069zm4.193-3.85a8.4 8.4 0 0 0-1.58-1.925 10.3 10.3 0 0 0-3.3-2.063c2.2-1.03 4.055-1.168 5.018-.205.756.894.687 2.405-.138 4.193" />
    </symbol>
    <symbol id="nokia" xmlns="http://www.w3.org/2000/svg" fill="currentColor" viewBox="0 0 64 32">
        <path fill="currentColor"
              d="M3.082 20.957H0v-10.48h5.33l6.114 7.824v-7.823h3.082v10.48H9.304L3.082 13zm26.188-3.24c0 1.456-.258 1.959-.684 2.44-.654.717-1.605.933-3.438.933h-5.262c-1.832 0-2.785-.216-3.438-.933-.426-.481-.684-.984-.684-2.44v-4.04c0-1.456.258-1.958.684-2.44.654-.718 1.606-.934 3.438-.934h5.262c1.833 0 2.784.216 3.438.934.426.482.684.984.684 2.44zm-4.252.718c.704 0 .952-.042 1.121-.195.158-.143.227-.328.227-.944v-3.198c0-.617-.07-.8-.227-.944-.169-.154-.417-.195-1.12-.195h-5.004c-.704 0-.952.041-1.12.195-.158.144-.228.328-.228.944v3.198c0 .616.07.8.228.944.168.153.416.195 1.12.195zm8.73-7.957v10.48h-3.22v-10.48zm5.44 0h4.251l-5.737 4.901 6.47 5.578h-4.548l-5.876-5.465zm5.578 0h3.221v10.48h-3.22m15.498 0-.953-1.826h-6.231l-.942 1.824h-3.557l5.708-10.478h4.003L64 20.958zM54.2 16.855h4.004l-2.002-3.794z" />
    </symbol>
    <symbol id="opera" xmlns="http://www.w3.org/2000/svg" viewBox="0 0 24 24">
        <path fill="currentColor"
              d="M8.38 5.801c-1.217 1.436-2.004 3.56-2.059 5.94v.518c.056 2.381.842 4.502 2.06 5.939 1.577 2.05 3.921 3.35 6.543 3.35a7.93 7.93 0 0 0 4.407-1.35 10.93 10.93 0 0 1-7.854 2.79C5.642 22.714 1 17.9 1 12 1 5.923 5.925 1 12 1h.041c2.8.011 5.354 1.069 7.29 2.8-1.29-.852-2.796-1.348-4.409-1.348-2.62 0-4.965 1.302-6.545 3.35zM23 12c0 3.26-1.416 6.186-3.669 8.2-2.821 1.375-5.45.413-6.32-.188 2.77-.609 4.864-3.96 4.864-8.012s-2.093-7.402-4.865-8.012c.87-.6 3.5-1.56 6.321-.188A10.96 10.96 0 0 1 23 12" />
    </symbol>
    <symbol id="otherDevices" xmlns="http://www.w3.org/2000/svg" viewBox="0 0 24 24">
        <path stroke="currentColor" stroke-linecap="round" stroke-linejoin="round"
              stroke-width="var(--stroke-width, 1.5)"
              d="M21 6H6.6c-1.5 0-2.25 0-2.776.382a2 2 0 0 0-.442.442C3 7.35 3 8.1 3 9.6v4.8c0 1.5 0 2.25.382 2.776q.187.256.442.442C4.35 18 5.1 18 6.6 18H7m10.5-7h1m-.5 6h.006M9.5 14.268a2 2 0 0 0 0 3.464m0-3.464a2 2 0 0 1 1-.268c.364 0 .706.097 1 .268m-2 0V13.5s0 0 0 0a1 1 0 0 1 1-1s0 0 0 0v0s0 0 0 0a1 1 0 0 1 1 1s0 0 0 0v.768m0 0a2 2 0 0 1 0 3.464m0 0a2 2 0 0 1-1 .268 2 2 0 0 1-1-.268m2 0v.768a1 1 0 0 1-1 1v0a1 1 0 0 1-1-1v-.768M16.8 9h2.4c.75 0 1.125 0 1.388.191a1 1 0 0 1 .221.221C21 9.675 21 10.05 21 10.8v6.4c0 .75 0 1.125-.191 1.388a1 1 0 0 1-.221.221C20.325 19 19.95 19 19.2 19h-2.4c-.75 0-1.125 0-1.388-.191a1 1 0 0 1-.221-.221C15 18.325 15 17.95 15 17.2v-6.4c0-.75 0-1.125.191-1.388a1 1 0 0 1 .221-.221C15.675 9 16.05 9 16.8 9" />
    </symbol>
    <symbol id="playstation" xmlns="http://www.w3.org/2000/svg" viewBox="0 0 24 24">
        <path fill="currentColor"
              d="M9.236 3.38v16.085l3.59 1.156V7.131c0-.633.278-1.055.727-.909.583.166.696.747.696 1.38v5.386c2.238 1.094 3.999-.002 3.999-2.89 0-2.967-1.032-4.285-4.068-5.341-1.198-.41-3.417-1.087-4.942-1.377zm4.268 14.888 5.772-2.085c.655-.237.757-.573.225-.75-.537-.176-1.5-.127-2.16.113l-3.855 1.374v-2.187l.22-.077s1.1-.385 2.67-.564c1.555-.165 3.47.026 4.984.606 1.694.55 1.87 1.349 1.445 1.899-.427.55-1.487.95-1.487.95l-7.832 2.848v-2.106zM2.658 18.05c-1.742-.5-2.03-1.53-1.24-2.128.735-.536 1.98-.963 1.98-.963l5.147-1.845v2.12l-3.69 1.35c-.645.248-.755.579-.218.756.537.18 1.5.138 2.147-.11l1.777-.647v1.901c-.111.027-.235.04-.359.067-1.776.304-3.662.18-5.533-.439z" />
    </symbol>
    <symbol id="safari1" xmlns="http://www.w3.org/2000/svg" viewBox="0 0 24 24">
        <path fill="currentColor" d="m11.193 11.193 1.612 1.612-5.408 3.797z" />
        <path fill="currentColor" fill-rule="evenodd"
              d="M1 12c0 6.075 4.925 11 11 11s11-4.925 11-11S18.075 1 12 1 1 5.925 1 12m11.162-9.1a.23.23 0 0 0-.391.162v.917a.23.23 0 0 0 .458 0v-.917a.23.23 0 0 0-.067-.162m0 16.959a.229.229 0 0 0-.391.162v.916a.23.23 0 0 0 .458 0v-.916a.23.23 0 0 0-.067-.162M18.549 5.68a.229.229 0 0 0-.39-.162l-.65.648a.2.2 0 0 0-.047.068l-6.596 4.632-4.632 6.596a.2.2 0 0 0-.068.047l-.648.65a.23.23 0 1 0 .324.323l.649-.648a.2.2 0 0 0 .047-.068l6.596-4.632 4.632-6.596a.2.2 0 0 0 .068-.047l.648-.65a.23.23 0 0 0 .067-.161M5.68 5.452a.23.23 0 0 0-.162.39l.648.65a.23.23 0 0 0 .325-.325l-.65-.648a.23.23 0 0 0-.161-.067M17.584 17.46a.23.23 0 0 0-.075.375l.65.648a.23.23 0 0 0 .378-.25.2.2 0 0 0-.055-.074l-.648-.649a.23.23 0 0 0-.25-.05M2.9 11.838a.23.23 0 0 0 .162.391h.917a.229.229 0 1 0 0-.458h-.917a.23.23 0 0 0-.162.067m16.959 0a.23.23 0 0 0 .162.391h.916a.229.229 0 1 0 0-.458h-.916a.23.23 0 0 0-.162.067m-4.204-8.226a.23.23 0 0 0-.25-.051.23.23 0 0 0-.124.123l-.358.843a.229.229 0 1 0 .422.18l.358-.844a.23.23 0 0 0-.047-.25ZM9.08 19.298a.229.229 0 0 0-.423-.004l-.358.843a.23.23 0 0 0 .422.179l.358-.843a.23.23 0 0 0 .001-.175M20.498 8.74a.229.229 0 0 0-.297-.301l-.85.343a.23.23 0 0 0 .172.425l.85-.344a.23.23 0 0 0 .125-.123M4.793 15.006a.23.23 0 0 0-.316-.215l-.85.344a.23.23 0 1 0 .172.424l.85-.342a.23.23 0 0 0 .144-.211M8.74 3.502a.23.23 0 0 0-.301.297l.342.85a.23.23 0 1 0 .426-.172l-.344-.85a.23.23 0 0 0-.123-.125m6.266 15.705a.23.23 0 0 0-.215.316l.344.85a.23.23 0 0 0 .301.133.23.23 0 0 0 .123-.305l-.343-.85a.23.23 0 0 0-.21-.144M3.612 8.344a.23.23 0 0 0 .072.375l.843.358a.23.23 0 0 0 .18-.422l-.844-.358a.23.23 0 0 0-.25.047Zm15.686 6.578a.229.229 0 0 0-.004.423l.843.357a.229.229 0 1 0 .179-.421l-.843-.358a.23.23 0 0 0-.175-.001"
              clip-rule="evenodd" />
    </symbol>
    <symbol id="safari" xmlns="http://www.w3.org/2000/svg" viewBox="0 0 24 24">
        <path fill="currentColor"
              d="M12 23C5.925 23 1 18.075 1 12S5.925 1 12 1s11 4.925 11 11-4.925 11-11 11m0-.688c5.695 0 10.313-4.617 10.313-10.312S17.695 1.687 12 1.687 1.687 6.306 1.687 12 6.306 22.313 12 22.313Zm0-19.479a.23.23 0 0 1 .23.23v.916a.23.23 0 0 1-.46 0v-.917a.23.23 0 0 1 .23-.229m0 16.959a.23.23 0 0 1 .23.229v.916a.229.229 0 0 1-.46 0v-.916a.23.23 0 0 1 .23-.23Zm6.482-14.274a.23.23 0 0 1 0 .324l-.648.649a.23.23 0 0 1-.325-.325l.65-.648a.23.23 0 0 1 .323 0M6.49 17.51a.23.23 0 0 1 0 .325l-.65.648a.23.23 0 0 1-.332.01.23.23 0 0 1 .01-.334l.647-.649a.23.23 0 0 1 .325 0M5.518 5.52a.23.23 0 0 1 .324 0l.649.648a.23.23 0 1 1-.325.325l-.648-.65a.23.23 0 0 1 0-.323M17.51 17.51a.23.23 0 0 1 .325 0l.648.65a.23.23 0 0 1 .06.255.23.23 0 0 1-.22.144.23.23 0 0 1-.164-.076l-.649-.648a.23.23 0 0 1 0-.325M2.833 12a.23.23 0 0 1 .23-.23h.916a.23.23 0 0 1 0 .46h-.917a.23.23 0 0 1-.229-.23m16.959 0a.23.23 0 0 1 .229-.23h.916a.229.229 0 0 1 0 .46h-.916a.23.23 0 0 1-.23-.23Zm-4.21-8.438a.23.23 0 0 1 .121.3l-.358.844a.23.23 0 0 1-.304.13.23.23 0 0 1-.118-.309l.358-.843a.23.23 0 0 1 .3-.122Zm-6.625 15.61a.23.23 0 0 1 .12.3l-.357.844a.229.229 0 0 1-.421-.179l.357-.843a.23.23 0 0 1 .3-.122ZM20.499 8.566a.23.23 0 0 1-.126.298l-.85.344a.23.23 0 0 1-.172-.425l.85-.343a.23.23 0 0 1 .298.126M4.776 14.918a.23.23 0 0 1-.127.299l-.85.342a.23.23 0 0 1-.305-.123.23.23 0 0 1 .133-.301l.85-.344a.23.23 0 0 1 .299.127M8.566 3.5a.23.23 0 0 1 .298.126l.344.85a.23.23 0 1 1-.425.172L8.44 3.8a.23.23 0 0 1 .126-.298Zm6.353 15.723a.23.23 0 0 1 .298.127l.343.85a.229.229 0 0 1-.376.25.2.2 0 0 1-.048-.078l-.344-.85a.23.23 0 0 1 .127-.299M3.562 8.42a.23.23 0 0 1 .3-.122l.844.358a.23.23 0 0 1-.179.422l-.843-.358a.23.23 0 0 1-.122-.3m15.61 6.625a.23.23 0 0 1 .3-.12l.844.357a.23.23 0 0 1 .148.214.23.23 0 0 1-.238.23.2.2 0 0 1-.089-.023l-.843-.357a.23.23 0 0 1-.122-.3Zm-6.366-2.238-1.613-1.613-3.796 5.409zm5.676-7.288-5.348 7.616-7.616 5.348 5.348-7.616z" />
    </symbol>
    <symbol id="samsungInternet1" xmlns="http://www.w3.org/2000/svg" viewBox="0 0 24 24">
        <path fill="currentColor"
              d="M16.995 14.878c.5-.865.764-1.845.768-2.843V12a5.766 5.766 0 1 0-11.533-.006c1.2.805 3.017 1.598 5.116 2.168 2.169.591 4.194.824 5.65.716Zm2.203-.995c-.1.366-.472.633-1.05.803a6.7 6.7 0 0 0 .52-1.963l.01-.087c.427.447.622.876.52 1.247m-13.3-4.687.05-.102c-.684.166-1.12.451-1.227.848s.117.854.604 1.333a6.7 6.7 0 0 1 .573-2.08Z" />
        <path fill="currentColor" fill-rule="evenodd"
              d="M10.18 23h3.631c5.31 0 8.96-3.516 9.142-8.74l.007-4.114C22.96 4.7 19.258 1 13.81 1l-4.11.01c-5.18.206-8.666 3.733-8.666 9.012v3.943c0 5.443 3.7 9.037 9.146 9.035m-3.826-9.804a11 11 0 0 1-1.05-.727c-1.156-.92-1.75-1.878-1.529-2.692s1.215-1.34 2.67-1.546a6.712 6.712 0 0 1 12.248 3.33c1.154.916 1.746 1.877 1.525 2.691-.222.815-1.222 1.342-2.692 1.547-.393.059-.82.088-1.276.102-1.484.03-3.26-.204-5.116-.704-1.86-.51-3.511-1.214-4.78-1.994zm8.82 3.616a5.76 5.76 0 0 1-8.34-2.24q-.675-.354-1.307-.784a6.71 6.71 0 0 0 6.47 4.919A6.7 6.7 0 0 0 16.7 16.77c-.473.044-.985.05-1.528.03l.002.011Z"
              clip-rule="evenodd" />
    </symbol>
    <symbol id="samsungInternet" xmlns="http://www.w3.org/2000/svg" viewBox="0 0 24 24">
        <path fill="currentColor"
              d="M12.919 17.695a5.8 5.8 0 0 0 2.256-.883l-.002-.012c.543.02 1.055.015 1.528-.029a6.7 6.7 0 0 1-4.704 1.936 6.71 6.71 0 0 1-6.47-4.919q.631.43 1.307.783a5.76 5.76 0 0 0 6.085 3.124" />
        <path fill="currentColor" fill-rule="evenodd"
              d="M5.303 12.469q.504.395 1.05.727v.007c1.27.78 2.921 1.485 4.781 1.994 1.857.5 3.632.733 5.116.704.456-.014.883-.043 1.276-.102 1.47-.205 2.47-.732 2.692-1.546s-.37-1.776-1.525-2.693A6.712 6.712 0 0 0 6.444 8.231c-1.454.207-2.447.73-2.669 1.546-.22.814.373 1.772 1.528 2.692m12.46-.434a5.74 5.74 0 0 1-.768 2.843c-1.455.108-3.48-.125-5.649-.716-2.1-.57-3.915-1.363-5.116-2.168A5.767 5.767 0 0 1 17.764 12zm.385 2.65c.578-.17.95-.436 1.05-.802.102-.371-.093-.8-.52-1.247l-.01.087a6.7 6.7 0 0 1-.52 1.963Zm-12.2-5.591-.05.102v-.002a6.7 6.7 0 0 0-.573 2.081c-.487-.479-.711-.937-.604-1.333.106-.397.543-.682 1.227-.848"
              clip-rule="evenodd" />
        <path fill="currentColor" fill-rule="evenodd"
              d="M13.811 23h-3.63c-5.445 0-9.146-3.593-9.146-9.036v-3.943c0-5.28 3.485-8.806 8.666-9.012L13.81 1c5.447 0 9.149 3.7 9.149 9.147l-.008 4.114c-.181 5.224-3.83 8.74-9.14 8.74ZM4.084 4.25C5.414 2.877 7.34 2.024 9.72 1.926l4.091-.01h.002c2.51 0 4.553.85 5.967 2.263s2.263 3.457 2.263 5.967l-.007 4.097c-.087 2.393-.96 4.338-2.365 5.684-1.408 1.349-3.412 2.155-5.86 2.155h-3.63c-2.518.001-4.562-.826-5.972-2.213-1.409-1.385-2.257-3.398-2.257-5.905v-3.943c0-2.432.799-4.395 2.132-5.77Z"
              clip-rule="evenodd" />
    </symbol>
    <symbol id="samsung" xmlns="http://www.w3.org/2000/svg" fill="currentColor" viewBox="0 0 64 32">
        <path fill="currentColor"
              d="m52.844 11.416.123 7.182h-.062l-2.078-7.182h-3.423v9.046h2.262l-.122-7.426h.06l2.232 7.426h3.27v-9.046zm-43.064 0-1.71 9.138h2.475l1.254-8.313h.06l1.223 8.313h2.445l-1.68-9.138zm13.815 0-1.13 6.968h-.062l-1.13-6.969h-3.73l-.183 9.14h2.292l.062-8.223h.03l1.528 8.222h2.323l1.528-8.221h.061l.061 8.22h2.293l-.214-9.138zm-19.377 6.54c.091.214.06.52.03.672-.06.306-.275.612-.886.612-.58 0-.917-.336-.917-.826v-.886H0v.703c0 2.048 1.62 2.66 3.331 2.66 1.65 0 3.026-.582 3.24-2.08.122-.794.03-1.313 0-1.497-.428-1.925-3.912-2.475-4.157-3.545a1.3 1.3 0 0 1 0-.49c.062-.305.276-.61.826-.61s.856.335.856.825v.55h2.292v-.642c0-1.986-1.803-2.292-3.087-2.292-1.62 0-2.965.55-3.21 2.017-.06.397-.091.764.031 1.223.367 1.894 3.638 2.445 4.096 3.606m29.738 0c.092.214.061.49.03.672-.06.306-.274.612-.886.612-.58 0-.916-.336-.916-.826v-.886h-2.446v.703c0 2.017 1.59 2.629 3.301 2.629 1.65 0 2.995-.55 3.21-2.079.122-.794.03-1.283 0-1.497-.367-1.895-3.821-2.476-4.065-3.515a1.3 1.3 0 0 1 0-.49c.06-.305.274-.61.825-.61.519 0 .855.335.855.825v.55h2.262v-.642c0-1.986-1.773-2.292-3.056-2.292-1.62 0-2.934.52-3.179 2.017a3.3 3.3 0 0 0 .03 1.223c.367 1.894 3.577 2.414 4.035 3.606m7.702 1.223c.642 0 .825-.428.886-.673.03-.091.03-.244.03-.336v-6.755h2.324v6.572c0 .183 0 .52-.03.61-.154 1.713-1.498 2.263-3.18 2.263-1.68 0-3.025-.55-3.178-2.262 0-.092-.03-.428-.03-.611v-6.571h2.322v6.754c0 .122 0 .244.03.336 0 .245.184.673.826.673m19.072-.092c.672 0 .886-.428.947-.673.03-.091.03-.244.03-.336v-1.314h-.947v-1.345H64v2.445c0 .184 0 .306-.03.612-.154 1.68-1.59 2.261-3.21 2.261s-3.056-.58-3.209-2.261c-.03-.306-.03-.428-.03-.612v-3.85c0-.153.03-.46.03-.612.214-1.712 1.59-2.262 3.21-2.262s3.025.55 3.208 2.262c.031.275.031.611.031.611v.306h-2.292v-.52s0-.214-.03-.336c-.031-.214-.215-.672-.918-.672-.672 0-.856.428-.916.672-.031.122-.031.275-.031.428v4.187c0 .123 0 .245.03.336 0 .245.245.673.887.673" />
    </symbol>
    <symbol id="tauri" xmlns="http://www.w3.org/2000/svg" viewBox="0 0 24 24">
        <path fill="currentColor"
              d="M17.798 15.715a7.9 7.9 0 0 1-2.748 1.123 5.64 5.64 0 0 0 .274-2.531 5.6 5.6 0 0 0 2.187-1.41 5.62 5.62 0 0 0 1.476-4.857 5.6 5.6 0 0 0-1.03-2.396 5.6 5.6 0 0 0-1.999-1.67 5.57 5.57 0 0 0-7.02 1.759 9.3 9.3 0 0 0-3.052.894A8 8 0 0 1 7.833 3.37a7.93 7.93 0 0 1 10.471-.74 8 8 0 0 1 2.383 2.952 8.02 8.02 0 0 1-.286 7.377 8 8 0 0 1-2.603 2.757Z" />
        <path fill="currentColor"
              d="M15.561 9.006a2.1 2.1 0 0 1-.61 1.48 2.08 2.08 0 0 1-2.949 0 2.1 2.1 0 0 1 0-2.96 2.08 2.08 0 0 1 2.949 0c.39.392.61.925.61 1.48M5.64 8.293A7.9 7.9 0 0 1 8.407 7.16a5.6 5.6 0 0 0-.313 2.54 5.6 5.6 0 0 0-2.176 1.42 5.62 5.62 0 0 0-1.454 4.856 5.6 5.6 0 0 0 1.036 2.39 5.573 5.573 0 0 0 9.01-.1 9.3 9.3 0 0 0 3.05-.885 8 8 0 0 1-1.948 3.254 7.95 7.95 0 0 1-3.224 1.984 7.93 7.93 0 0 1-7.241-1.246 8 8 0 0 1-2.383-2.949 8.02 8.02 0 0 1 .278-7.372 8 8 0 0 1 2.598-2.76Z" />
        <path fill="currentColor"
              d="M9.97 12.908a2.09 2.09 0 0 0-2.084 2.094 2.09 2.09 0 0 0 2.084 2.093 2.09 2.09 0 0 0 2.085-2.093 2.09 2.09 0 0 0-2.085-2.094" />
    </symbol>
    <symbol id="windows" xmlns="http://www.w3.org/2000/svg" viewBox="0 0 24 24">
        <path fill="currentColor"
              d="m1 4.362 8.938-1.237v8.663H1m10.037-8.801L23 1.2v10.45H11.037M1 12.75h8.938v8.663L1 20.174m10.037-7.424H23V23.2l-11.825-1.65" />
    </symbol>
    <symbol id="xbox" xmlns="http://www.w3.org/2000/svg" viewBox="0 0 24 24">
        <path fill="currentColor"
              d="M4.76 20.28A10.95 10.95 0 0 0 12 23c2.774 0 5.307-1.026 7.244-2.72 1.72-1.752-3.957-7.983-7.244-10.465-3.284 2.482-8.964 8.713-7.24 10.465M14.99 7.075c2.292 2.714 6.86 9.453 5.57 11.836A10.95 10.95 0 0 0 23 12.004c0-3.062-1.251-5.832-3.273-7.825 0 0-.024-.02-.075-.038a.8.8 0 0 0-.257-.042c-.543 0-1.82.398-4.405 2.976M4.35 4.14c-.053.018-.076.037-.08.038A10.96 10.96 0 0 0 1 12.004c0 2.616.915 5.017 2.44 6.905C2.154 16.52 6.72 9.787 9.012 7.075 6.428 4.496 5.148 4.1 4.607 4.1a.7.7 0 0 0-.258.042zm7.65.114S9.3 2.675 7.192 2.6c-.828-.03-1.333.27-1.394.311C7.764 1.592 9.854 1 11.985 1H12c2.14 0 4.221.592 6.202 1.911-.062-.042-.564-.34-1.393-.31C14.7 2.675 12 4.25 12 4.25v.005Z" />
    </symbol>
</svg>
