<svg width="0" height="0" style="display: none;">
    <symbol xmlns="http://www.w3.org/2000/svg" viewBox="0 0 24 24" id="facebook">
        <g clip-path="url(#clip0_3518_67678)">
            <path
                    d="M24 12C24 5.37258 18.6274 0 12 0C5.37258 0 0 5.37258 0 12C0 17.9895 4.3882 22.954 10.125 23.8542V15.4688H7.07812V12H10.125V9.35625C10.125 6.34875 11.9166 4.6875 14.6576 4.6875C15.9701 4.6875 17.3438 4.92188 17.3438 4.92188V7.875H15.8306C14.34 7.875 13.875 8.80008 13.875 9.75V12H17.2031L16.6711 15.4688H13.875V23.8542C19.6118 22.954 24 17.9895 24 12Z"
                    fill="currentColor" />
        </g>
        <defs>
            <clipPath id="clip0_3518_67678">
                <rect width="24" height="24" fill="white" />
            </clipPath>
        </defs>
    </symbol>
    <symbol xmlns="http://www.w3.org/2000/svg" viewBox="0 0 24 24" id="twitter">
        <path
                d="M7.55016 21.75C16.6045 21.75 21.5583 14.2467 21.5583 7.74186C21.5583 7.53092 21.5536 7.3153 21.5442 7.10436C22.5079 6.40746 23.3395 5.54425 24 4.5553C23.1025 4.9546 22.1496 5.21538 21.1739 5.32874C22.2013 4.71291 22.9705 3.74547 23.3391 2.60577C22.3726 3.17856 21.3156 3.58261 20.2134 3.80061C19.4708 3.01156 18.489 2.48912 17.4197 2.31405C16.3504 2.13899 15.2532 2.32105 14.2977 2.8321C13.3423 3.34314 12.5818 4.15471 12.1338 5.14131C11.6859 6.12792 11.5754 7.23462 11.8195 8.2903C9.86249 8.19209 7.94794 7.6837 6.19998 6.7981C4.45203 5.91249 2.90969 4.66944 1.67297 3.14952C1.0444 4.23324 0.852057 5.51565 1.13503 6.73609C1.418 7.95654 2.15506 9.02345 3.19641 9.71999C2.41463 9.69517 1.64998 9.48468 0.965625 9.10592V9.16686C0.964925 10.3041 1.3581 11.4066 2.07831 12.2868C2.79852 13.167 3.80132 13.7706 4.91625 13.995C4.19206 14.1931 3.43198 14.222 2.69484 14.0794C3.00945 15.0574 3.62157 15.9129 4.44577 16.5263C5.26997 17.1398 6.26512 17.4806 7.29234 17.5012C5.54842 18.8711 3.39417 19.6141 1.17656 19.6106C0.783287 19.61 0.390399 19.5859 0 19.5384C2.25286 20.9837 4.87353 21.7514 7.55016 21.75Z"
                fill="currentColor" />

    </symbol>
    <symbol xmlns="http://www.w3.org/2000/svg" viewBox="0 0 24 24" id="instagram">
        <g clip-path="url(#clip0_3518_67708)">
            <path
                    d="M12 2.16094C15.2063 2.16094 15.5859 2.175 16.8469 2.23125C18.0188 2.28281 18.6516 2.47969 19.0734 2.64375C19.6313 2.85938 20.0344 3.12188 20.4516 3.53906C20.8734 3.96094 21.1313 4.35938 21.3469 4.91719C21.5109 5.33906 21.7078 5.97656 21.7594 7.14375C21.8156 8.40937 21.8297 8.78906 21.8297 11.9906C21.8297 15.1969 21.8156 15.5766 21.7594 16.8375C21.7078 18.0094 21.5109 18.6422 21.3469 19.0641C21.1313 19.6219 20.8688 20.025 20.4516 20.4422C20.0297 20.8641 19.6313 21.1219 19.0734 21.3375C18.6516 21.5016 18.0141 21.6984 16.8469 21.75C15.5813 21.8063 15.2016 21.8203 12 21.8203C8.79375 21.8203 8.41406 21.8063 7.15313 21.75C5.98125 21.6984 5.34844 21.5016 4.92656 21.3375C4.36875 21.1219 3.96563 20.8594 3.54844 20.4422C3.12656 20.0203 2.86875 19.6219 2.65313 19.0641C2.48906 18.6422 2.29219 18.0047 2.24063 16.8375C2.18438 15.5719 2.17031 15.1922 2.17031 11.9906C2.17031 8.78438 2.18438 8.40469 2.24063 7.14375C2.29219 5.97187 2.48906 5.33906 2.65313 4.91719C2.86875 4.35938 3.13125 3.95625 3.54844 3.53906C3.97031 3.11719 4.36875 2.85938 4.92656 2.64375C5.34844 2.47969 5.98594 2.28281 7.15313 2.23125C8.41406 2.175 8.79375 2.16094 12 2.16094ZM12 0C8.74219 0 8.33438 0.0140625 7.05469 0.0703125C5.77969 0.126563 4.90313 0.332812 4.14375 0.628125C3.35156 0.9375 2.68125 1.34531 2.01563 2.01562C1.34531 2.68125 0.9375 3.35156 0.628125 4.13906C0.332812 4.90313 0.126563 5.775 0.0703125 7.05C0.0140625 8.33437 0 8.74219 0 12C0 15.2578 0.0140625 15.6656 0.0703125 16.9453C0.126563 18.2203 0.332812 19.0969 0.628125 19.8563C0.9375 20.6484 1.34531 21.3188 2.01563 21.9844C2.68125 22.65 3.35156 23.0625 4.13906 23.3672C4.90313 23.6625 5.775 23.8687 7.05 23.925C8.32969 23.9812 8.7375 23.9953 11.9953 23.9953C15.2531 23.9953 15.6609 23.9812 16.9406 23.925C18.2156 23.8687 19.0922 23.6625 19.8516 23.3672C20.6391 23.0625 21.3094 22.65 21.975 21.9844C22.6406 21.3188 23.0531 20.6484 23.3578 19.8609C23.6531 19.0969 23.8594 18.225 23.9156 16.95C23.9719 15.6703 23.9859 15.2625 23.9859 12.0047C23.9859 8.74688 23.9719 8.33906 23.9156 7.05938C23.8594 5.78438 23.6531 4.90781 23.3578 4.14844C23.0625 3.35156 22.6547 2.68125 21.9844 2.01562C21.3188 1.35 20.6484 0.9375 19.8609 0.632812C19.0969 0.3375 18.225 0.13125 16.95 0.075C15.6656 0.0140625 15.2578 0 12 0Z"
                    fill="currentColor" />
            <path
                    d="M12 5.83594C8.59688 5.83594 5.83594 8.59688 5.83594 12C5.83594 15.4031 8.59688 18.1641 12 18.1641C15.4031 18.1641 18.1641 15.4031 18.1641 12C18.1641 8.59688 15.4031 5.83594 12 5.83594ZM12 15.9984C9.79219 15.9984 8.00156 14.2078 8.00156 12C8.00156 9.79219 9.79219 8.00156 12 8.00156C14.2078 8.00156 15.9984 9.79219 15.9984 12C15.9984 14.2078 14.2078 15.9984 12 15.9984Z"
                    fill="currentColor" />
            <path
                    d="M19.8469 5.59214C19.8469 6.38902 19.2 7.0312 18.4078 7.0312C17.6109 7.0312 16.9688 6.38433 16.9688 5.59214C16.9688 4.79526 17.6156 4.15308 18.4078 4.15308C19.2 4.15308 19.8469 4.79995 19.8469 5.59214Z"
                    fill="currentColor" />
        </g>
        <defs>
            <clipPath id="clip0_3518_67708">
                <rect width="24" height="24" fill="white" />
            </clipPath>
        </defs>
    </symbol>
    <symbol xmlns="http://www.w3.org/2000/svg" viewBox="0 0 24 24" id="tiktok">
        <path
                d="M17.0725 0H13.0278V16.3478C13.0278 18.2957 11.4722 19.8957 9.53626 19.8957C7.60034 19.8957 6.04469 18.2957 6.04469 16.3478C6.04469 14.4348 7.56577 12.8695 9.43257 12.8V8.69567C5.31872 8.7652 2 12.1391 2 16.3478C2 20.5913 5.38786 24 9.57085 24C13.7538 24 17.1416 20.5565 17.1416 16.3478V7.9652C18.6627 9.07827 20.5295 9.73913 22.5 9.77393V5.66957C19.4579 5.56522 17.0725 3.06087 17.0725 0Z"
                fill="currentColor" />

    </symbol>
    <symbol xmlns="http://www.w3.org/2000/svg" viewBox="0 0 24 24" id="youtube">
        <path
                d="M23.7609 7.20005C23.7609 7.20005 23.5266 5.54536 22.8047 4.8188C21.8906 3.86255 20.8688 3.85786 20.4 3.80161C17.0438 3.55786 12.0047 3.55786 12.0047 3.55786H11.9953C11.9953 3.55786 6.95625 3.55786 3.6 3.80161C3.13125 3.85786 2.10938 3.86255 1.19531 4.8188C0.473438 5.54536 0.24375 7.20005 0.24375 7.20005C0.24375 7.20005 0 9.14536 0 11.086V12.9047C0 14.8454 0.239062 16.7907 0.239062 16.7907C0.239062 16.7907 0.473437 18.4454 1.19062 19.1719C2.10469 20.1282 3.30469 20.0954 3.83906 20.1985C5.76094 20.3813 12 20.4375 12 20.4375C12 20.4375 17.0438 20.4282 20.4 20.1891C20.8688 20.1329 21.8906 20.1282 22.8047 19.1719C23.5266 18.4454 23.7609 16.7907 23.7609 16.7907C23.7609 16.7907 24 14.85 24 12.9047V11.086C24 9.14536 23.7609 7.20005 23.7609 7.20005ZM9.52031 15.1125V8.36724L16.0031 11.7516L9.52031 15.1125Z"
                fill="currentColor" />

    </symbol>
    <symbol xmlns="http://www.w3.org/2000/svg" viewBox="0 0 24 24" id="help">
        <path
                d="M9.09 9C9.3251 8.33167 9.78915 7.76811 10.4 7.40913C11.0108 7.05016 11.7289 6.91894 12.4272 7.03871C13.1255 7.15849 13.7588 7.52152 14.2151 8.06353C14.6713 8.60553 14.9211 9.29152 14.92 10C14.92 12 11.92 13 11.92 13M12 17H12.01M22 12C22 17.5228 17.5228 22 12 22C6.47715 22 2 17.5228 2 12C2 6.47715 6.47715 2 12 2C17.5228 2 22 6.47715 22 12Z"
                stroke="currentColor" stroke-width="2" stroke-linecap="round" stroke-linejoin="round" />

    </symbol>
    <symbol xmlns="http://www.w3.org/2000/svg" viewBox="0 0 190.24 81.52" id="tmdb">
        <path fill="currentColor"
              d="M105.67 36.06h66.9a17.67 17.67 0 0017.67-17.66A17.67 17.67 0 00172.57.73h-66.9A17.67 17.67 0 0088 18.4a17.67 17.67 0 0017.67 17.66zm-88 45h76.9a17.67 17.67 0 0017.67-17.66 17.67 17.67 0 00-17.67-17.67h-76.9A17.67 17.67 0 000 63.4a17.67 17.67 0 0017.67 17.66zm-7.26-45.64h7.8V6.92h10.1V0h-28v6.9h10.1zm28.1 0h7.8V8.25h.1l9 27.15h6l9.3-27.15h.1V35.4h7.8V0H66.76l-8.2 23.1h-.1L50.31 0h-11.8zm113.92 20.25a15.07 15.07 0 00-4.52-5.52 18.57 18.57 0 00-6.68-3.08 33.54 33.54 0 00-8.07-1h-11.7v35.4h12.75a24.58 24.58 0 007.55-1.15 19.34 19.34 0 006.35-3.32 16.27 16.27 0 004.37-5.5 16.91 16.91 0 001.63-7.58 18.5 18.5 0 00-1.68-8.25zM145 68.6a8.8 8.8 0 01-2.64 3.4 10.7 10.7 0 01-4 1.82 21.57 21.57 0 01-5 .55h-4.05v-21h4.6a17 17 0 014.67.63 11.66 11.66 0 013.88 1.87A9.14 9.14 0 01145 59a9.87 9.87 0 011 4.52 11.89 11.89 0 01-1 5.08zm44.63-.13a8 8 0 00-1.58-2.62 8.38 8.38 0 00-2.42-1.85 10.31 10.31 0 00-3.17-1v-.1a9.22 9.22 0 004.42-2.82 7.43 7.43 0 001.68-5 8.42 8.42 0 00-1.15-4.65 8.09 8.09 0 00-3-2.72 12.56 12.56 0 00-4.18-1.3 32.84 32.84 0 00-4.62-.33h-13.2v35.4h14.5a22.41 22.41 0 004.72-.5 13.53 13.53 0 004.28-1.65 9.42 9.42 0 003.1-3 8.52 8.52 0 001.2-4.68 9.39 9.39 0 00-.55-3.18zm-19.42-15.75h5.3a10 10 0 011.85.18 6.18 6.18 0 011.7.57 3.39 3.39 0 011.22 1.13 3.22 3.22 0 01.48 1.82 3.63 3.63 0 01-.43 1.8 3.4 3.4 0 01-1.12 1.2 4.92 4.92 0 01-1.58.65 7.51 7.51 0 01-1.77.2h-5.65zm11.72 20a3.9 3.9 0 01-1.22 1.3 4.64 4.64 0 01-1.68.7 8.18 8.18 0 01-1.82.2h-7v-8h5.9a15.35 15.35 0 012 .15 8.47 8.47 0 012.05.55 4 4 0 011.57 1.18 3.11 3.11 0 01.63 2 3.71 3.71 0 01-.43 1.92z"
              stroke-width="1.5" stroke="none" aria-hidden="true" />
    </symbol>
    <symbol xmlns="http://www.w3.org/2000/svg" viewBox="0 0 640 512" id="wikipedia" stroke="currentColor"
            fill="currentColor">
        <path
                d="M640 51.2l-.3 12.2c-28.1.8-45 15.8-55.8 40.3-25 57.8-103.3 240-155.3 358.6H415l-81.9-193.1c-32.5 63.6-68.3 130-99.2 193.1-.3.3-15 0-15-.3C172 352.3 122.8 243.4 75.8 133.4 64.4 106.7 26.4 63.4.2 63.7c0-3.1-.3-10-.3-14.2h161.9v13.9c-19.2 1.1-52.8 13.3-43.3 34.2 21.9 49.7 103.6 240.3 125.6 288.6 15-29.7 57.8-109.2 75.3-142.8-13.9-28.3-58.6-133.9-72.8-160-9.7-17.8-36.1-19.4-55.8-19.7V49.8l142.5.3v13.1c-19.4.6-38.1 7.8-29.4 26.1 18.9 40 30.6 68.1 48.1 104.7 5.6-10.8 34.7-69.4 48.1-100.8 8.9-20.6-3.9-28.6-38.6-29.4.3-3.6 0-10.3.3-13.6 44.4-.3 111.1-.3 123.1-.6v13.6c-22.5.8-45.8 12.8-58.1 31.7l-59.2 122.8c6.4 16.1 63.3 142.8 69.2 156.7L559.2 91.8c-8.6-23.1-36.4-28.1-47.2-28.3V49.6l127.8 1.1.2.5z" />
    </symbol>
    <symbol xmlns="http://www.w3.org/2000/svg" viewBox="0 30 448 448" id="imdb">
        <path fill="currentColor"
              d="M400 32H48C21.5 32 0 53.5 0 80v352c0 26.5 21.5 48 48 48h352c26.5 0 48-21.5 48-48V80c0-26.5-21.5-48-48-48zM21.3 229.2H21c.1-.1.2-.3.3-.4zM97 319.8H64V192h33zm113.2 0h-28.7v-86.4l-11.6 86.4h-20.6l-12.2-84.5v84.5h-29V192h42.8c3.3 19.8 6 39.9 8.7 59.9l7.6-59.9h43zm11.4 0V192h24.6c17.6 0 44.7-1.6 49 20.9 1.7 7.6 1.4 16.3 1.4 24.4 0 88.5 11.1 82.6-75 82.5zm160.9-29.2c0 15.7-2.4 30.9-22.2 30.9-9 0-15.2-3-20.9-9.8l-1.9 8.1h-29.8V192h31.7v41.7c6-6.5 12-9.2 20.9-9.2 21.4 0 22.2 12.8 22.2 30.1zM265 229.9c0-9.7 1.6-16-10.3-16v83.7c12.2.3 10.3-8.7 10.3-18.4zm85.5 26.1c0-5.4 1.1-12.7-6.2-12.7-6 0-4.9 8.9-4.9 12.7 0 .6-1.1 39.6 1.1 44.7.8 1.6 2.2 2.4 3.8 2.4 7.8 0 6.2-9 6.2-14.4z" />
    </symbol>
    <symbol xmlns="http://www.w3.org/2000/svg" viewBox="0 0 24 24" id="down">
    </symbol>
    <symbol xmlns="http://www.w3.org/2000/svg" viewBox="0 0 24 24" id="up">
    </symbol>
    <symbol xmlns="http://www.w3.org/2000/svg" viewBox="0 0 24 24" id="next">
    </symbol>
    <symbol xmlns="http://www.w3.org/2000/svg" viewBox="0 0 24 24" id="play">
    </symbol>
    <symbol xmlns="http://www.w3.org/2000/svg" viewBox="0 0 24 24" id="prev">
    </symbol>
    <symbol xmlns="http://www.w3.org/2000/svg" viewBox="0 0 160 29" id="logo">
    </symbol>
    <symbol xmlns="http://www.w3.org/2000/svg" viewBox="0 0 24 24" id="leeftijd-18">
    </symbol>
    <symbol xmlns="http://www.w3.org/2000/svg" viewBox="0 0 24 24" id="alle-leeftijden">
    </symbol>
    <symbol xmlns="http://www.w3.org/2000/svg" viewBox="0 0 24 24" id="leeftijd-6">
    </symbol>
    <symbol xmlns="http://www.w3.org/2000/svg" viewBox="0 0 24 24" id="leeftijd-9">
    </symbol>
    <symbol xmlns="http://www.w3.org/2000/svg" viewBox="0 0 24 24" id="leeftijd-12">
    </symbol>
    <symbol xmlns="http://www.w3.org/2000/svg" viewBox="0 0 24 24" id="leeftijd-16">
    </symbol>
    <symbol xmlns="http://www.w3.org/2000/svg" viewBox="0 0 24 24" id="leeftijd-14">
    </symbol>
    <symbol xmlns="http://www.w3.org/2000/svg" viewBox="0 0 24 24" id="angst">
    </symbol>
    <symbol xmlns="http://www.w3.org/2000/svg" viewBox="0 0 24 24" id="drugs">
    </symbol>
    <symbol xmlns="http://www.w3.org/2000/svg" viewBox="0 0 24 24" id="seks">
    </symbol>
    <symbol xmlns="http://www.w3.org/2000/svg" viewBox="0 0 24 24" id="geweld">
    </symbol>
    <symbol xmlns="http://www.w3.org/2000/svg" viewBox="0 0 24 24" id="grof-taalgebruik">
    </symbol>
    <symbol xmlns="http://www.w3.org/2000/svg" viewBox="0 0 24 24" id="discriminatie">
    </symbol>
    <symbol xmlns="http://www.w3.org/2000/svg" viewBox="0 0 87.2 87.2" id="gevaarlijk-gedrag">
    </symbol>
    <symbol xmlns="http://www.w3.org/2000/svg" viewBox="0 0 24 24" id="close">
    </symbol>
</svg>
